<?xml version="1.0" encoding="UTF-8" standalone="no"?>
<!-- This is a Stata 19.5 generated SVG file (http://www.stata.com) -->

<svg version="1.1" width="6.000in" height="3.000in" viewBox="0 0 4320 2160" xmlns="http://www.w3.org/2000/svg" xmlns:xlink="http://www.w3.org/1999/xlink">
	<desc>Stata Graph - g_levels</desc>
	<rect x="0" y="0" width="4320" height="2160" style="fill:#EAF2F3;stroke:none"/>
	<rect x="0.00" y="0.00" width="4320.00" height="2160.00" style="fill:#FFFFFF"/>
	<rect x="2.16" y="2.16" width="4315.68" height="2155.68" style="fill:none;stroke:#FFFFFF;stroke-width:4.32"/>
	<rect x="170.78" y="0.00" width="4149.23" height="1840.86" style="fill:#FFFFFF"/>
	<rect x="172.94" y="2.16" width="4144.91" height="1836.54" style="fill:none;stroke:#FFFFFF;stroke-width:4.32"/>
	<line x1="170.78" y1="1793.34" x2="4320.00" y2="1793.34" style="stroke:#CCCCCC;stroke-width:6.48"/>
	<line x1="170.78" y1="1356.89" x2="4320.00" y2="1356.89" style="stroke:#CCCCCC;stroke-width:6.48"/>
	<line x1="170.78" y1="920.43" x2="4320.00" y2="920.43" style="stroke:#CCCCCC;stroke-width:6.48"/>
	<line x1="170.78" y1="483.97" x2="4320.00" y2="483.97" style="stroke:#CCCCCC;stroke-width:6.48"/>
	<line x1="170.78" y1="47.52" x2="4320.00" y2="47.52" style="stroke:#CCCCCC;stroke-width:6.48"/>
	<line x1="1493.37" y1="1840.86" x2="1493.37" y2="1797.66" style="stroke:#404040;stroke-width:6.48"/>
	<line x1="1493.37" y1="1776.06" x2="1493.37" y2="1732.86" style="stroke:#404040;stroke-width:6.48"/>
	<line x1="1493.37" y1="1711.26" x2="1493.37" y2="1668.06" style="stroke:#404040;stroke-width:6.48"/>
	<line x1="1493.37" y1="1646.46" x2="1493.37" y2="1603.26" style="stroke:#404040;stroke-width:6.48"/>
	<line x1="1493.37" y1="1581.66" x2="1493.37" y2="1538.46" style="stroke:#404040;stroke-width:6.48"/>
	<line x1="1493.37" y1="1516.86" x2="1493.37" y2="1473.66" style="stroke:#404040;stroke-width:6.48"/>
	<line x1="1493.37" y1="1452.06" x2="1493.37" y2="1408.86" style="stroke:#404040;stroke-width:6.48"/>
	<line x1="1493.37" y1="1387.26" x2="1493.37" y2="1344.06" style="stroke:#404040;stroke-width:6.48"/>
	<line x1="1493.37" y1="1322.46" x2="1493.37" y2="1279.26" style="stroke:#404040;stroke-width:6.48"/>
	<line x1="1493.37" y1="1257.66" x2="1493.37" y2="1214.46" style="stroke:#404040;stroke-width:6.48"/>
	<line x1="1493.37" y1="1192.86" x2="1493.37" y2="1149.66" style="stroke:#404040;stroke-width:6.48"/>
	<line x1="1493.37" y1="1128.06" x2="1493.37" y2="1084.86" style="stroke:#404040;stroke-width:6.48"/>
	<line x1="1493.37" y1="1063.26" x2="1493.37" y2="1020.06" style="stroke:#404040;stroke-width:6.48"/>
	<line x1="1493.37" y1="998.46" x2="1493.37" y2="955.26" style="stroke:#404040;stroke-width:6.48"/>
	<line x1="1493.37" y1="933.66" x2="1493.37" y2="890.46" style="stroke:#404040;stroke-width:6.48"/>
	<line x1="1493.37" y1="868.86" x2="1493.37" y2="825.66" style="stroke:#404040;stroke-width:6.48"/>
	<line x1="1493.37" y1="804.06" x2="1493.37" y2="760.86" style="stroke:#404040;stroke-width:6.48"/>
	<line x1="1493.37" y1="739.26" x2="1493.37" y2="696.06" style="stroke:#404040;stroke-width:6.48"/>
	<line x1="1493.37" y1="674.46" x2="1493.37" y2="631.26" style="stroke:#404040;stroke-width:6.48"/>
	<line x1="1493.37" y1="609.66" x2="1493.37" y2="566.46" style="stroke:#404040;stroke-width:6.48"/>
	<line x1="1493.37" y1="544.86" x2="1493.37" y2="501.66" style="stroke:#404040;stroke-width:6.48"/>
	<line x1="1493.37" y1="480.06" x2="1493.37" y2="436.86" style="stroke:#404040;stroke-width:6.48"/>
	<line x1="1493.37" y1="415.26" x2="1493.37" y2="372.06" style="stroke:#404040;stroke-width:6.48"/>
	<line x1="1493.37" y1="350.46" x2="1493.37" y2="307.26" style="stroke:#404040;stroke-width:6.48"/>
	<line x1="1493.37" y1="285.66" x2="1493.37" y2="242.46" style="stroke:#404040;stroke-width:6.48"/>
	<line x1="1493.37" y1="220.86" x2="1493.37" y2="177.66" style="stroke:#404040;stroke-width:6.48"/>
	<line x1="1493.37" y1="156.06" x2="1493.37" y2="112.86" style="stroke:#404040;stroke-width:6.48"/>
	<line x1="1493.37" y1="91.26" x2="1493.37" y2="48.06" style="stroke:#404040;stroke-width:6.48"/>
	<line x1="1493.37" y1="26.46" x2="1493.37" y2="0.00" style="stroke:#404040;stroke-width:6.48"/>
	<path d=" M218.16 170.91 L283.50 162.94 L348.98 192.24 L414.32 234.49 L479.79 311.98 L545.13 380.43 L610.47 448.74 L675.95 467.91 L741.29 539.73 L806.63 581.04 L872.10 640.31 L937.44 703.08 L1002.92 685.53 L1068.26 724.41 L1133.60 748.85 L1199.07 812.16 L1264.41 875.74 L1329.75 904.50 L1395.23 842.27 L1460.57 791.91 L1526.04 817.29 L1591.38 817.02 L1656.72 832.82 L1722.20 848.07 L1787.54 800.01 L1853.01 796.64 L1918.35 813.65 L1983.69 868.05 L2049.17 894.38 L2114.51 892.48 L2179.84 844.83 L2245.32 797.71 L2310.66 794.34 L2376.14 780.30 L2441.48 801.36 L2506.82 816.89 L2572.29 795.56 L2637.63 805.01 L2702.97 808.24 L2768.45 857.79 L2833.79 903.02 L2899.26 935.96 L2964.60 884.12 L3029.94 824.85 L3095.42 846.59 L3160.76 834.84 L3226.10 838.21 L3291.57 846.99 L3356.91 827.42 L3422.39 818.10 L3487.73 829.17 L3553.07 892.08 L3618.54 919.48 L3683.88 942.30 L3749.22 873.86 L3814.70 824.31 L3880.04 833.76 L3945.51 828.49 L4010.85 833.90 L4076.19 845.37 L4141.67 831.46 L4207.01 823.37 L4272.35 808.52" stroke-linejoin="round" style="fill:none;stroke:#83082A;stroke-width:9.72"/>
	<line x1="218.16" y1="590.63" x2="260.69" y2="583.20" style="stroke:#404040;stroke-width:9.72"/>
	<line x1="282.02" y1="579.56" x2="283.50" y2="579.29" style="stroke:#404040;stroke-width:9.72"/>
	<line x1="283.50" y1="579.29" x2="318.46" y2="602.10" style="stroke:#404040;stroke-width:9.72"/>
	<line x1="336.56" y1="613.85" x2="348.98" y2="622.08" style="stroke:#404040;stroke-width:9.72"/>
	<line x1="348.98" y1="622.08" x2="375.44" y2="632.20" style="stroke:#404040;stroke-width:9.72"/>
	<line x1="395.55" y1="639.90" x2="414.32" y2="647.19" style="stroke:#404040;stroke-width:9.72"/>
	<line x1="414.32" y1="647.19" x2="429.98" y2="664.20" style="stroke:#404040;stroke-width:9.72"/>
	<line x1="444.56" y1="680.13" x2="473.72" y2="711.99" style="stroke:#404040;stroke-width:9.72"/>
	<line x1="487.62" y1="728.60" x2="514.08" y2="762.75" style="stroke:#404040;stroke-width:9.72"/>
	<line x1="527.31" y1="779.76" x2="545.13" y2="802.58" style="stroke:#404040;stroke-width:9.72"/>
	<line x1="545.13" y1="802.58" x2="553.64" y2="814.05" style="stroke:#404040;stroke-width:9.72"/>
	<line x1="566.46" y1="831.46" x2="592.11" y2="866.30" style="stroke:#404040;stroke-width:9.72"/>
	<line x1="604.93" y1="883.58" x2="610.47" y2="891.14" style="stroke:#404040;stroke-width:9.72"/>
	<line x1="610.47" y1="891.14" x2="642.06" y2="903.29" style="stroke:#404040;stroke-width:9.72"/>
	<line x1="662.31" y1="910.98" x2="675.95" y2="916.24" style="stroke:#404040;stroke-width:9.72"/>
	<line x1="675.95" y1="916.24" x2="695.25" y2="937.31" style="stroke:#404040;stroke-width:9.72"/>
	<line x1="709.83" y1="953.23" x2="738.99" y2="984.96" style="stroke:#404040;stroke-width:9.72"/>
	<line x1="758.84" y1="992.79" x2="800.15" y2="1004.94" style="stroke:#404040;stroke-width:9.72"/>
	<line x1="817.83" y1="1016.69" x2="850.23" y2="1045.31" style="stroke:#404040;stroke-width:9.72"/>
	<line x1="866.43" y1="1059.48" x2="872.10" y2="1064.61" style="stroke:#404040;stroke-width:9.72"/>
	<line x1="872.10" y1="1064.61" x2="906.66" y2="1073.25" style="stroke:#404040;stroke-width:9.72"/>
	<line x1="927.59" y1="1078.52" x2="937.44" y2="1080.95" style="stroke:#404040;stroke-width:9.72"/>
	<line x1="937.44" y1="1080.95" x2="969.17" y2="1089.99" style="stroke:#404040;stroke-width:9.72"/>
	<line x1="989.96" y1="1095.93" x2="1002.92" y2="1099.58" style="stroke:#404040;stroke-width:9.72"/>
	<line x1="1002.92" y1="1099.58" x2="1029.38" y2="1113.21" style="stroke:#404040;stroke-width:9.72"/>
	<line x1="1048.55" y1="1123.07" x2="1068.26" y2="1133.06" style="stroke:#404040;stroke-width:9.72"/>
	<line x1="1068.26" y1="1133.06" x2="1089.05" y2="1136.70" style="stroke:#404040;stroke-width:9.72"/>
	<line x1="1110.24" y1="1140.48" x2="1133.60" y2="1144.53" style="stroke:#404040;stroke-width:9.72"/>
	<line x1="1133.60" y1="1144.53" x2="1149.39" y2="1156.14" style="stroke:#404040;stroke-width:9.72"/>
	<line x1="1166.81" y1="1168.83" x2="1199.07" y2="1192.32" style="stroke:#404040;stroke-width:9.72"/>
	<line x1="1199.07" y1="1192.32" x2="1201.37" y2="1194.75" style="stroke:#404040;stroke-width:9.72"/>
	<line x1="1215.81" y1="1210.82" x2="1244.84" y2="1242.81" style="stroke:#404040;stroke-width:9.72"/>
	<line x1="1259.28" y1="1258.88" x2="1264.41" y2="1264.55" style="stroke:#404040;stroke-width:9.72"/>
	<line x1="1264.41" y1="1264.55" x2="1294.79" y2="1283.18" style="stroke:#404040;stroke-width:9.72"/>
	<line x1="1313.15" y1="1294.51" x2="1329.75" y2="1304.64" style="stroke:#404040;stroke-width:9.72"/>
	<line x1="1329.75" y1="1304.64" x2="1352.30" y2="1297.35" style="stroke:#404040;stroke-width:9.72"/>
	<line x1="1372.95" y1="1290.74" x2="1395.23" y2="1283.45" style="stroke:#404040;stroke-width:9.72"/>
	<line x1="1395.23" y1="1283.45" x2="1412.78" y2="1274.53" style="stroke:#404040;stroke-width:9.72"/>
	<line x1="1432.08" y1="1264.82" x2="1460.57" y2="1250.51" style="stroke:#404040;stroke-width:9.72"/>
	<line x1="1460.57" y1="1250.51" x2="1471.50" y2="1253.74" style="stroke:#404040;stroke-width:9.72"/>
	<line x1="1492.16" y1="1260.09" x2="1526.04" y2="1270.35" style="stroke:#404040;stroke-width:9.72"/>
	<line x1="1526.04" y1="1270.35" x2="1533.47" y2="1272.92" style="stroke:#404040;stroke-width:9.72"/>
	<line x1="1553.85" y1="1279.80" x2="1591.38" y2="1292.63" style="stroke:#404040;stroke-width:9.72"/>
	<line x1="1591.38" y1="1292.63" x2="1594.89" y2="1293.30" style="stroke:#404040;stroke-width:9.72"/>
	<line x1="1616.09" y1="1297.08" x2="1656.72" y2="1304.37" style="stroke:#404040;stroke-width:9.72"/>
	<line x1="1656.72" y1="1304.37" x2="1658.61" y2="1304.91" style="stroke:#404040;stroke-width:9.72"/>
	<line x1="1679.54" y1="1310.45" x2="1721.25" y2="1321.65" style="stroke:#404040;stroke-width:9.72"/>
	<line x1="1739.75" y1="1311.12" x2="1776.33" y2="1288.30" style="stroke:#404040;stroke-width:9.72"/>
	<line x1="1795.91" y1="1282.91" x2="1838.30" y2="1290.74" style="stroke:#404040;stroke-width:9.72"/>
	<line x1="1858.55" y1="1297.08" x2="1894.32" y2="1321.38" style="stroke:#404040;stroke-width:9.72"/>
	<line x1="1912.14" y1="1333.40" x2="1918.35" y2="1337.58" style="stroke:#404040;stroke-width:9.72"/>
	<line x1="1918.35" y1="1337.58" x2="1945.35" y2="1361.07" style="stroke:#404040;stroke-width:9.72"/>
	<line x1="1961.55" y1="1375.25" x2="1983.69" y2="1394.42" style="stroke:#404040;stroke-width:9.72"/>
	<line x1="1983.69" y1="1394.42" x2="1995.84" y2="1401.44" style="stroke:#404040;stroke-width:9.72"/>
	<line x1="2014.47" y1="1412.24" x2="2049.17" y2="1432.35" style="stroke:#404040;stroke-width:9.72"/>
	<line x1="2049.17" y1="1432.35" x2="2052.14" y2="1433.16" style="stroke:#404040;stroke-width:9.72"/>
	<line x1="2073.06" y1="1438.56" x2="2114.51" y2="1449.36" style="stroke:#404040;stroke-width:9.72"/>
	<line x1="2114.51" y1="1449.36" x2="2114.91" y2="1449.23" style="stroke:#404040;stroke-width:9.72"/>
	<line x1="2135.70" y1="1443.55" x2="2177.42" y2="1432.22" style="stroke:#404040;stroke-width:9.72"/>
	<line x1="2197.94" y1="1425.20" x2="2238.57" y2="1410.89" style="stroke:#404040;stroke-width:9.72"/>
	<line x1="2259.63" y1="1411.02" x2="2302.29" y2="1418.18" style="stroke:#404040;stroke-width:9.72"/>
	<line x1="2323.08" y1="1415.75" x2="2364.26" y2="1402.79" style="stroke:#404040;stroke-width:9.72"/>
	<line x1="2384.91" y1="1401.71" x2="2426.49" y2="1413.72" style="stroke:#404040;stroke-width:9.72"/>
	<line x1="2447.42" y1="1419.12" x2="2489.94" y2="1426.14" style="stroke:#404040;stroke-width:9.72"/>
	<line x1="2511.00" y1="1427.09" x2="2550.55" y2="1409.80" style="stroke:#404040;stroke-width:9.72"/>
	<line x1="2570.40" y1="1401.30" x2="2572.29" y2="1400.49" style="stroke:#404040;stroke-width:9.72"/>
	<line x1="2572.29" y1="1400.49" x2="2613.47" y2="1402.92" style="stroke:#404040;stroke-width:9.72"/>
	<line x1="2634.93" y1="1404.27" x2="2637.63" y2="1404.41" style="stroke:#404040;stroke-width:9.72"/>
	<line x1="2637.63" y1="1404.41" x2="2678.00" y2="1408.32" style="stroke:#404040;stroke-width:9.72"/>
	<line x1="2699.46" y1="1410.48" x2="2702.97" y2="1410.75" style="stroke:#404040;stroke-width:9.72"/>
	<line x1="2702.97" y1="1410.75" x2="2732.13" y2="1437.62" style="stroke:#404040;stroke-width:9.72"/>
	<line x1="2747.93" y1="1452.33" x2="2768.45" y2="1471.23" style="stroke:#404040;stroke-width:9.72"/>
	<line x1="2768.45" y1="1471.23" x2="2781.81" y2="1478.79" style="stroke:#404040;stroke-width:9.72"/>
	<line x1="2800.58" y1="1489.32" x2="2833.79" y2="1508.09" style="stroke:#404040;stroke-width:9.72"/>
	<line x1="2833.79" y1="1508.09" x2="2838.24" y2="1510.38" style="stroke:#404040;stroke-width:9.72"/>
	<line x1="2857.41" y1="1520.37" x2="2895.75" y2="1540.22" style="stroke:#404040;stroke-width:9.72"/>
	<line x1="2915.46" y1="1535.09" x2="2955.02" y2="1517.80" style="stroke:#404040;stroke-width:9.72"/>
	<line x1="2974.73" y1="1509.03" x2="3014.28" y2="1491.35" style="stroke:#404040;stroke-width:9.72"/>
	<line x1="3034.13" y1="1485.41" x2="3076.11" y2="1495.94" style="stroke:#404040;stroke-width:9.72"/>
	<line x1="3097.17" y1="1500.66" x2="3140.10" y2="1496.75" style="stroke:#404040;stroke-width:9.72"/>
	<line x1="3161.70" y1="1494.99" x2="3204.09" y2="1503.50" style="stroke:#404040;stroke-width:9.72"/>
	<line x1="3225.29" y1="1507.68" x2="3226.10" y2="1507.95" style="stroke:#404040;stroke-width:9.72"/>
	<line x1="3226.10" y1="1507.95" x2="3268.22" y2="1504.04" style="stroke:#404040;stroke-width:9.72"/>
	<line x1="3289.82" y1="1502.01" x2="3291.57" y2="1501.88" style="stroke:#404040;stroke-width:9.72"/>
	<line x1="3291.57" y1="1501.88" x2="3332.21" y2="1493.91" style="stroke:#404040;stroke-width:9.72"/>
	<line x1="3353.40" y1="1489.73" x2="3356.91" y2="1488.92" style="stroke:#404040;stroke-width:9.72"/>
	<line x1="3356.91" y1="1488.92" x2="3393.09" y2="1505.12" style="stroke:#404040;stroke-width:9.72"/>
	<line x1="3412.80" y1="1513.89" x2="3422.39" y2="1518.21" style="stroke:#404040;stroke-width:9.72"/>
	<line x1="3422.39" y1="1518.21" x2="3454.52" y2="1524.55" style="stroke:#404040;stroke-width:9.72"/>
	<line x1="3475.71" y1="1528.61" x2="3487.73" y2="1531.04" style="stroke:#404040;stroke-width:9.72"/>
	<line x1="3487.73" y1="1531.04" x2="3510.81" y2="1551.55" style="stroke:#404040;stroke-width:9.72"/>
	<line x1="3526.88" y1="1566.00" x2="3553.07" y2="1589.36" style="stroke:#404040;stroke-width:9.72"/>
	<line x1="3553.07" y1="1589.36" x2="3559.82" y2="1593.81" style="stroke:#404040;stroke-width:9.72"/>
	<line x1="3577.77" y1="1605.83" x2="3613.82" y2="1629.59" style="stroke:#404040;stroke-width:9.72"/>
	<line x1="3632.31" y1="1640.66" x2="3669.84" y2="1661.99" style="stroke:#404040;stroke-width:9.72"/>
	<line x1="3689.15" y1="1668.06" x2="3729.78" y2="1653.75" style="stroke:#404040;stroke-width:9.72"/>
	<line x1="3750.17" y1="1646.46" x2="3787.97" y2="1625.54" style="stroke:#404040;stroke-width:9.72"/>
	<line x1="3806.87" y1="1615.01" x2="3814.70" y2="1610.69" style="stroke:#404040;stroke-width:9.72"/>
	<line x1="3814.70" y1="1610.69" x2="3847.10" y2="1621.89" style="stroke:#404040;stroke-width:9.72"/>
	<line x1="3867.48" y1="1628.91" x2="3880.04" y2="1633.23" style="stroke:#404040;stroke-width:9.72"/>
	<line x1="3880.04" y1="1633.23" x2="3908.39" y2="1623.78" style="stroke:#404040;stroke-width:9.72"/>
	<line x1="3928.91" y1="1616.90" x2="3945.51" y2="1611.36" style="stroke:#404040;stroke-width:9.72"/>
	<line x1="3945.51" y1="1611.36" x2="3970.89" y2="1615.41" style="stroke:#404040;stroke-width:9.72"/>
	<line x1="3992.22" y1="1618.92" x2="4010.85" y2="1621.89" style="stroke:#404040;stroke-width:9.72"/>
	<line x1="4010.85" y1="1621.89" x2="4034.07" y2="1614.47" style="stroke:#404040;stroke-width:9.72"/>
	<line x1="4054.59" y1="1607.85" x2="4076.19" y2="1600.83" style="stroke:#404040;stroke-width:9.72"/>
	<line x1="4076.19" y1="1600.83" x2="4096.58" y2="1602.86" style="stroke:#404040;stroke-width:9.72"/>
	<line x1="4118.04" y1="1605.02" x2="4141.67" y2="1607.31" style="stroke:#404040;stroke-width:9.72"/>
	<line x1="4141.67" y1="1607.31" x2="4160.70" y2="1611.50" style="stroke:#404040;stroke-width:9.72"/>
	<line x1="4181.76" y1="1616.22" x2="4207.01" y2="1621.89" style="stroke:#404040;stroke-width:9.72"/>
	<line x1="4207.01" y1="1621.89" x2="4223.34" y2="1627.70" style="stroke:#404040;stroke-width:9.72"/>
	<line x1="4243.73" y1="1634.99" x2="4272.35" y2="1645.25" style="stroke:#404040;stroke-width:9.72"/>
	<path d="" stroke-linejoin="round" style="fill:none;stroke:#404040;stroke-width:9.72"/>
	<line x1="170.78" y1="1840.86" x2="170.78" y2="0.00" style="stroke:#404040;stroke-width:4.32"/>
	<line x1="170.78" y1="1793.34" x2="140.67" y2="1793.34" style="stroke:#000000;stroke-width:4.32"/>
	<text x="125.69" y="1814.35" style="font-family:'Century Gothic';font-size:59.94px;fill:#000000" text-anchor="end">6.4</text>
	<line x1="170.78" y1="1356.89" x2="140.67" y2="1356.89" style="stroke:#000000;stroke-width:4.32"/>
	<text x="125.69" y="1377.90" style="font-family:'Century Gothic';font-size:59.94px;fill:#000000" text-anchor="end">6.6</text>
	<line x1="170.78" y1="920.43" x2="140.67" y2="920.43" style="stroke:#000000;stroke-width:4.32"/>
	<text x="125.69" y="941.44" style="font-family:'Century Gothic';font-size:59.94px;fill:#000000" text-anchor="end">6.8</text>
	<line x1="170.78" y1="483.97" x2="140.67" y2="483.97" style="stroke:#000000;stroke-width:4.32"/>
	<text x="125.69" y="504.99" style="font-family:'Century Gothic';font-size:59.94px;fill:#000000" text-anchor="end">7</text>
	<line x1="170.78" y1="47.52" x2="140.67" y2="47.52" style="stroke:#000000;stroke-width:4.32"/>
	<text x="125.69" y="68.53" style="font-family:'Century Gothic';font-size:59.94px;fill:#000000" text-anchor="end">7.2</text>
	<line x1="170.78" y1="1840.86" x2="4320.00" y2="1840.86" style="stroke:#404040;stroke-width:4.32"/>
	<line x1="218.30" y1="1840.86" x2="218.30" y2="1870.83" style="stroke:#000000;stroke-width:4.32"/>
	<text x="218.30" y="1927.71" style="font-family:'Century Gothic';font-size:59.94px;fill:#000000" text-anchor="middle">-20</text>
	<line x1="1526.04" y1="1840.86" x2="1526.04" y2="1870.83" style="stroke:#000000;stroke-width:4.32"/>
	<text x="1526.04" y="1927.71" style="font-family:'Century Gothic';font-size:59.94px;fill:#000000" text-anchor="middle">0</text>
	<line x1="2833.92" y1="1840.86" x2="2833.92" y2="1870.83" style="stroke:#000000;stroke-width:4.32"/>
	<text x="2833.92" y="1927.71" style="font-family:'Century Gothic';font-size:59.94px;fill:#000000" text-anchor="middle">20</text>
	<line x1="4141.67" y1="1840.86" x2="4141.67" y2="1870.83" style="stroke:#000000;stroke-width:4.32"/>
	<text x="4141.67" y="1927.71" style="font-family:'Century Gothic';font-size:59.94px;fill:#000000" text-anchor="middle">40</text>
	<rect x="1368.77" y="1994.22" width="1753.25" height="139.86" style="fill:#FFFFFF"/>
	<rect x="1370.93" y="1996.38" width="1748.93" height="135.54" style="fill:none;stroke:#EAF2F3;stroke-opacity:0.00;stroke-width:4.32"/>
	<line x1="1401.17" y1="2064.15" x2="1681.97" y2="2064.15" style="stroke:#83082A;stroke-width:9.72"/>
	<line x1="2125.04" y1="2064.15" x2="2168.24" y2="2064.15" style="stroke:#404040;stroke-width:9.72"/>
	<line x1="2189.84" y1="2064.15" x2="2233.04" y2="2064.15" style="stroke:#404040;stroke-width:9.72"/>
	<line x1="2254.64" y1="2064.15" x2="2297.84" y2="2064.15" style="stroke:#404040;stroke-width:9.72"/>
	<line x1="2319.44" y1="2064.15" x2="2362.64" y2="2064.15" style="stroke:#404040;stroke-width:9.72"/>
	<line x1="2384.24" y1="2064.15" x2="2405.84" y2="2064.15" style="stroke:#404040;stroke-width:9.72"/>
	<text x="1726.92" y="2090.45" style="font-family:'Century Gothic';font-size:75.06px;fill:#000000">Treated</text>
	<text x="2450.79" y="2090.45" style="font-family:'Century Gothic';font-size:75.06px;fill:#000000">Synthetic control</text>
</svg>
