<?xml version="1.0" encoding="UTF-8" standalone="no"?>
<!-- This is a Stata 19.5 generated SVG file (http://www.stata.com) -->

<svg version="1.1" width="6.000in" height="3.000in" viewBox="0 0 4320 2160" xmlns="http://www.w3.org/2000/svg" xmlns:xlink="http://www.w3.org/1999/xlink">
	<desc>Stata Graph - g_levels</desc>
	<rect x="0" y="0" width="4320" height="2160" style="fill:#EAF2F3;stroke:none"/>
	<rect x="0.00" y="0.00" width="4320.00" height="2160.00" style="fill:#FFFFFF"/>
	<rect x="2.16" y="2.16" width="4315.68" height="2155.68" style="fill:none;stroke:#FFFFFF;stroke-width:4.32"/>
	<rect x="170.78" y="0.00" width="4149.23" height="1840.86" style="fill:#FFFFFF"/>
	<rect x="172.94" y="2.16" width="4144.91" height="1836.54" style="fill:none;stroke:#FFFFFF;stroke-width:4.32"/>
	<line x1="170.78" y1="1715.04" x2="4320.00" y2="1715.04" style="stroke:#CCCCCC;stroke-width:6.48"/>
	<line x1="170.78" y1="1180.17" x2="4320.00" y2="1180.17" style="stroke:#CCCCCC;stroke-width:6.48"/>
	<line x1="170.78" y1="645.30" x2="4320.00" y2="645.30" style="stroke:#CCCCCC;stroke-width:6.48"/>
	<line x1="170.78" y1="110.30" x2="4320.00" y2="110.30" style="stroke:#CCCCCC;stroke-width:6.48"/>
	<line x1="1493.37" y1="1840.86" x2="1493.37" y2="1797.66" style="stroke:#404040;stroke-width:6.48"/>
	<line x1="1493.37" y1="1776.06" x2="1493.37" y2="1732.86" style="stroke:#404040;stroke-width:6.48"/>
	<line x1="1493.37" y1="1711.26" x2="1493.37" y2="1668.06" style="stroke:#404040;stroke-width:6.48"/>
	<line x1="1493.37" y1="1646.46" x2="1493.37" y2="1603.26" style="stroke:#404040;stroke-width:6.48"/>
	<line x1="1493.37" y1="1581.66" x2="1493.37" y2="1538.46" style="stroke:#404040;stroke-width:6.48"/>
	<line x1="1493.37" y1="1516.86" x2="1493.37" y2="1473.66" style="stroke:#404040;stroke-width:6.48"/>
	<line x1="1493.37" y1="1452.06" x2="1493.37" y2="1408.86" style="stroke:#404040;stroke-width:6.48"/>
	<line x1="1493.37" y1="1387.26" x2="1493.37" y2="1344.06" style="stroke:#404040;stroke-width:6.48"/>
	<line x1="1493.37" y1="1322.46" x2="1493.37" y2="1279.26" style="stroke:#404040;stroke-width:6.48"/>
	<line x1="1493.37" y1="1257.66" x2="1493.37" y2="1214.46" style="stroke:#404040;stroke-width:6.48"/>
	<line x1="1493.37" y1="1192.86" x2="1493.37" y2="1149.66" style="stroke:#404040;stroke-width:6.48"/>
	<line x1="1493.37" y1="1128.06" x2="1493.37" y2="1084.86" style="stroke:#404040;stroke-width:6.48"/>
	<line x1="1493.37" y1="1063.26" x2="1493.37" y2="1020.06" style="stroke:#404040;stroke-width:6.48"/>
	<line x1="1493.37" y1="998.46" x2="1493.37" y2="955.26" style="stroke:#404040;stroke-width:6.48"/>
	<line x1="1493.37" y1="933.66" x2="1493.37" y2="890.46" style="stroke:#404040;stroke-width:6.48"/>
	<line x1="1493.37" y1="868.86" x2="1493.37" y2="825.66" style="stroke:#404040;stroke-width:6.48"/>
	<line x1="1493.37" y1="804.06" x2="1493.37" y2="760.86" style="stroke:#404040;stroke-width:6.48"/>
	<line x1="1493.37" y1="739.26" x2="1493.37" y2="696.06" style="stroke:#404040;stroke-width:6.48"/>
	<line x1="1493.37" y1="674.46" x2="1493.37" y2="631.26" style="stroke:#404040;stroke-width:6.48"/>
	<line x1="1493.37" y1="609.66" x2="1493.37" y2="566.46" style="stroke:#404040;stroke-width:6.48"/>
	<line x1="1493.37" y1="544.86" x2="1493.37" y2="501.66" style="stroke:#404040;stroke-width:6.48"/>
	<line x1="1493.37" y1="480.06" x2="1493.37" y2="436.86" style="stroke:#404040;stroke-width:6.48"/>
	<line x1="1493.37" y1="415.26" x2="1493.37" y2="372.06" style="stroke:#404040;stroke-width:6.48"/>
	<line x1="1493.37" y1="350.46" x2="1493.37" y2="307.26" style="stroke:#404040;stroke-width:6.48"/>
	<line x1="1493.37" y1="285.66" x2="1493.37" y2="242.46" style="stroke:#404040;stroke-width:6.48"/>
	<line x1="1493.37" y1="220.86" x2="1493.37" y2="177.66" style="stroke:#404040;stroke-width:6.48"/>
	<line x1="1493.37" y1="156.06" x2="1493.37" y2="112.86" style="stroke:#404040;stroke-width:6.48"/>
	<line x1="1493.37" y1="91.26" x2="1493.37" y2="48.06" style="stroke:#404040;stroke-width:6.48"/>
	<line x1="1493.37" y1="26.46" x2="1493.37" y2="0.00" style="stroke:#404040;stroke-width:6.48"/>
	<path d=" M218.16 900.05 L283.50 881.55 L348.98 916.24 L414.32 967.01 L479.79 1057.86 L545.13 1142.10 L610.47 1190.03 L675.95 1191.51 L741.29 1290.20 L806.63 1340.15 L872.10 1416.96 L937.44 1512.00 L1002.92 1502.01 L1068.26 1558.98 L1133.60 1588.68 L1199.07 1653.35 L1264.41 1714.37 L1329.75 1742.58 L1395.23 1640.79 L1460.57 1588.95 L1526.04 1644.57 L1591.38 1652.54 L1656.72 1660.10 L1722.20 1686.56 L1787.54 1620.00 L1853.01 1605.55 L1918.35 1657.13 L1983.69 1717.61 L2049.17 1740.96 L2114.51 1723.41 L2179.84 1627.97 L2245.32 1564.52 L2310.66 1586.93 L2376.14 1562.76 L2441.48 1597.46 L2506.82 1622.03 L2572.29 1593.27 L2637.63 1627.29 L2702.97 1632.83 L2768.45 1706.81 L2833.79 1744.61 L2899.26 1780.79 L2964.60 1695.60 L3029.94 1631.21 L3095.42 1662.26 L3160.76 1634.58 L3226.10 1644.44 L3291.57 1657.26 L3356.91 1629.45 L3422.39 1639.30 L3487.73 1662.12 L3553.07 1723.82 L3618.54 1774.58 L3683.88 1793.48 L3749.22 1694.25 L3814.70 1638.90 L3880.04 1678.59 L3945.51 1650.92 L4010.85 1670.76 L4076.19 1680.89 L4141.67 1660.64 L4207.01 1662.80 L4272.35 1664.96" stroke-linejoin="round" style="fill:none;stroke:#83082A;stroke-width:9.72"/>
	<line x1="218.16" y1="64.66" x2="260.01" y2="53.73" style="stroke:#404040;stroke-width:9.72"/>
	<line x1="280.80" y1="48.20" x2="283.50" y2="47.52" style="stroke:#404040;stroke-width:9.72"/>
	<line x1="283.50" y1="47.52" x2="319.14" y2="66.82" style="stroke:#404040;stroke-width:9.72"/>
	<line x1="338.18" y1="77.09" x2="348.98" y2="83.03" style="stroke:#404040;stroke-width:9.72"/>
	<line x1="348.98" y1="83.03" x2="378.41" y2="92.34" style="stroke:#404040;stroke-width:9.72"/>
	<line x1="398.93" y1="98.82" x2="414.32" y2="103.68" style="stroke:#404040;stroke-width:9.72"/>
	<line x1="414.32" y1="103.68" x2="432.81" y2="123.53" style="stroke:#404040;stroke-width:9.72"/>
	<line x1="447.53" y1="139.32" x2="476.82" y2="171.05" style="stroke:#404040;stroke-width:9.72"/>
	<line x1="488.97" y1="188.87" x2="511.92" y2="225.45" style="stroke:#404040;stroke-width:9.72"/>
	<line x1="523.40" y1="243.81" x2="545.13" y2="278.51" style="stroke:#404040;stroke-width:9.72"/>
	<line x1="545.13" y1="278.51" x2="546.08" y2="280.53" style="stroke:#404040;stroke-width:9.72"/>
	<line x1="555.53" y1="299.97" x2="574.42" y2="338.85" style="stroke:#404040;stroke-width:9.72"/>
	<line x1="583.88" y1="358.29" x2="602.78" y2="397.17" style="stroke:#404040;stroke-width:9.72"/>
	<line x1="613.85" y1="414.99" x2="651.65" y2="435.92" style="stroke:#404040;stroke-width:9.72"/>
	<line x1="670.55" y1="446.31" x2="675.95" y2="449.28" style="stroke:#404040;stroke-width:9.72"/>
	<line x1="675.95" y1="449.28" x2="699.84" y2="477.63" style="stroke:#404040;stroke-width:9.72"/>
	<line x1="713.75" y1="494.10" x2="741.29" y2="526.77" style="stroke:#404040;stroke-width:9.72"/>
	<line x1="741.29" y1="526.77" x2="741.69" y2="526.91" style="stroke:#404040;stroke-width:9.72"/>
	<line x1="762.48" y1="532.58" x2="804.20" y2="543.92" style="stroke:#404040;stroke-width:9.72"/>
	<line x1="819.59" y1="558.63" x2="848.75" y2="590.49" style="stroke:#404040;stroke-width:9.72"/>
	<line x1="863.33" y1="606.42" x2="872.10" y2="616.01" style="stroke:#404040;stroke-width:9.72"/>
	<line x1="872.10" y1="616.01" x2="902.34" y2="618.17" style="stroke:#404040;stroke-width:9.72"/>
	<line x1="923.81" y1="619.79" x2="937.44" y2="620.73" style="stroke:#404040;stroke-width:9.72"/>
	<line x1="937.44" y1="620.73" x2="964.58" y2="632.20" style="stroke:#404040;stroke-width:9.72"/>
	<line x1="984.56" y1="640.58" x2="1002.92" y2="648.41" style="stroke:#404040;stroke-width:9.72"/>
	<line x1="1002.92" y1="648.41" x2="1023.17" y2="659.88" style="stroke:#404040;stroke-width:9.72"/>
	<line x1="1041.80" y1="670.55" x2="1068.26" y2="685.67" style="stroke:#404040;stroke-width:9.72"/>
	<line x1="1068.26" y1="685.67" x2="1081.08" y2="685.67" style="stroke:#404040;stroke-width:9.72"/>
	<line x1="1102.68" y1="685.80" x2="1133.60" y2="685.80" style="stroke:#404040;stroke-width:9.72"/>
	<line x1="1133.60" y1="685.80" x2="1143.05" y2="693.77" style="stroke:#404040;stroke-width:9.72"/>
	<line x1="1159.52" y1="707.67" x2="1192.46" y2="735.48" style="stroke:#404040;stroke-width:9.72"/>
	<line x1="1206.36" y1="751.82" x2="1230.66" y2="787.59" style="stroke:#404040;stroke-width:9.72"/>
	<line x1="1242.68" y1="805.41" x2="1264.41" y2="837.54" style="stroke:#404040;stroke-width:9.72"/>
	<line x1="1264.41" y1="837.54" x2="1267.79" y2="840.51" style="stroke:#404040;stroke-width:9.72"/>
	<line x1="1283.71" y1="855.09" x2="1315.71" y2="884.12" style="stroke:#404040;stroke-width:9.72"/>
	<line x1="1332.32" y1="897.21" x2="1375.25" y2="900.86" style="stroke:#404040;stroke-width:9.72"/>
	<line x1="1396.71" y1="902.07" x2="1437.62" y2="887.90" style="stroke:#404040;stroke-width:9.72"/>
	<line x1="1458.00" y1="880.88" x2="1460.57" y2="879.93" style="stroke:#404040;stroke-width:9.72"/>
	<line x1="1460.57" y1="879.93" x2="1499.45" y2="868.99" style="stroke:#404040;stroke-width:9.72"/>
	<line x1="1520.37" y1="863.19" x2="1526.04" y2="861.57" style="stroke:#404040;stroke-width:9.72"/>
	<line x1="1526.04" y1="861.57" x2="1560.60" y2="875.34" style="stroke:#404040;stroke-width:9.72"/>
	<line x1="1580.72" y1="883.31" x2="1591.38" y2="887.63" style="stroke:#404040;stroke-width:9.72"/>
	<line x1="1591.38" y1="887.63" x2="1622.43" y2="894.51" style="stroke:#404040;stroke-width:9.72"/>
	<line x1="1643.49" y1="899.23" x2="1656.72" y2="902.21" style="stroke:#404040;stroke-width:9.72"/>
	<line x1="1656.72" y1="902.21" x2="1686.29" y2="903.42" style="stroke:#404040;stroke-width:9.72"/>
	<line x1="1707.89" y1="904.23" x2="1722.20" y2="904.91" style="stroke:#404040;stroke-width:9.72"/>
	<line x1="1722.20" y1="904.91" x2="1746.50" y2="889.11" style="stroke:#404040;stroke-width:9.72"/>
	<line x1="1764.59" y1="877.37" x2="1787.54" y2="862.38" style="stroke:#404040;stroke-width:9.72"/>
	<line x1="1787.54" y1="862.38" x2="1802.79" y2="866.70" style="stroke:#404040;stroke-width:9.72"/>
	<line x1="1823.58" y1="872.64" x2="1853.01" y2="880.88" style="stroke:#404040;stroke-width:9.72"/>
	<line x1="1853.01" y1="880.88" x2="1863.00" y2="888.57" style="stroke:#404040;stroke-width:9.72"/>
	<line x1="1880.15" y1="901.80" x2="1914.44" y2="927.99" style="stroke:#404040;stroke-width:9.72"/>
	<line x1="1930.91" y1="942.03" x2="1963.04" y2="970.92" style="stroke:#404040;stroke-width:9.72"/>
	<line x1="1979.10" y1="985.37" x2="1983.69" y2="989.42" style="stroke:#404040;stroke-width:9.72"/>
	<line x1="1983.69" y1="989.42" x2="2010.15" y2="1015.34" style="stroke:#404040;stroke-width:9.72"/>
	<line x1="2025.54" y1="1030.59" x2="2049.17" y2="1053.81" style="stroke:#404040;stroke-width:9.72"/>
	<line x1="2049.17" y1="1053.81" x2="2057.00" y2="1060.02" style="stroke:#404040;stroke-width:9.72"/>
	<line x1="2073.87" y1="1073.52" x2="2107.76" y2="1100.39" style="stroke:#404040;stroke-width:9.72"/>
	<line x1="2126.93" y1="1109.57" x2="2168.10" y2="1122.66" style="stroke:#404040;stroke-width:9.72"/>
	<line x1="2188.76" y1="1123.74" x2="2230.07" y2="1111.05" style="stroke:#404040;stroke-width:9.72"/>
	<line x1="2250.99" y1="1106.87" x2="2294.05" y2="1110.24" style="stroke:#404040;stroke-width:9.72"/>
	<line x1="2315.25" y1="1109.57" x2="2355.07" y2="1093.10" style="stroke:#404040;stroke-width:9.72"/>
	<line x1="2375.19" y1="1084.99" x2="2376.14" y2="1084.59" style="stroke:#404040;stroke-width:9.72"/>
	<line x1="2376.14" y1="1084.59" x2="2416.77" y2="1095.93" style="stroke:#404040;stroke-width:9.72"/>
	<line x1="2437.56" y1="1101.73" x2="2441.48" y2="1102.82" style="stroke:#404040;stroke-width:9.72"/>
	<line x1="2441.48" y1="1102.82" x2="2480.63" y2="1102.41" style="stroke:#404040;stroke-width:9.72"/>
	<line x1="2502.23" y1="1102.14" x2="2506.82" y2="1102.14" style="stroke:#404040;stroke-width:9.72"/>
	<line x1="2506.82" y1="1102.14" x2="2544.48" y2="1094.04" style="stroke:#404040;stroke-width:9.72"/>
	<line x1="2565.68" y1="1089.59" x2="2572.29" y2="1088.23" style="stroke:#404040;stroke-width:9.72"/>
	<line x1="2572.29" y1="1088.23" x2="2608.74" y2="1087.43" style="stroke:#404040;stroke-width:9.72"/>
	<line x1="2630.34" y1="1087.02" x2="2637.63" y2="1086.75" style="stroke:#404040;stroke-width:9.72"/>
	<line x1="2637.63" y1="1086.75" x2="2670.84" y2="1100.52" style="stroke:#404040;stroke-width:9.72"/>
	<line x1="2690.82" y1="1108.89" x2="2702.97" y2="1113.89" style="stroke:#404040;stroke-width:9.72"/>
	<line x1="2702.97" y1="1113.89" x2="2727.00" y2="1131.84" style="stroke:#404040;stroke-width:9.72"/>
	<line x1="2744.28" y1="1144.80" x2="2768.45" y2="1162.89" style="stroke:#404040;stroke-width:9.72"/>
	<line x1="2768.45" y1="1162.89" x2="2778.03" y2="1171.67" style="stroke:#404040;stroke-width:9.72"/>
	<line x1="2794.10" y1="1186.24" x2="2825.82" y2="1215.41" style="stroke:#404040;stroke-width:9.72"/>
	<line x1="2841.62" y1="1230.26" x2="2872.80" y2="1260.22" style="stroke:#404040;stroke-width:9.72"/>
	<line x1="2888.33" y1="1275.21" x2="2899.26" y2="1285.88" style="stroke:#404040;stroke-width:9.72"/>
	<line x1="2899.26" y1="1285.88" x2="2925.32" y2="1295.87" style="stroke:#404040;stroke-width:9.72"/>
	<line x1="2945.43" y1="1303.70" x2="2964.60" y2="1310.99" style="stroke:#404040;stroke-width:9.72"/>
	<line x1="2964.60" y1="1310.99" x2="2985.80" y2="1303.02" style="stroke:#404040;stroke-width:9.72"/>
	<line x1="3006.18" y1="1295.60" x2="3029.94" y2="1286.69" style="stroke:#404040;stroke-width:9.72"/>
	<line x1="3029.94" y1="1286.69" x2="3047.49" y2="1289.52" style="stroke:#404040;stroke-width:9.72"/>
	<line x1="3068.82" y1="1293.03" x2="3095.42" y2="1297.35" style="stroke:#404040;stroke-width:9.72"/>
	<line x1="3095.42" y1="1297.35" x2="3111.62" y2="1296.00" style="stroke:#404040;stroke-width:9.72"/>
	<line x1="3133.22" y1="1294.38" x2="3160.76" y2="1292.36" style="stroke:#404040;stroke-width:9.72"/>
	<line x1="3160.76" y1="1292.36" x2="3176.28" y2="1293.57" style="stroke:#404040;stroke-width:9.72"/>
	<line x1="3197.75" y1="1295.33" x2="3226.10" y2="1297.62" style="stroke:#404040;stroke-width:9.72"/>
	<line x1="3226.10" y1="1297.62" x2="3240.68" y2="1295.05" style="stroke:#404040;stroke-width:9.72"/>
	<line x1="3262.01" y1="1291.41" x2="3291.57" y2="1286.28" style="stroke:#404040;stroke-width:9.72"/>
	<line x1="3291.57" y1="1286.28" x2="3304.80" y2="1286.01" style="stroke:#404040;stroke-width:9.72"/>
	<line x1="3326.40" y1="1285.47" x2="3356.91" y2="1284.80" style="stroke:#404040;stroke-width:9.72"/>
	<line x1="3356.91" y1="1284.80" x2="3368.39" y2="1290.06" style="stroke:#404040;stroke-width:9.72"/>
	<line x1="3387.96" y1="1299.11" x2="3422.39" y2="1315.04" style="stroke:#404040;stroke-width:9.72"/>
	<line x1="3422.39" y1="1315.04" x2="3427.38" y2="1316.93" style="stroke:#404040;stroke-width:9.72"/>
	<line x1="3447.50" y1="1324.76" x2="3487.73" y2="1340.42" style="stroke:#404040;stroke-width:9.72"/>
	<line x1="3487.73" y1="1340.42" x2="3487.73" y2="1340.42" style="stroke:#404040;stroke-width:9.72"/>
	<line x1="3504.74" y1="1353.92" x2="3538.62" y2="1380.65" style="stroke:#404040;stroke-width:9.72"/>
	<line x1="3555.23" y1="1394.42" x2="3585.06" y2="1425.60" style="stroke:#404040;stroke-width:9.72"/>
	<line x1="3600.05" y1="1441.26" x2="3618.54" y2="1460.70" style="stroke:#404040;stroke-width:9.72"/>
	<line x1="3618.54" y1="1460.70" x2="3630.83" y2="1471.50" style="stroke:#404040;stroke-width:9.72"/>
	<line x1="3647.03" y1="1485.68" x2="3679.56" y2="1514.16" style="stroke:#404040;stroke-width:9.72"/>
	<line x1="3699.14" y1="1522.26" x2="3740.72" y2="1534.14" style="stroke:#404040;stroke-width:9.72"/>
	<line x1="3761.37" y1="1532.66" x2="3802.55" y2="1519.43" style="stroke:#404040;stroke-width:9.72"/>
	<line x1="3823.07" y1="1518.48" x2="3863.70" y2="1533.06" style="stroke:#404040;stroke-width:9.72"/>
	<line x1="3884.09" y1="1537.65" x2="3925.40" y2="1524.96" style="stroke:#404040;stroke-width:9.72"/>
	<line x1="3946.05" y1="1518.75" x2="3989.25" y2="1518.62" style="stroke:#404040;stroke-width:9.72"/>
	<line x1="4010.85" y1="1518.48" x2="4050.00" y2="1499.99" style="stroke:#404040;stroke-width:9.72"/>
	<line x1="4069.44" y1="1490.67" x2="4076.19" y2="1487.57" style="stroke:#404040;stroke-width:9.72"/>
	<line x1="4076.19" y1="1487.57" x2="4111.29" y2="1494.72" style="stroke:#404040;stroke-width:9.72"/>
	<line x1="4132.35" y1="1499.04" x2="4141.67" y2="1501.07" style="stroke:#404040;stroke-width:9.72"/>
	<line x1="4141.67" y1="1501.07" x2="4175.28" y2="1503.50" style="stroke:#404040;stroke-width:9.72"/>
	<line x1="4196.75" y1="1505.12" x2="4207.01" y2="1505.79" style="stroke:#404040;stroke-width:9.72"/>
	<line x1="4207.01" y1="1505.79" x2="4235.49" y2="1522.40" style="stroke:#404040;stroke-width:9.72"/>
	<line x1="4254.12" y1="1533.33" x2="4272.35" y2="1544.00" style="stroke:#404040;stroke-width:9.72"/>
	<path d="" stroke-linejoin="round" style="fill:none;stroke:#404040;stroke-width:9.72"/>
	<line x1="170.78" y1="1840.86" x2="170.78" y2="0.00" style="stroke:#404040;stroke-width:4.32"/>
	<line x1="170.78" y1="1715.04" x2="140.67" y2="1715.04" style="stroke:#000000;stroke-width:4.32"/>
	<text x="125.69" y="1736.05" style="font-family:'Century Gothic';font-size:59.94px;fill:#000000" text-anchor="end">6.8</text>
	<line x1="170.78" y1="1180.17" x2="140.67" y2="1180.17" style="stroke:#000000;stroke-width:4.32"/>
	<text x="125.69" y="1201.18" style="font-family:'Century Gothic';font-size:59.94px;fill:#000000" text-anchor="end">7</text>
	<line x1="170.78" y1="645.30" x2="140.67" y2="645.30" style="stroke:#000000;stroke-width:4.32"/>
	<text x="125.69" y="666.31" style="font-family:'Century Gothic';font-size:59.94px;fill:#000000" text-anchor="end">7.2</text>
	<line x1="170.78" y1="110.30" x2="140.67" y2="110.30" style="stroke:#000000;stroke-width:4.32"/>
	<text x="125.69" y="131.31" style="font-family:'Century Gothic';font-size:59.94px;fill:#000000" text-anchor="end">7.4</text>
	<line x1="170.78" y1="1840.86" x2="4320.00" y2="1840.86" style="stroke:#404040;stroke-width:4.32"/>
	<line x1="218.30" y1="1840.86" x2="218.30" y2="1870.83" style="stroke:#000000;stroke-width:4.32"/>
	<text x="218.30" y="1927.71" style="font-family:'Century Gothic';font-size:59.94px;fill:#000000" text-anchor="middle">-20</text>
	<line x1="1526.04" y1="1840.86" x2="1526.04" y2="1870.83" style="stroke:#000000;stroke-width:4.32"/>
	<text x="1526.04" y="1927.71" style="font-family:'Century Gothic';font-size:59.94px;fill:#000000" text-anchor="middle">0</text>
	<line x1="2833.92" y1="1840.86" x2="2833.92" y2="1870.83" style="stroke:#000000;stroke-width:4.32"/>
	<text x="2833.92" y="1927.71" style="font-family:'Century Gothic';font-size:59.94px;fill:#000000" text-anchor="middle">20</text>
	<line x1="4141.67" y1="1840.86" x2="4141.67" y2="1870.83" style="stroke:#000000;stroke-width:4.32"/>
	<text x="4141.67" y="1927.71" style="font-family:'Century Gothic';font-size:59.94px;fill:#000000" text-anchor="middle">40</text>
	<rect x="1368.77" y="1994.22" width="1753.25" height="139.86" style="fill:#FFFFFF"/>
	<rect x="1370.93" y="1996.38" width="1748.93" height="135.54" style="fill:none;stroke:#EAF2F3;stroke-opacity:0.00;stroke-width:4.32"/>
	<line x1="1401.17" y1="2064.15" x2="1681.97" y2="2064.15" style="stroke:#83082A;stroke-width:9.72"/>
	<line x1="2125.04" y1="2064.15" x2="2168.24" y2="2064.15" style="stroke:#404040;stroke-width:9.72"/>
	<line x1="2189.84" y1="2064.15" x2="2233.04" y2="2064.15" style="stroke:#404040;stroke-width:9.72"/>
	<line x1="2254.64" y1="2064.15" x2="2297.84" y2="2064.15" style="stroke:#404040;stroke-width:9.72"/>
	<line x1="2319.44" y1="2064.15" x2="2362.64" y2="2064.15" style="stroke:#404040;stroke-width:9.72"/>
	<line x1="2384.24" y1="2064.15" x2="2405.84" y2="2064.15" style="stroke:#404040;stroke-width:9.72"/>
	<text x="1726.92" y="2090.45" style="font-family:'Century Gothic';font-size:75.06px;fill:#000000">Treated</text>
	<text x="2450.79" y="2090.45" style="font-family:'Century Gothic';font-size:75.06px;fill:#000000">Synthetic control</text>
</svg>
