<?xml version="1.0" encoding="UTF-8" standalone="no"?>
<!-- This is a Stata 19.5 generated SVG file (http://www.stata.com) -->

<svg version="1.1" width="6.000in" height="3.000in" viewBox="0 0 4320 2160" xmlns="http://www.w3.org/2000/svg" xmlns:xlink="http://www.w3.org/1999/xlink">
	<desc>Stata Graph - g_event</desc>
	<rect x="0" y="0" width="4320" height="2160" style="fill:#EAF2F3;stroke:none"/>
	<rect x="0.00" y="0.00" width="4320.00" height="2160.00" style="fill:#FFFFFF"/>
	<rect x="2.16" y="2.16" width="4315.68" height="2155.68" style="fill:none;stroke:#FFFFFF;stroke-width:4.32"/>
	<rect x="135.68" y="0.00" width="4184.33" height="2032.56" style="fill:#FFFFFF"/>
	<rect x="137.84" y="2.16" width="4180.01" height="2028.24" style="fill:none;stroke:#FFFFFF;stroke-width:4.32"/>
	<line x1="135.68" y1="1828.44" x2="4320.00" y2="1828.44" style="stroke:#CCCCCC;stroke-width:6.48"/>
	<line x1="135.68" y1="1234.71" x2="4320.00" y2="1234.71" style="stroke:#CCCCCC;stroke-width:6.48"/>
	<line x1="135.68" y1="641.12" x2="4320.00" y2="641.12" style="stroke:#CCCCCC;stroke-width:6.48"/>
	<line x1="135.68" y1="47.52" x2="4320.00" y2="47.52" style="stroke:#CCCCCC;stroke-width:6.48"/>
	<line x1="1513.89" y1="2032.56" x2="1513.89" y2="1989.36" style="stroke:#404040;stroke-width:6.48"/>
	<line x1="1513.89" y1="1967.76" x2="1513.89" y2="1924.56" style="stroke:#404040;stroke-width:6.48"/>
	<line x1="1513.89" y1="1902.96" x2="1513.89" y2="1859.76" style="stroke:#404040;stroke-width:6.48"/>
	<line x1="1513.89" y1="1838.16" x2="1513.89" y2="1794.96" style="stroke:#404040;stroke-width:6.48"/>
	<line x1="1513.89" y1="1773.36" x2="1513.89" y2="1730.16" style="stroke:#404040;stroke-width:6.48"/>
	<line x1="1513.89" y1="1708.56" x2="1513.89" y2="1665.36" style="stroke:#404040;stroke-width:6.48"/>
	<line x1="1513.89" y1="1643.76" x2="1513.89" y2="1600.56" style="stroke:#404040;stroke-width:6.48"/>
	<line x1="1513.89" y1="1578.96" x2="1513.89" y2="1535.76" style="stroke:#404040;stroke-width:6.48"/>
	<line x1="1513.89" y1="1514.16" x2="1513.89" y2="1470.96" style="stroke:#404040;stroke-width:6.48"/>
	<line x1="1513.89" y1="1449.36" x2="1513.89" y2="1406.16" style="stroke:#404040;stroke-width:6.48"/>
	<line x1="1513.89" y1="1384.56" x2="1513.89" y2="1341.36" style="stroke:#404040;stroke-width:6.48"/>
	<line x1="1513.89" y1="1319.76" x2="1513.89" y2="1276.56" style="stroke:#404040;stroke-width:6.48"/>
	<line x1="1513.89" y1="1254.96" x2="1513.89" y2="1211.76" style="stroke:#404040;stroke-width:6.48"/>
	<line x1="1513.89" y1="1190.16" x2="1513.89" y2="1146.96" style="stroke:#404040;stroke-width:6.48"/>
	<line x1="1513.89" y1="1125.36" x2="1513.89" y2="1082.16" style="stroke:#404040;stroke-width:6.48"/>
	<line x1="1513.89" y1="1060.56" x2="1513.89" y2="1017.36" style="stroke:#404040;stroke-width:6.48"/>
	<line x1="1513.89" y1="995.76" x2="1513.89" y2="952.56" style="stroke:#404040;stroke-width:6.48"/>
	<line x1="1513.89" y1="930.96" x2="1513.89" y2="887.76" style="stroke:#404040;stroke-width:6.48"/>
	<line x1="1513.89" y1="866.16" x2="1513.89" y2="822.96" style="stroke:#404040;stroke-width:6.48"/>
	<line x1="1513.89" y1="801.36" x2="1513.89" y2="758.16" style="stroke:#404040;stroke-width:6.48"/>
	<line x1="1513.89" y1="736.56" x2="1513.89" y2="693.36" style="stroke:#404040;stroke-width:6.48"/>
	<line x1="1513.89" y1="671.76" x2="1513.89" y2="628.56" style="stroke:#404040;stroke-width:6.48"/>
	<line x1="1513.89" y1="606.96" x2="1513.89" y2="563.76" style="stroke:#404040;stroke-width:6.48"/>
	<line x1="1513.89" y1="542.16" x2="1513.89" y2="498.96" style="stroke:#404040;stroke-width:6.48"/>
	<line x1="1513.89" y1="477.36" x2="1513.89" y2="434.16" style="stroke:#404040;stroke-width:6.48"/>
	<line x1="1513.89" y1="412.56" x2="1513.89" y2="369.36" style="stroke:#404040;stroke-width:6.48"/>
	<line x1="1513.89" y1="347.76" x2="1513.89" y2="304.56" style="stroke:#404040;stroke-width:6.48"/>
	<line x1="1513.89" y1="282.96" x2="1513.89" y2="239.76" style="stroke:#404040;stroke-width:6.48"/>
	<line x1="1513.89" y1="218.16" x2="1513.89" y2="174.96" style="stroke:#404040;stroke-width:6.48"/>
	<line x1="1513.89" y1="153.36" x2="1513.89" y2="110.16" style="stroke:#404040;stroke-width:6.48"/>
	<line x1="1513.89" y1="88.56" x2="1513.89" y2="45.36" style="stroke:#404040;stroke-width:6.48"/>
	<line x1="1513.89" y1="23.76" x2="1513.89" y2="0.00" style="stroke:#404040;stroke-width:6.48"/>
	<line x1="135.68" y1="1828.44" x2="4320.00" y2="1828.44" style="stroke:#404040;stroke-width:6.48"/>
	<line x1="183.20" y1="1767.96" x2="183.20" y2="1925.78" style="stroke:#E397A0;stroke-width:6.48"/>
	<line x1="166.73" y1="1925.78" x2="199.67" y2="1925.78" stroke-linecap="round" style="stroke:#E397A0;stroke-width:6.48"/>
	<line x1="166.73" y1="1767.96" x2="199.67" y2="1767.96" stroke-linecap="round" style="stroke:#E397A0;stroke-width:6.48"/>
	<line x1="248.13" y1="1772.55" x2="248.13" y2="1931.45" style="stroke:#E397A0;stroke-width:6.48"/>
	<line x1="231.66" y1="1931.45" x2="264.60" y2="1931.45" stroke-linecap="round" style="stroke:#E397A0;stroke-width:6.48"/>
	<line x1="231.66" y1="1772.55" x2="264.60" y2="1772.55" stroke-linecap="round" style="stroke:#E397A0;stroke-width:6.48"/>
	<line x1="313.07" y1="1718.28" x2="313.07" y2="1880.01" style="stroke:#E397A0;stroke-width:6.48"/>
	<line x1="296.60" y1="1880.01" x2="329.54" y2="1880.01" stroke-linecap="round" style="stroke:#E397A0;stroke-width:6.48"/>
	<line x1="296.60" y1="1718.28" x2="329.54" y2="1718.28" stroke-linecap="round" style="stroke:#E397A0;stroke-width:6.48"/>
	<line x1="378.00" y1="1769.72" x2="378.00" y2="1928.61" style="stroke:#E397A0;stroke-width:6.48"/>
	<line x1="361.53" y1="1928.61" x2="394.47" y2="1928.61" stroke-linecap="round" style="stroke:#E397A0;stroke-width:6.48"/>
	<line x1="361.53" y1="1769.72" x2="394.47" y2="1769.72" stroke-linecap="round" style="stroke:#E397A0;stroke-width:6.48"/>
	<line x1="442.94" y1="1771.47" x2="442.94" y2="1942.11" style="stroke:#E397A0;stroke-width:6.48"/>
	<line x1="426.47" y1="1942.11" x2="459.41" y2="1942.11" stroke-linecap="round" style="stroke:#E397A0;stroke-width:6.48"/>
	<line x1="426.47" y1="1771.47" x2="459.41" y2="1771.47" stroke-linecap="round" style="stroke:#E397A0;stroke-width:6.48"/>
	<line x1="507.74" y1="1734.48" x2="507.74" y2="1918.89" style="stroke:#E397A0;stroke-width:6.48"/>
	<line x1="491.27" y1="1918.89" x2="524.21" y2="1918.89" stroke-linecap="round" style="stroke:#E397A0;stroke-width:6.48"/>
	<line x1="491.27" y1="1734.48" x2="524.21" y2="1734.48" stroke-linecap="round" style="stroke:#E397A0;stroke-width:6.48"/>
	<line x1="572.67" y1="1703.84" x2="572.67" y2="1873.53" style="stroke:#E397A0;stroke-width:6.48"/>
	<line x1="556.20" y1="1873.53" x2="589.14" y2="1873.53" stroke-linecap="round" style="stroke:#E397A0;stroke-width:6.48"/>
	<line x1="556.20" y1="1703.84" x2="589.14" y2="1703.84" stroke-linecap="round" style="stroke:#E397A0;stroke-width:6.48"/>
	<line x1="637.61" y1="1703.70" x2="637.61" y2="1865.16" style="stroke:#E397A0;stroke-width:6.48"/>
	<line x1="621.14" y1="1865.16" x2="654.08" y2="1865.16" stroke-linecap="round" style="stroke:#E397A0;stroke-width:6.48"/>
	<line x1="621.14" y1="1703.70" x2="654.08" y2="1703.70" stroke-linecap="round" style="stroke:#E397A0;stroke-width:6.48"/>
	<line x1="702.54" y1="1669.41" x2="702.54" y2="1842.48" style="stroke:#E397A0;stroke-width:6.48"/>
	<line x1="686.07" y1="1842.48" x2="719.01" y2="1842.48" stroke-linecap="round" style="stroke:#E397A0;stroke-width:6.48"/>
	<line x1="686.07" y1="1669.41" x2="719.01" y2="1669.41" stroke-linecap="round" style="stroke:#E397A0;stroke-width:6.48"/>
	<line x1="767.48" y1="1718.69" x2="767.48" y2="1885.28" style="stroke:#E397A0;stroke-width:6.48"/>
	<line x1="751.01" y1="1885.28" x2="783.95" y2="1885.28" stroke-linecap="round" style="stroke:#E397A0;stroke-width:6.48"/>
	<line x1="751.01" y1="1718.69" x2="783.95" y2="1718.69" stroke-linecap="round" style="stroke:#E397A0;stroke-width:6.48"/>
	<line x1="832.28" y1="1709.37" x2="832.28" y2="1878.80" style="stroke:#E397A0;stroke-width:6.48"/>
	<line x1="815.81" y1="1878.80" x2="848.75" y2="1878.80" stroke-linecap="round" style="stroke:#E397A0;stroke-width:6.48"/>
	<line x1="815.81" y1="1709.37" x2="848.75" y2="1709.37" stroke-linecap="round" style="stroke:#E397A0;stroke-width:6.48"/>
	<line x1="897.21" y1="1829.25" x2="897.21" y2="1985.04" style="stroke:#E397A0;stroke-width:6.48"/>
	<line x1="880.74" y1="1985.04" x2="913.68" y2="1985.04" stroke-linecap="round" style="stroke:#E397A0;stroke-width:6.48"/>
	<line x1="880.74" y1="1829.25" x2="913.68" y2="1829.25" stroke-linecap="round" style="stroke:#E397A0;stroke-width:6.48"/>
	<line x1="962.15" y1="1738.94" x2="962.15" y2="1900.80" style="stroke:#E397A0;stroke-width:6.48"/>
	<line x1="945.68" y1="1900.80" x2="978.62" y2="1900.80" stroke-linecap="round" style="stroke:#E397A0;stroke-width:6.48"/>
	<line x1="945.68" y1="1738.94" x2="978.62" y2="1738.94" stroke-linecap="round" style="stroke:#E397A0;stroke-width:6.48"/>
	<line x1="1027.08" y1="1740.15" x2="1027.08" y2="1910.25" style="stroke:#E397A0;stroke-width:6.48"/>
	<line x1="1010.61" y1="1910.25" x2="1043.55" y2="1910.25" stroke-linecap="round" style="stroke:#E397A0;stroke-width:6.48"/>
	<line x1="1010.61" y1="1740.15" x2="1043.55" y2="1740.15" stroke-linecap="round" style="stroke:#E397A0;stroke-width:6.48"/>
	<line x1="1092.02" y1="1786.32" x2="1092.02" y2="1926.45" style="stroke:#E397A0;stroke-width:6.48"/>
	<line x1="1075.55" y1="1926.45" x2="1108.48" y2="1926.45" stroke-linecap="round" style="stroke:#E397A0;stroke-width:6.48"/>
	<line x1="1075.55" y1="1786.32" x2="1108.48" y2="1786.32" stroke-linecap="round" style="stroke:#E397A0;stroke-width:6.48"/>
	<line x1="1156.82" y1="1835.06" x2="1156.82" y2="1976.81" style="stroke:#E397A0;stroke-width:6.48"/>
	<line x1="1140.35" y1="1976.81" x2="1173.29" y2="1976.81" stroke-linecap="round" style="stroke:#E397A0;stroke-width:6.48"/>
	<line x1="1140.35" y1="1835.06" x2="1173.29" y2="1835.06" stroke-linecap="round" style="stroke:#E397A0;stroke-width:6.48"/>
	<line x1="1221.75" y1="1835.73" x2="1221.75" y2="1968.17" style="stroke:#E397A0;stroke-width:6.48"/>
	<line x1="1205.28" y1="1968.17" x2="1238.22" y2="1968.17" stroke-linecap="round" style="stroke:#E397A0;stroke-width:6.48"/>
	<line x1="1205.28" y1="1835.73" x2="1238.22" y2="1835.73" stroke-linecap="round" style="stroke:#E397A0;stroke-width:6.48"/>
	<line x1="1286.69" y1="1813.86" x2="1286.69" y2="1946.70" style="stroke:#E397A0;stroke-width:6.48"/>
	<line x1="1270.21" y1="1946.70" x2="1303.16" y2="1946.70" stroke-linecap="round" style="stroke:#E397A0;stroke-width:6.48"/>
	<line x1="1270.21" y1="1813.86" x2="1303.16" y2="1813.86" stroke-linecap="round" style="stroke:#E397A0;stroke-width:6.48"/>
	<line x1="1351.62" y1="1730.97" x2="1351.62" y2="1849.91" style="stroke:#E397A0;stroke-width:6.48"/>
	<line x1="1335.15" y1="1849.91" x2="1368.09" y2="1849.91" stroke-linecap="round" style="stroke:#E397A0;stroke-width:6.48"/>
	<line x1="1335.15" y1="1730.97" x2="1368.09" y2="1730.97" stroke-linecap="round" style="stroke:#E397A0;stroke-width:6.48"/>
	<line x1="1416.56" y1="1699.79" x2="1416.56" y2="1832.36" style="stroke:#E397A0;stroke-width:6.48"/>
	<line x1="1400.09" y1="1832.36" x2="1433.03" y2="1832.36" stroke-linecap="round" style="stroke:#E397A0;stroke-width:6.48"/>
	<line x1="1400.09" y1="1699.79" x2="1433.03" y2="1699.79" stroke-linecap="round" style="stroke:#E397A0;stroke-width:6.48"/>
	<line x1="1546.29" y1="1671.98" x2="1546.29" y2="1837.35" style="stroke:#E397A0;stroke-width:6.48"/>
	<line x1="1529.82" y1="1837.35" x2="1562.76" y2="1837.35" stroke-linecap="round" style="stroke:#E397A0;stroke-width:6.48"/>
	<line x1="1529.82" y1="1671.98" x2="1562.76" y2="1671.98" stroke-linecap="round" style="stroke:#E397A0;stroke-width:6.48"/>
	<line x1="1611.23" y1="1609.74" x2="1611.23" y2="1809.81" style="stroke:#E397A0;stroke-width:6.48"/>
	<line x1="1594.76" y1="1809.81" x2="1627.70" y2="1809.81" stroke-linecap="round" style="stroke:#E397A0;stroke-width:6.48"/>
	<line x1="1594.76" y1="1609.74" x2="1627.70" y2="1609.74" stroke-linecap="round" style="stroke:#E397A0;stroke-width:6.48"/>
	<line x1="1676.16" y1="1609.20" x2="1676.16" y2="1828.17" style="stroke:#E397A0;stroke-width:6.48"/>
	<line x1="1659.69" y1="1828.17" x2="1692.63" y2="1828.17" stroke-linecap="round" style="stroke:#E397A0;stroke-width:6.48"/>
	<line x1="1659.69" y1="1609.20" x2="1692.63" y2="1609.20" stroke-linecap="round" style="stroke:#E397A0;stroke-width:6.48"/>
	<line x1="1741.10" y1="1598.00" x2="1741.10" y2="1823.99" style="stroke:#E397A0;stroke-width:6.48"/>
	<line x1="1724.63" y1="1823.99" x2="1757.57" y2="1823.99" stroke-linecap="round" style="stroke:#E397A0;stroke-width:6.48"/>
	<line x1="1724.63" y1="1598.00" x2="1757.57" y2="1598.00" stroke-linecap="round" style="stroke:#E397A0;stroke-width:6.48"/>
	<line x1="1805.90" y1="1581.93" x2="1805.90" y2="1834.11" style="stroke:#E397A0;stroke-width:6.48"/>
	<line x1="1789.43" y1="1834.11" x2="1822.37" y2="1834.11" stroke-linecap="round" style="stroke:#E397A0;stroke-width:6.48"/>
	<line x1="1789.43" y1="1581.93" x2="1822.37" y2="1581.93" stroke-linecap="round" style="stroke:#E397A0;stroke-width:6.48"/>
	<line x1="1870.83" y1="1530.90" x2="1870.83" y2="1808.60" style="stroke:#E397A0;stroke-width:6.48"/>
	<line x1="1854.36" y1="1808.60" x2="1887.30" y2="1808.60" stroke-linecap="round" style="stroke:#E397A0;stroke-width:6.48"/>
	<line x1="1854.36" y1="1530.90" x2="1887.30" y2="1530.90" stroke-linecap="round" style="stroke:#E397A0;stroke-width:6.48"/>
	<line x1="1935.77" y1="1449.63" x2="1935.77" y2="1755.27" style="stroke:#E397A0;stroke-width:6.48"/>
	<line x1="1919.30" y1="1755.27" x2="1952.24" y2="1755.27" stroke-linecap="round" style="stroke:#E397A0;stroke-width:6.48"/>
	<line x1="1919.30" y1="1449.63" x2="1952.24" y2="1449.63" stroke-linecap="round" style="stroke:#E397A0;stroke-width:6.48"/>
	<line x1="2000.70" y1="1417.91" x2="2000.70" y2="1721.52" style="stroke:#E397A0;stroke-width:6.48"/>
	<line x1="1984.23" y1="1721.52" x2="2017.17" y2="1721.52" stroke-linecap="round" style="stroke:#E397A0;stroke-width:6.48"/>
	<line x1="1984.23" y1="1417.91" x2="2017.17" y2="1417.91" stroke-linecap="round" style="stroke:#E397A0;stroke-width:6.48"/>
	<line x1="2065.64" y1="1374.98" x2="2065.64" y2="1704.92" style="stroke:#E397A0;stroke-width:6.48"/>
	<line x1="2049.17" y1="1704.92" x2="2082.11" y2="1704.92" stroke-linecap="round" style="stroke:#E397A0;stroke-width:6.48"/>
	<line x1="2049.17" y1="1374.98" x2="2082.11" y2="1374.98" stroke-linecap="round" style="stroke:#E397A0;stroke-width:6.48"/>
	<line x1="2130.44" y1="1320.84" x2="2130.44" y2="1668.20" style="stroke:#E397A0;stroke-width:6.48"/>
	<line x1="2113.97" y1="1668.20" x2="2146.91" y2="1668.20" stroke-linecap="round" style="stroke:#E397A0;stroke-width:6.48"/>
	<line x1="2113.97" y1="1320.84" x2="2146.91" y2="1320.84" stroke-linecap="round" style="stroke:#E397A0;stroke-width:6.48"/>
	<line x1="2195.37" y1="1266.57" x2="2195.37" y2="1592.33" style="stroke:#E397A0;stroke-width:6.48"/>
	<line x1="2178.90" y1="1592.33" x2="2211.84" y2="1592.33" stroke-linecap="round" style="stroke:#E397A0;stroke-width:6.48"/>
	<line x1="2178.90" y1="1266.57" x2="2211.84" y2="1266.57" stroke-linecap="round" style="stroke:#E397A0;stroke-width:6.48"/>
	<line x1="2260.30" y1="1218.11" x2="2260.30" y2="1565.33" style="stroke:#E397A0;stroke-width:6.48"/>
	<line x1="2243.84" y1="1565.33" x2="2276.78" y2="1565.33" stroke-linecap="round" style="stroke:#E397A0;stroke-width:6.48"/>
	<line x1="2243.84" y1="1218.11" x2="2276.78" y2="1218.11" stroke-linecap="round" style="stroke:#E397A0;stroke-width:6.48"/>
	<line x1="2325.24" y1="1166.26" x2="2325.24" y2="1560.33" style="stroke:#E397A0;stroke-width:6.48"/>
	<line x1="2308.77" y1="1560.33" x2="2341.71" y2="1560.33" stroke-linecap="round" style="stroke:#E397A0;stroke-width:6.48"/>
	<line x1="2308.77" y1="1166.26" x2="2341.71" y2="1166.26" stroke-linecap="round" style="stroke:#E397A0;stroke-width:6.48"/>
	<line x1="2390.18" y1="1165.19" x2="2390.18" y2="1593.00" style="stroke:#E397A0;stroke-width:6.48"/>
	<line x1="2373.71" y1="1593.00" x2="2406.65" y2="1593.00" stroke-linecap="round" style="stroke:#E397A0;stroke-width:6.48"/>
	<line x1="2373.71" y1="1165.19" x2="2406.65" y2="1165.19" stroke-linecap="round" style="stroke:#E397A0;stroke-width:6.48"/>
	<line x1="2455.11" y1="1155.06" x2="2455.11" y2="1583.28" style="stroke:#E397A0;stroke-width:6.48"/>
	<line x1="2438.64" y1="1583.28" x2="2471.58" y2="1583.28" stroke-linecap="round" style="stroke:#E397A0;stroke-width:6.48"/>
	<line x1="2438.64" y1="1155.06" x2="2471.58" y2="1155.06" stroke-linecap="round" style="stroke:#E397A0;stroke-width:6.48"/>
	<line x1="2519.91" y1="1185.84" x2="2519.91" y2="1598.67" style="stroke:#E397A0;stroke-width:6.48"/>
	<line x1="2503.44" y1="1598.67" x2="2536.38" y2="1598.67" stroke-linecap="round" style="stroke:#E397A0;stroke-width:6.48"/>
	<line x1="2503.44" y1="1185.84" x2="2536.38" y2="1185.84" stroke-linecap="round" style="stroke:#E397A0;stroke-width:6.48"/>
	<line x1="2584.84" y1="1192.05" x2="2584.84" y2="1640.25" style="stroke:#E397A0;stroke-width:6.48"/>
	<line x1="2568.38" y1="1640.25" x2="2601.32" y2="1640.25" stroke-linecap="round" style="stroke:#E397A0;stroke-width:6.48"/>
	<line x1="2568.38" y1="1192.05" x2="2601.32" y2="1192.05" stroke-linecap="round" style="stroke:#E397A0;stroke-width:6.48"/>
	<line x1="2649.78" y1="1178.69" x2="2649.78" y2="1675.08" style="stroke:#E397A0;stroke-width:6.48"/>
	<line x1="2633.31" y1="1675.08" x2="2666.25" y2="1675.08" stroke-linecap="round" style="stroke:#E397A0;stroke-width:6.48"/>
	<line x1="2633.31" y1="1178.69" x2="2666.25" y2="1178.69" stroke-linecap="round" style="stroke:#E397A0;stroke-width:6.48"/>
	<line x1="2714.72" y1="1162.35" x2="2714.72" y2="1689.66" style="stroke:#E397A0;stroke-width:6.48"/>
	<line x1="2698.25" y1="1689.66" x2="2731.19" y2="1689.66" stroke-linecap="round" style="stroke:#E397A0;stroke-width:6.48"/>
	<line x1="2698.25" y1="1162.35" x2="2731.19" y2="1162.35" stroke-linecap="round" style="stroke:#E397A0;stroke-width:6.48"/>
	<line x1="2779.65" y1="1111.59" x2="2779.65" y2="1661.99" style="stroke:#E397A0;stroke-width:6.48"/>
	<line x1="2763.18" y1="1661.99" x2="2796.12" y2="1661.99" stroke-linecap="round" style="stroke:#E397A0;stroke-width:6.48"/>
	<line x1="2763.18" y1="1111.59" x2="2796.12" y2="1111.59" stroke-linecap="round" style="stroke:#E397A0;stroke-width:6.48"/>
	<line x1="2844.45" y1="1100.93" x2="2844.45" y2="1668.20" style="stroke:#E397A0;stroke-width:6.48"/>
	<line x1="2827.98" y1="1668.20" x2="2860.92" y2="1668.20" stroke-linecap="round" style="stroke:#E397A0;stroke-width:6.48"/>
	<line x1="2827.98" y1="1100.93" x2="2860.92" y2="1100.93" stroke-linecap="round" style="stroke:#E397A0;stroke-width:6.48"/>
	<line x1="2909.39" y1="1107.68" x2="2909.39" y2="1668.74" style="stroke:#E397A0;stroke-width:6.48"/>
	<line x1="2892.92" y1="1668.74" x2="2925.86" y2="1668.74" stroke-linecap="round" style="stroke:#E397A0;stroke-width:6.48"/>
	<line x1="2892.92" y1="1107.68" x2="2925.86" y2="1107.68" stroke-linecap="round" style="stroke:#E397A0;stroke-width:6.48"/>
	<line x1="2974.32" y1="1065.56" x2="2974.32" y2="1621.49" style="stroke:#E397A0;stroke-width:6.48"/>
	<line x1="2957.85" y1="1621.49" x2="2990.79" y2="1621.49" stroke-linecap="round" style="stroke:#E397A0;stroke-width:6.48"/>
	<line x1="2957.85" y1="1065.56" x2="2990.79" y2="1065.56" stroke-linecap="round" style="stroke:#E397A0;stroke-width:6.48"/>
	<line x1="3039.26" y1="1009.26" x2="3039.26" y2="1588.55" style="stroke:#E397A0;stroke-width:6.48"/>
	<line x1="3022.79" y1="1588.55" x2="3055.73" y2="1588.55" stroke-linecap="round" style="stroke:#E397A0;stroke-width:6.48"/>
	<line x1="3022.79" y1="1009.26" x2="3055.73" y2="1009.26" stroke-linecap="round" style="stroke:#E397A0;stroke-width:6.48"/>
	<line x1="3104.19" y1="989.28" x2="3104.19" y2="1621.08" style="stroke:#E397A0;stroke-width:6.48"/>
	<line x1="3087.72" y1="1621.08" x2="3120.66" y2="1621.08" stroke-linecap="round" style="stroke:#E397A0;stroke-width:6.48"/>
	<line x1="3087.72" y1="989.28" x2="3120.66" y2="989.28" stroke-linecap="round" style="stroke:#E397A0;stroke-width:6.48"/>
	<line x1="3168.99" y1="953.91" x2="3168.99" y2="1619.87" style="stroke:#E397A0;stroke-width:6.48"/>
	<line x1="3152.52" y1="1619.87" x2="3185.46" y2="1619.87" stroke-linecap="round" style="stroke:#E397A0;stroke-width:6.48"/>
	<line x1="3152.52" y1="953.91" x2="3185.46" y2="953.91" stroke-linecap="round" style="stroke:#E397A0;stroke-width:6.48"/>
	<line x1="3233.93" y1="913.14" x2="3233.93" y2="1585.44" style="stroke:#E397A0;stroke-width:6.48"/>
	<line x1="3217.46" y1="1585.44" x2="3250.40" y2="1585.44" stroke-linecap="round" style="stroke:#E397A0;stroke-width:6.48"/>
	<line x1="3217.46" y1="913.14" x2="3250.40" y2="913.14" stroke-linecap="round" style="stroke:#E397A0;stroke-width:6.48"/>
	<line x1="3298.86" y1="954.59" x2="3298.86" y2="1622.16" style="stroke:#E397A0;stroke-width:6.48"/>
	<line x1="3282.39" y1="1622.16" x2="3315.33" y2="1622.16" stroke-linecap="round" style="stroke:#E397A0;stroke-width:6.48"/>
	<line x1="3282.39" y1="954.59" x2="3315.33" y2="954.59" stroke-linecap="round" style="stroke:#E397A0;stroke-width:6.48"/>
	<line x1="3363.80" y1="918.27" x2="3363.80" y2="1624.73" style="stroke:#E397A0;stroke-width:6.48"/>
	<line x1="3347.33" y1="1624.73" x2="3380.27" y2="1624.73" stroke-linecap="round" style="stroke:#E397A0;stroke-width:6.48"/>
	<line x1="3347.33" y1="918.27" x2="3380.27" y2="918.27" stroke-linecap="round" style="stroke:#E397A0;stroke-width:6.48"/>
	<line x1="3428.73" y1="812.30" x2="3428.73" y2="1529.01" style="stroke:#E397A0;stroke-width:6.48"/>
	<line x1="3412.26" y1="1529.01" x2="3445.20" y2="1529.01" stroke-linecap="round" style="stroke:#E397A0;stroke-width:6.48"/>
	<line x1="3412.26" y1="812.30" x2="3445.20" y2="812.30" stroke-linecap="round" style="stroke:#E397A0;stroke-width:6.48"/>
	<line x1="3493.53" y1="790.70" x2="3493.53" y2="1540.89" style="stroke:#E397A0;stroke-width:6.48"/>
	<line x1="3477.06" y1="1540.89" x2="3510.00" y2="1540.89" stroke-linecap="round" style="stroke:#E397A0;stroke-width:6.48"/>
	<line x1="3477.06" y1="790.70" x2="3510.00" y2="790.70" stroke-linecap="round" style="stroke:#E397A0;stroke-width:6.48"/>
	<line x1="3558.47" y1="786.24" x2="3558.47" y2="1538.73" style="stroke:#E397A0;stroke-width:6.48"/>
	<line x1="3542.00" y1="1538.73" x2="3574.94" y2="1538.73" stroke-linecap="round" style="stroke:#E397A0;stroke-width:6.48"/>
	<line x1="3542.00" y1="786.24" x2="3574.94" y2="786.24" stroke-linecap="round" style="stroke:#E397A0;stroke-width:6.48"/>
	<line x1="3623.40" y1="736.02" x2="3623.40" y2="1494.72" style="stroke:#E397A0;stroke-width:6.48"/>
	<line x1="3606.93" y1="1494.72" x2="3639.87" y2="1494.72" stroke-linecap="round" style="stroke:#E397A0;stroke-width:6.48"/>
	<line x1="3606.93" y1="736.02" x2="3639.87" y2="736.02" stroke-linecap="round" style="stroke:#E397A0;stroke-width:6.48"/>
	<line x1="3688.34" y1="701.73" x2="3688.34" y2="1455.57" style="stroke:#E397A0;stroke-width:6.48"/>
	<line x1="3671.87" y1="1455.57" x2="3704.81" y2="1455.57" stroke-linecap="round" style="stroke:#E397A0;stroke-width:6.48"/>
	<line x1="3671.87" y1="701.73" x2="3704.81" y2="701.73" stroke-linecap="round" style="stroke:#E397A0;stroke-width:6.48"/>
	<line x1="3753.27" y1="638.28" x2="3753.27" y2="1377.54" style="stroke:#E397A0;stroke-width:6.48"/>
	<line x1="3736.80" y1="1377.54" x2="3769.74" y2="1377.54" stroke-linecap="round" style="stroke:#E397A0;stroke-width:6.48"/>
	<line x1="3736.80" y1="638.28" x2="3769.74" y2="638.28" stroke-linecap="round" style="stroke:#E397A0;stroke-width:6.48"/>
	<line x1="3818.07" y1="617.76" x2="3818.07" y2="1368.36" style="stroke:#E397A0;stroke-width:6.48"/>
	<line x1="3801.60" y1="1368.36" x2="3834.54" y2="1368.36" stroke-linecap="round" style="stroke:#E397A0;stroke-width:6.48"/>
	<line x1="3801.60" y1="617.76" x2="3834.54" y2="617.76" stroke-linecap="round" style="stroke:#E397A0;stroke-width:6.48"/>
	<line x1="3883.01" y1="564.43" x2="3883.01" y2="1343.79" style="stroke:#E397A0;stroke-width:6.48"/>
	<line x1="3866.54" y1="1343.79" x2="3899.48" y2="1343.79" stroke-linecap="round" style="stroke:#E397A0;stroke-width:6.48"/>
	<line x1="3866.54" y1="564.43" x2="3899.48" y2="564.43" stroke-linecap="round" style="stroke:#E397A0;stroke-width:6.48"/>
	<line x1="3947.94" y1="572.13" x2="3947.94" y2="1397.12" style="stroke:#E397A0;stroke-width:6.48"/>
	<line x1="3931.47" y1="1397.12" x2="3964.41" y2="1397.12" stroke-linecap="round" style="stroke:#E397A0;stroke-width:6.48"/>
	<line x1="3931.47" y1="572.13" x2="3964.41" y2="572.13" stroke-linecap="round" style="stroke:#E397A0;stroke-width:6.48"/>
	<line x1="4012.88" y1="552.42" x2="4012.88" y2="1372.28" style="stroke:#E397A0;stroke-width:6.48"/>
	<line x1="3996.41" y1="1372.28" x2="4029.35" y2="1372.28" stroke-linecap="round" style="stroke:#E397A0;stroke-width:6.48"/>
	<line x1="3996.41" y1="552.42" x2="4029.35" y2="552.42" stroke-linecap="round" style="stroke:#E397A0;stroke-width:6.48"/>
	<line x1="4077.81" y1="659.88" x2="4077.81" y2="1465.43" style="stroke:#E397A0;stroke-width:6.48"/>
	<line x1="4061.34" y1="1465.43" x2="4094.28" y2="1465.43" stroke-linecap="round" style="stroke:#E397A0;stroke-width:6.48"/>
	<line x1="4061.34" y1="659.88" x2="4094.28" y2="659.88" stroke-linecap="round" style="stroke:#E397A0;stroke-width:6.48"/>
	<line x1="4142.61" y1="579.02" x2="4142.61" y2="1409.27" style="stroke:#E397A0;stroke-width:6.48"/>
	<line x1="4126.14" y1="1409.27" x2="4159.08" y2="1409.27" stroke-linecap="round" style="stroke:#E397A0;stroke-width:6.48"/>
	<line x1="4126.14" y1="579.02" x2="4159.08" y2="579.02" stroke-linecap="round" style="stroke:#E397A0;stroke-width:6.48"/>
	<line x1="4207.55" y1="510.57" x2="4207.55" y2="1368.50" style="stroke:#E397A0;stroke-width:6.48"/>
	<line x1="4191.08" y1="1368.50" x2="4224.02" y2="1368.50" stroke-linecap="round" style="stroke:#E397A0;stroke-width:6.48"/>
	<line x1="4191.08" y1="510.57" x2="4224.02" y2="510.57" stroke-linecap="round" style="stroke:#E397A0;stroke-width:6.48"/>
	<line x1="4272.48" y1="403.11" x2="4272.48" y2="1287.90" style="stroke:#E397A0;stroke-width:6.48"/>
	<line x1="4256.01" y1="1287.90" x2="4288.95" y2="1287.90" stroke-linecap="round" style="stroke:#E397A0;stroke-width:6.48"/>
	<line x1="4256.01" y1="403.11" x2="4288.95" y2="403.11" stroke-linecap="round" style="stroke:#E397A0;stroke-width:6.48"/>
	<path d=" M183.20 1846.94 L248.13 1852.07 L312.93 1799.15 L377.87 1849.23 L442.80 1856.93 L507.74 1826.69 L572.67 1788.75 L637.61 1784.43 L702.41 1755.95 L767.34 1802.12 L832.28 1794.15 L897.21 1907.28 L962.15 1819.94 L1026.95 1825.20 L1091.88 1856.39 L1156.82 1906.07 L1221.75 1902.02 L1286.69 1880.42 L1351.49 1790.51 L1416.42 1766.07 L1481.36 1828.44 L1546.29 1754.73 L1611.23 1709.91 L1676.03 1718.82 L1740.96 1711.13 L1805.90 1708.02 L1870.83 1669.82 L1935.77 1602.45 L2000.57 1569.78 L2065.50 1539.95 L2130.44 1494.59 L2195.37 1429.52 L2260.30 1391.85 L2325.11 1363.37 L2390.04 1379.16 L2454.98 1369.30 L2519.91 1392.26 L2584.84 1416.15 L2649.65 1426.95 L2714.58 1426.14 L2779.52 1386.86 L2844.45 1384.70 L2909.39 1388.21 L2974.19 1343.66 L3039.12 1298.97 L3104.06 1305.32 L3168.99 1286.96 L3233.93 1249.43 L3298.73 1288.44 L3363.66 1271.57 L3428.60 1170.72 L3493.53 1165.86 L3558.47 1162.62 L3623.27 1115.51 L3688.20 1078.65 L3753.14 1008.05 L3818.07 993.06 L3883.01 954.18 L3947.81 984.69 L4012.74 962.42 L4077.68 1062.72 L4142.61 994.28 L4207.55 939.60 L4272.48 845.64" stroke-linejoin="round" style="fill:none;stroke:#83082A;stroke-width:9.72"/>
	<circle cx="183.20" cy="1846.94" r="8.91" style="fill:#83082A"/>
	<circle cx="183.20" cy="1846.94" r="5.67" style="fill:none;stroke:#83082A;stroke-width:6.48"/>
	<circle cx="248.13" cy="1852.07" r="8.91" style="fill:#83082A"/>
	<circle cx="248.13" cy="1852.07" r="5.67" style="fill:none;stroke:#83082A;stroke-width:6.48"/>
	<circle cx="312.93" cy="1799.15" r="8.91" style="fill:#83082A"/>
	<circle cx="312.93" cy="1799.15" r="5.67" style="fill:none;stroke:#83082A;stroke-width:6.48"/>
	<circle cx="377.87" cy="1849.23" r="8.91" style="fill:#83082A"/>
	<circle cx="377.87" cy="1849.23" r="5.67" style="fill:none;stroke:#83082A;stroke-width:6.48"/>
	<circle cx="442.80" cy="1856.93" r="8.91" style="fill:#83082A"/>
	<circle cx="442.80" cy="1856.93" r="5.67" style="fill:none;stroke:#83082A;stroke-width:6.48"/>
	<circle cx="507.74" cy="1826.69" r="8.91" style="fill:#83082A"/>
	<circle cx="507.74" cy="1826.69" r="5.67" style="fill:none;stroke:#83082A;stroke-width:6.48"/>
	<circle cx="572.67" cy="1788.75" r="8.91" style="fill:#83082A"/>
	<circle cx="572.67" cy="1788.75" r="5.67" style="fill:none;stroke:#83082A;stroke-width:6.48"/>
	<circle cx="637.61" cy="1784.43" r="8.91" style="fill:#83082A"/>
	<circle cx="637.61" cy="1784.43" r="5.67" style="fill:none;stroke:#83082A;stroke-width:6.48"/>
	<circle cx="702.41" cy="1755.95" r="8.91" style="fill:#83082A"/>
	<circle cx="702.41" cy="1755.95" r="5.67" style="fill:none;stroke:#83082A;stroke-width:6.48"/>
	<circle cx="767.34" cy="1802.12" r="8.91" style="fill:#83082A"/>
	<circle cx="767.34" cy="1802.12" r="5.67" style="fill:none;stroke:#83082A;stroke-width:6.48"/>
	<circle cx="832.28" cy="1794.15" r="8.91" style="fill:#83082A"/>
	<circle cx="832.28" cy="1794.15" r="5.67" style="fill:none;stroke:#83082A;stroke-width:6.48"/>
	<circle cx="897.21" cy="1907.28" r="8.91" style="fill:#83082A"/>
	<circle cx="897.21" cy="1907.28" r="5.67" style="fill:none;stroke:#83082A;stroke-width:6.48"/>
	<circle cx="962.15" cy="1819.94" r="8.91" style="fill:#83082A"/>
	<circle cx="962.15" cy="1819.94" r="5.67" style="fill:none;stroke:#83082A;stroke-width:6.48"/>
	<circle cx="1026.95" cy="1825.20" r="8.91" style="fill:#83082A"/>
	<circle cx="1026.95" cy="1825.20" r="5.67" style="fill:none;stroke:#83082A;stroke-width:6.48"/>
	<circle cx="1091.88" cy="1856.39" r="8.91" style="fill:#83082A"/>
	<circle cx="1091.88" cy="1856.39" r="5.67" style="fill:none;stroke:#83082A;stroke-width:6.48"/>
	<circle cx="1156.82" cy="1906.07" r="8.91" style="fill:#83082A"/>
	<circle cx="1156.82" cy="1906.07" r="5.67" style="fill:none;stroke:#83082A;stroke-width:6.48"/>
	<circle cx="1221.75" cy="1902.02" r="8.91" style="fill:#83082A"/>
	<circle cx="1221.75" cy="1902.02" r="5.67" style="fill:none;stroke:#83082A;stroke-width:6.48"/>
	<circle cx="1286.69" cy="1880.42" r="8.91" style="fill:#83082A"/>
	<circle cx="1286.69" cy="1880.42" r="5.67" style="fill:none;stroke:#83082A;stroke-width:6.48"/>
	<circle cx="1351.49" cy="1790.51" r="8.91" style="fill:#83082A"/>
	<circle cx="1351.49" cy="1790.51" r="5.67" style="fill:none;stroke:#83082A;stroke-width:6.48"/>
	<circle cx="1416.42" cy="1766.07" r="8.91" style="fill:#83082A"/>
	<circle cx="1416.42" cy="1766.07" r="5.67" style="fill:none;stroke:#83082A;stroke-width:6.48"/>
	<circle cx="1481.36" cy="1828.44" r="8.91" style="fill:#83082A"/>
	<circle cx="1481.36" cy="1828.44" r="5.67" style="fill:none;stroke:#83082A;stroke-width:6.48"/>
	<circle cx="1546.29" cy="1754.73" r="8.91" style="fill:#83082A"/>
	<circle cx="1546.29" cy="1754.73" r="5.67" style="fill:none;stroke:#83082A;stroke-width:6.48"/>
	<circle cx="1611.23" cy="1709.91" r="8.91" style="fill:#83082A"/>
	<circle cx="1611.23" cy="1709.91" r="5.67" style="fill:none;stroke:#83082A;stroke-width:6.48"/>
	<circle cx="1676.03" cy="1718.82" r="8.91" style="fill:#83082A"/>
	<circle cx="1676.03" cy="1718.82" r="5.67" style="fill:none;stroke:#83082A;stroke-width:6.48"/>
	<circle cx="1740.96" cy="1711.13" r="8.91" style="fill:#83082A"/>
	<circle cx="1740.96" cy="1711.13" r="5.67" style="fill:none;stroke:#83082A;stroke-width:6.48"/>
	<circle cx="1805.90" cy="1708.02" r="8.91" style="fill:#83082A"/>
	<circle cx="1805.90" cy="1708.02" r="5.67" style="fill:none;stroke:#83082A;stroke-width:6.48"/>
	<circle cx="1870.83" cy="1669.82" r="8.91" style="fill:#83082A"/>
	<circle cx="1870.83" cy="1669.82" r="5.67" style="fill:none;stroke:#83082A;stroke-width:6.48"/>
	<circle cx="1935.77" cy="1602.45" r="8.91" style="fill:#83082A"/>
	<circle cx="1935.77" cy="1602.45" r="5.67" style="fill:none;stroke:#83082A;stroke-width:6.48"/>
	<circle cx="2000.57" cy="1569.78" r="8.91" style="fill:#83082A"/>
	<circle cx="2000.57" cy="1569.78" r="5.67" style="fill:none;stroke:#83082A;stroke-width:6.48"/>
	<circle cx="2065.50" cy="1539.95" r="8.91" style="fill:#83082A"/>
	<circle cx="2065.50" cy="1539.95" r="5.67" style="fill:none;stroke:#83082A;stroke-width:6.48"/>
	<circle cx="2130.44" cy="1494.59" r="8.91" style="fill:#83082A"/>
	<circle cx="2130.44" cy="1494.59" r="5.67" style="fill:none;stroke:#83082A;stroke-width:6.48"/>
	<circle cx="2195.37" cy="1429.52" r="8.91" style="fill:#83082A"/>
	<circle cx="2195.37" cy="1429.52" r="5.67" style="fill:none;stroke:#83082A;stroke-width:6.48"/>
	<circle cx="2260.30" cy="1391.85" r="8.91" style="fill:#83082A"/>
	<circle cx="2260.30" cy="1391.85" r="5.67" style="fill:none;stroke:#83082A;stroke-width:6.48"/>
	<circle cx="2325.11" cy="1363.37" r="8.91" style="fill:#83082A"/>
	<circle cx="2325.11" cy="1363.37" r="5.67" style="fill:none;stroke:#83082A;stroke-width:6.48"/>
	<circle cx="2390.04" cy="1379.16" r="8.91" style="fill:#83082A"/>
	<circle cx="2390.04" cy="1379.16" r="5.67" style="fill:none;stroke:#83082A;stroke-width:6.48"/>
	<circle cx="2454.98" cy="1369.30" r="8.91" style="fill:#83082A"/>
	<circle cx="2454.98" cy="1369.30" r="5.67" style="fill:none;stroke:#83082A;stroke-width:6.48"/>
	<circle cx="2519.91" cy="1392.26" r="8.91" style="fill:#83082A"/>
	<circle cx="2519.91" cy="1392.26" r="5.67" style="fill:none;stroke:#83082A;stroke-width:6.48"/>
	<circle cx="2584.84" cy="1416.15" r="8.91" style="fill:#83082A"/>
	<circle cx="2584.84" cy="1416.15" r="5.67" style="fill:none;stroke:#83082A;stroke-width:6.48"/>
	<circle cx="2649.65" cy="1426.95" r="8.91" style="fill:#83082A"/>
	<circle cx="2649.65" cy="1426.95" r="5.67" style="fill:none;stroke:#83082A;stroke-width:6.48"/>
	<circle cx="2714.58" cy="1426.14" r="8.91" style="fill:#83082A"/>
	<circle cx="2714.58" cy="1426.14" r="5.67" style="fill:none;stroke:#83082A;stroke-width:6.48"/>
	<circle cx="2779.52" cy="1386.86" r="8.91" style="fill:#83082A"/>
	<circle cx="2779.52" cy="1386.86" r="5.67" style="fill:none;stroke:#83082A;stroke-width:6.48"/>
	<circle cx="2844.45" cy="1384.70" r="8.91" style="fill:#83082A"/>
	<circle cx="2844.45" cy="1384.70" r="5.67" style="fill:none;stroke:#83082A;stroke-width:6.48"/>
	<circle cx="2909.39" cy="1388.21" r="8.91" style="fill:#83082A"/>
	<circle cx="2909.39" cy="1388.21" r="5.67" style="fill:none;stroke:#83082A;stroke-width:6.48"/>
	<circle cx="2974.19" cy="1343.66" r="8.91" style="fill:#83082A"/>
	<circle cx="2974.19" cy="1343.66" r="5.67" style="fill:none;stroke:#83082A;stroke-width:6.48"/>
	<circle cx="3039.12" cy="1298.97" r="8.91" style="fill:#83082A"/>
	<circle cx="3039.12" cy="1298.97" r="5.67" style="fill:none;stroke:#83082A;stroke-width:6.48"/>
	<circle cx="3104.06" cy="1305.32" r="8.91" style="fill:#83082A"/>
	<circle cx="3104.06" cy="1305.32" r="5.67" style="fill:none;stroke:#83082A;stroke-width:6.48"/>
	<circle cx="3168.99" cy="1286.96" r="8.91" style="fill:#83082A"/>
	<circle cx="3168.99" cy="1286.96" r="5.67" style="fill:none;stroke:#83082A;stroke-width:6.48"/>
	<circle cx="3233.93" cy="1249.43" r="8.91" style="fill:#83082A"/>
	<circle cx="3233.93" cy="1249.43" r="5.67" style="fill:none;stroke:#83082A;stroke-width:6.48"/>
	<circle cx="3298.73" cy="1288.44" r="8.91" style="fill:#83082A"/>
	<circle cx="3298.73" cy="1288.44" r="5.67" style="fill:none;stroke:#83082A;stroke-width:6.48"/>
	<circle cx="3363.66" cy="1271.57" r="8.91" style="fill:#83082A"/>
	<circle cx="3363.66" cy="1271.57" r="5.67" style="fill:none;stroke:#83082A;stroke-width:6.48"/>
	<circle cx="3428.60" cy="1170.72" r="8.91" style="fill:#83082A"/>
	<circle cx="3428.60" cy="1170.72" r="5.67" style="fill:none;stroke:#83082A;stroke-width:6.48"/>
	<circle cx="3493.53" cy="1165.86" r="8.91" style="fill:#83082A"/>
	<circle cx="3493.53" cy="1165.86" r="5.67" style="fill:none;stroke:#83082A;stroke-width:6.48"/>
	<circle cx="3558.47" cy="1162.62" r="8.91" style="fill:#83082A"/>
	<circle cx="3558.47" cy="1162.62" r="5.67" style="fill:none;stroke:#83082A;stroke-width:6.48"/>
	<circle cx="3623.27" cy="1115.51" r="8.91" style="fill:#83082A"/>
	<circle cx="3623.27" cy="1115.51" r="5.67" style="fill:none;stroke:#83082A;stroke-width:6.48"/>
	<circle cx="3688.20" cy="1078.65" r="8.91" style="fill:#83082A"/>
	<circle cx="3688.20" cy="1078.65" r="5.67" style="fill:none;stroke:#83082A;stroke-width:6.48"/>
	<circle cx="3753.14" cy="1008.05" r="8.91" style="fill:#83082A"/>
	<circle cx="3753.14" cy="1008.05" r="5.67" style="fill:none;stroke:#83082A;stroke-width:6.48"/>
	<circle cx="3818.07" cy="993.06" r="8.91" style="fill:#83082A"/>
	<circle cx="3818.07" cy="993.06" r="5.67" style="fill:none;stroke:#83082A;stroke-width:6.48"/>
	<circle cx="3883.01" cy="954.18" r="8.91" style="fill:#83082A"/>
	<circle cx="3883.01" cy="954.18" r="5.67" style="fill:none;stroke:#83082A;stroke-width:6.48"/>
	<circle cx="3947.81" cy="984.69" r="8.91" style="fill:#83082A"/>
	<circle cx="3947.81" cy="984.69" r="5.67" style="fill:none;stroke:#83082A;stroke-width:6.48"/>
	<circle cx="4012.74" cy="962.42" r="8.91" style="fill:#83082A"/>
	<circle cx="4012.74" cy="962.42" r="5.67" style="fill:none;stroke:#83082A;stroke-width:6.48"/>
	<circle cx="4077.68" cy="1062.72" r="8.91" style="fill:#83082A"/>
	<circle cx="4077.68" cy="1062.72" r="5.67" style="fill:none;stroke:#83082A;stroke-width:6.48"/>
	<circle cx="4142.61" cy="994.28" r="8.91" style="fill:#83082A"/>
	<circle cx="4142.61" cy="994.28" r="5.67" style="fill:none;stroke:#83082A;stroke-width:6.48"/>
	<circle cx="4207.55" cy="939.60" r="8.91" style="fill:#83082A"/>
	<circle cx="4207.55" cy="939.60" r="5.67" style="fill:none;stroke:#83082A;stroke-width:6.48"/>
	<circle cx="4272.48" cy="845.64" r="8.91" style="fill:#83082A"/>
	<circle cx="4272.48" cy="845.64" r="5.67" style="fill:none;stroke:#83082A;stroke-width:6.48"/>
	<line x1="135.68" y1="2032.56" x2="135.68" y2="0.00" style="stroke:#404040;stroke-width:4.32"/>
	<line x1="135.68" y1="1828.44" x2="105.71" y2="1828.44" style="stroke:#000000;stroke-width:4.32"/>
	<text x="90.72" y="1849.45" style="font-family:'Century Gothic';font-size:59.94px;fill:#000000" text-anchor="end">0</text>
	<line x1="135.68" y1="1234.71" x2="105.71" y2="1234.71" style="stroke:#000000;stroke-width:4.32"/>
	<text x="90.72" y="1255.72" style="font-family:'Century Gothic';font-size:59.94px;fill:#000000" text-anchor="end">.1</text>
	<line x1="135.68" y1="641.12" x2="105.71" y2="641.12" style="stroke:#000000;stroke-width:4.32"/>
	<text x="90.72" y="662.13" style="font-family:'Century Gothic';font-size:59.94px;fill:#000000" text-anchor="end">.2</text>
	<line x1="135.68" y1="47.52" x2="105.71" y2="47.52" style="stroke:#000000;stroke-width:4.32"/>
	<text x="90.72" y="68.53" style="font-family:'Century Gothic';font-size:59.94px;fill:#000000" text-anchor="end">.3</text>
	<line x1="135.68" y1="2032.56" x2="4320.00" y2="2032.56" style="stroke:#404040;stroke-width:4.32"/>
	<line x1="248.13" y1="2032.56" x2="248.13" y2="2062.53" style="stroke:#000000;stroke-width:4.32"/>
	<text x="248.13" y="2119.41" style="font-family:'Century Gothic';font-size:59.94px;fill:#000000" text-anchor="middle">-20</text>
	<line x1="1546.29" y1="2032.56" x2="1546.29" y2="2062.53" style="stroke:#000000;stroke-width:4.32"/>
	<text x="1546.29" y="2119.41" style="font-family:'Century Gothic';font-size:59.94px;fill:#000000" text-anchor="middle">0</text>
	<line x1="2844.45" y1="2032.56" x2="2844.45" y2="2062.53" style="stroke:#000000;stroke-width:4.32"/>
	<text x="2844.45" y="2119.41" style="font-family:'Century Gothic';font-size:59.94px;fill:#000000" text-anchor="middle">20</text>
	<line x1="4142.61" y1="2032.56" x2="4142.61" y2="2062.53" style="stroke:#000000;stroke-width:4.32"/>
	<text x="4142.61" y="2119.41" style="font-family:'Century Gothic';font-size:59.94px;fill:#000000" text-anchor="middle">40</text>
</svg>
