<?xml version="1.0" encoding="UTF-8" standalone="no"?>
<!-- This is a Stata 19.5 generated SVG file (http://www.stata.com) -->

<svg version="1.1" width="6.000in" height="3.000in" viewBox="0 0 4320 2160" xmlns="http://www.w3.org/2000/svg" xmlns:xlink="http://www.w3.org/1999/xlink">
	<desc>Stata Graph - g_event</desc>
	<rect x="0" y="0" width="4320" height="2160" style="fill:#EAF2F3;stroke:none"/>
	<rect x="0.00" y="0.00" width="4320.00" height="2160.00" style="fill:#FFFFFF"/>
	<rect x="2.16" y="2.16" width="4315.68" height="2155.68" style="fill:none;stroke:#FFFFFF;stroke-width:4.32"/>
	<rect x="156.74" y="0.00" width="4163.27" height="2032.56" style="fill:#FFFFFF"/>
	<rect x="158.90" y="2.16" width="4158.95" height="2028.24" style="fill:none;stroke:#FFFFFF;stroke-width:4.32"/>
	<line x1="156.74" y1="1985.04" x2="4320.00" y2="1985.04" style="stroke:#CCCCCC;stroke-width:6.48"/>
	<line x1="156.74" y1="1500.66" x2="4320.00" y2="1500.66" style="stroke:#CCCCCC;stroke-width:6.48"/>
	<line x1="156.74" y1="1016.28" x2="4320.00" y2="1016.28" style="stroke:#CCCCCC;stroke-width:6.48"/>
	<line x1="156.74" y1="531.90" x2="4320.00" y2="531.90" style="stroke:#CCCCCC;stroke-width:6.48"/>
	<line x1="156.74" y1="47.52" x2="4320.00" y2="47.52" style="stroke:#CCCCCC;stroke-width:6.48"/>
	<line x1="1528.07" y1="2032.56" x2="1528.07" y2="1989.36" style="stroke:#404040;stroke-width:6.48"/>
	<line x1="1528.07" y1="1967.76" x2="1528.07" y2="1924.56" style="stroke:#404040;stroke-width:6.48"/>
	<line x1="1528.07" y1="1902.96" x2="1528.07" y2="1859.76" style="stroke:#404040;stroke-width:6.48"/>
	<line x1="1528.07" y1="1838.16" x2="1528.07" y2="1794.96" style="stroke:#404040;stroke-width:6.48"/>
	<line x1="1528.07" y1="1773.36" x2="1528.07" y2="1730.16" style="stroke:#404040;stroke-width:6.48"/>
	<line x1="1528.07" y1="1708.56" x2="1528.07" y2="1665.36" style="stroke:#404040;stroke-width:6.48"/>
	<line x1="1528.07" y1="1643.76" x2="1528.07" y2="1600.56" style="stroke:#404040;stroke-width:6.48"/>
	<line x1="1528.07" y1="1578.96" x2="1528.07" y2="1535.76" style="stroke:#404040;stroke-width:6.48"/>
	<line x1="1528.07" y1="1514.16" x2="1528.07" y2="1470.96" style="stroke:#404040;stroke-width:6.48"/>
	<line x1="1528.07" y1="1449.36" x2="1528.07" y2="1406.16" style="stroke:#404040;stroke-width:6.48"/>
	<line x1="1528.07" y1="1384.56" x2="1528.07" y2="1341.36" style="stroke:#404040;stroke-width:6.48"/>
	<line x1="1528.07" y1="1319.76" x2="1528.07" y2="1276.56" style="stroke:#404040;stroke-width:6.48"/>
	<line x1="1528.07" y1="1254.96" x2="1528.07" y2="1211.76" style="stroke:#404040;stroke-width:6.48"/>
	<line x1="1528.07" y1="1190.16" x2="1528.07" y2="1146.96" style="stroke:#404040;stroke-width:6.48"/>
	<line x1="1528.07" y1="1125.36" x2="1528.07" y2="1082.16" style="stroke:#404040;stroke-width:6.48"/>
	<line x1="1528.07" y1="1060.56" x2="1528.07" y2="1017.36" style="stroke:#404040;stroke-width:6.48"/>
	<line x1="1528.07" y1="995.76" x2="1528.07" y2="952.56" style="stroke:#404040;stroke-width:6.48"/>
	<line x1="1528.07" y1="930.96" x2="1528.07" y2="887.76" style="stroke:#404040;stroke-width:6.48"/>
	<line x1="1528.07" y1="866.16" x2="1528.07" y2="822.96" style="stroke:#404040;stroke-width:6.48"/>
	<line x1="1528.07" y1="801.36" x2="1528.07" y2="758.16" style="stroke:#404040;stroke-width:6.48"/>
	<line x1="1528.07" y1="736.56" x2="1528.07" y2="693.36" style="stroke:#404040;stroke-width:6.48"/>
	<line x1="1528.07" y1="671.76" x2="1528.07" y2="628.56" style="stroke:#404040;stroke-width:6.48"/>
	<line x1="1528.07" y1="606.96" x2="1528.07" y2="563.76" style="stroke:#404040;stroke-width:6.48"/>
	<line x1="1528.07" y1="542.16" x2="1528.07" y2="498.96" style="stroke:#404040;stroke-width:6.48"/>
	<line x1="1528.07" y1="477.36" x2="1528.07" y2="434.16" style="stroke:#404040;stroke-width:6.48"/>
	<line x1="1528.07" y1="412.56" x2="1528.07" y2="369.36" style="stroke:#404040;stroke-width:6.48"/>
	<line x1="1528.07" y1="347.76" x2="1528.07" y2="304.56" style="stroke:#404040;stroke-width:6.48"/>
	<line x1="1528.07" y1="282.96" x2="1528.07" y2="239.76" style="stroke:#404040;stroke-width:6.48"/>
	<line x1="1528.07" y1="218.16" x2="1528.07" y2="174.96" style="stroke:#404040;stroke-width:6.48"/>
	<line x1="1528.07" y1="153.36" x2="1528.07" y2="110.16" style="stroke:#404040;stroke-width:6.48"/>
	<line x1="1528.07" y1="88.56" x2="1528.07" y2="45.36" style="stroke:#404040;stroke-width:6.48"/>
	<line x1="1528.07" y1="23.76" x2="1528.07" y2="0.00" style="stroke:#404040;stroke-width:6.48"/>
	<line x1="156.74" y1="1500.66" x2="4320.00" y2="1500.66" style="stroke:#404040;stroke-width:6.48"/>
	<line x1="204.26" y1="1428.44" x2="204.26" y2="1637.55" style="stroke:#E397A0;stroke-width:6.48"/>
	<line x1="187.79" y1="1637.55" x2="220.73" y2="1637.55" stroke-linecap="round" style="stroke:#E397A0;stroke-width:6.48"/>
	<line x1="187.79" y1="1428.44" x2="220.73" y2="1428.44" stroke-linecap="round" style="stroke:#E397A0;stroke-width:6.48"/>
	<line x1="268.79" y1="1437.21" x2="268.79" y2="1643.76" style="stroke:#E397A0;stroke-width:6.48"/>
	<line x1="252.32" y1="1643.76" x2="285.26" y2="1643.76" stroke-linecap="round" style="stroke:#E397A0;stroke-width:6.48"/>
	<line x1="252.32" y1="1437.21" x2="285.26" y2="1437.21" stroke-linecap="round" style="stroke:#E397A0;stroke-width:6.48"/>
	<line x1="333.45" y1="1409.40" x2="333.45" y2="1611.50" style="stroke:#E397A0;stroke-width:6.48"/>
	<line x1="316.98" y1="1611.50" x2="349.92" y2="1611.50" stroke-linecap="round" style="stroke:#E397A0;stroke-width:6.48"/>
	<line x1="316.98" y1="1409.40" x2="349.92" y2="1409.40" stroke-linecap="round" style="stroke:#E397A0;stroke-width:6.48"/>
	<line x1="397.98" y1="1441.80" x2="397.98" y2="1655.10" style="stroke:#E397A0;stroke-width:6.48"/>
	<line x1="381.51" y1="1655.10" x2="414.45" y2="1655.10" stroke-linecap="round" style="stroke:#E397A0;stroke-width:6.48"/>
	<line x1="381.51" y1="1441.80" x2="414.45" y2="1441.80" stroke-linecap="round" style="stroke:#E397A0;stroke-width:6.48"/>
	<line x1="462.51" y1="1443.55" x2="462.51" y2="1680.08" style="stroke:#E397A0;stroke-width:6.48"/>
	<line x1="446.04" y1="1680.08" x2="478.98" y2="1680.08" stroke-linecap="round" style="stroke:#E397A0;stroke-width:6.48"/>
	<line x1="446.04" y1="1443.55" x2="478.98" y2="1443.55" stroke-linecap="round" style="stroke:#E397A0;stroke-width:6.48"/>
	<line x1="527.17" y1="1412.91" x2="527.17" y2="1642.01" style="stroke:#E397A0;stroke-width:6.48"/>
	<line x1="510.71" y1="1642.01" x2="543.65" y2="1642.01" stroke-linecap="round" style="stroke:#E397A0;stroke-width:6.48"/>
	<line x1="510.71" y1="1412.91" x2="543.65" y2="1412.91" stroke-linecap="round" style="stroke:#E397A0;stroke-width:6.48"/>
	<line x1="591.71" y1="1392.53" x2="591.71" y2="1572.89" style="stroke:#E397A0;stroke-width:6.48"/>
	<line x1="575.24" y1="1572.89" x2="608.17" y2="1572.89" stroke-linecap="round" style="stroke:#E397A0;stroke-width:6.48"/>
	<line x1="575.24" y1="1392.53" x2="608.17" y2="1392.53" stroke-linecap="round" style="stroke:#E397A0;stroke-width:6.48"/>
	<line x1="656.24" y1="1382.67" x2="656.24" y2="1555.88" style="stroke:#E397A0;stroke-width:6.48"/>
	<line x1="639.77" y1="1555.88" x2="672.71" y2="1555.88" stroke-linecap="round" style="stroke:#E397A0;stroke-width:6.48"/>
	<line x1="639.77" y1="1382.67" x2="672.71" y2="1382.67" stroke-linecap="round" style="stroke:#E397A0;stroke-width:6.48"/>
	<line x1="720.90" y1="1382.54" x2="720.90" y2="1558.17" style="stroke:#E397A0;stroke-width:6.48"/>
	<line x1="704.43" y1="1558.17" x2="737.37" y2="1558.17" stroke-linecap="round" style="stroke:#E397A0;stroke-width:6.48"/>
	<line x1="704.43" y1="1382.54" x2="737.37" y2="1382.54" stroke-linecap="round" style="stroke:#E397A0;stroke-width:6.48"/>
	<line x1="785.43" y1="1427.36" x2="785.43" y2="1611.90" style="stroke:#E397A0;stroke-width:6.48"/>
	<line x1="768.96" y1="1611.90" x2="801.90" y2="1611.90" stroke-linecap="round" style="stroke:#E397A0;stroke-width:6.48"/>
	<line x1="768.96" y1="1427.36" x2="801.90" y2="1427.36" stroke-linecap="round" style="stroke:#E397A0;stroke-width:6.48"/>
	<line x1="849.96" y1="1430.05" x2="849.96" y2="1615.14" style="stroke:#E397A0;stroke-width:6.48"/>
	<line x1="833.49" y1="1615.14" x2="866.43" y2="1615.14" stroke-linecap="round" style="stroke:#E397A0;stroke-width:6.48"/>
	<line x1="833.49" y1="1430.05" x2="866.43" y2="1430.05" stroke-linecap="round" style="stroke:#E397A0;stroke-width:6.48"/>
	<line x1="914.63" y1="1527.26" x2="914.63" y2="1724.36" style="stroke:#E397A0;stroke-width:6.48"/>
	<line x1="898.16" y1="1724.36" x2="931.10" y2="1724.36" stroke-linecap="round" style="stroke:#E397A0;stroke-width:6.48"/>
	<line x1="898.16" y1="1527.26" x2="931.10" y2="1527.26" stroke-linecap="round" style="stroke:#E397A0;stroke-width:6.48"/>
	<line x1="979.16" y1="1436.67" x2="979.16" y2="1654.02" style="stroke:#E397A0;stroke-width:6.48"/>
	<line x1="962.69" y1="1654.02" x2="995.63" y2="1654.02" stroke-linecap="round" style="stroke:#E397A0;stroke-width:6.48"/>
	<line x1="962.69" y1="1436.67" x2="995.63" y2="1436.67" stroke-linecap="round" style="stroke:#E397A0;stroke-width:6.48"/>
	<line x1="1043.69" y1="1450.30" x2="1043.69" y2="1664.28" style="stroke:#E397A0;stroke-width:6.48"/>
	<line x1="1027.21" y1="1664.28" x2="1060.16" y2="1664.28" stroke-linecap="round" style="stroke:#E397A0;stroke-width:6.48"/>
	<line x1="1027.21" y1="1450.30" x2="1060.16" y2="1450.30" stroke-linecap="round" style="stroke:#E397A0;stroke-width:6.48"/>
	<line x1="1108.35" y1="1484.33" x2="1108.35" y2="1688.04" style="stroke:#E397A0;stroke-width:6.48"/>
	<line x1="1091.88" y1="1688.04" x2="1124.82" y2="1688.04" stroke-linecap="round" style="stroke:#E397A0;stroke-width:6.48"/>
	<line x1="1091.88" y1="1484.33" x2="1124.82" y2="1484.33" stroke-linecap="round" style="stroke:#E397A0;stroke-width:6.48"/>
	<line x1="1172.88" y1="1522.94" x2="1172.88" y2="1718.01" style="stroke:#E397A0;stroke-width:6.48"/>
	<line x1="1156.41" y1="1718.01" x2="1189.35" y2="1718.01" stroke-linecap="round" style="stroke:#E397A0;stroke-width:6.48"/>
	<line x1="1156.41" y1="1522.94" x2="1189.35" y2="1522.94" stroke-linecap="round" style="stroke:#E397A0;stroke-width:6.48"/>
	<line x1="1237.41" y1="1497.29" x2="1237.41" y2="1706.00" style="stroke:#E397A0;stroke-width:6.48"/>
	<line x1="1220.94" y1="1706.00" x2="1253.88" y2="1706.00" stroke-linecap="round" style="stroke:#E397A0;stroke-width:6.48"/>
	<line x1="1220.94" y1="1497.29" x2="1253.88" y2="1497.29" stroke-linecap="round" style="stroke:#E397A0;stroke-width:6.48"/>
	<line x1="1302.08" y1="1476.50" x2="1302.08" y2="1675.89" style="stroke:#E397A0;stroke-width:6.48"/>
	<line x1="1285.61" y1="1675.89" x2="1318.55" y2="1675.89" stroke-linecap="round" style="stroke:#E397A0;stroke-width:6.48"/>
	<line x1="1285.61" y1="1476.50" x2="1318.55" y2="1476.50" stroke-linecap="round" style="stroke:#E397A0;stroke-width:6.48"/>
	<line x1="1366.61" y1="1404.14" x2="1366.61" y2="1566.00" style="stroke:#E397A0;stroke-width:6.48"/>
	<line x1="1350.14" y1="1566.00" x2="1383.08" y2="1566.00" stroke-linecap="round" style="stroke:#E397A0;stroke-width:6.48"/>
	<line x1="1350.14" y1="1404.14" x2="1383.08" y2="1404.14" stroke-linecap="round" style="stroke:#E397A0;stroke-width:6.48"/>
	<line x1="1431.14" y1="1368.36" x2="1431.14" y2="1524.96" style="stroke:#E397A0;stroke-width:6.48"/>
	<line x1="1414.67" y1="1524.96" x2="1447.61" y2="1524.96" stroke-linecap="round" style="stroke:#E397A0;stroke-width:6.48"/>
	<line x1="1414.67" y1="1368.36" x2="1447.61" y2="1368.36" stroke-linecap="round" style="stroke:#E397A0;stroke-width:6.48"/>
	<line x1="1560.33" y1="1359.86" x2="1560.33" y2="1557.50" style="stroke:#E397A0;stroke-width:6.48"/>
	<line x1="1543.86" y1="1557.50" x2="1576.80" y2="1557.50" stroke-linecap="round" style="stroke:#E397A0;stroke-width:6.48"/>
	<line x1="1543.86" y1="1359.86" x2="1576.80" y2="1359.86" stroke-linecap="round" style="stroke:#E397A0;stroke-width:6.48"/>
	<line x1="1624.86" y1="1285.34" x2="1624.86" y2="1531.98" style="stroke:#E397A0;stroke-width:6.48"/>
	<line x1="1608.39" y1="1531.98" x2="1641.33" y2="1531.98" stroke-linecap="round" style="stroke:#E397A0;stroke-width:6.48"/>
	<line x1="1608.39" y1="1285.34" x2="1641.33" y2="1285.34" stroke-linecap="round" style="stroke:#E397A0;stroke-width:6.48"/>
	<line x1="1689.53" y1="1287.36" x2="1689.53" y2="1548.18" style="stroke:#E397A0;stroke-width:6.48"/>
	<line x1="1673.06" y1="1548.18" x2="1706.00" y2="1548.18" stroke-linecap="round" style="stroke:#E397A0;stroke-width:6.48"/>
	<line x1="1673.06" y1="1287.36" x2="1706.00" y2="1287.36" stroke-linecap="round" style="stroke:#E397A0;stroke-width:6.48"/>
	<line x1="1754.06" y1="1287.90" x2="1754.06" y2="1537.38" style="stroke:#E397A0;stroke-width:6.48"/>
	<line x1="1737.59" y1="1537.38" x2="1770.53" y2="1537.38" stroke-linecap="round" style="stroke:#E397A0;stroke-width:6.48"/>
	<line x1="1737.59" y1="1287.90" x2="1770.53" y2="1287.90" stroke-linecap="round" style="stroke:#E397A0;stroke-width:6.48"/>
	<line x1="1818.59" y1="1251.72" x2="1818.59" y2="1540.76" style="stroke:#E397A0;stroke-width:6.48"/>
	<line x1="1802.12" y1="1540.76" x2="1835.06" y2="1540.76" stroke-linecap="round" style="stroke:#E397A0;stroke-width:6.48"/>
	<line x1="1802.12" y1="1251.72" x2="1835.06" y2="1251.72" stroke-linecap="round" style="stroke:#E397A0;stroke-width:6.48"/>
	<line x1="1883.25" y1="1211.49" x2="1883.25" y2="1512.68" style="stroke:#E397A0;stroke-width:6.48"/>
	<line x1="1866.78" y1="1512.68" x2="1899.72" y2="1512.68" stroke-linecap="round" style="stroke:#E397A0;stroke-width:6.48"/>
	<line x1="1866.78" y1="1211.49" x2="1899.72" y2="1211.49" stroke-linecap="round" style="stroke:#E397A0;stroke-width:6.48"/>
	<line x1="1947.78" y1="1136.03" x2="1947.78" y2="1467.45" style="stroke:#E397A0;stroke-width:6.48"/>
	<line x1="1931.31" y1="1467.45" x2="1964.25" y2="1467.45" stroke-linecap="round" style="stroke:#E397A0;stroke-width:6.48"/>
	<line x1="1931.31" y1="1136.03" x2="1964.25" y2="1136.03" stroke-linecap="round" style="stroke:#E397A0;stroke-width:6.48"/>
	<line x1="2012.31" y1="1127.66" x2="2012.31" y2="1464.75" style="stroke:#E397A0;stroke-width:6.48"/>
	<line x1="1995.84" y1="1464.75" x2="2028.78" y2="1464.75" stroke-linecap="round" style="stroke:#E397A0;stroke-width:6.48"/>
	<line x1="1995.84" y1="1127.66" x2="2028.78" y2="1127.66" stroke-linecap="round" style="stroke:#E397A0;stroke-width:6.48"/>
	<line x1="2076.98" y1="1090.53" x2="2076.98" y2="1449.90" style="stroke:#E397A0;stroke-width:6.48"/>
	<line x1="2060.51" y1="1449.90" x2="2093.45" y2="1449.90" stroke-linecap="round" style="stroke:#E397A0;stroke-width:6.48"/>
	<line x1="2060.51" y1="1090.53" x2="2093.45" y2="1090.53" stroke-linecap="round" style="stroke:#E397A0;stroke-width:6.48"/>
	<line x1="2141.51" y1="1049.49" x2="2141.51" y2="1407.24" style="stroke:#E397A0;stroke-width:6.48"/>
	<line x1="2125.04" y1="1407.24" x2="2157.98" y2="1407.24" stroke-linecap="round" style="stroke:#E397A0;stroke-width:6.48"/>
	<line x1="2125.04" y1="1049.49" x2="2157.98" y2="1049.49" stroke-linecap="round" style="stroke:#E397A0;stroke-width:6.48"/>
	<line x1="2206.04" y1="995.36" x2="2206.04" y2="1329.21" style="stroke:#E397A0;stroke-width:6.48"/>
	<line x1="2189.57" y1="1329.21" x2="2222.51" y2="1329.21" stroke-linecap="round" style="stroke:#E397A0;stroke-width:6.48"/>
	<line x1="2189.57" y1="995.36" x2="2222.51" y2="995.36" stroke-linecap="round" style="stroke:#E397A0;stroke-width:6.48"/>
	<line x1="2270.70" y1="947.03" x2="2270.70" y2="1270.35" style="stroke:#E397A0;stroke-width:6.48"/>
	<line x1="2254.23" y1="1270.35" x2="2287.17" y2="1270.35" stroke-linecap="round" style="stroke:#E397A0;stroke-width:6.48"/>
	<line x1="2254.23" y1="947.03" x2="2287.17" y2="947.03" stroke-linecap="round" style="stroke:#E397A0;stroke-width:6.48"/>
	<line x1="2335.23" y1="891.00" x2="2335.23" y2="1262.93" style="stroke:#E397A0;stroke-width:6.48"/>
	<line x1="2318.76" y1="1262.93" x2="2351.70" y2="1262.93" stroke-linecap="round" style="stroke:#E397A0;stroke-width:6.48"/>
	<line x1="2318.76" y1="891.00" x2="2351.70" y2="891.00" stroke-linecap="round" style="stroke:#E397A0;stroke-width:6.48"/>
	<line x1="2399.76" y1="892.08" x2="2399.76" y2="1289.39" style="stroke:#E397A0;stroke-width:6.48"/>
	<line x1="2383.29" y1="1289.39" x2="2416.23" y2="1289.39" stroke-linecap="round" style="stroke:#E397A0;stroke-width:6.48"/>
	<line x1="2383.29" y1="892.08" x2="2416.23" y2="892.08" stroke-linecap="round" style="stroke:#E397A0;stroke-width:6.48"/>
	<line x1="2464.43" y1="890.60" x2="2464.43" y2="1299.92" style="stroke:#E397A0;stroke-width:6.48"/>
	<line x1="2447.96" y1="1299.92" x2="2480.90" y2="1299.92" stroke-linecap="round" style="stroke:#E397A0;stroke-width:6.48"/>
	<line x1="2447.96" y1="890.60" x2="2480.90" y2="890.60" stroke-linecap="round" style="stroke:#E397A0;stroke-width:6.48"/>
	<line x1="2528.96" y1="910.17" x2="2528.96" y2="1302.21" style="stroke:#E397A0;stroke-width:6.48"/>
	<line x1="2512.49" y1="1302.21" x2="2545.43" y2="1302.21" stroke-linecap="round" style="stroke:#E397A0;stroke-width:6.48"/>
	<line x1="2512.49" y1="910.17" x2="2545.43" y2="910.17" stroke-linecap="round" style="stroke:#E397A0;stroke-width:6.48"/>
	<line x1="2593.49" y1="911.39" x2="2593.49" y2="1331.91" style="stroke:#E397A0;stroke-width:6.48"/>
	<line x1="2577.02" y1="1331.91" x2="2609.96" y2="1331.91" stroke-linecap="round" style="stroke:#E397A0;stroke-width:6.48"/>
	<line x1="2577.02" y1="911.39" x2="2609.96" y2="911.39" stroke-linecap="round" style="stroke:#E397A0;stroke-width:6.48"/>
	<line x1="2658.15" y1="899.23" x2="2658.15" y2="1369.04" style="stroke:#E397A0;stroke-width:6.48"/>
	<line x1="2641.68" y1="1369.04" x2="2674.62" y2="1369.04" stroke-linecap="round" style="stroke:#E397A0;stroke-width:6.48"/>
	<line x1="2641.68" y1="899.23" x2="2674.62" y2="899.23" stroke-linecap="round" style="stroke:#E397A0;stroke-width:6.48"/>
	<line x1="2722.68" y1="879.80" x2="2722.68" y2="1374.71" style="stroke:#E397A0;stroke-width:6.48"/>
	<line x1="2706.21" y1="1374.71" x2="2739.15" y2="1374.71" stroke-linecap="round" style="stroke:#E397A0;stroke-width:6.48"/>
	<line x1="2706.21" y1="879.80" x2="2739.15" y2="879.80" stroke-linecap="round" style="stroke:#E397A0;stroke-width:6.48"/>
	<line x1="2787.21" y1="845.23" x2="2787.21" y2="1360.67" style="stroke:#E397A0;stroke-width:6.48"/>
	<line x1="2770.74" y1="1360.67" x2="2803.68" y2="1360.67" stroke-linecap="round" style="stroke:#E397A0;stroke-width:6.48"/>
	<line x1="2770.74" y1="845.23" x2="2803.68" y2="845.23" stroke-linecap="round" style="stroke:#E397A0;stroke-width:6.48"/>
	<line x1="2851.88" y1="855.36" x2="2851.88" y2="1387.53" style="stroke:#E397A0;stroke-width:6.48"/>
	<line x1="2835.41" y1="1387.53" x2="2868.35" y2="1387.53" stroke-linecap="round" style="stroke:#E397A0;stroke-width:6.48"/>
	<line x1="2835.41" y1="855.36" x2="2868.35" y2="855.36" stroke-linecap="round" style="stroke:#E397A0;stroke-width:6.48"/>
	<line x1="2916.41" y1="857.25" x2="2916.41" y2="1380.65" style="stroke:#E397A0;stroke-width:6.48"/>
	<line x1="2899.94" y1="1380.65" x2="2932.88" y2="1380.65" stroke-linecap="round" style="stroke:#E397A0;stroke-width:6.48"/>
	<line x1="2899.94" y1="857.25" x2="2932.88" y2="857.25" stroke-linecap="round" style="stroke:#E397A0;stroke-width:6.48"/>
	<line x1="2980.94" y1="809.46" x2="2980.94" y2="1325.43" style="stroke:#E397A0;stroke-width:6.48"/>
	<line x1="2964.47" y1="1325.43" x2="2997.41" y2="1325.43" stroke-linecap="round" style="stroke:#E397A0;stroke-width:6.48"/>
	<line x1="2964.47" y1="809.46" x2="2997.41" y2="809.46" stroke-linecap="round" style="stroke:#E397A0;stroke-width:6.48"/>
	<line x1="3045.60" y1="743.98" x2="3045.60" y2="1257.26" style="stroke:#E397A0;stroke-width:6.48"/>
	<line x1="3029.13" y1="1257.26" x2="3062.07" y2="1257.26" stroke-linecap="round" style="stroke:#E397A0;stroke-width:6.48"/>
	<line x1="3029.13" y1="743.98" x2="3062.07" y2="743.98" stroke-linecap="round" style="stroke:#E397A0;stroke-width:6.48"/>
	<line x1="3110.13" y1="732.65" x2="3110.13" y2="1291.95" style="stroke:#E397A0;stroke-width:6.48"/>
	<line x1="3093.66" y1="1291.95" x2="3126.60" y2="1291.95" stroke-linecap="round" style="stroke:#E397A0;stroke-width:6.48"/>
	<line x1="3093.66" y1="732.65" x2="3126.60" y2="732.65" stroke-linecap="round" style="stroke:#E397A0;stroke-width:6.48"/>
	<line x1="3174.66" y1="703.08" x2="3174.66" y2="1296.00" style="stroke:#E397A0;stroke-width:6.48"/>
	<line x1="3158.19" y1="1296.00" x2="3191.13" y2="1296.00" stroke-linecap="round" style="stroke:#E397A0;stroke-width:6.48"/>
	<line x1="3158.19" y1="703.08" x2="3191.13" y2="703.08" stroke-linecap="round" style="stroke:#E397A0;stroke-width:6.48"/>
	<line x1="3239.33" y1="675.81" x2="3239.33" y2="1279.67" style="stroke:#E397A0;stroke-width:6.48"/>
	<line x1="3222.86" y1="1279.67" x2="3255.80" y2="1279.67" stroke-linecap="round" style="stroke:#E397A0;stroke-width:6.48"/>
	<line x1="3222.86" y1="675.81" x2="3255.80" y2="675.81" stroke-linecap="round" style="stroke:#E397A0;stroke-width:6.48"/>
	<line x1="3303.86" y1="714.42" x2="3303.86" y2="1307.47" style="stroke:#E397A0;stroke-width:6.48"/>
	<line x1="3287.39" y1="1307.47" x2="3320.33" y2="1307.47" stroke-linecap="round" style="stroke:#E397A0;stroke-width:6.48"/>
	<line x1="3287.39" y1="714.42" x2="3320.33" y2="714.42" stroke-linecap="round" style="stroke:#E397A0;stroke-width:6.48"/>
	<line x1="3368.39" y1="693.77" x2="3368.39" y2="1299.24" style="stroke:#E397A0;stroke-width:6.48"/>
	<line x1="3351.92" y1="1299.24" x2="3384.86" y2="1299.24" stroke-linecap="round" style="stroke:#E397A0;stroke-width:6.48"/>
	<line x1="3351.92" y1="693.77" x2="3384.86" y2="693.77" stroke-linecap="round" style="stroke:#E397A0;stroke-width:6.48"/>
	<line x1="3433.05" y1="600.21" x2="3433.05" y2="1220.94" style="stroke:#E397A0;stroke-width:6.48"/>
	<line x1="3416.58" y1="1220.94" x2="3449.52" y2="1220.94" stroke-linecap="round" style="stroke:#E397A0;stroke-width:6.48"/>
	<line x1="3416.58" y1="600.21" x2="3449.52" y2="600.21" stroke-linecap="round" style="stroke:#E397A0;stroke-width:6.48"/>
	<line x1="3497.58" y1="589.14" x2="3497.58" y2="1224.59" style="stroke:#E397A0;stroke-width:6.48"/>
	<line x1="3481.11" y1="1224.59" x2="3514.05" y2="1224.59" stroke-linecap="round" style="stroke:#E397A0;stroke-width:6.48"/>
	<line x1="3481.11" y1="589.14" x2="3514.05" y2="589.14" stroke-linecap="round" style="stroke:#E397A0;stroke-width:6.48"/>
	<line x1="3562.11" y1="594.81" x2="3562.11" y2="1238.63" style="stroke:#E397A0;stroke-width:6.48"/>
	<line x1="3545.64" y1="1238.63" x2="3578.58" y2="1238.63" stroke-linecap="round" style="stroke:#E397A0;stroke-width:6.48"/>
	<line x1="3545.64" y1="594.81" x2="3578.58" y2="594.81" stroke-linecap="round" style="stroke:#E397A0;stroke-width:6.48"/>
	<line x1="3626.78" y1="557.55" x2="3626.78" y2="1204.74" style="stroke:#E397A0;stroke-width:6.48"/>
	<line x1="3610.31" y1="1204.74" x2="3643.25" y2="1204.74" stroke-linecap="round" style="stroke:#E397A0;stroke-width:6.48"/>
	<line x1="3610.31" y1="557.55" x2="3643.25" y2="557.55" stroke-linecap="round" style="stroke:#E397A0;stroke-width:6.48"/>
	<line x1="3691.31" y1="521.10" x2="3691.31" y2="1178.82" style="stroke:#E397A0;stroke-width:6.48"/>
	<line x1="3674.84" y1="1178.82" x2="3707.78" y2="1178.82" stroke-linecap="round" style="stroke:#E397A0;stroke-width:6.48"/>
	<line x1="3674.84" y1="521.10" x2="3707.78" y2="521.10" stroke-linecap="round" style="stroke:#E397A0;stroke-width:6.48"/>
	<line x1="3755.84" y1="434.84" x2="3755.84" y2="1061.78" style="stroke:#E397A0;stroke-width:6.48"/>
	<line x1="3739.37" y1="1061.78" x2="3772.31" y2="1061.78" stroke-linecap="round" style="stroke:#E397A0;stroke-width:6.48"/>
	<line x1="3739.37" y1="434.84" x2="3772.31" y2="434.84" stroke-linecap="round" style="stroke:#E397A0;stroke-width:6.48"/>
	<line x1="3820.50" y1="405.00" x2="3820.50" y2="1033.29" style="stroke:#E397A0;stroke-width:6.48"/>
	<line x1="3804.03" y1="1033.29" x2="3836.97" y2="1033.29" stroke-linecap="round" style="stroke:#E397A0;stroke-width:6.48"/>
	<line x1="3804.03" y1="405.00" x2="3836.97" y2="405.00" stroke-linecap="round" style="stroke:#E397A0;stroke-width:6.48"/>
	<line x1="3885.03" y1="357.75" x2="3885.03" y2="1022.36" style="stroke:#E397A0;stroke-width:6.48"/>
	<line x1="3868.56" y1="1022.36" x2="3901.50" y2="1022.36" stroke-linecap="round" style="stroke:#E397A0;stroke-width:6.48"/>
	<line x1="3868.56" y1="357.75" x2="3901.50" y2="357.75" stroke-linecap="round" style="stroke:#E397A0;stroke-width:6.48"/>
	<line x1="3949.56" y1="370.85" x2="3949.56" y2="1082.84" style="stroke:#E397A0;stroke-width:6.48"/>
	<line x1="3933.09" y1="1082.84" x2="3966.03" y2="1082.84" stroke-linecap="round" style="stroke:#E397A0;stroke-width:6.48"/>
	<line x1="3933.09" y1="370.85" x2="3966.03" y2="370.85" stroke-linecap="round" style="stroke:#E397A0;stroke-width:6.48"/>
	<line x1="4014.23" y1="356.13" x2="4014.23" y2="1074.73" style="stroke:#E397A0;stroke-width:6.48"/>
	<line x1="3997.76" y1="1074.73" x2="4030.70" y2="1074.73" stroke-linecap="round" style="stroke:#E397A0;stroke-width:6.48"/>
	<line x1="3997.76" y1="356.13" x2="4030.70" y2="356.13" stroke-linecap="round" style="stroke:#E397A0;stroke-width:6.48"/>
	<line x1="4078.76" y1="427.68" x2="4078.76" y2="1147.77" style="stroke:#E397A0;stroke-width:6.48"/>
	<line x1="4062.29" y1="1147.77" x2="4095.23" y2="1147.77" stroke-linecap="round" style="stroke:#E397A0;stroke-width:6.48"/>
	<line x1="4062.29" y1="427.68" x2="4095.23" y2="427.68" stroke-linecap="round" style="stroke:#E397A0;stroke-width:6.48"/>
	<line x1="4143.29" y1="368.28" x2="4143.29" y2="1116.72" style="stroke:#E397A0;stroke-width:6.48"/>
	<line x1="4126.81" y1="1116.72" x2="4159.76" y2="1116.72" stroke-linecap="round" style="stroke:#E397A0;stroke-width:6.48"/>
	<line x1="4126.81" y1="368.28" x2="4159.76" y2="368.28" stroke-linecap="round" style="stroke:#E397A0;stroke-width:6.48"/>
	<line x1="4207.95" y1="317.65" x2="4207.95" y2="1067.04" style="stroke:#E397A0;stroke-width:6.48"/>
	<line x1="4191.48" y1="1067.04" x2="4224.42" y2="1067.04" stroke-linecap="round" style="stroke:#E397A0;stroke-width:6.48"/>
	<line x1="4191.48" y1="317.65" x2="4224.42" y2="317.65" stroke-linecap="round" style="stroke:#E397A0;stroke-width:6.48"/>
	<line x1="4272.48" y1="230.17" x2="4272.48" y2="984.29" style="stroke:#E397A0;stroke-width:6.48"/>
	<line x1="4256.01" y1="984.29" x2="4288.95" y2="984.29" stroke-linecap="round" style="stroke:#E397A0;stroke-width:6.48"/>
	<line x1="4256.01" y1="230.17" x2="4288.95" y2="230.17" stroke-linecap="round" style="stroke:#E397A0;stroke-width:6.48"/>
	<path d=" M204.12 1533.06 L268.79 1540.49 L333.32 1510.52 L397.85 1548.59 L462.51 1561.82 L527.04 1527.53 L591.57 1482.71 L656.24 1469.34 L720.77 1470.42 L785.30 1519.70 L849.96 1522.67 L914.49 1625.94 L979.02 1545.35 L1043.69 1557.36 L1108.21 1586.25 L1172.74 1620.54 L1237.41 1601.64 L1301.94 1576.26 L1366.47 1485.14 L1431.14 1446.80 L1495.67 1500.66 L1560.20 1458.68 L1624.86 1408.73 L1689.39 1417.91 L1753.92 1412.78 L1818.59 1396.30 L1883.12 1362.15 L1947.65 1301.80 L2012.31 1296.27 L2076.84 1270.35 L2141.37 1228.50 L2206.04 1162.35 L2270.57 1108.76 L2335.09 1077.03 L2399.76 1090.80 L2464.29 1095.39 L2528.82 1106.33 L2593.49 1121.71 L2658.02 1134.14 L2722.55 1127.25 L2787.21 1103.09 L2851.74 1121.58 L2916.27 1119.02 L2980.94 1067.45 L3045.47 1000.62 L3110.00 1012.37 L3174.66 999.68 L3239.19 977.81 L3303.72 1011.02 L3368.39 996.57 L3432.92 910.58 L3497.45 906.93 L3562.11 916.79 L3626.64 881.28 L3691.17 850.10 L3755.84 748.31 L3820.37 719.28 L3884.90 690.12 L3949.56 726.84 L4014.09 715.50 L4078.62 787.72 L4143.29 742.50 L4207.81 692.42 L4272.35 607.37" stroke-linejoin="round" style="fill:none;stroke:#83082A;stroke-width:9.72"/>
	<circle cx="204.12" cy="1533.06" r="8.91" style="fill:#83082A"/>
	<circle cx="204.12" cy="1533.06" r="5.67" style="fill:none;stroke:#83082A;stroke-width:6.48"/>
	<circle cx="268.79" cy="1540.49" r="8.91" style="fill:#83082A"/>
	<circle cx="268.79" cy="1540.49" r="5.67" style="fill:none;stroke:#83082A;stroke-width:6.48"/>
	<circle cx="333.32" cy="1510.52" r="8.91" style="fill:#83082A"/>
	<circle cx="333.32" cy="1510.52" r="5.67" style="fill:none;stroke:#83082A;stroke-width:6.48"/>
	<circle cx="397.85" cy="1548.59" r="8.91" style="fill:#83082A"/>
	<circle cx="397.85" cy="1548.59" r="5.67" style="fill:none;stroke:#83082A;stroke-width:6.48"/>
	<circle cx="462.51" cy="1561.82" r="8.91" style="fill:#83082A"/>
	<circle cx="462.51" cy="1561.82" r="5.67" style="fill:none;stroke:#83082A;stroke-width:6.48"/>
	<circle cx="527.04" cy="1527.53" r="8.91" style="fill:#83082A"/>
	<circle cx="527.04" cy="1527.53" r="5.67" style="fill:none;stroke:#83082A;stroke-width:6.48"/>
	<circle cx="591.57" cy="1482.71" r="8.91" style="fill:#83082A"/>
	<circle cx="591.57" cy="1482.71" r="5.67" style="fill:none;stroke:#83082A;stroke-width:6.48"/>
	<circle cx="656.24" cy="1469.34" r="8.91" style="fill:#83082A"/>
	<circle cx="656.24" cy="1469.34" r="5.67" style="fill:none;stroke:#83082A;stroke-width:6.48"/>
	<circle cx="720.77" cy="1470.42" r="8.91" style="fill:#83082A"/>
	<circle cx="720.77" cy="1470.42" r="5.67" style="fill:none;stroke:#83082A;stroke-width:6.48"/>
	<circle cx="785.30" cy="1519.70" r="8.91" style="fill:#83082A"/>
	<circle cx="785.30" cy="1519.70" r="5.67" style="fill:none;stroke:#83082A;stroke-width:6.48"/>
	<circle cx="849.96" cy="1522.67" r="8.91" style="fill:#83082A"/>
	<circle cx="849.96" cy="1522.67" r="5.67" style="fill:none;stroke:#83082A;stroke-width:6.48"/>
	<circle cx="914.49" cy="1625.94" r="8.91" style="fill:#83082A"/>
	<circle cx="914.49" cy="1625.94" r="5.67" style="fill:none;stroke:#83082A;stroke-width:6.48"/>
	<circle cx="979.02" cy="1545.35" r="8.91" style="fill:#83082A"/>
	<circle cx="979.02" cy="1545.35" r="5.67" style="fill:none;stroke:#83082A;stroke-width:6.48"/>
	<circle cx="1043.69" cy="1557.36" r="8.91" style="fill:#83082A"/>
	<circle cx="1043.69" cy="1557.36" r="5.67" style="fill:none;stroke:#83082A;stroke-width:6.48"/>
	<circle cx="1108.21" cy="1586.25" r="8.91" style="fill:#83082A"/>
	<circle cx="1108.21" cy="1586.25" r="5.67" style="fill:none;stroke:#83082A;stroke-width:6.48"/>
	<circle cx="1172.74" cy="1620.54" r="8.91" style="fill:#83082A"/>
	<circle cx="1172.74" cy="1620.54" r="5.67" style="fill:none;stroke:#83082A;stroke-width:6.48"/>
	<circle cx="1237.41" cy="1601.64" r="8.91" style="fill:#83082A"/>
	<circle cx="1237.41" cy="1601.64" r="5.67" style="fill:none;stroke:#83082A;stroke-width:6.48"/>
	<circle cx="1301.94" cy="1576.26" r="8.91" style="fill:#83082A"/>
	<circle cx="1301.94" cy="1576.26" r="5.67" style="fill:none;stroke:#83082A;stroke-width:6.48"/>
	<circle cx="1366.47" cy="1485.14" r="8.91" style="fill:#83082A"/>
	<circle cx="1366.47" cy="1485.14" r="5.67" style="fill:none;stroke:#83082A;stroke-width:6.48"/>
	<circle cx="1431.14" cy="1446.80" r="8.91" style="fill:#83082A"/>
	<circle cx="1431.14" cy="1446.80" r="5.67" style="fill:none;stroke:#83082A;stroke-width:6.48"/>
	<circle cx="1495.67" cy="1500.66" r="8.91" style="fill:#83082A"/>
	<circle cx="1495.67" cy="1500.66" r="5.67" style="fill:none;stroke:#83082A;stroke-width:6.48"/>
	<circle cx="1560.20" cy="1458.68" r="8.91" style="fill:#83082A"/>
	<circle cx="1560.20" cy="1458.68" r="5.67" style="fill:none;stroke:#83082A;stroke-width:6.48"/>
	<circle cx="1624.86" cy="1408.73" r="8.91" style="fill:#83082A"/>
	<circle cx="1624.86" cy="1408.73" r="5.67" style="fill:none;stroke:#83082A;stroke-width:6.48"/>
	<circle cx="1689.39" cy="1417.91" r="8.91" style="fill:#83082A"/>
	<circle cx="1689.39" cy="1417.91" r="5.67" style="fill:none;stroke:#83082A;stroke-width:6.48"/>
	<circle cx="1753.92" cy="1412.78" r="8.91" style="fill:#83082A"/>
	<circle cx="1753.92" cy="1412.78" r="5.67" style="fill:none;stroke:#83082A;stroke-width:6.48"/>
	<circle cx="1818.59" cy="1396.30" r="8.91" style="fill:#83082A"/>
	<circle cx="1818.59" cy="1396.30" r="5.67" style="fill:none;stroke:#83082A;stroke-width:6.48"/>
	<circle cx="1883.12" cy="1362.15" r="8.91" style="fill:#83082A"/>
	<circle cx="1883.12" cy="1362.15" r="5.67" style="fill:none;stroke:#83082A;stroke-width:6.48"/>
	<circle cx="1947.65" cy="1301.80" r="8.91" style="fill:#83082A"/>
	<circle cx="1947.65" cy="1301.80" r="5.67" style="fill:none;stroke:#83082A;stroke-width:6.48"/>
	<circle cx="2012.31" cy="1296.27" r="8.91" style="fill:#83082A"/>
	<circle cx="2012.31" cy="1296.27" r="5.67" style="fill:none;stroke:#83082A;stroke-width:6.48"/>
	<circle cx="2076.84" cy="1270.35" r="8.91" style="fill:#83082A"/>
	<circle cx="2076.84" cy="1270.35" r="5.67" style="fill:none;stroke:#83082A;stroke-width:6.48"/>
	<circle cx="2141.37" cy="1228.50" r="8.91" style="fill:#83082A"/>
	<circle cx="2141.37" cy="1228.50" r="5.67" style="fill:none;stroke:#83082A;stroke-width:6.48"/>
	<circle cx="2206.04" cy="1162.35" r="8.91" style="fill:#83082A"/>
	<circle cx="2206.04" cy="1162.35" r="5.67" style="fill:none;stroke:#83082A;stroke-width:6.48"/>
	<circle cx="2270.57" cy="1108.76" r="8.91" style="fill:#83082A"/>
	<circle cx="2270.57" cy="1108.76" r="5.67" style="fill:none;stroke:#83082A;stroke-width:6.48"/>
	<circle cx="2335.09" cy="1077.03" r="8.91" style="fill:#83082A"/>
	<circle cx="2335.09" cy="1077.03" r="5.67" style="fill:none;stroke:#83082A;stroke-width:6.48"/>
	<circle cx="2399.76" cy="1090.80" r="8.91" style="fill:#83082A"/>
	<circle cx="2399.76" cy="1090.80" r="5.67" style="fill:none;stroke:#83082A;stroke-width:6.48"/>
	<circle cx="2464.29" cy="1095.39" r="8.91" style="fill:#83082A"/>
	<circle cx="2464.29" cy="1095.39" r="5.67" style="fill:none;stroke:#83082A;stroke-width:6.48"/>
	<circle cx="2528.82" cy="1106.33" r="8.91" style="fill:#83082A"/>
	<circle cx="2528.82" cy="1106.33" r="5.67" style="fill:none;stroke:#83082A;stroke-width:6.48"/>
	<circle cx="2593.49" cy="1121.71" r="8.91" style="fill:#83082A"/>
	<circle cx="2593.49" cy="1121.71" r="5.67" style="fill:none;stroke:#83082A;stroke-width:6.48"/>
	<circle cx="2658.02" cy="1134.14" r="8.91" style="fill:#83082A"/>
	<circle cx="2658.02" cy="1134.14" r="5.67" style="fill:none;stroke:#83082A;stroke-width:6.48"/>
	<circle cx="2722.55" cy="1127.25" r="8.91" style="fill:#83082A"/>
	<circle cx="2722.55" cy="1127.25" r="5.67" style="fill:none;stroke:#83082A;stroke-width:6.48"/>
	<circle cx="2787.21" cy="1103.09" r="8.91" style="fill:#83082A"/>
	<circle cx="2787.21" cy="1103.09" r="5.67" style="fill:none;stroke:#83082A;stroke-width:6.48"/>
	<circle cx="2851.74" cy="1121.58" r="8.91" style="fill:#83082A"/>
	<circle cx="2851.74" cy="1121.58" r="5.67" style="fill:none;stroke:#83082A;stroke-width:6.48"/>
	<circle cx="2916.27" cy="1119.02" r="8.91" style="fill:#83082A"/>
	<circle cx="2916.27" cy="1119.02" r="5.67" style="fill:none;stroke:#83082A;stroke-width:6.48"/>
	<circle cx="2980.94" cy="1067.45" r="8.91" style="fill:#83082A"/>
	<circle cx="2980.94" cy="1067.45" r="5.67" style="fill:none;stroke:#83082A;stroke-width:6.48"/>
	<circle cx="3045.47" cy="1000.62" r="8.91" style="fill:#83082A"/>
	<circle cx="3045.47" cy="1000.62" r="5.67" style="fill:none;stroke:#83082A;stroke-width:6.48"/>
	<circle cx="3110.00" cy="1012.37" r="8.91" style="fill:#83082A"/>
	<circle cx="3110.00" cy="1012.37" r="5.67" style="fill:none;stroke:#83082A;stroke-width:6.48"/>
	<circle cx="3174.66" cy="999.68" r="8.91" style="fill:#83082A"/>
	<circle cx="3174.66" cy="999.68" r="5.67" style="fill:none;stroke:#83082A;stroke-width:6.48"/>
	<circle cx="3239.19" cy="977.81" r="8.91" style="fill:#83082A"/>
	<circle cx="3239.19" cy="977.81" r="5.67" style="fill:none;stroke:#83082A;stroke-width:6.48"/>
	<circle cx="3303.72" cy="1011.02" r="8.91" style="fill:#83082A"/>
	<circle cx="3303.72" cy="1011.02" r="5.67" style="fill:none;stroke:#83082A;stroke-width:6.48"/>
	<circle cx="3368.39" cy="996.57" r="8.91" style="fill:#83082A"/>
	<circle cx="3368.39" cy="996.57" r="5.67" style="fill:none;stroke:#83082A;stroke-width:6.48"/>
	<circle cx="3432.92" cy="910.58" r="8.91" style="fill:#83082A"/>
	<circle cx="3432.92" cy="910.58" r="5.67" style="fill:none;stroke:#83082A;stroke-width:6.48"/>
	<circle cx="3497.45" cy="906.93" r="8.91" style="fill:#83082A"/>
	<circle cx="3497.45" cy="906.93" r="5.67" style="fill:none;stroke:#83082A;stroke-width:6.48"/>
	<circle cx="3562.11" cy="916.79" r="8.91" style="fill:#83082A"/>
	<circle cx="3562.11" cy="916.79" r="5.67" style="fill:none;stroke:#83082A;stroke-width:6.48"/>
	<circle cx="3626.64" cy="881.28" r="8.91" style="fill:#83082A"/>
	<circle cx="3626.64" cy="881.28" r="5.67" style="fill:none;stroke:#83082A;stroke-width:6.48"/>
	<circle cx="3691.17" cy="850.10" r="8.91" style="fill:#83082A"/>
	<circle cx="3691.17" cy="850.10" r="5.67" style="fill:none;stroke:#83082A;stroke-width:6.48"/>
	<circle cx="3755.84" cy="748.31" r="8.91" style="fill:#83082A"/>
	<circle cx="3755.84" cy="748.31" r="5.67" style="fill:none;stroke:#83082A;stroke-width:6.48"/>
	<circle cx="3820.37" cy="719.28" r="8.91" style="fill:#83082A"/>
	<circle cx="3820.37" cy="719.28" r="5.67" style="fill:none;stroke:#83082A;stroke-width:6.48"/>
	<circle cx="3884.90" cy="690.12" r="8.91" style="fill:#83082A"/>
	<circle cx="3884.90" cy="690.12" r="5.67" style="fill:none;stroke:#83082A;stroke-width:6.48"/>
	<circle cx="3949.56" cy="726.84" r="8.91" style="fill:#83082A"/>
	<circle cx="3949.56" cy="726.84" r="5.67" style="fill:none;stroke:#83082A;stroke-width:6.48"/>
	<circle cx="4014.09" cy="715.50" r="8.91" style="fill:#83082A"/>
	<circle cx="4014.09" cy="715.50" r="5.67" style="fill:none;stroke:#83082A;stroke-width:6.48"/>
	<circle cx="4078.62" cy="787.72" r="8.91" style="fill:#83082A"/>
	<circle cx="4078.62" cy="787.72" r="5.67" style="fill:none;stroke:#83082A;stroke-width:6.48"/>
	<circle cx="4143.29" cy="742.50" r="8.91" style="fill:#83082A"/>
	<circle cx="4143.29" cy="742.50" r="5.67" style="fill:none;stroke:#83082A;stroke-width:6.48"/>
	<circle cx="4207.81" cy="692.42" r="8.91" style="fill:#83082A"/>
	<circle cx="4207.81" cy="692.42" r="5.67" style="fill:none;stroke:#83082A;stroke-width:6.48"/>
	<circle cx="4272.35" cy="607.37" r="8.91" style="fill:#83082A"/>
	<circle cx="4272.35" cy="607.37" r="5.67" style="fill:none;stroke:#83082A;stroke-width:6.48"/>
	<line x1="156.74" y1="2032.56" x2="156.74" y2="0.00" style="stroke:#404040;stroke-width:4.32"/>
	<line x1="156.74" y1="1985.04" x2="126.77" y2="1985.04" style="stroke:#000000;stroke-width:4.32"/>
	<text x="111.78" y="2006.05" style="font-family:'Century Gothic';font-size:59.94px;fill:#000000" text-anchor="end">-.1</text>
	<line x1="156.74" y1="1500.66" x2="126.77" y2="1500.66" style="stroke:#000000;stroke-width:4.32"/>
	<text x="111.78" y="1521.67" style="font-family:'Century Gothic';font-size:59.94px;fill:#000000" text-anchor="end">0</text>
	<line x1="156.74" y1="1016.28" x2="126.77" y2="1016.28" style="stroke:#000000;stroke-width:4.32"/>
	<text x="111.78" y="1037.29" style="font-family:'Century Gothic';font-size:59.94px;fill:#000000" text-anchor="end">.1</text>
	<line x1="156.74" y1="531.90" x2="126.77" y2="531.90" style="stroke:#000000;stroke-width:4.32"/>
	<text x="111.78" y="552.91" style="font-family:'Century Gothic';font-size:59.94px;fill:#000000" text-anchor="end">.2</text>
	<line x1="156.74" y1="47.52" x2="126.77" y2="47.52" style="stroke:#000000;stroke-width:4.32"/>
	<text x="111.78" y="68.53" style="font-family:'Century Gothic';font-size:59.94px;fill:#000000" text-anchor="end">.3</text>
	<line x1="156.74" y1="2032.56" x2="4320.00" y2="2032.56" style="stroke:#404040;stroke-width:4.32"/>
	<line x1="268.79" y1="2032.56" x2="268.79" y2="2062.53" style="stroke:#000000;stroke-width:4.32"/>
	<text x="268.79" y="2119.41" style="font-family:'Century Gothic';font-size:59.94px;fill:#000000" text-anchor="middle">-20</text>
	<line x1="1560.33" y1="2032.56" x2="1560.33" y2="2062.53" style="stroke:#000000;stroke-width:4.32"/>
	<text x="1560.33" y="2119.41" style="font-family:'Century Gothic';font-size:59.94px;fill:#000000" text-anchor="middle">0</text>
	<line x1="2851.88" y1="2032.56" x2="2851.88" y2="2062.53" style="stroke:#000000;stroke-width:4.32"/>
	<text x="2851.88" y="2119.41" style="font-family:'Century Gothic';font-size:59.94px;fill:#000000" text-anchor="middle">20</text>
	<line x1="4143.29" y1="2032.56" x2="4143.29" y2="2062.53" style="stroke:#000000;stroke-width:4.32"/>
	<text x="4143.29" y="2119.41" style="font-family:'Century Gothic';font-size:59.94px;fill:#000000" text-anchor="middle">40</text>
</svg>
