<?xml version="1.0" encoding="UTF-8" standalone="no"?>
<!-- This is a Stata 19.5 generated SVG file (http://www.stata.com) -->

<svg version="1.1" width="6.000in" height="3.000in" viewBox="0 0 4320 2160" xmlns="http://www.w3.org/2000/svg" xmlns:xlink="http://www.w3.org/1999/xlink">
	<desc>Stata Graph - g_event</desc>
	<rect x="0" y="0" width="4320" height="2160" style="fill:#EAF2F3;stroke:none"/>
	<rect x="0.00" y="0.00" width="4320.00" height="2160.00" style="fill:#FFFFFF"/>
	<rect x="2.16" y="2.16" width="4315.68" height="2155.68" style="fill:none;stroke:#FFFFFF;stroke-width:4.32"/>
	<rect x="156.74" y="0.00" width="4163.27" height="2032.56" style="fill:#FFFFFF"/>
	<rect x="158.90" y="2.16" width="4158.95" height="2028.24" style="fill:none;stroke:#FFFFFF;stroke-width:4.32"/>
	<line x1="156.74" y1="1985.04" x2="4320.00" y2="1985.04" style="stroke:#CCCCCC;stroke-width:6.48"/>
	<line x1="156.74" y1="1597.46" x2="4320.00" y2="1597.46" style="stroke:#CCCCCC;stroke-width:6.48"/>
	<line x1="156.74" y1="1210.01" x2="4320.00" y2="1210.01" style="stroke:#CCCCCC;stroke-width:6.48"/>
	<line x1="156.74" y1="822.56" x2="4320.00" y2="822.56" style="stroke:#CCCCCC;stroke-width:6.48"/>
	<line x1="156.74" y1="434.97" x2="4320.00" y2="434.97" style="stroke:#CCCCCC;stroke-width:6.48"/>
	<line x1="156.74" y1="47.52" x2="4320.00" y2="47.52" style="stroke:#CCCCCC;stroke-width:6.48"/>
	<line x1="1528.07" y1="2032.56" x2="1528.07" y2="1989.36" style="stroke:#404040;stroke-width:6.48"/>
	<line x1="1528.07" y1="1967.76" x2="1528.07" y2="1924.56" style="stroke:#404040;stroke-width:6.48"/>
	<line x1="1528.07" y1="1902.96" x2="1528.07" y2="1859.76" style="stroke:#404040;stroke-width:6.48"/>
	<line x1="1528.07" y1="1838.16" x2="1528.07" y2="1794.96" style="stroke:#404040;stroke-width:6.48"/>
	<line x1="1528.07" y1="1773.36" x2="1528.07" y2="1730.16" style="stroke:#404040;stroke-width:6.48"/>
	<line x1="1528.07" y1="1708.56" x2="1528.07" y2="1665.36" style="stroke:#404040;stroke-width:6.48"/>
	<line x1="1528.07" y1="1643.76" x2="1528.07" y2="1600.56" style="stroke:#404040;stroke-width:6.48"/>
	<line x1="1528.07" y1="1578.96" x2="1528.07" y2="1535.76" style="stroke:#404040;stroke-width:6.48"/>
	<line x1="1528.07" y1="1514.16" x2="1528.07" y2="1470.96" style="stroke:#404040;stroke-width:6.48"/>
	<line x1="1528.07" y1="1449.36" x2="1528.07" y2="1406.16" style="stroke:#404040;stroke-width:6.48"/>
	<line x1="1528.07" y1="1384.56" x2="1528.07" y2="1341.36" style="stroke:#404040;stroke-width:6.48"/>
	<line x1="1528.07" y1="1319.76" x2="1528.07" y2="1276.56" style="stroke:#404040;stroke-width:6.48"/>
	<line x1="1528.07" y1="1254.96" x2="1528.07" y2="1211.76" style="stroke:#404040;stroke-width:6.48"/>
	<line x1="1528.07" y1="1190.16" x2="1528.07" y2="1146.96" style="stroke:#404040;stroke-width:6.48"/>
	<line x1="1528.07" y1="1125.36" x2="1528.07" y2="1082.16" style="stroke:#404040;stroke-width:6.48"/>
	<line x1="1528.07" y1="1060.56" x2="1528.07" y2="1017.36" style="stroke:#404040;stroke-width:6.48"/>
	<line x1="1528.07" y1="995.76" x2="1528.07" y2="952.56" style="stroke:#404040;stroke-width:6.48"/>
	<line x1="1528.07" y1="930.96" x2="1528.07" y2="887.76" style="stroke:#404040;stroke-width:6.48"/>
	<line x1="1528.07" y1="866.16" x2="1528.07" y2="822.96" style="stroke:#404040;stroke-width:6.48"/>
	<line x1="1528.07" y1="801.36" x2="1528.07" y2="758.16" style="stroke:#404040;stroke-width:6.48"/>
	<line x1="1528.07" y1="736.56" x2="1528.07" y2="693.36" style="stroke:#404040;stroke-width:6.48"/>
	<line x1="1528.07" y1="671.76" x2="1528.07" y2="628.56" style="stroke:#404040;stroke-width:6.48"/>
	<line x1="1528.07" y1="606.96" x2="1528.07" y2="563.76" style="stroke:#404040;stroke-width:6.48"/>
	<line x1="1528.07" y1="542.16" x2="1528.07" y2="498.96" style="stroke:#404040;stroke-width:6.48"/>
	<line x1="1528.07" y1="477.36" x2="1528.07" y2="434.16" style="stroke:#404040;stroke-width:6.48"/>
	<line x1="1528.07" y1="412.56" x2="1528.07" y2="369.36" style="stroke:#404040;stroke-width:6.48"/>
	<line x1="1528.07" y1="347.76" x2="1528.07" y2="304.56" style="stroke:#404040;stroke-width:6.48"/>
	<line x1="1528.07" y1="282.96" x2="1528.07" y2="239.76" style="stroke:#404040;stroke-width:6.48"/>
	<line x1="1528.07" y1="218.16" x2="1528.07" y2="174.96" style="stroke:#404040;stroke-width:6.48"/>
	<line x1="1528.07" y1="153.36" x2="1528.07" y2="110.16" style="stroke:#404040;stroke-width:6.48"/>
	<line x1="1528.07" y1="88.56" x2="1528.07" y2="45.36" style="stroke:#404040;stroke-width:6.48"/>
	<line x1="1528.07" y1="23.76" x2="1528.07" y2="0.00" style="stroke:#404040;stroke-width:6.48"/>
	<line x1="156.74" y1="1597.46" x2="4320.00" y2="1597.46" style="stroke:#404040;stroke-width:6.48"/>
	<line x1="204.26" y1="1461.92" x2="204.26" y2="1650.51" style="stroke:#E397A0;stroke-width:6.48"/>
	<line x1="187.79" y1="1650.51" x2="220.73" y2="1650.51" stroke-linecap="round" style="stroke:#E397A0;stroke-width:6.48"/>
	<line x1="187.79" y1="1461.92" x2="220.73" y2="1461.92" stroke-linecap="round" style="stroke:#E397A0;stroke-width:6.48"/>
	<line x1="268.79" y1="1464.89" x2="268.79" y2="1643.76" style="stroke:#E397A0;stroke-width:6.48"/>
	<line x1="252.32" y1="1643.76" x2="285.26" y2="1643.76" stroke-linecap="round" style="stroke:#E397A0;stroke-width:6.48"/>
	<line x1="252.32" y1="1464.89" x2="285.26" y2="1464.89" stroke-linecap="round" style="stroke:#E397A0;stroke-width:6.48"/>
	<line x1="333.45" y1="1468.26" x2="333.45" y2="1638.23" style="stroke:#E397A0;stroke-width:6.48"/>
	<line x1="316.98" y1="1638.23" x2="349.92" y2="1638.23" stroke-linecap="round" style="stroke:#E397A0;stroke-width:6.48"/>
	<line x1="316.98" y1="1468.26" x2="349.92" y2="1468.26" stroke-linecap="round" style="stroke:#E397A0;stroke-width:6.48"/>
	<line x1="397.98" y1="1508.36" x2="397.98" y2="1685.48" style="stroke:#E397A0;stroke-width:6.48"/>
	<line x1="381.51" y1="1685.48" x2="414.45" y2="1685.48" stroke-linecap="round" style="stroke:#E397A0;stroke-width:6.48"/>
	<line x1="381.51" y1="1508.36" x2="414.45" y2="1508.36" stroke-linecap="round" style="stroke:#E397A0;stroke-width:6.48"/>
	<line x1="462.51" y1="1538.05" x2="462.51" y2="1714.10" style="stroke:#E397A0;stroke-width:6.48"/>
	<line x1="446.04" y1="1714.10" x2="478.98" y2="1714.10" stroke-linecap="round" style="stroke:#E397A0;stroke-width:6.48"/>
	<line x1="446.04" y1="1538.05" x2="478.98" y2="1538.05" stroke-linecap="round" style="stroke:#E397A0;stroke-width:6.48"/>
	<line x1="527.17" y1="1498.37" x2="527.17" y2="1696.28" style="stroke:#E397A0;stroke-width:6.48"/>
	<line x1="510.71" y1="1696.28" x2="543.65" y2="1696.28" stroke-linecap="round" style="stroke:#E397A0;stroke-width:6.48"/>
	<line x1="510.71" y1="1498.37" x2="543.65" y2="1498.37" stroke-linecap="round" style="stroke:#E397A0;stroke-width:6.48"/>
	<line x1="591.71" y1="1362.42" x2="591.71" y2="1580.99" style="stroke:#E397A0;stroke-width:6.48"/>
	<line x1="575.24" y1="1580.99" x2="608.17" y2="1580.99" stroke-linecap="round" style="stroke:#E397A0;stroke-width:6.48"/>
	<line x1="575.24" y1="1362.42" x2="608.17" y2="1362.42" stroke-linecap="round" style="stroke:#E397A0;stroke-width:6.48"/>
	<line x1="656.24" y1="1305.86" x2="656.24" y2="1536.84" style="stroke:#E397A0;stroke-width:6.48"/>
	<line x1="639.77" y1="1536.84" x2="672.71" y2="1536.84" stroke-linecap="round" style="stroke:#E397A0;stroke-width:6.48"/>
	<line x1="639.77" y1="1305.86" x2="672.71" y2="1305.86" stroke-linecap="round" style="stroke:#E397A0;stroke-width:6.48"/>
	<line x1="720.90" y1="1344.74" x2="720.90" y2="1559.66" style="stroke:#E397A0;stroke-width:6.48"/>
	<line x1="704.43" y1="1559.66" x2="737.37" y2="1559.66" stroke-linecap="round" style="stroke:#E397A0;stroke-width:6.48"/>
	<line x1="704.43" y1="1344.74" x2="737.37" y2="1344.74" stroke-linecap="round" style="stroke:#E397A0;stroke-width:6.48"/>
	<line x1="785.43" y1="1397.79" x2="785.43" y2="1599.62" style="stroke:#E397A0;stroke-width:6.48"/>
	<line x1="768.96" y1="1599.62" x2="801.90" y2="1599.62" stroke-linecap="round" style="stroke:#E397A0;stroke-width:6.48"/>
	<line x1="768.96" y1="1397.79" x2="801.90" y2="1397.79" stroke-linecap="round" style="stroke:#E397A0;stroke-width:6.48"/>
	<line x1="849.96" y1="1403.19" x2="849.96" y2="1609.88" style="stroke:#E397A0;stroke-width:6.48"/>
	<line x1="833.49" y1="1609.88" x2="866.43" y2="1609.88" stroke-linecap="round" style="stroke:#E397A0;stroke-width:6.48"/>
	<line x1="833.49" y1="1403.19" x2="866.43" y2="1403.19" stroke-linecap="round" style="stroke:#E397A0;stroke-width:6.48"/>
	<line x1="914.63" y1="1530.63" x2="914.63" y2="1744.20" style="stroke:#E397A0;stroke-width:6.48"/>
	<line x1="898.16" y1="1744.20" x2="931.10" y2="1744.20" stroke-linecap="round" style="stroke:#E397A0;stroke-width:6.48"/>
	<line x1="898.16" y1="1530.63" x2="931.10" y2="1530.63" stroke-linecap="round" style="stroke:#E397A0;stroke-width:6.48"/>
	<line x1="979.16" y1="1484.05" x2="979.16" y2="1681.29" style="stroke:#E397A0;stroke-width:6.48"/>
	<line x1="962.69" y1="1681.29" x2="995.63" y2="1681.29" stroke-linecap="round" style="stroke:#E397A0;stroke-width:6.48"/>
	<line x1="962.69" y1="1484.05" x2="995.63" y2="1484.05" stroke-linecap="round" style="stroke:#E397A0;stroke-width:6.48"/>
	<line x1="1043.69" y1="1521.18" x2="1043.69" y2="1701.27" style="stroke:#E397A0;stroke-width:6.48"/>
	<line x1="1027.21" y1="1701.27" x2="1060.16" y2="1701.27" stroke-linecap="round" style="stroke:#E397A0;stroke-width:6.48"/>
	<line x1="1027.21" y1="1521.18" x2="1060.16" y2="1521.18" stroke-linecap="round" style="stroke:#E397A0;stroke-width:6.48"/>
	<line x1="1108.35" y1="1555.20" x2="1108.35" y2="1752.98" style="stroke:#E397A0;stroke-width:6.48"/>
	<line x1="1091.88" y1="1752.98" x2="1124.82" y2="1752.98" stroke-linecap="round" style="stroke:#E397A0;stroke-width:6.48"/>
	<line x1="1091.88" y1="1555.20" x2="1124.82" y2="1555.20" stroke-linecap="round" style="stroke:#E397A0;stroke-width:6.48"/>
	<line x1="1172.88" y1="1570.59" x2="1172.88" y2="1764.99" style="stroke:#E397A0;stroke-width:6.48"/>
	<line x1="1156.41" y1="1764.99" x2="1189.35" y2="1764.99" stroke-linecap="round" style="stroke:#E397A0;stroke-width:6.48"/>
	<line x1="1156.41" y1="1570.59" x2="1189.35" y2="1570.59" stroke-linecap="round" style="stroke:#E397A0;stroke-width:6.48"/>
	<line x1="1237.41" y1="1532.25" x2="1237.41" y2="1700.73" style="stroke:#E397A0;stroke-width:6.48"/>
	<line x1="1220.94" y1="1700.73" x2="1253.88" y2="1700.73" stroke-linecap="round" style="stroke:#E397A0;stroke-width:6.48"/>
	<line x1="1220.94" y1="1532.25" x2="1253.88" y2="1532.25" stroke-linecap="round" style="stroke:#E397A0;stroke-width:6.48"/>
	<line x1="1302.08" y1="1485.41" x2="1302.08" y2="1657.40" style="stroke:#E397A0;stroke-width:6.48"/>
	<line x1="1285.61" y1="1657.40" x2="1318.55" y2="1657.40" stroke-linecap="round" style="stroke:#E397A0;stroke-width:6.48"/>
	<line x1="1285.61" y1="1485.41" x2="1318.55" y2="1485.41" stroke-linecap="round" style="stroke:#E397A0;stroke-width:6.48"/>
	<line x1="1366.61" y1="1307.74" x2="1366.61" y2="1523.48" style="stroke:#E397A0;stroke-width:6.48"/>
	<line x1="1350.14" y1="1523.48" x2="1383.08" y2="1523.48" stroke-linecap="round" style="stroke:#E397A0;stroke-width:6.48"/>
	<line x1="1350.14" y1="1307.74" x2="1383.08" y2="1307.74" stroke-linecap="round" style="stroke:#E397A0;stroke-width:6.48"/>
	<line x1="1431.14" y1="1261.03" x2="1431.14" y2="1485.68" style="stroke:#E397A0;stroke-width:6.48"/>
	<line x1="1414.67" y1="1485.68" x2="1447.61" y2="1485.68" stroke-linecap="round" style="stroke:#E397A0;stroke-width:6.48"/>
	<line x1="1414.67" y1="1261.03" x2="1447.61" y2="1261.03" stroke-linecap="round" style="stroke:#E397A0;stroke-width:6.48"/>
	<line x1="1560.33" y1="1371.33" x2="1560.33" y2="1589.63" style="stroke:#E397A0;stroke-width:6.48"/>
	<line x1="1543.86" y1="1589.63" x2="1576.80" y2="1589.63" stroke-linecap="round" style="stroke:#E397A0;stroke-width:6.48"/>
	<line x1="1543.86" y1="1371.33" x2="1576.80" y2="1371.33" stroke-linecap="round" style="stroke:#E397A0;stroke-width:6.48"/>
	<line x1="1624.86" y1="1328.80" x2="1624.86" y2="1579.64" style="stroke:#E397A0;stroke-width:6.48"/>
	<line x1="1608.39" y1="1579.64" x2="1641.33" y2="1579.64" stroke-linecap="round" style="stroke:#E397A0;stroke-width:6.48"/>
	<line x1="1608.39" y1="1328.80" x2="1641.33" y2="1328.80" stroke-linecap="round" style="stroke:#E397A0;stroke-width:6.48"/>
	<line x1="1689.53" y1="1310.45" x2="1689.53" y2="1577.88" style="stroke:#E397A0;stroke-width:6.48"/>
	<line x1="1673.06" y1="1577.88" x2="1706.00" y2="1577.88" stroke-linecap="round" style="stroke:#E397A0;stroke-width:6.48"/>
	<line x1="1673.06" y1="1310.45" x2="1706.00" y2="1310.45" stroke-linecap="round" style="stroke:#E397A0;stroke-width:6.48"/>
	<line x1="1754.06" y1="1347.84" x2="1754.06" y2="1609.20" style="stroke:#E397A0;stroke-width:6.48"/>
	<line x1="1737.59" y1="1609.20" x2="1770.53" y2="1609.20" stroke-linecap="round" style="stroke:#E397A0;stroke-width:6.48"/>
	<line x1="1737.59" y1="1347.84" x2="1770.53" y2="1347.84" stroke-linecap="round" style="stroke:#E397A0;stroke-width:6.48"/>
	<line x1="1818.59" y1="1291.95" x2="1818.59" y2="1595.57" style="stroke:#E397A0;stroke-width:6.48"/>
	<line x1="1802.12" y1="1595.57" x2="1835.06" y2="1595.57" stroke-linecap="round" style="stroke:#E397A0;stroke-width:6.48"/>
	<line x1="1802.12" y1="1291.95" x2="1835.06" y2="1291.95" stroke-linecap="round" style="stroke:#E397A0;stroke-width:6.48"/>
	<line x1="1883.25" y1="1233.36" x2="1883.25" y2="1558.58" style="stroke:#E397A0;stroke-width:6.48"/>
	<line x1="1866.78" y1="1558.58" x2="1899.72" y2="1558.58" stroke-linecap="round" style="stroke:#E397A0;stroke-width:6.48"/>
	<line x1="1866.78" y1="1233.36" x2="1899.72" y2="1233.36" stroke-linecap="round" style="stroke:#E397A0;stroke-width:6.48"/>
	<line x1="1947.78" y1="1242.54" x2="1947.78" y2="1553.72" style="stroke:#E397A0;stroke-width:6.48"/>
	<line x1="1931.31" y1="1553.72" x2="1964.25" y2="1553.72" stroke-linecap="round" style="stroke:#E397A0;stroke-width:6.48"/>
	<line x1="1931.31" y1="1242.54" x2="1964.25" y2="1242.54" stroke-linecap="round" style="stroke:#E397A0;stroke-width:6.48"/>
	<line x1="2012.31" y1="1247.13" x2="2012.31" y2="1555.20" style="stroke:#E397A0;stroke-width:6.48"/>
	<line x1="1995.84" y1="1555.20" x2="2028.78" y2="1555.20" stroke-linecap="round" style="stroke:#E397A0;stroke-width:6.48"/>
	<line x1="1995.84" y1="1247.13" x2="2028.78" y2="1247.13" stroke-linecap="round" style="stroke:#E397A0;stroke-width:6.48"/>
	<line x1="2076.98" y1="1188.00" x2="2076.98" y2="1495.26" style="stroke:#E397A0;stroke-width:6.48"/>
	<line x1="2060.51" y1="1495.26" x2="2093.45" y2="1495.26" stroke-linecap="round" style="stroke:#E397A0;stroke-width:6.48"/>
	<line x1="2060.51" y1="1188.00" x2="2093.45" y2="1188.00" stroke-linecap="round" style="stroke:#E397A0;stroke-width:6.48"/>
	<line x1="2141.51" y1="1094.31" x2="2141.51" y2="1387.94" style="stroke:#E397A0;stroke-width:6.48"/>
	<line x1="2125.04" y1="1387.94" x2="2157.98" y2="1387.94" stroke-linecap="round" style="stroke:#E397A0;stroke-width:6.48"/>
	<line x1="2125.04" y1="1094.31" x2="2157.98" y2="1094.31" stroke-linecap="round" style="stroke:#E397A0;stroke-width:6.48"/>
	<line x1="2206.04" y1="907.61" x2="2206.04" y2="1237.95" style="stroke:#E397A0;stroke-width:6.48"/>
	<line x1="2189.57" y1="1237.95" x2="2222.51" y2="1237.95" stroke-linecap="round" style="stroke:#E397A0;stroke-width:6.48"/>
	<line x1="2189.57" y1="907.61" x2="2222.51" y2="907.61" stroke-linecap="round" style="stroke:#E397A0;stroke-width:6.48"/>
	<line x1="2270.70" y1="841.72" x2="2270.70" y2="1177.47" style="stroke:#E397A0;stroke-width:6.48"/>
	<line x1="2254.23" y1="1177.47" x2="2287.17" y2="1177.47" stroke-linecap="round" style="stroke:#E397A0;stroke-width:6.48"/>
	<line x1="2254.23" y1="841.72" x2="2287.17" y2="841.72" stroke-linecap="round" style="stroke:#E397A0;stroke-width:6.48"/>
	<line x1="2335.23" y1="867.92" x2="2335.23" y2="1202.31" style="stroke:#E397A0;stroke-width:6.48"/>
	<line x1="2318.76" y1="1202.31" x2="2351.70" y2="1202.31" stroke-linecap="round" style="stroke:#E397A0;stroke-width:6.48"/>
	<line x1="2318.76" y1="867.92" x2="2351.70" y2="867.92" stroke-linecap="round" style="stroke:#E397A0;stroke-width:6.48"/>
	<line x1="2399.76" y1="856.17" x2="2399.76" y2="1221.35" style="stroke:#E397A0;stroke-width:6.48"/>
	<line x1="2383.29" y1="1221.35" x2="2416.23" y2="1221.35" stroke-linecap="round" style="stroke:#E397A0;stroke-width:6.48"/>
	<line x1="2383.29" y1="856.17" x2="2416.23" y2="856.17" stroke-linecap="round" style="stroke:#E397A0;stroke-width:6.48"/>
	<line x1="2464.43" y1="878.85" x2="2464.43" y2="1246.86" style="stroke:#E397A0;stroke-width:6.48"/>
	<line x1="2447.96" y1="1246.86" x2="2480.90" y2="1246.86" stroke-linecap="round" style="stroke:#E397A0;stroke-width:6.48"/>
	<line x1="2447.96" y1="878.85" x2="2480.90" y2="878.85" stroke-linecap="round" style="stroke:#E397A0;stroke-width:6.48"/>
	<line x1="2528.96" y1="930.15" x2="2528.96" y2="1268.05" style="stroke:#E397A0;stroke-width:6.48"/>
	<line x1="2512.49" y1="1268.05" x2="2545.43" y2="1268.05" stroke-linecap="round" style="stroke:#E397A0;stroke-width:6.48"/>
	<line x1="2512.49" y1="930.15" x2="2545.43" y2="930.15" stroke-linecap="round" style="stroke:#E397A0;stroke-width:6.48"/>
	<line x1="2593.49" y1="885.87" x2="2593.49" y2="1269.81" style="stroke:#E397A0;stroke-width:6.48"/>
	<line x1="2577.02" y1="1269.81" x2="2609.96" y2="1269.81" stroke-linecap="round" style="stroke:#E397A0;stroke-width:6.48"/>
	<line x1="2577.02" y1="885.87" x2="2609.96" y2="885.87" stroke-linecap="round" style="stroke:#E397A0;stroke-width:6.48"/>
	<line x1="2658.15" y1="915.84" x2="2658.15" y2="1342.44" style="stroke:#E397A0;stroke-width:6.48"/>
	<line x1="2641.68" y1="1342.44" x2="2674.62" y2="1342.44" stroke-linecap="round" style="stroke:#E397A0;stroke-width:6.48"/>
	<line x1="2641.68" y1="915.84" x2="2674.62" y2="915.84" stroke-linecap="round" style="stroke:#E397A0;stroke-width:6.48"/>
	<line x1="2722.68" y1="876.56" x2="2722.68" y2="1319.36" style="stroke:#E397A0;stroke-width:6.48"/>
	<line x1="2706.21" y1="1319.36" x2="2739.15" y2="1319.36" stroke-linecap="round" style="stroke:#E397A0;stroke-width:6.48"/>
	<line x1="2706.21" y1="876.56" x2="2739.15" y2="876.56" stroke-linecap="round" style="stroke:#E397A0;stroke-width:6.48"/>
	<line x1="2787.21" y1="908.01" x2="2787.21" y2="1360.53" style="stroke:#E397A0;stroke-width:6.48"/>
	<line x1="2770.74" y1="1360.53" x2="2803.68" y2="1360.53" stroke-linecap="round" style="stroke:#E397A0;stroke-width:6.48"/>
	<line x1="2770.74" y1="908.01" x2="2803.68" y2="908.01" stroke-linecap="round" style="stroke:#E397A0;stroke-width:6.48"/>
	<line x1="2851.88" y1="865.08" x2="2851.88" y2="1339.34" style="stroke:#E397A0;stroke-width:6.48"/>
	<line x1="2835.41" y1="1339.34" x2="2868.35" y2="1339.34" stroke-linecap="round" style="stroke:#E397A0;stroke-width:6.48"/>
	<line x1="2835.41" y1="865.08" x2="2868.35" y2="865.08" stroke-linecap="round" style="stroke:#E397A0;stroke-width:6.48"/>
	<line x1="2916.41" y1="828.77" x2="2916.41" y2="1297.49" style="stroke:#E397A0;stroke-width:6.48"/>
	<line x1="2899.94" y1="1297.49" x2="2932.88" y2="1297.49" stroke-linecap="round" style="stroke:#E397A0;stroke-width:6.48"/>
	<line x1="2899.94" y1="828.77" x2="2932.88" y2="828.77" stroke-linecap="round" style="stroke:#E397A0;stroke-width:6.48"/>
	<line x1="2980.94" y1="669.87" x2="2980.94" y2="1136.84" style="stroke:#E397A0;stroke-width:6.48"/>
	<line x1="2964.47" y1="1136.84" x2="2997.41" y2="1136.84" stroke-linecap="round" style="stroke:#E397A0;stroke-width:6.48"/>
	<line x1="2964.47" y1="669.87" x2="2997.41" y2="669.87" stroke-linecap="round" style="stroke:#E397A0;stroke-width:6.48"/>
	<line x1="3045.60" y1="601.42" x2="3045.60" y2="1089.32" style="stroke:#E397A0;stroke-width:6.48"/>
	<line x1="3029.13" y1="1089.32" x2="3062.07" y2="1089.32" stroke-linecap="round" style="stroke:#E397A0;stroke-width:6.48"/>
	<line x1="3029.13" y1="601.42" x2="3062.07" y2="601.42" stroke-linecap="round" style="stroke:#E397A0;stroke-width:6.48"/>
	<line x1="3110.13" y1="624.51" x2="3110.13" y2="1125.09" style="stroke:#E397A0;stroke-width:6.48"/>
	<line x1="3093.66" y1="1125.09" x2="3126.60" y2="1125.09" stroke-linecap="round" style="stroke:#E397A0;stroke-width:6.48"/>
	<line x1="3093.66" y1="624.51" x2="3126.60" y2="624.51" stroke-linecap="round" style="stroke:#E397A0;stroke-width:6.48"/>
	<line x1="3174.66" y1="574.96" x2="3174.66" y2="1109.03" style="stroke:#E397A0;stroke-width:6.48"/>
	<line x1="3158.19" y1="1109.03" x2="3191.13" y2="1109.03" stroke-linecap="round" style="stroke:#E397A0;stroke-width:6.48"/>
	<line x1="3158.19" y1="574.96" x2="3191.13" y2="574.96" stroke-linecap="round" style="stroke:#E397A0;stroke-width:6.48"/>
	<line x1="3239.33" y1="573.08" x2="3239.33" y2="1124.01" style="stroke:#E397A0;stroke-width:6.48"/>
	<line x1="3222.86" y1="1124.01" x2="3255.80" y2="1124.01" stroke-linecap="round" style="stroke:#E397A0;stroke-width:6.48"/>
	<line x1="3222.86" y1="573.08" x2="3255.80" y2="573.08" stroke-linecap="round" style="stroke:#E397A0;stroke-width:6.48"/>
	<line x1="3303.86" y1="618.17" x2="3303.86" y2="1149.12" style="stroke:#E397A0;stroke-width:6.48"/>
	<line x1="3287.39" y1="1149.12" x2="3320.33" y2="1149.12" stroke-linecap="round" style="stroke:#E397A0;stroke-width:6.48"/>
	<line x1="3287.39" y1="618.17" x2="3320.33" y2="618.17" stroke-linecap="round" style="stroke:#E397A0;stroke-width:6.48"/>
	<line x1="3368.39" y1="567.14" x2="3368.39" y2="1123.74" style="stroke:#E397A0;stroke-width:6.48"/>
	<line x1="3351.92" y1="1123.74" x2="3384.86" y2="1123.74" stroke-linecap="round" style="stroke:#E397A0;stroke-width:6.48"/>
	<line x1="3351.92" y1="567.14" x2="3384.86" y2="567.14" stroke-linecap="round" style="stroke:#E397A0;stroke-width:6.48"/>
	<line x1="3433.05" y1="523.80" x2="3433.05" y2="1108.08" style="stroke:#E397A0;stroke-width:6.48"/>
	<line x1="3416.58" y1="1108.08" x2="3449.52" y2="1108.08" stroke-linecap="round" style="stroke:#E397A0;stroke-width:6.48"/>
	<line x1="3416.58" y1="523.80" x2="3449.52" y2="523.80" stroke-linecap="round" style="stroke:#E397A0;stroke-width:6.48"/>
	<line x1="3497.58" y1="521.64" x2="3497.58" y2="1102.55" style="stroke:#E397A0;stroke-width:6.48"/>
	<line x1="3481.11" y1="1102.55" x2="3514.05" y2="1102.55" stroke-linecap="round" style="stroke:#E397A0;stroke-width:6.48"/>
	<line x1="3481.11" y1="521.64" x2="3514.05" y2="521.64" stroke-linecap="round" style="stroke:#E397A0;stroke-width:6.48"/>
	<line x1="3562.11" y1="537.84" x2="3562.11" y2="1115.64" style="stroke:#E397A0;stroke-width:6.48"/>
	<line x1="3545.64" y1="1115.64" x2="3578.58" y2="1115.64" stroke-linecap="round" style="stroke:#E397A0;stroke-width:6.48"/>
	<line x1="3545.64" y1="537.84" x2="3578.58" y2="537.84" stroke-linecap="round" style="stroke:#E397A0;stroke-width:6.48"/>
	<line x1="3626.78" y1="518.27" x2="3626.78" y2="1083.11" style="stroke:#E397A0;stroke-width:6.48"/>
	<line x1="3610.31" y1="1083.11" x2="3643.25" y2="1083.11" stroke-linecap="round" style="stroke:#E397A0;stroke-width:6.48"/>
	<line x1="3610.31" y1="518.27" x2="3643.25" y2="518.27" stroke-linecap="round" style="stroke:#E397A0;stroke-width:6.48"/>
	<line x1="3691.31" y1="459.81" x2="3691.31" y2="1030.72" style="stroke:#E397A0;stroke-width:6.48"/>
	<line x1="3674.84" y1="1030.72" x2="3707.78" y2="1030.72" stroke-linecap="round" style="stroke:#E397A0;stroke-width:6.48"/>
	<line x1="3674.84" y1="459.81" x2="3707.78" y2="459.81" stroke-linecap="round" style="stroke:#E397A0;stroke-width:6.48"/>
	<line x1="3755.84" y1="300.38" x2="3755.84" y2="848.74" style="stroke:#E397A0;stroke-width:6.48"/>
	<line x1="3739.37" y1="848.74" x2="3772.31" y2="848.74" stroke-linecap="round" style="stroke:#E397A0;stroke-width:6.48"/>
	<line x1="3739.37" y1="300.38" x2="3772.31" y2="300.38" stroke-linecap="round" style="stroke:#E397A0;stroke-width:6.48"/>
	<line x1="3820.50" y1="246.24" x2="3820.50" y2="803.52" style="stroke:#E397A0;stroke-width:6.48"/>
	<line x1="3804.03" y1="803.52" x2="3836.97" y2="803.52" stroke-linecap="round" style="stroke:#E397A0;stroke-width:6.48"/>
	<line x1="3804.03" y1="246.24" x2="3836.97" y2="246.24" stroke-linecap="round" style="stroke:#E397A0;stroke-width:6.48"/>
	<line x1="3885.03" y1="258.26" x2="3885.03" y2="838.62" style="stroke:#E397A0;stroke-width:6.48"/>
	<line x1="3868.56" y1="838.62" x2="3901.50" y2="838.62" stroke-linecap="round" style="stroke:#E397A0;stroke-width:6.48"/>
	<line x1="3868.56" y1="258.26" x2="3901.50" y2="258.26" stroke-linecap="round" style="stroke:#E397A0;stroke-width:6.48"/>
	<line x1="3949.56" y1="231.53" x2="3949.56" y2="843.62" style="stroke:#E397A0;stroke-width:6.48"/>
	<line x1="3933.09" y1="843.62" x2="3966.03" y2="843.62" stroke-linecap="round" style="stroke:#E397A0;stroke-width:6.48"/>
	<line x1="3933.09" y1="231.53" x2="3966.03" y2="231.53" stroke-linecap="round" style="stroke:#E397A0;stroke-width:6.48"/>
	<line x1="4014.23" y1="252.32" x2="4014.23" y2="880.88" style="stroke:#E397A0;stroke-width:6.48"/>
	<line x1="3997.76" y1="880.88" x2="4030.70" y2="880.88" stroke-linecap="round" style="stroke:#E397A0;stroke-width:6.48"/>
	<line x1="3997.76" y1="252.32" x2="4030.70" y2="252.32" stroke-linecap="round" style="stroke:#E397A0;stroke-width:6.48"/>
	<line x1="4078.76" y1="315.90" x2="4078.76" y2="936.49" style="stroke:#E397A0;stroke-width:6.48"/>
	<line x1="4062.29" y1="936.49" x2="4095.23" y2="936.49" stroke-linecap="round" style="stroke:#E397A0;stroke-width:6.48"/>
	<line x1="4062.29" y1="315.90" x2="4095.23" y2="315.90" stroke-linecap="round" style="stroke:#E397A0;stroke-width:6.48"/>
	<line x1="4143.29" y1="250.29" x2="4143.29" y2="904.10" style="stroke:#E397A0;stroke-width:6.48"/>
	<line x1="4126.81" y1="904.10" x2="4159.76" y2="904.10" stroke-linecap="round" style="stroke:#E397A0;stroke-width:6.48"/>
	<line x1="4126.81" y1="250.29" x2="4159.76" y2="250.29" stroke-linecap="round" style="stroke:#E397A0;stroke-width:6.48"/>
	<line x1="4207.95" y1="242.33" x2="4207.95" y2="904.91" style="stroke:#E397A0;stroke-width:6.48"/>
	<line x1="4191.48" y1="904.91" x2="4224.42" y2="904.91" stroke-linecap="round" style="stroke:#E397A0;stroke-width:6.48"/>
	<line x1="4191.48" y1="242.33" x2="4224.42" y2="242.33" stroke-linecap="round" style="stroke:#E397A0;stroke-width:6.48"/>
	<line x1="4272.48" y1="197.91" x2="4272.48" y2="844.83" style="stroke:#E397A0;stroke-width:6.48"/>
	<line x1="4256.01" y1="844.83" x2="4288.95" y2="844.83" stroke-linecap="round" style="stroke:#E397A0;stroke-width:6.48"/>
	<line x1="4256.01" y1="197.91" x2="4288.95" y2="197.91" stroke-linecap="round" style="stroke:#E397A0;stroke-width:6.48"/>
	<path d=" M204.12 1556.28 L268.79 1554.39 L333.32 1553.31 L397.85 1597.05 L462.51 1626.21 L527.04 1597.46 L591.57 1471.77 L656.24 1421.42 L720.77 1452.20 L785.30 1498.77 L849.96 1506.60 L914.49 1637.55 L979.02 1582.74 L1043.69 1611.36 L1108.21 1654.16 L1172.74 1667.93 L1237.41 1616.49 L1301.94 1571.54 L1366.47 1415.75 L1431.14 1373.36 L1495.67 1597.59 L1560.20 1480.55 L1624.86 1454.22 L1689.39 1444.23 L1753.92 1478.52 L1818.59 1443.83 L1883.12 1396.04 L1947.65 1398.20 L2012.31 1401.30 L2076.84 1341.63 L2141.37 1241.19 L2206.04 1072.85 L2270.57 1009.67 L2335.09 1035.18 L2399.76 1038.83 L2464.29 1062.99 L2528.82 1099.17 L2593.49 1077.84 L2658.02 1129.14 L2722.55 1097.96 L2787.21 1134.27 L2851.74 1102.28 L2916.27 1063.13 L2980.94 903.42 L3045.47 845.37 L3110.00 874.80 L3174.66 842.13 L3239.19 848.61 L3303.72 883.71 L3368.39 845.51 L3432.92 816.08 L3497.45 812.16 L3562.11 826.74 L3626.64 800.82 L3691.17 745.34 L3755.84 574.69 L3820.37 524.88 L3884.90 548.51 L3949.56 537.57 L4014.09 566.60 L4078.62 626.27 L4143.29 577.26 L4207.81 573.62 L4272.35 521.37" stroke-linejoin="round" style="fill:none;stroke:#83082A;stroke-width:9.72"/>
	<circle cx="204.12" cy="1556.28" r="8.91" style="fill:#83082A"/>
	<circle cx="204.12" cy="1556.28" r="5.67" style="fill:none;stroke:#83082A;stroke-width:6.48"/>
	<circle cx="268.79" cy="1554.39" r="8.91" style="fill:#83082A"/>
	<circle cx="268.79" cy="1554.39" r="5.67" style="fill:none;stroke:#83082A;stroke-width:6.48"/>
	<circle cx="333.32" cy="1553.31" r="8.91" style="fill:#83082A"/>
	<circle cx="333.32" cy="1553.31" r="5.67" style="fill:none;stroke:#83082A;stroke-width:6.48"/>
	<circle cx="397.85" cy="1597.05" r="8.91" style="fill:#83082A"/>
	<circle cx="397.85" cy="1597.05" r="5.67" style="fill:none;stroke:#83082A;stroke-width:6.48"/>
	<circle cx="462.51" cy="1626.21" r="8.91" style="fill:#83082A"/>
	<circle cx="462.51" cy="1626.21" r="5.67" style="fill:none;stroke:#83082A;stroke-width:6.48"/>
	<circle cx="527.04" cy="1597.46" r="8.91" style="fill:#83082A"/>
	<circle cx="527.04" cy="1597.46" r="5.67" style="fill:none;stroke:#83082A;stroke-width:6.48"/>
	<circle cx="591.57" cy="1471.77" r="8.91" style="fill:#83082A"/>
	<circle cx="591.57" cy="1471.77" r="5.67" style="fill:none;stroke:#83082A;stroke-width:6.48"/>
	<circle cx="656.24" cy="1421.42" r="8.91" style="fill:#83082A"/>
	<circle cx="656.24" cy="1421.42" r="5.67" style="fill:none;stroke:#83082A;stroke-width:6.48"/>
	<circle cx="720.77" cy="1452.20" r="8.91" style="fill:#83082A"/>
	<circle cx="720.77" cy="1452.20" r="5.67" style="fill:none;stroke:#83082A;stroke-width:6.48"/>
	<circle cx="785.30" cy="1498.77" r="8.91" style="fill:#83082A"/>
	<circle cx="785.30" cy="1498.77" r="5.67" style="fill:none;stroke:#83082A;stroke-width:6.48"/>
	<circle cx="849.96" cy="1506.60" r="8.91" style="fill:#83082A"/>
	<circle cx="849.96" cy="1506.60" r="5.67" style="fill:none;stroke:#83082A;stroke-width:6.48"/>
	<circle cx="914.49" cy="1637.55" r="8.91" style="fill:#83082A"/>
	<circle cx="914.49" cy="1637.55" r="5.67" style="fill:none;stroke:#83082A;stroke-width:6.48"/>
	<circle cx="979.02" cy="1582.74" r="8.91" style="fill:#83082A"/>
	<circle cx="979.02" cy="1582.74" r="5.67" style="fill:none;stroke:#83082A;stroke-width:6.48"/>
	<circle cx="1043.69" cy="1611.36" r="8.91" style="fill:#83082A"/>
	<circle cx="1043.69" cy="1611.36" r="5.67" style="fill:none;stroke:#83082A;stroke-width:6.48"/>
	<circle cx="1108.21" cy="1654.16" r="8.91" style="fill:#83082A"/>
	<circle cx="1108.21" cy="1654.16" r="5.67" style="fill:none;stroke:#83082A;stroke-width:6.48"/>
	<circle cx="1172.74" cy="1667.93" r="8.91" style="fill:#83082A"/>
	<circle cx="1172.74" cy="1667.93" r="5.67" style="fill:none;stroke:#83082A;stroke-width:6.48"/>
	<circle cx="1237.41" cy="1616.49" r="8.91" style="fill:#83082A"/>
	<circle cx="1237.41" cy="1616.49" r="5.67" style="fill:none;stroke:#83082A;stroke-width:6.48"/>
	<circle cx="1301.94" cy="1571.54" r="8.91" style="fill:#83082A"/>
	<circle cx="1301.94" cy="1571.54" r="5.67" style="fill:none;stroke:#83082A;stroke-width:6.48"/>
	<circle cx="1366.47" cy="1415.75" r="8.91" style="fill:#83082A"/>
	<circle cx="1366.47" cy="1415.75" r="5.67" style="fill:none;stroke:#83082A;stroke-width:6.48"/>
	<circle cx="1431.14" cy="1373.36" r="8.91" style="fill:#83082A"/>
	<circle cx="1431.14" cy="1373.36" r="5.67" style="fill:none;stroke:#83082A;stroke-width:6.48"/>
	<circle cx="1495.67" cy="1597.59" r="8.91" style="fill:#83082A"/>
	<circle cx="1495.67" cy="1597.59" r="5.67" style="fill:none;stroke:#83082A;stroke-width:6.48"/>
	<circle cx="1560.20" cy="1480.55" r="8.91" style="fill:#83082A"/>
	<circle cx="1560.20" cy="1480.55" r="5.67" style="fill:none;stroke:#83082A;stroke-width:6.48"/>
	<circle cx="1624.86" cy="1454.22" r="8.91" style="fill:#83082A"/>
	<circle cx="1624.86" cy="1454.22" r="5.67" style="fill:none;stroke:#83082A;stroke-width:6.48"/>
	<circle cx="1689.39" cy="1444.23" r="8.91" style="fill:#83082A"/>
	<circle cx="1689.39" cy="1444.23" r="5.67" style="fill:none;stroke:#83082A;stroke-width:6.48"/>
	<circle cx="1753.92" cy="1478.52" r="8.91" style="fill:#83082A"/>
	<circle cx="1753.92" cy="1478.52" r="5.67" style="fill:none;stroke:#83082A;stroke-width:6.48"/>
	<circle cx="1818.59" cy="1443.83" r="8.91" style="fill:#83082A"/>
	<circle cx="1818.59" cy="1443.83" r="5.67" style="fill:none;stroke:#83082A;stroke-width:6.48"/>
	<circle cx="1883.12" cy="1396.04" r="8.91" style="fill:#83082A"/>
	<circle cx="1883.12" cy="1396.04" r="5.67" style="fill:none;stroke:#83082A;stroke-width:6.48"/>
	<circle cx="1947.65" cy="1398.20" r="8.91" style="fill:#83082A"/>
	<circle cx="1947.65" cy="1398.20" r="5.67" style="fill:none;stroke:#83082A;stroke-width:6.48"/>
	<circle cx="2012.31" cy="1401.30" r="8.91" style="fill:#83082A"/>
	<circle cx="2012.31" cy="1401.30" r="5.67" style="fill:none;stroke:#83082A;stroke-width:6.48"/>
	<circle cx="2076.84" cy="1341.63" r="8.91" style="fill:#83082A"/>
	<circle cx="2076.84" cy="1341.63" r="5.67" style="fill:none;stroke:#83082A;stroke-width:6.48"/>
	<circle cx="2141.37" cy="1241.19" r="8.91" style="fill:#83082A"/>
	<circle cx="2141.37" cy="1241.19" r="5.67" style="fill:none;stroke:#83082A;stroke-width:6.48"/>
	<circle cx="2206.04" cy="1072.85" r="8.91" style="fill:#83082A"/>
	<circle cx="2206.04" cy="1072.85" r="5.67" style="fill:none;stroke:#83082A;stroke-width:6.48"/>
	<circle cx="2270.57" cy="1009.67" r="8.91" style="fill:#83082A"/>
	<circle cx="2270.57" cy="1009.67" r="5.67" style="fill:none;stroke:#83082A;stroke-width:6.48"/>
	<circle cx="2335.09" cy="1035.18" r="8.91" style="fill:#83082A"/>
	<circle cx="2335.09" cy="1035.18" r="5.67" style="fill:none;stroke:#83082A;stroke-width:6.48"/>
	<circle cx="2399.76" cy="1038.83" r="8.91" style="fill:#83082A"/>
	<circle cx="2399.76" cy="1038.83" r="5.67" style="fill:none;stroke:#83082A;stroke-width:6.48"/>
	<circle cx="2464.29" cy="1062.99" r="8.91" style="fill:#83082A"/>
	<circle cx="2464.29" cy="1062.99" r="5.67" style="fill:none;stroke:#83082A;stroke-width:6.48"/>
	<circle cx="2528.82" cy="1099.17" r="8.91" style="fill:#83082A"/>
	<circle cx="2528.82" cy="1099.17" r="5.67" style="fill:none;stroke:#83082A;stroke-width:6.48"/>
	<circle cx="2593.49" cy="1077.84" r="8.91" style="fill:#83082A"/>
	<circle cx="2593.49" cy="1077.84" r="5.67" style="fill:none;stroke:#83082A;stroke-width:6.48"/>
	<circle cx="2658.02" cy="1129.14" r="8.91" style="fill:#83082A"/>
	<circle cx="2658.02" cy="1129.14" r="5.67" style="fill:none;stroke:#83082A;stroke-width:6.48"/>
	<circle cx="2722.55" cy="1097.96" r="8.91" style="fill:#83082A"/>
	<circle cx="2722.55" cy="1097.96" r="5.67" style="fill:none;stroke:#83082A;stroke-width:6.48"/>
	<circle cx="2787.21" cy="1134.27" r="8.91" style="fill:#83082A"/>
	<circle cx="2787.21" cy="1134.27" r="5.67" style="fill:none;stroke:#83082A;stroke-width:6.48"/>
	<circle cx="2851.74" cy="1102.28" r="8.91" style="fill:#83082A"/>
	<circle cx="2851.74" cy="1102.28" r="5.67" style="fill:none;stroke:#83082A;stroke-width:6.48"/>
	<circle cx="2916.27" cy="1063.13" r="8.91" style="fill:#83082A"/>
	<circle cx="2916.27" cy="1063.13" r="5.67" style="fill:none;stroke:#83082A;stroke-width:6.48"/>
	<circle cx="2980.94" cy="903.42" r="8.91" style="fill:#83082A"/>
	<circle cx="2980.94" cy="903.42" r="5.67" style="fill:none;stroke:#83082A;stroke-width:6.48"/>
	<circle cx="3045.47" cy="845.37" r="8.91" style="fill:#83082A"/>
	<circle cx="3045.47" cy="845.37" r="5.67" style="fill:none;stroke:#83082A;stroke-width:6.48"/>
	<circle cx="3110.00" cy="874.80" r="8.91" style="fill:#83082A"/>
	<circle cx="3110.00" cy="874.80" r="5.67" style="fill:none;stroke:#83082A;stroke-width:6.48"/>
	<circle cx="3174.66" cy="842.13" r="8.91" style="fill:#83082A"/>
	<circle cx="3174.66" cy="842.13" r="5.67" style="fill:none;stroke:#83082A;stroke-width:6.48"/>
	<circle cx="3239.19" cy="848.61" r="8.91" style="fill:#83082A"/>
	<circle cx="3239.19" cy="848.61" r="5.67" style="fill:none;stroke:#83082A;stroke-width:6.48"/>
	<circle cx="3303.72" cy="883.71" r="8.91" style="fill:#83082A"/>
	<circle cx="3303.72" cy="883.71" r="5.67" style="fill:none;stroke:#83082A;stroke-width:6.48"/>
	<circle cx="3368.39" cy="845.51" r="8.91" style="fill:#83082A"/>
	<circle cx="3368.39" cy="845.51" r="5.67" style="fill:none;stroke:#83082A;stroke-width:6.48"/>
	<circle cx="3432.92" cy="816.08" r="8.91" style="fill:#83082A"/>
	<circle cx="3432.92" cy="816.08" r="5.67" style="fill:none;stroke:#83082A;stroke-width:6.48"/>
	<circle cx="3497.45" cy="812.16" r="8.91" style="fill:#83082A"/>
	<circle cx="3497.45" cy="812.16" r="5.67" style="fill:none;stroke:#83082A;stroke-width:6.48"/>
	<circle cx="3562.11" cy="826.74" r="8.91" style="fill:#83082A"/>
	<circle cx="3562.11" cy="826.74" r="5.67" style="fill:none;stroke:#83082A;stroke-width:6.48"/>
	<circle cx="3626.64" cy="800.82" r="8.91" style="fill:#83082A"/>
	<circle cx="3626.64" cy="800.82" r="5.67" style="fill:none;stroke:#83082A;stroke-width:6.48"/>
	<circle cx="3691.17" cy="745.34" r="8.91" style="fill:#83082A"/>
	<circle cx="3691.17" cy="745.34" r="5.67" style="fill:none;stroke:#83082A;stroke-width:6.48"/>
	<circle cx="3755.84" cy="574.69" r="8.91" style="fill:#83082A"/>
	<circle cx="3755.84" cy="574.69" r="5.67" style="fill:none;stroke:#83082A;stroke-width:6.48"/>
	<circle cx="3820.37" cy="524.88" r="8.91" style="fill:#83082A"/>
	<circle cx="3820.37" cy="524.88" r="5.67" style="fill:none;stroke:#83082A;stroke-width:6.48"/>
	<circle cx="3884.90" cy="548.51" r="8.91" style="fill:#83082A"/>
	<circle cx="3884.90" cy="548.51" r="5.67" style="fill:none;stroke:#83082A;stroke-width:6.48"/>
	<circle cx="3949.56" cy="537.57" r="8.91" style="fill:#83082A"/>
	<circle cx="3949.56" cy="537.57" r="5.67" style="fill:none;stroke:#83082A;stroke-width:6.48"/>
	<circle cx="4014.09" cy="566.60" r="8.91" style="fill:#83082A"/>
	<circle cx="4014.09" cy="566.60" r="5.67" style="fill:none;stroke:#83082A;stroke-width:6.48"/>
	<circle cx="4078.62" cy="626.27" r="8.91" style="fill:#83082A"/>
	<circle cx="4078.62" cy="626.27" r="5.67" style="fill:none;stroke:#83082A;stroke-width:6.48"/>
	<circle cx="4143.29" cy="577.26" r="8.91" style="fill:#83082A"/>
	<circle cx="4143.29" cy="577.26" r="5.67" style="fill:none;stroke:#83082A;stroke-width:6.48"/>
	<circle cx="4207.81" cy="573.62" r="8.91" style="fill:#83082A"/>
	<circle cx="4207.81" cy="573.62" r="5.67" style="fill:none;stroke:#83082A;stroke-width:6.48"/>
	<circle cx="4272.35" cy="521.37" r="8.91" style="fill:#83082A"/>
	<circle cx="4272.35" cy="521.37" r="5.67" style="fill:none;stroke:#83082A;stroke-width:6.48"/>
	<line x1="156.74" y1="2032.56" x2="156.74" y2="0.00" style="stroke:#404040;stroke-width:4.32"/>
	<line x1="156.74" y1="1985.04" x2="126.77" y2="1985.04" style="stroke:#000000;stroke-width:4.32"/>
	<text x="111.78" y="2006.05" style="font-family:'Century Gothic';font-size:59.94px;fill:#000000" text-anchor="end">-.1</text>
	<line x1="156.74" y1="1597.46" x2="126.77" y2="1597.46" style="stroke:#000000;stroke-width:4.32"/>
	<text x="111.78" y="1618.47" style="font-family:'Century Gothic';font-size:59.94px;fill:#000000" text-anchor="end">0</text>
	<line x1="156.74" y1="1210.01" x2="126.77" y2="1210.01" style="stroke:#000000;stroke-width:4.32"/>
	<text x="111.78" y="1231.02" style="font-family:'Century Gothic';font-size:59.94px;fill:#000000" text-anchor="end">.1</text>
	<line x1="156.74" y1="822.56" x2="126.77" y2="822.56" style="stroke:#000000;stroke-width:4.32"/>
	<text x="111.78" y="843.57" style="font-family:'Century Gothic';font-size:59.94px;fill:#000000" text-anchor="end">.2</text>
	<line x1="156.74" y1="434.97" x2="126.77" y2="434.97" style="stroke:#000000;stroke-width:4.32"/>
	<text x="111.78" y="455.98" style="font-family:'Century Gothic';font-size:59.94px;fill:#000000" text-anchor="end">.3</text>
	<line x1="156.74" y1="47.52" x2="126.77" y2="47.52" style="stroke:#000000;stroke-width:4.32"/>
	<text x="111.78" y="68.53" style="font-family:'Century Gothic';font-size:59.94px;fill:#000000" text-anchor="end">.4</text>
	<line x1="156.74" y1="2032.56" x2="4320.00" y2="2032.56" style="stroke:#404040;stroke-width:4.32"/>
	<line x1="268.79" y1="2032.56" x2="268.79" y2="2062.53" style="stroke:#000000;stroke-width:4.32"/>
	<text x="268.79" y="2119.41" style="font-family:'Century Gothic';font-size:59.94px;fill:#000000" text-anchor="middle">-20</text>
	<line x1="1560.33" y1="2032.56" x2="1560.33" y2="2062.53" style="stroke:#000000;stroke-width:4.32"/>
	<text x="1560.33" y="2119.41" style="font-family:'Century Gothic';font-size:59.94px;fill:#000000" text-anchor="middle">0</text>
	<line x1="2851.88" y1="2032.56" x2="2851.88" y2="2062.53" style="stroke:#000000;stroke-width:4.32"/>
	<text x="2851.88" y="2119.41" style="font-family:'Century Gothic';font-size:59.94px;fill:#000000" text-anchor="middle">20</text>
	<line x1="4143.29" y1="2032.56" x2="4143.29" y2="2062.53" style="stroke:#000000;stroke-width:4.32"/>
	<text x="4143.29" y="2119.41" style="font-family:'Century Gothic';font-size:59.94px;fill:#000000" text-anchor="middle">40</text>
</svg>
