<?xml version="1.0" encoding="UTF-8" standalone="no"?>
<!-- This is a Stata 19.5 generated SVG file (http://www.stata.com) -->

<svg version="1.1" width="6.000in" height="3.000in" viewBox="0 0 4320 2160" xmlns="http://www.w3.org/2000/svg" xmlns:xlink="http://www.w3.org/1999/xlink">
	<desc>Stata Graph - g_event</desc>
	<rect x="0" y="0" width="4320" height="2160" style="fill:#EAF2F3;stroke:none"/>
	<rect x="0.00" y="0.00" width="4320.00" height="2160.00" style="fill:#FFFFFF"/>
	<rect x="2.16" y="2.16" width="4315.68" height="2155.68" style="fill:none;stroke:#FFFFFF;stroke-width:4.32"/>
	<rect x="156.74" y="0.00" width="4163.27" height="2032.56" style="fill:#FFFFFF"/>
	<rect x="158.90" y="2.16" width="4158.95" height="2028.24" style="fill:none;stroke:#FFFFFF;stroke-width:4.32"/>
	<line x1="156.74" y1="1985.04" x2="4320.00" y2="1985.04" style="stroke:#CCCCCC;stroke-width:6.48"/>
	<line x1="156.74" y1="1500.66" x2="4320.00" y2="1500.66" style="stroke:#CCCCCC;stroke-width:6.48"/>
	<line x1="156.74" y1="1016.28" x2="4320.00" y2="1016.28" style="stroke:#CCCCCC;stroke-width:6.48"/>
	<line x1="156.74" y1="531.90" x2="4320.00" y2="531.90" style="stroke:#CCCCCC;stroke-width:6.48"/>
	<line x1="156.74" y1="47.52" x2="4320.00" y2="47.52" style="stroke:#CCCCCC;stroke-width:6.48"/>
	<line x1="1528.07" y1="2032.56" x2="1528.07" y2="1989.36" style="stroke:#404040;stroke-width:6.48"/>
	<line x1="1528.07" y1="1967.76" x2="1528.07" y2="1924.56" style="stroke:#404040;stroke-width:6.48"/>
	<line x1="1528.07" y1="1902.96" x2="1528.07" y2="1859.76" style="stroke:#404040;stroke-width:6.48"/>
	<line x1="1528.07" y1="1838.16" x2="1528.07" y2="1794.96" style="stroke:#404040;stroke-width:6.48"/>
	<line x1="1528.07" y1="1773.36" x2="1528.07" y2="1730.16" style="stroke:#404040;stroke-width:6.48"/>
	<line x1="1528.07" y1="1708.56" x2="1528.07" y2="1665.36" style="stroke:#404040;stroke-width:6.48"/>
	<line x1="1528.07" y1="1643.76" x2="1528.07" y2="1600.56" style="stroke:#404040;stroke-width:6.48"/>
	<line x1="1528.07" y1="1578.96" x2="1528.07" y2="1535.76" style="stroke:#404040;stroke-width:6.48"/>
	<line x1="1528.07" y1="1514.16" x2="1528.07" y2="1470.96" style="stroke:#404040;stroke-width:6.48"/>
	<line x1="1528.07" y1="1449.36" x2="1528.07" y2="1406.16" style="stroke:#404040;stroke-width:6.48"/>
	<line x1="1528.07" y1="1384.56" x2="1528.07" y2="1341.36" style="stroke:#404040;stroke-width:6.48"/>
	<line x1="1528.07" y1="1319.76" x2="1528.07" y2="1276.56" style="stroke:#404040;stroke-width:6.48"/>
	<line x1="1528.07" y1="1254.96" x2="1528.07" y2="1211.76" style="stroke:#404040;stroke-width:6.48"/>
	<line x1="1528.07" y1="1190.16" x2="1528.07" y2="1146.96" style="stroke:#404040;stroke-width:6.48"/>
	<line x1="1528.07" y1="1125.36" x2="1528.07" y2="1082.16" style="stroke:#404040;stroke-width:6.48"/>
	<line x1="1528.07" y1="1060.56" x2="1528.07" y2="1017.36" style="stroke:#404040;stroke-width:6.48"/>
	<line x1="1528.07" y1="995.76" x2="1528.07" y2="952.56" style="stroke:#404040;stroke-width:6.48"/>
	<line x1="1528.07" y1="930.96" x2="1528.07" y2="887.76" style="stroke:#404040;stroke-width:6.48"/>
	<line x1="1528.07" y1="866.16" x2="1528.07" y2="822.96" style="stroke:#404040;stroke-width:6.48"/>
	<line x1="1528.07" y1="801.36" x2="1528.07" y2="758.16" style="stroke:#404040;stroke-width:6.48"/>
	<line x1="1528.07" y1="736.56" x2="1528.07" y2="693.36" style="stroke:#404040;stroke-width:6.48"/>
	<line x1="1528.07" y1="671.76" x2="1528.07" y2="628.56" style="stroke:#404040;stroke-width:6.48"/>
	<line x1="1528.07" y1="606.96" x2="1528.07" y2="563.76" style="stroke:#404040;stroke-width:6.48"/>
	<line x1="1528.07" y1="542.16" x2="1528.07" y2="498.96" style="stroke:#404040;stroke-width:6.48"/>
	<line x1="1528.07" y1="477.36" x2="1528.07" y2="434.16" style="stroke:#404040;stroke-width:6.48"/>
	<line x1="1528.07" y1="412.56" x2="1528.07" y2="369.36" style="stroke:#404040;stroke-width:6.48"/>
	<line x1="1528.07" y1="347.76" x2="1528.07" y2="304.56" style="stroke:#404040;stroke-width:6.48"/>
	<line x1="1528.07" y1="282.96" x2="1528.07" y2="239.76" style="stroke:#404040;stroke-width:6.48"/>
	<line x1="1528.07" y1="218.16" x2="1528.07" y2="174.96" style="stroke:#404040;stroke-width:6.48"/>
	<line x1="1528.07" y1="153.36" x2="1528.07" y2="110.16" style="stroke:#404040;stroke-width:6.48"/>
	<line x1="1528.07" y1="88.56" x2="1528.07" y2="45.36" style="stroke:#404040;stroke-width:6.48"/>
	<line x1="1528.07" y1="23.76" x2="1528.07" y2="0.00" style="stroke:#404040;stroke-width:6.48"/>
	<line x1="156.74" y1="1500.66" x2="4320.00" y2="1500.66" style="stroke:#404040;stroke-width:6.48"/>
	<line x1="204.26" y1="1440.99" x2="204.26" y2="1590.44" style="stroke:#E397A0;stroke-width:6.48"/>
	<line x1="187.79" y1="1590.44" x2="220.73" y2="1590.44" stroke-linecap="round" style="stroke:#E397A0;stroke-width:6.48"/>
	<line x1="187.79" y1="1440.99" x2="220.73" y2="1440.99" stroke-linecap="round" style="stroke:#E397A0;stroke-width:6.48"/>
	<line x1="268.79" y1="1442.61" x2="268.79" y2="1597.19" style="stroke:#E397A0;stroke-width:6.48"/>
	<line x1="252.32" y1="1597.19" x2="285.26" y2="1597.19" stroke-linecap="round" style="stroke:#E397A0;stroke-width:6.48"/>
	<line x1="252.32" y1="1442.61" x2="285.26" y2="1442.61" stroke-linecap="round" style="stroke:#E397A0;stroke-width:6.48"/>
	<line x1="333.45" y1="1405.62" x2="333.45" y2="1547.91" style="stroke:#E397A0;stroke-width:6.48"/>
	<line x1="316.98" y1="1547.91" x2="349.92" y2="1547.91" stroke-linecap="round" style="stroke:#E397A0;stroke-width:6.48"/>
	<line x1="316.98" y1="1405.62" x2="349.92" y2="1405.62" stroke-linecap="round" style="stroke:#E397A0;stroke-width:6.48"/>
	<line x1="397.98" y1="1444.64" x2="397.98" y2="1590.57" style="stroke:#E397A0;stroke-width:6.48"/>
	<line x1="381.51" y1="1590.57" x2="414.45" y2="1590.57" stroke-linecap="round" style="stroke:#E397A0;stroke-width:6.48"/>
	<line x1="381.51" y1="1444.64" x2="414.45" y2="1444.64" stroke-linecap="round" style="stroke:#E397A0;stroke-width:6.48"/>
	<line x1="462.51" y1="1443.83" x2="462.51" y2="1603.80" style="stroke:#E397A0;stroke-width:6.48"/>
	<line x1="446.04" y1="1603.80" x2="478.98" y2="1603.80" stroke-linecap="round" style="stroke:#E397A0;stroke-width:6.48"/>
	<line x1="446.04" y1="1443.83" x2="478.98" y2="1443.83" stroke-linecap="round" style="stroke:#E397A0;stroke-width:6.48"/>
	<line x1="527.17" y1="1421.28" x2="527.17" y2="1577.21" style="stroke:#E397A0;stroke-width:6.48"/>
	<line x1="510.71" y1="1577.21" x2="543.65" y2="1577.21" stroke-linecap="round" style="stroke:#E397A0;stroke-width:6.48"/>
	<line x1="510.71" y1="1421.28" x2="543.65" y2="1421.28" stroke-linecap="round" style="stroke:#E397A0;stroke-width:6.48"/>
	<line x1="591.71" y1="1404.00" x2="591.71" y2="1532.52" style="stroke:#E397A0;stroke-width:6.48"/>
	<line x1="575.24" y1="1532.52" x2="608.17" y2="1532.52" stroke-linecap="round" style="stroke:#E397A0;stroke-width:6.48"/>
	<line x1="575.24" y1="1404.00" x2="608.17" y2="1404.00" stroke-linecap="round" style="stroke:#E397A0;stroke-width:6.48"/>
	<line x1="656.24" y1="1393.34" x2="656.24" y2="1536.30" style="stroke:#E397A0;stroke-width:6.48"/>
	<line x1="639.77" y1="1536.30" x2="672.71" y2="1536.30" stroke-linecap="round" style="stroke:#E397A0;stroke-width:6.48"/>
	<line x1="639.77" y1="1393.34" x2="672.71" y2="1393.34" stroke-linecap="round" style="stroke:#E397A0;stroke-width:6.48"/>
	<line x1="720.90" y1="1374.30" x2="720.90" y2="1508.76" style="stroke:#E397A0;stroke-width:6.48"/>
	<line x1="704.43" y1="1508.76" x2="737.37" y2="1508.76" stroke-linecap="round" style="stroke:#E397A0;stroke-width:6.48"/>
	<line x1="704.43" y1="1374.30" x2="737.37" y2="1374.30" stroke-linecap="round" style="stroke:#E397A0;stroke-width:6.48"/>
	<line x1="785.43" y1="1415.88" x2="785.43" y2="1542.38" style="stroke:#E397A0;stroke-width:6.48"/>
	<line x1="768.96" y1="1542.38" x2="801.90" y2="1542.38" stroke-linecap="round" style="stroke:#E397A0;stroke-width:6.48"/>
	<line x1="768.96" y1="1415.88" x2="801.90" y2="1415.88" stroke-linecap="round" style="stroke:#E397A0;stroke-width:6.48"/>
	<line x1="849.96" y1="1409.54" x2="849.96" y2="1535.76" style="stroke:#E397A0;stroke-width:6.48"/>
	<line x1="833.49" y1="1535.76" x2="866.43" y2="1535.76" stroke-linecap="round" style="stroke:#E397A0;stroke-width:6.48"/>
	<line x1="833.49" y1="1409.54" x2="866.43" y2="1409.54" stroke-linecap="round" style="stroke:#E397A0;stroke-width:6.48"/>
	<line x1="914.63" y1="1502.82" x2="914.63" y2="1627.02" style="stroke:#E397A0;stroke-width:6.48"/>
	<line x1="898.16" y1="1627.02" x2="931.10" y2="1627.02" stroke-linecap="round" style="stroke:#E397A0;stroke-width:6.48"/>
	<line x1="898.16" y1="1502.82" x2="931.10" y2="1502.82" stroke-linecap="round" style="stroke:#E397A0;stroke-width:6.48"/>
	<line x1="979.16" y1="1420.20" x2="979.16" y2="1567.35" style="stroke:#E397A0;stroke-width:6.48"/>
	<line x1="962.69" y1="1567.35" x2="995.63" y2="1567.35" stroke-linecap="round" style="stroke:#E397A0;stroke-width:6.48"/>
	<line x1="962.69" y1="1420.20" x2="995.63" y2="1420.20" stroke-linecap="round" style="stroke:#E397A0;stroke-width:6.48"/>
	<line x1="1043.69" y1="1430.87" x2="1043.69" y2="1565.19" style="stroke:#E397A0;stroke-width:6.48"/>
	<line x1="1027.21" y1="1565.19" x2="1060.16" y2="1565.19" stroke-linecap="round" style="stroke:#E397A0;stroke-width:6.48"/>
	<line x1="1027.21" y1="1430.87" x2="1060.16" y2="1430.87" stroke-linecap="round" style="stroke:#E397A0;stroke-width:6.48"/>
	<line x1="1108.35" y1="1457.33" x2="1108.35" y2="1589.63" style="stroke:#E397A0;stroke-width:6.48"/>
	<line x1="1091.88" y1="1589.63" x2="1124.82" y2="1589.63" stroke-linecap="round" style="stroke:#E397A0;stroke-width:6.48"/>
	<line x1="1091.88" y1="1457.33" x2="1124.82" y2="1457.33" stroke-linecap="round" style="stroke:#E397A0;stroke-width:6.48"/>
	<line x1="1172.88" y1="1495.53" x2="1172.88" y2="1632.42" style="stroke:#E397A0;stroke-width:6.48"/>
	<line x1="1156.41" y1="1632.42" x2="1189.35" y2="1632.42" stroke-linecap="round" style="stroke:#E397A0;stroke-width:6.48"/>
	<line x1="1156.41" y1="1495.53" x2="1189.35" y2="1495.53" stroke-linecap="round" style="stroke:#E397A0;stroke-width:6.48"/>
	<line x1="1237.41" y1="1498.23" x2="1237.41" y2="1623.11" style="stroke:#E397A0;stroke-width:6.48"/>
	<line x1="1220.94" y1="1623.11" x2="1253.88" y2="1623.11" stroke-linecap="round" style="stroke:#E397A0;stroke-width:6.48"/>
	<line x1="1220.94" y1="1498.23" x2="1253.88" y2="1498.23" stroke-linecap="round" style="stroke:#E397A0;stroke-width:6.48"/>
	<line x1="1302.08" y1="1478.79" x2="1302.08" y2="1607.18" style="stroke:#E397A0;stroke-width:6.48"/>
	<line x1="1285.61" y1="1607.18" x2="1318.55" y2="1607.18" stroke-linecap="round" style="stroke:#E397A0;stroke-width:6.48"/>
	<line x1="1285.61" y1="1478.79" x2="1318.55" y2="1478.79" stroke-linecap="round" style="stroke:#E397A0;stroke-width:6.48"/>
	<line x1="1366.61" y1="1413.32" x2="1366.61" y2="1525.91" style="stroke:#E397A0;stroke-width:6.48"/>
	<line x1="1350.14" y1="1525.91" x2="1383.08" y2="1525.91" stroke-linecap="round" style="stroke:#E397A0;stroke-width:6.48"/>
	<line x1="1350.14" y1="1413.32" x2="1383.08" y2="1413.32" stroke-linecap="round" style="stroke:#E397A0;stroke-width:6.48"/>
	<line x1="1431.14" y1="1396.71" x2="1431.14" y2="1502.82" style="stroke:#E397A0;stroke-width:6.48"/>
	<line x1="1414.67" y1="1502.82" x2="1447.61" y2="1502.82" stroke-linecap="round" style="stroke:#E397A0;stroke-width:6.48"/>
	<line x1="1414.67" y1="1396.71" x2="1447.61" y2="1396.71" stroke-linecap="round" style="stroke:#E397A0;stroke-width:6.48"/>
	<line x1="1560.33" y1="1373.76" x2="1560.33" y2="1507.14" style="stroke:#E397A0;stroke-width:6.48"/>
	<line x1="1543.86" y1="1507.14" x2="1576.80" y2="1507.14" stroke-linecap="round" style="stroke:#E397A0;stroke-width:6.48"/>
	<line x1="1543.86" y1="1373.76" x2="1576.80" y2="1373.76" stroke-linecap="round" style="stroke:#E397A0;stroke-width:6.48"/>
	<line x1="1624.86" y1="1309.77" x2="1624.86" y2="1497.96" style="stroke:#E397A0;stroke-width:6.48"/>
	<line x1="1608.39" y1="1497.96" x2="1641.33" y2="1497.96" stroke-linecap="round" style="stroke:#E397A0;stroke-width:6.48"/>
	<line x1="1608.39" y1="1309.77" x2="1641.33" y2="1309.77" stroke-linecap="round" style="stroke:#E397A0;stroke-width:6.48"/>
	<line x1="1689.53" y1="1311.93" x2="1689.53" y2="1510.38" style="stroke:#E397A0;stroke-width:6.48"/>
	<line x1="1673.06" y1="1510.38" x2="1706.00" y2="1510.38" stroke-linecap="round" style="stroke:#E397A0;stroke-width:6.48"/>
	<line x1="1673.06" y1="1311.93" x2="1706.00" y2="1311.93" stroke-linecap="round" style="stroke:#E397A0;stroke-width:6.48"/>
	<line x1="1754.06" y1="1304.64" x2="1754.06" y2="1504.98" style="stroke:#E397A0;stroke-width:6.48"/>
	<line x1="1737.59" y1="1504.98" x2="1770.53" y2="1504.98" stroke-linecap="round" style="stroke:#E397A0;stroke-width:6.48"/>
	<line x1="1737.59" y1="1304.64" x2="1770.53" y2="1304.64" stroke-linecap="round" style="stroke:#E397A0;stroke-width:6.48"/>
	<line x1="1818.59" y1="1292.76" x2="1818.59" y2="1512.00" style="stroke:#E397A0;stroke-width:6.48"/>
	<line x1="1802.12" y1="1512.00" x2="1835.06" y2="1512.00" stroke-linecap="round" style="stroke:#E397A0;stroke-width:6.48"/>
	<line x1="1802.12" y1="1292.76" x2="1835.06" y2="1292.76" stroke-linecap="round" style="stroke:#E397A0;stroke-width:6.48"/>
	<line x1="1883.25" y1="1249.16" x2="1883.25" y2="1493.10" style="stroke:#E397A0;stroke-width:6.48"/>
	<line x1="1866.78" y1="1493.10" x2="1899.72" y2="1493.10" stroke-linecap="round" style="stroke:#E397A0;stroke-width:6.48"/>
	<line x1="1866.78" y1="1249.16" x2="1899.72" y2="1249.16" stroke-linecap="round" style="stroke:#E397A0;stroke-width:6.48"/>
	<line x1="1947.78" y1="1181.12" x2="1947.78" y2="1451.39" style="stroke:#E397A0;stroke-width:6.48"/>
	<line x1="1931.31" y1="1451.39" x2="1964.25" y2="1451.39" stroke-linecap="round" style="stroke:#E397A0;stroke-width:6.48"/>
	<line x1="1931.31" y1="1181.12" x2="1964.25" y2="1181.12" stroke-linecap="round" style="stroke:#E397A0;stroke-width:6.48"/>
	<line x1="2012.31" y1="1148.99" x2="2012.31" y2="1430.05" style="stroke:#E397A0;stroke-width:6.48"/>
	<line x1="1995.84" y1="1430.05" x2="2028.78" y2="1430.05" stroke-linecap="round" style="stroke:#E397A0;stroke-width:6.48"/>
	<line x1="1995.84" y1="1148.99" x2="2028.78" y2="1148.99" stroke-linecap="round" style="stroke:#E397A0;stroke-width:6.48"/>
	<line x1="2076.98" y1="1119.69" x2="2076.98" y2="1410.89" style="stroke:#E397A0;stroke-width:6.48"/>
	<line x1="2060.51" y1="1410.89" x2="2093.45" y2="1410.89" stroke-linecap="round" style="stroke:#E397A0;stroke-width:6.48"/>
	<line x1="2060.51" y1="1119.69" x2="2093.45" y2="1119.69" stroke-linecap="round" style="stroke:#E397A0;stroke-width:6.48"/>
	<line x1="2141.51" y1="1073.93" x2="2141.51" y2="1382.54" style="stroke:#E397A0;stroke-width:6.48"/>
	<line x1="2125.04" y1="1382.54" x2="2157.98" y2="1382.54" stroke-linecap="round" style="stroke:#E397A0;stroke-width:6.48"/>
	<line x1="2125.04" y1="1073.93" x2="2157.98" y2="1073.93" stroke-linecap="round" style="stroke:#E397A0;stroke-width:6.48"/>
	<line x1="2206.04" y1="1021.28" x2="2206.04" y2="1329.08" style="stroke:#E397A0;stroke-width:6.48"/>
	<line x1="2189.57" y1="1329.08" x2="2222.51" y2="1329.08" stroke-linecap="round" style="stroke:#E397A0;stroke-width:6.48"/>
	<line x1="2189.57" y1="1021.28" x2="2222.51" y2="1021.28" stroke-linecap="round" style="stroke:#E397A0;stroke-width:6.48"/>
	<line x1="2270.70" y1="991.85" x2="2270.70" y2="1296.95" style="stroke:#E397A0;stroke-width:6.48"/>
	<line x1="2254.23" y1="1296.95" x2="2287.17" y2="1296.95" stroke-linecap="round" style="stroke:#E397A0;stroke-width:6.48"/>
	<line x1="2254.23" y1="991.85" x2="2287.17" y2="991.85" stroke-linecap="round" style="stroke:#E397A0;stroke-width:6.48"/>
	<line x1="2335.23" y1="961.34" x2="2335.23" y2="1280.88" style="stroke:#E397A0;stroke-width:6.48"/>
	<line x1="2318.76" y1="1280.88" x2="2351.70" y2="1280.88" stroke-linecap="round" style="stroke:#E397A0;stroke-width:6.48"/>
	<line x1="2318.76" y1="961.34" x2="2351.70" y2="961.34" stroke-linecap="round" style="stroke:#E397A0;stroke-width:6.48"/>
	<line x1="2399.76" y1="963.09" x2="2399.76" y2="1305.05" style="stroke:#E397A0;stroke-width:6.48"/>
	<line x1="2383.29" y1="1305.05" x2="2416.23" y2="1305.05" stroke-linecap="round" style="stroke:#E397A0;stroke-width:6.48"/>
	<line x1="2383.29" y1="963.09" x2="2416.23" y2="963.09" stroke-linecap="round" style="stroke:#E397A0;stroke-width:6.48"/>
	<line x1="2464.43" y1="943.79" x2="2464.43" y2="1308.15" style="stroke:#E397A0;stroke-width:6.48"/>
	<line x1="2447.96" y1="1308.15" x2="2480.90" y2="1308.15" stroke-linecap="round" style="stroke:#E397A0;stroke-width:6.48"/>
	<line x1="2447.96" y1="943.79" x2="2480.90" y2="943.79" stroke-linecap="round" style="stroke:#E397A0;stroke-width:6.48"/>
	<line x1="2528.96" y1="966.60" x2="2528.96" y2="1323.00" style="stroke:#E397A0;stroke-width:6.48"/>
	<line x1="2512.49" y1="1323.00" x2="2545.43" y2="1323.00" stroke-linecap="round" style="stroke:#E397A0;stroke-width:6.48"/>
	<line x1="2512.49" y1="966.60" x2="2545.43" y2="966.60" stroke-linecap="round" style="stroke:#E397A0;stroke-width:6.48"/>
	<line x1="2593.49" y1="980.78" x2="2593.49" y2="1347.71" style="stroke:#E397A0;stroke-width:6.48"/>
	<line x1="2577.02" y1="1347.71" x2="2609.96" y2="1347.71" stroke-linecap="round" style="stroke:#E397A0;stroke-width:6.48"/>
	<line x1="2577.02" y1="980.78" x2="2609.96" y2="980.78" stroke-linecap="round" style="stroke:#E397A0;stroke-width:6.48"/>
	<line x1="2658.15" y1="963.90" x2="2658.15" y2="1382.13" style="stroke:#E397A0;stroke-width:6.48"/>
	<line x1="2641.68" y1="1382.13" x2="2674.62" y2="1382.13" stroke-linecap="round" style="stroke:#E397A0;stroke-width:6.48"/>
	<line x1="2641.68" y1="963.90" x2="2674.62" y2="963.90" stroke-linecap="round" style="stroke:#E397A0;stroke-width:6.48"/>
	<line x1="2722.68" y1="948.51" x2="2722.68" y2="1396.17" style="stroke:#E397A0;stroke-width:6.48"/>
	<line x1="2706.21" y1="1396.17" x2="2739.15" y2="1396.17" stroke-linecap="round" style="stroke:#E397A0;stroke-width:6.48"/>
	<line x1="2706.21" y1="948.51" x2="2739.15" y2="948.51" stroke-linecap="round" style="stroke:#E397A0;stroke-width:6.48"/>
	<line x1="2787.21" y1="903.42" x2="2787.21" y2="1377.27" style="stroke:#E397A0;stroke-width:6.48"/>
	<line x1="2770.74" y1="1377.27" x2="2803.68" y2="1377.27" stroke-linecap="round" style="stroke:#E397A0;stroke-width:6.48"/>
	<line x1="2770.74" y1="903.42" x2="2803.68" y2="903.42" stroke-linecap="round" style="stroke:#E397A0;stroke-width:6.48"/>
	<line x1="2851.88" y1="891.41" x2="2851.88" y2="1385.64" style="stroke:#E397A0;stroke-width:6.48"/>
	<line x1="2835.41" y1="1385.64" x2="2868.35" y2="1385.64" stroke-linecap="round" style="stroke:#E397A0;stroke-width:6.48"/>
	<line x1="2835.41" y1="891.41" x2="2868.35" y2="891.41" stroke-linecap="round" style="stroke:#E397A0;stroke-width:6.48"/>
	<line x1="2916.41" y1="902.61" x2="2916.41" y2="1380.24" style="stroke:#E397A0;stroke-width:6.48"/>
	<line x1="2899.94" y1="1380.24" x2="2932.88" y2="1380.24" stroke-linecap="round" style="stroke:#E397A0;stroke-width:6.48"/>
	<line x1="2899.94" y1="902.61" x2="2932.88" y2="902.61" stroke-linecap="round" style="stroke:#E397A0;stroke-width:6.48"/>
	<line x1="2980.94" y1="859.28" x2="2980.94" y2="1350.81" style="stroke:#E397A0;stroke-width:6.48"/>
	<line x1="2964.47" y1="1350.81" x2="2997.41" y2="1350.81" stroke-linecap="round" style="stroke:#E397A0;stroke-width:6.48"/>
	<line x1="2964.47" y1="859.28" x2="2997.41" y2="859.28" stroke-linecap="round" style="stroke:#E397A0;stroke-width:6.48"/>
	<line x1="3045.60" y1="814.19" x2="3045.60" y2="1323.00" style="stroke:#E397A0;stroke-width:6.48"/>
	<line x1="3029.13" y1="1323.00" x2="3062.07" y2="1323.00" stroke-linecap="round" style="stroke:#E397A0;stroke-width:6.48"/>
	<line x1="3029.13" y1="814.19" x2="3062.07" y2="814.19" stroke-linecap="round" style="stroke:#E397A0;stroke-width:6.48"/>
	<line x1="3110.13" y1="807.84" x2="3110.13" y2="1339.61" style="stroke:#E397A0;stroke-width:6.48"/>
	<line x1="3093.66" y1="1339.61" x2="3126.60" y2="1339.61" stroke-linecap="round" style="stroke:#E397A0;stroke-width:6.48"/>
	<line x1="3093.66" y1="807.84" x2="3126.60" y2="807.84" stroke-linecap="round" style="stroke:#E397A0;stroke-width:6.48"/>
	<line x1="3174.66" y1="778.68" x2="3174.66" y2="1338.93" style="stroke:#E397A0;stroke-width:6.48"/>
	<line x1="3158.19" y1="1338.93" x2="3191.13" y2="1338.93" stroke-linecap="round" style="stroke:#E397A0;stroke-width:6.48"/>
	<line x1="3158.19" y1="778.68" x2="3191.13" y2="778.68" stroke-linecap="round" style="stroke:#E397A0;stroke-width:6.48"/>
	<line x1="3239.33" y1="754.24" x2="3239.33" y2="1301.94" style="stroke:#E397A0;stroke-width:6.48"/>
	<line x1="3222.86" y1="1301.94" x2="3255.80" y2="1301.94" stroke-linecap="round" style="stroke:#E397A0;stroke-width:6.48"/>
	<line x1="3222.86" y1="754.24" x2="3255.80" y2="754.24" stroke-linecap="round" style="stroke:#E397A0;stroke-width:6.48"/>
	<line x1="3303.86" y1="784.35" x2="3303.86" y2="1335.55" style="stroke:#E397A0;stroke-width:6.48"/>
	<line x1="3287.39" y1="1335.55" x2="3320.33" y2="1335.55" stroke-linecap="round" style="stroke:#E397A0;stroke-width:6.48"/>
	<line x1="3287.39" y1="784.35" x2="3320.33" y2="784.35" stroke-linecap="round" style="stroke:#E397A0;stroke-width:6.48"/>
	<line x1="3368.39" y1="770.31" x2="3368.39" y2="1322.19" style="stroke:#E397A0;stroke-width:6.48"/>
	<line x1="3351.92" y1="1322.19" x2="3384.86" y2="1322.19" stroke-linecap="round" style="stroke:#E397A0;stroke-width:6.48"/>
	<line x1="3351.92" y1="770.31" x2="3384.86" y2="770.31" stroke-linecap="round" style="stroke:#E397A0;stroke-width:6.48"/>
	<line x1="3433.05" y1="677.03" x2="3433.05" y2="1251.05" style="stroke:#E397A0;stroke-width:6.48"/>
	<line x1="3416.58" y1="1251.05" x2="3449.52" y2="1251.05" stroke-linecap="round" style="stroke:#E397A0;stroke-width:6.48"/>
	<line x1="3416.58" y1="677.03" x2="3449.52" y2="677.03" stroke-linecap="round" style="stroke:#E397A0;stroke-width:6.48"/>
	<line x1="3497.58" y1="659.47" x2="3497.58" y2="1260.49" style="stroke:#E397A0;stroke-width:6.48"/>
	<line x1="3481.11" y1="1260.49" x2="3514.05" y2="1260.49" stroke-linecap="round" style="stroke:#E397A0;stroke-width:6.48"/>
	<line x1="3481.11" y1="659.47" x2="3514.05" y2="659.47" stroke-linecap="round" style="stroke:#E397A0;stroke-width:6.48"/>
	<line x1="3562.11" y1="652.18" x2="3562.11" y2="1262.52" style="stroke:#E397A0;stroke-width:6.48"/>
	<line x1="3545.64" y1="1262.52" x2="3578.58" y2="1262.52" stroke-linecap="round" style="stroke:#E397A0;stroke-width:6.48"/>
	<line x1="3545.64" y1="652.18" x2="3578.58" y2="652.18" stroke-linecap="round" style="stroke:#E397A0;stroke-width:6.48"/>
	<line x1="3626.78" y1="608.31" x2="3626.78" y2="1229.45" style="stroke:#E397A0;stroke-width:6.48"/>
	<line x1="3610.31" y1="1229.45" x2="3643.25" y2="1229.45" stroke-linecap="round" style="stroke:#E397A0;stroke-width:6.48"/>
	<line x1="3610.31" y1="608.31" x2="3643.25" y2="608.31" stroke-linecap="round" style="stroke:#E397A0;stroke-width:6.48"/>
	<line x1="3691.31" y1="577.13" x2="3691.31" y2="1200.69" style="stroke:#E397A0;stroke-width:6.48"/>
	<line x1="3674.84" y1="1200.69" x2="3707.78" y2="1200.69" stroke-linecap="round" style="stroke:#E397A0;stroke-width:6.48"/>
	<line x1="3674.84" y1="577.13" x2="3707.78" y2="577.13" stroke-linecap="round" style="stroke:#E397A0;stroke-width:6.48"/>
	<line x1="3755.84" y1="511.52" x2="3755.84" y2="1150.88" style="stroke:#E397A0;stroke-width:6.48"/>
	<line x1="3739.37" y1="1150.88" x2="3772.31" y2="1150.88" stroke-linecap="round" style="stroke:#E397A0;stroke-width:6.48"/>
	<line x1="3739.37" y1="511.52" x2="3772.31" y2="511.52" stroke-linecap="round" style="stroke:#E397A0;stroke-width:6.48"/>
	<line x1="3820.50" y1="500.17" x2="3820.50" y2="1137.92" style="stroke:#E397A0;stroke-width:6.48"/>
	<line x1="3804.03" y1="1137.92" x2="3836.97" y2="1137.92" stroke-linecap="round" style="stroke:#E397A0;stroke-width:6.48"/>
	<line x1="3804.03" y1="500.17" x2="3836.97" y2="500.17" stroke-linecap="round" style="stroke:#E397A0;stroke-width:6.48"/>
	<line x1="3885.03" y1="458.33" x2="3885.03" y2="1116.18" style="stroke:#E397A0;stroke-width:6.48"/>
	<line x1="3868.56" y1="1116.18" x2="3901.50" y2="1116.18" stroke-linecap="round" style="stroke:#E397A0;stroke-width:6.48"/>
	<line x1="3868.56" y1="458.33" x2="3901.50" y2="458.33" stroke-linecap="round" style="stroke:#E397A0;stroke-width:6.48"/>
	<line x1="3949.56" y1="476.28" x2="3949.56" y2="1148.04" style="stroke:#E397A0;stroke-width:6.48"/>
	<line x1="3933.09" y1="1148.04" x2="3966.03" y2="1148.04" stroke-linecap="round" style="stroke:#E397A0;stroke-width:6.48"/>
	<line x1="3933.09" y1="476.28" x2="3966.03" y2="476.28" stroke-linecap="round" style="stroke:#E397A0;stroke-width:6.48"/>
	<line x1="4014.23" y1="448.20" x2="4014.23" y2="1139.80" style="stroke:#E397A0;stroke-width:6.48"/>
	<line x1="3997.76" y1="1139.80" x2="4030.70" y2="1139.80" stroke-linecap="round" style="stroke:#E397A0;stroke-width:6.48"/>
	<line x1="3997.76" y1="448.20" x2="4030.70" y2="448.20" stroke-linecap="round" style="stroke:#E397A0;stroke-width:6.48"/>
	<line x1="4078.76" y1="537.30" x2="4078.76" y2="1214.33" style="stroke:#E397A0;stroke-width:6.48"/>
	<line x1="4062.29" y1="1214.33" x2="4095.23" y2="1214.33" stroke-linecap="round" style="stroke:#E397A0;stroke-width:6.48"/>
	<line x1="4062.29" y1="537.30" x2="4095.23" y2="537.30" stroke-linecap="round" style="stroke:#E397A0;stroke-width:6.48"/>
	<line x1="4143.29" y1="481.82" x2="4143.29" y2="1158.03" style="stroke:#E397A0;stroke-width:6.48"/>
	<line x1="4126.81" y1="1158.03" x2="4159.76" y2="1158.03" stroke-linecap="round" style="stroke:#E397A0;stroke-width:6.48"/>
	<line x1="4126.81" y1="481.82" x2="4159.76" y2="481.82" stroke-linecap="round" style="stroke:#E397A0;stroke-width:6.48"/>
	<line x1="4207.95" y1="426.46" x2="4207.95" y2="1124.28" style="stroke:#E397A0;stroke-width:6.48"/>
	<line x1="4191.48" y1="1124.28" x2="4224.42" y2="1124.28" stroke-linecap="round" style="stroke:#E397A0;stroke-width:6.48"/>
	<line x1="4191.48" y1="426.46" x2="4224.42" y2="426.46" stroke-linecap="round" style="stroke:#E397A0;stroke-width:6.48"/>
	<line x1="4272.48" y1="340.07" x2="4272.48" y2="1057.32" style="stroke:#E397A0;stroke-width:6.48"/>
	<line x1="4256.01" y1="1057.32" x2="4288.95" y2="1057.32" stroke-linecap="round" style="stroke:#E397A0;stroke-width:6.48"/>
	<line x1="4256.01" y1="340.07" x2="4288.95" y2="340.07" stroke-linecap="round" style="stroke:#E397A0;stroke-width:6.48"/>
	<path d=" M204.12 1515.78 L268.79 1519.97 L333.32 1476.90 L397.85 1517.67 L462.51 1523.88 L527.04 1499.31 L591.57 1468.26 L656.24 1464.89 L720.77 1441.53 L785.30 1479.20 L849.96 1472.72 L914.49 1564.92 L979.02 1493.78 L1043.69 1498.10 L1108.21 1523.48 L1172.74 1563.98 L1237.41 1560.74 L1301.94 1543.05 L1366.47 1469.75 L1431.14 1449.77 L1495.67 1500.66 L1560.20 1440.59 L1624.86 1403.87 L1689.39 1411.29 L1753.92 1404.95 L1818.59 1402.52 L1883.12 1371.20 L1947.65 1316.39 L2012.31 1289.66 L2076.84 1265.36 L2141.37 1228.23 L2206.04 1175.18 L2270.57 1144.40 L2335.09 1121.18 L2399.76 1134.14 L2464.29 1126.04 L2528.82 1144.80 L2593.49 1164.24 L2658.02 1173.15 L2722.55 1172.34 L2787.21 1140.48 L2851.74 1138.59 L2916.27 1141.56 L2980.94 1105.11 L3045.47 1068.66 L3110.00 1073.79 L3174.66 1058.81 L3239.19 1028.16 L3303.72 1060.02 L3368.39 1046.25 L3432.92 964.04 L3497.45 960.12 L3562.11 957.42 L3626.64 918.95 L3691.17 888.97 L3755.84 831.20 L3820.37 819.05 L3884.90 787.32 L3949.56 812.16 L4014.09 794.07 L4078.62 875.88 L4143.29 819.99 L4207.81 775.44 L4272.35 698.76" stroke-linejoin="round" style="fill:none;stroke:#83082A;stroke-width:9.72"/>
	<circle cx="204.12" cy="1515.78" r="8.91" style="fill:#83082A"/>
	<circle cx="204.12" cy="1515.78" r="5.67" style="fill:none;stroke:#83082A;stroke-width:6.48"/>
	<circle cx="268.79" cy="1519.97" r="8.91" style="fill:#83082A"/>
	<circle cx="268.79" cy="1519.97" r="5.67" style="fill:none;stroke:#83082A;stroke-width:6.48"/>
	<circle cx="333.32" cy="1476.90" r="8.91" style="fill:#83082A"/>
	<circle cx="333.32" cy="1476.90" r="5.67" style="fill:none;stroke:#83082A;stroke-width:6.48"/>
	<circle cx="397.85" cy="1517.67" r="8.91" style="fill:#83082A"/>
	<circle cx="397.85" cy="1517.67" r="5.67" style="fill:none;stroke:#83082A;stroke-width:6.48"/>
	<circle cx="462.51" cy="1523.88" r="8.91" style="fill:#83082A"/>
	<circle cx="462.51" cy="1523.88" r="5.67" style="fill:none;stroke:#83082A;stroke-width:6.48"/>
	<circle cx="527.04" cy="1499.31" r="8.91" style="fill:#83082A"/>
	<circle cx="527.04" cy="1499.31" r="5.67" style="fill:none;stroke:#83082A;stroke-width:6.48"/>
	<circle cx="591.57" cy="1468.26" r="8.91" style="fill:#83082A"/>
	<circle cx="591.57" cy="1468.26" r="5.67" style="fill:none;stroke:#83082A;stroke-width:6.48"/>
	<circle cx="656.24" cy="1464.89" r="8.91" style="fill:#83082A"/>
	<circle cx="656.24" cy="1464.89" r="5.67" style="fill:none;stroke:#83082A;stroke-width:6.48"/>
	<circle cx="720.77" cy="1441.53" r="8.91" style="fill:#83082A"/>
	<circle cx="720.77" cy="1441.53" r="5.67" style="fill:none;stroke:#83082A;stroke-width:6.48"/>
	<circle cx="785.30" cy="1479.20" r="8.91" style="fill:#83082A"/>
	<circle cx="785.30" cy="1479.20" r="5.67" style="fill:none;stroke:#83082A;stroke-width:6.48"/>
	<circle cx="849.96" cy="1472.72" r="8.91" style="fill:#83082A"/>
	<circle cx="849.96" cy="1472.72" r="5.67" style="fill:none;stroke:#83082A;stroke-width:6.48"/>
	<circle cx="914.49" cy="1564.92" r="8.91" style="fill:#83082A"/>
	<circle cx="914.49" cy="1564.92" r="5.67" style="fill:none;stroke:#83082A;stroke-width:6.48"/>
	<circle cx="979.02" cy="1493.78" r="8.91" style="fill:#83082A"/>
	<circle cx="979.02" cy="1493.78" r="5.67" style="fill:none;stroke:#83082A;stroke-width:6.48"/>
	<circle cx="1043.69" cy="1498.10" r="8.91" style="fill:#83082A"/>
	<circle cx="1043.69" cy="1498.10" r="5.67" style="fill:none;stroke:#83082A;stroke-width:6.48"/>
	<circle cx="1108.21" cy="1523.48" r="8.91" style="fill:#83082A"/>
	<circle cx="1108.21" cy="1523.48" r="5.67" style="fill:none;stroke:#83082A;stroke-width:6.48"/>
	<circle cx="1172.74" cy="1563.98" r="8.91" style="fill:#83082A"/>
	<circle cx="1172.74" cy="1563.98" r="5.67" style="fill:none;stroke:#83082A;stroke-width:6.48"/>
	<circle cx="1237.41" cy="1560.74" r="8.91" style="fill:#83082A"/>
	<circle cx="1237.41" cy="1560.74" r="5.67" style="fill:none;stroke:#83082A;stroke-width:6.48"/>
	<circle cx="1301.94" cy="1543.05" r="8.91" style="fill:#83082A"/>
	<circle cx="1301.94" cy="1543.05" r="5.67" style="fill:none;stroke:#83082A;stroke-width:6.48"/>
	<circle cx="1366.47" cy="1469.75" r="8.91" style="fill:#83082A"/>
	<circle cx="1366.47" cy="1469.75" r="5.67" style="fill:none;stroke:#83082A;stroke-width:6.48"/>
	<circle cx="1431.14" cy="1449.77" r="8.91" style="fill:#83082A"/>
	<circle cx="1431.14" cy="1449.77" r="5.67" style="fill:none;stroke:#83082A;stroke-width:6.48"/>
	<circle cx="1495.67" cy="1500.66" r="8.91" style="fill:#83082A"/>
	<circle cx="1495.67" cy="1500.66" r="5.67" style="fill:none;stroke:#83082A;stroke-width:6.48"/>
	<circle cx="1560.20" cy="1440.59" r="8.91" style="fill:#83082A"/>
	<circle cx="1560.20" cy="1440.59" r="5.67" style="fill:none;stroke:#83082A;stroke-width:6.48"/>
	<circle cx="1624.86" cy="1403.87" r="8.91" style="fill:#83082A"/>
	<circle cx="1624.86" cy="1403.87" r="5.67" style="fill:none;stroke:#83082A;stroke-width:6.48"/>
	<circle cx="1689.39" cy="1411.29" r="8.91" style="fill:#83082A"/>
	<circle cx="1689.39" cy="1411.29" r="5.67" style="fill:none;stroke:#83082A;stroke-width:6.48"/>
	<circle cx="1753.92" cy="1404.95" r="8.91" style="fill:#83082A"/>
	<circle cx="1753.92" cy="1404.95" r="5.67" style="fill:none;stroke:#83082A;stroke-width:6.48"/>
	<circle cx="1818.59" cy="1402.52" r="8.91" style="fill:#83082A"/>
	<circle cx="1818.59" cy="1402.52" r="5.67" style="fill:none;stroke:#83082A;stroke-width:6.48"/>
	<circle cx="1883.12" cy="1371.20" r="8.91" style="fill:#83082A"/>
	<circle cx="1883.12" cy="1371.20" r="5.67" style="fill:none;stroke:#83082A;stroke-width:6.48"/>
	<circle cx="1947.65" cy="1316.39" r="8.91" style="fill:#83082A"/>
	<circle cx="1947.65" cy="1316.39" r="5.67" style="fill:none;stroke:#83082A;stroke-width:6.48"/>
	<circle cx="2012.31" cy="1289.66" r="8.91" style="fill:#83082A"/>
	<circle cx="2012.31" cy="1289.66" r="5.67" style="fill:none;stroke:#83082A;stroke-width:6.48"/>
	<circle cx="2076.84" cy="1265.36" r="8.91" style="fill:#83082A"/>
	<circle cx="2076.84" cy="1265.36" r="5.67" style="fill:none;stroke:#83082A;stroke-width:6.48"/>
	<circle cx="2141.37" cy="1228.23" r="8.91" style="fill:#83082A"/>
	<circle cx="2141.37" cy="1228.23" r="5.67" style="fill:none;stroke:#83082A;stroke-width:6.48"/>
	<circle cx="2206.04" cy="1175.18" r="8.91" style="fill:#83082A"/>
	<circle cx="2206.04" cy="1175.18" r="5.67" style="fill:none;stroke:#83082A;stroke-width:6.48"/>
	<circle cx="2270.57" cy="1144.40" r="8.91" style="fill:#83082A"/>
	<circle cx="2270.57" cy="1144.40" r="5.67" style="fill:none;stroke:#83082A;stroke-width:6.48"/>
	<circle cx="2335.09" cy="1121.18" r="8.91" style="fill:#83082A"/>
	<circle cx="2335.09" cy="1121.18" r="5.67" style="fill:none;stroke:#83082A;stroke-width:6.48"/>
	<circle cx="2399.76" cy="1134.14" r="8.91" style="fill:#83082A"/>
	<circle cx="2399.76" cy="1134.14" r="5.67" style="fill:none;stroke:#83082A;stroke-width:6.48"/>
	<circle cx="2464.29" cy="1126.04" r="8.91" style="fill:#83082A"/>
	<circle cx="2464.29" cy="1126.04" r="5.67" style="fill:none;stroke:#83082A;stroke-width:6.48"/>
	<circle cx="2528.82" cy="1144.80" r="8.91" style="fill:#83082A"/>
	<circle cx="2528.82" cy="1144.80" r="5.67" style="fill:none;stroke:#83082A;stroke-width:6.48"/>
	<circle cx="2593.49" cy="1164.24" r="8.91" style="fill:#83082A"/>
	<circle cx="2593.49" cy="1164.24" r="5.67" style="fill:none;stroke:#83082A;stroke-width:6.48"/>
	<circle cx="2658.02" cy="1173.15" r="8.91" style="fill:#83082A"/>
	<circle cx="2658.02" cy="1173.15" r="5.67" style="fill:none;stroke:#83082A;stroke-width:6.48"/>
	<circle cx="2722.55" cy="1172.34" r="8.91" style="fill:#83082A"/>
	<circle cx="2722.55" cy="1172.34" r="5.67" style="fill:none;stroke:#83082A;stroke-width:6.48"/>
	<circle cx="2787.21" cy="1140.48" r="8.91" style="fill:#83082A"/>
	<circle cx="2787.21" cy="1140.48" r="5.67" style="fill:none;stroke:#83082A;stroke-width:6.48"/>
	<circle cx="2851.74" cy="1138.59" r="8.91" style="fill:#83082A"/>
	<circle cx="2851.74" cy="1138.59" r="5.67" style="fill:none;stroke:#83082A;stroke-width:6.48"/>
	<circle cx="2916.27" cy="1141.56" r="8.91" style="fill:#83082A"/>
	<circle cx="2916.27" cy="1141.56" r="5.67" style="fill:none;stroke:#83082A;stroke-width:6.48"/>
	<circle cx="2980.94" cy="1105.11" r="8.91" style="fill:#83082A"/>
	<circle cx="2980.94" cy="1105.11" r="5.67" style="fill:none;stroke:#83082A;stroke-width:6.48"/>
	<circle cx="3045.47" cy="1068.66" r="8.91" style="fill:#83082A"/>
	<circle cx="3045.47" cy="1068.66" r="5.67" style="fill:none;stroke:#83082A;stroke-width:6.48"/>
	<circle cx="3110.00" cy="1073.79" r="8.91" style="fill:#83082A"/>
	<circle cx="3110.00" cy="1073.79" r="5.67" style="fill:none;stroke:#83082A;stroke-width:6.48"/>
	<circle cx="3174.66" cy="1058.81" r="8.91" style="fill:#83082A"/>
	<circle cx="3174.66" cy="1058.81" r="5.67" style="fill:none;stroke:#83082A;stroke-width:6.48"/>
	<circle cx="3239.19" cy="1028.16" r="8.91" style="fill:#83082A"/>
	<circle cx="3239.19" cy="1028.16" r="5.67" style="fill:none;stroke:#83082A;stroke-width:6.48"/>
	<circle cx="3303.72" cy="1060.02" r="8.91" style="fill:#83082A"/>
	<circle cx="3303.72" cy="1060.02" r="5.67" style="fill:none;stroke:#83082A;stroke-width:6.48"/>
	<circle cx="3368.39" cy="1046.25" r="8.91" style="fill:#83082A"/>
	<circle cx="3368.39" cy="1046.25" r="5.67" style="fill:none;stroke:#83082A;stroke-width:6.48"/>
	<circle cx="3432.92" cy="964.04" r="8.91" style="fill:#83082A"/>
	<circle cx="3432.92" cy="964.04" r="5.67" style="fill:none;stroke:#83082A;stroke-width:6.48"/>
	<circle cx="3497.45" cy="960.12" r="8.91" style="fill:#83082A"/>
	<circle cx="3497.45" cy="960.12" r="5.67" style="fill:none;stroke:#83082A;stroke-width:6.48"/>
	<circle cx="3562.11" cy="957.42" r="8.91" style="fill:#83082A"/>
	<circle cx="3562.11" cy="957.42" r="5.67" style="fill:none;stroke:#83082A;stroke-width:6.48"/>
	<circle cx="3626.64" cy="918.95" r="8.91" style="fill:#83082A"/>
	<circle cx="3626.64" cy="918.95" r="5.67" style="fill:none;stroke:#83082A;stroke-width:6.48"/>
	<circle cx="3691.17" cy="888.97" r="8.91" style="fill:#83082A"/>
	<circle cx="3691.17" cy="888.97" r="5.67" style="fill:none;stroke:#83082A;stroke-width:6.48"/>
	<circle cx="3755.84" cy="831.20" r="8.91" style="fill:#83082A"/>
	<circle cx="3755.84" cy="831.20" r="5.67" style="fill:none;stroke:#83082A;stroke-width:6.48"/>
	<circle cx="3820.37" cy="819.05" r="8.91" style="fill:#83082A"/>
	<circle cx="3820.37" cy="819.05" r="5.67" style="fill:none;stroke:#83082A;stroke-width:6.48"/>
	<circle cx="3884.90" cy="787.32" r="8.91" style="fill:#83082A"/>
	<circle cx="3884.90" cy="787.32" r="5.67" style="fill:none;stroke:#83082A;stroke-width:6.48"/>
	<circle cx="3949.56" cy="812.16" r="8.91" style="fill:#83082A"/>
	<circle cx="3949.56" cy="812.16" r="5.67" style="fill:none;stroke:#83082A;stroke-width:6.48"/>
	<circle cx="4014.09" cy="794.07" r="8.91" style="fill:#83082A"/>
	<circle cx="4014.09" cy="794.07" r="5.67" style="fill:none;stroke:#83082A;stroke-width:6.48"/>
	<circle cx="4078.62" cy="875.88" r="8.91" style="fill:#83082A"/>
	<circle cx="4078.62" cy="875.88" r="5.67" style="fill:none;stroke:#83082A;stroke-width:6.48"/>
	<circle cx="4143.29" cy="819.99" r="8.91" style="fill:#83082A"/>
	<circle cx="4143.29" cy="819.99" r="5.67" style="fill:none;stroke:#83082A;stroke-width:6.48"/>
	<circle cx="4207.81" cy="775.44" r="8.91" style="fill:#83082A"/>
	<circle cx="4207.81" cy="775.44" r="5.67" style="fill:none;stroke:#83082A;stroke-width:6.48"/>
	<circle cx="4272.35" cy="698.76" r="8.91" style="fill:#83082A"/>
	<circle cx="4272.35" cy="698.76" r="5.67" style="fill:none;stroke:#83082A;stroke-width:6.48"/>
	<line x1="156.74" y1="2032.56" x2="156.74" y2="0.00" style="stroke:#404040;stroke-width:4.32"/>
	<line x1="156.74" y1="1985.04" x2="126.77" y2="1985.04" style="stroke:#000000;stroke-width:4.32"/>
	<text x="111.78" y="2006.05" style="font-family:'Century Gothic';font-size:59.94px;fill:#000000" text-anchor="end">-.1</text>
	<line x1="156.74" y1="1500.66" x2="126.77" y2="1500.66" style="stroke:#000000;stroke-width:4.32"/>
	<text x="111.78" y="1521.67" style="font-family:'Century Gothic';font-size:59.94px;fill:#000000" text-anchor="end">0</text>
	<line x1="156.74" y1="1016.28" x2="126.77" y2="1016.28" style="stroke:#000000;stroke-width:4.32"/>
	<text x="111.78" y="1037.29" style="font-family:'Century Gothic';font-size:59.94px;fill:#000000" text-anchor="end">.1</text>
	<line x1="156.74" y1="531.90" x2="126.77" y2="531.90" style="stroke:#000000;stroke-width:4.32"/>
	<text x="111.78" y="552.91" style="font-family:'Century Gothic';font-size:59.94px;fill:#000000" text-anchor="end">.2</text>
	<line x1="156.74" y1="47.52" x2="126.77" y2="47.52" style="stroke:#000000;stroke-width:4.32"/>
	<text x="111.78" y="68.53" style="font-family:'Century Gothic';font-size:59.94px;fill:#000000" text-anchor="end">.3</text>
	<line x1="156.74" y1="2032.56" x2="4320.00" y2="2032.56" style="stroke:#404040;stroke-width:4.32"/>
	<line x1="268.79" y1="2032.56" x2="268.79" y2="2062.53" style="stroke:#000000;stroke-width:4.32"/>
	<text x="268.79" y="2119.41" style="font-family:'Century Gothic';font-size:59.94px;fill:#000000" text-anchor="middle">-20</text>
	<line x1="1560.33" y1="2032.56" x2="1560.33" y2="2062.53" style="stroke:#000000;stroke-width:4.32"/>
	<text x="1560.33" y="2119.41" style="font-family:'Century Gothic';font-size:59.94px;fill:#000000" text-anchor="middle">0</text>
	<line x1="2851.88" y1="2032.56" x2="2851.88" y2="2062.53" style="stroke:#000000;stroke-width:4.32"/>
	<text x="2851.88" y="2119.41" style="font-family:'Century Gothic';font-size:59.94px;fill:#000000" text-anchor="middle">20</text>
	<line x1="4143.29" y1="2032.56" x2="4143.29" y2="2062.53" style="stroke:#000000;stroke-width:4.32"/>
	<text x="4143.29" y="2119.41" style="font-family:'Century Gothic';font-size:59.94px;fill:#000000" text-anchor="middle">40</text>
</svg>
