<?xml version="1.0" encoding="UTF-8" standalone="no"?>
<!-- This is a Stata 19.5 generated SVG file (http://www.stata.com) -->

<svg version="1.1" width="6.000in" height="3.000in" viewBox="0 0 4320 2160" xmlns="http://www.w3.org/2000/svg" xmlns:xlink="http://www.w3.org/1999/xlink">
	<desc>Stata Graph - g_levels</desc>
	<rect x="0" y="0" width="4320" height="2160" style="fill:#EAF2F3;stroke:none"/>
	<rect x="0.00" y="0.00" width="4320.00" height="2160.00" style="fill:#FFFFFF"/>
	<rect x="2.16" y="2.16" width="4315.68" height="2155.68" style="fill:none;stroke:#FFFFFF;stroke-width:4.32"/>
	<rect x="170.78" y="0.00" width="4149.23" height="1840.86" style="fill:#FFFFFF"/>
	<rect x="172.94" y="2.16" width="4144.91" height="1836.54" style="fill:none;stroke:#FFFFFF;stroke-width:4.32"/>
	<line x1="170.78" y1="1793.34" x2="4320.00" y2="1793.34" style="stroke:#CCCCCC;stroke-width:6.48"/>
	<line x1="170.78" y1="1356.89" x2="4320.00" y2="1356.89" style="stroke:#CCCCCC;stroke-width:6.48"/>
	<line x1="170.78" y1="920.43" x2="4320.00" y2="920.43" style="stroke:#CCCCCC;stroke-width:6.48"/>
	<line x1="170.78" y1="483.97" x2="4320.00" y2="483.97" style="stroke:#CCCCCC;stroke-width:6.48"/>
	<line x1="170.78" y1="47.52" x2="4320.00" y2="47.52" style="stroke:#CCCCCC;stroke-width:6.48"/>
	<line x1="1493.37" y1="1840.86" x2="1493.37" y2="1797.66" style="stroke:#404040;stroke-width:6.48"/>
	<line x1="1493.37" y1="1776.06" x2="1493.37" y2="1732.86" style="stroke:#404040;stroke-width:6.48"/>
	<line x1="1493.37" y1="1711.26" x2="1493.37" y2="1668.06" style="stroke:#404040;stroke-width:6.48"/>
	<line x1="1493.37" y1="1646.46" x2="1493.37" y2="1603.26" style="stroke:#404040;stroke-width:6.48"/>
	<line x1="1493.37" y1="1581.66" x2="1493.37" y2="1538.46" style="stroke:#404040;stroke-width:6.48"/>
	<line x1="1493.37" y1="1516.86" x2="1493.37" y2="1473.66" style="stroke:#404040;stroke-width:6.48"/>
	<line x1="1493.37" y1="1452.06" x2="1493.37" y2="1408.86" style="stroke:#404040;stroke-width:6.48"/>
	<line x1="1493.37" y1="1387.26" x2="1493.37" y2="1344.06" style="stroke:#404040;stroke-width:6.48"/>
	<line x1="1493.37" y1="1322.46" x2="1493.37" y2="1279.26" style="stroke:#404040;stroke-width:6.48"/>
	<line x1="1493.37" y1="1257.66" x2="1493.37" y2="1214.46" style="stroke:#404040;stroke-width:6.48"/>
	<line x1="1493.37" y1="1192.86" x2="1493.37" y2="1149.66" style="stroke:#404040;stroke-width:6.48"/>
	<line x1="1493.37" y1="1128.06" x2="1493.37" y2="1084.86" style="stroke:#404040;stroke-width:6.48"/>
	<line x1="1493.37" y1="1063.26" x2="1493.37" y2="1020.06" style="stroke:#404040;stroke-width:6.48"/>
	<line x1="1493.37" y1="998.46" x2="1493.37" y2="955.26" style="stroke:#404040;stroke-width:6.48"/>
	<line x1="1493.37" y1="933.66" x2="1493.37" y2="890.46" style="stroke:#404040;stroke-width:6.48"/>
	<line x1="1493.37" y1="868.86" x2="1493.37" y2="825.66" style="stroke:#404040;stroke-width:6.48"/>
	<line x1="1493.37" y1="804.06" x2="1493.37" y2="760.86" style="stroke:#404040;stroke-width:6.48"/>
	<line x1="1493.37" y1="739.26" x2="1493.37" y2="696.06" style="stroke:#404040;stroke-width:6.48"/>
	<line x1="1493.37" y1="674.46" x2="1493.37" y2="631.26" style="stroke:#404040;stroke-width:6.48"/>
	<line x1="1493.37" y1="609.66" x2="1493.37" y2="566.46" style="stroke:#404040;stroke-width:6.48"/>
	<line x1="1493.37" y1="544.86" x2="1493.37" y2="501.66" style="stroke:#404040;stroke-width:6.48"/>
	<line x1="1493.37" y1="480.06" x2="1493.37" y2="436.86" style="stroke:#404040;stroke-width:6.48"/>
	<line x1="1493.37" y1="415.26" x2="1493.37" y2="372.06" style="stroke:#404040;stroke-width:6.48"/>
	<line x1="1493.37" y1="350.46" x2="1493.37" y2="307.26" style="stroke:#404040;stroke-width:6.48"/>
	<line x1="1493.37" y1="285.66" x2="1493.37" y2="242.46" style="stroke:#404040;stroke-width:6.48"/>
	<line x1="1493.37" y1="220.86" x2="1493.37" y2="177.66" style="stroke:#404040;stroke-width:6.48"/>
	<line x1="1493.37" y1="156.06" x2="1493.37" y2="112.86" style="stroke:#404040;stroke-width:6.48"/>
	<line x1="1493.37" y1="91.26" x2="1493.37" y2="48.06" style="stroke:#404040;stroke-width:6.48"/>
	<line x1="1493.37" y1="26.46" x2="1493.37" y2="0.00" style="stroke:#404040;stroke-width:6.48"/>
	<path d=" M218.16 208.85 L283.50 198.18 L348.98 223.15 L414.32 264.06 L479.79 337.50 L545.13 412.29 L610.47 497.74 L675.95 519.62 L741.29 569.97 L806.63 597.92 L872.10 653.94 L937.44 722.52 L1002.92 702.00 L1068.26 734.54 L1133.60 755.19 L1199.07 824.04 L1264.41 886.95 L1329.75 929.07 L1395.23 883.04 L1460.57 836.60 L1526.04 845.37 L1591.38 841.99 L1656.72 856.85 L1722.20 876.69 L1787.54 825.66 L1853.01 820.40 L1918.35 841.19 L1983.69 891.00 L2049.17 918.54 L2114.51 923.54 L2179.84 888.84 L2245.32 849.83 L2310.66 840.11 L2376.14 819.18 L2441.48 834.71 L2506.82 856.71 L2572.29 829.04 L2637.63 839.70 L2702.97 846.86 L2768.45 891.54 L2833.79 939.46 L2899.26 976.86 L2964.60 939.87 L3029.94 886.95 L3095.42 895.99 L3160.76 875.74 L3226.10 876.15 L3291.57 889.38 L3356.91 861.17 L3422.39 849.56 L3487.73 863.06 L3553.07 924.48 L3618.54 955.80 L3683.88 986.04 L3749.22 934.74 L3814.70 890.19 L3880.04 891.00 L3945.51 878.85 L4010.85 881.82 L4076.19 900.99 L4141.67 876.96 L4207.01 869.67 L4272.35 857.52" stroke-linejoin="round" style="fill:none;stroke:#83082A;stroke-width:9.72"/>
	<line x1="218.16" y1="444.83" x2="260.55" y2="436.59" style="stroke:#404040;stroke-width:9.72"/>
	<line x1="281.75" y1="432.54" x2="283.50" y2="432.27" style="stroke:#404040;stroke-width:9.72"/>
	<line x1="283.50" y1="432.27" x2="317.93" y2="455.49" style="stroke:#404040;stroke-width:9.72"/>
	<line x1="335.75" y1="467.64" x2="348.98" y2="476.55" style="stroke:#404040;stroke-width:9.72"/>
	<line x1="348.98" y1="476.55" x2="374.76" y2="485.46" style="stroke:#404040;stroke-width:9.72"/>
	<line x1="395.15" y1="492.48" x2="414.32" y2="499.10" style="stroke:#404040;stroke-width:9.72"/>
	<line x1="414.32" y1="499.10" x2="429.98" y2="515.97" style="stroke:#404040;stroke-width:9.72"/>
	<line x1="444.69" y1="531.77" x2="473.99" y2="563.49" style="stroke:#404040;stroke-width:9.72"/>
	<line x1="487.76" y1="580.10" x2="513.81" y2="614.52" style="stroke:#404040;stroke-width:9.72"/>
	<line x1="526.91" y1="631.80" x2="545.13" y2="655.70" style="stroke:#404040;stroke-width:9.72"/>
	<line x1="545.13" y1="655.70" x2="552.42" y2="666.63" style="stroke:#404040;stroke-width:9.72"/>
	<line x1="564.30" y1="684.72" x2="587.92" y2="720.90" style="stroke:#404040;stroke-width:9.72"/>
	<line x1="599.80" y1="738.86" x2="610.47" y2="755.06" style="stroke:#404040;stroke-width:9.72"/>
	<line x1="610.47" y1="755.06" x2="632.88" y2="763.02" style="stroke:#404040;stroke-width:9.72"/>
	<line x1="653.27" y1="770.31" x2="675.95" y2="778.41" style="stroke:#404040;stroke-width:9.72"/>
	<line x1="675.95" y1="778.41" x2="689.99" y2="791.37" style="stroke:#404040;stroke-width:9.72"/>
	<line x1="705.78" y1="806.22" x2="737.37" y2="835.65" style="stroke:#404040;stroke-width:9.72"/>
	<line x1="757.35" y1="841.99" x2="799.88" y2="849.29" style="stroke:#404040;stroke-width:9.72"/>
	<line x1="817.70" y1="860.22" x2="849.83" y2="889.24" style="stroke:#404040;stroke-width:9.72"/>
	<line x1="865.89" y1="903.69" x2="872.10" y2="909.36" style="stroke:#404040;stroke-width:9.72"/>
	<line x1="872.10" y1="909.36" x2="904.23" y2="922.59" style="stroke:#404040;stroke-width:9.72"/>
	<line x1="924.21" y1="930.83" x2="937.44" y2="936.22" style="stroke:#404040;stroke-width:9.72"/>
	<line x1="937.44" y1="936.22" x2="965.93" y2="941.36" style="stroke:#404040;stroke-width:9.72"/>
	<line x1="987.12" y1="945.00" x2="1002.92" y2="947.84" style="stroke:#404040;stroke-width:9.72"/>
	<line x1="1002.92" y1="947.84" x2="1027.62" y2="959.31" style="stroke:#404040;stroke-width:9.72"/>
	<line x1="1047.06" y1="968.36" x2="1068.26" y2="978.35" style="stroke:#404040;stroke-width:9.72"/>
	<line x1="1068.26" y1="978.35" x2="1087.96" y2="981.05" style="stroke:#404040;stroke-width:9.72"/>
	<line x1="1109.30" y1="984.15" x2="1133.60" y2="987.66" style="stroke:#404040;stroke-width:9.72"/>
	<line x1="1133.60" y1="987.66" x2="1148.45" y2="999.00" style="stroke:#404040;stroke-width:9.72"/>
	<line x1="1165.59" y1="1012.23" x2="1199.07" y2="1038.15" style="stroke:#404040;stroke-width:9.72"/>
	<line x1="1199.07" y1="1038.15" x2="1199.74" y2="1038.69" style="stroke:#404040;stroke-width:9.72"/>
	<line x1="1215.00" y1="1053.81" x2="1245.78" y2="1084.19" style="stroke:#404040;stroke-width:9.72"/>
	<line x1="1261.17" y1="1099.44" x2="1264.41" y2="1102.68" style="stroke:#404040;stroke-width:9.72"/>
	<line x1="1264.41" y1="1102.68" x2="1295.06" y2="1126.17" style="stroke:#404040;stroke-width:9.72"/>
	<line x1="1312.20" y1="1139.26" x2="1329.75" y2="1152.76" style="stroke:#404040;stroke-width:9.72"/>
	<line x1="1329.75" y1="1152.76" x2="1350.41" y2="1148.72" style="stroke:#404040;stroke-width:9.72"/>
	<line x1="1371.60" y1="1144.53" x2="1395.23" y2="1139.80" style="stroke:#404040;stroke-width:9.72"/>
	<line x1="1395.23" y1="1139.80" x2="1411.83" y2="1130.36" style="stroke:#404040;stroke-width:9.72"/>
	<line x1="1430.46" y1="1119.42" x2="1460.57" y2="1102.14" style="stroke:#404040;stroke-width:9.72"/>
	<line x1="1460.57" y1="1102.14" x2="1468.80" y2="1103.76" style="stroke:#404040;stroke-width:9.72"/>
	<line x1="1490.00" y1="1108.08" x2="1526.04" y2="1115.23" style="stroke:#404040;stroke-width:9.72"/>
	<line x1="1526.04" y1="1115.23" x2="1532.39" y2="1116.45" style="stroke:#404040;stroke-width:9.72"/>
	<line x1="1553.58" y1="1120.77" x2="1591.38" y2="1128.33" style="stroke:#404040;stroke-width:9.72"/>
	<line x1="1591.38" y1="1128.33" x2="1595.97" y2="1129.14" style="stroke:#404040;stroke-width:9.72"/>
	<line x1="1617.17" y1="1132.79" x2="1656.72" y2="1139.80" style="stroke:#404040;stroke-width:9.72"/>
	<line x1="1656.72" y1="1139.80" x2="1659.56" y2="1140.75" style="stroke:#404040;stroke-width:9.72"/>
	<line x1="1680.08" y1="1147.91" x2="1720.85" y2="1162.08" style="stroke:#404040;stroke-width:9.72"/>
	<line x1="1738.26" y1="1150.20" x2="1772.55" y2="1124.01" style="stroke:#404040;stroke-width:9.72"/>
	<line x1="1790.37" y1="1113.08" x2="1833.17" y2="1118.88" style="stroke:#404040;stroke-width:9.72"/>
	<line x1="1854.36" y1="1122.39" x2="1889.87" y2="1147.10" style="stroke:#404040;stroke-width:9.72"/>
	<line x1="1907.55" y1="1159.38" x2="1918.35" y2="1166.94" style="stroke:#404040;stroke-width:9.72"/>
	<line x1="1918.35" y1="1166.94" x2="1940.09" y2="1187.60" style="stroke:#404040;stroke-width:9.72"/>
	<line x1="1955.88" y1="1202.45" x2="1983.69" y2="1228.91" style="stroke:#404040;stroke-width:9.72"/>
	<line x1="1983.69" y1="1228.91" x2="1987.88" y2="1231.34" style="stroke:#404040;stroke-width:9.72"/>
	<line x1="2006.51" y1="1242.27" x2="2043.77" y2="1264.14" style="stroke:#404040;stroke-width:9.72"/>
	<line x1="2063.75" y1="1272.11" x2="2104.79" y2="1285.74" style="stroke:#404040;stroke-width:9.72"/>
	<line x1="2125.71" y1="1287.09" x2="2168.37" y2="1280.07" style="stroke:#404040;stroke-width:9.72"/>
	<line x1="2189.16" y1="1274.67" x2="2229.39" y2="1259.15" style="stroke:#404040;stroke-width:9.72"/>
	<line x1="2249.91" y1="1253.07" x2="2293.11" y2="1253.61" style="stroke:#404040;stroke-width:9.72"/>
	<line x1="2314.44" y1="1252.40" x2="2354.40" y2="1235.93" style="stroke:#404040;stroke-width:9.72"/>
	<line x1="2374.38" y1="1227.83" x2="2376.14" y2="1227.15" style="stroke:#404040;stroke-width:9.72"/>
	<line x1="2376.14" y1="1227.15" x2="2415.82" y2="1238.76" style="stroke:#404040;stroke-width:9.72"/>
	<line x1="2436.48" y1="1244.70" x2="2441.48" y2="1246.19" style="stroke:#404040;stroke-width:9.72"/>
	<line x1="2441.48" y1="1246.19" x2="2478.74" y2="1253.88" style="stroke:#404040;stroke-width:9.72"/>
	<line x1="2499.93" y1="1258.20" x2="2506.82" y2="1259.69" style="stroke:#404040;stroke-width:9.72"/>
	<line x1="2506.82" y1="1259.69" x2="2538.41" y2="1242.14" style="stroke:#404040;stroke-width:9.72"/>
	<line x1="2557.30" y1="1231.61" x2="2572.29" y2="1223.37" style="stroke:#404040;stroke-width:9.72"/>
	<line x1="2572.29" y1="1223.37" x2="2598.21" y2="1226.07" style="stroke:#404040;stroke-width:9.72"/>
	<line x1="2619.68" y1="1228.23" x2="2637.63" y2="1229.99" style="stroke:#404040;stroke-width:9.72"/>
	<line x1="2637.63" y1="1229.99" x2="2662.61" y2="1232.82" style="stroke:#404040;stroke-width:9.72"/>
	<line x1="2684.07" y1="1235.39" x2="2702.97" y2="1237.55" style="stroke:#404040;stroke-width:9.72"/>
	<line x1="2702.97" y1="1237.55" x2="2720.93" y2="1253.74" style="stroke:#404040;stroke-width:9.72"/>
	<line x1="2736.99" y1="1268.19" x2="2768.45" y2="1296.68" style="stroke:#404040;stroke-width:9.72"/>
	<line x1="2768.45" y1="1296.68" x2="2769.12" y2="1297.08" style="stroke:#404040;stroke-width:9.72"/>
	<line x1="2786.40" y1="1310.04" x2="2821.10" y2="1335.83" style="stroke:#404040;stroke-width:9.72"/>
	<line x1="2838.78" y1="1347.98" x2="2876.72" y2="1368.90" style="stroke:#404040;stroke-width:9.72"/>
	<line x1="2895.62" y1="1379.30" x2="2899.26" y2="1381.32" style="stroke:#404040;stroke-width:9.72"/>
	<line x1="2899.26" y1="1381.32" x2="2936.52" y2="1369.71" style="stroke:#404040;stroke-width:9.72"/>
	<line x1="2957.04" y1="1363.23" x2="2964.60" y2="1360.94" style="stroke:#404040;stroke-width:9.72"/>
	<line x1="2964.60" y1="1360.94" x2="2995.38" y2="1343.66" style="stroke:#404040;stroke-width:9.72"/>
	<line x1="3014.28" y1="1333.13" x2="3029.94" y2="1324.35" style="stroke:#404040;stroke-width:9.72"/>
	<line x1="3029.94" y1="1324.35" x2="3055.05" y2="1326.92" style="stroke:#404040;stroke-width:9.72"/>
	<line x1="3076.52" y1="1329.21" x2="3095.42" y2="1331.10" style="stroke:#404040;stroke-width:9.72"/>
	<line x1="3095.42" y1="1331.10" x2="3119.04" y2="1326.24" style="stroke:#404040;stroke-width:9.72"/>
	<line x1="3140.24" y1="1321.79" x2="3160.76" y2="1317.47" style="stroke:#404040;stroke-width:9.72"/>
	<line x1="3160.76" y1="1317.47" x2="3182.49" y2="1322.19" style="stroke:#404040;stroke-width:9.72"/>
	<line x1="3203.55" y1="1326.78" x2="3226.10" y2="1331.78" style="stroke:#404040;stroke-width:9.72"/>
	<line x1="3226.10" y1="1331.78" x2="3246.21" y2="1331.37" style="stroke:#404040;stroke-width:9.72"/>
	<line x1="3267.81" y1="1331.10" x2="3291.57" y2="1330.70" style="stroke:#404040;stroke-width:9.72"/>
	<line x1="3291.57" y1="1330.70" x2="3309.93" y2="1324.49" style="stroke:#404040;stroke-width:9.72"/>
	<line x1="3330.45" y1="1317.60" x2="3356.91" y2="1308.69" style="stroke:#404040;stroke-width:9.72"/>
	<line x1="3356.91" y1="1308.69" x2="3371.22" y2="1314.23" style="stroke:#404040;stroke-width:9.72"/>
	<line x1="3391.34" y1="1322.05" x2="3422.39" y2="1334.07" style="stroke:#404040;stroke-width:9.72"/>
	<line x1="3422.39" y1="1334.07" x2="3431.97" y2="1336.37" style="stroke:#404040;stroke-width:9.72"/>
	<line x1="3453.03" y1="1341.23" x2="3487.73" y2="1349.33" style="stroke:#404040;stroke-width:9.72"/>
	<line x1="3487.73" y1="1349.33" x2="3493.26" y2="1354.59" style="stroke:#404040;stroke-width:9.72"/>
	<line x1="3508.79" y1="1369.58" x2="3539.97" y2="1399.55" style="stroke:#404040;stroke-width:9.72"/>
	<line x1="3555.90" y1="1414.13" x2="3590.60" y2="1439.78" style="stroke:#404040;stroke-width:9.72"/>
	<line x1="3607.88" y1="1452.74" x2="3618.54" y2="1460.57" style="stroke:#404040;stroke-width:9.72"/>
	<line x1="3618.54" y1="1460.57" x2="3643.38" y2="1477.30" style="stroke:#404040;stroke-width:9.72"/>
	<line x1="3661.34" y1="1489.32" x2="3683.88" y2="1504.44" style="stroke:#404040;stroke-width:9.72"/>
	<line x1="3683.88" y1="1504.44" x2="3698.87" y2="1498.64" style="stroke:#404040;stroke-width:9.72"/>
	<line x1="3718.98" y1="1490.80" x2="3749.22" y2="1479.06" style="stroke:#404040;stroke-width:9.72"/>
	<line x1="3749.22" y1="1479.06" x2="3758.40" y2="1473.53" style="stroke:#404040;stroke-width:9.72"/>
	<line x1="3777.03" y1="1462.46" x2="3814.16" y2="1440.32" style="stroke:#404040;stroke-width:9.72"/>
	<line x1="3835.08" y1="1444.77" x2="3877.20" y2="1454.49" style="stroke:#404040;stroke-width:9.72"/>
	<line x1="3897.59" y1="1448.82" x2="3938.36" y2="1434.24" style="stroke:#404040;stroke-width:9.72"/>
	<line x1="3959.28" y1="1434.11" x2="4001.94" y2="1441.40" style="stroke:#404040;stroke-width:9.72"/>
	<line x1="4023.00" y1="1439.64" x2="4064.72" y2="1428.30" style="stroke:#404040;stroke-width:9.72"/>
	<line x1="4085.91" y1="1425.47" x2="4129.11" y2="1426.14" style="stroke:#404040;stroke-width:9.72"/>
	<line x1="4150.58" y1="1428.17" x2="4192.97" y2="1436.40" style="stroke:#404040;stroke-width:9.72"/>
	<line x1="4213.89" y1="1441.40" x2="4254.80" y2="1455.44" style="stroke:#404040;stroke-width:9.72"/>
	<path d="" stroke-linejoin="round" style="fill:none;stroke:#404040;stroke-width:9.72"/>
	<line x1="170.78" y1="1840.86" x2="170.78" y2="0.00" style="stroke:#404040;stroke-width:4.32"/>
	<line x1="170.78" y1="1793.34" x2="140.67" y2="1793.34" style="stroke:#000000;stroke-width:4.32"/>
	<text x="125.69" y="1814.35" style="font-family:'Century Gothic';font-size:59.94px;fill:#000000" text-anchor="end">6.4</text>
	<line x1="170.78" y1="1356.89" x2="140.67" y2="1356.89" style="stroke:#000000;stroke-width:4.32"/>
	<text x="125.69" y="1377.90" style="font-family:'Century Gothic';font-size:59.94px;fill:#000000" text-anchor="end">6.6</text>
	<line x1="170.78" y1="920.43" x2="140.67" y2="920.43" style="stroke:#000000;stroke-width:4.32"/>
	<text x="125.69" y="941.44" style="font-family:'Century Gothic';font-size:59.94px;fill:#000000" text-anchor="end">6.8</text>
	<line x1="170.78" y1="483.97" x2="140.67" y2="483.97" style="stroke:#000000;stroke-width:4.32"/>
	<text x="125.69" y="504.99" style="font-family:'Century Gothic';font-size:59.94px;fill:#000000" text-anchor="end">7</text>
	<line x1="170.78" y1="47.52" x2="140.67" y2="47.52" style="stroke:#000000;stroke-width:4.32"/>
	<text x="125.69" y="68.53" style="font-family:'Century Gothic';font-size:59.94px;fill:#000000" text-anchor="end">7.2</text>
	<line x1="170.78" y1="1840.86" x2="4320.00" y2="1840.86" style="stroke:#404040;stroke-width:4.32"/>
	<line x1="218.30" y1="1840.86" x2="218.30" y2="1870.83" style="stroke:#000000;stroke-width:4.32"/>
	<text x="218.30" y="1927.71" style="font-family:'Century Gothic';font-size:59.94px;fill:#000000" text-anchor="middle">-20</text>
	<line x1="1526.04" y1="1840.86" x2="1526.04" y2="1870.83" style="stroke:#000000;stroke-width:4.32"/>
	<text x="1526.04" y="1927.71" style="font-family:'Century Gothic';font-size:59.94px;fill:#000000" text-anchor="middle">0</text>
	<line x1="2833.92" y1="1840.86" x2="2833.92" y2="1870.83" style="stroke:#000000;stroke-width:4.32"/>
	<text x="2833.92" y="1927.71" style="font-family:'Century Gothic';font-size:59.94px;fill:#000000" text-anchor="middle">20</text>
	<line x1="4141.67" y1="1840.86" x2="4141.67" y2="1870.83" style="stroke:#000000;stroke-width:4.32"/>
	<text x="4141.67" y="1927.71" style="font-family:'Century Gothic';font-size:59.94px;fill:#000000" text-anchor="middle">40</text>
	<rect x="1368.77" y="1994.22" width="1753.25" height="139.86" style="fill:#FFFFFF"/>
	<rect x="1370.93" y="1996.38" width="1748.93" height="135.54" style="fill:none;stroke:#EAF2F3;stroke-opacity:0.00;stroke-width:4.32"/>
	<line x1="1401.17" y1="2064.15" x2="1681.97" y2="2064.15" style="stroke:#83082A;stroke-width:9.72"/>
	<line x1="2125.04" y1="2064.15" x2="2168.24" y2="2064.15" style="stroke:#404040;stroke-width:9.72"/>
	<line x1="2189.84" y1="2064.15" x2="2233.04" y2="2064.15" style="stroke:#404040;stroke-width:9.72"/>
	<line x1="2254.64" y1="2064.15" x2="2297.84" y2="2064.15" style="stroke:#404040;stroke-width:9.72"/>
	<line x1="2319.44" y1="2064.15" x2="2362.64" y2="2064.15" style="stroke:#404040;stroke-width:9.72"/>
	<line x1="2384.24" y1="2064.15" x2="2405.84" y2="2064.15" style="stroke:#404040;stroke-width:9.72"/>
	<text x="1726.92" y="2090.45" style="font-family:'Century Gothic';font-size:75.06px;fill:#000000">Treated</text>
	<text x="2450.79" y="2090.45" style="font-family:'Century Gothic';font-size:75.06px;fill:#000000">Synthetic control</text>
</svg>
