<?xml version="1.0" encoding="utf-8" standalone="no"?>
<!DOCTYPE svg PUBLIC "-//W3C//DTD SVG 1.1//EN"
  "http://www.w3.org/Graphics/SVG/1.1/DTD/svg11.dtd">
<svg xmlns:xlink="http://www.w3.org/1999/xlink" width="411.023622pt" height="205.511811pt" viewBox="0 0 411.023622 205.511811" xmlns="http://www.w3.org/2000/svg" version="1.1">
 <metadata>
  <rdf:RDF xmlns:dc="http://purl.org/dc/elements/1.1/" xmlns:cc="http://creativecommons.org/ns#" xmlns:rdf="http://www.w3.org/1999/02/22-rdf-syntax-ns#">
   <cc:Work>
    <dc:type rdf:resource="http://purl.org/dc/dcmitype/StillImage"/>
    <dc:date>2026-06-05T10:17:51.373616</dc:date>
    <dc:format>image/svg+xml</dc:format>
    <dc:creator>
     <cc:Agent>
      <dc:title>Matplotlib v3.10.8, https://matplotlib.org/</dc:title>
     </cc:Agent>
    </dc:creator>
   </cc:Work>
  </rdf:RDF>
 </metadata>
 <defs>
  <style type="text/css">*{stroke-linejoin: round; stroke-linecap: butt}</style>
 </defs>
 <g id="figure_1">
  <g id="patch_1">
   <path d="M 0 205.511811 
L 411.023622 205.511811 
L 411.023622 0 
L 0 0 
z
" style="fill: #ffffff"/>
  </g>
  <g id="axes_1">
   <g id="patch_2">
    <path d="M 51.09 169.451811 
L 401.303622 169.451811 
L 401.303622 9.72 
L 51.09 9.72 
z
" style="fill: #ffffff"/>
   </g>
   <g id="FillBetweenPolyCollection_1">
    <defs>
     <path id="mfeda00a4ff" d="M 67.008801 -100.67051 
L 67.008801 -43.324033 
L 72.143898 -43.323576 
L 77.278995 -43.327865 
L 82.414092 -43.322652 
L 87.549189 -43.323219 
L 92.684286 -43.326319 
L 97.819384 -43.322431 
L 102.954481 -43.325044 
L 108.089578 -43.324447 
L 113.224675 -43.326294 
L 118.359772 -43.324444 
L 123.494869 -43.320537 
L 128.629966 -43.328321 
L 133.765063 -43.32344 
L 138.90016 -43.324228 
L 144.035257 -43.324282 
L 149.170355 -43.324618 
L 154.305452 -43.322266 
L 159.440549 -43.32867 
L 164.575646 -43.322028 
L 169.710743 -48.580022 
L 174.84584 -53.664189 
L 179.980937 -54.011828 
L 185.116034 -57.796345 
L 190.251131 -54.706195 
L 195.386228 -59.910535 
L 200.521326 -71.511461 
L 205.656423 -69.748306 
L 210.79152 -69.696694 
L 215.926617 -72.485549 
L 221.061714 -71.529751 
L 226.196811 -76.420177 
L 231.331908 -83.049418 
L 236.467005 -83.091409 
L 241.602102 -84.773766 
L 246.737199 -86.591545 
L 251.872297 -82.900135 
L 257.007394 -82.042014 
L 262.142491 -82.62054 
L 267.277588 -87.953846 
L 272.412685 -86.182353 
L 277.547782 -87.647553 
L 282.682879 -85.549778 
L 287.817976 -87.808378 
L 292.953073 -92.35711 
L 298.08817 -92.47972 
L 303.223267 -96.895005 
L 308.358365 -96.398503 
L 313.493462 -94.837435 
L 318.628559 -100.868247 
L 323.763656 -102.433519 
L 328.898753 -106.315347 
L 334.03385 -106.929153 
L 339.168947 -107.925762 
L 344.304044 -110.94516 
L 349.439141 -111.297599 
L 354.574238 -119.737646 
L 359.709336 -117.747104 
L 364.844433 -121.800331 
L 369.97953 -118.088691 
L 375.114627 -122.68658 
L 380.249724 -122.704786 
L 385.384821 -131.184797 
L 385.384821 -188.531274 
L 385.384821 -188.531274 
L 380.249724 -180.051263 
L 375.114627 -180.033056 
L 369.97953 -175.435168 
L 364.844433 -179.146808 
L 359.709336 -175.09358 
L 354.574238 -177.084123 
L 349.439141 -168.644076 
L 344.304044 -168.291636 
L 339.168947 -165.272238 
L 334.03385 -164.275629 
L 328.898753 -163.661823 
L 323.763656 -159.779996 
L 318.628559 -158.214724 
L 313.493462 -152.183911 
L 308.358365 -153.744979 
L 303.223267 -154.241481 
L 298.08817 -149.826197 
L 292.953073 -149.703586 
L 287.817976 -145.154854 
L 282.682879 -142.896254 
L 277.547782 -144.99403 
L 272.412685 -143.52883 
L 267.277588 -145.300323 
L 262.142491 -139.967017 
L 257.007394 -139.388491 
L 251.872297 -140.246612 
L 246.737199 -143.938022 
L 241.602102 -142.120243 
L 236.467005 -140.437886 
L 231.331908 -140.395895 
L 226.196811 -133.766654 
L 221.061714 -128.876228 
L 215.926617 -129.832026 
L 210.79152 -127.043171 
L 205.656423 -127.094783 
L 200.521326 -128.857937 
L 195.386228 -117.257012 
L 190.251131 -112.052671 
L 185.116034 -115.142822 
L 179.980937 -111.358304 
L 174.84584 -111.010666 
L 169.710743 -105.926499 
L 164.575646 -100.668505 
L 159.440549 -100.675147 
L 154.305452 -100.668743 
L 149.170355 -100.671095 
L 144.035257 -100.670759 
L 138.90016 -100.670705 
L 133.765063 -100.669916 
L 128.629966 -100.674798 
L 123.494869 -100.667014 
L 118.359772 -100.67092 
L 113.224675 -100.672771 
L 108.089578 -100.670923 
L 102.954481 -100.671521 
L 97.819384 -100.668907 
L 92.684286 -100.672796 
L 87.549189 -100.669695 
L 82.414092 -100.669129 
L 77.278995 -100.674342 
L 72.143898 -100.670053 
L 67.008801 -100.67051 
z
"/>
    </defs>
    <g clip-path="url(#p570f94e101)">
     <use xlink:href="#mfeda00a4ff" x="0" y="205.511811" style="fill: #e397a0; fill-opacity: 0.55"/>
    </g>
   </g>
   <g id="matplotlib.axis_1">
    <g id="xtick_1">
     <g id="line2d_1">
      <defs>
       <path id="md402a7c022" d="M 0 0 
L 0 3 
" style="stroke: #404040"/>
      </defs>
      <g>
       <use xlink:href="#md402a7c022" x="67.008801" y="169.451811" style="fill: #404040; stroke: #404040"/>
      </g>
     </g>
     <g id="text_1">
      <!-- −20 -->
      <g style="fill: #404040" transform="translate(59.268098 182.579467) scale(0.09 -0.09)">
       <defs>
        <path id="CenturyGothic-Bold-2212" d="M 359 2688 
L 3481 2688 
L 3481 1906 
L 359 1906 
L 359 2688 
z
" transform="scale(0.015625)"/>
        <path id="CenturyGothic-Bold-32" d="M 1116 3116 
L 263 3116 
Q 297 3859 730 4286 
Q 1163 4713 1841 4713 
Q 2259 4713 2579 4536 
Q 2900 4359 3092 4026 
Q 3284 3694 3284 3350 
Q 3284 2941 3051 2469 
Q 2819 1997 2200 1353 
L 1684 809 
L 3322 809 
L 3322 0 
L 138 0 
L 138 419 
L 1559 1869 
Q 2075 2391 2245 2708 
Q 2416 3025 2416 3281 
Q 2416 3547 2239 3720 
Q 2063 3894 1784 3894 
Q 1503 3894 1315 3684 
Q 1128 3475 1116 3116 
z
" transform="scale(0.015625)"/>
        <path id="CenturyGothic-Bold-30" d="M 1778 4713 
Q 2281 4713 2645 4466 
Q 3009 4219 3207 3711 
Q 3406 3203 3406 2297 
Q 3406 1381 3204 872 
Q 3003 363 2662 123 
Q 2322 -116 1803 -116 
Q 1284 -116 931 125 
Q 578 366 378 856 
Q 178 1347 178 2253 
Q 178 3519 569 4088 
Q 1003 4713 1778 4713 
z
M 1800 3881 
Q 1578 3881 1406 3739 
Q 1234 3597 1143 3250 
Q 1053 2903 1053 2234 
Q 1053 1363 1261 1030 
Q 1469 697 1800 697 
Q 2119 697 2306 1013 
Q 2534 1394 2534 2288 
Q 2534 3194 2329 3537 
Q 2125 3881 1800 3881 
z
" transform="scale(0.015625)"/>
       </defs>
       <use xlink:href="#CenturyGothic-Bold-2212"/>
       <use xlink:href="#CenturyGothic-Bold-32" transform="translate(60.009766 0)"/>
       <use xlink:href="#CenturyGothic-Bold-30" transform="translate(116.015625 0)"/>
      </g>
     </g>
    </g>
    <g id="xtick_2">
     <g id="line2d_2">
      <g>
       <use xlink:href="#md402a7c022" x="118.359772" y="169.451811" style="fill: #404040; stroke: #404040"/>
      </g>
     </g>
     <g id="text_2">
      <!-- −10 -->
      <g style="fill: #404040" transform="translate(110.619069 182.579467) scale(0.09 -0.09)">
       <defs>
        <path id="CenturyGothic-Bold-31" d="M 1053 4597 
L 2363 4597 
L 2363 0 
L 1494 0 
L 1494 3775 
L 547 3775 
L 1053 4597 
z
" transform="scale(0.015625)"/>
       </defs>
       <use xlink:href="#CenturyGothic-Bold-2212"/>
       <use xlink:href="#CenturyGothic-Bold-31" transform="translate(60.009766 0)"/>
       <use xlink:href="#CenturyGothic-Bold-30" transform="translate(116.015625 0)"/>
      </g>
     </g>
    </g>
    <g id="xtick_3">
     <g id="line2d_3">
      <g>
       <use xlink:href="#md402a7c022" x="169.710743" y="169.451811" style="fill: #404040; stroke: #404040"/>
      </g>
     </g>
     <g id="text_3">
      <!-- 0 -->
      <g style="fill: #404040" transform="translate(167.190743 182.579467) scale(0.09 -0.09)">
       <use xlink:href="#CenturyGothic-Bold-30"/>
      </g>
     </g>
    </g>
    <g id="xtick_4">
     <g id="line2d_4">
      <g>
       <use xlink:href="#md402a7c022" x="221.061714" y="169.451811" style="fill: #404040; stroke: #404040"/>
      </g>
     </g>
     <g id="text_4">
      <!-- 10 -->
      <g style="fill: #404040" transform="translate(216.021714 182.579467) scale(0.09 -0.09)">
       <use xlink:href="#CenturyGothic-Bold-31"/>
       <use xlink:href="#CenturyGothic-Bold-30" transform="translate(56.005859 0)"/>
      </g>
     </g>
    </g>
    <g id="xtick_5">
     <g id="line2d_5">
      <g>
       <use xlink:href="#md402a7c022" x="272.412685" y="169.451811" style="fill: #404040; stroke: #404040"/>
      </g>
     </g>
     <g id="text_5">
      <!-- 20 -->
      <g style="fill: #404040" transform="translate(267.372685 182.579467) scale(0.09 -0.09)">
       <use xlink:href="#CenturyGothic-Bold-32"/>
       <use xlink:href="#CenturyGothic-Bold-30" transform="translate(56.005859 0)"/>
      </g>
     </g>
    </g>
    <g id="xtick_6">
     <g id="line2d_6">
      <g>
       <use xlink:href="#md402a7c022" x="323.763656" y="169.451811" style="fill: #404040; stroke: #404040"/>
      </g>
     </g>
     <g id="text_6">
      <!-- 30 -->
      <g style="fill: #404040" transform="translate(318.723656 182.579467) scale(0.09 -0.09)">
       <defs>
        <path id="CenturyGothic-Bold-33" d="M 1216 3463 
L 375 3463 
Q 441 3972 741 4281 
Q 1159 4713 1794 4713 
Q 2359 4713 2742 4353 
Q 3125 3994 3125 3500 
Q 3125 3194 2958 2941 
Q 2791 2688 2472 2531 
Q 2891 2406 3127 2095 
Q 3363 1784 3363 1363 
Q 3363 744 2906 314 
Q 2450 -116 1744 -116 
Q 1075 -116 653 289 
Q 231 694 191 1391 
L 1056 1391 
Q 1113 1034 1305 861 
Q 1497 688 1791 688 
Q 2097 688 2298 884 
Q 2500 1081 2500 1366 
Q 2500 1678 2228 1893 
Q 1956 2109 1444 2116 
L 1444 2866 
Q 1759 2891 1914 2964 
Q 2069 3038 2155 3166 
Q 2241 3294 2241 3438 
Q 2241 3625 2109 3748 
Q 1978 3872 1766 3872 
Q 1578 3872 1425 3758 
Q 1272 3644 1216 3463 
z
" transform="scale(0.015625)"/>
       </defs>
       <use xlink:href="#CenturyGothic-Bold-33"/>
       <use xlink:href="#CenturyGothic-Bold-30" transform="translate(56.005859 0)"/>
      </g>
     </g>
    </g>
    <g id="xtick_7">
     <g id="line2d_7">
      <g>
       <use xlink:href="#md402a7c022" x="375.114627" y="169.451811" style="fill: #404040; stroke: #404040"/>
      </g>
     </g>
     <g id="text_7">
      <!-- 40 -->
      <g style="fill: #404040" transform="translate(370.074627 182.579467) scale(0.09 -0.09)">
       <defs>
        <path id="CenturyGothic-Bold-34" d="M 2119 4713 
L 2994 4713 
L 2994 1753 
L 3403 1753 
L 3403 944 
L 2994 944 
L 2994 0 
L 2138 0 
L 2138 944 
L 131 944 
L 131 1753 
L 2119 4713 
z
M 2138 1753 
L 2138 3294 
L 1088 1753 
L 2138 1753 
z
" transform="scale(0.015625)"/>
       </defs>
       <use xlink:href="#CenturyGothic-Bold-34"/>
       <use xlink:href="#CenturyGothic-Bold-30" transform="translate(56.005859 0)"/>
      </g>
     </g>
    </g>
    <g id="text_8">
     <!-- Months relative to 2022-09 (baseline = -1) -->
     <g transform="translate(137.529936 195.078842) scale(0.09 -0.09)">
      <defs>
       <path id="CenturyGothic-4d" d="M 350 0 
L 1003 4597 
L 1078 4597 
L 2947 825 
L 4797 4597 
L 4872 4597 
L 5531 0 
L 5078 0 
L 4628 3288 
L 3003 0 
L 2888 0 
L 1241 3313 
L 794 0 
L 350 0 
z
" transform="scale(0.015625)"/>
       <path id="CenturyGothic-6f" d="M 2097 3488 
Q 2881 3488 3397 2919 
Q 3866 2400 3866 1691 
Q 3866 978 3370 445 
Q 2875 -88 2097 -88 
Q 1316 -88 820 445 
Q 325 978 325 1691 
Q 325 2397 794 2916 
Q 1309 3488 2097 3488 
z
M 2097 3059 
Q 1553 3059 1162 2656 
Q 772 2253 772 1681 
Q 772 1313 950 994 
Q 1128 675 1431 501 
Q 1734 328 2097 328 
Q 2459 328 2762 501 
Q 3066 675 3244 994 
Q 3422 1313 3422 1681 
Q 3422 2253 3030 2656 
Q 2638 3059 2097 3059 
z
" transform="scale(0.015625)"/>
       <path id="CenturyGothic-6e" d="M 488 3400 
L 925 3400 
L 925 2791 
Q 1188 3141 1506 3314 
Q 1825 3488 2200 3488 
Q 2581 3488 2876 3294 
Q 3172 3100 3312 2772 
Q 3453 2444 3453 1750 
L 3453 0 
L 3019 0 
L 3019 1622 
Q 3019 2209 2969 2406 
Q 2891 2744 2675 2914 
Q 2459 3084 2113 3084 
Q 1716 3084 1402 2821 
Q 1088 2559 988 2172 
Q 925 1919 925 1247 
L 925 0 
L 488 0 
L 488 3400 
z
" transform="scale(0.015625)"/>
       <path id="CenturyGothic-74" d="M 869 4663 
L 1309 4663 
L 1309 3400 
L 2003 3400 
L 2003 3025 
L 1309 3025 
L 1309 0 
L 869 0 
L 869 3025 
L 272 3025 
L 272 3400 
L 869 3400 
L 869 4663 
z
" transform="scale(0.015625)"/>
       <path id="CenturyGothic-68" d="M 488 4713 
L 925 4713 
L 925 2791 
Q 1191 3141 1509 3314 
Q 1828 3488 2200 3488 
Q 2581 3488 2876 3294 
Q 3172 3100 3312 2773 
Q 3453 2447 3453 1750 
L 3453 0 
L 3016 0 
L 3016 1622 
Q 3016 2209 2969 2406 
Q 2888 2744 2673 2914 
Q 2459 3084 2113 3084 
Q 1716 3084 1402 2821 
Q 1088 2559 988 2172 
Q 925 1922 925 1247 
L 925 0 
L 488 0 
L 488 4713 
z
" transform="scale(0.015625)"/>
       <path id="CenturyGothic-73" d="M 2197 3028 
L 1916 2738 
Q 1566 3078 1231 3078 
Q 1019 3078 867 2937 
Q 716 2797 716 2609 
Q 716 2444 841 2294 
Q 966 2141 1366 1934 
Q 1853 1681 2028 1447 
Q 2200 1209 2200 913 
Q 2200 494 1906 203 
Q 1613 -88 1172 -88 
Q 878 -88 611 40 
Q 344 169 169 394 
L 444 706 
Q 778 328 1153 328 
Q 1416 328 1600 497 
Q 1784 666 1784 894 
Q 1784 1081 1663 1228 
Q 1541 1372 1113 1591 
Q 653 1828 488 2059 
Q 322 2291 322 2588 
Q 322 2975 586 3231 
Q 850 3488 1253 3488 
Q 1722 3488 2197 3028 
z
" transform="scale(0.015625)"/>
       <path id="CenturyGothic-20" transform="scale(0.015625)"/>
       <path id="CenturyGothic-72" d="M 322 3400 
L 769 3400 
L 769 2903 
Q 969 3197 1191 3342 
Q 1413 3488 1653 3488 
Q 1834 3488 2041 3372 
L 1813 3003 
Q 1675 3063 1581 3063 
Q 1363 3063 1159 2883 
Q 956 2703 850 2325 
Q 769 2034 769 1150 
L 769 0 
L 322 0 
L 322 3400 
z
" transform="scale(0.015625)"/>
       <path id="CenturyGothic-65" d="M 3350 1128 
L 3719 934 
Q 3538 578 3300 359 
Q 3063 141 2766 26 
Q 2469 -88 2094 -88 
Q 1263 -88 794 457 
Q 325 1003 325 1691 
Q 325 2338 722 2844 
Q 1225 3488 2069 3488 
Q 2938 3488 3456 2828 
Q 3825 2363 3831 1666 
L 775 1666 
Q 788 1072 1153 692 
Q 1519 313 2056 313 
Q 2316 313 2561 403 
Q 2806 494 2978 644 
Q 3150 794 3350 1128 
z
M 3350 2044 
Q 3263 2394 3095 2603 
Q 2928 2813 2653 2941 
Q 2378 3069 2075 3069 
Q 1575 3069 1216 2747 
Q 953 2513 819 2044 
L 3350 2044 
z
" transform="scale(0.015625)"/>
       <path id="CenturyGothic-6c" d="M 422 4713 
L 859 4713 
L 859 0 
L 422 0 
L 422 4713 
z
" transform="scale(0.015625)"/>
       <path id="CenturyGothic-61" d="M 3875 3400 
L 3875 0 
L 3444 0 
L 3444 584 
Q 3169 250 2826 81 
Q 2484 -88 2078 -88 
Q 1356 -88 845 435 
Q 334 959 334 1709 
Q 334 2444 850 2966 
Q 1366 3488 2091 3488 
Q 2509 3488 2848 3309 
Q 3188 3131 3444 2775 
L 3444 3400 
L 3875 3400 
z
M 2125 3066 
Q 1759 3066 1450 2886 
Q 1141 2706 958 2381 
Q 775 2056 775 1694 
Q 775 1334 959 1006 
Q 1144 678 1455 495 
Q 1766 313 2122 313 
Q 2481 313 2803 494 
Q 3125 675 3298 984 
Q 3472 1294 3472 1681 
Q 3472 2272 3083 2669 
Q 2694 3066 2125 3066 
z
" transform="scale(0.015625)"/>
       <path id="CenturyGothic-69" d="M 641 4800 
Q 791 4800 897 4694 
Q 1003 4588 1003 4438 
Q 1003 4291 897 4184 
Q 791 4078 641 4078 
Q 494 4078 387 4184 
Q 281 4291 281 4438 
Q 281 4588 387 4694 
Q 494 4800 641 4800 
z
M 422 3400 
L 863 3400 
L 863 0 
L 422 0 
L 422 3400 
z
" transform="scale(0.015625)"/>
       <path id="CenturyGothic-76" d="M 166 3400 
L 631 3400 
L 1769 925 
L 2897 3400 
L 3366 3400 
L 1809 0 
L 1731 0 
L 166 3400 
z
" transform="scale(0.015625)"/>
       <path id="CenturyGothic-32" d="M 741 3156 
L 300 3156 
Q 319 3838 755 4275 
Q 1191 4713 1831 4713 
Q 2466 4713 2858 4303 
Q 3250 3894 3250 3338 
Q 3250 2947 3062 2605 
Q 2875 2263 2334 1678 
L 1191 444 
L 3313 444 
L 3313 0 
L 191 0 
L 1947 1897 
Q 2481 2469 2642 2745 
Q 2803 3022 2803 3328 
Q 2803 3716 2514 3995 
Q 2225 4275 1806 4275 
Q 1366 4275 1073 3981 
Q 781 3688 741 3156 
z
" transform="scale(0.015625)"/>
       <path id="CenturyGothic-30" d="M 203 2297 
Q 203 3206 398 3703 
Q 594 4200 950 4456 
Q 1306 4713 1747 4713 
Q 2194 4713 2556 4455 
Q 2919 4197 3130 3681 
Q 3341 3166 3341 2297 
Q 3341 1431 3133 918 
Q 2925 406 2559 145 
Q 2194 -116 1747 -116 
Q 1306 -116 953 137 
Q 600 391 401 892 
Q 203 1394 203 2297 
z
M 638 2288 
Q 638 1509 777 1111 
Q 916 713 1187 506 
Q 1459 300 1763 300 
Q 2069 300 2334 501 
Q 2600 703 2738 1106 
Q 2909 1597 2909 2288 
Q 2909 2981 2756 3423 
Q 2603 3866 2333 4070 
Q 2063 4275 1763 4275 
Q 1456 4275 1187 4070 
Q 919 3866 778 3467 
Q 638 3069 638 2288 
z
" transform="scale(0.015625)"/>
       <path id="CenturyGothic-2d" d="M 203 1919 
L 1922 1919 
L 1922 1538 
L 203 1538 
L 203 1919 
z
" transform="scale(0.015625)"/>
       <path id="CenturyGothic-39" d="M 1228 -116 
L 850 128 
L 2091 2009 
Q 1841 1928 1622 1928 
Q 1075 1928 694 2323 
Q 313 2719 313 3297 
Q 313 3694 497 4012 
Q 681 4331 1020 4522 
Q 1359 4713 1747 4713 
Q 2128 4713 2451 4528 
Q 2775 4344 2959 4012 
Q 3144 3681 3144 3306 
Q 3144 3022 3030 2711 
Q 2916 2400 2622 1963 
L 1228 -116 
z
M 1728 2331 
Q 2131 2331 2414 2614 
Q 2697 2897 2697 3297 
Q 2697 3697 2414 3980 
Q 2131 4263 1728 4263 
Q 1328 4263 1045 3980 
Q 763 3697 763 3297 
Q 763 2897 1045 2614 
Q 1328 2331 1728 2331 
z
" transform="scale(0.015625)"/>
       <path id="CenturyGothic-28" d="M 1469 4800 
L 1975 4800 
Q 1669 4172 1484 3334 
Q 1300 2497 1300 1606 
Q 1300 781 1439 15 
Q 1578 -750 1822 -1331 
L 1341 -1331 
Q 1109 -775 971 -22 
Q 834 731 834 1547 
Q 834 2425 996 3258 
Q 1159 4091 1469 4800 
z
" transform="scale(0.015625)"/>
       <path id="CenturyGothic-62" d="M 516 0 
L 516 4713 
L 950 4713 
L 950 2816 
Q 1225 3153 1565 3320 
Q 1906 3488 2313 3488 
Q 3034 3488 3545 2964 
Q 4056 2441 4056 1694 
Q 4056 956 3540 434 
Q 3025 -88 2300 -88 
Q 1884 -88 1546 90 
Q 1209 269 950 625 
L 950 0 
L 516 0 
z
M 2266 334 
Q 2631 334 2940 514 
Q 3250 694 3433 1019 
Q 3616 1344 3616 1706 
Q 3616 2069 3431 2397 
Q 3247 2725 2936 2908 
Q 2625 3091 2272 3091 
Q 1913 3091 1589 2908 
Q 1266 2725 1092 2415 
Q 919 2106 919 1719 
Q 919 1128 1308 731 
Q 1697 334 2266 334 
z
" transform="scale(0.015625)"/>
       <path id="CenturyGothic-3d" d="M 3522 3200 
L 3522 2772 
L 359 2772 
L 359 3200 
L 3522 3200 
z
M 3522 1825 
L 3522 1397 
L 359 1397 
L 359 1825 
L 3522 1825 
z
" transform="scale(0.015625)"/>
       <path id="CenturyGothic-31" d="M 1184 4597 
L 2088 4597 
L 2088 0 
L 1631 0 
L 1631 4147 
L 909 4147 
L 1184 4597 
z
" transform="scale(0.015625)"/>
       <path id="CenturyGothic-29" d="M 894 -1331 
L 388 -1331 
Q 697 -703 880 134 
Q 1063 972 1063 1863 
Q 1063 2688 923 3453 
Q 784 4219 541 4800 
L 1022 4800 
Q 1256 4244 1392 3489 
Q 1528 2734 1528 1919 
Q 1528 1044 1365 211 
Q 1203 -622 894 -1331 
z
" transform="scale(0.015625)"/>
      </defs>
      <use xlink:href="#CenturyGothic-4d"/>
      <use xlink:href="#CenturyGothic-6f" transform="translate(91.894531 0)"/>
      <use xlink:href="#CenturyGothic-6e" transform="translate(157.373047 0)"/>
      <use xlink:href="#CenturyGothic-74" transform="translate(218.359375 0)"/>
      <use xlink:href="#CenturyGothic-68" transform="translate(252.246094 0)"/>
      <use xlink:href="#CenturyGothic-73" transform="translate(313.232422 0)"/>
      <use xlink:href="#CenturyGothic-20" transform="translate(352.050781 0)"/>
      <use xlink:href="#CenturyGothic-72" transform="translate(379.736328 0)"/>
      <use xlink:href="#CenturyGothic-65" transform="translate(409.814453 0)"/>
      <use xlink:href="#CenturyGothic-6c" transform="translate(474.804688 0)"/>
      <use xlink:href="#CenturyGothic-61" transform="translate(494.824219 0)"/>
      <use xlink:href="#CenturyGothic-74" transform="translate(563.134766 0)"/>
      <use xlink:href="#CenturyGothic-69" transform="translate(597.021484 0)"/>
      <use xlink:href="#CenturyGothic-76" transform="translate(617.041016 0)"/>
      <use xlink:href="#CenturyGothic-65" transform="translate(672.460938 0)"/>
      <use xlink:href="#CenturyGothic-20" transform="translate(737.451172 0)"/>
      <use xlink:href="#CenturyGothic-74" transform="translate(765.136719 0)"/>
      <use xlink:href="#CenturyGothic-6f" transform="translate(799.023438 0)"/>
      <use xlink:href="#CenturyGothic-20" transform="translate(864.501953 0)"/>
      <use xlink:href="#CenturyGothic-32" transform="translate(892.1875 0)"/>
      <use xlink:href="#CenturyGothic-30" transform="translate(947.607422 0)"/>
      <use xlink:href="#CenturyGothic-32" transform="translate(1003.027344 0)"/>
      <use xlink:href="#CenturyGothic-32" transform="translate(1058.447266 0)"/>
      <use xlink:href="#CenturyGothic-2d" transform="translate(1113.867188 0)"/>
      <use xlink:href="#CenturyGothic-30" transform="translate(1147.070312 0)"/>
      <use xlink:href="#CenturyGothic-39" transform="translate(1202.490234 0)"/>
      <use xlink:href="#CenturyGothic-20" transform="translate(1257.910156 0)"/>
      <use xlink:href="#CenturyGothic-28" transform="translate(1285.595703 0)"/>
      <use xlink:href="#CenturyGothic-62" transform="translate(1322.509766 0)"/>
      <use xlink:href="#CenturyGothic-61" transform="translate(1390.722656 0)"/>
      <use xlink:href="#CenturyGothic-73" transform="translate(1459.033203 0)"/>
      <use xlink:href="#CenturyGothic-65" transform="translate(1497.851562 0)"/>
      <use xlink:href="#CenturyGothic-6c" transform="translate(1562.841797 0)"/>
      <use xlink:href="#CenturyGothic-69" transform="translate(1582.861328 0)"/>
      <use xlink:href="#CenturyGothic-6e" transform="translate(1602.880859 0)"/>
      <use xlink:href="#CenturyGothic-65" transform="translate(1663.867188 0)"/>
      <use xlink:href="#CenturyGothic-20" transform="translate(1728.857422 0)"/>
      <use xlink:href="#CenturyGothic-3d" transform="translate(1756.542969 0)"/>
      <use xlink:href="#CenturyGothic-20" transform="translate(1817.138672 0)"/>
      <use xlink:href="#CenturyGothic-2d" transform="translate(1844.824219 0)"/>
      <use xlink:href="#CenturyGothic-31" transform="translate(1878.027344 0)"/>
      <use xlink:href="#CenturyGothic-29" transform="translate(1933.447266 0)"/>
     </g>
    </g>
   </g>
   <g id="matplotlib.axis_2">
    <g id="ytick_1">
     <g id="line2d_8">
      <path d="M 51.09 159.085669 
L 401.303622 159.085669 
" clip-path="url(#p570f94e101)" style="fill: none; stroke: #cccccc; stroke-linecap: square"/>
     </g>
     <g id="line2d_9">
      <defs>
       <path id="mcafb0b1387" d="M 0 0 
L -3 0 
" style="stroke: #404040"/>
      </defs>
      <g>
       <use xlink:href="#mcafb0b1387" x="51.09" y="159.085669" style="fill: #404040; stroke: #404040"/>
      </g>
     </g>
     <g id="text_9">
      <!-- −0.05 -->
      <g style="fill: #404040" transform="translate(21.55 162.399497) scale(0.09 -0.09)">
       <defs>
        <path id="CenturyGothic-Bold-2e" d="M 897 891 
Q 1100 891 1244 748 
Q 1388 606 1388 403 
Q 1388 200 1244 56 
Q 1100 -88 897 -88 
Q 694 -88 550 56 
Q 406 200 406 403 
Q 406 606 550 748 
Q 694 891 897 891 
z
" transform="scale(0.015625)"/>
        <path id="CenturyGothic-Bold-35" d="M 1069 4597 
L 3222 4597 
L 3222 3791 
L 1722 3791 
L 1534 2953 
Q 1613 2975 1688 2986 
Q 1763 2997 1831 2997 
Q 2456 2997 2870 2570 
Q 3284 2144 3284 1478 
Q 3284 806 2826 345 
Q 2369 -116 1713 -116 
Q 1125 -116 703 218 
Q 281 553 150 1134 
L 1069 1134 
Q 1175 919 1348 808 
Q 1522 697 1731 697 
Q 2022 697 2225 906 
Q 2428 1116 2428 1444 
Q 2428 1763 2239 1967 
Q 2050 2172 1781 2172 
Q 1638 2172 1498 2100 
Q 1359 2028 1225 1884 
L 513 2044 
L 1069 4597 
z
" transform="scale(0.015625)"/>
       </defs>
       <use xlink:href="#CenturyGothic-Bold-2212"/>
       <use xlink:href="#CenturyGothic-Bold-30" transform="translate(60.009766 0)"/>
       <use xlink:href="#CenturyGothic-Bold-2e" transform="translate(116.015625 0)"/>
       <use xlink:href="#CenturyGothic-Bold-30" transform="translate(143.994141 0)"/>
       <use xlink:href="#CenturyGothic-Bold-35" transform="translate(200 0)"/>
      </g>
     </g>
    </g>
    <g id="ytick_2">
     <g id="line2d_10">
      <path d="M 51.09 133.516545 
L 401.303622 133.516545 
" clip-path="url(#p570f94e101)" style="fill: none; stroke: #cccccc; stroke-linecap: square"/>
     </g>
     <g id="line2d_11">
      <g>
       <use xlink:href="#mcafb0b1387" x="51.09" y="133.516545" style="fill: #404040; stroke: #404040"/>
      </g>
     </g>
     <g id="text_10">
      <!-- 0.00 -->
      <g style="fill: #404040" transform="translate(26.951406 136.830373) scale(0.09 -0.09)">
       <use xlink:href="#CenturyGothic-Bold-30"/>
       <use xlink:href="#CenturyGothic-Bold-2e" transform="translate(56.005859 0)"/>
       <use xlink:href="#CenturyGothic-Bold-30" transform="translate(83.984375 0)"/>
       <use xlink:href="#CenturyGothic-Bold-30" transform="translate(139.990234 0)"/>
      </g>
     </g>
    </g>
    <g id="ytick_3">
     <g id="line2d_12">
      <path d="M 51.09 107.94742 
L 401.303622 107.94742 
" clip-path="url(#p570f94e101)" style="fill: none; stroke: #cccccc; stroke-linecap: square"/>
     </g>
     <g id="line2d_13">
      <g>
       <use xlink:href="#mcafb0b1387" x="51.09" y="107.94742" style="fill: #404040; stroke: #404040"/>
      </g>
     </g>
     <g id="text_11">
      <!-- 0.05 -->
      <g style="fill: #404040" transform="translate(26.951406 111.261248) scale(0.09 -0.09)">
       <use xlink:href="#CenturyGothic-Bold-30"/>
       <use xlink:href="#CenturyGothic-Bold-2e" transform="translate(56.005859 0)"/>
       <use xlink:href="#CenturyGothic-Bold-30" transform="translate(83.984375 0)"/>
       <use xlink:href="#CenturyGothic-Bold-35" transform="translate(139.990234 0)"/>
      </g>
     </g>
    </g>
    <g id="ytick_4">
     <g id="line2d_14">
      <path d="M 51.09 82.378296 
L 401.303622 82.378296 
" clip-path="url(#p570f94e101)" style="fill: none; stroke: #cccccc; stroke-linecap: square"/>
     </g>
     <g id="line2d_15">
      <g>
       <use xlink:href="#mcafb0b1387" x="51.09" y="82.378296" style="fill: #404040; stroke: #404040"/>
      </g>
     </g>
     <g id="text_12">
      <!-- 0.10 -->
      <g style="fill: #404040" transform="translate(26.951406 85.692124) scale(0.09 -0.09)">
       <use xlink:href="#CenturyGothic-Bold-30"/>
       <use xlink:href="#CenturyGothic-Bold-2e" transform="translate(56.005859 0)"/>
       <use xlink:href="#CenturyGothic-Bold-31" transform="translate(83.984375 0)"/>
       <use xlink:href="#CenturyGothic-Bold-30" transform="translate(139.990234 0)"/>
      </g>
     </g>
    </g>
    <g id="ytick_5">
     <g id="line2d_16">
      <path d="M 51.09 56.809172 
L 401.303622 56.809172 
" clip-path="url(#p570f94e101)" style="fill: none; stroke: #cccccc; stroke-linecap: square"/>
     </g>
     <g id="line2d_17">
      <g>
       <use xlink:href="#mcafb0b1387" x="51.09" y="56.809172" style="fill: #404040; stroke: #404040"/>
      </g>
     </g>
     <g id="text_13">
      <!-- 0.15 -->
      <g style="fill: #404040" transform="translate(26.951406 60.123) scale(0.09 -0.09)">
       <use xlink:href="#CenturyGothic-Bold-30"/>
       <use xlink:href="#CenturyGothic-Bold-2e" transform="translate(56.005859 0)"/>
       <use xlink:href="#CenturyGothic-Bold-31" transform="translate(83.984375 0)"/>
       <use xlink:href="#CenturyGothic-Bold-35" transform="translate(139.990234 0)"/>
      </g>
     </g>
    </g>
    <g id="ytick_6">
     <g id="line2d_18">
      <path d="M 51.09 31.240047 
L 401.303622 31.240047 
" clip-path="url(#p570f94e101)" style="fill: none; stroke: #cccccc; stroke-linecap: square"/>
     </g>
     <g id="line2d_19">
      <g>
       <use xlink:href="#mcafb0b1387" x="51.09" y="31.240047" style="fill: #404040; stroke: #404040"/>
      </g>
     </g>
     <g id="text_14">
      <!-- 0.20 -->
      <g style="fill: #404040" transform="translate(26.951406 34.553875) scale(0.09 -0.09)">
       <use xlink:href="#CenturyGothic-Bold-30"/>
       <use xlink:href="#CenturyGothic-Bold-2e" transform="translate(56.005859 0)"/>
       <use xlink:href="#CenturyGothic-Bold-32" transform="translate(83.984375 0)"/>
       <use xlink:href="#CenturyGothic-Bold-30" transform="translate(139.990234 0)"/>
      </g>
     </g>
    </g>
    <g id="text_15">
     <!-- SDID gap on log registered unemployment -->
     <g transform="translate(15.678281 182.64239) rotate(-90) scale(0.09 -0.09)">
      <defs>
       <path id="CenturyGothic-53" d="M 84 856 
L 475 1091 
Q 888 331 1428 331 
Q 1659 331 1862 439 
Q 2066 547 2172 728 
Q 2278 909 2278 1113 
Q 2278 1344 2122 1566 
Q 1906 1872 1334 2303 
Q 759 2738 619 2931 
Q 375 3256 375 3634 
Q 375 3934 519 4181 
Q 663 4428 923 4570 
Q 1184 4713 1491 4713 
Q 1816 4713 2098 4552 
Q 2381 4391 2697 3959 
L 2322 3675 
Q 2063 4019 1880 4128 
Q 1697 4238 1481 4238 
Q 1203 4238 1026 4069 
Q 850 3900 850 3653 
Q 850 3503 912 3362 
Q 975 3222 1141 3056 
Q 1231 2969 1734 2597 
Q 2331 2156 2553 1812 
Q 2775 1469 2775 1122 
Q 2775 622 2395 253 
Q 2016 -116 1472 -116 
Q 1053 -116 712 107 
Q 372 331 84 856 
z
" transform="scale(0.015625)"/>
       <path id="CenturyGothic-44" d="M 559 0 
L 559 4597 
L 1513 4597 
Q 2544 4597 3009 4431 
Q 3678 4197 4054 3619 
Q 4431 3041 4431 2241 
Q 4431 1550 4132 1025 
Q 3834 500 3357 250 
Q 2881 0 2022 0 
L 559 0 
z
M 1000 434 
L 1531 434 
Q 2484 434 2853 553 
Q 3372 722 3669 1161 
Q 3966 1600 3966 2234 
Q 3966 2900 3644 3372 
Q 3322 3844 2747 4019 
Q 2316 4150 1325 4150 
L 1000 4150 
L 1000 434 
z
" transform="scale(0.015625)"/>
       <path id="CenturyGothic-49" d="M 494 4597 
L 953 4597 
L 953 0 
L 494 0 
L 494 4597 
z
" transform="scale(0.015625)"/>
       <path id="CenturyGothic-67" d="M 3416 3400 
L 3856 3400 
L 3856 691 
Q 3856 -25 3731 -356 
Q 3559 -825 3134 -1078 
Q 2709 -1331 2113 -1331 
Q 1675 -1331 1326 -1207 
Q 978 -1084 759 -876 
Q 541 -669 356 -269 
L 831 -269 
Q 1025 -606 1331 -768 
Q 1638 -931 2091 -931 
Q 2538 -931 2845 -764 
Q 3153 -597 3284 -344 
Q 3416 -91 3416 472 
L 3416 647 
Q 3169 334 2812 167 
Q 2456 0 2056 0 
Q 1588 0 1175 233 
Q 763 466 538 859 
Q 313 1253 313 1725 
Q 313 2197 547 2605 
Q 781 3013 1195 3250 
Q 1609 3488 2069 3488 
Q 2450 3488 2779 3330 
Q 3109 3172 3416 2809 
L 3416 3400 
z
M 2125 3066 
Q 1753 3066 1434 2886 
Q 1116 2706 934 2389 
Q 753 2072 753 1703 
Q 753 1144 1128 778 
Q 1503 413 2100 413 
Q 2703 413 3070 775 
Q 3438 1138 3438 1728 
Q 3438 2113 3269 2414 
Q 3100 2716 2790 2891 
Q 2481 3066 2125 3066 
z
" transform="scale(0.015625)"/>
       <path id="CenturyGothic-70" d="M 494 3400 
L 928 3400 
L 928 2775 
Q 1188 3131 1525 3309 
Q 1863 3488 2278 3488 
Q 3003 3488 3518 2966 
Q 4034 2444 4034 1709 
Q 4034 959 3523 435 
Q 3013 -88 2291 -88 
Q 1884 -88 1543 81 
Q 1203 250 928 584 
L 928 -1244 
L 494 -1244 
L 494 3400 
z
M 2244 3066 
Q 1675 3066 1286 2669 
Q 897 2272 897 1681 
Q 897 1294 1070 984 
Q 1244 675 1567 494 
Q 1891 313 2250 313 
Q 2603 313 2914 495 
Q 3225 678 3409 1006 
Q 3594 1334 3594 1694 
Q 3594 2056 3411 2381 
Q 3228 2706 2918 2886 
Q 2609 3066 2244 3066 
z
" transform="scale(0.015625)"/>
       <path id="CenturyGothic-64" d="M 3881 4713 
L 3881 0 
L 3450 0 
L 3450 584 
Q 3175 250 2833 81 
Q 2491 -88 2084 -88 
Q 1363 -88 852 435 
Q 341 959 341 1709 
Q 341 2444 856 2966 
Q 1372 3488 2097 3488 
Q 2516 3488 2855 3309 
Q 3194 3131 3450 2775 
L 3450 4713 
L 3881 4713 
z
M 2131 3066 
Q 1766 3066 1456 2886 
Q 1147 2706 964 2381 
Q 781 2056 781 1694 
Q 781 1334 965 1006 
Q 1150 678 1461 495 
Q 1772 313 2128 313 
Q 2488 313 2809 494 
Q 3131 675 3304 984 
Q 3478 1294 3478 1681 
Q 3478 2272 3089 2669 
Q 2700 3066 2131 3066 
z
" transform="scale(0.015625)"/>
       <path id="CenturyGothic-75" d="M 431 3400 
L 872 3400 
L 872 1813 
Q 872 1231 934 1013 
Q 1028 700 1292 519 
Q 1556 338 1922 338 
Q 2288 338 2542 514 
Q 2797 691 2894 978 
Q 2959 1175 2959 1813 
L 2959 3400 
L 3406 3400 
L 3406 1731 
Q 3406 1028 3242 672 
Q 3078 316 2748 114 
Q 2419 -88 1922 -88 
Q 1425 -88 1092 114 
Q 759 316 595 677 
Q 431 1038 431 1763 
L 431 3400 
z
" transform="scale(0.015625)"/>
       <path id="CenturyGothic-6d" d="M 484 3400 
L 919 3400 
L 919 2813 
Q 1147 3138 1388 3288 
Q 1719 3488 2084 3488 
Q 2331 3488 2553 3391 
Q 2775 3294 2915 3133 
Q 3056 2972 3159 2672 
Q 3378 3072 3706 3280 
Q 4034 3488 4413 3488 
Q 4766 3488 5036 3309 
Q 5306 3131 5437 2812 
Q 5569 2494 5569 1856 
L 5569 0 
L 5122 0 
L 5122 1856 
Q 5122 2403 5044 2608 
Q 4966 2813 4777 2938 
Q 4588 3063 4325 3063 
Q 4006 3063 3742 2875 
Q 3478 2688 3356 2375 
Q 3234 2063 3234 1331 
L 3234 0 
L 2800 0 
L 2800 1741 
Q 2800 2356 2723 2576 
Q 2647 2797 2456 2930 
Q 2266 3063 2003 3063 
Q 1700 3063 1436 2880 
Q 1172 2697 1045 2387 
Q 919 2078 919 1441 
L 919 0 
L 484 0 
L 484 3400 
z
" transform="scale(0.015625)"/>
       <path id="CenturyGothic-79" d="M 122 3400 
L 584 3400 
L 1753 781 
L 2888 3400 
L 3353 3400 
L 1325 -1244 
L 863 -1244 
L 1519 256 
L 122 3400 
z
" transform="scale(0.015625)"/>
      </defs>
      <use xlink:href="#CenturyGothic-53"/>
      <use xlink:href="#CenturyGothic-44" transform="translate(49.804688 0)"/>
      <use xlink:href="#CenturyGothic-49" transform="translate(124.21875 0)"/>
      <use xlink:href="#CenturyGothic-44" transform="translate(146.826172 0)"/>
      <use xlink:href="#CenturyGothic-20" transform="translate(221.240234 0)"/>
      <use xlink:href="#CenturyGothic-67" transform="translate(248.925781 0)"/>
      <use xlink:href="#CenturyGothic-61" transform="translate(316.210938 0)"/>
      <use xlink:href="#CenturyGothic-70" transform="translate(384.521484 0)"/>
      <use xlink:href="#CenturyGothic-20" transform="translate(452.734375 0)"/>
      <use xlink:href="#CenturyGothic-6f" transform="translate(480.419922 0)"/>
      <use xlink:href="#CenturyGothic-6e" transform="translate(545.898438 0)"/>
      <use xlink:href="#CenturyGothic-20" transform="translate(606.884766 0)"/>
      <use xlink:href="#CenturyGothic-6c" transform="translate(634.570312 0)"/>
      <use xlink:href="#CenturyGothic-6f" transform="translate(654.589844 0)"/>
      <use xlink:href="#CenturyGothic-67" transform="translate(720.068359 0)"/>
      <use xlink:href="#CenturyGothic-20" transform="translate(787.353516 0)"/>
      <use xlink:href="#CenturyGothic-72" transform="translate(815.039062 0)"/>
      <use xlink:href="#CenturyGothic-65" transform="translate(845.117188 0)"/>
      <use xlink:href="#CenturyGothic-67" transform="translate(910.107422 0)"/>
      <use xlink:href="#CenturyGothic-69" transform="translate(977.392578 0)"/>
      <use xlink:href="#CenturyGothic-73" transform="translate(997.412109 0)"/>
      <use xlink:href="#CenturyGothic-74" transform="translate(1036.230469 0)"/>
      <use xlink:href="#CenturyGothic-65" transform="translate(1070.117188 0)"/>
      <use xlink:href="#CenturyGothic-72" transform="translate(1135.107422 0)"/>
      <use xlink:href="#CenturyGothic-65" transform="translate(1165.185547 0)"/>
      <use xlink:href="#CenturyGothic-64" transform="translate(1230.175781 0)"/>
      <use xlink:href="#CenturyGothic-20" transform="translate(1298.681641 0)"/>
      <use xlink:href="#CenturyGothic-75" transform="translate(1326.367188 0)"/>
      <use xlink:href="#CenturyGothic-6e" transform="translate(1387.158203 0)"/>
      <use xlink:href="#CenturyGothic-65" transform="translate(1448.144531 0)"/>
      <use xlink:href="#CenturyGothic-6d" transform="translate(1513.134766 0)"/>
      <use xlink:href="#CenturyGothic-70" transform="translate(1606.933594 0)"/>
      <use xlink:href="#CenturyGothic-6c" transform="translate(1675.146484 0)"/>
      <use xlink:href="#CenturyGothic-6f" transform="translate(1695.166016 0)"/>
      <use xlink:href="#CenturyGothic-79" transform="translate(1760.644531 0)"/>
      <use xlink:href="#CenturyGothic-6d" transform="translate(1814.257812 0)"/>
      <use xlink:href="#CenturyGothic-65" transform="translate(1908.056641 0)"/>
      <use xlink:href="#CenturyGothic-6e" transform="translate(1973.046875 0)"/>
      <use xlink:href="#CenturyGothic-74" transform="translate(2034.033203 0)"/>
     </g>
    </g>
   </g>
   <g id="line2d_20">
    <path d="M 51.09 133.516545 
L 401.303622 133.516545 
" clip-path="url(#p570f94e101)" style="fill: none; stroke: #404040; stroke-width: 0.9; stroke-linecap: square"/>
   </g>
   <g id="line2d_21">
    <path d="M 167.143194 169.451811 
L 167.143194 9.72 
" clip-path="url(#p570f94e101)" style="fill: none; stroke-dasharray: 3.7,1.6; stroke-dashoffset: 0; stroke: #404040"/>
   </g>
   <g id="line2d_22">
    <path d="M 67.008801 133.514539 
L 72.143898 133.514997 
L 77.278995 133.510708 
L 82.414092 133.51592 
L 87.549189 133.515354 
L 92.684286 133.512254 
L 97.819384 133.516142 
L 102.954481 133.513528 
L 108.089578 133.514126 
L 113.224675 133.512279 
L 118.359772 133.514129 
L 123.494869 133.518036 
L 128.629966 133.510251 
L 133.765063 133.515133 
L 138.90016 133.514344 
L 144.035257 133.51429 
L 149.170355 133.513955 
L 154.305452 133.516306 
L 159.440549 133.509903 
L 164.575646 133.516545 
L 169.710743 128.258551 
L 174.84584 123.174383 
L 179.980937 122.826745 
L 185.116034 119.042227 
L 190.251131 122.132378 
L 195.386228 116.928038 
L 200.521326 105.327112 
L 205.656423 107.090267 
L 210.79152 107.141878 
L 215.926617 104.353023 
L 221.061714 105.308821 
L 226.196811 100.418396 
L 231.331908 93.789155 
L 236.467005 93.747164 
L 241.602102 92.064806 
L 246.737199 90.247028 
L 251.872297 93.938438 
L 257.007394 94.796559 
L 262.142491 94.218032 
L 267.277588 88.884726 
L 272.412685 90.656219 
L 277.547782 89.191019 
L 282.682879 91.288795 
L 287.817976 89.030195 
L 292.953073 84.481463 
L 298.08817 84.358852 
L 303.223267 79.943568 
L 308.358365 80.44007 
L 313.493462 82.001138 
L 318.628559 75.970325 
L 323.763656 74.405053 
L 328.898753 70.523226 
L 334.03385 69.90942 
L 339.168947 68.912811 
L 344.304044 65.893413 
L 349.439141 65.540974 
L 354.574238 57.100927 
L 359.709336 59.091469 
L 364.844433 55.038241 
L 369.97953 58.749882 
L 375.114627 54.151993 
L 380.249724 54.133786 
L 385.384821 45.653775 
" clip-path="url(#p570f94e101)" style="fill: none; stroke: #83082a; stroke-width: 1.6; stroke-linecap: square"/>
    <defs>
     <path id="mc1f61d4f7d" d="M 0 1.6 
C 0.424325 1.6 0.831328 1.431414 1.131371 1.131371 
C 1.431414 0.831328 1.6 0.424325 1.6 0 
C 1.6 -0.424325 1.431414 -0.831328 1.131371 -1.131371 
C 0.831328 -1.431414 0.424325 -1.6 0 -1.6 
C -0.424325 -1.6 -0.831328 -1.431414 -1.131371 -1.131371 
C -1.431414 -0.831328 -1.6 -0.424325 -1.6 0 
C -1.6 0.424325 -1.431414 0.831328 -1.131371 1.131371 
C -0.831328 1.431414 -0.424325 1.6 0 1.6 
z
" style="stroke: #83082a"/>
    </defs>
    <g clip-path="url(#p570f94e101)">
     <use xlink:href="#mc1f61d4f7d" x="67.008801" y="133.514539" style="fill: #83082a; stroke: #83082a"/>
     <use xlink:href="#mc1f61d4f7d" x="72.143898" y="133.514997" style="fill: #83082a; stroke: #83082a"/>
     <use xlink:href="#mc1f61d4f7d" x="77.278995" y="133.510708" style="fill: #83082a; stroke: #83082a"/>
     <use xlink:href="#mc1f61d4f7d" x="82.414092" y="133.51592" style="fill: #83082a; stroke: #83082a"/>
     <use xlink:href="#mc1f61d4f7d" x="87.549189" y="133.515354" style="fill: #83082a; stroke: #83082a"/>
     <use xlink:href="#mc1f61d4f7d" x="92.684286" y="133.512254" style="fill: #83082a; stroke: #83082a"/>
     <use xlink:href="#mc1f61d4f7d" x="97.819384" y="133.516142" style="fill: #83082a; stroke: #83082a"/>
     <use xlink:href="#mc1f61d4f7d" x="102.954481" y="133.513528" style="fill: #83082a; stroke: #83082a"/>
     <use xlink:href="#mc1f61d4f7d" x="108.089578" y="133.514126" style="fill: #83082a; stroke: #83082a"/>
     <use xlink:href="#mc1f61d4f7d" x="113.224675" y="133.512279" style="fill: #83082a; stroke: #83082a"/>
     <use xlink:href="#mc1f61d4f7d" x="118.359772" y="133.514129" style="fill: #83082a; stroke: #83082a"/>
     <use xlink:href="#mc1f61d4f7d" x="123.494869" y="133.518036" style="fill: #83082a; stroke: #83082a"/>
     <use xlink:href="#mc1f61d4f7d" x="128.629966" y="133.510251" style="fill: #83082a; stroke: #83082a"/>
     <use xlink:href="#mc1f61d4f7d" x="133.765063" y="133.515133" style="fill: #83082a; stroke: #83082a"/>
     <use xlink:href="#mc1f61d4f7d" x="138.90016" y="133.514344" style="fill: #83082a; stroke: #83082a"/>
     <use xlink:href="#mc1f61d4f7d" x="144.035257" y="133.51429" style="fill: #83082a; stroke: #83082a"/>
     <use xlink:href="#mc1f61d4f7d" x="149.170355" y="133.513955" style="fill: #83082a; stroke: #83082a"/>
     <use xlink:href="#mc1f61d4f7d" x="154.305452" y="133.516306" style="fill: #83082a; stroke: #83082a"/>
     <use xlink:href="#mc1f61d4f7d" x="159.440549" y="133.509903" style="fill: #83082a; stroke: #83082a"/>
     <use xlink:href="#mc1f61d4f7d" x="164.575646" y="133.516545" style="fill: #83082a; stroke: #83082a"/>
     <use xlink:href="#mc1f61d4f7d" x="169.710743" y="128.258551" style="fill: #83082a; stroke: #83082a"/>
     <use xlink:href="#mc1f61d4f7d" x="174.84584" y="123.174383" style="fill: #83082a; stroke: #83082a"/>
     <use xlink:href="#mc1f61d4f7d" x="179.980937" y="122.826745" style="fill: #83082a; stroke: #83082a"/>
     <use xlink:href="#mc1f61d4f7d" x="185.116034" y="119.042227" style="fill: #83082a; stroke: #83082a"/>
     <use xlink:href="#mc1f61d4f7d" x="190.251131" y="122.132378" style="fill: #83082a; stroke: #83082a"/>
     <use xlink:href="#mc1f61d4f7d" x="195.386228" y="116.928038" style="fill: #83082a; stroke: #83082a"/>
     <use xlink:href="#mc1f61d4f7d" x="200.521326" y="105.327112" style="fill: #83082a; stroke: #83082a"/>
     <use xlink:href="#mc1f61d4f7d" x="205.656423" y="107.090267" style="fill: #83082a; stroke: #83082a"/>
     <use xlink:href="#mc1f61d4f7d" x="210.79152" y="107.141878" style="fill: #83082a; stroke: #83082a"/>
     <use xlink:href="#mc1f61d4f7d" x="215.926617" y="104.353023" style="fill: #83082a; stroke: #83082a"/>
     <use xlink:href="#mc1f61d4f7d" x="221.061714" y="105.308821" style="fill: #83082a; stroke: #83082a"/>
     <use xlink:href="#mc1f61d4f7d" x="226.196811" y="100.418396" style="fill: #83082a; stroke: #83082a"/>
     <use xlink:href="#mc1f61d4f7d" x="231.331908" y="93.789155" style="fill: #83082a; stroke: #83082a"/>
     <use xlink:href="#mc1f61d4f7d" x="236.467005" y="93.747164" style="fill: #83082a; stroke: #83082a"/>
     <use xlink:href="#mc1f61d4f7d" x="241.602102" y="92.064806" style="fill: #83082a; stroke: #83082a"/>
     <use xlink:href="#mc1f61d4f7d" x="246.737199" y="90.247028" style="fill: #83082a; stroke: #83082a"/>
     <use xlink:href="#mc1f61d4f7d" x="251.872297" y="93.938438" style="fill: #83082a; stroke: #83082a"/>
     <use xlink:href="#mc1f61d4f7d" x="257.007394" y="94.796559" style="fill: #83082a; stroke: #83082a"/>
     <use xlink:href="#mc1f61d4f7d" x="262.142491" y="94.218032" style="fill: #83082a; stroke: #83082a"/>
     <use xlink:href="#mc1f61d4f7d" x="267.277588" y="88.884726" style="fill: #83082a; stroke: #83082a"/>
     <use xlink:href="#mc1f61d4f7d" x="272.412685" y="90.656219" style="fill: #83082a; stroke: #83082a"/>
     <use xlink:href="#mc1f61d4f7d" x="277.547782" y="89.191019" style="fill: #83082a; stroke: #83082a"/>
     <use xlink:href="#mc1f61d4f7d" x="282.682879" y="91.288795" style="fill: #83082a; stroke: #83082a"/>
     <use xlink:href="#mc1f61d4f7d" x="287.817976" y="89.030195" style="fill: #83082a; stroke: #83082a"/>
     <use xlink:href="#mc1f61d4f7d" x="292.953073" y="84.481463" style="fill: #83082a; stroke: #83082a"/>
     <use xlink:href="#mc1f61d4f7d" x="298.08817" y="84.358852" style="fill: #83082a; stroke: #83082a"/>
     <use xlink:href="#mc1f61d4f7d" x="303.223267" y="79.943568" style="fill: #83082a; stroke: #83082a"/>
     <use xlink:href="#mc1f61d4f7d" x="308.358365" y="80.44007" style="fill: #83082a; stroke: #83082a"/>
     <use xlink:href="#mc1f61d4f7d" x="313.493462" y="82.001138" style="fill: #83082a; stroke: #83082a"/>
     <use xlink:href="#mc1f61d4f7d" x="318.628559" y="75.970325" style="fill: #83082a; stroke: #83082a"/>
     <use xlink:href="#mc1f61d4f7d" x="323.763656" y="74.405053" style="fill: #83082a; stroke: #83082a"/>
     <use xlink:href="#mc1f61d4f7d" x="328.898753" y="70.523226" style="fill: #83082a; stroke: #83082a"/>
     <use xlink:href="#mc1f61d4f7d" x="334.03385" y="69.90942" style="fill: #83082a; stroke: #83082a"/>
     <use xlink:href="#mc1f61d4f7d" x="339.168947" y="68.912811" style="fill: #83082a; stroke: #83082a"/>
     <use xlink:href="#mc1f61d4f7d" x="344.304044" y="65.893413" style="fill: #83082a; stroke: #83082a"/>
     <use xlink:href="#mc1f61d4f7d" x="349.439141" y="65.540974" style="fill: #83082a; stroke: #83082a"/>
     <use xlink:href="#mc1f61d4f7d" x="354.574238" y="57.100927" style="fill: #83082a; stroke: #83082a"/>
     <use xlink:href="#mc1f61d4f7d" x="359.709336" y="59.091469" style="fill: #83082a; stroke: #83082a"/>
     <use xlink:href="#mc1f61d4f7d" x="364.844433" y="55.038241" style="fill: #83082a; stroke: #83082a"/>
     <use xlink:href="#mc1f61d4f7d" x="369.97953" y="58.749882" style="fill: #83082a; stroke: #83082a"/>
     <use xlink:href="#mc1f61d4f7d" x="375.114627" y="54.151993" style="fill: #83082a; stroke: #83082a"/>
     <use xlink:href="#mc1f61d4f7d" x="380.249724" y="54.133786" style="fill: #83082a; stroke: #83082a"/>
     <use xlink:href="#mc1f61d4f7d" x="385.384821" y="45.653775" style="fill: #83082a; stroke: #83082a"/>
    </g>
   </g>
   <g id="patch_3">
    <path d="M 51.09 169.451811 
L 51.09 9.72 
" style="fill: none; stroke: #404040; stroke-linejoin: miter; stroke-linecap: square"/>
   </g>
   <g id="patch_4">
    <path d="M 51.09 169.451811 
L 401.303622 169.451811 
" style="fill: none; stroke: #404040; stroke-linejoin: miter; stroke-linecap: square"/>
   </g>
  </g>
 </g>
 <defs>
  <clipPath id="p570f94e101">
   <rect x="51.09" y="9.72" width="350.213622" height="159.731811"/>
  </clipPath>
 </defs>
</svg>
