<?xml version="1.0" encoding="UTF-8" standalone="no"?>
<!-- This is a Stata 19.5 generated SVG file (http://www.stata.com) -->

<svg version="1.1" width="6.000in" height="3.000in" viewBox="0 0 4320 2160" xmlns="http://www.w3.org/2000/svg" xmlns:xlink="http://www.w3.org/1999/xlink">
	<desc>Stata Graph - g_event</desc>
	<rect x="0" y="0" width="4320" height="2160" style="fill:#EAF2F3;stroke:none"/>
	<rect x="0.00" y="0.00" width="4320.00" height="2160.00" style="fill:#FFFFFF"/>
	<rect x="2.16" y="2.16" width="4315.68" height="2155.68" style="fill:none;stroke:#FFFFFF;stroke-width:4.32"/>
	<rect x="245.97" y="0.00" width="4074.03" height="2032.56" style="fill:#FFFFFF"/>
	<rect x="248.13" y="2.16" width="4069.71" height="2028.24" style="fill:none;stroke:#FFFFFF;stroke-width:4.32"/>
	<line x1="245.97" y1="1985.04" x2="4320.00" y2="1985.04" style="stroke:#CCCCCC;stroke-width:6.48"/>
	<line x1="245.97" y1="1500.66" x2="4320.00" y2="1500.66" style="stroke:#CCCCCC;stroke-width:6.48"/>
	<line x1="245.97" y1="1016.28" x2="4320.00" y2="1016.28" style="stroke:#CCCCCC;stroke-width:6.48"/>
	<line x1="245.97" y1="531.90" x2="4320.00" y2="531.90" style="stroke:#CCCCCC;stroke-width:6.48"/>
	<line x1="245.97" y1="47.52" x2="4320.00" y2="47.52" style="stroke:#CCCCCC;stroke-width:6.48"/>
	<line x1="1588.28" y1="2032.56" x2="1588.28" y2="1989.36" style="stroke:#404040;stroke-width:6.48"/>
	<line x1="1588.28" y1="1967.76" x2="1588.28" y2="1924.56" style="stroke:#404040;stroke-width:6.48"/>
	<line x1="1588.28" y1="1902.96" x2="1588.28" y2="1859.76" style="stroke:#404040;stroke-width:6.48"/>
	<line x1="1588.28" y1="1838.16" x2="1588.28" y2="1794.96" style="stroke:#404040;stroke-width:6.48"/>
	<line x1="1588.28" y1="1773.36" x2="1588.28" y2="1730.16" style="stroke:#404040;stroke-width:6.48"/>
	<line x1="1588.28" y1="1708.56" x2="1588.28" y2="1665.36" style="stroke:#404040;stroke-width:6.48"/>
	<line x1="1588.28" y1="1643.76" x2="1588.28" y2="1600.56" style="stroke:#404040;stroke-width:6.48"/>
	<line x1="1588.28" y1="1578.96" x2="1588.28" y2="1535.76" style="stroke:#404040;stroke-width:6.48"/>
	<line x1="1588.28" y1="1514.16" x2="1588.28" y2="1470.96" style="stroke:#404040;stroke-width:6.48"/>
	<line x1="1588.28" y1="1449.36" x2="1588.28" y2="1406.16" style="stroke:#404040;stroke-width:6.48"/>
	<line x1="1588.28" y1="1384.56" x2="1588.28" y2="1341.36" style="stroke:#404040;stroke-width:6.48"/>
	<line x1="1588.28" y1="1319.76" x2="1588.28" y2="1276.56" style="stroke:#404040;stroke-width:6.48"/>
	<line x1="1588.28" y1="1254.96" x2="1588.28" y2="1211.76" style="stroke:#404040;stroke-width:6.48"/>
	<line x1="1588.28" y1="1190.16" x2="1588.28" y2="1146.96" style="stroke:#404040;stroke-width:6.48"/>
	<line x1="1588.28" y1="1125.36" x2="1588.28" y2="1082.16" style="stroke:#404040;stroke-width:6.48"/>
	<line x1="1588.28" y1="1060.56" x2="1588.28" y2="1017.36" style="stroke:#404040;stroke-width:6.48"/>
	<line x1="1588.28" y1="995.76" x2="1588.28" y2="952.56" style="stroke:#404040;stroke-width:6.48"/>
	<line x1="1588.28" y1="930.96" x2="1588.28" y2="887.76" style="stroke:#404040;stroke-width:6.48"/>
	<line x1="1588.28" y1="866.16" x2="1588.28" y2="822.96" style="stroke:#404040;stroke-width:6.48"/>
	<line x1="1588.28" y1="801.36" x2="1588.28" y2="758.16" style="stroke:#404040;stroke-width:6.48"/>
	<line x1="1588.28" y1="736.56" x2="1588.28" y2="693.36" style="stroke:#404040;stroke-width:6.48"/>
	<line x1="1588.28" y1="671.76" x2="1588.28" y2="628.56" style="stroke:#404040;stroke-width:6.48"/>
	<line x1="1588.28" y1="606.96" x2="1588.28" y2="563.76" style="stroke:#404040;stroke-width:6.48"/>
	<line x1="1588.28" y1="542.16" x2="1588.28" y2="498.96" style="stroke:#404040;stroke-width:6.48"/>
	<line x1="1588.28" y1="477.36" x2="1588.28" y2="434.16" style="stroke:#404040;stroke-width:6.48"/>
	<line x1="1588.28" y1="412.56" x2="1588.28" y2="369.36" style="stroke:#404040;stroke-width:6.48"/>
	<line x1="1588.28" y1="347.76" x2="1588.28" y2="304.56" style="stroke:#404040;stroke-width:6.48"/>
	<line x1="1588.28" y1="282.96" x2="1588.28" y2="239.76" style="stroke:#404040;stroke-width:6.48"/>
	<line x1="1588.28" y1="218.16" x2="1588.28" y2="174.96" style="stroke:#404040;stroke-width:6.48"/>
	<line x1="1588.28" y1="153.36" x2="1588.28" y2="110.16" style="stroke:#404040;stroke-width:6.48"/>
	<line x1="1588.28" y1="88.56" x2="1588.28" y2="45.36" style="stroke:#404040;stroke-width:6.48"/>
	<line x1="1588.28" y1="23.76" x2="1588.28" y2="0.00" style="stroke:#404040;stroke-width:6.48"/>
	<line x1="245.97" y1="1016.28" x2="4320.00" y2="1016.28" style="stroke:#404040;stroke-width:6.48"/>
	<line x1="293.49" y1="968.09" x2="293.49" y2="1558.98" style="stroke:#E397A0;stroke-width:6.48"/>
	<line x1="277.02" y1="1558.98" x2="309.96" y2="1558.98" stroke-linecap="round" style="stroke:#E397A0;stroke-width:6.48"/>
	<line x1="277.02" y1="968.09" x2="309.96" y2="968.09" stroke-linecap="round" style="stroke:#E397A0;stroke-width:6.48"/>
	<line x1="356.67" y1="849.42" x2="356.67" y2="1431.95" style="stroke:#E397A0;stroke-width:6.48"/>
	<line x1="340.20" y1="1431.95" x2="373.14" y2="1431.95" stroke-linecap="round" style="stroke:#E397A0;stroke-width:6.48"/>
	<line x1="340.20" y1="849.42" x2="373.14" y2="849.42" stroke-linecap="round" style="stroke:#E397A0;stroke-width:6.48"/>
	<line x1="419.85" y1="867.51" x2="419.85" y2="1330.16" style="stroke:#E397A0;stroke-width:6.48"/>
	<line x1="403.38" y1="1330.16" x2="436.32" y2="1330.16" stroke-linecap="round" style="stroke:#E397A0;stroke-width:6.48"/>
	<line x1="403.38" y1="867.51" x2="436.32" y2="867.51" stroke-linecap="round" style="stroke:#E397A0;stroke-width:6.48"/>
	<line x1="482.90" y1="821.74" x2="482.90" y2="1302.21" style="stroke:#E397A0;stroke-width:6.48"/>
	<line x1="466.43" y1="1302.21" x2="499.37" y2="1302.21" stroke-linecap="round" style="stroke:#E397A0;stroke-width:6.48"/>
	<line x1="466.43" y1="821.74" x2="499.37" y2="821.74" stroke-linecap="round" style="stroke:#E397A0;stroke-width:6.48"/>
	<line x1="546.08" y1="853.74" x2="546.08" y2="1289.39" style="stroke:#E397A0;stroke-width:6.48"/>
	<line x1="529.61" y1="1289.39" x2="562.54" y2="1289.39" stroke-linecap="round" style="stroke:#E397A0;stroke-width:6.48"/>
	<line x1="529.61" y1="853.74" x2="562.54" y2="853.74" stroke-linecap="round" style="stroke:#E397A0;stroke-width:6.48"/>
	<line x1="609.26" y1="643.55" x2="609.26" y2="1488.38" style="stroke:#E397A0;stroke-width:6.48"/>
	<line x1="592.79" y1="1488.38" x2="625.73" y2="1488.38" stroke-linecap="round" style="stroke:#E397A0;stroke-width:6.48"/>
	<line x1="592.79" y1="643.55" x2="625.73" y2="643.55" stroke-linecap="round" style="stroke:#E397A0;stroke-width:6.48"/>
	<line x1="672.44" y1="928.26" x2="672.44" y2="1653.08" style="stroke:#E397A0;stroke-width:6.48"/>
	<line x1="655.97" y1="1653.08" x2="688.91" y2="1653.08" stroke-linecap="round" style="stroke:#E397A0;stroke-width:6.48"/>
	<line x1="655.97" y1="928.26" x2="688.91" y2="928.26" stroke-linecap="round" style="stroke:#E397A0;stroke-width:6.48"/>
	<line x1="735.62" y1="1111.72" x2="735.62" y2="1735.43" style="stroke:#E397A0;stroke-width:6.48"/>
	<line x1="719.15" y1="1735.43" x2="752.09" y2="1735.43" stroke-linecap="round" style="stroke:#E397A0;stroke-width:6.48"/>
	<line x1="719.15" y1="1111.72" x2="752.09" y2="1111.72" stroke-linecap="round" style="stroke:#E397A0;stroke-width:6.48"/>
	<line x1="798.80" y1="805.14" x2="798.80" y2="1511.73" style="stroke:#E397A0;stroke-width:6.48"/>
	<line x1="782.33" y1="1511.73" x2="815.27" y2="1511.73" stroke-linecap="round" style="stroke:#E397A0;stroke-width:6.48"/>
	<line x1="782.33" y1="805.14" x2="815.27" y2="805.14" stroke-linecap="round" style="stroke:#E397A0;stroke-width:6.48"/>
	<line x1="861.84" y1="725.49" x2="861.84" y2="1427.36" style="stroke:#E397A0;stroke-width:6.48"/>
	<line x1="845.37" y1="1427.36" x2="878.31" y2="1427.36" stroke-linecap="round" style="stroke:#E397A0;stroke-width:6.48"/>
	<line x1="845.37" y1="725.49" x2="878.31" y2="725.49" stroke-linecap="round" style="stroke:#E397A0;stroke-width:6.48"/>
	<line x1="925.02" y1="776.52" x2="925.02" y2="1703.43" style="stroke:#E397A0;stroke-width:6.48"/>
	<line x1="908.55" y1="1703.43" x2="941.49" y2="1703.43" stroke-linecap="round" style="stroke:#E397A0;stroke-width:6.48"/>
	<line x1="908.55" y1="776.52" x2="941.49" y2="776.52" stroke-linecap="round" style="stroke:#E397A0;stroke-width:6.48"/>
	<line x1="988.20" y1="736.43" x2="988.20" y2="1476.63" style="stroke:#E397A0;stroke-width:6.48"/>
	<line x1="971.73" y1="1476.63" x2="1004.67" y2="1476.63" stroke-linecap="round" style="stroke:#E397A0;stroke-width:6.48"/>
	<line x1="971.73" y1="736.43" x2="1004.67" y2="736.43" stroke-linecap="round" style="stroke:#E397A0;stroke-width:6.48"/>
	<line x1="1051.38" y1="855.22" x2="1051.38" y2="1503.23" style="stroke:#E397A0;stroke-width:6.48"/>
	<line x1="1034.91" y1="1503.23" x2="1067.85" y2="1503.23" stroke-linecap="round" style="stroke:#E397A0;stroke-width:6.48"/>
	<line x1="1034.91" y1="855.22" x2="1067.85" y2="855.22" stroke-linecap="round" style="stroke:#E397A0;stroke-width:6.48"/>
	<line x1="1114.56" y1="733.72" x2="1114.56" y2="1106.06" style="stroke:#E397A0;stroke-width:6.48"/>
	<line x1="1098.09" y1="1106.06" x2="1131.03" y2="1106.06" stroke-linecap="round" style="stroke:#E397A0;stroke-width:6.48"/>
	<line x1="1098.09" y1="733.72" x2="1131.03" y2="733.72" stroke-linecap="round" style="stroke:#E397A0;stroke-width:6.48"/>
	<line x1="1177.74" y1="460.62" x2="1177.74" y2="1066.64" style="stroke:#E397A0;stroke-width:6.48"/>
	<line x1="1161.27" y1="1066.64" x2="1194.21" y2="1066.64" stroke-linecap="round" style="stroke:#E397A0;stroke-width:6.48"/>
	<line x1="1161.27" y1="460.62" x2="1194.21" y2="460.62" stroke-linecap="round" style="stroke:#E397A0;stroke-width:6.48"/>
	<line x1="1240.79" y1="669.46" x2="1240.79" y2="1109.84" style="stroke:#E397A0;stroke-width:6.48"/>
	<line x1="1224.32" y1="1109.84" x2="1257.26" y2="1109.84" stroke-linecap="round" style="stroke:#E397A0;stroke-width:6.48"/>
	<line x1="1224.32" y1="669.46" x2="1257.26" y2="669.46" stroke-linecap="round" style="stroke:#E397A0;stroke-width:6.48"/>
	<line x1="1303.96" y1="732.38" x2="1303.96" y2="1119.15" style="stroke:#E397A0;stroke-width:6.48"/>
	<line x1="1287.49" y1="1119.15" x2="1320.44" y2="1119.15" stroke-linecap="round" style="stroke:#E397A0;stroke-width:6.48"/>
	<line x1="1287.49" y1="732.38" x2="1320.44" y2="732.38" stroke-linecap="round" style="stroke:#E397A0;stroke-width:6.48"/>
	<line x1="1367.15" y1="533.52" x2="1367.15" y2="1289.79" style="stroke:#E397A0;stroke-width:6.48"/>
	<line x1="1350.68" y1="1289.79" x2="1383.62" y2="1289.79" stroke-linecap="round" style="stroke:#E397A0;stroke-width:6.48"/>
	<line x1="1350.68" y1="533.52" x2="1383.62" y2="533.52" stroke-linecap="round" style="stroke:#E397A0;stroke-width:6.48"/>
	<line x1="1430.33" y1="630.72" x2="1430.33" y2="1300.19" style="stroke:#E397A0;stroke-width:6.48"/>
	<line x1="1413.86" y1="1300.19" x2="1446.80" y2="1300.19" stroke-linecap="round" style="stroke:#E397A0;stroke-width:6.48"/>
	<line x1="1413.86" y1="630.72" x2="1446.80" y2="630.72" stroke-linecap="round" style="stroke:#E397A0;stroke-width:6.48"/>
	<line x1="1493.51" y1="925.29" x2="1493.51" y2="1239.44" style="stroke:#E397A0;stroke-width:6.48"/>
	<line x1="1477.04" y1="1239.44" x2="1509.98" y2="1239.44" stroke-linecap="round" style="stroke:#E397A0;stroke-width:6.48"/>
	<line x1="1477.04" y1="925.29" x2="1509.98" y2="925.29" stroke-linecap="round" style="stroke:#E397A0;stroke-width:6.48"/>
	<line x1="1619.87" y1="458.33" x2="1619.87" y2="996.71" style="stroke:#E397A0;stroke-width:6.48"/>
	<line x1="1603.40" y1="996.71" x2="1636.34" y2="996.71" stroke-linecap="round" style="stroke:#E397A0;stroke-width:6.48"/>
	<line x1="1603.40" y1="458.33" x2="1636.34" y2="458.33" stroke-linecap="round" style="stroke:#E397A0;stroke-width:6.48"/>
	<line x1="1682.91" y1="425.39" x2="1682.91" y2="963.22" style="stroke:#E397A0;stroke-width:6.48"/>
	<line x1="1666.44" y1="963.22" x2="1699.38" y2="963.22" stroke-linecap="round" style="stroke:#E397A0;stroke-width:6.48"/>
	<line x1="1666.44" y1="425.39" x2="1699.38" y2="425.39" stroke-linecap="round" style="stroke:#E397A0;stroke-width:6.48"/>
	<line x1="1746.09" y1="398.66" x2="1746.09" y2="1006.70" style="stroke:#E397A0;stroke-width:6.48"/>
	<line x1="1729.62" y1="1006.70" x2="1762.56" y2="1006.70" stroke-linecap="round" style="stroke:#E397A0;stroke-width:6.48"/>
	<line x1="1729.62" y1="398.66" x2="1762.56" y2="398.66" stroke-linecap="round" style="stroke:#E397A0;stroke-width:6.48"/>
	<line x1="1809.27" y1="503.28" x2="1809.27" y2="1026.00" style="stroke:#E397A0;stroke-width:6.48"/>
	<line x1="1792.80" y1="1026.00" x2="1825.74" y2="1026.00" stroke-linecap="round" style="stroke:#E397A0;stroke-width:6.48"/>
	<line x1="1792.80" y1="503.28" x2="1825.74" y2="503.28" stroke-linecap="round" style="stroke:#E397A0;stroke-width:6.48"/>
	<line x1="1872.45" y1="658.67" x2="1872.45" y2="1032.48" style="stroke:#E397A0;stroke-width:6.48"/>
	<line x1="1855.98" y1="1032.48" x2="1888.92" y2="1032.48" stroke-linecap="round" style="stroke:#E397A0;stroke-width:6.48"/>
	<line x1="1855.98" y1="658.67" x2="1888.92" y2="658.67" stroke-linecap="round" style="stroke:#E397A0;stroke-width:6.48"/>
	<line x1="1935.63" y1="440.10" x2="1935.63" y2="999.41" style="stroke:#E397A0;stroke-width:6.48"/>
	<line x1="1919.16" y1="999.41" x2="1952.10" y2="999.41" stroke-linecap="round" style="stroke:#E397A0;stroke-width:6.48"/>
	<line x1="1919.16" y1="440.10" x2="1952.10" y2="440.10" stroke-linecap="round" style="stroke:#E397A0;stroke-width:6.48"/>
	<line x1="1998.81" y1="631.40" x2="1998.81" y2="981.72" style="stroke:#E397A0;stroke-width:6.48"/>
	<line x1="1982.34" y1="981.72" x2="2015.28" y2="981.72" stroke-linecap="round" style="stroke:#E397A0;stroke-width:6.48"/>
	<line x1="1982.34" y1="631.40" x2="2015.28" y2="631.40" stroke-linecap="round" style="stroke:#E397A0;stroke-width:6.48"/>
	<line x1="2061.86" y1="600.75" x2="2061.86" y2="967.14" style="stroke:#E397A0;stroke-width:6.48"/>
	<line x1="2045.39" y1="967.14" x2="2078.32" y2="967.14" stroke-linecap="round" style="stroke:#E397A0;stroke-width:6.48"/>
	<line x1="2045.39" y1="600.75" x2="2078.32" y2="600.75" stroke-linecap="round" style="stroke:#E397A0;stroke-width:6.48"/>
	<line x1="2125.04" y1="682.96" x2="2125.04" y2="960.12" style="stroke:#E397A0;stroke-width:6.48"/>
	<line x1="2108.57" y1="960.12" x2="2141.51" y2="960.12" stroke-linecap="round" style="stroke:#E397A0;stroke-width:6.48"/>
	<line x1="2108.57" y1="682.96" x2="2141.51" y2="682.96" stroke-linecap="round" style="stroke:#E397A0;stroke-width:6.48"/>
	<line x1="2188.22" y1="461.84" x2="2188.22" y2="1058.27" style="stroke:#E397A0;stroke-width:6.48"/>
	<line x1="2171.75" y1="1058.27" x2="2204.69" y2="1058.27" stroke-linecap="round" style="stroke:#E397A0;stroke-width:6.48"/>
	<line x1="2171.75" y1="461.84" x2="2204.69" y2="461.84" stroke-linecap="round" style="stroke:#E397A0;stroke-width:6.48"/>
	<line x1="2251.40" y1="537.97" x2="2251.40" y2="1117.13" style="stroke:#E397A0;stroke-width:6.48"/>
	<line x1="2234.93" y1="1117.13" x2="2267.86" y2="1117.13" stroke-linecap="round" style="stroke:#E397A0;stroke-width:6.48"/>
	<line x1="2234.93" y1="537.97" x2="2267.86" y2="537.97" stroke-linecap="round" style="stroke:#E397A0;stroke-width:6.48"/>
	<line x1="2314.57" y1="824.04" x2="2314.57" y2="1269.54" style="stroke:#E397A0;stroke-width:6.48"/>
	<line x1="2298.11" y1="1269.54" x2="2331.05" y2="1269.54" stroke-linecap="round" style="stroke:#E397A0;stroke-width:6.48"/>
	<line x1="2298.11" y1="824.04" x2="2331.05" y2="824.04" stroke-linecap="round" style="stroke:#E397A0;stroke-width:6.48"/>
	<line x1="2377.76" y1="583.34" x2="2377.76" y2="939.20" style="stroke:#E397A0;stroke-width:6.48"/>
	<line x1="2361.29" y1="939.20" x2="2394.23" y2="939.20" stroke-linecap="round" style="stroke:#E397A0;stroke-width:6.48"/>
	<line x1="2361.29" y1="583.34" x2="2394.23" y2="583.34" stroke-linecap="round" style="stroke:#E397A0;stroke-width:6.48"/>
	<line x1="2440.94" y1="481.14" x2="2440.94" y2="909.36" style="stroke:#E397A0;stroke-width:6.48"/>
	<line x1="2424.47" y1="909.36" x2="2457.41" y2="909.36" stroke-linecap="round" style="stroke:#E397A0;stroke-width:6.48"/>
	<line x1="2424.47" y1="481.14" x2="2457.41" y2="481.14" stroke-linecap="round" style="stroke:#E397A0;stroke-width:6.48"/>
	<line x1="2503.98" y1="162.81" x2="2503.98" y2="923.81" style="stroke:#E397A0;stroke-width:6.48"/>
	<line x1="2487.51" y1="923.81" x2="2520.45" y2="923.81" stroke-linecap="round" style="stroke:#E397A0;stroke-width:6.48"/>
	<line x1="2487.51" y1="162.81" x2="2520.45" y2="162.81" stroke-linecap="round" style="stroke:#E397A0;stroke-width:6.48"/>
	<line x1="2567.16" y1="514.62" x2="2567.16" y2="1012.23" style="stroke:#E397A0;stroke-width:6.48"/>
	<line x1="2550.69" y1="1012.23" x2="2583.63" y2="1012.23" stroke-linecap="round" style="stroke:#E397A0;stroke-width:6.48"/>
	<line x1="2550.69" y1="514.62" x2="2583.63" y2="514.62" stroke-linecap="round" style="stroke:#E397A0;stroke-width:6.48"/>
	<line x1="2630.34" y1="680.40" x2="2630.34" y2="1030.32" style="stroke:#E397A0;stroke-width:6.48"/>
	<line x1="2613.87" y1="1030.32" x2="2646.81" y2="1030.32" stroke-linecap="round" style="stroke:#E397A0;stroke-width:6.48"/>
	<line x1="2613.87" y1="680.40" x2="2646.81" y2="680.40" stroke-linecap="round" style="stroke:#E397A0;stroke-width:6.48"/>
	<line x1="2693.52" y1="532.98" x2="2693.52" y2="998.33" style="stroke:#E397A0;stroke-width:6.48"/>
	<line x1="2677.05" y1="998.33" x2="2709.99" y2="998.33" stroke-linecap="round" style="stroke:#E397A0;stroke-width:6.48"/>
	<line x1="2677.05" y1="532.98" x2="2709.99" y2="532.98" stroke-linecap="round" style="stroke:#E397A0;stroke-width:6.48"/>
	<line x1="2756.70" y1="495.72" x2="2756.70" y2="931.10" style="stroke:#E397A0;stroke-width:6.48"/>
	<line x1="2740.23" y1="931.10" x2="2773.17" y2="931.10" stroke-linecap="round" style="stroke:#E397A0;stroke-width:6.48"/>
	<line x1="2740.23" y1="495.72" x2="2773.17" y2="495.72" stroke-linecap="round" style="stroke:#E397A0;stroke-width:6.48"/>
	<line x1="2819.88" y1="561.33" x2="2819.88" y2="942.44" style="stroke:#E397A0;stroke-width:6.48"/>
	<line x1="2803.41" y1="942.44" x2="2836.35" y2="942.44" stroke-linecap="round" style="stroke:#E397A0;stroke-width:6.48"/>
	<line x1="2803.41" y1="561.33" x2="2836.35" y2="561.33" stroke-linecap="round" style="stroke:#E397A0;stroke-width:6.48"/>
	<line x1="2882.93" y1="611.01" x2="2882.93" y2="971.19" style="stroke:#E397A0;stroke-width:6.48"/>
	<line x1="2866.46" y1="971.19" x2="2899.40" y2="971.19" stroke-linecap="round" style="stroke:#E397A0;stroke-width:6.48"/>
	<line x1="2866.46" y1="611.01" x2="2899.40" y2="611.01" stroke-linecap="round" style="stroke:#E397A0;stroke-width:6.48"/>
	<line x1="2946.11" y1="455.90" x2="2946.11" y2="1001.16" style="stroke:#E397A0;stroke-width:6.48"/>
	<line x1="2929.64" y1="1001.16" x2="2962.58" y2="1001.16" stroke-linecap="round" style="stroke:#E397A0;stroke-width:6.48"/>
	<line x1="2929.64" y1="455.90" x2="2962.58" y2="455.90" stroke-linecap="round" style="stroke:#E397A0;stroke-width:6.48"/>
	<line x1="3009.29" y1="514.89" x2="3009.29" y2="1176.80" style="stroke:#E397A0;stroke-width:6.48"/>
	<line x1="2992.82" y1="1176.80" x2="3025.76" y2="1176.80" stroke-linecap="round" style="stroke:#E397A0;stroke-width:6.48"/>
	<line x1="2992.82" y1="514.89" x2="3025.76" y2="514.89" stroke-linecap="round" style="stroke:#E397A0;stroke-width:6.48"/>
	<line x1="3072.47" y1="719.55" x2="3072.47" y2="1249.16" style="stroke:#E397A0;stroke-width:6.48"/>
	<line x1="3056.00" y1="1249.16" x2="3088.94" y2="1249.16" stroke-linecap="round" style="stroke:#E397A0;stroke-width:6.48"/>
	<line x1="3056.00" y1="719.55" x2="3088.94" y2="719.55" stroke-linecap="round" style="stroke:#E397A0;stroke-width:6.48"/>
	<line x1="3135.65" y1="565.38" x2="3135.65" y2="945.00" style="stroke:#E397A0;stroke-width:6.48"/>
	<line x1="3119.18" y1="945.00" x2="3152.12" y2="945.00" stroke-linecap="round" style="stroke:#E397A0;stroke-width:6.48"/>
	<line x1="3119.18" y1="565.38" x2="3152.12" y2="565.38" stroke-linecap="round" style="stroke:#E397A0;stroke-width:6.48"/>
	<line x1="3198.83" y1="517.72" x2="3198.83" y2="1034.64" style="stroke:#E397A0;stroke-width:6.48"/>
	<line x1="3182.36" y1="1034.64" x2="3215.30" y2="1034.64" stroke-linecap="round" style="stroke:#E397A0;stroke-width:6.48"/>
	<line x1="3182.36" y1="517.72" x2="3215.30" y2="517.72" stroke-linecap="round" style="stroke:#E397A0;stroke-width:6.48"/>
	<line x1="3261.87" y1="564.70" x2="3261.87" y2="970.11" style="stroke:#E397A0;stroke-width:6.48"/>
	<line x1="3245.40" y1="970.11" x2="3278.34" y2="970.11" stroke-linecap="round" style="stroke:#E397A0;stroke-width:6.48"/>
	<line x1="3245.40" y1="564.70" x2="3278.34" y2="564.70" stroke-linecap="round" style="stroke:#E397A0;stroke-width:6.48"/>
	<line x1="3325.05" y1="482.36" x2="3325.05" y2="1033.56" style="stroke:#E397A0;stroke-width:6.48"/>
	<line x1="3308.58" y1="1033.56" x2="3341.52" y2="1033.56" stroke-linecap="round" style="stroke:#E397A0;stroke-width:6.48"/>
	<line x1="3308.58" y1="482.36" x2="3341.52" y2="482.36" stroke-linecap="round" style="stroke:#E397A0;stroke-width:6.48"/>
	<line x1="3388.23" y1="671.09" x2="3388.23" y2="1072.17" style="stroke:#E397A0;stroke-width:6.48"/>
	<line x1="3371.76" y1="1072.17" x2="3404.70" y2="1072.17" stroke-linecap="round" style="stroke:#E397A0;stroke-width:6.48"/>
	<line x1="3371.76" y1="671.09" x2="3404.70" y2="671.09" stroke-linecap="round" style="stroke:#E397A0;stroke-width:6.48"/>
	<line x1="3451.41" y1="527.31" x2="3451.41" y2="1040.45" style="stroke:#E397A0;stroke-width:6.48"/>
	<line x1="3434.94" y1="1040.45" x2="3467.88" y2="1040.45" stroke-linecap="round" style="stroke:#E397A0;stroke-width:6.48"/>
	<line x1="3434.94" y1="527.31" x2="3467.88" y2="527.31" stroke-linecap="round" style="stroke:#E397A0;stroke-width:6.48"/>
	<line x1="3514.59" y1="502.34" x2="3514.59" y2="1049.36" style="stroke:#E397A0;stroke-width:6.48"/>
	<line x1="3498.12" y1="1049.36" x2="3531.06" y2="1049.36" stroke-linecap="round" style="stroke:#E397A0;stroke-width:6.48"/>
	<line x1="3498.12" y1="502.34" x2="3531.06" y2="502.34" stroke-linecap="round" style="stroke:#E397A0;stroke-width:6.48"/>
	<line x1="3577.77" y1="536.09" x2="3577.77" y2="977.13" style="stroke:#E397A0;stroke-width:6.48"/>
	<line x1="3561.30" y1="977.13" x2="3594.24" y2="977.13" stroke-linecap="round" style="stroke:#E397A0;stroke-width:6.48"/>
	<line x1="3561.30" y1="536.09" x2="3594.24" y2="536.09" stroke-linecap="round" style="stroke:#E397A0;stroke-width:6.48"/>
	<line x1="3640.95" y1="609.53" x2="3640.95" y2="1033.83" style="stroke:#E397A0;stroke-width:6.48"/>
	<line x1="3624.48" y1="1033.83" x2="3657.42" y2="1033.83" stroke-linecap="round" style="stroke:#E397A0;stroke-width:6.48"/>
	<line x1="3624.48" y1="609.53" x2="3657.42" y2="609.53" stroke-linecap="round" style="stroke:#E397A0;stroke-width:6.48"/>
	<line x1="3704.00" y1="459.27" x2="3704.00" y2="1101.73" style="stroke:#E397A0;stroke-width:6.48"/>
	<line x1="3687.53" y1="1101.73" x2="3720.47" y2="1101.73" stroke-linecap="round" style="stroke:#E397A0;stroke-width:6.48"/>
	<line x1="3687.53" y1="459.27" x2="3720.47" y2="459.27" stroke-linecap="round" style="stroke:#E397A0;stroke-width:6.48"/>
	<line x1="3767.18" y1="642.87" x2="3767.18" y2="1431.68" style="stroke:#E397A0;stroke-width:6.48"/>
	<line x1="3750.71" y1="1431.68" x2="3783.65" y2="1431.68" stroke-linecap="round" style="stroke:#E397A0;stroke-width:6.48"/>
	<line x1="3750.71" y1="642.87" x2="3783.65" y2="642.87" stroke-linecap="round" style="stroke:#E397A0;stroke-width:6.48"/>
	<line x1="3830.36" y1="738.59" x2="3830.36" y2="1333.40" style="stroke:#E397A0;stroke-width:6.48"/>
	<line x1="3813.89" y1="1333.40" x2="3846.83" y2="1333.40" stroke-linecap="round" style="stroke:#E397A0;stroke-width:6.48"/>
	<line x1="3813.89" y1="738.59" x2="3846.83" y2="738.59" stroke-linecap="round" style="stroke:#E397A0;stroke-width:6.48"/>
	<line x1="3893.54" y1="543.65" x2="3893.54" y2="1046.93" style="stroke:#E397A0;stroke-width:6.48"/>
	<line x1="3877.07" y1="1046.93" x2="3910.01" y2="1046.93" stroke-linecap="round" style="stroke:#E397A0;stroke-width:6.48"/>
	<line x1="3877.07" y1="543.65" x2="3910.01" y2="543.65" stroke-linecap="round" style="stroke:#E397A0;stroke-width:6.48"/>
	<line x1="3956.72" y1="559.31" x2="3956.72" y2="1027.62" style="stroke:#E397A0;stroke-width:6.48"/>
	<line x1="3940.25" y1="1027.62" x2="3973.19" y2="1027.62" stroke-linecap="round" style="stroke:#E397A0;stroke-width:6.48"/>
	<line x1="3940.25" y1="559.31" x2="3973.19" y2="559.31" stroke-linecap="round" style="stroke:#E397A0;stroke-width:6.48"/>
	<line x1="4019.90" y1="604.80" x2="4019.90" y2="1040.58" style="stroke:#E397A0;stroke-width:6.48"/>
	<line x1="4003.43" y1="1040.58" x2="4036.37" y2="1040.58" stroke-linecap="round" style="stroke:#E397A0;stroke-width:6.48"/>
	<line x1="4003.43" y1="604.80" x2="4036.37" y2="604.80" stroke-linecap="round" style="stroke:#E397A0;stroke-width:6.48"/>
	<line x1="4082.94" y1="563.90" x2="4082.94" y2="1122.93" style="stroke:#E397A0;stroke-width:6.48"/>
	<line x1="4066.47" y1="1122.93" x2="4099.41" y2="1122.93" stroke-linecap="round" style="stroke:#E397A0;stroke-width:6.48"/>
	<line x1="4066.47" y1="563.90" x2="4099.41" y2="563.90" stroke-linecap="round" style="stroke:#E397A0;stroke-width:6.48"/>
	<line x1="4146.12" y1="750.33" x2="4146.12" y2="1225.94" style="stroke:#E397A0;stroke-width:6.48"/>
	<line x1="4129.65" y1="1225.94" x2="4162.59" y2="1225.94" stroke-linecap="round" style="stroke:#E397A0;stroke-width:6.48"/>
	<line x1="4129.65" y1="750.33" x2="4162.59" y2="750.33" stroke-linecap="round" style="stroke:#E397A0;stroke-width:6.48"/>
	<line x1="4209.30" y1="625.72" x2="4209.30" y2="1137.51" style="stroke:#E397A0;stroke-width:6.48"/>
	<line x1="4192.83" y1="1137.51" x2="4225.77" y2="1137.51" stroke-linecap="round" style="stroke:#E397A0;stroke-width:6.48"/>
	<line x1="4192.83" y1="625.72" x2="4225.77" y2="625.72" stroke-linecap="round" style="stroke:#E397A0;stroke-width:6.48"/>
	<line x1="4272.48" y1="663.39" x2="4272.48" y2="1112.40" style="stroke:#E397A0;stroke-width:6.48"/>
	<line x1="4256.01" y1="1112.40" x2="4288.95" y2="1112.40" stroke-linecap="round" style="stroke:#E397A0;stroke-width:6.48"/>
	<line x1="4256.01" y1="663.39" x2="4288.95" y2="663.39" stroke-linecap="round" style="stroke:#E397A0;stroke-width:6.48"/>
	<path d=" M293.36 1263.60 L356.54 1140.75 L419.72 1098.90 L482.90 1062.05 L546.08 1071.63 L609.26 1065.96 L672.30 1290.74 L735.48 1423.58 L798.66 1158.44 L861.84 1076.49 L925.02 1239.97 L988.20 1106.60 L1051.24 1179.36 L1114.43 920.03 L1177.61 763.70 L1240.79 889.79 L1303.96 925.83 L1367.15 911.66 L1430.33 965.52 L1493.37 1082.43 L1556.55 1016.28 L1619.73 727.52 L1682.91 694.44 L1746.09 702.68 L1809.27 764.78 L1872.32 845.64 L1935.50 719.82 L1998.68 806.63 L2061.86 783.95 L2125.04 821.61 L2188.22 760.05 L2251.26 827.69 L2314.44 1046.93 L2377.62 761.40 L2440.80 695.25 L2503.98 543.38 L2567.16 763.56 L2630.34 855.36 L2693.39 765.72 L2756.57 713.47 L2819.75 751.95 L2882.93 791.10 L2946.11 728.60 L3009.29 845.91 L3072.33 984.42 L3135.51 755.33 L3198.69 776.25 L3261.87 767.47 L3325.05 758.03 L3388.23 871.70 L3451.41 783.95 L3514.46 775.98 L3577.64 756.68 L3640.82 821.74 L3704.00 780.57 L3767.18 1037.34 L3830.36 1036.13 L3893.40 795.29 L3956.58 793.53 L4019.76 822.69 L4082.94 843.48 L4146.12 988.20 L4209.30 881.69 L4272.35 887.90" stroke-linejoin="round" style="fill:none;stroke:#83082A;stroke-width:9.72"/>
	<circle cx="293.36" cy="1263.60" r="8.91" style="fill:#83082A"/>
	<circle cx="293.36" cy="1263.60" r="5.67" style="fill:none;stroke:#83082A;stroke-width:6.48"/>
	<circle cx="356.54" cy="1140.75" r="8.91" style="fill:#83082A"/>
	<circle cx="356.54" cy="1140.75" r="5.67" style="fill:none;stroke:#83082A;stroke-width:6.48"/>
	<circle cx="419.72" cy="1098.90" r="8.91" style="fill:#83082A"/>
	<circle cx="419.72" cy="1098.90" r="5.67" style="fill:none;stroke:#83082A;stroke-width:6.48"/>
	<circle cx="482.90" cy="1062.05" r="8.91" style="fill:#83082A"/>
	<circle cx="482.90" cy="1062.05" r="5.67" style="fill:none;stroke:#83082A;stroke-width:6.48"/>
	<circle cx="546.08" cy="1071.63" r="8.91" style="fill:#83082A"/>
	<circle cx="546.08" cy="1071.63" r="5.67" style="fill:none;stroke:#83082A;stroke-width:6.48"/>
	<circle cx="609.26" cy="1065.96" r="8.91" style="fill:#83082A"/>
	<circle cx="609.26" cy="1065.96" r="5.67" style="fill:none;stroke:#83082A;stroke-width:6.48"/>
	<circle cx="672.30" cy="1290.74" r="8.91" style="fill:#83082A"/>
	<circle cx="672.30" cy="1290.74" r="5.67" style="fill:none;stroke:#83082A;stroke-width:6.48"/>
	<circle cx="735.48" cy="1423.58" r="8.91" style="fill:#83082A"/>
	<circle cx="735.48" cy="1423.58" r="5.67" style="fill:none;stroke:#83082A;stroke-width:6.48"/>
	<circle cx="798.66" cy="1158.44" r="8.91" style="fill:#83082A"/>
	<circle cx="798.66" cy="1158.44" r="5.67" style="fill:none;stroke:#83082A;stroke-width:6.48"/>
	<circle cx="861.84" cy="1076.49" r="8.91" style="fill:#83082A"/>
	<circle cx="861.84" cy="1076.49" r="5.67" style="fill:none;stroke:#83082A;stroke-width:6.48"/>
	<circle cx="925.02" cy="1239.97" r="8.91" style="fill:#83082A"/>
	<circle cx="925.02" cy="1239.97" r="5.67" style="fill:none;stroke:#83082A;stroke-width:6.48"/>
	<circle cx="988.20" cy="1106.60" r="8.91" style="fill:#83082A"/>
	<circle cx="988.20" cy="1106.60" r="5.67" style="fill:none;stroke:#83082A;stroke-width:6.48"/>
	<circle cx="1051.24" cy="1179.36" r="8.91" style="fill:#83082A"/>
	<circle cx="1051.24" cy="1179.36" r="5.67" style="fill:none;stroke:#83082A;stroke-width:6.48"/>
	<circle cx="1114.43" cy="920.03" r="8.91" style="fill:#83082A"/>
	<circle cx="1114.43" cy="920.03" r="5.67" style="fill:none;stroke:#83082A;stroke-width:6.48"/>
	<circle cx="1177.61" cy="763.70" r="8.91" style="fill:#83082A"/>
	<circle cx="1177.61" cy="763.70" r="5.67" style="fill:none;stroke:#83082A;stroke-width:6.48"/>
	<circle cx="1240.79" cy="889.79" r="8.91" style="fill:#83082A"/>
	<circle cx="1240.79" cy="889.79" r="5.67" style="fill:none;stroke:#83082A;stroke-width:6.48"/>
	<circle cx="1303.96" cy="925.83" r="8.91" style="fill:#83082A"/>
	<circle cx="1303.96" cy="925.83" r="5.67" style="fill:none;stroke:#83082A;stroke-width:6.48"/>
	<circle cx="1367.15" cy="911.66" r="8.91" style="fill:#83082A"/>
	<circle cx="1367.15" cy="911.66" r="5.67" style="fill:none;stroke:#83082A;stroke-width:6.48"/>
	<circle cx="1430.33" cy="965.52" r="8.91" style="fill:#83082A"/>
	<circle cx="1430.33" cy="965.52" r="5.67" style="fill:none;stroke:#83082A;stroke-width:6.48"/>
	<circle cx="1493.37" cy="1082.43" r="8.91" style="fill:#83082A"/>
	<circle cx="1493.37" cy="1082.43" r="5.67" style="fill:none;stroke:#83082A;stroke-width:6.48"/>
	<circle cx="1556.55" cy="1016.28" r="8.91" style="fill:#83082A"/>
	<circle cx="1556.55" cy="1016.28" r="5.67" style="fill:none;stroke:#83082A;stroke-width:6.48"/>
	<circle cx="1619.73" cy="727.52" r="8.91" style="fill:#83082A"/>
	<circle cx="1619.73" cy="727.52" r="5.67" style="fill:none;stroke:#83082A;stroke-width:6.48"/>
	<circle cx="1682.91" cy="694.44" r="8.91" style="fill:#83082A"/>
	<circle cx="1682.91" cy="694.44" r="5.67" style="fill:none;stroke:#83082A;stroke-width:6.48"/>
	<circle cx="1746.09" cy="702.68" r="8.91" style="fill:#83082A"/>
	<circle cx="1746.09" cy="702.68" r="5.67" style="fill:none;stroke:#83082A;stroke-width:6.48"/>
	<circle cx="1809.27" cy="764.78" r="8.91" style="fill:#83082A"/>
	<circle cx="1809.27" cy="764.78" r="5.67" style="fill:none;stroke:#83082A;stroke-width:6.48"/>
	<circle cx="1872.32" cy="845.64" r="8.91" style="fill:#83082A"/>
	<circle cx="1872.32" cy="845.64" r="5.67" style="fill:none;stroke:#83082A;stroke-width:6.48"/>
	<circle cx="1935.50" cy="719.82" r="8.91" style="fill:#83082A"/>
	<circle cx="1935.50" cy="719.82" r="5.67" style="fill:none;stroke:#83082A;stroke-width:6.48"/>
	<circle cx="1998.68" cy="806.63" r="8.91" style="fill:#83082A"/>
	<circle cx="1998.68" cy="806.63" r="5.67" style="fill:none;stroke:#83082A;stroke-width:6.48"/>
	<circle cx="2061.86" cy="783.95" r="8.91" style="fill:#83082A"/>
	<circle cx="2061.86" cy="783.95" r="5.67" style="fill:none;stroke:#83082A;stroke-width:6.48"/>
	<circle cx="2125.04" cy="821.61" r="8.91" style="fill:#83082A"/>
	<circle cx="2125.04" cy="821.61" r="5.67" style="fill:none;stroke:#83082A;stroke-width:6.48"/>
	<circle cx="2188.22" cy="760.05" r="8.91" style="fill:#83082A"/>
	<circle cx="2188.22" cy="760.05" r="5.67" style="fill:none;stroke:#83082A;stroke-width:6.48"/>
	<circle cx="2251.26" cy="827.69" r="8.91" style="fill:#83082A"/>
	<circle cx="2251.26" cy="827.69" r="5.67" style="fill:none;stroke:#83082A;stroke-width:6.48"/>
	<circle cx="2314.44" cy="1046.93" r="8.91" style="fill:#83082A"/>
	<circle cx="2314.44" cy="1046.93" r="5.67" style="fill:none;stroke:#83082A;stroke-width:6.48"/>
	<circle cx="2377.62" cy="761.40" r="8.91" style="fill:#83082A"/>
	<circle cx="2377.62" cy="761.40" r="5.67" style="fill:none;stroke:#83082A;stroke-width:6.48"/>
	<circle cx="2440.80" cy="695.25" r="8.91" style="fill:#83082A"/>
	<circle cx="2440.80" cy="695.25" r="5.67" style="fill:none;stroke:#83082A;stroke-width:6.48"/>
	<circle cx="2503.98" cy="543.38" r="8.91" style="fill:#83082A"/>
	<circle cx="2503.98" cy="543.38" r="5.67" style="fill:none;stroke:#83082A;stroke-width:6.48"/>
	<circle cx="2567.16" cy="763.56" r="8.91" style="fill:#83082A"/>
	<circle cx="2567.16" cy="763.56" r="5.67" style="fill:none;stroke:#83082A;stroke-width:6.48"/>
	<circle cx="2630.34" cy="855.36" r="8.91" style="fill:#83082A"/>
	<circle cx="2630.34" cy="855.36" r="5.67" style="fill:none;stroke:#83082A;stroke-width:6.48"/>
	<circle cx="2693.39" cy="765.72" r="8.91" style="fill:#83082A"/>
	<circle cx="2693.39" cy="765.72" r="5.67" style="fill:none;stroke:#83082A;stroke-width:6.48"/>
	<circle cx="2756.57" cy="713.47" r="8.91" style="fill:#83082A"/>
	<circle cx="2756.57" cy="713.47" r="5.67" style="fill:none;stroke:#83082A;stroke-width:6.48"/>
	<circle cx="2819.75" cy="751.95" r="8.91" style="fill:#83082A"/>
	<circle cx="2819.75" cy="751.95" r="5.67" style="fill:none;stroke:#83082A;stroke-width:6.48"/>
	<circle cx="2882.93" cy="791.10" r="8.91" style="fill:#83082A"/>
	<circle cx="2882.93" cy="791.10" r="5.67" style="fill:none;stroke:#83082A;stroke-width:6.48"/>
	<circle cx="2946.11" cy="728.60" r="8.91" style="fill:#83082A"/>
	<circle cx="2946.11" cy="728.60" r="5.67" style="fill:none;stroke:#83082A;stroke-width:6.48"/>
	<circle cx="3009.29" cy="845.91" r="8.91" style="fill:#83082A"/>
	<circle cx="3009.29" cy="845.91" r="5.67" style="fill:none;stroke:#83082A;stroke-width:6.48"/>
	<circle cx="3072.33" cy="984.42" r="8.91" style="fill:#83082A"/>
	<circle cx="3072.33" cy="984.42" r="5.67" style="fill:none;stroke:#83082A;stroke-width:6.48"/>
	<circle cx="3135.51" cy="755.33" r="8.91" style="fill:#83082A"/>
	<circle cx="3135.51" cy="755.33" r="5.67" style="fill:none;stroke:#83082A;stroke-width:6.48"/>
	<circle cx="3198.69" cy="776.25" r="8.91" style="fill:#83082A"/>
	<circle cx="3198.69" cy="776.25" r="5.67" style="fill:none;stroke:#83082A;stroke-width:6.48"/>
	<circle cx="3261.87" cy="767.47" r="8.91" style="fill:#83082A"/>
	<circle cx="3261.87" cy="767.47" r="5.67" style="fill:none;stroke:#83082A;stroke-width:6.48"/>
	<circle cx="3325.05" cy="758.03" r="8.91" style="fill:#83082A"/>
	<circle cx="3325.05" cy="758.03" r="5.67" style="fill:none;stroke:#83082A;stroke-width:6.48"/>
	<circle cx="3388.23" cy="871.70" r="8.91" style="fill:#83082A"/>
	<circle cx="3388.23" cy="871.70" r="5.67" style="fill:none;stroke:#83082A;stroke-width:6.48"/>
	<circle cx="3451.41" cy="783.95" r="8.91" style="fill:#83082A"/>
	<circle cx="3451.41" cy="783.95" r="5.67" style="fill:none;stroke:#83082A;stroke-width:6.48"/>
	<circle cx="3514.46" cy="775.98" r="8.91" style="fill:#83082A"/>
	<circle cx="3514.46" cy="775.98" r="5.67" style="fill:none;stroke:#83082A;stroke-width:6.48"/>
	<circle cx="3577.64" cy="756.68" r="8.91" style="fill:#83082A"/>
	<circle cx="3577.64" cy="756.68" r="5.67" style="fill:none;stroke:#83082A;stroke-width:6.48"/>
	<circle cx="3640.82" cy="821.74" r="8.91" style="fill:#83082A"/>
	<circle cx="3640.82" cy="821.74" r="5.67" style="fill:none;stroke:#83082A;stroke-width:6.48"/>
	<circle cx="3704.00" cy="780.57" r="8.91" style="fill:#83082A"/>
	<circle cx="3704.00" cy="780.57" r="5.67" style="fill:none;stroke:#83082A;stroke-width:6.48"/>
	<circle cx="3767.18" cy="1037.34" r="8.91" style="fill:#83082A"/>
	<circle cx="3767.18" cy="1037.34" r="5.67" style="fill:none;stroke:#83082A;stroke-width:6.48"/>
	<circle cx="3830.36" cy="1036.13" r="8.91" style="fill:#83082A"/>
	<circle cx="3830.36" cy="1036.13" r="5.67" style="fill:none;stroke:#83082A;stroke-width:6.48"/>
	<circle cx="3893.40" cy="795.29" r="8.91" style="fill:#83082A"/>
	<circle cx="3893.40" cy="795.29" r="5.67" style="fill:none;stroke:#83082A;stroke-width:6.48"/>
	<circle cx="3956.58" cy="793.53" r="8.91" style="fill:#83082A"/>
	<circle cx="3956.58" cy="793.53" r="5.67" style="fill:none;stroke:#83082A;stroke-width:6.48"/>
	<circle cx="4019.76" cy="822.69" r="8.91" style="fill:#83082A"/>
	<circle cx="4019.76" cy="822.69" r="5.67" style="fill:none;stroke:#83082A;stroke-width:6.48"/>
	<circle cx="4082.94" cy="843.48" r="8.91" style="fill:#83082A"/>
	<circle cx="4082.94" cy="843.48" r="5.67" style="fill:none;stroke:#83082A;stroke-width:6.48"/>
	<circle cx="4146.12" cy="988.20" r="8.91" style="fill:#83082A"/>
	<circle cx="4146.12" cy="988.20" r="5.67" style="fill:none;stroke:#83082A;stroke-width:6.48"/>
	<circle cx="4209.30" cy="881.69" r="8.91" style="fill:#83082A"/>
	<circle cx="4209.30" cy="881.69" r="5.67" style="fill:none;stroke:#83082A;stroke-width:6.48"/>
	<circle cx="4272.35" cy="887.90" r="8.91" style="fill:#83082A"/>
	<circle cx="4272.35" cy="887.90" r="5.67" style="fill:none;stroke:#83082A;stroke-width:6.48"/>
	<line x1="245.97" y1="2032.56" x2="245.97" y2="0.00" style="stroke:#404040;stroke-width:4.32"/>
	<line x1="245.97" y1="1985.04" x2="216.00" y2="1985.04" style="stroke:#000000;stroke-width:4.32"/>
	<text x="201.02" y="2006.05" style="font-family:'Century Gothic';font-size:59.94px;fill:#000000" text-anchor="end">-1000</text>
	<line x1="245.97" y1="1500.66" x2="216.00" y2="1500.66" style="stroke:#000000;stroke-width:4.32"/>
	<text x="201.02" y="1521.67" style="font-family:'Century Gothic';font-size:59.94px;fill:#000000" text-anchor="end">-500</text>
	<line x1="245.97" y1="1016.28" x2="216.00" y2="1016.28" style="stroke:#000000;stroke-width:4.32"/>
	<text x="201.02" y="1037.29" style="font-family:'Century Gothic';font-size:59.94px;fill:#000000" text-anchor="end">0</text>
	<line x1="245.97" y1="531.90" x2="216.00" y2="531.90" style="stroke:#000000;stroke-width:4.32"/>
	<text x="201.02" y="552.91" style="font-family:'Century Gothic';font-size:59.94px;fill:#000000" text-anchor="end">500</text>
	<line x1="245.97" y1="47.52" x2="216.00" y2="47.52" style="stroke:#000000;stroke-width:4.32"/>
	<text x="201.02" y="68.53" style="font-family:'Century Gothic';font-size:59.94px;fill:#000000" text-anchor="end">1000</text>
	<line x1="245.97" y1="2032.56" x2="4320.00" y2="2032.56" style="stroke:#404040;stroke-width:4.32"/>
	<line x1="356.67" y1="2032.56" x2="356.67" y2="2062.53" style="stroke:#000000;stroke-width:4.32"/>
	<text x="356.67" y="2119.41" style="font-family:'Century Gothic';font-size:59.94px;fill:#000000" text-anchor="middle">-20</text>
	<line x1="1619.87" y1="2032.56" x2="1619.87" y2="2062.53" style="stroke:#000000;stroke-width:4.32"/>
	<text x="1619.87" y="2119.41" style="font-family:'Century Gothic';font-size:59.94px;fill:#000000" text-anchor="middle">0</text>
	<line x1="2882.93" y1="2032.56" x2="2882.93" y2="2062.53" style="stroke:#000000;stroke-width:4.32"/>
	<text x="2882.93" y="2119.41" style="font-family:'Century Gothic';font-size:59.94px;fill:#000000" text-anchor="middle">20</text>
	<line x1="4146.12" y1="2032.56" x2="4146.12" y2="2062.53" style="stroke:#000000;stroke-width:4.32"/>
	<text x="4146.12" y="2119.41" style="font-family:'Century Gothic';font-size:59.94px;fill:#000000" text-anchor="middle">40</text>
</svg>
