<?xml version="1.0" encoding="UTF-8" standalone="no"?>
<!-- This is a Stata 19.5 generated SVG file (http://www.stata.com) -->

<svg version="1.1" width="6.000in" height="3.000in" viewBox="0 0 4320 2160" xmlns="http://www.w3.org/2000/svg" xmlns:xlink="http://www.w3.org/1999/xlink">
	<desc>Stata Graph - g_levels</desc>
	<rect x="0" y="0" width="4320" height="2160" style="fill:#EAF2F3;stroke:none"/>
	<rect x="0.00" y="0.00" width="4320.00" height="2160.00" style="fill:#FFFFFF"/>
	<rect x="2.16" y="2.16" width="4315.68" height="2155.68" style="fill:none;stroke:#FFFFFF;stroke-width:4.32"/>
	<rect x="224.91" y="0.00" width="4095.09" height="1840.86" style="fill:#FFFFFF"/>
	<rect x="227.07" y="2.16" width="4090.77" height="1836.54" style="fill:none;stroke:#FFFFFF;stroke-width:4.32"/>
	<line x1="224.91" y1="1640.79" x2="4320.00" y2="1640.79" style="stroke:#CCCCCC;stroke-width:6.48"/>
	<line x1="224.91" y1="1242.41" x2="4320.00" y2="1242.41" style="stroke:#CCCCCC;stroke-width:6.48"/>
	<line x1="224.91" y1="844.16" x2="4320.00" y2="844.16" style="stroke:#CCCCCC;stroke-width:6.48"/>
	<line x1="224.91" y1="445.77" x2="4320.00" y2="445.77" style="stroke:#CCCCCC;stroke-width:6.48"/>
	<line x1="224.91" y1="47.52" x2="4320.00" y2="47.52" style="stroke:#CCCCCC;stroke-width:6.48"/>
	<line x1="1530.50" y1="1840.86" x2="1530.50" y2="1797.66" style="stroke:#404040;stroke-width:6.48"/>
	<line x1="1530.50" y1="1776.06" x2="1530.50" y2="1732.86" style="stroke:#404040;stroke-width:6.48"/>
	<line x1="1530.50" y1="1711.26" x2="1530.50" y2="1668.06" style="stroke:#404040;stroke-width:6.48"/>
	<line x1="1530.50" y1="1646.46" x2="1530.50" y2="1603.26" style="stroke:#404040;stroke-width:6.48"/>
	<line x1="1530.50" y1="1581.66" x2="1530.50" y2="1538.46" style="stroke:#404040;stroke-width:6.48"/>
	<line x1="1530.50" y1="1516.86" x2="1530.50" y2="1473.66" style="stroke:#404040;stroke-width:6.48"/>
	<line x1="1530.50" y1="1452.06" x2="1530.50" y2="1408.86" style="stroke:#404040;stroke-width:6.48"/>
	<line x1="1530.50" y1="1387.26" x2="1530.50" y2="1344.06" style="stroke:#404040;stroke-width:6.48"/>
	<line x1="1530.50" y1="1322.46" x2="1530.50" y2="1279.26" style="stroke:#404040;stroke-width:6.48"/>
	<line x1="1530.50" y1="1257.66" x2="1530.50" y2="1214.46" style="stroke:#404040;stroke-width:6.48"/>
	<line x1="1530.50" y1="1192.86" x2="1530.50" y2="1149.66" style="stroke:#404040;stroke-width:6.48"/>
	<line x1="1530.50" y1="1128.06" x2="1530.50" y2="1084.86" style="stroke:#404040;stroke-width:6.48"/>
	<line x1="1530.50" y1="1063.26" x2="1530.50" y2="1020.06" style="stroke:#404040;stroke-width:6.48"/>
	<line x1="1530.50" y1="998.46" x2="1530.50" y2="955.26" style="stroke:#404040;stroke-width:6.48"/>
	<line x1="1530.50" y1="933.66" x2="1530.50" y2="890.46" style="stroke:#404040;stroke-width:6.48"/>
	<line x1="1530.50" y1="868.86" x2="1530.50" y2="825.66" style="stroke:#404040;stroke-width:6.48"/>
	<line x1="1530.50" y1="804.06" x2="1530.50" y2="760.86" style="stroke:#404040;stroke-width:6.48"/>
	<line x1="1530.50" y1="739.26" x2="1530.50" y2="696.06" style="stroke:#404040;stroke-width:6.48"/>
	<line x1="1530.50" y1="674.46" x2="1530.50" y2="631.26" style="stroke:#404040;stroke-width:6.48"/>
	<line x1="1530.50" y1="609.66" x2="1530.50" y2="566.46" style="stroke:#404040;stroke-width:6.48"/>
	<line x1="1530.50" y1="544.86" x2="1530.50" y2="501.66" style="stroke:#404040;stroke-width:6.48"/>
	<line x1="1530.50" y1="480.06" x2="1530.50" y2="436.86" style="stroke:#404040;stroke-width:6.48"/>
	<line x1="1530.50" y1="415.26" x2="1530.50" y2="372.06" style="stroke:#404040;stroke-width:6.48"/>
	<line x1="1530.50" y1="350.46" x2="1530.50" y2="307.26" style="stroke:#404040;stroke-width:6.48"/>
	<line x1="1530.50" y1="285.66" x2="1530.50" y2="242.46" style="stroke:#404040;stroke-width:6.48"/>
	<line x1="1530.50" y1="220.86" x2="1530.50" y2="177.66" style="stroke:#404040;stroke-width:6.48"/>
	<line x1="1530.50" y1="156.06" x2="1530.50" y2="112.86" style="stroke:#404040;stroke-width:6.48"/>
	<line x1="1530.50" y1="91.26" x2="1530.50" y2="48.06" style="stroke:#404040;stroke-width:6.48"/>
	<line x1="1530.50" y1="26.46" x2="1530.50" y2="0.00" style="stroke:#404040;stroke-width:6.48"/>
	<path d=" M272.43 1696.28 L336.96 1757.57 L401.49 1509.03 L466.02 1537.65 L530.42 1454.36 L594.95 1104.71 L659.48 1137.51 L724.01 1654.29 L788.54 1122.53 L853.07 1131.71 L917.60 1012.50 L982.13 1333.94 L1046.66 1371.60 L1111.05 1413.05 L1175.58 1083.92 L1240.11 1350.00 L1304.64 1230.12 L1369.17 1006.96 L1433.70 1103.49 L1498.23 1588.14 L1562.76 1133.46 L1627.29 1249.02 L1691.82 1282.64 L1756.22 1598.27 L1820.75 1596.78 L1885.28 1646.60 L1949.81 1440.59 L2014.34 1638.50 L2078.86 1418.72 L2143.40 1208.12 L2207.93 1272.65 L2272.46 1767.56 L2336.99 1387.67 L2401.38 1328.67 L2465.91 1271.97 L2530.44 1679.67 L2594.97 1564.38 L2659.50 1597.73 L2724.03 1608.93 L2788.56 1494.32 L2853.09 1467.72 L2917.62 1289.79 L2982.15 1155.20 L3046.55 1789.97 L3111.08 1357.02 L3175.61 1244.84 L3240.14 1456.38 L3304.67 1616.49 L3369.20 1566.68 L3433.73 1654.83 L3498.26 1537.79 L3562.79 1605.29 L3627.32 1473.93 L3691.71 1190.84 L3756.24 1136.16 L3820.77 1793.48 L3885.30 1222.29 L3949.83 1246.72 L4014.36 1440.18 L4078.89 1560.60 L4143.42 1640.66 L4207.95 1649.70 L4272.48 1459.08" stroke-linejoin="round" style="fill:none;stroke:#83082A;stroke-width:9.72"/>
	<line x1="272.43" y1="1024.92" x2="288.50" y2="1065.02" style="stroke:#404040;stroke-width:9.72"/>
	<line x1="296.46" y1="1085.13" x2="312.52" y2="1125.22" style="stroke:#404040;stroke-width:9.72"/>
	<line x1="320.49" y1="1145.34" x2="336.56" y2="1185.44" style="stroke:#404040;stroke-width:9.72"/>
	<line x1="341.55" y1="1166.40" x2="351.14" y2="1124.28" style="stroke:#404040;stroke-width:9.72"/>
	<line x1="355.86" y1="1103.22" x2="365.45" y2="1061.10" style="stroke:#404040;stroke-width:9.72"/>
	<line x1="370.31" y1="1040.04" x2="379.89" y2="997.92" style="stroke:#404040;stroke-width:9.72"/>
	<line x1="384.62" y1="976.72" x2="394.34" y2="934.61" style="stroke:#404040;stroke-width:9.72"/>
	<line x1="399.06" y1="913.55" x2="401.49" y2="903.02" style="stroke:#404040;stroke-width:9.72"/>
	<line x1="401.49" y1="903.02" x2="424.44" y2="925.83" style="stroke:#404040;stroke-width:9.72"/>
	<line x1="439.70" y1="941.09" x2="466.02" y2="967.28" style="stroke:#404040;stroke-width:9.72"/>
	<line x1="466.02" y1="967.28" x2="467.78" y2="961.47" style="stroke:#404040;stroke-width:9.72"/>
	<line x1="474.26" y1="940.95" x2="487.08" y2="899.64" style="stroke:#404040;stroke-width:9.72"/>
	<line x1="493.43" y1="878.98" x2="506.25" y2="837.81" style="stroke:#404040;stroke-width:9.72"/>
	<line x1="512.60" y1="817.16" x2="525.42" y2="775.85" style="stroke:#404040;stroke-width:9.72"/>
	<line x1="531.23" y1="755.06" x2="538.11" y2="712.40" style="stroke:#404040;stroke-width:9.72"/>
	<line x1="541.62" y1="691.07" x2="548.51" y2="648.41" style="stroke:#404040;stroke-width:9.72"/>
	<line x1="552.02" y1="627.08" x2="558.90" y2="584.42" style="stroke:#404040;stroke-width:9.72"/>
	<line x1="562.28" y1="563.09" x2="569.29" y2="520.42" style="stroke:#404040;stroke-width:9.72"/>
	<line x1="572.80" y1="499.10" x2="579.69" y2="456.43" style="stroke:#404040;stroke-width:9.72"/>
	<line x1="583.20" y1="435.11" x2="590.22" y2="392.44" style="stroke:#404040;stroke-width:9.72"/>
	<line x1="593.60" y1="371.12" x2="594.95" y2="363.02" style="stroke:#404040;stroke-width:9.72"/>
	<line x1="594.95" y1="363.02" x2="606.02" y2="329.81" style="stroke:#404040;stroke-width:9.72"/>
	<line x1="613.04" y1="309.42" x2="626.67" y2="268.38" style="stroke:#404040;stroke-width:9.72"/>
	<line x1="633.55" y1="247.99" x2="647.33" y2="207.09" style="stroke:#404040;stroke-width:9.72"/>
	<line x1="654.21" y1="186.57" x2="659.48" y2="170.78" style="stroke:#404040;stroke-width:9.72"/>
	<line x1="659.48" y1="170.78" x2="662.31" y2="197.23" style="stroke:#404040;stroke-width:9.72"/>
	<line x1="664.61" y1="218.70" x2="669.20" y2="261.63" style="stroke:#404040;stroke-width:9.72"/>
	<line x1="671.36" y1="283.10" x2="675.95" y2="326.03" style="stroke:#404040;stroke-width:9.72"/>
	<line x1="678.24" y1="347.49" x2="682.83" y2="390.42" style="stroke:#404040;stroke-width:9.72"/>
	<line x1="685.13" y1="411.89" x2="689.72" y2="454.82" style="stroke:#404040;stroke-width:9.72"/>
	<line x1="691.88" y1="476.28" x2="696.47" y2="519.21" style="stroke:#404040;stroke-width:9.72"/>
	<line x1="698.76" y1="540.67" x2="703.35" y2="583.61" style="stroke:#404040;stroke-width:9.72"/>
	<line x1="705.65" y1="605.07" x2="710.24" y2="648.00" style="stroke:#404040;stroke-width:9.72"/>
	<line x1="712.53" y1="669.60" x2="717.12" y2="712.53" style="stroke:#404040;stroke-width:9.72"/>
	<line x1="719.42" y1="733.99" x2="724.01" y2="776.93" style="stroke:#404040;stroke-width:9.72"/>
	<line x1="726.57" y1="756.54" x2="731.97" y2="713.74" style="stroke:#404040;stroke-width:9.72"/>
	<line x1="734.54" y1="692.28" x2="739.94" y2="649.35" style="stroke:#404040;stroke-width:9.72"/>
	<line x1="742.64" y1="627.89" x2="747.90" y2="585.09" style="stroke:#404040;stroke-width:9.72"/>
	<line x1="750.60" y1="563.63" x2="756.00" y2="520.69" style="stroke:#404040;stroke-width:9.72"/>
	<line x1="758.57" y1="499.37" x2="763.97" y2="456.43" style="stroke:#404040;stroke-width:9.72"/>
	<line x1="766.67" y1="434.97" x2="771.93" y2="392.17" style="stroke:#404040;stroke-width:9.72"/>
	<line x1="774.63" y1="370.71" x2="780.03" y2="327.92" style="stroke:#404040;stroke-width:9.72"/>
	<line x1="782.60" y1="306.45" x2="788.00" y2="263.52" style="stroke:#404040;stroke-width:9.72"/>
	<line x1="804.47" y1="265.82" x2="844.43" y2="282.42" style="stroke:#404040;stroke-width:9.72"/>
	<line x1="856.71" y1="274.32" x2="869.67" y2="233.15" style="stroke:#404040;stroke-width:9.72"/>
	<line x1="876.15" y1="212.49" x2="888.98" y2="171.32" style="stroke:#404040;stroke-width:9.72"/>
	<line x1="895.46" y1="150.80" x2="908.42" y2="109.49" style="stroke:#404040;stroke-width:9.72"/>
	<line x1="914.90" y1="88.97" x2="917.60" y2="80.19" style="stroke:#404040;stroke-width:9.72"/>
	<line x1="917.60" y1="80.19" x2="921.65" y2="114.08" style="stroke:#404040;stroke-width:9.72"/>
	<line x1="924.35" y1="135.54" x2="929.48" y2="178.34" style="stroke:#404040;stroke-width:9.72"/>
	<line x1="932.18" y1="199.80" x2="937.44" y2="242.73" style="stroke:#404040;stroke-width:9.72"/>
	<line x1="940.01" y1="264.19" x2="945.27" y2="306.99" style="stroke:#404040;stroke-width:9.72"/>
	<line x1="947.84" y1="328.45" x2="953.10" y2="371.39" style="stroke:#404040;stroke-width:9.72"/>
	<line x1="955.80" y1="392.85" x2="961.07" y2="435.78" style="stroke:#404040;stroke-width:9.72"/>
	<line x1="963.63" y1="457.24" x2="968.90" y2="500.04" style="stroke:#404040;stroke-width:9.72"/>
	<line x1="971.60" y1="521.51" x2="976.73" y2="564.43" style="stroke:#404040;stroke-width:9.72"/>
	<line x1="979.43" y1="585.90" x2="982.13" y2="607.77" style="stroke:#404040;stroke-width:9.72"/>
	<line x1="982.13" y1="607.77" x2="997.11" y2="622.76" style="stroke:#404040;stroke-width:9.72"/>
	<line x1="1012.37" y1="638.01" x2="1042.88" y2="668.66" style="stroke:#404040;stroke-width:9.72"/>
	<line x1="1051.24" y1="687.96" x2="1063.67" y2="729.41" style="stroke:#404040;stroke-width:9.72"/>
	<line x1="1069.88" y1="750.06" x2="1082.16" y2="791.51" style="stroke:#404040;stroke-width:9.72"/>
	<line x1="1088.37" y1="812.16" x2="1100.79" y2="853.61" style="stroke:#404040;stroke-width:9.72"/>
	<line x1="1107.00" y1="874.26" x2="1111.05" y2="887.76" style="stroke:#404040;stroke-width:9.72"/>
	<line x1="1111.05" y1="887.76" x2="1117.40" y2="859.28" style="stroke:#404040;stroke-width:9.72"/>
	<line x1="1121.98" y1="838.21" x2="1131.44" y2="795.96" style="stroke:#404040;stroke-width:9.72"/>
	<line x1="1136.03" y1="774.90" x2="1145.34" y2="732.78" style="stroke:#404040;stroke-width:9.72"/>
	<line x1="1150.07" y1="711.72" x2="1159.38" y2="669.46" style="stroke:#404040;stroke-width:9.72"/>
	<line x1="1164.11" y1="648.41" x2="1173.42" y2="606.15" style="stroke:#404040;stroke-width:9.72"/>
	<line x1="1178.42" y1="608.04" x2="1188.68" y2="649.89" style="stroke:#404040;stroke-width:9.72"/>
	<line x1="1193.94" y1="670.95" x2="1204.34" y2="712.80" style="stroke:#404040;stroke-width:9.72"/>
	<line x1="1209.46" y1="733.86" x2="1219.86" y2="775.71" style="stroke:#404040;stroke-width:9.72"/>
	<line x1="1224.99" y1="796.77" x2="1235.39" y2="838.62" style="stroke:#404040;stroke-width:9.72"/>
	<line x1="1240.65" y1="855.77" x2="1251.86" y2="814.05" style="stroke:#404040;stroke-width:9.72"/>
	<line x1="1257.39" y1="793.13" x2="1268.60" y2="751.41" style="stroke:#404040;stroke-width:9.72"/>
	<line x1="1274.13" y1="730.48" x2="1285.34" y2="688.77" style="stroke:#404040;stroke-width:9.72"/>
	<line x1="1291.01" y1="667.98" x2="1302.21" y2="626.27" style="stroke:#404040;stroke-width:9.72"/>
	<line x1="1307.74" y1="605.34" x2="1318.95" y2="563.63" style="stroke:#404040;stroke-width:9.72"/>
	<line x1="1324.62" y1="542.84" x2="1335.83" y2="501.12" style="stroke:#404040;stroke-width:9.72"/>
	<line x1="1341.50" y1="480.19" x2="1352.70" y2="438.48" style="stroke:#404040;stroke-width:9.72"/>
	<line x1="1358.37" y1="417.69" x2="1369.17" y2="377.87" style="stroke:#404040;stroke-width:9.72"/>
	<line x1="1369.17" y1="377.87" x2="1370.39" y2="379.35" style="stroke:#404040;stroke-width:9.72"/>
	<line x1="1384.83" y1="395.42" x2="1413.72" y2="427.55" style="stroke:#404040;stroke-width:9.72"/>
	<line x1="1428.17" y1="443.61" x2="1433.70" y2="449.68" style="stroke:#404040;stroke-width:9.72"/>
	<line x1="1433.70" y1="449.68" x2="1437.89" y2="484.38" style="stroke:#404040;stroke-width:9.72"/>
	<line x1="1440.45" y1="505.85" x2="1445.58" y2="548.64" style="stroke:#404040;stroke-width:9.72"/>
	<line x1="1448.15" y1="570.24" x2="1453.28" y2="613.04" style="stroke:#404040;stroke-width:9.72"/>
	<line x1="1455.84" y1="634.50" x2="1460.97" y2="677.43" style="stroke:#404040;stroke-width:9.72"/>
	<line x1="1463.67" y1="698.90" x2="1468.80" y2="741.69" style="stroke:#404040;stroke-width:9.72"/>
	<line x1="1471.37" y1="763.16" x2="1476.50" y2="806.09" style="stroke:#404040;stroke-width:9.72"/>
	<line x1="1479.06" y1="827.55" x2="1484.19" y2="870.35" style="stroke:#404040;stroke-width:9.72"/>
	<line x1="1486.76" y1="891.81" x2="1491.89" y2="934.74" style="stroke:#404040;stroke-width:9.72"/>
	<line x1="1494.45" y1="956.21" x2="1498.23" y2="987.66" style="stroke:#404040;stroke-width:9.72"/>
	<line x1="1498.23" y1="987.66" x2="1500.53" y2="976.32" style="stroke:#404040;stroke-width:9.72"/>
	<line x1="1504.98" y1="955.26" x2="1513.76" y2="913.01" style="stroke:#404040;stroke-width:9.72"/>
	<line x1="1518.08" y1="891.81" x2="1526.99" y2="849.56" style="stroke:#404040;stroke-width:9.72"/>
	<line x1="1531.31" y1="828.49" x2="1540.22" y2="786.24" style="stroke:#404040;stroke-width:9.72"/>
	<line x1="1544.54" y1="765.05" x2="1553.45" y2="722.79" style="stroke:#404040;stroke-width:9.72"/>
	<line x1="1557.77" y1="701.60" x2="1562.76" y2="677.57" style="stroke:#404040;stroke-width:9.72"/>
	<line x1="1562.76" y1="677.57" x2="1570.73" y2="694.44" style="stroke:#404040;stroke-width:9.72"/>
	<line x1="1580.04" y1="713.88" x2="1598.40" y2="753.03" style="stroke:#404040;stroke-width:9.72"/>
	<line x1="1607.58" y1="772.61" x2="1626.08" y2="811.62" style="stroke:#404040;stroke-width:9.72"/>
	<line x1="1634.04" y1="831.73" x2="1649.57" y2="872.10" style="stroke:#404040;stroke-width:9.72"/>
	<line x1="1657.26" y1="892.21" x2="1672.65" y2="932.58" style="stroke:#404040;stroke-width:9.72"/>
	<line x1="1680.35" y1="952.70" x2="1691.82" y2="982.67" style="stroke:#404040;stroke-width:9.72"/>
	<line x1="1691.82" y1="982.67" x2="1693.98" y2="993.60" style="stroke:#404040;stroke-width:9.72"/>
	<line x1="1698.30" y1="1014.80" x2="1706.81" y2="1057.19" style="stroke:#404040;stroke-width:9.72"/>
	<line x1="1710.99" y1="1078.38" x2="1719.50" y2="1120.64" style="stroke:#404040;stroke-width:9.72"/>
	<line x1="1723.82" y1="1141.83" x2="1732.32" y2="1184.22" style="stroke:#404040;stroke-width:9.72"/>
	<line x1="1736.51" y1="1205.42" x2="1745.01" y2="1247.80" style="stroke:#404040;stroke-width:9.72"/>
	<line x1="1749.20" y1="1269.00" x2="1756.22" y2="1304.24" style="stroke:#404040;stroke-width:9.72"/>
	<line x1="1756.22" y1="1304.24" x2="1761.48" y2="1299.11" style="stroke:#404040;stroke-width:9.72"/>
	<line x1="1776.74" y1="1283.85" x2="1807.38" y2="1253.47" style="stroke:#404040;stroke-width:9.72"/>
	<line x1="1821.83" y1="1242.81" x2="1839.38" y2="1282.37" style="stroke:#404040;stroke-width:9.72"/>
	<line x1="1848.15" y1="1302.08" x2="1865.70" y2="1341.50" style="stroke:#404040;stroke-width:9.72"/>
	<line x1="1874.48" y1="1361.21" x2="1885.28" y2="1385.64" style="stroke:#404040;stroke-width:9.72"/>
	<line x1="1885.28" y1="1385.64" x2="1888.65" y2="1369.44" style="stroke:#404040;stroke-width:9.72"/>
	<line x1="1893.11" y1="1348.25" x2="1902.02" y2="1305.99" style="stroke:#404040;stroke-width:9.72"/>
	<line x1="1906.47" y1="1284.93" x2="1915.38" y2="1242.68" style="stroke:#404040;stroke-width:9.72"/>
	<line x1="1919.84" y1="1221.48" x2="1928.75" y2="1179.22" style="stroke:#404040;stroke-width:9.72"/>
	<line x1="1933.20" y1="1158.03" x2="1942.11" y2="1115.78" style="stroke:#404040;stroke-width:9.72"/>
	<line x1="1946.57" y1="1094.71" x2="1949.81" y2="1079.19" style="stroke:#404040;stroke-width:9.72"/>
	<line x1="1949.81" y1="1079.19" x2="1957.37" y2="1105.52" style="stroke:#404040;stroke-width:9.72"/>
	<line x1="1963.44" y1="1126.31" x2="1975.46" y2="1167.75" style="stroke:#404040;stroke-width:9.72"/>
	<line x1="1981.53" y1="1188.41" x2="1993.55" y2="1229.99" style="stroke:#404040;stroke-width:9.72"/>
	<line x1="1999.62" y1="1250.64" x2="2011.64" y2="1292.22" style="stroke:#404040;stroke-width:9.72"/>
	<line x1="2016.77" y1="1289.66" x2="2025.41" y2="1247.26" style="stroke:#404040;stroke-width:9.72"/>
	<line x1="2029.86" y1="1226.21" x2="2038.50" y2="1183.82" style="stroke:#404040;stroke-width:9.72"/>
	<line x1="2042.96" y1="1162.62" x2="2051.59" y2="1120.37" style="stroke:#404040;stroke-width:9.72"/>
	<line x1="2055.92" y1="1099.17" x2="2064.69" y2="1056.92" style="stroke:#404040;stroke-width:9.72"/>
	<line x1="2069.01" y1="1035.72" x2="2077.79" y2="993.46" style="stroke:#404040;stroke-width:9.72"/>
	<line x1="2084.13" y1="972.81" x2="2098.44" y2="932.04" style="stroke:#404040;stroke-width:9.72"/>
	<line x1="2105.46" y1="911.66" x2="2119.77" y2="870.89" style="stroke:#404040;stroke-width:9.72"/>
	<line x1="2126.93" y1="850.50" x2="2141.24" y2="809.73" style="stroke:#404040;stroke-width:9.72"/>
	<line x1="2157.57" y1="808.92" x2="2198.07" y2="824.04" style="stroke:#404040;stroke-width:9.72"/>
	<line x1="2209.41" y1="838.62" x2="2215.49" y2="881.42" style="stroke:#404040;stroke-width:9.72"/>
	<line x1="2218.46" y1="902.88" x2="2224.40" y2="945.68" style="stroke:#404040;stroke-width:9.72"/>
	<line x1="2227.36" y1="967.14" x2="2233.44" y2="1009.94" style="stroke:#404040;stroke-width:9.72"/>
	<line x1="2236.41" y1="1031.27" x2="2242.35" y2="1074.06" style="stroke:#404040;stroke-width:9.72"/>
	<line x1="2245.32" y1="1095.53" x2="2251.26" y2="1138.32" style="stroke:#404040;stroke-width:9.72"/>
	<line x1="2254.36" y1="1159.65" x2="2260.30" y2="1202.45" style="stroke:#404040;stroke-width:9.72"/>
	<line x1="2263.28" y1="1223.91" x2="2269.22" y2="1266.71" style="stroke:#404040;stroke-width:9.72"/>
	<line x1="2272.19" y1="1288.03" x2="2272.46" y2="1289.79" style="stroke:#404040;stroke-width:9.72"/>
	<line x1="2272.46" y1="1289.79" x2="2282.04" y2="1249.43" style="stroke:#404040;stroke-width:9.72"/>
	<line x1="2287.04" y1="1228.50" x2="2297.03" y2="1186.51" style="stroke:#404040;stroke-width:9.72"/>
	<line x1="2302.02" y1="1165.46" x2="2311.88" y2="1123.47" style="stroke:#404040;stroke-width:9.72"/>
	<line x1="2316.87" y1="1102.41" x2="2326.86" y2="1060.43" style="stroke:#404040;stroke-width:9.72"/>
	<line x1="2331.86" y1="1039.37" x2="2336.99" y2="1018.04" style="stroke:#404040;stroke-width:9.72"/>
	<line x1="2336.99" y1="1018.04" x2="2354.40" y2="1005.75" style="stroke:#404040;stroke-width:9.72"/>
	<line x1="2371.95" y1="993.33" x2="2401.38" y2="972.54" style="stroke:#404040;stroke-width:9.72"/>
	<line x1="2401.38" y1="972.54" x2="2404.76" y2="978.89" style="stroke:#404040;stroke-width:9.72"/>
	<line x1="2414.88" y1="997.92" x2="2435.00" y2="1036.26" style="stroke:#404040;stroke-width:9.72"/>
	<line x1="2445.12" y1="1055.30" x2="2465.24" y2="1093.50" style="stroke:#404040;stroke-width:9.72"/>
	<line x1="2470.23" y1="1114.43" x2="2479.55" y2="1156.68" style="stroke:#404040;stroke-width:9.72"/>
	<line x1="2484.14" y1="1177.74" x2="2493.32" y2="1219.86" style="stroke:#404040;stroke-width:9.72"/>
	<line x1="2498.04" y1="1240.92" x2="2507.22" y2="1283.18" style="stroke:#404040;stroke-width:9.72"/>
	<line x1="2511.95" y1="1304.24" x2="2521.26" y2="1346.49" style="stroke:#404040;stroke-width:9.72"/>
	<line x1="2525.85" y1="1367.55" x2="2530.44" y2="1388.61" style="stroke:#404040;stroke-width:9.72"/>
	<line x1="2530.44" y1="1388.61" x2="2538.27" y2="1368.36" style="stroke:#404040;stroke-width:9.72"/>
	<line x1="2546.10" y1="1348.25" x2="2561.76" y2="1308.01" style="stroke:#404040;stroke-width:9.72"/>
	<line x1="2569.73" y1="1287.76" x2="2585.39" y2="1247.67" style="stroke:#404040;stroke-width:9.72"/>
	<line x1="2593.22" y1="1227.42" x2="2594.97" y2="1222.97" style="stroke:#404040;stroke-width:9.72"/>
	<line x1="2594.97" y1="1222.97" x2="2616.03" y2="1255.10" style="stroke:#404040;stroke-width:9.72"/>
	<line x1="2627.78" y1="1273.19" x2="2651.54" y2="1309.23" style="stroke:#404040;stroke-width:9.72"/>
	<line x1="2666.39" y1="1323.14" x2="2708.37" y2="1333.53" style="stroke:#404040;stroke-width:9.72"/>
	<line x1="2725.92" y1="1332.45" x2="2740.23" y2="1291.68" style="stroke:#404040;stroke-width:9.72"/>
	<line x1="2747.52" y1="1271.30" x2="2761.83" y2="1230.66" style="stroke:#404040;stroke-width:9.72"/>
	<line x1="2769.12" y1="1210.28" x2="2783.57" y2="1169.51" style="stroke:#404040;stroke-width:9.72"/>
	<line x1="2792.21" y1="1149.93" x2="2816.64" y2="1114.29" style="stroke:#404040;stroke-width:9.72"/>
	<line x1="2828.79" y1="1096.47" x2="2853.09" y2="1060.83" style="stroke:#404040;stroke-width:9.72"/>
	<line x1="2853.09" y1="1060.83" x2="2853.09" y2="1060.70" style="stroke:#404040;stroke-width:9.72"/>
	<line x1="2864.03" y1="1042.07" x2="2885.76" y2="1004.81" style="stroke:#404040;stroke-width:9.72"/>
	<line x1="2896.70" y1="986.04" x2="2917.62" y2="950.40" style="stroke:#404040;stroke-width:9.72"/>
	<line x1="2917.62" y1="950.40" x2="2918.03" y2="948.65" style="stroke:#404040;stroke-width:9.72"/>
	<line x1="2923.16" y1="927.59" x2="2933.42" y2="885.60" style="stroke:#404040;stroke-width:9.72"/>
	<line x1="2938.55" y1="864.54" x2="2948.81" y2="822.69" style="stroke:#404040;stroke-width:9.72"/>
	<line x1="2953.94" y1="801.63" x2="2964.06" y2="759.65" style="stroke:#404040;stroke-width:9.72"/>
	<line x1="2969.19" y1="738.72" x2="2979.45" y2="696.60" style="stroke:#404040;stroke-width:9.72"/>
	<line x1="2983.10" y1="695.39" x2="2987.15" y2="738.45" style="stroke:#404040;stroke-width:9.72"/>
	<line x1="2989.17" y1="759.92" x2="2993.22" y2="802.98" style="stroke:#404040;stroke-width:9.72"/>
	<line x1="2995.25" y1="824.45" x2="2999.30" y2="867.51" style="stroke:#404040;stroke-width:9.72"/>
	<line x1="3001.46" y1="888.97" x2="3005.51" y2="932.04" style="stroke:#404040;stroke-width:9.72"/>
	<line x1="3007.53" y1="953.51" x2="3011.58" y2="996.57" style="stroke:#404040;stroke-width:9.72"/>
	<line x1="3013.61" y1="1018.04" x2="3017.66" y2="1061.10" style="stroke:#404040;stroke-width:9.72"/>
	<line x1="3019.68" y1="1082.57" x2="3023.87" y2="1125.63" style="stroke:#404040;stroke-width:9.72"/>
	<line x1="3025.89" y1="1147.10" x2="3029.94" y2="1190.16" style="stroke:#404040;stroke-width:9.72"/>
	<line x1="3032.10" y1="1211.63" x2="3036.15" y2="1254.69" style="stroke:#404040;stroke-width:9.72"/>
	<line x1="3038.18" y1="1276.16" x2="3042.23" y2="1319.22" style="stroke:#404040;stroke-width:9.72"/>
	<line x1="3044.25" y1="1340.69" x2="3046.55" y2="1364.31" style="stroke:#404040;stroke-width:9.72"/>
	<line x1="3046.55" y1="1364.31" x2="3049.65" y2="1345.14" style="stroke:#404040;stroke-width:9.72"/>
	<line x1="3053.03" y1="1323.81" x2="3059.78" y2="1281.15" style="stroke:#404040;stroke-width:9.72"/>
	<line x1="3063.15" y1="1259.82" x2="3070.04" y2="1217.16" style="stroke:#404040;stroke-width:9.72"/>
	<line x1="3073.41" y1="1195.83" x2="3080.30" y2="1153.17" style="stroke:#404040;stroke-width:9.72"/>
	<line x1="3083.81" y1="1131.84" x2="3090.56" y2="1089.05" style="stroke:#404040;stroke-width:9.72"/>
	<line x1="3093.93" y1="1067.71" x2="3100.82" y2="1025.06" style="stroke:#404040;stroke-width:9.72"/>
	<line x1="3104.33" y1="1003.72" x2="3111.08" y2="961.47" style="stroke:#404040;stroke-width:9.72"/>
	<line x1="3111.08" y1="961.47" x2="3111.21" y2="961.07" style="stroke:#404040;stroke-width:9.72"/>
	<line x1="3118.77" y1="940.82" x2="3133.76" y2="900.32" style="stroke:#404040;stroke-width:9.72"/>
	<line x1="3141.32" y1="880.07" x2="3156.44" y2="839.57" style="stroke:#404040;stroke-width:9.72"/>
	<line x1="3163.86" y1="819.32" x2="3175.61" y2="787.99" style="stroke:#404040;stroke-width:9.72"/>
	<line x1="3175.61" y1="787.99" x2="3177.36" y2="797.58" style="stroke:#404040;stroke-width:9.72"/>
	<line x1="3181.14" y1="818.78" x2="3188.70" y2="861.30" style="stroke:#404040;stroke-width:9.72"/>
	<line x1="3192.48" y1="882.63" x2="3200.04" y2="925.16" style="stroke:#404040;stroke-width:9.72"/>
	<line x1="3203.82" y1="946.35" x2="3211.38" y2="989.01" style="stroke:#404040;stroke-width:9.72"/>
	<line x1="3215.16" y1="1010.21" x2="3222.86" y2="1052.73" style="stroke:#404040;stroke-width:9.72"/>
	<line x1="3226.64" y1="1074.06" x2="3234.33" y2="1116.59" style="stroke:#404040;stroke-width:9.72"/>
	<line x1="3238.11" y1="1137.78" x2="3240.14" y2="1149.26" style="stroke:#404040;stroke-width:9.72"/>
	<line x1="3240.14" y1="1149.26" x2="3250.94" y2="1178.96" style="stroke:#404040;stroke-width:9.72"/>
	<line x1="3258.23" y1="1199.21" x2="3273.08" y2="1239.84" style="stroke:#404040;stroke-width:9.72"/>
	<line x1="3280.37" y1="1260.09" x2="3295.22" y2="1300.59" style="stroke:#404040;stroke-width:9.72"/>
	<line x1="3302.64" y1="1320.98" x2="3304.67" y2="1326.65" style="stroke:#404040;stroke-width:9.72"/>
	<line x1="3304.67" y1="1326.65" x2="3322.89" y2="1294.24" style="stroke:#404040;stroke-width:9.72"/>
	<line x1="3333.42" y1="1275.48" x2="3354.62" y2="1237.82" style="stroke:#404040;stroke-width:9.72"/>
	<line x1="3365.15" y1="1218.92" x2="3369.20" y2="1211.76" style="stroke:#404040;stroke-width:9.72"/>
	<line x1="3369.20" y1="1211.76" x2="3382.29" y2="1244.16" style="stroke:#404040;stroke-width:9.72"/>
	<line x1="3390.26" y1="1264.14" x2="3406.32" y2="1304.24" style="stroke:#404040;stroke-width:9.72"/>
	<line x1="3414.42" y1="1324.22" x2="3430.49" y2="1364.31" style="stroke:#404040;stroke-width:9.72"/>
	<line x1="3439.94" y1="1360.80" x2="3460.46" y2="1322.87" style="stroke:#404040;stroke-width:9.72"/>
	<line x1="3470.72" y1="1303.83" x2="3491.37" y2="1265.90" style="stroke:#404040;stroke-width:9.72"/>
	<line x1="3503.79" y1="1257.39" x2="3537.41" y2="1284.53" style="stroke:#404040;stroke-width:9.72"/>
	<line x1="3554.28" y1="1298.16" x2="3562.79" y2="1305.05" style="stroke:#404040;stroke-width:9.72"/>
	<line x1="3562.79" y1="1305.05" x2="3571.16" y2="1273.99" style="stroke:#404040;stroke-width:9.72"/>
	<line x1="3576.69" y1="1253.07" x2="3587.76" y2="1211.36" style="stroke:#404040;stroke-width:9.72"/>
	<line x1="3593.43" y1="1190.43" x2="3604.50" y2="1148.72" style="stroke:#404040;stroke-width:9.72"/>
	<line x1="3610.04" y1="1127.79" x2="3621.11" y2="1086.08" style="stroke:#404040;stroke-width:9.72"/>
	<line x1="3626.64" y1="1065.29" x2="3627.32" y2="1062.72" style="stroke:#404040;stroke-width:9.72"/>
	<line x1="3627.32" y1="1062.72" x2="3636.63" y2="1023.17" style="stroke:#404040;stroke-width:9.72"/>
	<line x1="3641.63" y1="1002.24" x2="3651.48" y2="960.12" style="stroke:#404040;stroke-width:9.72"/>
	<line x1="3656.48" y1="939.06" x2="3666.33" y2="897.08" style="stroke:#404040;stroke-width:9.72"/>
	<line x1="3671.33" y1="876.02" x2="3681.18" y2="833.90" style="stroke:#404040;stroke-width:9.72"/>
	<line x1="3686.18" y1="812.84" x2="3691.71" y2="789.21" style="stroke:#404040;stroke-width:9.72"/>
	<line x1="3691.71" y1="789.21" x2="3696.30" y2="770.98" style="stroke:#404040;stroke-width:9.72"/>
	<line x1="3701.57" y1="750.06" x2="3712.10" y2="708.21" style="stroke:#404040;stroke-width:9.72"/>
	<line x1="3717.36" y1="687.15" x2="3727.89" y2="645.30" style="stroke:#404040;stroke-width:9.72"/>
	<line x1="3733.02" y1="624.38" x2="3743.55" y2="582.53" style="stroke:#404040;stroke-width:9.72"/>
	<line x1="3748.82" y1="561.60" x2="3756.24" y2="532.04" style="stroke:#404040;stroke-width:9.72"/>
	<line x1="3756.24" y1="532.04" x2="3757.32" y2="544.72" style="stroke:#404040;stroke-width:9.72"/>
	<line x1="3758.94" y1="566.19" x2="3762.45" y2="609.26" style="stroke:#404040;stroke-width:9.72"/>
	<line x1="3764.21" y1="630.86" x2="3767.58" y2="673.92" style="stroke:#404040;stroke-width:9.72"/>
	<line x1="3769.34" y1="695.52" x2="3772.85" y2="738.59" style="stroke:#404040;stroke-width:9.72"/>
	<line x1="3774.60" y1="760.05" x2="3777.98" y2="803.12" style="stroke:#404040;stroke-width:9.72"/>
	<line x1="3779.73" y1="824.71" x2="3783.24" y2="867.78" style="stroke:#404040;stroke-width:9.72"/>
	<line x1="3784.86" y1="889.24" x2="3788.37" y2="932.31" style="stroke:#404040;stroke-width:9.72"/>
	<line x1="3790.13" y1="953.91" x2="3793.50" y2="996.97" style="stroke:#404040;stroke-width:9.72"/>
	<line x1="3795.26" y1="1018.44" x2="3798.77" y2="1061.51" style="stroke:#404040;stroke-width:9.72"/>
	<line x1="3800.52" y1="1083.11" x2="3803.90" y2="1126.17" style="stroke:#404040;stroke-width:9.72"/>
	<line x1="3805.65" y1="1147.64" x2="3809.16" y2="1190.70" style="stroke:#404040;stroke-width:9.72"/>
	<line x1="3810.78" y1="1212.30" x2="3814.29" y2="1255.37" style="stroke:#404040;stroke-width:9.72"/>
	<line x1="3816.05" y1="1276.83" x2="3819.42" y2="1319.90" style="stroke:#404040;stroke-width:9.72"/>
	<line x1="3821.31" y1="1330.97" x2="3826.44" y2="1288.17" style="stroke:#404040;stroke-width:9.72"/>
	<line x1="3829.01" y1="1266.71" x2="3834.14" y2="1223.78" style="stroke:#404040;stroke-width:9.72"/>
	<line x1="3836.70" y1="1202.31" x2="3841.83" y2="1159.51" style="stroke:#404040;stroke-width:9.72"/>
	<line x1="3844.53" y1="1138.05" x2="3849.53" y2="1095.12" style="stroke:#404040;stroke-width:9.72"/>
	<line x1="3852.23" y1="1073.66" x2="3857.36" y2="1030.86" style="stroke:#404040;stroke-width:9.72"/>
	<line x1="3859.92" y1="1009.40" x2="3865.05" y2="966.46" style="stroke:#404040;stroke-width:9.72"/>
	<line x1="3867.62" y1="945.00" x2="3872.75" y2="902.21" style="stroke:#404040;stroke-width:9.72"/>
	<line x1="3875.31" y1="880.74" x2="3880.44" y2="837.81" style="stroke:#404040;stroke-width:9.72"/>
	<line x1="3883.01" y1="816.35" x2="3885.30" y2="797.31" style="stroke:#404040;stroke-width:9.72"/>
	<line x1="3885.30" y1="797.31" x2="3909.33" y2="798.66" style="stroke:#404040;stroke-width:9.72"/>
	<line x1="3930.93" y1="799.74" x2="3949.83" y2="800.69" style="stroke:#404040;stroke-width:9.72"/>
	<line x1="3949.83" y1="800.69" x2="3954.96" y2="824.45" style="stroke:#404040;stroke-width:9.72"/>
	<line x1="3959.69" y1="845.51" x2="3968.87" y2="887.63" style="stroke:#404040;stroke-width:9.72"/>
	<line x1="3973.59" y1="908.69" x2="3982.77" y2="950.94" style="stroke:#404040;stroke-width:9.72"/>
	<line x1="3987.36" y1="972.00" x2="3996.68" y2="1014.26" style="stroke:#404040;stroke-width:9.72"/>
	<line x1="4001.40" y1="1035.32" x2="4010.58" y2="1077.44" style="stroke:#404040;stroke-width:9.72"/>
	<line x1="4016.25" y1="1098.22" x2="4035.96" y2="1136.70" style="stroke:#404040;stroke-width:9.72"/>
	<line x1="4045.82" y1="1155.87" x2="4065.39" y2="1194.35" style="stroke:#404040;stroke-width:9.72"/>
	<line x1="4075.25" y1="1213.65" x2="4078.89" y2="1220.67" style="stroke:#404040;stroke-width:9.72"/>
	<line x1="4078.89" y1="1220.67" x2="4114.13" y2="1220.40" style="stroke:#404040;stroke-width:9.72"/>
	<line x1="4135.73" y1="1220.13" x2="4143.42" y2="1220.13" style="stroke:#404040;stroke-width:9.72"/>
	<line x1="4143.42" y1="1220.13" x2="4164.48" y2="1248.62" style="stroke:#404040;stroke-width:9.72"/>
	<line x1="4177.44" y1="1265.90" x2="4203.23" y2="1300.59" style="stroke:#404040;stroke-width:9.72"/>
	<line x1="4211.33" y1="1293.97" x2="4221.99" y2="1252.13" style="stroke:#404040;stroke-width:9.72"/>
	<line x1="4227.39" y1="1231.20" x2="4238.06" y2="1189.22" style="stroke:#404040;stroke-width:9.72"/>
	<line x1="4243.46" y1="1168.29" x2="4254.12" y2="1126.44" style="stroke:#404040;stroke-width:9.72"/>
	<line x1="4259.52" y1="1105.52" x2="4270.19" y2="1063.67" style="stroke:#404040;stroke-width:9.72"/>
	<path d="" stroke-linejoin="round" style="fill:none;stroke:#404040;stroke-width:9.72"/>
	<line x1="224.91" y1="1840.86" x2="224.91" y2="0.00" style="stroke:#404040;stroke-width:4.32"/>
	<line x1="224.91" y1="1640.79" x2="194.94" y2="1640.79" style="stroke:#000000;stroke-width:4.32"/>
	<text x="179.96" y="1661.80" style="font-family:'Century Gothic';font-size:59.94px;fill:#000000" text-anchor="end">1500</text>
	<line x1="224.91" y1="1242.41" x2="194.94" y2="1242.41" style="stroke:#000000;stroke-width:4.32"/>
	<text x="179.96" y="1263.42" style="font-family:'Century Gothic';font-size:59.94px;fill:#000000" text-anchor="end">2000</text>
	<line x1="224.91" y1="844.16" x2="194.94" y2="844.16" style="stroke:#000000;stroke-width:4.32"/>
	<text x="179.96" y="865.17" style="font-family:'Century Gothic';font-size:59.94px;fill:#000000" text-anchor="end">2500</text>
	<line x1="224.91" y1="445.77" x2="194.94" y2="445.77" style="stroke:#000000;stroke-width:4.32"/>
	<text x="179.96" y="466.78" style="font-family:'Century Gothic';font-size:59.94px;fill:#000000" text-anchor="end">3000</text>
	<line x1="224.91" y1="47.52" x2="194.94" y2="47.52" style="stroke:#000000;stroke-width:4.32"/>
	<text x="179.96" y="68.53" style="font-family:'Century Gothic';font-size:59.94px;fill:#000000" text-anchor="end">3500</text>
	<line x1="224.91" y1="1840.86" x2="4320.00" y2="1840.86" style="stroke:#404040;stroke-width:4.32"/>
	<line x1="272.43" y1="1840.86" x2="272.43" y2="1870.83" style="stroke:#000000;stroke-width:4.32"/>
	<text x="272.43" y="1927.71" style="font-family:'Century Gothic';font-size:59.94px;fill:#000000" text-anchor="middle">-20</text>
	<line x1="1562.76" y1="1840.86" x2="1562.76" y2="1870.83" style="stroke:#000000;stroke-width:4.32"/>
	<text x="1562.76" y="1927.71" style="font-family:'Century Gothic';font-size:59.94px;fill:#000000" text-anchor="middle">0</text>
	<line x1="2853.09" y1="1840.86" x2="2853.09" y2="1870.83" style="stroke:#000000;stroke-width:4.32"/>
	<text x="2853.09" y="1927.71" style="font-family:'Century Gothic';font-size:59.94px;fill:#000000" text-anchor="middle">20</text>
	<line x1="4143.42" y1="1840.86" x2="4143.42" y2="1870.83" style="stroke:#000000;stroke-width:4.32"/>
	<text x="4143.42" y="1927.71" style="font-family:'Century Gothic';font-size:59.94px;fill:#000000" text-anchor="middle">40</text>
	<rect x="1395.90" y="1994.22" width="1753.25" height="139.86" style="fill:#FFFFFF"/>
	<rect x="1398.06" y="1996.38" width="1748.93" height="135.54" style="fill:none;stroke:#EAF2F3;stroke-opacity:0.00;stroke-width:4.32"/>
	<line x1="1428.30" y1="2064.15" x2="1709.10" y2="2064.15" style="stroke:#83082A;stroke-width:9.72"/>
	<line x1="2152.17" y1="2064.15" x2="2195.37" y2="2064.15" style="stroke:#404040;stroke-width:9.72"/>
	<line x1="2216.97" y1="2064.15" x2="2260.17" y2="2064.15" style="stroke:#404040;stroke-width:9.72"/>
	<line x1="2281.77" y1="2064.15" x2="2324.97" y2="2064.15" style="stroke:#404040;stroke-width:9.72"/>
	<line x1="2346.57" y1="2064.15" x2="2389.77" y2="2064.15" style="stroke:#404040;stroke-width:9.72"/>
	<line x1="2411.37" y1="2064.15" x2="2432.97" y2="2064.15" style="stroke:#404040;stroke-width:9.72"/>
	<text x="1754.06" y="2090.45" style="font-family:'Century Gothic';font-size:75.06px;fill:#000000">Treated</text>
	<text x="2477.93" y="2090.45" style="font-family:'Century Gothic';font-size:75.06px;fill:#000000">Synthetic control</text>
</svg>
