<?xml version="1.0" encoding="UTF-8" standalone="no"?>
<!-- This is a Stata 19.5 generated SVG file (http://www.stata.com) -->

<svg version="1.1" width="6.000in" height="3.000in" viewBox="0 0 4320 2160" xmlns="http://www.w3.org/2000/svg" xmlns:xlink="http://www.w3.org/1999/xlink">
	<desc>Stata Graph - g_event</desc>
	<rect x="0" y="0" width="4320" height="2160" style="fill:#EAF2F3;stroke:none"/>
	<rect x="0.00" y="0.00" width="4320.00" height="2160.00" style="fill:#FFFFFF"/>
	<rect x="2.16" y="2.16" width="4315.68" height="2155.68" style="fill:none;stroke:#FFFFFF;stroke-width:4.32"/>
	<rect x="245.97" y="0.00" width="4074.03" height="2032.56" style="fill:#FFFFFF"/>
	<rect x="248.13" y="2.16" width="4069.71" height="2028.24" style="fill:none;stroke:#FFFFFF;stroke-width:4.32"/>
	<line x1="245.97" y1="1985.04" x2="4320.00" y2="1985.04" style="stroke:#CCCCCC;stroke-width:6.48"/>
	<line x1="245.97" y1="1500.66" x2="4320.00" y2="1500.66" style="stroke:#CCCCCC;stroke-width:6.48"/>
	<line x1="245.97" y1="1016.28" x2="4320.00" y2="1016.28" style="stroke:#CCCCCC;stroke-width:6.48"/>
	<line x1="245.97" y1="531.90" x2="4320.00" y2="531.90" style="stroke:#CCCCCC;stroke-width:6.48"/>
	<line x1="245.97" y1="47.52" x2="4320.00" y2="47.52" style="stroke:#CCCCCC;stroke-width:6.48"/>
	<line x1="1588.28" y1="2032.56" x2="1588.28" y2="1989.36" style="stroke:#404040;stroke-width:6.48"/>
	<line x1="1588.28" y1="1967.76" x2="1588.28" y2="1924.56" style="stroke:#404040;stroke-width:6.48"/>
	<line x1="1588.28" y1="1902.96" x2="1588.28" y2="1859.76" style="stroke:#404040;stroke-width:6.48"/>
	<line x1="1588.28" y1="1838.16" x2="1588.28" y2="1794.96" style="stroke:#404040;stroke-width:6.48"/>
	<line x1="1588.28" y1="1773.36" x2="1588.28" y2="1730.16" style="stroke:#404040;stroke-width:6.48"/>
	<line x1="1588.28" y1="1708.56" x2="1588.28" y2="1665.36" style="stroke:#404040;stroke-width:6.48"/>
	<line x1="1588.28" y1="1643.76" x2="1588.28" y2="1600.56" style="stroke:#404040;stroke-width:6.48"/>
	<line x1="1588.28" y1="1578.96" x2="1588.28" y2="1535.76" style="stroke:#404040;stroke-width:6.48"/>
	<line x1="1588.28" y1="1514.16" x2="1588.28" y2="1470.96" style="stroke:#404040;stroke-width:6.48"/>
	<line x1="1588.28" y1="1449.36" x2="1588.28" y2="1406.16" style="stroke:#404040;stroke-width:6.48"/>
	<line x1="1588.28" y1="1384.56" x2="1588.28" y2="1341.36" style="stroke:#404040;stroke-width:6.48"/>
	<line x1="1588.28" y1="1319.76" x2="1588.28" y2="1276.56" style="stroke:#404040;stroke-width:6.48"/>
	<line x1="1588.28" y1="1254.96" x2="1588.28" y2="1211.76" style="stroke:#404040;stroke-width:6.48"/>
	<line x1="1588.28" y1="1190.16" x2="1588.28" y2="1146.96" style="stroke:#404040;stroke-width:6.48"/>
	<line x1="1588.28" y1="1125.36" x2="1588.28" y2="1082.16" style="stroke:#404040;stroke-width:6.48"/>
	<line x1="1588.28" y1="1060.56" x2="1588.28" y2="1017.36" style="stroke:#404040;stroke-width:6.48"/>
	<line x1="1588.28" y1="995.76" x2="1588.28" y2="952.56" style="stroke:#404040;stroke-width:6.48"/>
	<line x1="1588.28" y1="930.96" x2="1588.28" y2="887.76" style="stroke:#404040;stroke-width:6.48"/>
	<line x1="1588.28" y1="866.16" x2="1588.28" y2="822.96" style="stroke:#404040;stroke-width:6.48"/>
	<line x1="1588.28" y1="801.36" x2="1588.28" y2="758.16" style="stroke:#404040;stroke-width:6.48"/>
	<line x1="1588.28" y1="736.56" x2="1588.28" y2="693.36" style="stroke:#404040;stroke-width:6.48"/>
	<line x1="1588.28" y1="671.76" x2="1588.28" y2="628.56" style="stroke:#404040;stroke-width:6.48"/>
	<line x1="1588.28" y1="606.96" x2="1588.28" y2="563.76" style="stroke:#404040;stroke-width:6.48"/>
	<line x1="1588.28" y1="542.16" x2="1588.28" y2="498.96" style="stroke:#404040;stroke-width:6.48"/>
	<line x1="1588.28" y1="477.36" x2="1588.28" y2="434.16" style="stroke:#404040;stroke-width:6.48"/>
	<line x1="1588.28" y1="412.56" x2="1588.28" y2="369.36" style="stroke:#404040;stroke-width:6.48"/>
	<line x1="1588.28" y1="347.76" x2="1588.28" y2="304.56" style="stroke:#404040;stroke-width:6.48"/>
	<line x1="1588.28" y1="282.96" x2="1588.28" y2="239.76" style="stroke:#404040;stroke-width:6.48"/>
	<line x1="1588.28" y1="218.16" x2="1588.28" y2="174.96" style="stroke:#404040;stroke-width:6.48"/>
	<line x1="1588.28" y1="153.36" x2="1588.28" y2="110.16" style="stroke:#404040;stroke-width:6.48"/>
	<line x1="1588.28" y1="88.56" x2="1588.28" y2="45.36" style="stroke:#404040;stroke-width:6.48"/>
	<line x1="1588.28" y1="23.76" x2="1588.28" y2="0.00" style="stroke:#404040;stroke-width:6.48"/>
	<line x1="245.97" y1="531.90" x2="4320.00" y2="531.90" style="stroke:#404040;stroke-width:6.48"/>
	<line x1="293.49" y1="547.83" x2="293.49" y2="1099.04" style="stroke:#E397A0;stroke-width:6.48"/>
	<line x1="277.02" y1="1099.04" x2="309.96" y2="1099.04" stroke-linecap="round" style="stroke:#E397A0;stroke-width:6.48"/>
	<line x1="277.02" y1="547.83" x2="309.96" y2="547.83" stroke-linecap="round" style="stroke:#E397A0;stroke-width:6.48"/>
	<line x1="356.67" y1="482.90" x2="356.67" y2="983.07" style="stroke:#E397A0;stroke-width:6.48"/>
	<line x1="340.20" y1="983.07" x2="373.14" y2="983.07" stroke-linecap="round" style="stroke:#E397A0;stroke-width:6.48"/>
	<line x1="340.20" y1="482.90" x2="373.14" y2="482.90" stroke-linecap="round" style="stroke:#E397A0;stroke-width:6.48"/>
	<line x1="419.85" y1="573.21" x2="419.85" y2="1060.43" style="stroke:#E397A0;stroke-width:6.48"/>
	<line x1="403.38" y1="1060.43" x2="436.32" y2="1060.43" stroke-linecap="round" style="stroke:#E397A0;stroke-width:6.48"/>
	<line x1="403.38" y1="573.21" x2="436.32" y2="573.21" stroke-linecap="round" style="stroke:#E397A0;stroke-width:6.48"/>
	<line x1="482.90" y1="525.02" x2="482.90" y2="988.88" style="stroke:#E397A0;stroke-width:6.48"/>
	<line x1="466.43" y1="988.88" x2="499.37" y2="988.88" stroke-linecap="round" style="stroke:#E397A0;stroke-width:6.48"/>
	<line x1="466.43" y1="525.02" x2="499.37" y2="525.02" stroke-linecap="round" style="stroke:#E397A0;stroke-width:6.48"/>
	<line x1="546.08" y1="598.99" x2="546.08" y2="1170.99" style="stroke:#E397A0;stroke-width:6.48"/>
	<line x1="529.61" y1="1170.99" x2="562.54" y2="1170.99" stroke-linecap="round" style="stroke:#E397A0;stroke-width:6.48"/>
	<line x1="529.61" y1="598.99" x2="562.54" y2="598.99" stroke-linecap="round" style="stroke:#E397A0;stroke-width:6.48"/>
	<line x1="609.26" y1="690.66" x2="609.26" y2="1237.28" style="stroke:#E397A0;stroke-width:6.48"/>
	<line x1="592.79" y1="1237.28" x2="625.73" y2="1237.28" stroke-linecap="round" style="stroke:#E397A0;stroke-width:6.48"/>
	<line x1="592.79" y1="690.66" x2="625.73" y2="690.66" stroke-linecap="round" style="stroke:#E397A0;stroke-width:6.48"/>
	<line x1="672.44" y1="704.97" x2="672.44" y2="1184.63" style="stroke:#E397A0;stroke-width:6.48"/>
	<line x1="655.97" y1="1184.63" x2="688.91" y2="1184.63" stroke-linecap="round" style="stroke:#E397A0;stroke-width:6.48"/>
	<line x1="655.97" y1="704.97" x2="688.91" y2="704.97" stroke-linecap="round" style="stroke:#E397A0;stroke-width:6.48"/>
	<line x1="735.62" y1="656.23" x2="735.62" y2="928.26" style="stroke:#E397A0;stroke-width:6.48"/>
	<line x1="719.15" y1="928.26" x2="752.09" y2="928.26" stroke-linecap="round" style="stroke:#E397A0;stroke-width:6.48"/>
	<line x1="719.15" y1="656.23" x2="752.09" y2="656.23" stroke-linecap="round" style="stroke:#E397A0;stroke-width:6.48"/>
	<line x1="798.80" y1="562.14" x2="798.80" y2="1201.50" style="stroke:#E397A0;stroke-width:6.48"/>
	<line x1="782.33" y1="1201.50" x2="815.27" y2="1201.50" stroke-linecap="round" style="stroke:#E397A0;stroke-width:6.48"/>
	<line x1="782.33" y1="562.14" x2="815.27" y2="562.14" stroke-linecap="round" style="stroke:#E397A0;stroke-width:6.48"/>
	<line x1="861.84" y1="584.01" x2="861.84" y2="1297.76" style="stroke:#E397A0;stroke-width:6.48"/>
	<line x1="845.37" y1="1297.76" x2="878.31" y2="1297.76" stroke-linecap="round" style="stroke:#E397A0;stroke-width:6.48"/>
	<line x1="845.37" y1="584.01" x2="878.31" y2="584.01" stroke-linecap="round" style="stroke:#E397A0;stroke-width:6.48"/>
	<line x1="925.02" y1="823.91" x2="925.02" y2="1704.65" style="stroke:#E397A0;stroke-width:6.48"/>
	<line x1="908.55" y1="1704.65" x2="941.49" y2="1704.65" stroke-linecap="round" style="stroke:#E397A0;stroke-width:6.48"/>
	<line x1="908.55" y1="823.91" x2="941.49" y2="823.91" stroke-linecap="round" style="stroke:#E397A0;stroke-width:6.48"/>
	<line x1="988.20" y1="628.16" x2="988.20" y2="1341.36" style="stroke:#E397A0;stroke-width:6.48"/>
	<line x1="971.73" y1="1341.36" x2="1004.67" y2="1341.36" stroke-linecap="round" style="stroke:#E397A0;stroke-width:6.48"/>
	<line x1="971.73" y1="628.16" x2="1004.67" y2="628.16" stroke-linecap="round" style="stroke:#E397A0;stroke-width:6.48"/>
	<line x1="1051.38" y1="603.59" x2="1051.38" y2="1241.87" style="stroke:#E397A0;stroke-width:6.48"/>
	<line x1="1034.91" y1="1241.87" x2="1067.85" y2="1241.87" stroke-linecap="round" style="stroke:#E397A0;stroke-width:6.48"/>
	<line x1="1034.91" y1="603.59" x2="1067.85" y2="603.59" stroke-linecap="round" style="stroke:#E397A0;stroke-width:6.48"/>
	<line x1="1114.56" y1="485.19" x2="1114.56" y2="821.88" style="stroke:#E397A0;stroke-width:6.48"/>
	<line x1="1098.09" y1="821.88" x2="1131.03" y2="821.88" stroke-linecap="round" style="stroke:#E397A0;stroke-width:6.48"/>
	<line x1="1098.09" y1="485.19" x2="1131.03" y2="485.19" stroke-linecap="round" style="stroke:#E397A0;stroke-width:6.48"/>
	<line x1="1177.74" y1="482.22" x2="1177.74" y2="911.79" style="stroke:#E397A0;stroke-width:6.48"/>
	<line x1="1161.27" y1="911.79" x2="1194.21" y2="911.79" stroke-linecap="round" style="stroke:#E397A0;stroke-width:6.48"/>
	<line x1="1161.27" y1="482.22" x2="1194.21" y2="482.22" stroke-linecap="round" style="stroke:#E397A0;stroke-width:6.48"/>
	<line x1="1240.79" y1="508.01" x2="1240.79" y2="784.08" style="stroke:#E397A0;stroke-width:6.48"/>
	<line x1="1224.32" y1="784.08" x2="1257.26" y2="784.08" stroke-linecap="round" style="stroke:#E397A0;stroke-width:6.48"/>
	<line x1="1224.32" y1="508.01" x2="1257.26" y2="508.01" stroke-linecap="round" style="stroke:#E397A0;stroke-width:6.48"/>
	<line x1="1303.96" y1="585.90" x2="1303.96" y2="938.52" style="stroke:#E397A0;stroke-width:6.48"/>
	<line x1="1287.49" y1="938.52" x2="1320.44" y2="938.52" stroke-linecap="round" style="stroke:#E397A0;stroke-width:6.48"/>
	<line x1="1287.49" y1="585.90" x2="1320.44" y2="585.90" stroke-linecap="round" style="stroke:#E397A0;stroke-width:6.48"/>
	<line x1="1367.15" y1="566.46" x2="1367.15" y2="899.10" style="stroke:#E397A0;stroke-width:6.48"/>
	<line x1="1350.68" y1="899.10" x2="1383.62" y2="899.10" stroke-linecap="round" style="stroke:#E397A0;stroke-width:6.48"/>
	<line x1="1350.68" y1="566.46" x2="1383.62" y2="566.46" stroke-linecap="round" style="stroke:#E397A0;stroke-width:6.48"/>
	<line x1="1430.33" y1="544.05" x2="1430.33" y2="768.15" style="stroke:#E397A0;stroke-width:6.48"/>
	<line x1="1413.86" y1="768.15" x2="1446.80" y2="768.15" stroke-linecap="round" style="stroke:#E397A0;stroke-width:6.48"/>
	<line x1="1413.86" y1="544.05" x2="1446.80" y2="544.05" stroke-linecap="round" style="stroke:#E397A0;stroke-width:6.48"/>
	<line x1="1493.51" y1="423.90" x2="1493.51" y2="547.16" style="stroke:#E397A0;stroke-width:6.48"/>
	<line x1="1477.04" y1="547.16" x2="1509.98" y2="547.16" stroke-linecap="round" style="stroke:#E397A0;stroke-width:6.48"/>
	<line x1="1477.04" y1="423.90" x2="1509.98" y2="423.90" stroke-linecap="round" style="stroke:#E397A0;stroke-width:6.48"/>
	<line x1="1619.87" y1="330.48" x2="1619.87" y2="681.08" style="stroke:#E397A0;stroke-width:6.48"/>
	<line x1="1603.40" y1="681.08" x2="1636.34" y2="681.08" stroke-linecap="round" style="stroke:#E397A0;stroke-width:6.48"/>
	<line x1="1603.40" y1="330.48" x2="1636.34" y2="330.48" stroke-linecap="round" style="stroke:#E397A0;stroke-width:6.48"/>
	<line x1="1682.91" y1="353.03" x2="1682.91" y2="686.34" style="stroke:#E397A0;stroke-width:6.48"/>
	<line x1="1666.44" y1="686.34" x2="1699.38" y2="686.34" stroke-linecap="round" style="stroke:#E397A0;stroke-width:6.48"/>
	<line x1="1666.44" y1="353.03" x2="1699.38" y2="353.03" stroke-linecap="round" style="stroke:#E397A0;stroke-width:6.48"/>
	<line x1="1746.09" y1="422.68" x2="1746.09" y2="686.21" style="stroke:#E397A0;stroke-width:6.48"/>
	<line x1="1729.62" y1="686.21" x2="1762.56" y2="686.21" stroke-linecap="round" style="stroke:#E397A0;stroke-width:6.48"/>
	<line x1="1729.62" y1="422.68" x2="1762.56" y2="422.68" stroke-linecap="round" style="stroke:#E397A0;stroke-width:6.48"/>
	<line x1="1809.27" y1="295.79" x2="1809.27" y2="548.91" style="stroke:#E397A0;stroke-width:6.48"/>
	<line x1="1792.80" y1="548.91" x2="1825.74" y2="548.91" stroke-linecap="round" style="stroke:#E397A0;stroke-width:6.48"/>
	<line x1="1792.80" y1="295.79" x2="1825.74" y2="295.79" stroke-linecap="round" style="stroke:#E397A0;stroke-width:6.48"/>
	<line x1="1872.45" y1="331.42" x2="1872.45" y2="563.90" style="stroke:#E397A0;stroke-width:6.48"/>
	<line x1="1855.98" y1="563.90" x2="1888.92" y2="563.90" stroke-linecap="round" style="stroke:#E397A0;stroke-width:6.48"/>
	<line x1="1855.98" y1="331.42" x2="1888.92" y2="331.42" stroke-linecap="round" style="stroke:#E397A0;stroke-width:6.48"/>
	<line x1="1935.63" y1="103.68" x2="1935.63" y2="405.41" style="stroke:#E397A0;stroke-width:6.48"/>
	<line x1="1919.16" y1="405.41" x2="1952.10" y2="405.41" stroke-linecap="round" style="stroke:#E397A0;stroke-width:6.48"/>
	<line x1="1919.16" y1="103.68" x2="1952.10" y2="103.68" stroke-linecap="round" style="stroke:#E397A0;stroke-width:6.48"/>
	<line x1="1998.81" y1="329.94" x2="1998.81" y2="559.31" style="stroke:#E397A0;stroke-width:6.48"/>
	<line x1="1982.34" y1="559.31" x2="2015.28" y2="559.31" stroke-linecap="round" style="stroke:#E397A0;stroke-width:6.48"/>
	<line x1="1982.34" y1="329.94" x2="2015.28" y2="329.94" stroke-linecap="round" style="stroke:#E397A0;stroke-width:6.48"/>
	<line x1="2061.86" y1="235.58" x2="2061.86" y2="478.98" style="stroke:#E397A0;stroke-width:6.48"/>
	<line x1="2045.39" y1="478.98" x2="2078.32" y2="478.98" stroke-linecap="round" style="stroke:#E397A0;stroke-width:6.48"/>
	<line x1="2045.39" y1="235.58" x2="2078.32" y2="235.58" stroke-linecap="round" style="stroke:#E397A0;stroke-width:6.48"/>
	<line x1="2125.04" y1="377.73" x2="2125.04" y2="593.87" style="stroke:#E397A0;stroke-width:6.48"/>
	<line x1="2108.57" y1="593.87" x2="2141.51" y2="593.87" stroke-linecap="round" style="stroke:#E397A0;stroke-width:6.48"/>
	<line x1="2108.57" y1="377.73" x2="2141.51" y2="377.73" stroke-linecap="round" style="stroke:#E397A0;stroke-width:6.48"/>
	<line x1="2188.22" y1="316.58" x2="2188.22" y2="524.47" style="stroke:#E397A0;stroke-width:6.48"/>
	<line x1="2171.75" y1="524.47" x2="2204.69" y2="524.47" stroke-linecap="round" style="stroke:#E397A0;stroke-width:6.48"/>
	<line x1="2171.75" y1="316.58" x2="2204.69" y2="316.58" stroke-linecap="round" style="stroke:#E397A0;stroke-width:6.48"/>
	<line x1="2251.40" y1="330.89" x2="2251.40" y2="549.59" style="stroke:#E397A0;stroke-width:6.48"/>
	<line x1="2234.93" y1="549.59" x2="2267.86" y2="549.59" stroke-linecap="round" style="stroke:#E397A0;stroke-width:6.48"/>
	<line x1="2234.93" y1="330.89" x2="2267.86" y2="330.89" stroke-linecap="round" style="stroke:#E397A0;stroke-width:6.48"/>
	<line x1="2314.57" y1="207.77" x2="2314.57" y2="484.11" style="stroke:#E397A0;stroke-width:6.48"/>
	<line x1="2298.11" y1="484.11" x2="2331.05" y2="484.11" stroke-linecap="round" style="stroke:#E397A0;stroke-width:6.48"/>
	<line x1="2298.11" y1="207.77" x2="2331.05" y2="207.77" stroke-linecap="round" style="stroke:#E397A0;stroke-width:6.48"/>
	<line x1="2377.76" y1="247.05" x2="2377.76" y2="440.78" style="stroke:#E397A0;stroke-width:6.48"/>
	<line x1="2361.29" y1="440.78" x2="2394.23" y2="440.78" stroke-linecap="round" style="stroke:#E397A0;stroke-width:6.48"/>
	<line x1="2361.29" y1="247.05" x2="2394.23" y2="247.05" stroke-linecap="round" style="stroke:#E397A0;stroke-width:6.48"/>
	<line x1="2440.94" y1="286.61" x2="2440.94" y2="508.68" style="stroke:#E397A0;stroke-width:6.48"/>
	<line x1="2424.47" y1="508.68" x2="2457.41" y2="508.68" stroke-linecap="round" style="stroke:#E397A0;stroke-width:6.48"/>
	<line x1="2424.47" y1="286.61" x2="2457.41" y2="286.61" stroke-linecap="round" style="stroke:#E397A0;stroke-width:6.48"/>
	<line x1="2503.98" y1="351.54" x2="2503.98" y2="565.24" style="stroke:#E397A0;stroke-width:6.48"/>
	<line x1="2487.51" y1="565.24" x2="2520.45" y2="565.24" stroke-linecap="round" style="stroke:#E397A0;stroke-width:6.48"/>
	<line x1="2487.51" y1="351.54" x2="2520.45" y2="351.54" stroke-linecap="round" style="stroke:#E397A0;stroke-width:6.48"/>
	<line x1="2567.16" y1="210.73" x2="2567.16" y2="489.11" style="stroke:#E397A0;stroke-width:6.48"/>
	<line x1="2550.69" y1="489.11" x2="2583.63" y2="489.11" stroke-linecap="round" style="stroke:#E397A0;stroke-width:6.48"/>
	<line x1="2550.69" y1="210.73" x2="2583.63" y2="210.73" stroke-linecap="round" style="stroke:#E397A0;stroke-width:6.48"/>
	<line x1="2630.34" y1="280.13" x2="2630.34" y2="482.90" style="stroke:#E397A0;stroke-width:6.48"/>
	<line x1="2613.87" y1="482.90" x2="2646.81" y2="482.90" stroke-linecap="round" style="stroke:#E397A0;stroke-width:6.48"/>
	<line x1="2613.87" y1="280.13" x2="2646.81" y2="280.13" stroke-linecap="round" style="stroke:#E397A0;stroke-width:6.48"/>
	<line x1="2693.52" y1="145.80" x2="2693.52" y2="417.96" style="stroke:#E397A0;stroke-width:6.48"/>
	<line x1="2677.05" y1="417.96" x2="2709.99" y2="417.96" stroke-linecap="round" style="stroke:#E397A0;stroke-width:6.48"/>
	<line x1="2677.05" y1="145.80" x2="2709.99" y2="145.80" stroke-linecap="round" style="stroke:#E397A0;stroke-width:6.48"/>
	<line x1="2756.70" y1="136.21" x2="2756.70" y2="414.86" style="stroke:#E397A0;stroke-width:6.48"/>
	<line x1="2740.23" y1="414.86" x2="2773.17" y2="414.86" stroke-linecap="round" style="stroke:#E397A0;stroke-width:6.48"/>
	<line x1="2740.23" y1="136.21" x2="2773.17" y2="136.21" stroke-linecap="round" style="stroke:#E397A0;stroke-width:6.48"/>
	<line x1="2819.88" y1="281.07" x2="2819.88" y2="482.09" style="stroke:#E397A0;stroke-width:6.48"/>
	<line x1="2803.41" y1="482.09" x2="2836.35" y2="482.09" stroke-linecap="round" style="stroke:#E397A0;stroke-width:6.48"/>
	<line x1="2803.41" y1="281.07" x2="2836.35" y2="281.07" stroke-linecap="round" style="stroke:#E397A0;stroke-width:6.48"/>
	<line x1="2882.93" y1="304.83" x2="2882.93" y2="508.82" style="stroke:#E397A0;stroke-width:6.48"/>
	<line x1="2866.46" y1="508.82" x2="2899.40" y2="508.82" stroke-linecap="round" style="stroke:#E397A0;stroke-width:6.48"/>
	<line x1="2866.46" y1="304.83" x2="2899.40" y2="304.83" stroke-linecap="round" style="stroke:#E397A0;stroke-width:6.48"/>
	<line x1="2946.11" y1="250.02" x2="2946.11" y2="502.61" style="stroke:#E397A0;stroke-width:6.48"/>
	<line x1="2929.64" y1="502.61" x2="2962.58" y2="502.61" stroke-linecap="round" style="stroke:#E397A0;stroke-width:6.48"/>
	<line x1="2929.64" y1="250.02" x2="2962.58" y2="250.02" stroke-linecap="round" style="stroke:#E397A0;stroke-width:6.48"/>
	<line x1="3009.29" y1="344.52" x2="3009.29" y2="625.05" style="stroke:#E397A0;stroke-width:6.48"/>
	<line x1="2992.82" y1="625.05" x2="3025.76" y2="625.05" stroke-linecap="round" style="stroke:#E397A0;stroke-width:6.48"/>
	<line x1="2992.82" y1="344.52" x2="3025.76" y2="344.52" stroke-linecap="round" style="stroke:#E397A0;stroke-width:6.48"/>
	<line x1="3072.47" y1="95.58" x2="3072.47" y2="450.36" style="stroke:#E397A0;stroke-width:6.48"/>
	<line x1="3056.00" y1="450.36" x2="3088.94" y2="450.36" stroke-linecap="round" style="stroke:#E397A0;stroke-width:6.48"/>
	<line x1="3056.00" y1="95.58" x2="3088.94" y2="95.58" stroke-linecap="round" style="stroke:#E397A0;stroke-width:6.48"/>
	<line x1="3135.65" y1="225.32" x2="3135.65" y2="431.60" style="stroke:#E397A0;stroke-width:6.48"/>
	<line x1="3119.18" y1="431.60" x2="3152.12" y2="431.60" stroke-linecap="round" style="stroke:#E397A0;stroke-width:6.48"/>
	<line x1="3119.18" y1="225.32" x2="3152.12" y2="225.32" stroke-linecap="round" style="stroke:#E397A0;stroke-width:6.48"/>
	<line x1="3198.83" y1="341.01" x2="3198.83" y2="595.48" style="stroke:#E397A0;stroke-width:6.48"/>
	<line x1="3182.36" y1="595.48" x2="3215.30" y2="595.48" stroke-linecap="round" style="stroke:#E397A0;stroke-width:6.48"/>
	<line x1="3182.36" y1="341.01" x2="3215.30" y2="341.01" stroke-linecap="round" style="stroke:#E397A0;stroke-width:6.48"/>
	<line x1="3261.87" y1="349.11" x2="3261.87" y2="548.64" style="stroke:#E397A0;stroke-width:6.48"/>
	<line x1="3245.40" y1="548.64" x2="3278.34" y2="548.64" stroke-linecap="round" style="stroke:#E397A0;stroke-width:6.48"/>
	<line x1="3245.40" y1="349.11" x2="3278.34" y2="349.11" stroke-linecap="round" style="stroke:#E397A0;stroke-width:6.48"/>
	<line x1="3325.05" y1="220.72" x2="3325.05" y2="538.24" style="stroke:#E397A0;stroke-width:6.48"/>
	<line x1="3308.58" y1="538.24" x2="3341.52" y2="538.24" stroke-linecap="round" style="stroke:#E397A0;stroke-width:6.48"/>
	<line x1="3308.58" y1="220.72" x2="3341.52" y2="220.72" stroke-linecap="round" style="stroke:#E397A0;stroke-width:6.48"/>
	<line x1="3388.23" y1="279.45" x2="3388.23" y2="479.66" style="stroke:#E397A0;stroke-width:6.48"/>
	<line x1="3371.76" y1="479.66" x2="3404.70" y2="479.66" stroke-linecap="round" style="stroke:#E397A0;stroke-width:6.48"/>
	<line x1="3371.76" y1="279.45" x2="3404.70" y2="279.45" stroke-linecap="round" style="stroke:#E397A0;stroke-width:6.48"/>
	<line x1="3451.41" y1="125.82" x2="3451.41" y2="400.95" style="stroke:#E397A0;stroke-width:6.48"/>
	<line x1="3434.94" y1="400.95" x2="3467.88" y2="400.95" stroke-linecap="round" style="stroke:#E397A0;stroke-width:6.48"/>
	<line x1="3434.94" y1="125.82" x2="3467.88" y2="125.82" stroke-linecap="round" style="stroke:#E397A0;stroke-width:6.48"/>
	<line x1="3514.59" y1="121.90" x2="3514.59" y2="402.43" style="stroke:#E397A0;stroke-width:6.48"/>
	<line x1="3498.12" y1="402.43" x2="3531.06" y2="402.43" stroke-linecap="round" style="stroke:#E397A0;stroke-width:6.48"/>
	<line x1="3498.12" y1="121.90" x2="3531.06" y2="121.90" stroke-linecap="round" style="stroke:#E397A0;stroke-width:6.48"/>
	<line x1="3577.77" y1="136.76" x2="3577.77" y2="438.48" style="stroke:#E397A0;stroke-width:6.48"/>
	<line x1="3561.30" y1="438.48" x2="3594.24" y2="438.48" stroke-linecap="round" style="stroke:#E397A0;stroke-width:6.48"/>
	<line x1="3561.30" y1="136.76" x2="3594.24" y2="136.76" stroke-linecap="round" style="stroke:#E397A0;stroke-width:6.48"/>
	<line x1="3640.95" y1="262.71" x2="3640.95" y2="525.96" style="stroke:#E397A0;stroke-width:6.48"/>
	<line x1="3624.48" y1="525.96" x2="3657.42" y2="525.96" stroke-linecap="round" style="stroke:#E397A0;stroke-width:6.48"/>
	<line x1="3624.48" y1="262.71" x2="3657.42" y2="262.71" stroke-linecap="round" style="stroke:#E397A0;stroke-width:6.48"/>
	<line x1="3704.00" y1="337.50" x2="3704.00" y2="601.42" style="stroke:#E397A0;stroke-width:6.48"/>
	<line x1="3687.53" y1="601.42" x2="3720.47" y2="601.42" stroke-linecap="round" style="stroke:#E397A0;stroke-width:6.48"/>
	<line x1="3687.53" y1="337.50" x2="3720.47" y2="337.50" stroke-linecap="round" style="stroke:#E397A0;stroke-width:6.48"/>
	<line x1="3767.18" y1="397.04" x2="3767.18" y2="848.34" style="stroke:#E397A0;stroke-width:6.48"/>
	<line x1="3750.71" y1="848.34" x2="3783.65" y2="848.34" stroke-linecap="round" style="stroke:#E397A0;stroke-width:6.48"/>
	<line x1="3750.71" y1="397.04" x2="3783.65" y2="397.04" stroke-linecap="round" style="stroke:#E397A0;stroke-width:6.48"/>
	<line x1="3830.36" y1="130.01" x2="3830.36" y2="471.29" style="stroke:#E397A0;stroke-width:6.48"/>
	<line x1="3813.89" y1="471.29" x2="3846.83" y2="471.29" stroke-linecap="round" style="stroke:#E397A0;stroke-width:6.48"/>
	<line x1="3813.89" y1="130.01" x2="3846.83" y2="130.01" stroke-linecap="round" style="stroke:#E397A0;stroke-width:6.48"/>
	<line x1="3893.54" y1="292.68" x2="3893.54" y2="562.14" style="stroke:#E397A0;stroke-width:6.48"/>
	<line x1="3877.07" y1="562.14" x2="3910.01" y2="562.14" stroke-linecap="round" style="stroke:#E397A0;stroke-width:6.48"/>
	<line x1="3877.07" y1="292.68" x2="3910.01" y2="292.68" stroke-linecap="round" style="stroke:#E397A0;stroke-width:6.48"/>
	<line x1="3956.72" y1="351.54" x2="3956.72" y2="622.08" style="stroke:#E397A0;stroke-width:6.48"/>
	<line x1="3940.25" y1="622.08" x2="3973.19" y2="622.08" stroke-linecap="round" style="stroke:#E397A0;stroke-width:6.48"/>
	<line x1="3940.25" y1="351.54" x2="3973.19" y2="351.54" stroke-linecap="round" style="stroke:#E397A0;stroke-width:6.48"/>
	<line x1="4019.90" y1="337.91" x2="4019.90" y2="568.76" style="stroke:#E397A0;stroke-width:6.48"/>
	<line x1="4003.43" y1="568.76" x2="4036.37" y2="568.76" stroke-linecap="round" style="stroke:#E397A0;stroke-width:6.48"/>
	<line x1="4003.43" y1="337.91" x2="4036.37" y2="337.91" stroke-linecap="round" style="stroke:#E397A0;stroke-width:6.48"/>
	<line x1="4082.94" y1="279.32" x2="4082.94" y2="593.73" style="stroke:#E397A0;stroke-width:6.48"/>
	<line x1="4066.47" y1="593.73" x2="4099.41" y2="593.73" stroke-linecap="round" style="stroke:#E397A0;stroke-width:6.48"/>
	<line x1="4066.47" y1="279.32" x2="4099.41" y2="279.32" stroke-linecap="round" style="stroke:#E397A0;stroke-width:6.48"/>
	<line x1="4146.12" y1="291.87" x2="4146.12" y2="516.11" style="stroke:#E397A0;stroke-width:6.48"/>
	<line x1="4129.65" y1="516.11" x2="4162.59" y2="516.11" stroke-linecap="round" style="stroke:#E397A0;stroke-width:6.48"/>
	<line x1="4129.65" y1="291.87" x2="4162.59" y2="291.87" stroke-linecap="round" style="stroke:#E397A0;stroke-width:6.48"/>
	<line x1="4209.30" y1="194.27" x2="4209.30" y2="468.99" style="stroke:#E397A0;stroke-width:6.48"/>
	<line x1="4192.83" y1="468.99" x2="4225.77" y2="468.99" stroke-linecap="round" style="stroke:#E397A0;stroke-width:6.48"/>
	<line x1="4192.83" y1="194.27" x2="4225.77" y2="194.27" stroke-linecap="round" style="stroke:#E397A0;stroke-width:6.48"/>
	<line x1="4272.48" y1="338.71" x2="4272.48" y2="562.82" style="stroke:#E397A0;stroke-width:6.48"/>
	<line x1="4256.01" y1="562.82" x2="4288.95" y2="562.82" stroke-linecap="round" style="stroke:#E397A0;stroke-width:6.48"/>
	<line x1="4256.01" y1="338.71" x2="4288.95" y2="338.71" stroke-linecap="round" style="stroke:#E397A0;stroke-width:6.48"/>
	<path d=" M293.36 823.50 L356.54 733.05 L419.72 816.89 L482.90 756.95 L546.08 885.06 L609.26 964.04 L672.30 944.87 L735.48 792.32 L798.66 881.82 L861.84 940.95 L925.02 1264.28 L988.20 984.83 L1051.24 922.86 L1114.43 653.67 L1177.61 697.01 L1240.79 646.11 L1303.96 762.21 L1367.15 732.92 L1430.33 656.23 L1493.37 485.60 L1556.55 531.90 L1619.73 505.85 L1682.91 519.75 L1746.09 554.58 L1809.27 422.42 L1872.32 447.66 L1935.50 254.61 L1998.68 444.69 L2061.86 357.35 L2125.04 485.87 L2188.22 420.66 L2251.26 440.23 L2314.44 346.01 L2377.62 343.98 L2440.80 397.71 L2503.98 458.46 L2567.16 349.92 L2630.34 381.65 L2693.39 281.88 L2756.57 275.67 L2819.75 381.65 L2882.93 406.89 L2946.11 376.38 L3009.29 484.79 L3072.33 273.11 L3135.51 328.45 L3198.69 468.32 L3261.87 449.01 L3325.05 379.62 L3388.23 379.62 L3451.41 263.39 L3514.46 262.31 L3577.64 287.68 L3640.82 394.47 L3704.00 469.53 L3767.18 622.76 L3830.36 300.65 L3893.40 427.41 L3956.58 486.94 L4019.76 453.33 L4082.94 436.59 L4146.12 404.06 L4209.30 331.69 L4272.35 450.77" stroke-linejoin="round" style="fill:none;stroke:#83082A;stroke-width:9.72"/>
	<circle cx="293.36" cy="823.50" r="8.91" style="fill:#83082A"/>
	<circle cx="293.36" cy="823.50" r="5.67" style="fill:none;stroke:#83082A;stroke-width:6.48"/>
	<circle cx="356.54" cy="733.05" r="8.91" style="fill:#83082A"/>
	<circle cx="356.54" cy="733.05" r="5.67" style="fill:none;stroke:#83082A;stroke-width:6.48"/>
	<circle cx="419.72" cy="816.89" r="8.91" style="fill:#83082A"/>
	<circle cx="419.72" cy="816.89" r="5.67" style="fill:none;stroke:#83082A;stroke-width:6.48"/>
	<circle cx="482.90" cy="756.95" r="8.91" style="fill:#83082A"/>
	<circle cx="482.90" cy="756.95" r="5.67" style="fill:none;stroke:#83082A;stroke-width:6.48"/>
	<circle cx="546.08" cy="885.06" r="8.91" style="fill:#83082A"/>
	<circle cx="546.08" cy="885.06" r="5.67" style="fill:none;stroke:#83082A;stroke-width:6.48"/>
	<circle cx="609.26" cy="964.04" r="8.91" style="fill:#83082A"/>
	<circle cx="609.26" cy="964.04" r="5.67" style="fill:none;stroke:#83082A;stroke-width:6.48"/>
	<circle cx="672.30" cy="944.87" r="8.91" style="fill:#83082A"/>
	<circle cx="672.30" cy="944.87" r="5.67" style="fill:none;stroke:#83082A;stroke-width:6.48"/>
	<circle cx="735.48" cy="792.32" r="8.91" style="fill:#83082A"/>
	<circle cx="735.48" cy="792.32" r="5.67" style="fill:none;stroke:#83082A;stroke-width:6.48"/>
	<circle cx="798.66" cy="881.82" r="8.91" style="fill:#83082A"/>
	<circle cx="798.66" cy="881.82" r="5.67" style="fill:none;stroke:#83082A;stroke-width:6.48"/>
	<circle cx="861.84" cy="940.95" r="8.91" style="fill:#83082A"/>
	<circle cx="861.84" cy="940.95" r="5.67" style="fill:none;stroke:#83082A;stroke-width:6.48"/>
	<circle cx="925.02" cy="1264.28" r="8.91" style="fill:#83082A"/>
	<circle cx="925.02" cy="1264.28" r="5.67" style="fill:none;stroke:#83082A;stroke-width:6.48"/>
	<circle cx="988.20" cy="984.83" r="8.91" style="fill:#83082A"/>
	<circle cx="988.20" cy="984.83" r="5.67" style="fill:none;stroke:#83082A;stroke-width:6.48"/>
	<circle cx="1051.24" cy="922.86" r="8.91" style="fill:#83082A"/>
	<circle cx="1051.24" cy="922.86" r="5.67" style="fill:none;stroke:#83082A;stroke-width:6.48"/>
	<circle cx="1114.43" cy="653.67" r="8.91" style="fill:#83082A"/>
	<circle cx="1114.43" cy="653.67" r="5.67" style="fill:none;stroke:#83082A;stroke-width:6.48"/>
	<circle cx="1177.61" cy="697.01" r="8.91" style="fill:#83082A"/>
	<circle cx="1177.61" cy="697.01" r="5.67" style="fill:none;stroke:#83082A;stroke-width:6.48"/>
	<circle cx="1240.79" cy="646.11" r="8.91" style="fill:#83082A"/>
	<circle cx="1240.79" cy="646.11" r="5.67" style="fill:none;stroke:#83082A;stroke-width:6.48"/>
	<circle cx="1303.96" cy="762.21" r="8.91" style="fill:#83082A"/>
	<circle cx="1303.96" cy="762.21" r="5.67" style="fill:none;stroke:#83082A;stroke-width:6.48"/>
	<circle cx="1367.15" cy="732.92" r="8.91" style="fill:#83082A"/>
	<circle cx="1367.15" cy="732.92" r="5.67" style="fill:none;stroke:#83082A;stroke-width:6.48"/>
	<circle cx="1430.33" cy="656.23" r="8.91" style="fill:#83082A"/>
	<circle cx="1430.33" cy="656.23" r="5.67" style="fill:none;stroke:#83082A;stroke-width:6.48"/>
	<circle cx="1493.37" cy="485.60" r="8.91" style="fill:#83082A"/>
	<circle cx="1493.37" cy="485.60" r="5.67" style="fill:none;stroke:#83082A;stroke-width:6.48"/>
	<circle cx="1556.55" cy="531.90" r="8.91" style="fill:#83082A"/>
	<circle cx="1556.55" cy="531.90" r="5.67" style="fill:none;stroke:#83082A;stroke-width:6.48"/>
	<circle cx="1619.73" cy="505.85" r="8.91" style="fill:#83082A"/>
	<circle cx="1619.73" cy="505.85" r="5.67" style="fill:none;stroke:#83082A;stroke-width:6.48"/>
	<circle cx="1682.91" cy="519.75" r="8.91" style="fill:#83082A"/>
	<circle cx="1682.91" cy="519.75" r="5.67" style="fill:none;stroke:#83082A;stroke-width:6.48"/>
	<circle cx="1746.09" cy="554.58" r="8.91" style="fill:#83082A"/>
	<circle cx="1746.09" cy="554.58" r="5.67" style="fill:none;stroke:#83082A;stroke-width:6.48"/>
	<circle cx="1809.27" cy="422.42" r="8.91" style="fill:#83082A"/>
	<circle cx="1809.27" cy="422.42" r="5.67" style="fill:none;stroke:#83082A;stroke-width:6.48"/>
	<circle cx="1872.32" cy="447.66" r="8.91" style="fill:#83082A"/>
	<circle cx="1872.32" cy="447.66" r="5.67" style="fill:none;stroke:#83082A;stroke-width:6.48"/>
	<circle cx="1935.50" cy="254.61" r="8.91" style="fill:#83082A"/>
	<circle cx="1935.50" cy="254.61" r="5.67" style="fill:none;stroke:#83082A;stroke-width:6.48"/>
	<circle cx="1998.68" cy="444.69" r="8.91" style="fill:#83082A"/>
	<circle cx="1998.68" cy="444.69" r="5.67" style="fill:none;stroke:#83082A;stroke-width:6.48"/>
	<circle cx="2061.86" cy="357.35" r="8.91" style="fill:#83082A"/>
	<circle cx="2061.86" cy="357.35" r="5.67" style="fill:none;stroke:#83082A;stroke-width:6.48"/>
	<circle cx="2125.04" cy="485.87" r="8.91" style="fill:#83082A"/>
	<circle cx="2125.04" cy="485.87" r="5.67" style="fill:none;stroke:#83082A;stroke-width:6.48"/>
	<circle cx="2188.22" cy="420.66" r="8.91" style="fill:#83082A"/>
	<circle cx="2188.22" cy="420.66" r="5.67" style="fill:none;stroke:#83082A;stroke-width:6.48"/>
	<circle cx="2251.26" cy="440.23" r="8.91" style="fill:#83082A"/>
	<circle cx="2251.26" cy="440.23" r="5.67" style="fill:none;stroke:#83082A;stroke-width:6.48"/>
	<circle cx="2314.44" cy="346.01" r="8.91" style="fill:#83082A"/>
	<circle cx="2314.44" cy="346.01" r="5.67" style="fill:none;stroke:#83082A;stroke-width:6.48"/>
	<circle cx="2377.62" cy="343.98" r="8.91" style="fill:#83082A"/>
	<circle cx="2377.62" cy="343.98" r="5.67" style="fill:none;stroke:#83082A;stroke-width:6.48"/>
	<circle cx="2440.80" cy="397.71" r="8.91" style="fill:#83082A"/>
	<circle cx="2440.80" cy="397.71" r="5.67" style="fill:none;stroke:#83082A;stroke-width:6.48"/>
	<circle cx="2503.98" cy="458.46" r="8.91" style="fill:#83082A"/>
	<circle cx="2503.98" cy="458.46" r="5.67" style="fill:none;stroke:#83082A;stroke-width:6.48"/>
	<circle cx="2567.16" cy="349.92" r="8.91" style="fill:#83082A"/>
	<circle cx="2567.16" cy="349.92" r="5.67" style="fill:none;stroke:#83082A;stroke-width:6.48"/>
	<circle cx="2630.34" cy="381.65" r="8.91" style="fill:#83082A"/>
	<circle cx="2630.34" cy="381.65" r="5.67" style="fill:none;stroke:#83082A;stroke-width:6.48"/>
	<circle cx="2693.39" cy="281.88" r="8.91" style="fill:#83082A"/>
	<circle cx="2693.39" cy="281.88" r="5.67" style="fill:none;stroke:#83082A;stroke-width:6.48"/>
	<circle cx="2756.57" cy="275.67" r="8.91" style="fill:#83082A"/>
	<circle cx="2756.57" cy="275.67" r="5.67" style="fill:none;stroke:#83082A;stroke-width:6.48"/>
	<circle cx="2819.75" cy="381.65" r="8.91" style="fill:#83082A"/>
	<circle cx="2819.75" cy="381.65" r="5.67" style="fill:none;stroke:#83082A;stroke-width:6.48"/>
	<circle cx="2882.93" cy="406.89" r="8.91" style="fill:#83082A"/>
	<circle cx="2882.93" cy="406.89" r="5.67" style="fill:none;stroke:#83082A;stroke-width:6.48"/>
	<circle cx="2946.11" cy="376.38" r="8.91" style="fill:#83082A"/>
	<circle cx="2946.11" cy="376.38" r="5.67" style="fill:none;stroke:#83082A;stroke-width:6.48"/>
	<circle cx="3009.29" cy="484.79" r="8.91" style="fill:#83082A"/>
	<circle cx="3009.29" cy="484.79" r="5.67" style="fill:none;stroke:#83082A;stroke-width:6.48"/>
	<circle cx="3072.33" cy="273.11" r="8.91" style="fill:#83082A"/>
	<circle cx="3072.33" cy="273.11" r="5.67" style="fill:none;stroke:#83082A;stroke-width:6.48"/>
	<circle cx="3135.51" cy="328.45" r="8.91" style="fill:#83082A"/>
	<circle cx="3135.51" cy="328.45" r="5.67" style="fill:none;stroke:#83082A;stroke-width:6.48"/>
	<circle cx="3198.69" cy="468.32" r="8.91" style="fill:#83082A"/>
	<circle cx="3198.69" cy="468.32" r="5.67" style="fill:none;stroke:#83082A;stroke-width:6.48"/>
	<circle cx="3261.87" cy="449.01" r="8.91" style="fill:#83082A"/>
	<circle cx="3261.87" cy="449.01" r="5.67" style="fill:none;stroke:#83082A;stroke-width:6.48"/>
	<circle cx="3325.05" cy="379.62" r="8.91" style="fill:#83082A"/>
	<circle cx="3325.05" cy="379.62" r="5.67" style="fill:none;stroke:#83082A;stroke-width:6.48"/>
	<circle cx="3388.23" cy="379.62" r="8.91" style="fill:#83082A"/>
	<circle cx="3388.23" cy="379.62" r="5.67" style="fill:none;stroke:#83082A;stroke-width:6.48"/>
	<circle cx="3451.41" cy="263.39" r="8.91" style="fill:#83082A"/>
	<circle cx="3451.41" cy="263.39" r="5.67" style="fill:none;stroke:#83082A;stroke-width:6.48"/>
	<circle cx="3514.46" cy="262.31" r="8.91" style="fill:#83082A"/>
	<circle cx="3514.46" cy="262.31" r="5.67" style="fill:none;stroke:#83082A;stroke-width:6.48"/>
	<circle cx="3577.64" cy="287.68" r="8.91" style="fill:#83082A"/>
	<circle cx="3577.64" cy="287.68" r="5.67" style="fill:none;stroke:#83082A;stroke-width:6.48"/>
	<circle cx="3640.82" cy="394.47" r="8.91" style="fill:#83082A"/>
	<circle cx="3640.82" cy="394.47" r="5.67" style="fill:none;stroke:#83082A;stroke-width:6.48"/>
	<circle cx="3704.00" cy="469.53" r="8.91" style="fill:#83082A"/>
	<circle cx="3704.00" cy="469.53" r="5.67" style="fill:none;stroke:#83082A;stroke-width:6.48"/>
	<circle cx="3767.18" cy="622.76" r="8.91" style="fill:#83082A"/>
	<circle cx="3767.18" cy="622.76" r="5.67" style="fill:none;stroke:#83082A;stroke-width:6.48"/>
	<circle cx="3830.36" cy="300.65" r="8.91" style="fill:#83082A"/>
	<circle cx="3830.36" cy="300.65" r="5.67" style="fill:none;stroke:#83082A;stroke-width:6.48"/>
	<circle cx="3893.40" cy="427.41" r="8.91" style="fill:#83082A"/>
	<circle cx="3893.40" cy="427.41" r="5.67" style="fill:none;stroke:#83082A;stroke-width:6.48"/>
	<circle cx="3956.58" cy="486.94" r="8.91" style="fill:#83082A"/>
	<circle cx="3956.58" cy="486.94" r="5.67" style="fill:none;stroke:#83082A;stroke-width:6.48"/>
	<circle cx="4019.76" cy="453.33" r="8.91" style="fill:#83082A"/>
	<circle cx="4019.76" cy="453.33" r="5.67" style="fill:none;stroke:#83082A;stroke-width:6.48"/>
	<circle cx="4082.94" cy="436.59" r="8.91" style="fill:#83082A"/>
	<circle cx="4082.94" cy="436.59" r="5.67" style="fill:none;stroke:#83082A;stroke-width:6.48"/>
	<circle cx="4146.12" cy="404.06" r="8.91" style="fill:#83082A"/>
	<circle cx="4146.12" cy="404.06" r="5.67" style="fill:none;stroke:#83082A;stroke-width:6.48"/>
	<circle cx="4209.30" cy="331.69" r="8.91" style="fill:#83082A"/>
	<circle cx="4209.30" cy="331.69" r="5.67" style="fill:none;stroke:#83082A;stroke-width:6.48"/>
	<circle cx="4272.35" cy="450.77" r="8.91" style="fill:#83082A"/>
	<circle cx="4272.35" cy="450.77" r="5.67" style="fill:none;stroke:#83082A;stroke-width:6.48"/>
	<line x1="245.97" y1="2032.56" x2="245.97" y2="0.00" style="stroke:#404040;stroke-width:4.32"/>
	<line x1="245.97" y1="1985.04" x2="216.00" y2="1985.04" style="stroke:#000000;stroke-width:4.32"/>
	<text x="201.02" y="2006.05" style="font-family:'Century Gothic';font-size:59.94px;fill:#000000" text-anchor="end">-3000</text>
	<line x1="245.97" y1="1500.66" x2="216.00" y2="1500.66" style="stroke:#000000;stroke-width:4.32"/>
	<text x="201.02" y="1521.67" style="font-family:'Century Gothic';font-size:59.94px;fill:#000000" text-anchor="end">-2000</text>
	<line x1="245.97" y1="1016.28" x2="216.00" y2="1016.28" style="stroke:#000000;stroke-width:4.32"/>
	<text x="201.02" y="1037.29" style="font-family:'Century Gothic';font-size:59.94px;fill:#000000" text-anchor="end">-1000</text>
	<line x1="245.97" y1="531.90" x2="216.00" y2="531.90" style="stroke:#000000;stroke-width:4.32"/>
	<text x="201.02" y="552.91" style="font-family:'Century Gothic';font-size:59.94px;fill:#000000" text-anchor="end">0</text>
	<line x1="245.97" y1="47.52" x2="216.00" y2="47.52" style="stroke:#000000;stroke-width:4.32"/>
	<text x="201.02" y="68.53" style="font-family:'Century Gothic';font-size:59.94px;fill:#000000" text-anchor="end">1000</text>
	<line x1="245.97" y1="2032.56" x2="4320.00" y2="2032.56" style="stroke:#404040;stroke-width:4.32"/>
	<line x1="356.67" y1="2032.56" x2="356.67" y2="2062.53" style="stroke:#000000;stroke-width:4.32"/>
	<text x="356.67" y="2119.41" style="font-family:'Century Gothic';font-size:59.94px;fill:#000000" text-anchor="middle">-20</text>
	<line x1="1619.87" y1="2032.56" x2="1619.87" y2="2062.53" style="stroke:#000000;stroke-width:4.32"/>
	<text x="1619.87" y="2119.41" style="font-family:'Century Gothic';font-size:59.94px;fill:#000000" text-anchor="middle">0</text>
	<line x1="2882.93" y1="2032.56" x2="2882.93" y2="2062.53" style="stroke:#000000;stroke-width:4.32"/>
	<text x="2882.93" y="2119.41" style="font-family:'Century Gothic';font-size:59.94px;fill:#000000" text-anchor="middle">20</text>
	<line x1="4146.12" y1="2032.56" x2="4146.12" y2="2062.53" style="stroke:#000000;stroke-width:4.32"/>
	<text x="4146.12" y="2119.41" style="font-family:'Century Gothic';font-size:59.94px;fill:#000000" text-anchor="middle">40</text>
</svg>
