<?xml version="1.0" encoding="utf-8" standalone="no"?>
<!DOCTYPE svg PUBLIC "-//W3C//DTD SVG 1.1//EN"
  "http://www.w3.org/Graphics/SVG/1.1/DTD/svg11.dtd">
<svg xmlns:xlink="http://www.w3.org/1999/xlink" width="411.023622pt" height="205.511811pt" viewBox="0 0 411.023622 205.511811" xmlns="http://www.w3.org/2000/svg" version="1.1">
 <metadata>
  <rdf:RDF xmlns:dc="http://purl.org/dc/elements/1.1/" xmlns:cc="http://creativecommons.org/ns#" xmlns:rdf="http://www.w3.org/1999/02/22-rdf-syntax-ns#">
   <cc:Work>
    <dc:type rdf:resource="http://purl.org/dc/dcmitype/StillImage"/>
    <dc:date>2026-06-05T10:18:07.722872</dc:date>
    <dc:format>image/svg+xml</dc:format>
    <dc:creator>
     <cc:Agent>
      <dc:title>Matplotlib v3.10.8, https://matplotlib.org/</dc:title>
     </cc:Agent>
    </dc:creator>
   </cc:Work>
  </rdf:RDF>
 </metadata>
 <defs>
  <style type="text/css">*{stroke-linejoin: round; stroke-linecap: butt}</style>
 </defs>
 <g id="figure_1">
  <g id="patch_1">
   <path d="M 0 205.511811 
L 411.023622 205.511811 
L 411.023622 0 
L 0 0 
z
" style="fill: #ffffff"/>
  </g>
  <g id="axes_1">
   <g id="patch_2">
    <path d="M 53.7 169.451811 
L 401.303622 169.451811 
L 401.303622 11.133779 
L 53.7 11.133779 
z
" style="fill: #ffffff"/>
   </g>
   <g id="FillBetweenPolyCollection_1">
    <defs>
     <path id="m2c12094f24" d="M 69.500165 -130.366015 
L 69.500165 -76.094175 
L 74.596992 -86.194601 
L 79.693819 -82.406693 
L 84.790647 -86.85174 
L 89.887474 -74.762114 
L 94.984301 -72.136084 
L 100.081128 -76.458408 
L 105.177956 -90.208098 
L 110.274783 -71.43925 
L 115.37161 -68.807922 
L 120.468438 -43.256274 
L 125.565265 -61.507304 
L 130.662092 -66.677495 
L 135.75892 -96.730756 
L 140.855747 -96.154737 
L 145.952574 -101.46795 
L 151.049401 -90.446808 
L 156.146229 -93.638905 
L 161.243056 -103.162532 
L 166.339883 -115.007373 
L 171.436711 -103.011309 
L 176.533538 -106.392181 
L 181.630365 -103.040411 
L 186.727193 -113.442733 
L 191.82402 -112.175168 
L 196.920847 -131.733055 
L 202.017675 -117.259188 
L 207.114502 -125.083202 
L 212.211329 -111.321279 
L 217.308156 -117.188015 
L 222.404984 -119.133115 
L 227.501811 -127.015787 
L 232.598638 -119.760498 
L 237.695466 -118.140386 
L 242.792293 -110.492565 
L 247.88912 -119.94072 
L 252.985948 -118.710131 
L 258.082775 -129.415012 
L 263.179602 -130.967457 
L 268.276429 -121.603417 
L 273.373257 -118.034542 
L 278.470084 -123.080507 
L 283.566911 -116.566196 
L 288.663739 -132.909918 
L 293.760566 -121.619547 
L 298.857393 -111.077751 
L 303.954221 -111.45312 
L 309.051048 -115.694154 
L 314.147875 -117.168615 
L 319.244702 -130.351289 
L 324.34153 -131.750895 
L 329.438357 -130.033202 
L 334.535184 -119.12887 
L 339.632012 -114.585962 
L 344.728839 -107.422173 
L 349.825666 -130.82525 
L 354.922494 -113.098936 
L 360.019321 -111.051021 
L 365.116148 -113.737735 
L 370.212976 -113.13158 
L 375.309803 -117.760042 
L 380.40663 -125.886919 
L 385.503457 -116.446651 
L 385.503457 -170.71849 
L 385.503457 -170.71849 
L 380.40663 -180.158758 
L 375.309803 -172.031882 
L 370.212976 -167.40342 
L 365.116148 -168.009575 
L 360.019321 -165.322861 
L 354.922494 -167.370775 
L 349.825666 -185.09709 
L 344.728839 -161.694012 
L 339.632012 -168.857802 
L 334.535184 -173.400709 
L 329.438357 -184.305042 
L 324.34153 -186.022734 
L 319.244702 -184.623129 
L 314.147875 -171.440455 
L 309.051048 -169.965994 
L 303.954221 -165.724959 
L 298.857393 -165.349591 
L 293.760566 -175.891387 
L 288.663739 -187.181757 
L 283.566911 -170.838035 
L 278.470084 -177.352346 
L 273.373257 -172.306382 
L 268.276429 -175.875256 
L 263.179602 -185.239296 
L 258.082775 -183.686852 
L 252.985948 -172.98197 
L 247.88912 -174.21256 
L 242.792293 -164.764405 
L 237.695466 -172.412225 
L 232.598638 -174.032338 
L 227.501811 -181.287626 
L 222.404984 -173.404954 
L 217.308156 -171.459854 
L 212.211329 -165.593119 
L 207.114502 -179.355041 
L 202.017675 -171.531027 
L 196.920847 -186.004894 
L 191.82402 -166.447007 
L 186.727193 -167.714572 
L 181.630365 -157.31225 
L 176.533538 -160.66402 
L 171.436711 -157.283148 
L 166.339883 -169.279213 
L 161.243056 -157.434371 
L 156.146229 -147.910744 
L 151.049401 -144.718648 
L 145.952574 -155.73979 
L 140.855747 -150.426576 
L 135.75892 -151.002596 
L 130.662092 -120.949335 
L 125.565265 -115.779144 
L 120.468438 -97.528114 
L 115.37161 -123.079762 
L 110.274783 -125.71109 
L 105.177956 -144.479938 
L 100.081128 -130.730248 
L 94.984301 -126.407924 
L 89.887474 -129.033954 
L 84.790647 -141.12358 
L 79.693819 -136.678532 
L 74.596992 -140.466441 
L 69.500165 -130.366015 
z
"/>
    </defs>
    <g clip-path="url(#pba71ef6702)">
     <use xlink:href="#m2c12094f24" x="0" y="205.511811" style="fill: #e397a0; fill-opacity: 0.55"/>
    </g>
   </g>
   <g id="matplotlib.axis_1">
    <g id="xtick_1">
     <g id="line2d_1">
      <defs>
       <path id="m01d85a09cc" d="M 0 0 
L 0 3 
" style="stroke: #404040"/>
      </defs>
      <g>
       <use xlink:href="#m01d85a09cc" x="69.500165" y="169.451811" style="fill: #404040; stroke: #404040"/>
      </g>
     </g>
     <g id="text_1">
      <!-- −20 -->
      <g style="fill: #404040" transform="translate(61.759462 182.579467) scale(0.09 -0.09)">
       <defs>
        <path id="CenturyGothic-Bold-2212" d="M 359 2688 
L 3481 2688 
L 3481 1906 
L 359 1906 
L 359 2688 
z
" transform="scale(0.015625)"/>
        <path id="CenturyGothic-Bold-32" d="M 1116 3116 
L 263 3116 
Q 297 3859 730 4286 
Q 1163 4713 1841 4713 
Q 2259 4713 2579 4536 
Q 2900 4359 3092 4026 
Q 3284 3694 3284 3350 
Q 3284 2941 3051 2469 
Q 2819 1997 2200 1353 
L 1684 809 
L 3322 809 
L 3322 0 
L 138 0 
L 138 419 
L 1559 1869 
Q 2075 2391 2245 2708 
Q 2416 3025 2416 3281 
Q 2416 3547 2239 3720 
Q 2063 3894 1784 3894 
Q 1503 3894 1315 3684 
Q 1128 3475 1116 3116 
z
" transform="scale(0.015625)"/>
        <path id="CenturyGothic-Bold-30" d="M 1778 4713 
Q 2281 4713 2645 4466 
Q 3009 4219 3207 3711 
Q 3406 3203 3406 2297 
Q 3406 1381 3204 872 
Q 3003 363 2662 123 
Q 2322 -116 1803 -116 
Q 1284 -116 931 125 
Q 578 366 378 856 
Q 178 1347 178 2253 
Q 178 3519 569 4088 
Q 1003 4713 1778 4713 
z
M 1800 3881 
Q 1578 3881 1406 3739 
Q 1234 3597 1143 3250 
Q 1053 2903 1053 2234 
Q 1053 1363 1261 1030 
Q 1469 697 1800 697 
Q 2119 697 2306 1013 
Q 2534 1394 2534 2288 
Q 2534 3194 2329 3537 
Q 2125 3881 1800 3881 
z
" transform="scale(0.015625)"/>
       </defs>
       <use xlink:href="#CenturyGothic-Bold-2212"/>
       <use xlink:href="#CenturyGothic-Bold-32" transform="translate(60.009766 0)"/>
       <use xlink:href="#CenturyGothic-Bold-30" transform="translate(116.015625 0)"/>
      </g>
     </g>
    </g>
    <g id="xtick_2">
     <g id="line2d_2">
      <g>
       <use xlink:href="#m01d85a09cc" x="120.468438" y="169.451811" style="fill: #404040; stroke: #404040"/>
      </g>
     </g>
     <g id="text_2">
      <!-- −10 -->
      <g style="fill: #404040" transform="translate(112.727735 182.579467) scale(0.09 -0.09)">
       <defs>
        <path id="CenturyGothic-Bold-31" d="M 1053 4597 
L 2363 4597 
L 2363 0 
L 1494 0 
L 1494 3775 
L 547 3775 
L 1053 4597 
z
" transform="scale(0.015625)"/>
       </defs>
       <use xlink:href="#CenturyGothic-Bold-2212"/>
       <use xlink:href="#CenturyGothic-Bold-31" transform="translate(60.009766 0)"/>
       <use xlink:href="#CenturyGothic-Bold-30" transform="translate(116.015625 0)"/>
      </g>
     </g>
    </g>
    <g id="xtick_3">
     <g id="line2d_3">
      <g>
       <use xlink:href="#m01d85a09cc" x="171.436711" y="169.451811" style="fill: #404040; stroke: #404040"/>
      </g>
     </g>
     <g id="text_3">
      <!-- 0 -->
      <g style="fill: #404040" transform="translate(168.916711 182.579467) scale(0.09 -0.09)">
       <use xlink:href="#CenturyGothic-Bold-30"/>
      </g>
     </g>
    </g>
    <g id="xtick_4">
     <g id="line2d_4">
      <g>
       <use xlink:href="#m01d85a09cc" x="222.404984" y="169.451811" style="fill: #404040; stroke: #404040"/>
      </g>
     </g>
     <g id="text_4">
      <!-- 10 -->
      <g style="fill: #404040" transform="translate(217.364984 182.579467) scale(0.09 -0.09)">
       <use xlink:href="#CenturyGothic-Bold-31"/>
       <use xlink:href="#CenturyGothic-Bold-30" transform="translate(56.005859 0)"/>
      </g>
     </g>
    </g>
    <g id="xtick_5">
     <g id="line2d_5">
      <g>
       <use xlink:href="#m01d85a09cc" x="273.373257" y="169.451811" style="fill: #404040; stroke: #404040"/>
      </g>
     </g>
     <g id="text_5">
      <!-- 20 -->
      <g style="fill: #404040" transform="translate(268.333257 182.579467) scale(0.09 -0.09)">
       <use xlink:href="#CenturyGothic-Bold-32"/>
       <use xlink:href="#CenturyGothic-Bold-30" transform="translate(56.005859 0)"/>
      </g>
     </g>
    </g>
    <g id="xtick_6">
     <g id="line2d_6">
      <g>
       <use xlink:href="#m01d85a09cc" x="324.34153" y="169.451811" style="fill: #404040; stroke: #404040"/>
      </g>
     </g>
     <g id="text_6">
      <!-- 30 -->
      <g style="fill: #404040" transform="translate(319.30153 182.579467) scale(0.09 -0.09)">
       <defs>
        <path id="CenturyGothic-Bold-33" d="M 1216 3463 
L 375 3463 
Q 441 3972 741 4281 
Q 1159 4713 1794 4713 
Q 2359 4713 2742 4353 
Q 3125 3994 3125 3500 
Q 3125 3194 2958 2941 
Q 2791 2688 2472 2531 
Q 2891 2406 3127 2095 
Q 3363 1784 3363 1363 
Q 3363 744 2906 314 
Q 2450 -116 1744 -116 
Q 1075 -116 653 289 
Q 231 694 191 1391 
L 1056 1391 
Q 1113 1034 1305 861 
Q 1497 688 1791 688 
Q 2097 688 2298 884 
Q 2500 1081 2500 1366 
Q 2500 1678 2228 1893 
Q 1956 2109 1444 2116 
L 1444 2866 
Q 1759 2891 1914 2964 
Q 2069 3038 2155 3166 
Q 2241 3294 2241 3438 
Q 2241 3625 2109 3748 
Q 1978 3872 1766 3872 
Q 1578 3872 1425 3758 
Q 1272 3644 1216 3463 
z
" transform="scale(0.015625)"/>
       </defs>
       <use xlink:href="#CenturyGothic-Bold-33"/>
       <use xlink:href="#CenturyGothic-Bold-30" transform="translate(56.005859 0)"/>
      </g>
     </g>
    </g>
    <g id="xtick_7">
     <g id="line2d_7">
      <g>
       <use xlink:href="#m01d85a09cc" x="375.309803" y="169.451811" style="fill: #404040; stroke: #404040"/>
      </g>
     </g>
     <g id="text_7">
      <!-- 40 -->
      <g style="fill: #404040" transform="translate(370.269803 182.579467) scale(0.09 -0.09)">
       <defs>
        <path id="CenturyGothic-Bold-34" d="M 2119 4713 
L 2994 4713 
L 2994 1753 
L 3403 1753 
L 3403 944 
L 2994 944 
L 2994 0 
L 2138 0 
L 2138 944 
L 131 944 
L 131 1753 
L 2119 4713 
z
M 2138 1753 
L 2138 3294 
L 1088 1753 
L 2138 1753 
z
" transform="scale(0.015625)"/>
       </defs>
       <use xlink:href="#CenturyGothic-Bold-34"/>
       <use xlink:href="#CenturyGothic-Bold-30" transform="translate(56.005859 0)"/>
      </g>
     </g>
    </g>
    <g id="text_8">
     <!-- Months relative to 2022-09 (baseline = -1) -->
     <g transform="translate(138.834936 195.078842) scale(0.09 -0.09)">
      <defs>
       <path id="CenturyGothic-4d" d="M 350 0 
L 1003 4597 
L 1078 4597 
L 2947 825 
L 4797 4597 
L 4872 4597 
L 5531 0 
L 5078 0 
L 4628 3288 
L 3003 0 
L 2888 0 
L 1241 3313 
L 794 0 
L 350 0 
z
" transform="scale(0.015625)"/>
       <path id="CenturyGothic-6f" d="M 2097 3488 
Q 2881 3488 3397 2919 
Q 3866 2400 3866 1691 
Q 3866 978 3370 445 
Q 2875 -88 2097 -88 
Q 1316 -88 820 445 
Q 325 978 325 1691 
Q 325 2397 794 2916 
Q 1309 3488 2097 3488 
z
M 2097 3059 
Q 1553 3059 1162 2656 
Q 772 2253 772 1681 
Q 772 1313 950 994 
Q 1128 675 1431 501 
Q 1734 328 2097 328 
Q 2459 328 2762 501 
Q 3066 675 3244 994 
Q 3422 1313 3422 1681 
Q 3422 2253 3030 2656 
Q 2638 3059 2097 3059 
z
" transform="scale(0.015625)"/>
       <path id="CenturyGothic-6e" d="M 488 3400 
L 925 3400 
L 925 2791 
Q 1188 3141 1506 3314 
Q 1825 3488 2200 3488 
Q 2581 3488 2876 3294 
Q 3172 3100 3312 2772 
Q 3453 2444 3453 1750 
L 3453 0 
L 3019 0 
L 3019 1622 
Q 3019 2209 2969 2406 
Q 2891 2744 2675 2914 
Q 2459 3084 2113 3084 
Q 1716 3084 1402 2821 
Q 1088 2559 988 2172 
Q 925 1919 925 1247 
L 925 0 
L 488 0 
L 488 3400 
z
" transform="scale(0.015625)"/>
       <path id="CenturyGothic-74" d="M 869 4663 
L 1309 4663 
L 1309 3400 
L 2003 3400 
L 2003 3025 
L 1309 3025 
L 1309 0 
L 869 0 
L 869 3025 
L 272 3025 
L 272 3400 
L 869 3400 
L 869 4663 
z
" transform="scale(0.015625)"/>
       <path id="CenturyGothic-68" d="M 488 4713 
L 925 4713 
L 925 2791 
Q 1191 3141 1509 3314 
Q 1828 3488 2200 3488 
Q 2581 3488 2876 3294 
Q 3172 3100 3312 2773 
Q 3453 2447 3453 1750 
L 3453 0 
L 3016 0 
L 3016 1622 
Q 3016 2209 2969 2406 
Q 2888 2744 2673 2914 
Q 2459 3084 2113 3084 
Q 1716 3084 1402 2821 
Q 1088 2559 988 2172 
Q 925 1922 925 1247 
L 925 0 
L 488 0 
L 488 4713 
z
" transform="scale(0.015625)"/>
       <path id="CenturyGothic-73" d="M 2197 3028 
L 1916 2738 
Q 1566 3078 1231 3078 
Q 1019 3078 867 2937 
Q 716 2797 716 2609 
Q 716 2444 841 2294 
Q 966 2141 1366 1934 
Q 1853 1681 2028 1447 
Q 2200 1209 2200 913 
Q 2200 494 1906 203 
Q 1613 -88 1172 -88 
Q 878 -88 611 40 
Q 344 169 169 394 
L 444 706 
Q 778 328 1153 328 
Q 1416 328 1600 497 
Q 1784 666 1784 894 
Q 1784 1081 1663 1228 
Q 1541 1372 1113 1591 
Q 653 1828 488 2059 
Q 322 2291 322 2588 
Q 322 2975 586 3231 
Q 850 3488 1253 3488 
Q 1722 3488 2197 3028 
z
" transform="scale(0.015625)"/>
       <path id="CenturyGothic-20" transform="scale(0.015625)"/>
       <path id="CenturyGothic-72" d="M 322 3400 
L 769 3400 
L 769 2903 
Q 969 3197 1191 3342 
Q 1413 3488 1653 3488 
Q 1834 3488 2041 3372 
L 1813 3003 
Q 1675 3063 1581 3063 
Q 1363 3063 1159 2883 
Q 956 2703 850 2325 
Q 769 2034 769 1150 
L 769 0 
L 322 0 
L 322 3400 
z
" transform="scale(0.015625)"/>
       <path id="CenturyGothic-65" d="M 3350 1128 
L 3719 934 
Q 3538 578 3300 359 
Q 3063 141 2766 26 
Q 2469 -88 2094 -88 
Q 1263 -88 794 457 
Q 325 1003 325 1691 
Q 325 2338 722 2844 
Q 1225 3488 2069 3488 
Q 2938 3488 3456 2828 
Q 3825 2363 3831 1666 
L 775 1666 
Q 788 1072 1153 692 
Q 1519 313 2056 313 
Q 2316 313 2561 403 
Q 2806 494 2978 644 
Q 3150 794 3350 1128 
z
M 3350 2044 
Q 3263 2394 3095 2603 
Q 2928 2813 2653 2941 
Q 2378 3069 2075 3069 
Q 1575 3069 1216 2747 
Q 953 2513 819 2044 
L 3350 2044 
z
" transform="scale(0.015625)"/>
       <path id="CenturyGothic-6c" d="M 422 4713 
L 859 4713 
L 859 0 
L 422 0 
L 422 4713 
z
" transform="scale(0.015625)"/>
       <path id="CenturyGothic-61" d="M 3875 3400 
L 3875 0 
L 3444 0 
L 3444 584 
Q 3169 250 2826 81 
Q 2484 -88 2078 -88 
Q 1356 -88 845 435 
Q 334 959 334 1709 
Q 334 2444 850 2966 
Q 1366 3488 2091 3488 
Q 2509 3488 2848 3309 
Q 3188 3131 3444 2775 
L 3444 3400 
L 3875 3400 
z
M 2125 3066 
Q 1759 3066 1450 2886 
Q 1141 2706 958 2381 
Q 775 2056 775 1694 
Q 775 1334 959 1006 
Q 1144 678 1455 495 
Q 1766 313 2122 313 
Q 2481 313 2803 494 
Q 3125 675 3298 984 
Q 3472 1294 3472 1681 
Q 3472 2272 3083 2669 
Q 2694 3066 2125 3066 
z
" transform="scale(0.015625)"/>
       <path id="CenturyGothic-69" d="M 641 4800 
Q 791 4800 897 4694 
Q 1003 4588 1003 4438 
Q 1003 4291 897 4184 
Q 791 4078 641 4078 
Q 494 4078 387 4184 
Q 281 4291 281 4438 
Q 281 4588 387 4694 
Q 494 4800 641 4800 
z
M 422 3400 
L 863 3400 
L 863 0 
L 422 0 
L 422 3400 
z
" transform="scale(0.015625)"/>
       <path id="CenturyGothic-76" d="M 166 3400 
L 631 3400 
L 1769 925 
L 2897 3400 
L 3366 3400 
L 1809 0 
L 1731 0 
L 166 3400 
z
" transform="scale(0.015625)"/>
       <path id="CenturyGothic-32" d="M 741 3156 
L 300 3156 
Q 319 3838 755 4275 
Q 1191 4713 1831 4713 
Q 2466 4713 2858 4303 
Q 3250 3894 3250 3338 
Q 3250 2947 3062 2605 
Q 2875 2263 2334 1678 
L 1191 444 
L 3313 444 
L 3313 0 
L 191 0 
L 1947 1897 
Q 2481 2469 2642 2745 
Q 2803 3022 2803 3328 
Q 2803 3716 2514 3995 
Q 2225 4275 1806 4275 
Q 1366 4275 1073 3981 
Q 781 3688 741 3156 
z
" transform="scale(0.015625)"/>
       <path id="CenturyGothic-30" d="M 203 2297 
Q 203 3206 398 3703 
Q 594 4200 950 4456 
Q 1306 4713 1747 4713 
Q 2194 4713 2556 4455 
Q 2919 4197 3130 3681 
Q 3341 3166 3341 2297 
Q 3341 1431 3133 918 
Q 2925 406 2559 145 
Q 2194 -116 1747 -116 
Q 1306 -116 953 137 
Q 600 391 401 892 
Q 203 1394 203 2297 
z
M 638 2288 
Q 638 1509 777 1111 
Q 916 713 1187 506 
Q 1459 300 1763 300 
Q 2069 300 2334 501 
Q 2600 703 2738 1106 
Q 2909 1597 2909 2288 
Q 2909 2981 2756 3423 
Q 2603 3866 2333 4070 
Q 2063 4275 1763 4275 
Q 1456 4275 1187 4070 
Q 919 3866 778 3467 
Q 638 3069 638 2288 
z
" transform="scale(0.015625)"/>
       <path id="CenturyGothic-2d" d="M 203 1919 
L 1922 1919 
L 1922 1538 
L 203 1538 
L 203 1919 
z
" transform="scale(0.015625)"/>
       <path id="CenturyGothic-39" d="M 1228 -116 
L 850 128 
L 2091 2009 
Q 1841 1928 1622 1928 
Q 1075 1928 694 2323 
Q 313 2719 313 3297 
Q 313 3694 497 4012 
Q 681 4331 1020 4522 
Q 1359 4713 1747 4713 
Q 2128 4713 2451 4528 
Q 2775 4344 2959 4012 
Q 3144 3681 3144 3306 
Q 3144 3022 3030 2711 
Q 2916 2400 2622 1963 
L 1228 -116 
z
M 1728 2331 
Q 2131 2331 2414 2614 
Q 2697 2897 2697 3297 
Q 2697 3697 2414 3980 
Q 2131 4263 1728 4263 
Q 1328 4263 1045 3980 
Q 763 3697 763 3297 
Q 763 2897 1045 2614 
Q 1328 2331 1728 2331 
z
" transform="scale(0.015625)"/>
       <path id="CenturyGothic-28" d="M 1469 4800 
L 1975 4800 
Q 1669 4172 1484 3334 
Q 1300 2497 1300 1606 
Q 1300 781 1439 15 
Q 1578 -750 1822 -1331 
L 1341 -1331 
Q 1109 -775 971 -22 
Q 834 731 834 1547 
Q 834 2425 996 3258 
Q 1159 4091 1469 4800 
z
" transform="scale(0.015625)"/>
       <path id="CenturyGothic-62" d="M 516 0 
L 516 4713 
L 950 4713 
L 950 2816 
Q 1225 3153 1565 3320 
Q 1906 3488 2313 3488 
Q 3034 3488 3545 2964 
Q 4056 2441 4056 1694 
Q 4056 956 3540 434 
Q 3025 -88 2300 -88 
Q 1884 -88 1546 90 
Q 1209 269 950 625 
L 950 0 
L 516 0 
z
M 2266 334 
Q 2631 334 2940 514 
Q 3250 694 3433 1019 
Q 3616 1344 3616 1706 
Q 3616 2069 3431 2397 
Q 3247 2725 2936 2908 
Q 2625 3091 2272 3091 
Q 1913 3091 1589 2908 
Q 1266 2725 1092 2415 
Q 919 2106 919 1719 
Q 919 1128 1308 731 
Q 1697 334 2266 334 
z
" transform="scale(0.015625)"/>
       <path id="CenturyGothic-3d" d="M 3522 3200 
L 3522 2772 
L 359 2772 
L 359 3200 
L 3522 3200 
z
M 3522 1825 
L 3522 1397 
L 359 1397 
L 359 1825 
L 3522 1825 
z
" transform="scale(0.015625)"/>
       <path id="CenturyGothic-31" d="M 1184 4597 
L 2088 4597 
L 2088 0 
L 1631 0 
L 1631 4147 
L 909 4147 
L 1184 4597 
z
" transform="scale(0.015625)"/>
       <path id="CenturyGothic-29" d="M 894 -1331 
L 388 -1331 
Q 697 -703 880 134 
Q 1063 972 1063 1863 
Q 1063 2688 923 3453 
Q 784 4219 541 4800 
L 1022 4800 
Q 1256 4244 1392 3489 
Q 1528 2734 1528 1919 
Q 1528 1044 1365 211 
Q 1203 -622 894 -1331 
z
" transform="scale(0.015625)"/>
      </defs>
      <use xlink:href="#CenturyGothic-4d"/>
      <use xlink:href="#CenturyGothic-6f" transform="translate(91.894531 0)"/>
      <use xlink:href="#CenturyGothic-6e" transform="translate(157.373047 0)"/>
      <use xlink:href="#CenturyGothic-74" transform="translate(218.359375 0)"/>
      <use xlink:href="#CenturyGothic-68" transform="translate(252.246094 0)"/>
      <use xlink:href="#CenturyGothic-73" transform="translate(313.232422 0)"/>
      <use xlink:href="#CenturyGothic-20" transform="translate(352.050781 0)"/>
      <use xlink:href="#CenturyGothic-72" transform="translate(379.736328 0)"/>
      <use xlink:href="#CenturyGothic-65" transform="translate(409.814453 0)"/>
      <use xlink:href="#CenturyGothic-6c" transform="translate(474.804688 0)"/>
      <use xlink:href="#CenturyGothic-61" transform="translate(494.824219 0)"/>
      <use xlink:href="#CenturyGothic-74" transform="translate(563.134766 0)"/>
      <use xlink:href="#CenturyGothic-69" transform="translate(597.021484 0)"/>
      <use xlink:href="#CenturyGothic-76" transform="translate(617.041016 0)"/>
      <use xlink:href="#CenturyGothic-65" transform="translate(672.460938 0)"/>
      <use xlink:href="#CenturyGothic-20" transform="translate(737.451172 0)"/>
      <use xlink:href="#CenturyGothic-74" transform="translate(765.136719 0)"/>
      <use xlink:href="#CenturyGothic-6f" transform="translate(799.023438 0)"/>
      <use xlink:href="#CenturyGothic-20" transform="translate(864.501953 0)"/>
      <use xlink:href="#CenturyGothic-32" transform="translate(892.1875 0)"/>
      <use xlink:href="#CenturyGothic-30" transform="translate(947.607422 0)"/>
      <use xlink:href="#CenturyGothic-32" transform="translate(1003.027344 0)"/>
      <use xlink:href="#CenturyGothic-32" transform="translate(1058.447266 0)"/>
      <use xlink:href="#CenturyGothic-2d" transform="translate(1113.867188 0)"/>
      <use xlink:href="#CenturyGothic-30" transform="translate(1147.070312 0)"/>
      <use xlink:href="#CenturyGothic-39" transform="translate(1202.490234 0)"/>
      <use xlink:href="#CenturyGothic-20" transform="translate(1257.910156 0)"/>
      <use xlink:href="#CenturyGothic-28" transform="translate(1285.595703 0)"/>
      <use xlink:href="#CenturyGothic-62" transform="translate(1322.509766 0)"/>
      <use xlink:href="#CenturyGothic-61" transform="translate(1390.722656 0)"/>
      <use xlink:href="#CenturyGothic-73" transform="translate(1459.033203 0)"/>
      <use xlink:href="#CenturyGothic-65" transform="translate(1497.851562 0)"/>
      <use xlink:href="#CenturyGothic-6c" transform="translate(1562.841797 0)"/>
      <use xlink:href="#CenturyGothic-69" transform="translate(1582.861328 0)"/>
      <use xlink:href="#CenturyGothic-6e" transform="translate(1602.880859 0)"/>
      <use xlink:href="#CenturyGothic-65" transform="translate(1663.867188 0)"/>
      <use xlink:href="#CenturyGothic-20" transform="translate(1728.857422 0)"/>
      <use xlink:href="#CenturyGothic-3d" transform="translate(1756.542969 0)"/>
      <use xlink:href="#CenturyGothic-20" transform="translate(1817.138672 0)"/>
      <use xlink:href="#CenturyGothic-2d" transform="translate(1844.824219 0)"/>
      <use xlink:href="#CenturyGothic-31" transform="translate(1878.027344 0)"/>
      <use xlink:href="#CenturyGothic-29" transform="translate(1933.447266 0)"/>
     </g>
    </g>
   </g>
   <g id="matplotlib.axis_2">
    <g id="ytick_1">
     <g id="line2d_8">
      <path d="M 53.7 164.183848 
L 401.303622 164.183848 
" clip-path="url(#pba71ef6702)" style="fill: none; stroke: #cccccc; stroke-linecap: square"/>
     </g>
     <g id="line2d_9">
      <defs>
       <path id="m63c8393584" d="M 0 0 
L -3 0 
" style="stroke: #404040"/>
      </defs>
      <g>
       <use xlink:href="#m63c8393584" x="53.7" y="164.183848" style="fill: #404040; stroke: #404040"/>
      </g>
     </g>
     <g id="text_9">
      <!-- −4000 -->
      <g style="fill: #404040" transform="translate(21.638594 167.497676) scale(0.09 -0.09)">
       <use xlink:href="#CenturyGothic-Bold-2212"/>
       <use xlink:href="#CenturyGothic-Bold-34" transform="translate(60.009766 0)"/>
       <use xlink:href="#CenturyGothic-Bold-30" transform="translate(116.015625 0)"/>
       <use xlink:href="#CenturyGothic-Bold-30" transform="translate(172.021484 0)"/>
       <use xlink:href="#CenturyGothic-Bold-30" transform="translate(228.027344 0)"/>
      </g>
     </g>
    </g>
    <g id="ytick_2">
     <g id="line2d_10">
      <path d="M 53.7 138.980015 
L 401.303622 138.980015 
" clip-path="url(#pba71ef6702)" style="fill: none; stroke: #cccccc; stroke-linecap: square"/>
     </g>
     <g id="line2d_11">
      <g>
       <use xlink:href="#m63c8393584" x="53.7" y="138.980015" style="fill: #404040; stroke: #404040"/>
      </g>
     </g>
     <g id="text_10">
      <!-- −3000 -->
      <g style="fill: #404040" transform="translate(21.638594 142.293843) scale(0.09 -0.09)">
       <use xlink:href="#CenturyGothic-Bold-2212"/>
       <use xlink:href="#CenturyGothic-Bold-33" transform="translate(60.009766 0)"/>
       <use xlink:href="#CenturyGothic-Bold-30" transform="translate(116.015625 0)"/>
       <use xlink:href="#CenturyGothic-Bold-30" transform="translate(172.021484 0)"/>
       <use xlink:href="#CenturyGothic-Bold-30" transform="translate(228.027344 0)"/>
      </g>
     </g>
    </g>
    <g id="ytick_3">
     <g id="line2d_12">
      <path d="M 53.7 113.776183 
L 401.303622 113.776183 
" clip-path="url(#pba71ef6702)" style="fill: none; stroke: #cccccc; stroke-linecap: square"/>
     </g>
     <g id="line2d_13">
      <g>
       <use xlink:href="#m63c8393584" x="53.7" y="113.776183" style="fill: #404040; stroke: #404040"/>
      </g>
     </g>
     <g id="text_11">
      <!-- −2000 -->
      <g style="fill: #404040" transform="translate(21.638594 117.090011) scale(0.09 -0.09)">
       <use xlink:href="#CenturyGothic-Bold-2212"/>
       <use xlink:href="#CenturyGothic-Bold-32" transform="translate(60.009766 0)"/>
       <use xlink:href="#CenturyGothic-Bold-30" transform="translate(116.015625 0)"/>
       <use xlink:href="#CenturyGothic-Bold-30" transform="translate(172.021484 0)"/>
       <use xlink:href="#CenturyGothic-Bold-30" transform="translate(228.027344 0)"/>
      </g>
     </g>
    </g>
    <g id="ytick_4">
     <g id="line2d_14">
      <path d="M 53.7 88.57235 
L 401.303622 88.57235 
" clip-path="url(#pba71ef6702)" style="fill: none; stroke: #cccccc; stroke-linecap: square"/>
     </g>
     <g id="line2d_15">
      <g>
       <use xlink:href="#m63c8393584" x="53.7" y="88.57235" style="fill: #404040; stroke: #404040"/>
      </g>
     </g>
     <g id="text_12">
      <!-- −1000 -->
      <g style="fill: #404040" transform="translate(21.638594 91.886179) scale(0.09 -0.09)">
       <use xlink:href="#CenturyGothic-Bold-2212"/>
       <use xlink:href="#CenturyGothic-Bold-31" transform="translate(60.009766 0)"/>
       <use xlink:href="#CenturyGothic-Bold-30" transform="translate(116.015625 0)"/>
       <use xlink:href="#CenturyGothic-Bold-30" transform="translate(172.021484 0)"/>
       <use xlink:href="#CenturyGothic-Bold-30" transform="translate(228.027344 0)"/>
      </g>
     </g>
    </g>
    <g id="ytick_5">
     <g id="line2d_16">
      <path d="M 53.7 63.368518 
L 401.303622 63.368518 
" clip-path="url(#pba71ef6702)" style="fill: none; stroke: #cccccc; stroke-linecap: square"/>
     </g>
     <g id="line2d_17">
      <g>
       <use xlink:href="#m63c8393584" x="53.7" y="63.368518" style="fill: #404040; stroke: #404040"/>
      </g>
     </g>
     <g id="text_13">
      <!-- 0 -->
      <g style="fill: #404040" transform="translate(42.16 66.682346) scale(0.09 -0.09)">
       <use xlink:href="#CenturyGothic-Bold-30"/>
      </g>
     </g>
    </g>
    <g id="ytick_6">
     <g id="line2d_18">
      <path d="M 53.7 38.164686 
L 401.303622 38.164686 
" clip-path="url(#pba71ef6702)" style="fill: none; stroke: #cccccc; stroke-linecap: square"/>
     </g>
     <g id="line2d_19">
      <g>
       <use xlink:href="#m63c8393584" x="53.7" y="38.164686" style="fill: #404040; stroke: #404040"/>
      </g>
     </g>
     <g id="text_14">
      <!-- 1000 -->
      <g style="fill: #404040" transform="translate(27.04 41.478514) scale(0.09 -0.09)">
       <use xlink:href="#CenturyGothic-Bold-31"/>
       <use xlink:href="#CenturyGothic-Bold-30" transform="translate(56.005859 0)"/>
       <use xlink:href="#CenturyGothic-Bold-30" transform="translate(112.011719 0)"/>
       <use xlink:href="#CenturyGothic-Bold-30" transform="translate(168.017578 0)"/>
      </g>
     </g>
    </g>
    <g id="ytick_7">
     <g id="line2d_20">
      <path d="M 53.7 12.960853 
L 401.303622 12.960853 
" clip-path="url(#pba71ef6702)" style="fill: none; stroke: #cccccc; stroke-linecap: square"/>
     </g>
     <g id="line2d_21">
      <g>
       <use xlink:href="#m63c8393584" x="53.7" y="12.960853" style="fill: #404040; stroke: #404040"/>
      </g>
     </g>
     <g id="text_15">
      <!-- 2000 -->
      <g style="fill: #404040" transform="translate(27.04 16.274681) scale(0.09 -0.09)">
       <use xlink:href="#CenturyGothic-Bold-32"/>
       <use xlink:href="#CenturyGothic-Bold-30" transform="translate(56.005859 0)"/>
       <use xlink:href="#CenturyGothic-Bold-30" transform="translate(112.011719 0)"/>
       <use xlink:href="#CenturyGothic-Bold-30" transform="translate(168.017578 0)"/>
      </g>
     </g>
    </g>
    <g id="text_16">
     <!-- SDID gap on contracts -->
     <g transform="translate(15.766875 139.588889) rotate(-90) scale(0.09 -0.09)">
      <defs>
       <path id="CenturyGothic-53" d="M 84 856 
L 475 1091 
Q 888 331 1428 331 
Q 1659 331 1862 439 
Q 2066 547 2172 728 
Q 2278 909 2278 1113 
Q 2278 1344 2122 1566 
Q 1906 1872 1334 2303 
Q 759 2738 619 2931 
Q 375 3256 375 3634 
Q 375 3934 519 4181 
Q 663 4428 923 4570 
Q 1184 4713 1491 4713 
Q 1816 4713 2098 4552 
Q 2381 4391 2697 3959 
L 2322 3675 
Q 2063 4019 1880 4128 
Q 1697 4238 1481 4238 
Q 1203 4238 1026 4069 
Q 850 3900 850 3653 
Q 850 3503 912 3362 
Q 975 3222 1141 3056 
Q 1231 2969 1734 2597 
Q 2331 2156 2553 1812 
Q 2775 1469 2775 1122 
Q 2775 622 2395 253 
Q 2016 -116 1472 -116 
Q 1053 -116 712 107 
Q 372 331 84 856 
z
" transform="scale(0.015625)"/>
       <path id="CenturyGothic-44" d="M 559 0 
L 559 4597 
L 1513 4597 
Q 2544 4597 3009 4431 
Q 3678 4197 4054 3619 
Q 4431 3041 4431 2241 
Q 4431 1550 4132 1025 
Q 3834 500 3357 250 
Q 2881 0 2022 0 
L 559 0 
z
M 1000 434 
L 1531 434 
Q 2484 434 2853 553 
Q 3372 722 3669 1161 
Q 3966 1600 3966 2234 
Q 3966 2900 3644 3372 
Q 3322 3844 2747 4019 
Q 2316 4150 1325 4150 
L 1000 4150 
L 1000 434 
z
" transform="scale(0.015625)"/>
       <path id="CenturyGothic-49" d="M 494 4597 
L 953 4597 
L 953 0 
L 494 0 
L 494 4597 
z
" transform="scale(0.015625)"/>
       <path id="CenturyGothic-67" d="M 3416 3400 
L 3856 3400 
L 3856 691 
Q 3856 -25 3731 -356 
Q 3559 -825 3134 -1078 
Q 2709 -1331 2113 -1331 
Q 1675 -1331 1326 -1207 
Q 978 -1084 759 -876 
Q 541 -669 356 -269 
L 831 -269 
Q 1025 -606 1331 -768 
Q 1638 -931 2091 -931 
Q 2538 -931 2845 -764 
Q 3153 -597 3284 -344 
Q 3416 -91 3416 472 
L 3416 647 
Q 3169 334 2812 167 
Q 2456 0 2056 0 
Q 1588 0 1175 233 
Q 763 466 538 859 
Q 313 1253 313 1725 
Q 313 2197 547 2605 
Q 781 3013 1195 3250 
Q 1609 3488 2069 3488 
Q 2450 3488 2779 3330 
Q 3109 3172 3416 2809 
L 3416 3400 
z
M 2125 3066 
Q 1753 3066 1434 2886 
Q 1116 2706 934 2389 
Q 753 2072 753 1703 
Q 753 1144 1128 778 
Q 1503 413 2100 413 
Q 2703 413 3070 775 
Q 3438 1138 3438 1728 
Q 3438 2113 3269 2414 
Q 3100 2716 2790 2891 
Q 2481 3066 2125 3066 
z
" transform="scale(0.015625)"/>
       <path id="CenturyGothic-70" d="M 494 3400 
L 928 3400 
L 928 2775 
Q 1188 3131 1525 3309 
Q 1863 3488 2278 3488 
Q 3003 3488 3518 2966 
Q 4034 2444 4034 1709 
Q 4034 959 3523 435 
Q 3013 -88 2291 -88 
Q 1884 -88 1543 81 
Q 1203 250 928 584 
L 928 -1244 
L 494 -1244 
L 494 3400 
z
M 2244 3066 
Q 1675 3066 1286 2669 
Q 897 2272 897 1681 
Q 897 1294 1070 984 
Q 1244 675 1567 494 
Q 1891 313 2250 313 
Q 2603 313 2914 495 
Q 3225 678 3409 1006 
Q 3594 1334 3594 1694 
Q 3594 2056 3411 2381 
Q 3228 2706 2918 2886 
Q 2609 3066 2244 3066 
z
" transform="scale(0.015625)"/>
       <path id="CenturyGothic-63" d="M 3788 2694 
L 3441 2478 
Q 2991 3075 2213 3075 
Q 1591 3075 1180 2675 
Q 769 2275 769 1703 
Q 769 1331 958 1003 
Q 1147 675 1476 494 
Q 1806 313 2216 313 
Q 2966 313 3441 909 
L 3788 681 
Q 3544 316 3133 114 
Q 2722 -88 2197 -88 
Q 1391 -88 859 425 
Q 328 938 328 1672 
Q 328 2166 576 2589 
Q 825 3013 1259 3250 
Q 1694 3488 2231 3488 
Q 2569 3488 2883 3384 
Q 3197 3281 3415 3115 
Q 3634 2950 3788 2694 
z
" transform="scale(0.015625)"/>
      </defs>
      <use xlink:href="#CenturyGothic-53"/>
      <use xlink:href="#CenturyGothic-44" transform="translate(49.804688 0)"/>
      <use xlink:href="#CenturyGothic-49" transform="translate(124.21875 0)"/>
      <use xlink:href="#CenturyGothic-44" transform="translate(146.826172 0)"/>
      <use xlink:href="#CenturyGothic-20" transform="translate(221.240234 0)"/>
      <use xlink:href="#CenturyGothic-67" transform="translate(248.925781 0)"/>
      <use xlink:href="#CenturyGothic-61" transform="translate(316.210938 0)"/>
      <use xlink:href="#CenturyGothic-70" transform="translate(384.521484 0)"/>
      <use xlink:href="#CenturyGothic-20" transform="translate(452.734375 0)"/>
      <use xlink:href="#CenturyGothic-6f" transform="translate(480.419922 0)"/>
      <use xlink:href="#CenturyGothic-6e" transform="translate(545.898438 0)"/>
      <use xlink:href="#CenturyGothic-20" transform="translate(606.884766 0)"/>
      <use xlink:href="#CenturyGothic-63" transform="translate(634.570312 0)"/>
      <use xlink:href="#CenturyGothic-6f" transform="translate(699.267578 0)"/>
      <use xlink:href="#CenturyGothic-6e" transform="translate(764.746094 0)"/>
      <use xlink:href="#CenturyGothic-74" transform="translate(825.732422 0)"/>
      <use xlink:href="#CenturyGothic-72" transform="translate(859.619141 0)"/>
      <use xlink:href="#CenturyGothic-61" transform="translate(889.697266 0)"/>
      <use xlink:href="#CenturyGothic-63" transform="translate(958.007812 0)"/>
      <use xlink:href="#CenturyGothic-74" transform="translate(1022.705078 0)"/>
      <use xlink:href="#CenturyGothic-73" transform="translate(1056.591797 0)"/>
     </g>
    </g>
   </g>
   <g id="line2d_22">
    <path d="M 53.7 63.368518 
L 401.303622 63.368518 
" clip-path="url(#pba71ef6702)" style="fill: none; stroke: #404040; stroke-width: 0.9; stroke-linecap: square"/>
   </g>
   <g id="line2d_23">
    <path d="M 168.888297 169.451811 
L 168.888297 11.133779 
" clip-path="url(#pba71ef6702)" style="fill: none; stroke-dasharray: 3.7,1.6; stroke-dashoffset: 0; stroke: #404040"/>
   </g>
   <g id="line2d_24">
    <path d="M 69.500165 102.281716 
L 74.596992 92.18129 
L 79.693819 95.969199 
L 84.790647 91.524151 
L 89.887474 103.613777 
L 94.984301 106.239807 
L 100.081128 101.917483 
L 105.177956 88.167793 
L 110.274783 106.936641 
L 115.37161 109.567969 
L 120.468438 135.119617 
L 125.565265 116.868587 
L 130.662092 111.698396 
L 135.75892 81.645135 
L 140.855747 82.221155 
L 145.952574 76.907941 
L 151.049401 87.929083 
L 156.146229 84.736986 
L 161.243056 75.21336 
L 166.339883 63.368518 
L 171.436711 75.364583 
L 176.533538 71.98371 
L 181.630365 75.33548 
L 186.727193 64.933158 
L 191.82402 66.200724 
L 196.920847 46.642836 
L 202.017675 61.116704 
L 207.114502 53.29269 
L 212.211329 67.054612 
L 217.308156 61.187877 
L 222.404984 59.242777 
L 227.501811 51.360105 
L 232.598638 58.615393 
L 237.695466 60.235506 
L 242.792293 67.883326 
L 247.88912 58.435171 
L 252.985948 59.665761 
L 258.082775 48.960879 
L 263.179602 47.408434 
L 268.276429 56.772475 
L 273.373257 60.341349 
L 278.470084 55.295385 
L 283.566911 61.809696 
L 288.663739 45.465973 
L 293.760566 56.756344 
L 298.857393 67.29814 
L 303.954221 66.922772 
L 309.051048 62.681737 
L 314.147875 61.207276 
L 319.244702 48.024602 
L 324.34153 46.624996 
L 329.438357 48.342689 
L 334.535184 59.247022 
L 339.632012 63.789929 
L 344.728839 70.953719 
L 349.825666 47.550641 
L 354.922494 65.276955 
L 360.019321 67.32487 
L 365.116148 64.638156 
L 370.212976 65.244311 
L 375.309803 60.615849 
L 380.40663 52.488973 
L 385.503457 61.929241 
" clip-path="url(#pba71ef6702)" style="fill: none; stroke: #83082a; stroke-width: 1.6; stroke-linecap: square"/>
    <defs>
     <path id="m4463437c9a" d="M 0 1.6 
C 0.424325 1.6 0.831328 1.431414 1.131371 1.131371 
C 1.431414 0.831328 1.6 0.424325 1.6 0 
C 1.6 -0.424325 1.431414 -0.831328 1.131371 -1.131371 
C 0.831328 -1.431414 0.424325 -1.6 0 -1.6 
C -0.424325 -1.6 -0.831328 -1.431414 -1.131371 -1.131371 
C -1.431414 -0.831328 -1.6 -0.424325 -1.6 0 
C -1.6 0.424325 -1.431414 0.831328 -1.131371 1.131371 
C -0.831328 1.431414 -0.424325 1.6 0 1.6 
z
" style="stroke: #83082a"/>
    </defs>
    <g clip-path="url(#pba71ef6702)">
     <use xlink:href="#m4463437c9a" x="69.500165" y="102.281716" style="fill: #83082a; stroke: #83082a"/>
     <use xlink:href="#m4463437c9a" x="74.596992" y="92.18129" style="fill: #83082a; stroke: #83082a"/>
     <use xlink:href="#m4463437c9a" x="79.693819" y="95.969199" style="fill: #83082a; stroke: #83082a"/>
     <use xlink:href="#m4463437c9a" x="84.790647" y="91.524151" style="fill: #83082a; stroke: #83082a"/>
     <use xlink:href="#m4463437c9a" x="89.887474" y="103.613777" style="fill: #83082a; stroke: #83082a"/>
     <use xlink:href="#m4463437c9a" x="94.984301" y="106.239807" style="fill: #83082a; stroke: #83082a"/>
     <use xlink:href="#m4463437c9a" x="100.081128" y="101.917483" style="fill: #83082a; stroke: #83082a"/>
     <use xlink:href="#m4463437c9a" x="105.177956" y="88.167793" style="fill: #83082a; stroke: #83082a"/>
     <use xlink:href="#m4463437c9a" x="110.274783" y="106.936641" style="fill: #83082a; stroke: #83082a"/>
     <use xlink:href="#m4463437c9a" x="115.37161" y="109.567969" style="fill: #83082a; stroke: #83082a"/>
     <use xlink:href="#m4463437c9a" x="120.468438" y="135.119617" style="fill: #83082a; stroke: #83082a"/>
     <use xlink:href="#m4463437c9a" x="125.565265" y="116.868587" style="fill: #83082a; stroke: #83082a"/>
     <use xlink:href="#m4463437c9a" x="130.662092" y="111.698396" style="fill: #83082a; stroke: #83082a"/>
     <use xlink:href="#m4463437c9a" x="135.75892" y="81.645135" style="fill: #83082a; stroke: #83082a"/>
     <use xlink:href="#m4463437c9a" x="140.855747" y="82.221155" style="fill: #83082a; stroke: #83082a"/>
     <use xlink:href="#m4463437c9a" x="145.952574" y="76.907941" style="fill: #83082a; stroke: #83082a"/>
     <use xlink:href="#m4463437c9a" x="151.049401" y="87.929083" style="fill: #83082a; stroke: #83082a"/>
     <use xlink:href="#m4463437c9a" x="156.146229" y="84.736986" style="fill: #83082a; stroke: #83082a"/>
     <use xlink:href="#m4463437c9a" x="161.243056" y="75.21336" style="fill: #83082a; stroke: #83082a"/>
     <use xlink:href="#m4463437c9a" x="166.339883" y="63.368518" style="fill: #83082a; stroke: #83082a"/>
     <use xlink:href="#m4463437c9a" x="171.436711" y="75.364583" style="fill: #83082a; stroke: #83082a"/>
     <use xlink:href="#m4463437c9a" x="176.533538" y="71.98371" style="fill: #83082a; stroke: #83082a"/>
     <use xlink:href="#m4463437c9a" x="181.630365" y="75.33548" style="fill: #83082a; stroke: #83082a"/>
     <use xlink:href="#m4463437c9a" x="186.727193" y="64.933158" style="fill: #83082a; stroke: #83082a"/>
     <use xlink:href="#m4463437c9a" x="191.82402" y="66.200724" style="fill: #83082a; stroke: #83082a"/>
     <use xlink:href="#m4463437c9a" x="196.920847" y="46.642836" style="fill: #83082a; stroke: #83082a"/>
     <use xlink:href="#m4463437c9a" x="202.017675" y="61.116704" style="fill: #83082a; stroke: #83082a"/>
     <use xlink:href="#m4463437c9a" x="207.114502" y="53.29269" style="fill: #83082a; stroke: #83082a"/>
     <use xlink:href="#m4463437c9a" x="212.211329" y="67.054612" style="fill: #83082a; stroke: #83082a"/>
     <use xlink:href="#m4463437c9a" x="217.308156" y="61.187877" style="fill: #83082a; stroke: #83082a"/>
     <use xlink:href="#m4463437c9a" x="222.404984" y="59.242777" style="fill: #83082a; stroke: #83082a"/>
     <use xlink:href="#m4463437c9a" x="227.501811" y="51.360105" style="fill: #83082a; stroke: #83082a"/>
     <use xlink:href="#m4463437c9a" x="232.598638" y="58.615393" style="fill: #83082a; stroke: #83082a"/>
     <use xlink:href="#m4463437c9a" x="237.695466" y="60.235506" style="fill: #83082a; stroke: #83082a"/>
     <use xlink:href="#m4463437c9a" x="242.792293" y="67.883326" style="fill: #83082a; stroke: #83082a"/>
     <use xlink:href="#m4463437c9a" x="247.88912" y="58.435171" style="fill: #83082a; stroke: #83082a"/>
     <use xlink:href="#m4463437c9a" x="252.985948" y="59.665761" style="fill: #83082a; stroke: #83082a"/>
     <use xlink:href="#m4463437c9a" x="258.082775" y="48.960879" style="fill: #83082a; stroke: #83082a"/>
     <use xlink:href="#m4463437c9a" x="263.179602" y="47.408434" style="fill: #83082a; stroke: #83082a"/>
     <use xlink:href="#m4463437c9a" x="268.276429" y="56.772475" style="fill: #83082a; stroke: #83082a"/>
     <use xlink:href="#m4463437c9a" x="273.373257" y="60.341349" style="fill: #83082a; stroke: #83082a"/>
     <use xlink:href="#m4463437c9a" x="278.470084" y="55.295385" style="fill: #83082a; stroke: #83082a"/>
     <use xlink:href="#m4463437c9a" x="283.566911" y="61.809696" style="fill: #83082a; stroke: #83082a"/>
     <use xlink:href="#m4463437c9a" x="288.663739" y="45.465973" style="fill: #83082a; stroke: #83082a"/>
     <use xlink:href="#m4463437c9a" x="293.760566" y="56.756344" style="fill: #83082a; stroke: #83082a"/>
     <use xlink:href="#m4463437c9a" x="298.857393" y="67.29814" style="fill: #83082a; stroke: #83082a"/>
     <use xlink:href="#m4463437c9a" x="303.954221" y="66.922772" style="fill: #83082a; stroke: #83082a"/>
     <use xlink:href="#m4463437c9a" x="309.051048" y="62.681737" style="fill: #83082a; stroke: #83082a"/>
     <use xlink:href="#m4463437c9a" x="314.147875" y="61.207276" style="fill: #83082a; stroke: #83082a"/>
     <use xlink:href="#m4463437c9a" x="319.244702" y="48.024602" style="fill: #83082a; stroke: #83082a"/>
     <use xlink:href="#m4463437c9a" x="324.34153" y="46.624996" style="fill: #83082a; stroke: #83082a"/>
     <use xlink:href="#m4463437c9a" x="329.438357" y="48.342689" style="fill: #83082a; stroke: #83082a"/>
     <use xlink:href="#m4463437c9a" x="334.535184" y="59.247022" style="fill: #83082a; stroke: #83082a"/>
     <use xlink:href="#m4463437c9a" x="339.632012" y="63.789929" style="fill: #83082a; stroke: #83082a"/>
     <use xlink:href="#m4463437c9a" x="344.728839" y="70.953719" style="fill: #83082a; stroke: #83082a"/>
     <use xlink:href="#m4463437c9a" x="349.825666" y="47.550641" style="fill: #83082a; stroke: #83082a"/>
     <use xlink:href="#m4463437c9a" x="354.922494" y="65.276955" style="fill: #83082a; stroke: #83082a"/>
     <use xlink:href="#m4463437c9a" x="360.019321" y="67.32487" style="fill: #83082a; stroke: #83082a"/>
     <use xlink:href="#m4463437c9a" x="365.116148" y="64.638156" style="fill: #83082a; stroke: #83082a"/>
     <use xlink:href="#m4463437c9a" x="370.212976" y="65.244311" style="fill: #83082a; stroke: #83082a"/>
     <use xlink:href="#m4463437c9a" x="375.309803" y="60.615849" style="fill: #83082a; stroke: #83082a"/>
     <use xlink:href="#m4463437c9a" x="380.40663" y="52.488973" style="fill: #83082a; stroke: #83082a"/>
     <use xlink:href="#m4463437c9a" x="385.503457" y="61.929241" style="fill: #83082a; stroke: #83082a"/>
    </g>
   </g>
   <g id="patch_3">
    <path d="M 53.7 169.451811 
L 53.7 11.133779 
" style="fill: none; stroke: #404040; stroke-linejoin: miter; stroke-linecap: square"/>
   </g>
   <g id="patch_4">
    <path d="M 53.7 169.451811 
L 401.303622 169.451811 
" style="fill: none; stroke: #404040; stroke-linejoin: miter; stroke-linecap: square"/>
   </g>
  </g>
 </g>
 <defs>
  <clipPath id="pba71ef6702">
   <rect x="53.7" y="11.133779" width="347.603622" height="158.318032"/>
  </clipPath>
 </defs>
</svg>
