<?xml version="1.0" encoding="utf-8" standalone="no"?>
<!DOCTYPE svg PUBLIC "-//W3C//DTD SVG 1.1//EN"
  "http://www.w3.org/Graphics/SVG/1.1/DTD/svg11.dtd">
<svg xmlns:xlink="http://www.w3.org/1999/xlink" width="411.023622pt" height="205.511811pt" viewBox="0 0 411.023622 205.511811" xmlns="http://www.w3.org/2000/svg" version="1.1">
 <metadata>
  <rdf:RDF xmlns:dc="http://purl.org/dc/elements/1.1/" xmlns:cc="http://creativecommons.org/ns#" xmlns:rdf="http://www.w3.org/1999/02/22-rdf-syntax-ns#">
   <cc:Work>
    <dc:type rdf:resource="http://purl.org/dc/dcmitype/StillImage"/>
    <dc:date>2026-06-05T10:18:08.496878</dc:date>
    <dc:format>image/svg+xml</dc:format>
    <dc:creator>
     <cc:Agent>
      <dc:title>Matplotlib v3.10.8, https://matplotlib.org/</dc:title>
     </cc:Agent>
    </dc:creator>
   </cc:Work>
  </rdf:RDF>
 </metadata>
 <defs>
  <style type="text/css">*{stroke-linejoin: round; stroke-linecap: butt}</style>
 </defs>
 <g id="figure_1">
  <g id="patch_1">
   <path d="M 0 205.511811 
L 411.023622 205.511811 
L 411.023622 0 
L 0 0 
z
" style="fill: #ffffff"/>
  </g>
  <g id="axes_1">
   <g id="patch_2">
    <path d="M 53.61 169.451811 
L 401.303622 169.451811 
L 401.303622 9.72 
L 53.61 9.72 
z
" style="fill: #ffffff"/>
   </g>
   <g id="FillBetweenPolyCollection_1">
    <defs>
     <path id="m81e773004a" d="M 69.414256 -131.290812 
L 69.414256 -52.512385 
L 74.512402 -66.727216 
L 79.610549 -66.184363 
L 84.708696 -68.877217 
L 89.806843 -66.827092 
L 94.90499 -64.83066 
L 100.003137 -46.703472 
L 105.101284 -43.320537 
L 110.199431 -54.697547 
L 115.297578 -60.39251 
L 120.395725 -44.272901 
L 125.493872 -59.500042 
L 130.592019 -55.433783 
L 135.690166 -83.43228 
L 140.788313 -93.900593 
L 145.88646 -85.443615 
L 150.984607 -81.005171 
L 156.082754 -81.109612 
L 161.180901 -77.936748 
L 166.279048 -73.473697 
L 171.377195 -93.465556 
L 176.475342 -97.555096 
L 181.573488 -96.970303 
L 186.671635 -98.21461 
L 191.769782 -93.359613 
L 196.867929 -106.141688 
L 201.966076 -94.333016 
L 207.064223 -99.795405 
L 212.16237 -93.118086 
L 217.260517 -96.51297 
L 222.358664 -91.671091 
L 227.456811 -80.648699 
L 232.554958 -96.5822 
L 237.653105 -100.828685 
L 242.751252 -109.752847 
L 247.849399 -99.660943 
L 252.947546 -91.599432 
L 258.045693 -101.537835 
L 263.14384 -104.84401 
L 268.241987 -99.434446 
L 273.340134 -95.662452 
L 278.438281 -100.405186 
L 283.536427 -88.536763 
L 288.634574 -85.62586 
L 293.732721 -96.51294 
L 298.830868 -90.838012 
L 303.929015 -95.337659 
L 309.027162 -97.909549 
L 314.125309 -90.013595 
L 319.223456 -100.015601 
L 324.321603 -99.137851 
L 329.41975 -100.548807 
L 334.517897 -92.163157 
L 339.616044 -93.006125 
L 344.714191 -73.9433 
L 349.812338 -81.171381 
L 354.910485 -90.708154 
L 360.008632 -91.207242 
L 365.106779 -91.127097 
L 370.204926 -90.716756 
L 375.303073 -82.184978 
L 380.40122 -92.776898 
L 385.499366 -89.237145 
L 385.499366 -168.015572 
L 385.499366 -168.015572 
L 380.40122 -171.555325 
L 375.303073 -160.963406 
L 370.204926 -169.495183 
L 365.106779 -169.905524 
L 360.008632 -169.985669 
L 354.910485 -169.486581 
L 349.812338 -159.949809 
L 344.714191 -152.721727 
L 339.616044 -171.784553 
L 334.517897 -170.941584 
L 329.41975 -179.327234 
L 324.321603 -177.916278 
L 319.223456 -178.794028 
L 314.125309 -168.792022 
L 309.027162 -176.687976 
L 303.929015 -174.116086 
L 298.830868 -169.616439 
L 293.732721 -175.291368 
L 288.634574 -164.404287 
L 283.536427 -167.31519 
L 278.438281 -179.183613 
L 273.340134 -174.440879 
L 268.241987 -178.212873 
L 263.14384 -183.622437 
L 258.045693 -180.316262 
L 252.947546 -170.377859 
L 247.849399 -178.43937 
L 242.751252 -188.531274 
L 237.653105 -179.607112 
L 232.554958 -175.360628 
L 227.456811 -159.427126 
L 222.358664 -170.449518 
L 217.260517 -175.291397 
L 212.16237 -171.896513 
L 207.064223 -178.573832 
L 201.966076 -173.111443 
L 196.867929 -184.920116 
L 191.769782 -172.13804 
L 186.671635 -176.993038 
L 181.573488 -175.74873 
L 176.475342 -176.333523 
L 171.377195 -172.243983 
L 166.279048 -152.252124 
L 161.180901 -156.715176 
L 156.082754 -159.888039 
L 150.984607 -159.783599 
L 145.88646 -164.222042 
L 140.788313 -172.67902 
L 135.690166 -162.210707 
L 130.592019 -134.21221 
L 125.493872 -138.278469 
L 120.395725 -123.051328 
L 115.297578 -139.170937 
L 110.199431 -133.475975 
L 105.101284 -122.098964 
L 100.003137 -125.4819 
L 94.90499 -143.609088 
L 89.806843 -145.605519 
L 84.708696 -147.655644 
L 79.610549 -144.962791 
L 74.512402 -145.505643 
L 69.414256 -131.290812 
z
"/>
    </defs>
    <g clip-path="url(#p830d60c916)">
     <use xlink:href="#m81e773004a" x="0" y="205.511811" style="fill: #e397a0; fill-opacity: 0.55"/>
    </g>
   </g>
   <g id="matplotlib.axis_1">
    <g id="xtick_1">
     <g id="line2d_1">
      <defs>
       <path id="me80fe6d4af" d="M 0 0 
L 0 3 
" style="stroke: #404040"/>
      </defs>
      <g>
       <use xlink:href="#me80fe6d4af" x="69.414256" y="169.451811" style="fill: #404040; stroke: #404040"/>
      </g>
     </g>
     <g id="text_1">
      <!-- −20 -->
      <g style="fill: #404040" transform="translate(61.673552 182.579467) scale(0.09 -0.09)">
       <defs>
        <path id="CenturyGothic-Bold-2212" d="M 359 2688 
L 3481 2688 
L 3481 1906 
L 359 1906 
L 359 2688 
z
" transform="scale(0.015625)"/>
        <path id="CenturyGothic-Bold-32" d="M 1116 3116 
L 263 3116 
Q 297 3859 730 4286 
Q 1163 4713 1841 4713 
Q 2259 4713 2579 4536 
Q 2900 4359 3092 4026 
Q 3284 3694 3284 3350 
Q 3284 2941 3051 2469 
Q 2819 1997 2200 1353 
L 1684 809 
L 3322 809 
L 3322 0 
L 138 0 
L 138 419 
L 1559 1869 
Q 2075 2391 2245 2708 
Q 2416 3025 2416 3281 
Q 2416 3547 2239 3720 
Q 2063 3894 1784 3894 
Q 1503 3894 1315 3684 
Q 1128 3475 1116 3116 
z
" transform="scale(0.015625)"/>
        <path id="CenturyGothic-Bold-30" d="M 1778 4713 
Q 2281 4713 2645 4466 
Q 3009 4219 3207 3711 
Q 3406 3203 3406 2297 
Q 3406 1381 3204 872 
Q 3003 363 2662 123 
Q 2322 -116 1803 -116 
Q 1284 -116 931 125 
Q 578 366 378 856 
Q 178 1347 178 2253 
Q 178 3519 569 4088 
Q 1003 4713 1778 4713 
z
M 1800 3881 
Q 1578 3881 1406 3739 
Q 1234 3597 1143 3250 
Q 1053 2903 1053 2234 
Q 1053 1363 1261 1030 
Q 1469 697 1800 697 
Q 2119 697 2306 1013 
Q 2534 1394 2534 2288 
Q 2534 3194 2329 3537 
Q 2125 3881 1800 3881 
z
" transform="scale(0.015625)"/>
       </defs>
       <use xlink:href="#CenturyGothic-Bold-2212"/>
       <use xlink:href="#CenturyGothic-Bold-32" transform="translate(60.009766 0)"/>
       <use xlink:href="#CenturyGothic-Bold-30" transform="translate(116.015625 0)"/>
      </g>
     </g>
    </g>
    <g id="xtick_2">
     <g id="line2d_2">
      <g>
       <use xlink:href="#me80fe6d4af" x="120.395725" y="169.451811" style="fill: #404040; stroke: #404040"/>
      </g>
     </g>
     <g id="text_2">
      <!-- −10 -->
      <g style="fill: #404040" transform="translate(112.655022 182.579467) scale(0.09 -0.09)">
       <defs>
        <path id="CenturyGothic-Bold-31" d="M 1053 4597 
L 2363 4597 
L 2363 0 
L 1494 0 
L 1494 3775 
L 547 3775 
L 1053 4597 
z
" transform="scale(0.015625)"/>
       </defs>
       <use xlink:href="#CenturyGothic-Bold-2212"/>
       <use xlink:href="#CenturyGothic-Bold-31" transform="translate(60.009766 0)"/>
       <use xlink:href="#CenturyGothic-Bold-30" transform="translate(116.015625 0)"/>
      </g>
     </g>
    </g>
    <g id="xtick_3">
     <g id="line2d_3">
      <g>
       <use xlink:href="#me80fe6d4af" x="171.377195" y="169.451811" style="fill: #404040; stroke: #404040"/>
      </g>
     </g>
     <g id="text_3">
      <!-- 0 -->
      <g style="fill: #404040" transform="translate(168.857195 182.579467) scale(0.09 -0.09)">
       <use xlink:href="#CenturyGothic-Bold-30"/>
      </g>
     </g>
    </g>
    <g id="xtick_4">
     <g id="line2d_4">
      <g>
       <use xlink:href="#me80fe6d4af" x="222.358664" y="169.451811" style="fill: #404040; stroke: #404040"/>
      </g>
     </g>
     <g id="text_4">
      <!-- 10 -->
      <g style="fill: #404040" transform="translate(217.318664 182.579467) scale(0.09 -0.09)">
       <use xlink:href="#CenturyGothic-Bold-31"/>
       <use xlink:href="#CenturyGothic-Bold-30" transform="translate(56.005859 0)"/>
      </g>
     </g>
    </g>
    <g id="xtick_5">
     <g id="line2d_5">
      <g>
       <use xlink:href="#me80fe6d4af" x="273.340134" y="169.451811" style="fill: #404040; stroke: #404040"/>
      </g>
     </g>
     <g id="text_5">
      <!-- 20 -->
      <g style="fill: #404040" transform="translate(268.300134 182.579467) scale(0.09 -0.09)">
       <use xlink:href="#CenturyGothic-Bold-32"/>
       <use xlink:href="#CenturyGothic-Bold-30" transform="translate(56.005859 0)"/>
      </g>
     </g>
    </g>
    <g id="xtick_6">
     <g id="line2d_6">
      <g>
       <use xlink:href="#me80fe6d4af" x="324.321603" y="169.451811" style="fill: #404040; stroke: #404040"/>
      </g>
     </g>
     <g id="text_6">
      <!-- 30 -->
      <g style="fill: #404040" transform="translate(319.281603 182.579467) scale(0.09 -0.09)">
       <defs>
        <path id="CenturyGothic-Bold-33" d="M 1216 3463 
L 375 3463 
Q 441 3972 741 4281 
Q 1159 4713 1794 4713 
Q 2359 4713 2742 4353 
Q 3125 3994 3125 3500 
Q 3125 3194 2958 2941 
Q 2791 2688 2472 2531 
Q 2891 2406 3127 2095 
Q 3363 1784 3363 1363 
Q 3363 744 2906 314 
Q 2450 -116 1744 -116 
Q 1075 -116 653 289 
Q 231 694 191 1391 
L 1056 1391 
Q 1113 1034 1305 861 
Q 1497 688 1791 688 
Q 2097 688 2298 884 
Q 2500 1081 2500 1366 
Q 2500 1678 2228 1893 
Q 1956 2109 1444 2116 
L 1444 2866 
Q 1759 2891 1914 2964 
Q 2069 3038 2155 3166 
Q 2241 3294 2241 3438 
Q 2241 3625 2109 3748 
Q 1978 3872 1766 3872 
Q 1578 3872 1425 3758 
Q 1272 3644 1216 3463 
z
" transform="scale(0.015625)"/>
       </defs>
       <use xlink:href="#CenturyGothic-Bold-33"/>
       <use xlink:href="#CenturyGothic-Bold-30" transform="translate(56.005859 0)"/>
      </g>
     </g>
    </g>
    <g id="xtick_7">
     <g id="line2d_7">
      <g>
       <use xlink:href="#me80fe6d4af" x="375.303073" y="169.451811" style="fill: #404040; stroke: #404040"/>
      </g>
     </g>
     <g id="text_7">
      <!-- 40 -->
      <g style="fill: #404040" transform="translate(370.263073 182.579467) scale(0.09 -0.09)">
       <defs>
        <path id="CenturyGothic-Bold-34" d="M 2119 4713 
L 2994 4713 
L 2994 1753 
L 3403 1753 
L 3403 944 
L 2994 944 
L 2994 0 
L 2138 0 
L 2138 944 
L 131 944 
L 131 1753 
L 2119 4713 
z
M 2138 1753 
L 2138 3294 
L 1088 1753 
L 2138 1753 
z
" transform="scale(0.015625)"/>
       </defs>
       <use xlink:href="#CenturyGothic-Bold-34"/>
       <use xlink:href="#CenturyGothic-Bold-30" transform="translate(56.005859 0)"/>
      </g>
     </g>
    </g>
    <g id="text_8">
     <!-- Months relative to 2022-09 (baseline = -1) -->
     <g transform="translate(138.789936 195.078842) scale(0.09 -0.09)">
      <defs>
       <path id="CenturyGothic-4d" d="M 350 0 
L 1003 4597 
L 1078 4597 
L 2947 825 
L 4797 4597 
L 4872 4597 
L 5531 0 
L 5078 0 
L 4628 3288 
L 3003 0 
L 2888 0 
L 1241 3313 
L 794 0 
L 350 0 
z
" transform="scale(0.015625)"/>
       <path id="CenturyGothic-6f" d="M 2097 3488 
Q 2881 3488 3397 2919 
Q 3866 2400 3866 1691 
Q 3866 978 3370 445 
Q 2875 -88 2097 -88 
Q 1316 -88 820 445 
Q 325 978 325 1691 
Q 325 2397 794 2916 
Q 1309 3488 2097 3488 
z
M 2097 3059 
Q 1553 3059 1162 2656 
Q 772 2253 772 1681 
Q 772 1313 950 994 
Q 1128 675 1431 501 
Q 1734 328 2097 328 
Q 2459 328 2762 501 
Q 3066 675 3244 994 
Q 3422 1313 3422 1681 
Q 3422 2253 3030 2656 
Q 2638 3059 2097 3059 
z
" transform="scale(0.015625)"/>
       <path id="CenturyGothic-6e" d="M 488 3400 
L 925 3400 
L 925 2791 
Q 1188 3141 1506 3314 
Q 1825 3488 2200 3488 
Q 2581 3488 2876 3294 
Q 3172 3100 3312 2772 
Q 3453 2444 3453 1750 
L 3453 0 
L 3019 0 
L 3019 1622 
Q 3019 2209 2969 2406 
Q 2891 2744 2675 2914 
Q 2459 3084 2113 3084 
Q 1716 3084 1402 2821 
Q 1088 2559 988 2172 
Q 925 1919 925 1247 
L 925 0 
L 488 0 
L 488 3400 
z
" transform="scale(0.015625)"/>
       <path id="CenturyGothic-74" d="M 869 4663 
L 1309 4663 
L 1309 3400 
L 2003 3400 
L 2003 3025 
L 1309 3025 
L 1309 0 
L 869 0 
L 869 3025 
L 272 3025 
L 272 3400 
L 869 3400 
L 869 4663 
z
" transform="scale(0.015625)"/>
       <path id="CenturyGothic-68" d="M 488 4713 
L 925 4713 
L 925 2791 
Q 1191 3141 1509 3314 
Q 1828 3488 2200 3488 
Q 2581 3488 2876 3294 
Q 3172 3100 3312 2773 
Q 3453 2447 3453 1750 
L 3453 0 
L 3016 0 
L 3016 1622 
Q 3016 2209 2969 2406 
Q 2888 2744 2673 2914 
Q 2459 3084 2113 3084 
Q 1716 3084 1402 2821 
Q 1088 2559 988 2172 
Q 925 1922 925 1247 
L 925 0 
L 488 0 
L 488 4713 
z
" transform="scale(0.015625)"/>
       <path id="CenturyGothic-73" d="M 2197 3028 
L 1916 2738 
Q 1566 3078 1231 3078 
Q 1019 3078 867 2937 
Q 716 2797 716 2609 
Q 716 2444 841 2294 
Q 966 2141 1366 1934 
Q 1853 1681 2028 1447 
Q 2200 1209 2200 913 
Q 2200 494 1906 203 
Q 1613 -88 1172 -88 
Q 878 -88 611 40 
Q 344 169 169 394 
L 444 706 
Q 778 328 1153 328 
Q 1416 328 1600 497 
Q 1784 666 1784 894 
Q 1784 1081 1663 1228 
Q 1541 1372 1113 1591 
Q 653 1828 488 2059 
Q 322 2291 322 2588 
Q 322 2975 586 3231 
Q 850 3488 1253 3488 
Q 1722 3488 2197 3028 
z
" transform="scale(0.015625)"/>
       <path id="CenturyGothic-20" transform="scale(0.015625)"/>
       <path id="CenturyGothic-72" d="M 322 3400 
L 769 3400 
L 769 2903 
Q 969 3197 1191 3342 
Q 1413 3488 1653 3488 
Q 1834 3488 2041 3372 
L 1813 3003 
Q 1675 3063 1581 3063 
Q 1363 3063 1159 2883 
Q 956 2703 850 2325 
Q 769 2034 769 1150 
L 769 0 
L 322 0 
L 322 3400 
z
" transform="scale(0.015625)"/>
       <path id="CenturyGothic-65" d="M 3350 1128 
L 3719 934 
Q 3538 578 3300 359 
Q 3063 141 2766 26 
Q 2469 -88 2094 -88 
Q 1263 -88 794 457 
Q 325 1003 325 1691 
Q 325 2338 722 2844 
Q 1225 3488 2069 3488 
Q 2938 3488 3456 2828 
Q 3825 2363 3831 1666 
L 775 1666 
Q 788 1072 1153 692 
Q 1519 313 2056 313 
Q 2316 313 2561 403 
Q 2806 494 2978 644 
Q 3150 794 3350 1128 
z
M 3350 2044 
Q 3263 2394 3095 2603 
Q 2928 2813 2653 2941 
Q 2378 3069 2075 3069 
Q 1575 3069 1216 2747 
Q 953 2513 819 2044 
L 3350 2044 
z
" transform="scale(0.015625)"/>
       <path id="CenturyGothic-6c" d="M 422 4713 
L 859 4713 
L 859 0 
L 422 0 
L 422 4713 
z
" transform="scale(0.015625)"/>
       <path id="CenturyGothic-61" d="M 3875 3400 
L 3875 0 
L 3444 0 
L 3444 584 
Q 3169 250 2826 81 
Q 2484 -88 2078 -88 
Q 1356 -88 845 435 
Q 334 959 334 1709 
Q 334 2444 850 2966 
Q 1366 3488 2091 3488 
Q 2509 3488 2848 3309 
Q 3188 3131 3444 2775 
L 3444 3400 
L 3875 3400 
z
M 2125 3066 
Q 1759 3066 1450 2886 
Q 1141 2706 958 2381 
Q 775 2056 775 1694 
Q 775 1334 959 1006 
Q 1144 678 1455 495 
Q 1766 313 2122 313 
Q 2481 313 2803 494 
Q 3125 675 3298 984 
Q 3472 1294 3472 1681 
Q 3472 2272 3083 2669 
Q 2694 3066 2125 3066 
z
" transform="scale(0.015625)"/>
       <path id="CenturyGothic-69" d="M 641 4800 
Q 791 4800 897 4694 
Q 1003 4588 1003 4438 
Q 1003 4291 897 4184 
Q 791 4078 641 4078 
Q 494 4078 387 4184 
Q 281 4291 281 4438 
Q 281 4588 387 4694 
Q 494 4800 641 4800 
z
M 422 3400 
L 863 3400 
L 863 0 
L 422 0 
L 422 3400 
z
" transform="scale(0.015625)"/>
       <path id="CenturyGothic-76" d="M 166 3400 
L 631 3400 
L 1769 925 
L 2897 3400 
L 3366 3400 
L 1809 0 
L 1731 0 
L 166 3400 
z
" transform="scale(0.015625)"/>
       <path id="CenturyGothic-32" d="M 741 3156 
L 300 3156 
Q 319 3838 755 4275 
Q 1191 4713 1831 4713 
Q 2466 4713 2858 4303 
Q 3250 3894 3250 3338 
Q 3250 2947 3062 2605 
Q 2875 2263 2334 1678 
L 1191 444 
L 3313 444 
L 3313 0 
L 191 0 
L 1947 1897 
Q 2481 2469 2642 2745 
Q 2803 3022 2803 3328 
Q 2803 3716 2514 3995 
Q 2225 4275 1806 4275 
Q 1366 4275 1073 3981 
Q 781 3688 741 3156 
z
" transform="scale(0.015625)"/>
       <path id="CenturyGothic-30" d="M 203 2297 
Q 203 3206 398 3703 
Q 594 4200 950 4456 
Q 1306 4713 1747 4713 
Q 2194 4713 2556 4455 
Q 2919 4197 3130 3681 
Q 3341 3166 3341 2297 
Q 3341 1431 3133 918 
Q 2925 406 2559 145 
Q 2194 -116 1747 -116 
Q 1306 -116 953 137 
Q 600 391 401 892 
Q 203 1394 203 2297 
z
M 638 2288 
Q 638 1509 777 1111 
Q 916 713 1187 506 
Q 1459 300 1763 300 
Q 2069 300 2334 501 
Q 2600 703 2738 1106 
Q 2909 1597 2909 2288 
Q 2909 2981 2756 3423 
Q 2603 3866 2333 4070 
Q 2063 4275 1763 4275 
Q 1456 4275 1187 4070 
Q 919 3866 778 3467 
Q 638 3069 638 2288 
z
" transform="scale(0.015625)"/>
       <path id="CenturyGothic-2d" d="M 203 1919 
L 1922 1919 
L 1922 1538 
L 203 1538 
L 203 1919 
z
" transform="scale(0.015625)"/>
       <path id="CenturyGothic-39" d="M 1228 -116 
L 850 128 
L 2091 2009 
Q 1841 1928 1622 1928 
Q 1075 1928 694 2323 
Q 313 2719 313 3297 
Q 313 3694 497 4012 
Q 681 4331 1020 4522 
Q 1359 4713 1747 4713 
Q 2128 4713 2451 4528 
Q 2775 4344 2959 4012 
Q 3144 3681 3144 3306 
Q 3144 3022 3030 2711 
Q 2916 2400 2622 1963 
L 1228 -116 
z
M 1728 2331 
Q 2131 2331 2414 2614 
Q 2697 2897 2697 3297 
Q 2697 3697 2414 3980 
Q 2131 4263 1728 4263 
Q 1328 4263 1045 3980 
Q 763 3697 763 3297 
Q 763 2897 1045 2614 
Q 1328 2331 1728 2331 
z
" transform="scale(0.015625)"/>
       <path id="CenturyGothic-28" d="M 1469 4800 
L 1975 4800 
Q 1669 4172 1484 3334 
Q 1300 2497 1300 1606 
Q 1300 781 1439 15 
Q 1578 -750 1822 -1331 
L 1341 -1331 
Q 1109 -775 971 -22 
Q 834 731 834 1547 
Q 834 2425 996 3258 
Q 1159 4091 1469 4800 
z
" transform="scale(0.015625)"/>
       <path id="CenturyGothic-62" d="M 516 0 
L 516 4713 
L 950 4713 
L 950 2816 
Q 1225 3153 1565 3320 
Q 1906 3488 2313 3488 
Q 3034 3488 3545 2964 
Q 4056 2441 4056 1694 
Q 4056 956 3540 434 
Q 3025 -88 2300 -88 
Q 1884 -88 1546 90 
Q 1209 269 950 625 
L 950 0 
L 516 0 
z
M 2266 334 
Q 2631 334 2940 514 
Q 3250 694 3433 1019 
Q 3616 1344 3616 1706 
Q 3616 2069 3431 2397 
Q 3247 2725 2936 2908 
Q 2625 3091 2272 3091 
Q 1913 3091 1589 2908 
Q 1266 2725 1092 2415 
Q 919 2106 919 1719 
Q 919 1128 1308 731 
Q 1697 334 2266 334 
z
" transform="scale(0.015625)"/>
       <path id="CenturyGothic-3d" d="M 3522 3200 
L 3522 2772 
L 359 2772 
L 359 3200 
L 3522 3200 
z
M 3522 1825 
L 3522 1397 
L 359 1397 
L 359 1825 
L 3522 1825 
z
" transform="scale(0.015625)"/>
       <path id="CenturyGothic-31" d="M 1184 4597 
L 2088 4597 
L 2088 0 
L 1631 0 
L 1631 4147 
L 909 4147 
L 1184 4597 
z
" transform="scale(0.015625)"/>
       <path id="CenturyGothic-29" d="M 894 -1331 
L 388 -1331 
Q 697 -703 880 134 
Q 1063 972 1063 1863 
Q 1063 2688 923 3453 
Q 784 4219 541 4800 
L 1022 4800 
Q 1256 4244 1392 3489 
Q 1528 2734 1528 1919 
Q 1528 1044 1365 211 
Q 1203 -622 894 -1331 
z
" transform="scale(0.015625)"/>
      </defs>
      <use xlink:href="#CenturyGothic-4d"/>
      <use xlink:href="#CenturyGothic-6f" transform="translate(91.894531 0)"/>
      <use xlink:href="#CenturyGothic-6e" transform="translate(157.373047 0)"/>
      <use xlink:href="#CenturyGothic-74" transform="translate(218.359375 0)"/>
      <use xlink:href="#CenturyGothic-68" transform="translate(252.246094 0)"/>
      <use xlink:href="#CenturyGothic-73" transform="translate(313.232422 0)"/>
      <use xlink:href="#CenturyGothic-20" transform="translate(352.050781 0)"/>
      <use xlink:href="#CenturyGothic-72" transform="translate(379.736328 0)"/>
      <use xlink:href="#CenturyGothic-65" transform="translate(409.814453 0)"/>
      <use xlink:href="#CenturyGothic-6c" transform="translate(474.804688 0)"/>
      <use xlink:href="#CenturyGothic-61" transform="translate(494.824219 0)"/>
      <use xlink:href="#CenturyGothic-74" transform="translate(563.134766 0)"/>
      <use xlink:href="#CenturyGothic-69" transform="translate(597.021484 0)"/>
      <use xlink:href="#CenturyGothic-76" transform="translate(617.041016 0)"/>
      <use xlink:href="#CenturyGothic-65" transform="translate(672.460938 0)"/>
      <use xlink:href="#CenturyGothic-20" transform="translate(737.451172 0)"/>
      <use xlink:href="#CenturyGothic-74" transform="translate(765.136719 0)"/>
      <use xlink:href="#CenturyGothic-6f" transform="translate(799.023438 0)"/>
      <use xlink:href="#CenturyGothic-20" transform="translate(864.501953 0)"/>
      <use xlink:href="#CenturyGothic-32" transform="translate(892.1875 0)"/>
      <use xlink:href="#CenturyGothic-30" transform="translate(947.607422 0)"/>
      <use xlink:href="#CenturyGothic-32" transform="translate(1003.027344 0)"/>
      <use xlink:href="#CenturyGothic-32" transform="translate(1058.447266 0)"/>
      <use xlink:href="#CenturyGothic-2d" transform="translate(1113.867188 0)"/>
      <use xlink:href="#CenturyGothic-30" transform="translate(1147.070312 0)"/>
      <use xlink:href="#CenturyGothic-39" transform="translate(1202.490234 0)"/>
      <use xlink:href="#CenturyGothic-20" transform="translate(1257.910156 0)"/>
      <use xlink:href="#CenturyGothic-28" transform="translate(1285.595703 0)"/>
      <use xlink:href="#CenturyGothic-62" transform="translate(1322.509766 0)"/>
      <use xlink:href="#CenturyGothic-61" transform="translate(1390.722656 0)"/>
      <use xlink:href="#CenturyGothic-73" transform="translate(1459.033203 0)"/>
      <use xlink:href="#CenturyGothic-65" transform="translate(1497.851562 0)"/>
      <use xlink:href="#CenturyGothic-6c" transform="translate(1562.841797 0)"/>
      <use xlink:href="#CenturyGothic-69" transform="translate(1582.861328 0)"/>
      <use xlink:href="#CenturyGothic-6e" transform="translate(1602.880859 0)"/>
      <use xlink:href="#CenturyGothic-65" transform="translate(1663.867188 0)"/>
      <use xlink:href="#CenturyGothic-20" transform="translate(1728.857422 0)"/>
      <use xlink:href="#CenturyGothic-3d" transform="translate(1756.542969 0)"/>
      <use xlink:href="#CenturyGothic-20" transform="translate(1817.138672 0)"/>
      <use xlink:href="#CenturyGothic-2d" transform="translate(1844.824219 0)"/>
      <use xlink:href="#CenturyGothic-31" transform="translate(1878.027344 0)"/>
      <use xlink:href="#CenturyGothic-29" transform="translate(1933.447266 0)"/>
     </g>
    </g>
   </g>
   <g id="matplotlib.axis_2">
    <g id="ytick_1">
     <g id="line2d_8">
      <path d="M 53.61 156.749131 
L 401.303622 156.749131 
" clip-path="url(#p830d60c916)" style="fill: none; stroke: #cccccc; stroke-linecap: square"/>
     </g>
     <g id="line2d_9">
      <defs>
       <path id="m430c3c7067" d="M 0 0 
L -3 0 
" style="stroke: #404040"/>
      </defs>
      <g>
       <use xlink:href="#m430c3c7067" x="53.61" y="156.749131" style="fill: #404040; stroke: #404040"/>
      </g>
     </g>
     <g id="text_9">
      <!-- −1000 -->
      <g style="fill: #404040" transform="translate(21.548594 160.062959) scale(0.09 -0.09)">
       <use xlink:href="#CenturyGothic-Bold-2212"/>
       <use xlink:href="#CenturyGothic-Bold-31" transform="translate(60.009766 0)"/>
       <use xlink:href="#CenturyGothic-Bold-30" transform="translate(116.015625 0)"/>
       <use xlink:href="#CenturyGothic-Bold-30" transform="translate(172.021484 0)"/>
       <use xlink:href="#CenturyGothic-Bold-30" transform="translate(228.027344 0)"/>
      </g>
     </g>
    </g>
    <g id="ytick_2">
     <g id="line2d_10">
      <path d="M 53.61 124.699016 
L 401.303622 124.699016 
" clip-path="url(#p830d60c916)" style="fill: none; stroke: #cccccc; stroke-linecap: square"/>
     </g>
     <g id="line2d_11">
      <g>
       <use xlink:href="#m430c3c7067" x="53.61" y="124.699016" style="fill: #404040; stroke: #404040"/>
      </g>
     </g>
     <g id="text_10">
      <!-- −500 -->
      <g style="fill: #404040" transform="translate(26.588594 128.012844) scale(0.09 -0.09)">
       <defs>
        <path id="CenturyGothic-Bold-35" d="M 1069 4597 
L 3222 4597 
L 3222 3791 
L 1722 3791 
L 1534 2953 
Q 1613 2975 1688 2986 
Q 1763 2997 1831 2997 
Q 2456 2997 2870 2570 
Q 3284 2144 3284 1478 
Q 3284 806 2826 345 
Q 2369 -116 1713 -116 
Q 1125 -116 703 218 
Q 281 553 150 1134 
L 1069 1134 
Q 1175 919 1348 808 
Q 1522 697 1731 697 
Q 2022 697 2225 906 
Q 2428 1116 2428 1444 
Q 2428 1763 2239 1967 
Q 2050 2172 1781 2172 
Q 1638 2172 1498 2100 
Q 1359 2028 1225 1884 
L 513 2044 
L 1069 4597 
z
" transform="scale(0.015625)"/>
       </defs>
       <use xlink:href="#CenturyGothic-Bold-2212"/>
       <use xlink:href="#CenturyGothic-Bold-35" transform="translate(60.009766 0)"/>
       <use xlink:href="#CenturyGothic-Bold-30" transform="translate(116.015625 0)"/>
       <use xlink:href="#CenturyGothic-Bold-30" transform="translate(172.021484 0)"/>
      </g>
     </g>
    </g>
    <g id="ytick_3">
     <g id="line2d_12">
      <path d="M 53.61 92.648901 
L 401.303622 92.648901 
" clip-path="url(#p830d60c916)" style="fill: none; stroke: #cccccc; stroke-linecap: square"/>
     </g>
     <g id="line2d_13">
      <g>
       <use xlink:href="#m430c3c7067" x="53.61" y="92.648901" style="fill: #404040; stroke: #404040"/>
      </g>
     </g>
     <g id="text_11">
      <!-- 0 -->
      <g style="fill: #404040" transform="translate(42.07 95.962729) scale(0.09 -0.09)">
       <use xlink:href="#CenturyGothic-Bold-30"/>
      </g>
     </g>
    </g>
    <g id="ytick_4">
     <g id="line2d_14">
      <path d="M 53.61 60.598786 
L 401.303622 60.598786 
" clip-path="url(#p830d60c916)" style="fill: none; stroke: #cccccc; stroke-linecap: square"/>
     </g>
     <g id="line2d_15">
      <g>
       <use xlink:href="#m430c3c7067" x="53.61" y="60.598786" style="fill: #404040; stroke: #404040"/>
      </g>
     </g>
     <g id="text_12">
      <!-- 500 -->
      <g style="fill: #404040" transform="translate(31.99 63.912614) scale(0.09 -0.09)">
       <use xlink:href="#CenturyGothic-Bold-35"/>
       <use xlink:href="#CenturyGothic-Bold-30" transform="translate(56.005859 0)"/>
       <use xlink:href="#CenturyGothic-Bold-30" transform="translate(112.011719 0)"/>
      </g>
     </g>
    </g>
    <g id="ytick_5">
     <g id="line2d_16">
      <path d="M 53.61 28.548671 
L 401.303622 28.548671 
" clip-path="url(#p830d60c916)" style="fill: none; stroke: #cccccc; stroke-linecap: square"/>
     </g>
     <g id="line2d_17">
      <g>
       <use xlink:href="#m430c3c7067" x="53.61" y="28.548671" style="fill: #404040; stroke: #404040"/>
      </g>
     </g>
     <g id="text_13">
      <!-- 1000 -->
      <g style="fill: #404040" transform="translate(26.95 31.862499) scale(0.09 -0.09)">
       <use xlink:href="#CenturyGothic-Bold-31"/>
       <use xlink:href="#CenturyGothic-Bold-30" transform="translate(56.005859 0)"/>
       <use xlink:href="#CenturyGothic-Bold-30" transform="translate(112.011719 0)"/>
       <use xlink:href="#CenturyGothic-Bold-30" transform="translate(168.017578 0)"/>
      </g>
     </g>
    </g>
    <g id="text_14">
     <!-- SDID gap on contracts -->
     <g transform="translate(15.676875 138.881999) rotate(-90) scale(0.09 -0.09)">
      <defs>
       <path id="CenturyGothic-53" d="M 84 856 
L 475 1091 
Q 888 331 1428 331 
Q 1659 331 1862 439 
Q 2066 547 2172 728 
Q 2278 909 2278 1113 
Q 2278 1344 2122 1566 
Q 1906 1872 1334 2303 
Q 759 2738 619 2931 
Q 375 3256 375 3634 
Q 375 3934 519 4181 
Q 663 4428 923 4570 
Q 1184 4713 1491 4713 
Q 1816 4713 2098 4552 
Q 2381 4391 2697 3959 
L 2322 3675 
Q 2063 4019 1880 4128 
Q 1697 4238 1481 4238 
Q 1203 4238 1026 4069 
Q 850 3900 850 3653 
Q 850 3503 912 3362 
Q 975 3222 1141 3056 
Q 1231 2969 1734 2597 
Q 2331 2156 2553 1812 
Q 2775 1469 2775 1122 
Q 2775 622 2395 253 
Q 2016 -116 1472 -116 
Q 1053 -116 712 107 
Q 372 331 84 856 
z
" transform="scale(0.015625)"/>
       <path id="CenturyGothic-44" d="M 559 0 
L 559 4597 
L 1513 4597 
Q 2544 4597 3009 4431 
Q 3678 4197 4054 3619 
Q 4431 3041 4431 2241 
Q 4431 1550 4132 1025 
Q 3834 500 3357 250 
Q 2881 0 2022 0 
L 559 0 
z
M 1000 434 
L 1531 434 
Q 2484 434 2853 553 
Q 3372 722 3669 1161 
Q 3966 1600 3966 2234 
Q 3966 2900 3644 3372 
Q 3322 3844 2747 4019 
Q 2316 4150 1325 4150 
L 1000 4150 
L 1000 434 
z
" transform="scale(0.015625)"/>
       <path id="CenturyGothic-49" d="M 494 4597 
L 953 4597 
L 953 0 
L 494 0 
L 494 4597 
z
" transform="scale(0.015625)"/>
       <path id="CenturyGothic-67" d="M 3416 3400 
L 3856 3400 
L 3856 691 
Q 3856 -25 3731 -356 
Q 3559 -825 3134 -1078 
Q 2709 -1331 2113 -1331 
Q 1675 -1331 1326 -1207 
Q 978 -1084 759 -876 
Q 541 -669 356 -269 
L 831 -269 
Q 1025 -606 1331 -768 
Q 1638 -931 2091 -931 
Q 2538 -931 2845 -764 
Q 3153 -597 3284 -344 
Q 3416 -91 3416 472 
L 3416 647 
Q 3169 334 2812 167 
Q 2456 0 2056 0 
Q 1588 0 1175 233 
Q 763 466 538 859 
Q 313 1253 313 1725 
Q 313 2197 547 2605 
Q 781 3013 1195 3250 
Q 1609 3488 2069 3488 
Q 2450 3488 2779 3330 
Q 3109 3172 3416 2809 
L 3416 3400 
z
M 2125 3066 
Q 1753 3066 1434 2886 
Q 1116 2706 934 2389 
Q 753 2072 753 1703 
Q 753 1144 1128 778 
Q 1503 413 2100 413 
Q 2703 413 3070 775 
Q 3438 1138 3438 1728 
Q 3438 2113 3269 2414 
Q 3100 2716 2790 2891 
Q 2481 3066 2125 3066 
z
" transform="scale(0.015625)"/>
       <path id="CenturyGothic-70" d="M 494 3400 
L 928 3400 
L 928 2775 
Q 1188 3131 1525 3309 
Q 1863 3488 2278 3488 
Q 3003 3488 3518 2966 
Q 4034 2444 4034 1709 
Q 4034 959 3523 435 
Q 3013 -88 2291 -88 
Q 1884 -88 1543 81 
Q 1203 250 928 584 
L 928 -1244 
L 494 -1244 
L 494 3400 
z
M 2244 3066 
Q 1675 3066 1286 2669 
Q 897 2272 897 1681 
Q 897 1294 1070 984 
Q 1244 675 1567 494 
Q 1891 313 2250 313 
Q 2603 313 2914 495 
Q 3225 678 3409 1006 
Q 3594 1334 3594 1694 
Q 3594 2056 3411 2381 
Q 3228 2706 2918 2886 
Q 2609 3066 2244 3066 
z
" transform="scale(0.015625)"/>
       <path id="CenturyGothic-63" d="M 3788 2694 
L 3441 2478 
Q 2991 3075 2213 3075 
Q 1591 3075 1180 2675 
Q 769 2275 769 1703 
Q 769 1331 958 1003 
Q 1147 675 1476 494 
Q 1806 313 2216 313 
Q 2966 313 3441 909 
L 3788 681 
Q 3544 316 3133 114 
Q 2722 -88 2197 -88 
Q 1391 -88 859 425 
Q 328 938 328 1672 
Q 328 2166 576 2589 
Q 825 3013 1259 3250 
Q 1694 3488 2231 3488 
Q 2569 3488 2883 3384 
Q 3197 3281 3415 3115 
Q 3634 2950 3788 2694 
z
" transform="scale(0.015625)"/>
      </defs>
      <use xlink:href="#CenturyGothic-53"/>
      <use xlink:href="#CenturyGothic-44" transform="translate(49.804688 0)"/>
      <use xlink:href="#CenturyGothic-49" transform="translate(124.21875 0)"/>
      <use xlink:href="#CenturyGothic-44" transform="translate(146.826172 0)"/>
      <use xlink:href="#CenturyGothic-20" transform="translate(221.240234 0)"/>
      <use xlink:href="#CenturyGothic-67" transform="translate(248.925781 0)"/>
      <use xlink:href="#CenturyGothic-61" transform="translate(316.210938 0)"/>
      <use xlink:href="#CenturyGothic-70" transform="translate(384.521484 0)"/>
      <use xlink:href="#CenturyGothic-20" transform="translate(452.734375 0)"/>
      <use xlink:href="#CenturyGothic-6f" transform="translate(480.419922 0)"/>
      <use xlink:href="#CenturyGothic-6e" transform="translate(545.898438 0)"/>
      <use xlink:href="#CenturyGothic-20" transform="translate(606.884766 0)"/>
      <use xlink:href="#CenturyGothic-63" transform="translate(634.570312 0)"/>
      <use xlink:href="#CenturyGothic-6f" transform="translate(699.267578 0)"/>
      <use xlink:href="#CenturyGothic-6e" transform="translate(764.746094 0)"/>
      <use xlink:href="#CenturyGothic-74" transform="translate(825.732422 0)"/>
      <use xlink:href="#CenturyGothic-72" transform="translate(859.619141 0)"/>
      <use xlink:href="#CenturyGothic-61" transform="translate(889.697266 0)"/>
      <use xlink:href="#CenturyGothic-63" transform="translate(958.007812 0)"/>
      <use xlink:href="#CenturyGothic-74" transform="translate(1022.705078 0)"/>
      <use xlink:href="#CenturyGothic-73" transform="translate(1056.591797 0)"/>
     </g>
    </g>
   </g>
   <g id="line2d_18">
    <path d="M 53.61 92.648901 
L 401.303622 92.648901 
" clip-path="url(#p830d60c916)" style="fill: none; stroke: #404040; stroke-width: 0.9; stroke-linecap: square"/>
   </g>
   <g id="line2d_19">
    <path d="M 168.828121 169.451811 
L 168.828121 9.72 
" clip-path="url(#p830d60c916)" style="fill: none; stroke-dasharray: 3.7,1.6; stroke-dashoffset: 0; stroke: #404040"/>
   </g>
   <g id="line2d_20">
    <path d="M 69.414256 113.610212 
L 74.512402 99.395382 
L 79.610549 99.938234 
L 84.708696 97.245381 
L 89.806843 99.295505 
L 94.90499 101.291937 
L 100.003137 119.419125 
L 105.101284 122.802061 
L 110.199431 111.42505 
L 115.297578 105.730088 
L 120.395725 121.849696 
L 125.493872 106.622556 
L 130.592019 110.688814 
L 135.690166 82.690317 
L 140.788313 72.222005 
L 145.88646 80.678982 
L 150.984607 85.117426 
L 156.082754 85.012985 
L 161.180901 88.185849 
L 166.279048 92.648901 
L 171.377195 72.657042 
L 176.475342 68.567501 
L 181.573488 69.152294 
L 186.671635 67.907987 
L 191.769782 72.762984 
L 196.867929 59.980909 
L 201.966076 71.789582 
L 207.064223 66.327193 
L 212.16237 73.004511 
L 217.260517 69.609628 
L 222.358664 74.451507 
L 227.456811 85.473898 
L 232.554958 69.540397 
L 237.653105 65.293913 
L 242.751252 56.36975 
L 247.849399 66.461655 
L 252.947546 74.523166 
L 258.045693 64.584763 
L 263.14384 61.278587 
L 268.241987 66.688151 
L 273.340134 70.460146 
L 278.438281 65.717411 
L 283.536427 77.585834 
L 288.634574 80.496738 
L 293.732721 69.609657 
L 298.830868 75.284585 
L 303.929015 70.784938 
L 309.027162 68.213048 
L 314.125309 76.109003 
L 319.223456 66.106997 
L 324.321603 66.984747 
L 329.41975 65.573791 
L 334.517897 73.959441 
L 339.616044 73.116472 
L 344.714191 92.179297 
L 349.812338 84.951216 
L 354.910485 75.414444 
L 360.008632 74.915355 
L 365.106779 74.9955 
L 370.204926 75.405841 
L 375.303073 83.937619 
L 380.40122 73.3457 
L 385.499366 76.885452 
" clip-path="url(#p830d60c916)" style="fill: none; stroke: #83082a; stroke-width: 1.6; stroke-linecap: square"/>
    <defs>
     <path id="m496af697da" d="M 0 1.6 
C 0.424325 1.6 0.831328 1.431414 1.131371 1.131371 
C 1.431414 0.831328 1.6 0.424325 1.6 0 
C 1.6 -0.424325 1.431414 -0.831328 1.131371 -1.131371 
C 0.831328 -1.431414 0.424325 -1.6 0 -1.6 
C -0.424325 -1.6 -0.831328 -1.431414 -1.131371 -1.131371 
C -1.431414 -0.831328 -1.6 -0.424325 -1.6 0 
C -1.6 0.424325 -1.431414 0.831328 -1.131371 1.131371 
C -0.831328 1.431414 -0.424325 1.6 0 1.6 
z
" style="stroke: #83082a"/>
    </defs>
    <g clip-path="url(#p830d60c916)">
     <use xlink:href="#m496af697da" x="69.414256" y="113.610212" style="fill: #83082a; stroke: #83082a"/>
     <use xlink:href="#m496af697da" x="74.512402" y="99.395382" style="fill: #83082a; stroke: #83082a"/>
     <use xlink:href="#m496af697da" x="79.610549" y="99.938234" style="fill: #83082a; stroke: #83082a"/>
     <use xlink:href="#m496af697da" x="84.708696" y="97.245381" style="fill: #83082a; stroke: #83082a"/>
     <use xlink:href="#m496af697da" x="89.806843" y="99.295505" style="fill: #83082a; stroke: #83082a"/>
     <use xlink:href="#m496af697da" x="94.90499" y="101.291937" style="fill: #83082a; stroke: #83082a"/>
     <use xlink:href="#m496af697da" x="100.003137" y="119.419125" style="fill: #83082a; stroke: #83082a"/>
     <use xlink:href="#m496af697da" x="105.101284" y="122.802061" style="fill: #83082a; stroke: #83082a"/>
     <use xlink:href="#m496af697da" x="110.199431" y="111.42505" style="fill: #83082a; stroke: #83082a"/>
     <use xlink:href="#m496af697da" x="115.297578" y="105.730088" style="fill: #83082a; stroke: #83082a"/>
     <use xlink:href="#m496af697da" x="120.395725" y="121.849696" style="fill: #83082a; stroke: #83082a"/>
     <use xlink:href="#m496af697da" x="125.493872" y="106.622556" style="fill: #83082a; stroke: #83082a"/>
     <use xlink:href="#m496af697da" x="130.592019" y="110.688814" style="fill: #83082a; stroke: #83082a"/>
     <use xlink:href="#m496af697da" x="135.690166" y="82.690317" style="fill: #83082a; stroke: #83082a"/>
     <use xlink:href="#m496af697da" x="140.788313" y="72.222005" style="fill: #83082a; stroke: #83082a"/>
     <use xlink:href="#m496af697da" x="145.88646" y="80.678982" style="fill: #83082a; stroke: #83082a"/>
     <use xlink:href="#m496af697da" x="150.984607" y="85.117426" style="fill: #83082a; stroke: #83082a"/>
     <use xlink:href="#m496af697da" x="156.082754" y="85.012985" style="fill: #83082a; stroke: #83082a"/>
     <use xlink:href="#m496af697da" x="161.180901" y="88.185849" style="fill: #83082a; stroke: #83082a"/>
     <use xlink:href="#m496af697da" x="166.279048" y="92.648901" style="fill: #83082a; stroke: #83082a"/>
     <use xlink:href="#m496af697da" x="171.377195" y="72.657042" style="fill: #83082a; stroke: #83082a"/>
     <use xlink:href="#m496af697da" x="176.475342" y="68.567501" style="fill: #83082a; stroke: #83082a"/>
     <use xlink:href="#m496af697da" x="181.573488" y="69.152294" style="fill: #83082a; stroke: #83082a"/>
     <use xlink:href="#m496af697da" x="186.671635" y="67.907987" style="fill: #83082a; stroke: #83082a"/>
     <use xlink:href="#m496af697da" x="191.769782" y="72.762984" style="fill: #83082a; stroke: #83082a"/>
     <use xlink:href="#m496af697da" x="196.867929" y="59.980909" style="fill: #83082a; stroke: #83082a"/>
     <use xlink:href="#m496af697da" x="201.966076" y="71.789582" style="fill: #83082a; stroke: #83082a"/>
     <use xlink:href="#m496af697da" x="207.064223" y="66.327193" style="fill: #83082a; stroke: #83082a"/>
     <use xlink:href="#m496af697da" x="212.16237" y="73.004511" style="fill: #83082a; stroke: #83082a"/>
     <use xlink:href="#m496af697da" x="217.260517" y="69.609628" style="fill: #83082a; stroke: #83082a"/>
     <use xlink:href="#m496af697da" x="222.358664" y="74.451507" style="fill: #83082a; stroke: #83082a"/>
     <use xlink:href="#m496af697da" x="227.456811" y="85.473898" style="fill: #83082a; stroke: #83082a"/>
     <use xlink:href="#m496af697da" x="232.554958" y="69.540397" style="fill: #83082a; stroke: #83082a"/>
     <use xlink:href="#m496af697da" x="237.653105" y="65.293913" style="fill: #83082a; stroke: #83082a"/>
     <use xlink:href="#m496af697da" x="242.751252" y="56.36975" style="fill: #83082a; stroke: #83082a"/>
     <use xlink:href="#m496af697da" x="247.849399" y="66.461655" style="fill: #83082a; stroke: #83082a"/>
     <use xlink:href="#m496af697da" x="252.947546" y="74.523166" style="fill: #83082a; stroke: #83082a"/>
     <use xlink:href="#m496af697da" x="258.045693" y="64.584763" style="fill: #83082a; stroke: #83082a"/>
     <use xlink:href="#m496af697da" x="263.14384" y="61.278587" style="fill: #83082a; stroke: #83082a"/>
     <use xlink:href="#m496af697da" x="268.241987" y="66.688151" style="fill: #83082a; stroke: #83082a"/>
     <use xlink:href="#m496af697da" x="273.340134" y="70.460146" style="fill: #83082a; stroke: #83082a"/>
     <use xlink:href="#m496af697da" x="278.438281" y="65.717411" style="fill: #83082a; stroke: #83082a"/>
     <use xlink:href="#m496af697da" x="283.536427" y="77.585834" style="fill: #83082a; stroke: #83082a"/>
     <use xlink:href="#m496af697da" x="288.634574" y="80.496738" style="fill: #83082a; stroke: #83082a"/>
     <use xlink:href="#m496af697da" x="293.732721" y="69.609657" style="fill: #83082a; stroke: #83082a"/>
     <use xlink:href="#m496af697da" x="298.830868" y="75.284585" style="fill: #83082a; stroke: #83082a"/>
     <use xlink:href="#m496af697da" x="303.929015" y="70.784938" style="fill: #83082a; stroke: #83082a"/>
     <use xlink:href="#m496af697da" x="309.027162" y="68.213048" style="fill: #83082a; stroke: #83082a"/>
     <use xlink:href="#m496af697da" x="314.125309" y="76.109003" style="fill: #83082a; stroke: #83082a"/>
     <use xlink:href="#m496af697da" x="319.223456" y="66.106997" style="fill: #83082a; stroke: #83082a"/>
     <use xlink:href="#m496af697da" x="324.321603" y="66.984747" style="fill: #83082a; stroke: #83082a"/>
     <use xlink:href="#m496af697da" x="329.41975" y="65.573791" style="fill: #83082a; stroke: #83082a"/>
     <use xlink:href="#m496af697da" x="334.517897" y="73.959441" style="fill: #83082a; stroke: #83082a"/>
     <use xlink:href="#m496af697da" x="339.616044" y="73.116472" style="fill: #83082a; stroke: #83082a"/>
     <use xlink:href="#m496af697da" x="344.714191" y="92.179297" style="fill: #83082a; stroke: #83082a"/>
     <use xlink:href="#m496af697da" x="349.812338" y="84.951216" style="fill: #83082a; stroke: #83082a"/>
     <use xlink:href="#m496af697da" x="354.910485" y="75.414444" style="fill: #83082a; stroke: #83082a"/>
     <use xlink:href="#m496af697da" x="360.008632" y="74.915355" style="fill: #83082a; stroke: #83082a"/>
     <use xlink:href="#m496af697da" x="365.106779" y="74.9955" style="fill: #83082a; stroke: #83082a"/>
     <use xlink:href="#m496af697da" x="370.204926" y="75.405841" style="fill: #83082a; stroke: #83082a"/>
     <use xlink:href="#m496af697da" x="375.303073" y="83.937619" style="fill: #83082a; stroke: #83082a"/>
     <use xlink:href="#m496af697da" x="380.40122" y="73.3457" style="fill: #83082a; stroke: #83082a"/>
     <use xlink:href="#m496af697da" x="385.499366" y="76.885452" style="fill: #83082a; stroke: #83082a"/>
    </g>
   </g>
   <g id="patch_3">
    <path d="M 53.61 169.451811 
L 53.61 9.72 
" style="fill: none; stroke: #404040; stroke-linejoin: miter; stroke-linecap: square"/>
   </g>
   <g id="patch_4">
    <path d="M 53.61 169.451811 
L 401.303622 169.451811 
" style="fill: none; stroke: #404040; stroke-linejoin: miter; stroke-linecap: square"/>
   </g>
  </g>
 </g>
 <defs>
  <clipPath id="p830d60c916">
   <rect x="53.61" y="9.72" width="347.693622" height="159.731811"/>
  </clipPath>
 </defs>
</svg>
