<?xml version="1.0" encoding="UTF-8" standalone="no"?>
<!-- This is a Stata 19.5 generated SVG file (http://www.stata.com) -->

<svg version="1.1" width="6.000in" height="3.000in" viewBox="0 0 4320 2160" xmlns="http://www.w3.org/2000/svg" xmlns:xlink="http://www.w3.org/1999/xlink">
	<desc>Stata Graph - g_levels</desc>
	<rect x="0" y="0" width="4320" height="2160" style="fill:#EAF2F3;stroke:none"/>
	<rect x="0.00" y="0.00" width="4320.00" height="2160.00" style="fill:#FFFFFF"/>
	<rect x="2.16" y="2.16" width="4315.68" height="2155.68" style="fill:none;stroke:#FFFFFF;stroke-width:4.32"/>
	<rect x="224.91" y="0.00" width="4095.09" height="1840.86" style="fill:#FFFFFF"/>
	<rect x="227.07" y="2.16" width="4090.77" height="1836.54" style="fill:none;stroke:#FFFFFF;stroke-width:4.32"/>
	<line x1="224.91" y1="1761.35" x2="4320.00" y2="1761.35" style="stroke:#CCCCCC;stroke-width:6.48"/>
	<line x1="224.91" y1="1343.93" x2="4320.00" y2="1343.93" style="stroke:#CCCCCC;stroke-width:6.48"/>
	<line x1="224.91" y1="926.64" x2="4320.00" y2="926.64" style="stroke:#CCCCCC;stroke-width:6.48"/>
	<line x1="224.91" y1="509.22" x2="4320.00" y2="509.22" style="stroke:#CCCCCC;stroke-width:6.48"/>
	<line x1="224.91" y1="91.80" x2="4320.00" y2="91.80" style="stroke:#CCCCCC;stroke-width:6.48"/>
	<line x1="1530.50" y1="1840.86" x2="1530.50" y2="1797.66" style="stroke:#404040;stroke-width:6.48"/>
	<line x1="1530.50" y1="1776.06" x2="1530.50" y2="1732.86" style="stroke:#404040;stroke-width:6.48"/>
	<line x1="1530.50" y1="1711.26" x2="1530.50" y2="1668.06" style="stroke:#404040;stroke-width:6.48"/>
	<line x1="1530.50" y1="1646.46" x2="1530.50" y2="1603.26" style="stroke:#404040;stroke-width:6.48"/>
	<line x1="1530.50" y1="1581.66" x2="1530.50" y2="1538.46" style="stroke:#404040;stroke-width:6.48"/>
	<line x1="1530.50" y1="1516.86" x2="1530.50" y2="1473.66" style="stroke:#404040;stroke-width:6.48"/>
	<line x1="1530.50" y1="1452.06" x2="1530.50" y2="1408.86" style="stroke:#404040;stroke-width:6.48"/>
	<line x1="1530.50" y1="1387.26" x2="1530.50" y2="1344.06" style="stroke:#404040;stroke-width:6.48"/>
	<line x1="1530.50" y1="1322.46" x2="1530.50" y2="1279.26" style="stroke:#404040;stroke-width:6.48"/>
	<line x1="1530.50" y1="1257.66" x2="1530.50" y2="1214.46" style="stroke:#404040;stroke-width:6.48"/>
	<line x1="1530.50" y1="1192.86" x2="1530.50" y2="1149.66" style="stroke:#404040;stroke-width:6.48"/>
	<line x1="1530.50" y1="1128.06" x2="1530.50" y2="1084.86" style="stroke:#404040;stroke-width:6.48"/>
	<line x1="1530.50" y1="1063.26" x2="1530.50" y2="1020.06" style="stroke:#404040;stroke-width:6.48"/>
	<line x1="1530.50" y1="998.46" x2="1530.50" y2="955.26" style="stroke:#404040;stroke-width:6.48"/>
	<line x1="1530.50" y1="933.66" x2="1530.50" y2="890.46" style="stroke:#404040;stroke-width:6.48"/>
	<line x1="1530.50" y1="868.86" x2="1530.50" y2="825.66" style="stroke:#404040;stroke-width:6.48"/>
	<line x1="1530.50" y1="804.06" x2="1530.50" y2="760.86" style="stroke:#404040;stroke-width:6.48"/>
	<line x1="1530.50" y1="739.26" x2="1530.50" y2="696.06" style="stroke:#404040;stroke-width:6.48"/>
	<line x1="1530.50" y1="674.46" x2="1530.50" y2="631.26" style="stroke:#404040;stroke-width:6.48"/>
	<line x1="1530.50" y1="609.66" x2="1530.50" y2="566.46" style="stroke:#404040;stroke-width:6.48"/>
	<line x1="1530.50" y1="544.86" x2="1530.50" y2="501.66" style="stroke:#404040;stroke-width:6.48"/>
	<line x1="1530.50" y1="480.06" x2="1530.50" y2="436.86" style="stroke:#404040;stroke-width:6.48"/>
	<line x1="1530.50" y1="415.26" x2="1530.50" y2="372.06" style="stroke:#404040;stroke-width:6.48"/>
	<line x1="1530.50" y1="350.46" x2="1530.50" y2="307.26" style="stroke:#404040;stroke-width:6.48"/>
	<line x1="1530.50" y1="285.66" x2="1530.50" y2="242.46" style="stroke:#404040;stroke-width:6.48"/>
	<line x1="1530.50" y1="220.86" x2="1530.50" y2="177.66" style="stroke:#404040;stroke-width:6.48"/>
	<line x1="1530.50" y1="156.06" x2="1530.50" y2="112.86" style="stroke:#404040;stroke-width:6.48"/>
	<line x1="1530.50" y1="91.26" x2="1530.50" y2="48.06" style="stroke:#404040;stroke-width:6.48"/>
	<line x1="1530.50" y1="26.46" x2="1530.50" y2="0.00" style="stroke:#404040;stroke-width:6.48"/>
	<path d=" M272.43 1762.29 L336.96 1770.93 L401.49 1698.57 L466.02 1717.88 L530.42 1689.80 L594.95 1593.41 L659.48 1567.62 L724.01 1759.86 L788.54 1486.22 L853.07 1519.29 L917.60 1530.36 L982.13 1662.93 L1046.66 1645.25 L1111.05 1639.71 L1175.58 1501.07 L1240.11 1631.61 L1304.64 1566.14 L1369.17 1505.25 L1433.70 1558.17 L1498.23 1721.93 L1562.76 1490.94 L1627.29 1571.00 L1691.82 1648.49 L1756.22 1772.01 L1820.75 1714.50 L1885.28 1713.69 L1949.81 1637.96 L2014.34 1730.16 L2078.86 1626.21 L2143.40 1575.59 L2207.93 1630.94 L2272.46 1782.68 L2336.99 1587.20 L2401.38 1598.40 L2465.91 1669.01 L2530.44 1793.48 L2594.97 1693.17 L2659.50 1692.90 L2724.03 1716.39 L2788.56 1662.53 L2853.09 1648.49 L2917.62 1632.02 L2982.15 1590.17 L3046.55 1791.72 L3111.08 1577.34 L3175.61 1561.55 L3240.14 1688.31 L3304.67 1767.02 L3369.20 1687.77 L3433.73 1709.37 L3498.26 1659.15 L3562.79 1712.75 L3627.32 1645.25 L3691.71 1588.01 L3756.24 1573.43 L3820.77 1786.86 L3885.30 1513.08 L3949.83 1553.31 L4014.36 1681.29 L4078.89 1744.88 L4143.42 1711.53 L4207.95 1706.13 L4272.48 1640.12" stroke-linejoin="round" style="fill:none;stroke:#83082A;stroke-width:9.72"/>
	<line x1="272.43" y1="659.47" x2="298.21" y2="694.17" style="stroke:#404040;stroke-width:9.72"/>
	<line x1="311.18" y1="711.45" x2="336.96" y2="745.88" style="stroke:#404040;stroke-width:9.72"/>
	<line x1="336.96" y1="745.88" x2="336.96" y2="745.74" style="stroke:#404040;stroke-width:9.72"/>
	<line x1="345.74" y1="725.90" x2="363.42" y2="686.61" style="stroke:#404040;stroke-width:9.72"/>
	<line x1="372.20" y1="666.77" x2="389.88" y2="627.35" style="stroke:#404040;stroke-width:9.72"/>
	<line x1="398.66" y1="607.64" x2="401.49" y2="601.29" style="stroke:#404040;stroke-width:9.72"/>
	<line x1="401.49" y1="601.29" x2="425.93" y2="628.02" style="stroke:#404040;stroke-width:9.72"/>
	<line x1="440.51" y1="643.95" x2="466.02" y2="672.17" style="stroke:#404040;stroke-width:9.72"/>
	<line x1="466.02" y1="672.17" x2="468.18" y2="667.58" style="stroke:#404040;stroke-width:9.72"/>
	<line x1="477.23" y1="648.00" x2="495.59" y2="608.85" style="stroke:#404040;stroke-width:9.72"/>
	<line x1="504.63" y1="589.14" x2="522.86" y2="549.99" style="stroke:#404040;stroke-width:9.72"/>
	<line x1="531.77" y1="530.42" x2="547.56" y2="490.18" style="stroke:#404040;stroke-width:9.72"/>
	<line x1="555.39" y1="470.07" x2="571.18" y2="429.84" style="stroke:#404040;stroke-width:9.72"/>
	<line x1="579.02" y1="409.72" x2="594.81" y2="369.49" style="stroke:#404040;stroke-width:9.72"/>
	<line x1="616.01" y1="366.26" x2="658.80" y2="360.18" style="stroke:#404040;stroke-width:9.72"/>
	<line x1="663.66" y1="380.70" x2="672.03" y2="423.09" style="stroke:#404040;stroke-width:9.72"/>
	<line x1="676.35" y1="444.29" x2="684.72" y2="486.54" style="stroke:#404040;stroke-width:9.72"/>
	<line x1="688.91" y1="507.73" x2="697.41" y2="550.13" style="stroke:#404040;stroke-width:9.72"/>
	<line x1="701.60" y1="571.32" x2="710.10" y2="613.71" style="stroke:#404040;stroke-width:9.72"/>
	<line x1="714.29" y1="634.91" x2="722.66" y2="677.30" style="stroke:#404040;stroke-width:9.72"/>
	<line x1="726.71" y1="669.06" x2="734.54" y2="626.54" style="stroke:#404040;stroke-width:9.72"/>
	<line x1="738.59" y1="605.34" x2="746.28" y2="562.82" style="stroke:#404040;stroke-width:9.72"/>
	<line x1="750.20" y1="541.62" x2="758.03" y2="499.10" style="stroke:#404040;stroke-width:9.72"/>
	<line x1="761.94" y1="477.90" x2="769.77" y2="435.38" style="stroke:#404040;stroke-width:9.72"/>
	<line x1="773.69" y1="414.18" x2="781.52" y2="371.52" style="stroke:#404040;stroke-width:9.72"/>
	<line x1="785.43" y1="350.33" x2="788.54" y2="332.91" style="stroke:#404040;stroke-width:9.72"/>
	<line x1="788.54" y1="332.91" x2="813.11" y2="326.16" style="stroke:#404040;stroke-width:9.72"/>
	<line x1="834.03" y1="320.36" x2="853.07" y2="315.22" style="stroke:#404040;stroke-width:9.72"/>
	<line x1="853.07" y1="315.22" x2="858.60" y2="292.41" style="stroke:#404040;stroke-width:9.72"/>
	<line x1="863.60" y1="271.35" x2="873.72" y2="229.37" style="stroke:#404040;stroke-width:9.72"/>
	<line x1="878.72" y1="208.31" x2="888.98" y2="166.32" style="stroke:#404040;stroke-width:9.72"/>
	<line x1="893.97" y1="145.39" x2="904.10" y2="103.41" style="stroke:#404040;stroke-width:9.72"/>
	<line x1="909.23" y1="82.35" x2="917.60" y2="47.66" style="stroke:#404040;stroke-width:9.72"/>
	<line x1="917.60" y1="47.66" x2="918.81" y2="55.08" style="stroke:#404040;stroke-width:9.72"/>
	<line x1="922.46" y1="76.28" x2="929.88" y2="118.80" style="stroke:#404040;stroke-width:9.72"/>
	<line x1="933.53" y1="140.13" x2="940.95" y2="182.65" style="stroke:#404040;stroke-width:9.72"/>
	<line x1="944.60" y1="203.85" x2="951.89" y2="246.38" style="stroke:#404040;stroke-width:9.72"/>
	<line x1="955.53" y1="267.70" x2="962.96" y2="310.37" style="stroke:#404040;stroke-width:9.72"/>
	<line x1="966.60" y1="331.56" x2="974.03" y2="374.09" style="stroke:#404040;stroke-width:9.72"/>
	<line x1="977.67" y1="395.42" x2="982.13" y2="420.93" style="stroke:#404040;stroke-width:9.72"/>
	<line x1="982.13" y1="420.93" x2="997.25" y2="429.30" style="stroke:#404040;stroke-width:9.72"/>
	<line x1="1016.01" y1="439.83" x2="1046.66" y2="456.70" style="stroke:#404040;stroke-width:9.72"/>
	<line x1="1046.66" y1="456.70" x2="1048.95" y2="464.67" style="stroke:#404040;stroke-width:9.72"/>
	<line x1="1054.76" y1="485.46" x2="1066.64" y2="527.04" style="stroke:#404040;stroke-width:9.72"/>
	<line x1="1072.58" y1="547.83" x2="1084.32" y2="589.28" style="stroke:#404040;stroke-width:9.72"/>
	<line x1="1090.26" y1="610.07" x2="1102.14" y2="651.78" style="stroke:#404040;stroke-width:9.72"/>
	<line x1="1108.08" y1="672.44" x2="1111.05" y2="683.10" style="stroke:#404040;stroke-width:9.72"/>
	<line x1="1111.05" y1="683.10" x2="1122.12" y2="652.86" style="stroke:#404040;stroke-width:9.72"/>
	<line x1="1129.55" y1="632.61" x2="1144.40" y2="592.11" style="stroke:#404040;stroke-width:9.72"/>
	<line x1="1151.82" y1="571.86" x2="1166.67" y2="531.22" style="stroke:#404040;stroke-width:9.72"/>
	<line x1="1174.10" y1="510.97" x2="1175.58" y2="507.06" style="stroke:#404040;stroke-width:9.72"/>
	<line x1="1175.58" y1="507.06" x2="1189.08" y2="543.65" style="stroke:#404040;stroke-width:9.72"/>
	<line x1="1196.64" y1="563.90" x2="1211.63" y2="604.53" style="stroke:#404040;stroke-width:9.72"/>
	<line x1="1219.05" y1="624.78" x2="1234.04" y2="665.28" style="stroke:#404040;stroke-width:9.72"/>
	<line x1="1241.60" y1="677.70" x2="1257.26" y2="637.47" style="stroke:#404040;stroke-width:9.72"/>
	<line x1="1265.22" y1="617.36" x2="1280.88" y2="576.99" style="stroke:#404040;stroke-width:9.72"/>
	<line x1="1288.71" y1="556.88" x2="1304.37" y2="516.65" style="stroke:#404040;stroke-width:9.72"/>
	<line x1="1322.73" y1="505.85" x2="1360.67" y2="485.06" style="stroke:#404040;stroke-width:9.72"/>
	<line x1="1374.84" y1="490.72" x2="1395.36" y2="528.66" style="stroke:#404040;stroke-width:9.72"/>
	<line x1="1405.76" y1="547.69" x2="1426.28" y2="585.63" style="stroke:#404040;stroke-width:9.72"/>
	<line x1="1434.92" y1="605.20" x2="1443.69" y2="647.60" style="stroke:#404040;stroke-width:9.72"/>
	<line x1="1448.01" y1="668.66" x2="1456.79" y2="710.91" style="stroke:#404040;stroke-width:9.72"/>
	<line x1="1461.24" y1="732.11" x2="1470.02" y2="774.36" style="stroke:#404040;stroke-width:9.72"/>
	<line x1="1474.34" y1="795.42" x2="1483.11" y2="837.81" style="stroke:#404040;stroke-width:9.72"/>
	<line x1="1487.57" y1="858.87" x2="1496.34" y2="901.13" style="stroke:#404040;stroke-width:9.72"/>
	<line x1="1501.34" y1="898.29" x2="1512.14" y2="856.44" style="stroke:#404040;stroke-width:9.72"/>
	<line x1="1517.67" y1="835.52" x2="1528.47" y2="793.67" style="stroke:#404040;stroke-width:9.72"/>
	<line x1="1533.87" y1="772.74" x2="1544.81" y2="730.89" style="stroke:#404040;stroke-width:9.72"/>
	<line x1="1550.34" y1="709.96" x2="1561.14" y2="668.25" style="stroke:#404040;stroke-width:9.72"/>
	<line x1="1573.02" y1="672.57" x2="1602.72" y2="704.03" style="stroke:#404040;stroke-width:9.72"/>
	<line x1="1617.71" y1="719.69" x2="1627.29" y2="729.81" style="stroke:#404040;stroke-width:9.72"/>
	<line x1="1627.29" y1="729.81" x2="1650.78" y2="747.09" style="stroke:#404040;stroke-width:9.72"/>
	<line x1="1668.20" y1="759.92" x2="1691.82" y2="777.33" style="stroke:#404040;stroke-width:9.72"/>
	<line x1="1691.82" y1="777.33" x2="1695.47" y2="790.70" style="stroke:#404040;stroke-width:9.72"/>
	<line x1="1701.14" y1="811.62" x2="1712.34" y2="853.20" style="stroke:#404040;stroke-width:9.72"/>
	<line x1="1718.01" y1="874.13" x2="1729.35" y2="915.84" style="stroke:#404040;stroke-width:9.72"/>
	<line x1="1735.02" y1="936.63" x2="1746.36" y2="978.35" style="stroke:#404040;stroke-width:9.72"/>
	<line x1="1752.03" y1="999.14" x2="1756.22" y2="1014.66" style="stroke:#404040;stroke-width:9.72"/>
	<line x1="1756.22" y1="1014.66" x2="1773.36" y2="993.60" style="stroke:#404040;stroke-width:9.72"/>
	<line x1="1787.00" y1="976.86" x2="1814.27" y2="943.24" style="stroke:#404040;stroke-width:9.72"/>
	<line x1="1824.80" y1="945.81" x2="1840.46" y2="986.04" style="stroke:#404040;stroke-width:9.72"/>
	<line x1="1848.29" y1="1006.16" x2="1863.95" y2="1046.39" style="stroke:#404040;stroke-width:9.72"/>
	<line x1="1871.78" y1="1066.64" x2="1885.28" y2="1101.06" style="stroke:#404040;stroke-width:9.72"/>
	<line x1="1885.28" y1="1101.06" x2="1886.90" y2="1095.12" style="stroke:#404040;stroke-width:9.72"/>
	<line x1="1892.43" y1="1074.20" x2="1903.77" y2="1032.48" style="stroke:#404040;stroke-width:9.72"/>
	<line x1="1909.31" y1="1011.56" x2="1920.51" y2="969.84" style="stroke:#404040;stroke-width:9.72"/>
	<line x1="1926.18" y1="949.05" x2="1937.39" y2="907.20" style="stroke:#404040;stroke-width:9.72"/>
	<line x1="1943.06" y1="886.41" x2="1949.81" y2="861.44" style="stroke:#404040;stroke-width:9.72"/>
	<line x1="1949.81" y1="861.44" x2="1956.02" y2="877.64" style="stroke:#404040;stroke-width:9.72"/>
	<line x1="1963.85" y1="897.75" x2="1979.37" y2="938.12" style="stroke:#404040;stroke-width:9.72"/>
	<line x1="1987.20" y1="958.23" x2="2002.73" y2="998.60" style="stroke:#404040;stroke-width:9.72"/>
	<line x1="2010.42" y1="1018.85" x2="2014.34" y2="1028.84" style="stroke:#404040;stroke-width:9.72"/>
	<line x1="2014.34" y1="1028.84" x2="2023.65" y2="997.79" style="stroke:#404040;stroke-width:9.72"/>
	<line x1="2029.86" y1="977.13" x2="2042.28" y2="935.69" style="stroke:#404040;stroke-width:9.72"/>
	<line x1="2048.49" y1="915.03" x2="2060.91" y2="873.59" style="stroke:#404040;stroke-width:9.72"/>
	<line x1="2067.26" y1="852.93" x2="2078.86" y2="814.19" style="stroke:#404040;stroke-width:9.72"/>
	<line x1="2078.86" y1="814.19" x2="2081.57" y2="814.32" style="stroke:#404040;stroke-width:9.72"/>
	<line x1="2103.03" y1="816.21" x2="2143.40" y2="819.72" style="stroke:#404040;stroke-width:9.72"/>
	<line x1="2143.40" y1="819.72" x2="2145.69" y2="821.07" style="stroke:#404040;stroke-width:9.72"/>
	<line x1="2164.32" y1="832.14" x2="2201.31" y2="854.28" style="stroke:#404040;stroke-width:9.72"/>
	<line x1="2211.71" y1="871.70" x2="2223.18" y2="913.28" style="stroke:#404040;stroke-width:9.72"/>
	<line x1="2228.99" y1="934.07" x2="2240.46" y2="975.65" style="stroke:#404040;stroke-width:9.72"/>
	<line x1="2246.27" y1="996.44" x2="2257.74" y2="1038.02" style="stroke:#404040;stroke-width:9.72"/>
	<line x1="2263.55" y1="1058.81" x2="2272.46" y2="1091.21" style="stroke:#404040;stroke-width:9.72"/>
	<line x1="2272.46" y1="1091.21" x2="2275.56" y2="1082.03" style="stroke:#404040;stroke-width:9.72"/>
	<line x1="2282.31" y1="1061.64" x2="2295.95" y2="1020.60" style="stroke:#404040;stroke-width:9.72"/>
	<line x1="2302.83" y1="1000.08" x2="2316.47" y2="959.04" style="stroke:#404040;stroke-width:9.72"/>
	<line x1="2323.35" y1="938.66" x2="2336.99" y2="897.62" style="stroke:#404040;stroke-width:9.72"/>
	<line x1="2355.89" y1="887.22" x2="2393.82" y2="866.57" style="stroke:#404040;stroke-width:9.72"/>
	<line x1="2413.94" y1="865.89" x2="2455.38" y2="877.64" style="stroke:#404040;stroke-width:9.72"/>
	<line x1="2469.02" y1="890.87" x2="2481.30" y2="932.31" style="stroke:#404040;stroke-width:9.72"/>
	<line x1="2487.38" y1="952.96" x2="2499.66" y2="994.41" style="stroke:#404040;stroke-width:9.72"/>
	<line x1="2505.74" y1="1015.20" x2="2518.02" y2="1056.51" style="stroke:#404040;stroke-width:9.72"/>
	<line x1="2524.09" y1="1077.30" x2="2530.44" y2="1098.49" style="stroke:#404040;stroke-width:9.72"/>
	<line x1="2530.44" y1="1098.49" x2="2540.03" y2="1079.73" style="stroke:#404040;stroke-width:9.72"/>
	<line x1="2549.75" y1="1060.43" x2="2569.32" y2="1021.82" style="stroke:#404040;stroke-width:9.72"/>
	<line x1="2579.04" y1="1002.51" x2="2594.97" y2="970.92" style="stroke:#404040;stroke-width:9.72"/>
	<line x1="2594.97" y1="970.92" x2="2599.70" y2="977.13" style="stroke:#404040;stroke-width:9.72"/>
	<line x1="2612.66" y1="994.41" x2="2638.58" y2="1028.84" style="stroke:#404040;stroke-width:9.72"/>
	<line x1="2651.67" y1="1046.12" x2="2659.50" y2="1056.65" style="stroke:#404040;stroke-width:9.72"/>
	<line x1="2659.50" y1="1056.65" x2="2686.91" y2="1068.93" style="stroke:#404040;stroke-width:9.72"/>
	<line x1="2706.62" y1="1077.71" x2="2724.03" y2="1085.54" style="stroke:#404040;stroke-width:9.72"/>
	<line x1="2724.03" y1="1085.54" x2="2733.89" y2="1063.40" style="stroke:#404040;stroke-width:9.72"/>
	<line x1="2742.66" y1="1043.69" x2="2760.21" y2="1004.27" style="stroke:#404040;stroke-width:9.72"/>
	<line x1="2768.99" y1="984.56" x2="2786.40" y2="945.00" style="stroke:#404040;stroke-width:9.72"/>
	<line x1="2803.01" y1="932.31" x2="2840.67" y2="911.25" style="stroke:#404040;stroke-width:9.72"/>
	<line x1="2860.38" y1="905.45" x2="2903.04" y2="912.06" style="stroke:#404040;stroke-width:9.72"/>
	<line x1="2920.59" y1="908.15" x2="2939.22" y2="869.13" style="stroke:#404040;stroke-width:9.72"/>
	<line x1="2948.54" y1="849.69" x2="2967.17" y2="810.68" style="stroke:#404040;stroke-width:9.72"/>
	<line x1="2976.48" y1="791.10" x2="2982.15" y2="779.09" style="stroke:#404040;stroke-width:9.72"/>
	<line x1="2982.15" y1="779.09" x2="2987.01" y2="808.52" style="stroke:#404040;stroke-width:9.72"/>
	<line x1="2990.66" y1="829.71" x2="2997.81" y2="872.37" style="stroke:#404040;stroke-width:9.72"/>
	<line x1="3001.32" y1="893.70" x2="3008.48" y2="936.36" style="stroke:#404040;stroke-width:9.72"/>
	<line x1="3012.12" y1="957.56" x2="3019.28" y2="1000.21" style="stroke:#404040;stroke-width:9.72"/>
	<line x1="3022.79" y1="1021.55" x2="3029.94" y2="1064.07" style="stroke:#404040;stroke-width:9.72"/>
	<line x1="3033.45" y1="1085.40" x2="3040.61" y2="1127.93" style="stroke:#404040;stroke-width:9.72"/>
	<line x1="3044.25" y1="1149.26" x2="3046.55" y2="1163.16" style="stroke:#404040;stroke-width:9.72"/>
	<line x1="3046.55" y1="1163.16" x2="3053.57" y2="1134.81" style="stroke:#404040;stroke-width:9.72"/>
	<line x1="3058.70" y1="1113.89" x2="3068.96" y2="1071.90" style="stroke:#404040;stroke-width:9.72"/>
	<line x1="3074.22" y1="1050.84" x2="3084.48" y2="1008.99" style="stroke:#404040;stroke-width:9.72"/>
	<line x1="3089.61" y1="987.93" x2="3100.01" y2="946.08" style="stroke:#404040;stroke-width:9.72"/>
	<line x1="3105.14" y1="925.02" x2="3111.08" y2="900.86" style="stroke:#404040;stroke-width:9.72"/>
	<line x1="3111.08" y1="900.86" x2="3118.91" y2="884.39" style="stroke:#404040;stroke-width:9.72"/>
	<line x1="3128.09" y1="864.81" x2="3146.58" y2="825.80" style="stroke:#404040;stroke-width:9.72"/>
	<line x1="3155.90" y1="806.22" x2="3174.39" y2="767.21" style="stroke:#404040;stroke-width:9.72"/>
	<line x1="3183.30" y1="781.79" x2="3201.12" y2="821.07" style="stroke:#404040;stroke-width:9.72"/>
	<line x1="3209.90" y1="840.78" x2="3227.58" y2="880.20" style="stroke:#404040;stroke-width:9.72"/>
	<line x1="3236.49" y1="899.91" x2="3240.14" y2="908.01" style="stroke:#404040;stroke-width:9.72"/>
	<line x1="3240.14" y1="908.01" x2="3254.58" y2="939.20" style="stroke:#404040;stroke-width:9.72"/>
	<line x1="3263.76" y1="958.77" x2="3281.99" y2="997.92" style="stroke:#404040;stroke-width:9.72"/>
	<line x1="3291.17" y1="1017.49" x2="3304.67" y2="1046.66" style="stroke:#404040;stroke-width:9.72"/>
	<line x1="3304.67" y1="1046.66" x2="3311.69" y2="1038.02" style="stroke:#404040;stroke-width:9.72"/>
	<line x1="3325.32" y1="1021.28" x2="3352.46" y2="987.80" style="stroke:#404040;stroke-width:9.72"/>
	<line x1="3366.09" y1="971.06" x2="3369.20" y2="967.28" style="stroke:#404040;stroke-width:9.72"/>
	<line x1="3369.20" y1="967.28" x2="3387.15" y2="1001.30" style="stroke:#404040;stroke-width:9.72"/>
	<line x1="3397.28" y1="1020.33" x2="3417.53" y2="1058.40" style="stroke:#404040;stroke-width:9.72"/>
	<line x1="3427.65" y1="1077.57" x2="3433.73" y2="1089.05" style="stroke:#404040;stroke-width:9.72"/>
	<line x1="3433.73" y1="1089.05" x2="3457.76" y2="1070.69" style="stroke:#404040;stroke-width:9.72"/>
	<line x1="3474.90" y1="1057.59" x2="3498.26" y2="1039.77" style="stroke:#404040;stroke-width:9.72"/>
	<line x1="3498.26" y1="1039.77" x2="3510.68" y2="1045.85" style="stroke:#404040;stroke-width:9.72"/>
	<line x1="3530.12" y1="1055.43" x2="3562.79" y2="1071.49" style="stroke:#404040;stroke-width:9.72"/>
	<line x1="3562.79" y1="1071.49" x2="3565.35" y2="1065.15" style="stroke:#404040;stroke-width:9.72"/>
	<line x1="3573.45" y1="1045.17" x2="3589.65" y2="1005.21" style="stroke:#404040;stroke-width:9.72"/>
	<line x1="3597.75" y1="985.10" x2="3613.95" y2="945.14" style="stroke:#404040;stroke-width:9.72"/>
	<line x1="3622.05" y1="925.16" x2="3627.32" y2="912.06" style="stroke:#404040;stroke-width:9.72"/>
	<line x1="3627.32" y1="912.06" x2="3640.95" y2="886.28" style="stroke:#404040;stroke-width:9.72"/>
	<line x1="3650.94" y1="867.24" x2="3671.19" y2="829.04" style="stroke:#404040;stroke-width:9.72"/>
	<line x1="3681.18" y1="810.00" x2="3691.71" y2="790.02" style="stroke:#404040;stroke-width:9.72"/>
	<line x1="3691.71" y1="790.02" x2="3700.08" y2="771.12" style="stroke:#404040;stroke-width:9.72"/>
	<line x1="3708.72" y1="751.41" x2="3726.14" y2="711.86" style="stroke:#404040;stroke-width:9.72"/>
	<line x1="3734.91" y1="692.01" x2="3752.33" y2="652.45" style="stroke:#404040;stroke-width:9.72"/>
	<line x1="3757.86" y1="655.02" x2="3763.40" y2="697.82" style="stroke:#404040;stroke-width:9.72"/>
	<line x1="3766.23" y1="719.28" x2="3771.90" y2="762.08" style="stroke:#404040;stroke-width:9.72"/>
	<line x1="3774.74" y1="783.41" x2="3780.27" y2="826.34" style="stroke:#404040;stroke-width:9.72"/>
	<line x1="3783.11" y1="847.67" x2="3788.78" y2="890.46" style="stroke:#404040;stroke-width:9.72"/>
	<line x1="3791.61" y1="911.93" x2="3797.15" y2="954.72" style="stroke:#404040;stroke-width:9.72"/>
	<line x1="3799.98" y1="976.19" x2="3805.65" y2="1018.98" style="stroke:#404040;stroke-width:9.72"/>
	<line x1="3808.35" y1="1040.45" x2="3814.02" y2="1083.24" style="stroke:#404040;stroke-width:9.72"/>
	<line x1="3816.86" y1="1104.71" x2="3820.77" y2="1134.41" style="stroke:#404040;stroke-width:9.72"/>
	<line x1="3820.77" y1="1134.41" x2="3822.93" y2="1121.45" style="stroke:#404040;stroke-width:9.72"/>
	<line x1="3826.58" y1="1100.12" x2="3833.73" y2="1057.59" style="stroke:#404040;stroke-width:9.72"/>
	<line x1="3837.24" y1="1036.26" x2="3844.53" y2="993.60" style="stroke:#404040;stroke-width:9.72"/>
	<line x1="3848.04" y1="972.27" x2="3855.20" y2="929.74" style="stroke:#404040;stroke-width:9.72"/>
	<line x1="3858.84" y1="908.42" x2="3866.00" y2="865.89" style="stroke:#404040;stroke-width:9.72"/>
	<line x1="3869.64" y1="844.56" x2="3876.80" y2="801.90" style="stroke:#404040;stroke-width:9.72"/>
	<line x1="3880.31" y1="780.71" x2="3885.30" y2="751.41" style="stroke:#404040;stroke-width:9.72"/>
	<line x1="3885.30" y1="751.41" x2="3898.67" y2="749.12" style="stroke:#404040;stroke-width:9.72"/>
	<line x1="3919.86" y1="745.47" x2="3949.83" y2="740.34" style="stroke:#404040;stroke-width:9.72"/>
	<line x1="3949.83" y1="740.34" x2="3954.69" y2="752.09" style="stroke:#404040;stroke-width:9.72"/>
	<line x1="3962.93" y1="772.20" x2="3979.26" y2="812.16" style="stroke:#404040;stroke-width:9.72"/>
	<line x1="3987.50" y1="832.14" x2="4003.97" y2="872.10" style="stroke:#404040;stroke-width:9.72"/>
	<line x1="4012.20" y1="892.08" x2="4014.36" y2="897.35" style="stroke:#404040;stroke-width:9.72"/>
	<line x1="4014.36" y1="897.35" x2="4038.26" y2="926.23" style="stroke:#404040;stroke-width:9.72"/>
	<line x1="4052.03" y1="942.84" x2="4078.89" y2="975.24" style="stroke:#404040;stroke-width:9.72"/>
	<line x1="4078.89" y1="975.24" x2="4079.97" y2="975.24" style="stroke:#404040;stroke-width:9.72"/>
	<line x1="4101.44" y1="973.48" x2="4143.42" y2="969.97" style="stroke:#404040;stroke-width:9.72"/>
	<line x1="4143.42" y1="969.97" x2="4144.23" y2="970.79" style="stroke:#404040;stroke-width:9.72"/>
	<line x1="4160.43" y1="984.96" x2="4192.83" y2="1013.58" style="stroke:#404040;stroke-width:9.72"/>
	<line x1="4208.49" y1="1025.60" x2="4223.88" y2="985.23" style="stroke:#404040;stroke-width:9.72"/>
	<line x1="4231.58" y1="964.98" x2="4247.10" y2="924.62" style="stroke:#404040;stroke-width:9.72"/>
	<line x1="4254.80" y1="904.50" x2="4270.19" y2="864.14" style="stroke:#404040;stroke-width:9.72"/>
	<path d="" stroke-linejoin="round" style="fill:none;stroke:#404040;stroke-width:9.72"/>
	<line x1="224.91" y1="1840.86" x2="224.91" y2="0.00" style="stroke:#404040;stroke-width:4.32"/>
	<line x1="224.91" y1="1761.35" x2="194.94" y2="1761.35" style="stroke:#000000;stroke-width:4.32"/>
	<text x="179.96" y="1782.36" style="font-family:'Century Gothic';font-size:59.94px;fill:#000000" text-anchor="end">1000</text>
	<line x1="224.91" y1="1343.93" x2="194.94" y2="1343.93" style="stroke:#000000;stroke-width:4.32"/>
	<text x="179.96" y="1364.94" style="font-family:'Century Gothic';font-size:59.94px;fill:#000000" text-anchor="end">2000</text>
	<line x1="224.91" y1="926.64" x2="194.94" y2="926.64" style="stroke:#000000;stroke-width:4.32"/>
	<text x="179.96" y="947.65" style="font-family:'Century Gothic';font-size:59.94px;fill:#000000" text-anchor="end">3000</text>
	<line x1="224.91" y1="509.22" x2="194.94" y2="509.22" style="stroke:#000000;stroke-width:4.32"/>
	<text x="179.96" y="530.23" style="font-family:'Century Gothic';font-size:59.94px;fill:#000000" text-anchor="end">4000</text>
	<line x1="224.91" y1="91.80" x2="194.94" y2="91.80" style="stroke:#000000;stroke-width:4.32"/>
	<text x="179.96" y="112.81" style="font-family:'Century Gothic';font-size:59.94px;fill:#000000" text-anchor="end">5000</text>
	<line x1="224.91" y1="1840.86" x2="4320.00" y2="1840.86" style="stroke:#404040;stroke-width:4.32"/>
	<line x1="272.43" y1="1840.86" x2="272.43" y2="1870.83" style="stroke:#000000;stroke-width:4.32"/>
	<text x="272.43" y="1927.71" style="font-family:'Century Gothic';font-size:59.94px;fill:#000000" text-anchor="middle">-20</text>
	<line x1="1562.76" y1="1840.86" x2="1562.76" y2="1870.83" style="stroke:#000000;stroke-width:4.32"/>
	<text x="1562.76" y="1927.71" style="font-family:'Century Gothic';font-size:59.94px;fill:#000000" text-anchor="middle">0</text>
	<line x1="2853.09" y1="1840.86" x2="2853.09" y2="1870.83" style="stroke:#000000;stroke-width:4.32"/>
	<text x="2853.09" y="1927.71" style="font-family:'Century Gothic';font-size:59.94px;fill:#000000" text-anchor="middle">20</text>
	<line x1="4143.42" y1="1840.86" x2="4143.42" y2="1870.83" style="stroke:#000000;stroke-width:4.32"/>
	<text x="4143.42" y="1927.71" style="font-family:'Century Gothic';font-size:59.94px;fill:#000000" text-anchor="middle">40</text>
	<rect x="1395.90" y="1994.22" width="1753.25" height="139.86" style="fill:#FFFFFF"/>
	<rect x="1398.06" y="1996.38" width="1748.93" height="135.54" style="fill:none;stroke:#EAF2F3;stroke-opacity:0.00;stroke-width:4.32"/>
	<line x1="1428.30" y1="2064.15" x2="1709.10" y2="2064.15" style="stroke:#83082A;stroke-width:9.72"/>
	<line x1="2152.17" y1="2064.15" x2="2195.37" y2="2064.15" style="stroke:#404040;stroke-width:9.72"/>
	<line x1="2216.97" y1="2064.15" x2="2260.17" y2="2064.15" style="stroke:#404040;stroke-width:9.72"/>
	<line x1="2281.77" y1="2064.15" x2="2324.97" y2="2064.15" style="stroke:#404040;stroke-width:9.72"/>
	<line x1="2346.57" y1="2064.15" x2="2389.77" y2="2064.15" style="stroke:#404040;stroke-width:9.72"/>
	<line x1="2411.37" y1="2064.15" x2="2432.97" y2="2064.15" style="stroke:#404040;stroke-width:9.72"/>
	<text x="1754.06" y="2090.45" style="font-family:'Century Gothic';font-size:75.06px;fill:#000000">Treated</text>
	<text x="2477.93" y="2090.45" style="font-family:'Century Gothic';font-size:75.06px;fill:#000000">Synthetic control</text>
</svg>
