<?xml version="1.0" encoding="UTF-8" standalone="no"?>
<!-- This is a Stata 19.5 generated SVG file (http://www.stata.com) -->

<svg version="1.1" width="6.000in" height="3.000in" viewBox="0 0 4320 2160" xmlns="http://www.w3.org/2000/svg" xmlns:xlink="http://www.w3.org/1999/xlink">
	<desc>Stata Graph - g_event</desc>
	<rect x="0" y="0" width="4320" height="2160" style="fill:#EAF2F3;stroke:none"/>
	<rect x="0.00" y="0.00" width="4320.00" height="2160.00" style="fill:#FFFFFF"/>
	<rect x="2.16" y="2.16" width="4315.68" height="2155.68" style="fill:none;stroke:#FFFFFF;stroke-width:4.32"/>
	<rect x="245.97" y="0.00" width="4074.03" height="2032.56" style="fill:#FFFFFF"/>
	<rect x="248.13" y="2.16" width="4069.71" height="2028.24" style="fill:none;stroke:#FFFFFF;stroke-width:4.32"/>
	<line x1="245.97" y1="1985.04" x2="4320.00" y2="1985.04" style="stroke:#CCCCCC;stroke-width:6.48"/>
	<line x1="245.97" y1="1500.66" x2="4320.00" y2="1500.66" style="stroke:#CCCCCC;stroke-width:6.48"/>
	<line x1="245.97" y1="1016.28" x2="4320.00" y2="1016.28" style="stroke:#CCCCCC;stroke-width:6.48"/>
	<line x1="245.97" y1="531.90" x2="4320.00" y2="531.90" style="stroke:#CCCCCC;stroke-width:6.48"/>
	<line x1="245.97" y1="47.52" x2="4320.00" y2="47.52" style="stroke:#CCCCCC;stroke-width:6.48"/>
	<line x1="1588.28" y1="2032.56" x2="1588.28" y2="1989.36" style="stroke:#404040;stroke-width:6.48"/>
	<line x1="1588.28" y1="1967.76" x2="1588.28" y2="1924.56" style="stroke:#404040;stroke-width:6.48"/>
	<line x1="1588.28" y1="1902.96" x2="1588.28" y2="1859.76" style="stroke:#404040;stroke-width:6.48"/>
	<line x1="1588.28" y1="1838.16" x2="1588.28" y2="1794.96" style="stroke:#404040;stroke-width:6.48"/>
	<line x1="1588.28" y1="1773.36" x2="1588.28" y2="1730.16" style="stroke:#404040;stroke-width:6.48"/>
	<line x1="1588.28" y1="1708.56" x2="1588.28" y2="1665.36" style="stroke:#404040;stroke-width:6.48"/>
	<line x1="1588.28" y1="1643.76" x2="1588.28" y2="1600.56" style="stroke:#404040;stroke-width:6.48"/>
	<line x1="1588.28" y1="1578.96" x2="1588.28" y2="1535.76" style="stroke:#404040;stroke-width:6.48"/>
	<line x1="1588.28" y1="1514.16" x2="1588.28" y2="1470.96" style="stroke:#404040;stroke-width:6.48"/>
	<line x1="1588.28" y1="1449.36" x2="1588.28" y2="1406.16" style="stroke:#404040;stroke-width:6.48"/>
	<line x1="1588.28" y1="1384.56" x2="1588.28" y2="1341.36" style="stroke:#404040;stroke-width:6.48"/>
	<line x1="1588.28" y1="1319.76" x2="1588.28" y2="1276.56" style="stroke:#404040;stroke-width:6.48"/>
	<line x1="1588.28" y1="1254.96" x2="1588.28" y2="1211.76" style="stroke:#404040;stroke-width:6.48"/>
	<line x1="1588.28" y1="1190.16" x2="1588.28" y2="1146.96" style="stroke:#404040;stroke-width:6.48"/>
	<line x1="1588.28" y1="1125.36" x2="1588.28" y2="1082.16" style="stroke:#404040;stroke-width:6.48"/>
	<line x1="1588.28" y1="1060.56" x2="1588.28" y2="1017.36" style="stroke:#404040;stroke-width:6.48"/>
	<line x1="1588.28" y1="995.76" x2="1588.28" y2="952.56" style="stroke:#404040;stroke-width:6.48"/>
	<line x1="1588.28" y1="930.96" x2="1588.28" y2="887.76" style="stroke:#404040;stroke-width:6.48"/>
	<line x1="1588.28" y1="866.16" x2="1588.28" y2="822.96" style="stroke:#404040;stroke-width:6.48"/>
	<line x1="1588.28" y1="801.36" x2="1588.28" y2="758.16" style="stroke:#404040;stroke-width:6.48"/>
	<line x1="1588.28" y1="736.56" x2="1588.28" y2="693.36" style="stroke:#404040;stroke-width:6.48"/>
	<line x1="1588.28" y1="671.76" x2="1588.28" y2="628.56" style="stroke:#404040;stroke-width:6.48"/>
	<line x1="1588.28" y1="606.96" x2="1588.28" y2="563.76" style="stroke:#404040;stroke-width:6.48"/>
	<line x1="1588.28" y1="542.16" x2="1588.28" y2="498.96" style="stroke:#404040;stroke-width:6.48"/>
	<line x1="1588.28" y1="477.36" x2="1588.28" y2="434.16" style="stroke:#404040;stroke-width:6.48"/>
	<line x1="1588.28" y1="412.56" x2="1588.28" y2="369.36" style="stroke:#404040;stroke-width:6.48"/>
	<line x1="1588.28" y1="347.76" x2="1588.28" y2="304.56" style="stroke:#404040;stroke-width:6.48"/>
	<line x1="1588.28" y1="282.96" x2="1588.28" y2="239.76" style="stroke:#404040;stroke-width:6.48"/>
	<line x1="1588.28" y1="218.16" x2="1588.28" y2="174.96" style="stroke:#404040;stroke-width:6.48"/>
	<line x1="1588.28" y1="153.36" x2="1588.28" y2="110.16" style="stroke:#404040;stroke-width:6.48"/>
	<line x1="1588.28" y1="88.56" x2="1588.28" y2="45.36" style="stroke:#404040;stroke-width:6.48"/>
	<line x1="1588.28" y1="23.76" x2="1588.28" y2="0.00" style="stroke:#404040;stroke-width:6.48"/>
	<line x1="245.97" y1="1016.28" x2="4320.00" y2="1016.28" style="stroke:#404040;stroke-width:6.48"/>
	<line x1="293.49" y1="881.55" x2="293.49" y2="1467.59" style="stroke:#E397A0;stroke-width:6.48"/>
	<line x1="277.02" y1="1467.59" x2="309.96" y2="1467.59" stroke-linecap="round" style="stroke:#E397A0;stroke-width:6.48"/>
	<line x1="277.02" y1="881.55" x2="309.96" y2="881.55" stroke-linecap="round" style="stroke:#E397A0;stroke-width:6.48"/>
	<line x1="356.67" y1="753.84" x2="356.67" y2="1351.89" style="stroke:#E397A0;stroke-width:6.48"/>
	<line x1="340.20" y1="1351.89" x2="373.14" y2="1351.89" stroke-linecap="round" style="stroke:#E397A0;stroke-width:6.48"/>
	<line x1="340.20" y1="753.84" x2="373.14" y2="753.84" stroke-linecap="round" style="stroke:#E397A0;stroke-width:6.48"/>
	<line x1="419.85" y1="896.40" x2="419.85" y2="1293.97" style="stroke:#E397A0;stroke-width:6.48"/>
	<line x1="403.38" y1="1293.97" x2="436.32" y2="1293.97" stroke-linecap="round" style="stroke:#E397A0;stroke-width:6.48"/>
	<line x1="403.38" y1="896.40" x2="436.32" y2="896.40" stroke-linecap="round" style="stroke:#E397A0;stroke-width:6.48"/>
	<line x1="482.90" y1="862.65" x2="482.90" y2="1241.05" style="stroke:#E397A0;stroke-width:6.48"/>
	<line x1="466.43" y1="1241.05" x2="499.37" y2="1241.05" stroke-linecap="round" style="stroke:#E397A0;stroke-width:6.48"/>
	<line x1="466.43" y1="862.65" x2="499.37" y2="862.65" stroke-linecap="round" style="stroke:#E397A0;stroke-width:6.48"/>
	<line x1="546.08" y1="1029.51" x2="546.08" y2="1376.19" style="stroke:#E397A0;stroke-width:6.48"/>
	<line x1="529.61" y1="1376.19" x2="562.54" y2="1376.19" stroke-linecap="round" style="stroke:#E397A0;stroke-width:6.48"/>
	<line x1="529.61" y1="1029.51" x2="562.54" y2="1029.51" stroke-linecap="round" style="stroke:#E397A0;stroke-width:6.48"/>
	<line x1="609.26" y1="874.80" x2="609.26" y2="1645.65" style="stroke:#E397A0;stroke-width:6.48"/>
	<line x1="592.79" y1="1645.65" x2="625.73" y2="1645.65" stroke-linecap="round" style="stroke:#E397A0;stroke-width:6.48"/>
	<line x1="592.79" y1="874.80" x2="625.73" y2="874.80" stroke-linecap="round" style="stroke:#E397A0;stroke-width:6.48"/>
	<line x1="672.44" y1="1196.37" x2="672.44" y2="1871.24" style="stroke:#E397A0;stroke-width:6.48"/>
	<line x1="655.97" y1="1871.24" x2="688.91" y2="1871.24" stroke-linecap="round" style="stroke:#E397A0;stroke-width:6.48"/>
	<line x1="655.97" y1="1196.37" x2="688.91" y2="1196.37" stroke-linecap="round" style="stroke:#E397A0;stroke-width:6.48"/>
	<line x1="735.62" y1="1119.15" x2="735.62" y2="1729.89" style="stroke:#E397A0;stroke-width:6.48"/>
	<line x1="719.15" y1="1729.89" x2="752.09" y2="1729.89" stroke-linecap="round" style="stroke:#E397A0;stroke-width:6.48"/>
	<line x1="719.15" y1="1119.15" x2="752.09" y2="1119.15" stroke-linecap="round" style="stroke:#E397A0;stroke-width:6.48"/>
	<line x1="798.80" y1="1111.05" x2="798.80" y2="1705.32" style="stroke:#E397A0;stroke-width:6.48"/>
	<line x1="782.33" y1="1705.32" x2="815.27" y2="1705.32" stroke-linecap="round" style="stroke:#E397A0;stroke-width:6.48"/>
	<line x1="782.33" y1="1111.05" x2="815.27" y2="1111.05" stroke-linecap="round" style="stroke:#E397A0;stroke-width:6.48"/>
	<line x1="861.84" y1="1063.80" x2="861.84" y2="1709.37" style="stroke:#E397A0;stroke-width:6.48"/>
	<line x1="845.37" y1="1709.37" x2="878.31" y2="1709.37" stroke-linecap="round" style="stroke:#E397A0;stroke-width:6.48"/>
	<line x1="845.37" y1="1063.80" x2="878.31" y2="1063.80" stroke-linecap="round" style="stroke:#E397A0;stroke-width:6.48"/>
	<line x1="925.02" y1="1095.26" x2="925.02" y2="1888.65" style="stroke:#E397A0;stroke-width:6.48"/>
	<line x1="908.55" y1="1888.65" x2="941.49" y2="1888.65" stroke-linecap="round" style="stroke:#E397A0;stroke-width:6.48"/>
	<line x1="908.55" y1="1095.26" x2="941.49" y2="1095.26" stroke-linecap="round" style="stroke:#E397A0;stroke-width:6.48"/>
	<line x1="988.20" y1="994.28" x2="988.20" y2="1488.38" style="stroke:#E397A0;stroke-width:6.48"/>
	<line x1="971.73" y1="1488.38" x2="1004.67" y2="1488.38" stroke-linecap="round" style="stroke:#E397A0;stroke-width:6.48"/>
	<line x1="971.73" y1="994.28" x2="1004.67" y2="994.28" stroke-linecap="round" style="stroke:#E397A0;stroke-width:6.48"/>
	<line x1="1051.38" y1="949.46" x2="1051.38" y2="1467.18" style="stroke:#E397A0;stroke-width:6.48"/>
	<line x1="1034.91" y1="1467.18" x2="1067.85" y2="1467.18" stroke-linecap="round" style="stroke:#E397A0;stroke-width:6.48"/>
	<line x1="1034.91" y1="949.46" x2="1067.85" y2="949.46" stroke-linecap="round" style="stroke:#E397A0;stroke-width:6.48"/>
	<line x1="1114.56" y1="867.92" x2="1114.56" y2="1126.17" style="stroke:#E397A0;stroke-width:6.48"/>
	<line x1="1098.09" y1="1126.17" x2="1131.03" y2="1126.17" stroke-linecap="round" style="stroke:#E397A0;stroke-width:6.48"/>
	<line x1="1098.09" y1="867.92" x2="1131.03" y2="867.92" stroke-linecap="round" style="stroke:#E397A0;stroke-width:6.48"/>
	<line x1="1177.74" y1="707.94" x2="1177.74" y2="1193.67" style="stroke:#E397A0;stroke-width:6.48"/>
	<line x1="1161.27" y1="1193.67" x2="1194.21" y2="1193.67" stroke-linecap="round" style="stroke:#E397A0;stroke-width:6.48"/>
	<line x1="1161.27" y1="707.94" x2="1194.21" y2="707.94" stroke-linecap="round" style="stroke:#E397A0;stroke-width:6.48"/>
	<line x1="1240.79" y1="797.04" x2="1240.79" y2="1116.59" style="stroke:#E397A0;stroke-width:6.48"/>
	<line x1="1224.32" y1="1116.59" x2="1257.26" y2="1116.59" stroke-linecap="round" style="stroke:#E397A0;stroke-width:6.48"/>
	<line x1="1224.32" y1="797.04" x2="1257.26" y2="797.04" stroke-linecap="round" style="stroke:#E397A0;stroke-width:6.48"/>
	<line x1="1303.96" y1="882.77" x2="1303.96" y2="1325.03" style="stroke:#E397A0;stroke-width:6.48"/>
	<line x1="1287.49" y1="1325.03" x2="1320.44" y2="1325.03" stroke-linecap="round" style="stroke:#E397A0;stroke-width:6.48"/>
	<line x1="1287.49" y1="882.77" x2="1320.44" y2="882.77" stroke-linecap="round" style="stroke:#E397A0;stroke-width:6.48"/>
	<line x1="1367.15" y1="764.91" x2="1367.15" y2="1481.76" style="stroke:#E397A0;stroke-width:6.48"/>
	<line x1="1350.68" y1="1481.76" x2="1383.62" y2="1481.76" stroke-linecap="round" style="stroke:#E397A0;stroke-width:6.48"/>
	<line x1="1350.68" y1="764.91" x2="1383.62" y2="764.91" stroke-linecap="round" style="stroke:#E397A0;stroke-width:6.48"/>
	<line x1="1430.33" y1="837.00" x2="1430.33" y2="1469.48" style="stroke:#E397A0;stroke-width:6.48"/>
	<line x1="1413.86" y1="1469.48" x2="1446.80" y2="1469.48" stroke-linecap="round" style="stroke:#E397A0;stroke-width:6.48"/>
	<line x1="1413.86" y1="837.00" x2="1446.80" y2="837.00" stroke-linecap="round" style="stroke:#E397A0;stroke-width:6.48"/>
	<line x1="1493.51" y1="860.63" x2="1493.51" y2="1316.25" style="stroke:#E397A0;stroke-width:6.48"/>
	<line x1="1477.04" y1="1316.25" x2="1509.98" y2="1316.25" stroke-linecap="round" style="stroke:#E397A0;stroke-width:6.48"/>
	<line x1="1477.04" y1="860.63" x2="1509.98" y2="860.63" stroke-linecap="round" style="stroke:#E397A0;stroke-width:6.48"/>
	<line x1="1619.87" y1="689.98" x2="1619.87" y2="1135.21" style="stroke:#E397A0;stroke-width:6.48"/>
	<line x1="1603.40" y1="1135.21" x2="1636.34" y2="1135.21" stroke-linecap="round" style="stroke:#E397A0;stroke-width:6.48"/>
	<line x1="1603.40" y1="689.98" x2="1636.34" y2="689.98" stroke-linecap="round" style="stroke:#E397A0;stroke-width:6.48"/>
	<line x1="1682.91" y1="671.36" x2="1682.91" y2="1102.68" style="stroke:#E397A0;stroke-width:6.48"/>
	<line x1="1666.44" y1="1102.68" x2="1699.38" y2="1102.68" stroke-linecap="round" style="stroke:#E397A0;stroke-width:6.48"/>
	<line x1="1666.44" y1="671.36" x2="1699.38" y2="671.36" stroke-linecap="round" style="stroke:#E397A0;stroke-width:6.48"/>
	<line x1="1746.09" y1="428.63" x2="1746.09" y2="1017.49" style="stroke:#E397A0;stroke-width:6.48"/>
	<line x1="1729.62" y1="1017.49" x2="1762.56" y2="1017.49" stroke-linecap="round" style="stroke:#E397A0;stroke-width:6.48"/>
	<line x1="1729.62" y1="428.63" x2="1762.56" y2="428.63" stroke-linecap="round" style="stroke:#E397A0;stroke-width:6.48"/>
	<line x1="1809.27" y1="475.20" x2="1809.27" y2="956.47" style="stroke:#E397A0;stroke-width:6.48"/>
	<line x1="1792.80" y1="956.47" x2="1825.74" y2="956.47" stroke-linecap="round" style="stroke:#E397A0;stroke-width:6.48"/>
	<line x1="1792.80" y1="475.20" x2="1825.74" y2="475.20" stroke-linecap="round" style="stroke:#E397A0;stroke-width:6.48"/>
	<line x1="1872.45" y1="613.31" x2="1872.45" y2="970.24" style="stroke:#E397A0;stroke-width:6.48"/>
	<line x1="1855.98" y1="970.24" x2="1888.92" y2="970.24" stroke-linecap="round" style="stroke:#E397A0;stroke-width:6.48"/>
	<line x1="1855.98" y1="613.31" x2="1888.92" y2="613.31" stroke-linecap="round" style="stroke:#E397A0;stroke-width:6.48"/>
	<line x1="1935.63" y1="421.88" x2="1935.63" y2="929.07" style="stroke:#E397A0;stroke-width:6.48"/>
	<line x1="1919.16" y1="929.07" x2="1952.10" y2="929.07" stroke-linecap="round" style="stroke:#E397A0;stroke-width:6.48"/>
	<line x1="1919.16" y1="421.88" x2="1952.10" y2="421.88" stroke-linecap="round" style="stroke:#E397A0;stroke-width:6.48"/>
	<line x1="1998.81" y1="650.03" x2="1998.81" y2="945.27" style="stroke:#E397A0;stroke-width:6.48"/>
	<line x1="1982.34" y1="945.27" x2="2015.28" y2="945.27" stroke-linecap="round" style="stroke:#E397A0;stroke-width:6.48"/>
	<line x1="1982.34" y1="650.03" x2="2015.28" y2="650.03" stroke-linecap="round" style="stroke:#E397A0;stroke-width:6.48"/>
	<line x1="2061.86" y1="552.42" x2="2061.86" y2="983.61" style="stroke:#E397A0;stroke-width:6.48"/>
	<line x1="2045.39" y1="983.61" x2="2078.32" y2="983.61" stroke-linecap="round" style="stroke:#E397A0;stroke-width:6.48"/>
	<line x1="2045.39" y1="552.42" x2="2078.32" y2="552.42" stroke-linecap="round" style="stroke:#E397A0;stroke-width:6.48"/>
	<line x1="2125.04" y1="697.68" x2="2125.04" y2="1066.91" style="stroke:#E397A0;stroke-width:6.48"/>
	<line x1="2108.57" y1="1066.91" x2="2141.51" y2="1066.91" stroke-linecap="round" style="stroke:#E397A0;stroke-width:6.48"/>
	<line x1="2108.57" y1="697.68" x2="2141.51" y2="697.68" stroke-linecap="round" style="stroke:#E397A0;stroke-width:6.48"/>
	<line x1="2188.22" y1="580.23" x2="2188.22" y2="1119.96" style="stroke:#E397A0;stroke-width:6.48"/>
	<line x1="2171.75" y1="1119.96" x2="2204.69" y2="1119.96" stroke-linecap="round" style="stroke:#E397A0;stroke-width:6.48"/>
	<line x1="2171.75" y1="580.23" x2="2204.69" y2="580.23" stroke-linecap="round" style="stroke:#E397A0;stroke-width:6.48"/>
	<line x1="2251.40" y1="629.37" x2="2251.40" y2="1169.51" style="stroke:#E397A0;stroke-width:6.48"/>
	<line x1="2234.93" y1="1169.51" x2="2267.86" y2="1169.51" stroke-linecap="round" style="stroke:#E397A0;stroke-width:6.48"/>
	<line x1="2234.93" y1="629.37" x2="2267.86" y2="629.37" stroke-linecap="round" style="stroke:#E397A0;stroke-width:6.48"/>
	<line x1="2314.57" y1="637.07" x2="2314.57" y2="1241.33" style="stroke:#E397A0;stroke-width:6.48"/>
	<line x1="2298.11" y1="1241.33" x2="2331.05" y2="1241.33" stroke-linecap="round" style="stroke:#E397A0;stroke-width:6.48"/>
	<line x1="2298.11" y1="637.07" x2="2331.05" y2="637.07" stroke-linecap="round" style="stroke:#E397A0;stroke-width:6.48"/>
	<line x1="2377.76" y1="640.31" x2="2377.76" y2="974.97" style="stroke:#E397A0;stroke-width:6.48"/>
	<line x1="2361.29" y1="974.97" x2="2394.23" y2="974.97" stroke-linecap="round" style="stroke:#E397A0;stroke-width:6.48"/>
	<line x1="2361.29" y1="640.31" x2="2394.23" y2="640.31" stroke-linecap="round" style="stroke:#E397A0;stroke-width:6.48"/>
	<line x1="2440.94" y1="594.00" x2="2440.94" y2="988.74" style="stroke:#E397A0;stroke-width:6.48"/>
	<line x1="2424.47" y1="988.74" x2="2457.41" y2="988.74" stroke-linecap="round" style="stroke:#E397A0;stroke-width:6.48"/>
	<line x1="2424.47" y1="594.00" x2="2457.41" y2="594.00" stroke-linecap="round" style="stroke:#E397A0;stroke-width:6.48"/>
	<line x1="2503.98" y1="158.36" x2="2503.98" y2="988.74" style="stroke:#E397A0;stroke-width:6.48"/>
	<line x1="2487.51" y1="988.74" x2="2520.45" y2="988.74" stroke-linecap="round" style="stroke:#E397A0;stroke-width:6.48"/>
	<line x1="2487.51" y1="158.36" x2="2520.45" y2="158.36" stroke-linecap="round" style="stroke:#E397A0;stroke-width:6.48"/>
	<line x1="2567.16" y1="444.42" x2="2567.16" y2="980.10" style="stroke:#E397A0;stroke-width:6.48"/>
	<line x1="2550.69" y1="980.10" x2="2583.63" y2="980.10" stroke-linecap="round" style="stroke:#E397A0;stroke-width:6.48"/>
	<line x1="2550.69" y1="444.42" x2="2583.63" y2="444.42" stroke-linecap="round" style="stroke:#E397A0;stroke-width:6.48"/>
	<line x1="2630.34" y1="599.67" x2="2630.34" y2="947.30" style="stroke:#E397A0;stroke-width:6.48"/>
	<line x1="2613.87" y1="947.30" x2="2646.81" y2="947.30" stroke-linecap="round" style="stroke:#E397A0;stroke-width:6.48"/>
	<line x1="2613.87" y1="599.67" x2="2646.81" y2="599.67" stroke-linecap="round" style="stroke:#E397A0;stroke-width:6.48"/>
	<line x1="2693.52" y1="465.35" x2="2693.52" y2="923.27" style="stroke:#E397A0;stroke-width:6.48"/>
	<line x1="2677.05" y1="923.27" x2="2709.99" y2="923.27" stroke-linecap="round" style="stroke:#E397A0;stroke-width:6.48"/>
	<line x1="2677.05" y1="465.35" x2="2709.99" y2="465.35" stroke-linecap="round" style="stroke:#E397A0;stroke-width:6.48"/>
	<line x1="2756.70" y1="440.91" x2="2756.70" y2="935.55" style="stroke:#E397A0;stroke-width:6.48"/>
	<line x1="2740.23" y1="935.55" x2="2773.17" y2="935.55" stroke-linecap="round" style="stroke:#E397A0;stroke-width:6.48"/>
	<line x1="2740.23" y1="440.91" x2="2773.17" y2="440.91" stroke-linecap="round" style="stroke:#E397A0;stroke-width:6.48"/>
	<line x1="2819.88" y1="543.38" x2="2819.88" y2="998.06" style="stroke:#E397A0;stroke-width:6.48"/>
	<line x1="2803.41" y1="998.06" x2="2836.35" y2="998.06" stroke-linecap="round" style="stroke:#E397A0;stroke-width:6.48"/>
	<line x1="2803.41" y1="543.38" x2="2836.35" y2="543.38" stroke-linecap="round" style="stroke:#E397A0;stroke-width:6.48"/>
	<line x1="2882.93" y1="611.28" x2="2882.93" y2="1094.85" style="stroke:#E397A0;stroke-width:6.48"/>
	<line x1="2866.46" y1="1094.85" x2="2899.40" y2="1094.85" stroke-linecap="round" style="stroke:#E397A0;stroke-width:6.48"/>
	<line x1="2866.46" y1="611.28" x2="2899.40" y2="611.28" stroke-linecap="round" style="stroke:#E397A0;stroke-width:6.48"/>
	<line x1="2946.11" y1="515.97" x2="2946.11" y2="1026.00" style="stroke:#E397A0;stroke-width:6.48"/>
	<line x1="2929.64" y1="1026.00" x2="2962.58" y2="1026.00" stroke-linecap="round" style="stroke:#E397A0;stroke-width:6.48"/>
	<line x1="2929.64" y1="515.97" x2="2962.58" y2="515.97" stroke-linecap="round" style="stroke:#E397A0;stroke-width:6.48"/>
	<line x1="3009.29" y1="604.53" x2="3009.29" y2="1254.55" style="stroke:#E397A0;stroke-width:6.48"/>
	<line x1="2992.82" y1="1254.55" x2="3025.76" y2="1254.55" stroke-linecap="round" style="stroke:#E397A0;stroke-width:6.48"/>
	<line x1="2992.82" y1="604.53" x2="3025.76" y2="604.53" stroke-linecap="round" style="stroke:#E397A0;stroke-width:6.48"/>
	<line x1="3072.47" y1="542.57" x2="3072.47" y2="1209.20" style="stroke:#E397A0;stroke-width:6.48"/>
	<line x1="3056.00" y1="1209.20" x2="3088.94" y2="1209.20" stroke-linecap="round" style="stroke:#E397A0;stroke-width:6.48"/>
	<line x1="3056.00" y1="542.57" x2="3088.94" y2="542.57" stroke-linecap="round" style="stroke:#E397A0;stroke-width:6.48"/>
	<line x1="3135.65" y1="658.94" x2="3135.65" y2="1019.39" style="stroke:#E397A0;stroke-width:6.48"/>
	<line x1="3119.18" y1="1019.39" x2="3152.12" y2="1019.39" stroke-linecap="round" style="stroke:#E397A0;stroke-width:6.48"/>
	<line x1="3119.18" y1="658.94" x2="3152.12" y2="658.94" stroke-linecap="round" style="stroke:#E397A0;stroke-width:6.48"/>
	<line x1="3198.83" y1="684.72" x2="3198.83" y2="1142.78" style="stroke:#E397A0;stroke-width:6.48"/>
	<line x1="3182.36" y1="1142.78" x2="3215.30" y2="1142.78" stroke-linecap="round" style="stroke:#E397A0;stroke-width:6.48"/>
	<line x1="3182.36" y1="684.72" x2="3215.30" y2="684.72" stroke-linecap="round" style="stroke:#E397A0;stroke-width:6.48"/>
	<line x1="3261.87" y1="514.89" x2="3261.87" y2="948.51" style="stroke:#E397A0;stroke-width:6.48"/>
	<line x1="3245.40" y1="948.51" x2="3278.34" y2="948.51" stroke-linecap="round" style="stroke:#E397A0;stroke-width:6.48"/>
	<line x1="3245.40" y1="514.89" x2="3278.34" y2="514.89" stroke-linecap="round" style="stroke:#E397A0;stroke-width:6.48"/>
	<line x1="3325.05" y1="427.41" x2="3325.05" y2="993.73" style="stroke:#E397A0;stroke-width:6.48"/>
	<line x1="3308.58" y1="993.73" x2="3341.52" y2="993.73" stroke-linecap="round" style="stroke:#E397A0;stroke-width:6.48"/>
	<line x1="3308.58" y1="427.41" x2="3341.52" y2="427.41" stroke-linecap="round" style="stroke:#E397A0;stroke-width:6.48"/>
	<line x1="3388.23" y1="602.37" x2="3388.23" y2="977.13" style="stroke:#E397A0;stroke-width:6.48"/>
	<line x1="3371.76" y1="977.13" x2="3404.70" y2="977.13" stroke-linecap="round" style="stroke:#E397A0;stroke-width:6.48"/>
	<line x1="3371.76" y1="602.37" x2="3404.70" y2="602.37" stroke-linecap="round" style="stroke:#E397A0;stroke-width:6.48"/>
	<line x1="3451.41" y1="440.37" x2="3451.41" y2="963.22" style="stroke:#E397A0;stroke-width:6.48"/>
	<line x1="3434.94" y1="963.22" x2="3467.88" y2="963.22" stroke-linecap="round" style="stroke:#E397A0;stroke-width:6.48"/>
	<line x1="3434.94" y1="440.37" x2="3467.88" y2="440.37" stroke-linecap="round" style="stroke:#E397A0;stroke-width:6.48"/>
	<line x1="3514.59" y1="453.06" x2="3514.59" y2="955.80" style="stroke:#E397A0;stroke-width:6.48"/>
	<line x1="3498.12" y1="955.80" x2="3531.06" y2="955.80" stroke-linecap="round" style="stroke:#E397A0;stroke-width:6.48"/>
	<line x1="3498.12" y1="453.06" x2="3531.06" y2="453.06" stroke-linecap="round" style="stroke:#E397A0;stroke-width:6.48"/>
	<line x1="3577.77" y1="458.87" x2="3577.77" y2="987.80" style="stroke:#E397A0;stroke-width:6.48"/>
	<line x1="3561.30" y1="987.80" x2="3594.24" y2="987.80" stroke-linecap="round" style="stroke:#E397A0;stroke-width:6.48"/>
	<line x1="3561.30" y1="458.87" x2="3594.24" y2="458.87" stroke-linecap="round" style="stroke:#E397A0;stroke-width:6.48"/>
	<line x1="3640.95" y1="594.00" x2="3640.95" y2="1122.53" style="stroke:#E397A0;stroke-width:6.48"/>
	<line x1="3624.48" y1="1122.53" x2="3657.42" y2="1122.53" stroke-linecap="round" style="stroke:#E397A0;stroke-width:6.48"/>
	<line x1="3624.48" y1="594.00" x2="3657.42" y2="594.00" stroke-linecap="round" style="stroke:#E397A0;stroke-width:6.48"/>
	<line x1="3704.00" y1="526.91" x2="3704.00" y2="1166.26" style="stroke:#E397A0;stroke-width:6.48"/>
	<line x1="3687.53" y1="1166.26" x2="3720.47" y2="1166.26" stroke-linecap="round" style="stroke:#E397A0;stroke-width:6.48"/>
	<line x1="3687.53" y1="526.91" x2="3720.47" y2="526.91" stroke-linecap="round" style="stroke:#E397A0;stroke-width:6.48"/>
	<line x1="3767.18" y1="729.68" x2="3767.18" y2="1455.98" style="stroke:#E397A0;stroke-width:6.48"/>
	<line x1="3750.71" y1="1455.98" x2="3783.65" y2="1455.98" stroke-linecap="round" style="stroke:#E397A0;stroke-width:6.48"/>
	<line x1="3750.71" y1="729.68" x2="3783.65" y2="729.68" stroke-linecap="round" style="stroke:#E397A0;stroke-width:6.48"/>
	<line x1="3830.36" y1="552.69" x2="3830.36" y2="1275.62" style="stroke:#E397A0;stroke-width:6.48"/>
	<line x1="3813.89" y1="1275.62" x2="3846.83" y2="1275.62" stroke-linecap="round" style="stroke:#E397A0;stroke-width:6.48"/>
	<line x1="3813.89" y1="552.69" x2="3846.83" y2="552.69" stroke-linecap="round" style="stroke:#E397A0;stroke-width:6.48"/>
	<line x1="3893.54" y1="641.25" x2="3893.54" y2="1108.62" style="stroke:#E397A0;stroke-width:6.48"/>
	<line x1="3877.07" y1="1108.62" x2="3910.01" y2="1108.62" stroke-linecap="round" style="stroke:#E397A0;stroke-width:6.48"/>
	<line x1="3877.07" y1="641.25" x2="3910.01" y2="641.25" stroke-linecap="round" style="stroke:#E397A0;stroke-width:6.48"/>
	<line x1="3956.72" y1="670.41" x2="3956.72" y2="1130.90" style="stroke:#E397A0;stroke-width:6.48"/>
	<line x1="3940.25" y1="1130.90" x2="3973.19" y2="1130.90" stroke-linecap="round" style="stroke:#E397A0;stroke-width:6.48"/>
	<line x1="3940.25" y1="670.41" x2="3973.19" y2="670.41" stroke-linecap="round" style="stroke:#E397A0;stroke-width:6.48"/>
	<line x1="4019.90" y1="551.47" x2="4019.90" y2="1006.02" style="stroke:#E397A0;stroke-width:6.48"/>
	<line x1="4003.43" y1="1006.02" x2="4036.37" y2="1006.02" stroke-linecap="round" style="stroke:#E397A0;stroke-width:6.48"/>
	<line x1="4003.43" y1="551.47" x2="4036.37" y2="551.47" stroke-linecap="round" style="stroke:#E397A0;stroke-width:6.48"/>
	<line x1="4082.94" y1="499.23" x2="4082.94" y2="1043.96" style="stroke:#E397A0;stroke-width:6.48"/>
	<line x1="4066.47" y1="1043.96" x2="4099.41" y2="1043.96" stroke-linecap="round" style="stroke:#E397A0;stroke-width:6.48"/>
	<line x1="4066.47" y1="499.23" x2="4099.41" y2="499.23" stroke-linecap="round" style="stroke:#E397A0;stroke-width:6.48"/>
	<line x1="4146.12" y1="647.73" x2="4146.12" y2="1091.61" style="stroke:#E397A0;stroke-width:6.48"/>
	<line x1="4129.65" y1="1091.61" x2="4162.59" y2="1091.61" stroke-linecap="round" style="stroke:#E397A0;stroke-width:6.48"/>
	<line x1="4129.65" y1="647.73" x2="4162.59" y2="647.73" stroke-linecap="round" style="stroke:#E397A0;stroke-width:6.48"/>
	<line x1="4209.30" y1="532.71" x2="4209.30" y2="1016.96" style="stroke:#E397A0;stroke-width:6.48"/>
	<line x1="4192.83" y1="1016.96" x2="4225.77" y2="1016.96" stroke-linecap="round" style="stroke:#E397A0;stroke-width:6.48"/>
	<line x1="4192.83" y1="532.71" x2="4225.77" y2="532.71" stroke-linecap="round" style="stroke:#E397A0;stroke-width:6.48"/>
	<line x1="4272.48" y1="641.92" x2="4272.48" y2="1057.99" style="stroke:#E397A0;stroke-width:6.48"/>
	<line x1="4256.01" y1="1057.99" x2="4288.95" y2="1057.99" stroke-linecap="round" style="stroke:#E397A0;stroke-width:6.48"/>
	<line x1="4256.01" y1="641.92" x2="4288.95" y2="641.92" stroke-linecap="round" style="stroke:#E397A0;stroke-width:6.48"/>
	<path d=" M293.36 1174.64 L356.54 1053.00 L419.72 1095.26 L482.90 1051.92 L546.08 1202.85 L609.26 1260.22 L672.30 1533.87 L735.48 1424.52 L798.66 1408.19 L861.84 1386.72 L925.02 1492.02 L988.20 1241.46 L1051.24 1208.39 L1114.43 997.11 L1177.61 950.81 L1240.79 956.88 L1303.96 1104.03 L1367.15 1123.34 L1430.33 1153.30 L1493.37 1088.51 L1556.55 1016.28 L1619.73 912.73 L1682.91 887.09 L1746.09 723.20 L1809.27 715.91 L1872.32 791.91 L1935.50 675.54 L1998.68 797.71 L2061.86 768.15 L2125.04 882.36 L2188.22 850.23 L2251.26 899.51 L2314.44 939.20 L2377.62 807.71 L2440.80 791.37 L2503.98 573.62 L2567.16 712.40 L2630.34 773.55 L2693.39 694.31 L2756.57 688.37 L2819.75 770.71 L2882.93 853.07 L2946.11 770.98 L3009.29 929.61 L3072.33 875.88 L3135.51 839.30 L3198.69 913.82 L3261.87 731.70 L3325.05 710.64 L3388.23 789.89 L3451.41 701.87 L3514.46 704.43 L3577.64 723.33 L3640.82 858.33 L3704.00 846.59 L3767.18 1092.96 L3830.36 914.22 L3893.40 875.07 L3956.58 900.72 L4019.76 778.82 L4082.94 771.66 L4146.12 869.67 L4209.30 774.90 L4272.35 850.10" stroke-linejoin="round" style="fill:none;stroke:#83082A;stroke-width:9.72"/>
	<circle cx="293.36" cy="1174.64" r="8.91" style="fill:#83082A"/>
	<circle cx="293.36" cy="1174.64" r="5.67" style="fill:none;stroke:#83082A;stroke-width:6.48"/>
	<circle cx="356.54" cy="1053.00" r="8.91" style="fill:#83082A"/>
	<circle cx="356.54" cy="1053.00" r="5.67" style="fill:none;stroke:#83082A;stroke-width:6.48"/>
	<circle cx="419.72" cy="1095.26" r="8.91" style="fill:#83082A"/>
	<circle cx="419.72" cy="1095.26" r="5.67" style="fill:none;stroke:#83082A;stroke-width:6.48"/>
	<circle cx="482.90" cy="1051.92" r="8.91" style="fill:#83082A"/>
	<circle cx="482.90" cy="1051.92" r="5.67" style="fill:none;stroke:#83082A;stroke-width:6.48"/>
	<circle cx="546.08" cy="1202.85" r="8.91" style="fill:#83082A"/>
	<circle cx="546.08" cy="1202.85" r="5.67" style="fill:none;stroke:#83082A;stroke-width:6.48"/>
	<circle cx="609.26" cy="1260.22" r="8.91" style="fill:#83082A"/>
	<circle cx="609.26" cy="1260.22" r="5.67" style="fill:none;stroke:#83082A;stroke-width:6.48"/>
	<circle cx="672.30" cy="1533.87" r="8.91" style="fill:#83082A"/>
	<circle cx="672.30" cy="1533.87" r="5.67" style="fill:none;stroke:#83082A;stroke-width:6.48"/>
	<circle cx="735.48" cy="1424.52" r="8.91" style="fill:#83082A"/>
	<circle cx="735.48" cy="1424.52" r="5.67" style="fill:none;stroke:#83082A;stroke-width:6.48"/>
	<circle cx="798.66" cy="1408.19" r="8.91" style="fill:#83082A"/>
	<circle cx="798.66" cy="1408.19" r="5.67" style="fill:none;stroke:#83082A;stroke-width:6.48"/>
	<circle cx="861.84" cy="1386.72" r="8.91" style="fill:#83082A"/>
	<circle cx="861.84" cy="1386.72" r="5.67" style="fill:none;stroke:#83082A;stroke-width:6.48"/>
	<circle cx="925.02" cy="1492.02" r="8.91" style="fill:#83082A"/>
	<circle cx="925.02" cy="1492.02" r="5.67" style="fill:none;stroke:#83082A;stroke-width:6.48"/>
	<circle cx="988.20" cy="1241.46" r="8.91" style="fill:#83082A"/>
	<circle cx="988.20" cy="1241.46" r="5.67" style="fill:none;stroke:#83082A;stroke-width:6.48"/>
	<circle cx="1051.24" cy="1208.39" r="8.91" style="fill:#83082A"/>
	<circle cx="1051.24" cy="1208.39" r="5.67" style="fill:none;stroke:#83082A;stroke-width:6.48"/>
	<circle cx="1114.43" cy="997.11" r="8.91" style="fill:#83082A"/>
	<circle cx="1114.43" cy="997.11" r="5.67" style="fill:none;stroke:#83082A;stroke-width:6.48"/>
	<circle cx="1177.61" cy="950.81" r="8.91" style="fill:#83082A"/>
	<circle cx="1177.61" cy="950.81" r="5.67" style="fill:none;stroke:#83082A;stroke-width:6.48"/>
	<circle cx="1240.79" cy="956.88" r="8.91" style="fill:#83082A"/>
	<circle cx="1240.79" cy="956.88" r="5.67" style="fill:none;stroke:#83082A;stroke-width:6.48"/>
	<circle cx="1303.96" cy="1104.03" r="8.91" style="fill:#83082A"/>
	<circle cx="1303.96" cy="1104.03" r="5.67" style="fill:none;stroke:#83082A;stroke-width:6.48"/>
	<circle cx="1367.15" cy="1123.34" r="8.91" style="fill:#83082A"/>
	<circle cx="1367.15" cy="1123.34" r="5.67" style="fill:none;stroke:#83082A;stroke-width:6.48"/>
	<circle cx="1430.33" cy="1153.30" r="8.91" style="fill:#83082A"/>
	<circle cx="1430.33" cy="1153.30" r="5.67" style="fill:none;stroke:#83082A;stroke-width:6.48"/>
	<circle cx="1493.37" cy="1088.51" r="8.91" style="fill:#83082A"/>
	<circle cx="1493.37" cy="1088.51" r="5.67" style="fill:none;stroke:#83082A;stroke-width:6.48"/>
	<circle cx="1556.55" cy="1016.28" r="8.91" style="fill:#83082A"/>
	<circle cx="1556.55" cy="1016.28" r="5.67" style="fill:none;stroke:#83082A;stroke-width:6.48"/>
	<circle cx="1619.73" cy="912.73" r="8.91" style="fill:#83082A"/>
	<circle cx="1619.73" cy="912.73" r="5.67" style="fill:none;stroke:#83082A;stroke-width:6.48"/>
	<circle cx="1682.91" cy="887.09" r="8.91" style="fill:#83082A"/>
	<circle cx="1682.91" cy="887.09" r="5.67" style="fill:none;stroke:#83082A;stroke-width:6.48"/>
	<circle cx="1746.09" cy="723.20" r="8.91" style="fill:#83082A"/>
	<circle cx="1746.09" cy="723.20" r="5.67" style="fill:none;stroke:#83082A;stroke-width:6.48"/>
	<circle cx="1809.27" cy="715.91" r="8.91" style="fill:#83082A"/>
	<circle cx="1809.27" cy="715.91" r="5.67" style="fill:none;stroke:#83082A;stroke-width:6.48"/>
	<circle cx="1872.32" cy="791.91" r="8.91" style="fill:#83082A"/>
	<circle cx="1872.32" cy="791.91" r="5.67" style="fill:none;stroke:#83082A;stroke-width:6.48"/>
	<circle cx="1935.50" cy="675.54" r="8.91" style="fill:#83082A"/>
	<circle cx="1935.50" cy="675.54" r="5.67" style="fill:none;stroke:#83082A;stroke-width:6.48"/>
	<circle cx="1998.68" cy="797.71" r="8.91" style="fill:#83082A"/>
	<circle cx="1998.68" cy="797.71" r="5.67" style="fill:none;stroke:#83082A;stroke-width:6.48"/>
	<circle cx="2061.86" cy="768.15" r="8.91" style="fill:#83082A"/>
	<circle cx="2061.86" cy="768.15" r="5.67" style="fill:none;stroke:#83082A;stroke-width:6.48"/>
	<circle cx="2125.04" cy="882.36" r="8.91" style="fill:#83082A"/>
	<circle cx="2125.04" cy="882.36" r="5.67" style="fill:none;stroke:#83082A;stroke-width:6.48"/>
	<circle cx="2188.22" cy="850.23" r="8.91" style="fill:#83082A"/>
	<circle cx="2188.22" cy="850.23" r="5.67" style="fill:none;stroke:#83082A;stroke-width:6.48"/>
	<circle cx="2251.26" cy="899.51" r="8.91" style="fill:#83082A"/>
	<circle cx="2251.26" cy="899.51" r="5.67" style="fill:none;stroke:#83082A;stroke-width:6.48"/>
	<circle cx="2314.44" cy="939.20" r="8.91" style="fill:#83082A"/>
	<circle cx="2314.44" cy="939.20" r="5.67" style="fill:none;stroke:#83082A;stroke-width:6.48"/>
	<circle cx="2377.62" cy="807.71" r="8.91" style="fill:#83082A"/>
	<circle cx="2377.62" cy="807.71" r="5.67" style="fill:none;stroke:#83082A;stroke-width:6.48"/>
	<circle cx="2440.80" cy="791.37" r="8.91" style="fill:#83082A"/>
	<circle cx="2440.80" cy="791.37" r="5.67" style="fill:none;stroke:#83082A;stroke-width:6.48"/>
	<circle cx="2503.98" cy="573.62" r="8.91" style="fill:#83082A"/>
	<circle cx="2503.98" cy="573.62" r="5.67" style="fill:none;stroke:#83082A;stroke-width:6.48"/>
	<circle cx="2567.16" cy="712.40" r="8.91" style="fill:#83082A"/>
	<circle cx="2567.16" cy="712.40" r="5.67" style="fill:none;stroke:#83082A;stroke-width:6.48"/>
	<circle cx="2630.34" cy="773.55" r="8.91" style="fill:#83082A"/>
	<circle cx="2630.34" cy="773.55" r="5.67" style="fill:none;stroke:#83082A;stroke-width:6.48"/>
	<circle cx="2693.39" cy="694.31" r="8.91" style="fill:#83082A"/>
	<circle cx="2693.39" cy="694.31" r="5.67" style="fill:none;stroke:#83082A;stroke-width:6.48"/>
	<circle cx="2756.57" cy="688.37" r="8.91" style="fill:#83082A"/>
	<circle cx="2756.57" cy="688.37" r="5.67" style="fill:none;stroke:#83082A;stroke-width:6.48"/>
	<circle cx="2819.75" cy="770.71" r="8.91" style="fill:#83082A"/>
	<circle cx="2819.75" cy="770.71" r="5.67" style="fill:none;stroke:#83082A;stroke-width:6.48"/>
	<circle cx="2882.93" cy="853.07" r="8.91" style="fill:#83082A"/>
	<circle cx="2882.93" cy="853.07" r="5.67" style="fill:none;stroke:#83082A;stroke-width:6.48"/>
	<circle cx="2946.11" cy="770.98" r="8.91" style="fill:#83082A"/>
	<circle cx="2946.11" cy="770.98" r="5.67" style="fill:none;stroke:#83082A;stroke-width:6.48"/>
	<circle cx="3009.29" cy="929.61" r="8.91" style="fill:#83082A"/>
	<circle cx="3009.29" cy="929.61" r="5.67" style="fill:none;stroke:#83082A;stroke-width:6.48"/>
	<circle cx="3072.33" cy="875.88" r="8.91" style="fill:#83082A"/>
	<circle cx="3072.33" cy="875.88" r="5.67" style="fill:none;stroke:#83082A;stroke-width:6.48"/>
	<circle cx="3135.51" cy="839.30" r="8.91" style="fill:#83082A"/>
	<circle cx="3135.51" cy="839.30" r="5.67" style="fill:none;stroke:#83082A;stroke-width:6.48"/>
	<circle cx="3198.69" cy="913.82" r="8.91" style="fill:#83082A"/>
	<circle cx="3198.69" cy="913.82" r="5.67" style="fill:none;stroke:#83082A;stroke-width:6.48"/>
	<circle cx="3261.87" cy="731.70" r="8.91" style="fill:#83082A"/>
	<circle cx="3261.87" cy="731.70" r="5.67" style="fill:none;stroke:#83082A;stroke-width:6.48"/>
	<circle cx="3325.05" cy="710.64" r="8.91" style="fill:#83082A"/>
	<circle cx="3325.05" cy="710.64" r="5.67" style="fill:none;stroke:#83082A;stroke-width:6.48"/>
	<circle cx="3388.23" cy="789.89" r="8.91" style="fill:#83082A"/>
	<circle cx="3388.23" cy="789.89" r="5.67" style="fill:none;stroke:#83082A;stroke-width:6.48"/>
	<circle cx="3451.41" cy="701.87" r="8.91" style="fill:#83082A"/>
	<circle cx="3451.41" cy="701.87" r="5.67" style="fill:none;stroke:#83082A;stroke-width:6.48"/>
	<circle cx="3514.46" cy="704.43" r="8.91" style="fill:#83082A"/>
	<circle cx="3514.46" cy="704.43" r="5.67" style="fill:none;stroke:#83082A;stroke-width:6.48"/>
	<circle cx="3577.64" cy="723.33" r="8.91" style="fill:#83082A"/>
	<circle cx="3577.64" cy="723.33" r="5.67" style="fill:none;stroke:#83082A;stroke-width:6.48"/>
	<circle cx="3640.82" cy="858.33" r="8.91" style="fill:#83082A"/>
	<circle cx="3640.82" cy="858.33" r="5.67" style="fill:none;stroke:#83082A;stroke-width:6.48"/>
	<circle cx="3704.00" cy="846.59" r="8.91" style="fill:#83082A"/>
	<circle cx="3704.00" cy="846.59" r="5.67" style="fill:none;stroke:#83082A;stroke-width:6.48"/>
	<circle cx="3767.18" cy="1092.96" r="8.91" style="fill:#83082A"/>
	<circle cx="3767.18" cy="1092.96" r="5.67" style="fill:none;stroke:#83082A;stroke-width:6.48"/>
	<circle cx="3830.36" cy="914.22" r="8.91" style="fill:#83082A"/>
	<circle cx="3830.36" cy="914.22" r="5.67" style="fill:none;stroke:#83082A;stroke-width:6.48"/>
	<circle cx="3893.40" cy="875.07" r="8.91" style="fill:#83082A"/>
	<circle cx="3893.40" cy="875.07" r="5.67" style="fill:none;stroke:#83082A;stroke-width:6.48"/>
	<circle cx="3956.58" cy="900.72" r="8.91" style="fill:#83082A"/>
	<circle cx="3956.58" cy="900.72" r="5.67" style="fill:none;stroke:#83082A;stroke-width:6.48"/>
	<circle cx="4019.76" cy="778.82" r="8.91" style="fill:#83082A"/>
	<circle cx="4019.76" cy="778.82" r="5.67" style="fill:none;stroke:#83082A;stroke-width:6.48"/>
	<circle cx="4082.94" cy="771.66" r="8.91" style="fill:#83082A"/>
	<circle cx="4082.94" cy="771.66" r="5.67" style="fill:none;stroke:#83082A;stroke-width:6.48"/>
	<circle cx="4146.12" cy="869.67" r="8.91" style="fill:#83082A"/>
	<circle cx="4146.12" cy="869.67" r="5.67" style="fill:none;stroke:#83082A;stroke-width:6.48"/>
	<circle cx="4209.30" cy="774.90" r="8.91" style="fill:#83082A"/>
	<circle cx="4209.30" cy="774.90" r="5.67" style="fill:none;stroke:#83082A;stroke-width:6.48"/>
	<circle cx="4272.35" cy="850.10" r="8.91" style="fill:#83082A"/>
	<circle cx="4272.35" cy="850.10" r="5.67" style="fill:none;stroke:#83082A;stroke-width:6.48"/>
	<line x1="245.97" y1="2032.56" x2="245.97" y2="0.00" style="stroke:#404040;stroke-width:4.32"/>
	<line x1="245.97" y1="1985.04" x2="216.00" y2="1985.04" style="stroke:#000000;stroke-width:4.32"/>
	<text x="201.02" y="2006.05" style="font-family:'Century Gothic';font-size:59.94px;fill:#000000" text-anchor="end">-1000</text>
	<line x1="245.97" y1="1500.66" x2="216.00" y2="1500.66" style="stroke:#000000;stroke-width:4.32"/>
	<text x="201.02" y="1521.67" style="font-family:'Century Gothic';font-size:59.94px;fill:#000000" text-anchor="end">-500</text>
	<line x1="245.97" y1="1016.28" x2="216.00" y2="1016.28" style="stroke:#000000;stroke-width:4.32"/>
	<text x="201.02" y="1037.29" style="font-family:'Century Gothic';font-size:59.94px;fill:#000000" text-anchor="end">0</text>
	<line x1="245.97" y1="531.90" x2="216.00" y2="531.90" style="stroke:#000000;stroke-width:4.32"/>
	<text x="201.02" y="552.91" style="font-family:'Century Gothic';font-size:59.94px;fill:#000000" text-anchor="end">500</text>
	<line x1="245.97" y1="47.52" x2="216.00" y2="47.52" style="stroke:#000000;stroke-width:4.32"/>
	<text x="201.02" y="68.53" style="font-family:'Century Gothic';font-size:59.94px;fill:#000000" text-anchor="end">1000</text>
	<line x1="245.97" y1="2032.56" x2="4320.00" y2="2032.56" style="stroke:#404040;stroke-width:4.32"/>
	<line x1="356.67" y1="2032.56" x2="356.67" y2="2062.53" style="stroke:#000000;stroke-width:4.32"/>
	<text x="356.67" y="2119.41" style="font-family:'Century Gothic';font-size:59.94px;fill:#000000" text-anchor="middle">-20</text>
	<line x1="1619.87" y1="2032.56" x2="1619.87" y2="2062.53" style="stroke:#000000;stroke-width:4.32"/>
	<text x="1619.87" y="2119.41" style="font-family:'Century Gothic';font-size:59.94px;fill:#000000" text-anchor="middle">0</text>
	<line x1="2882.93" y1="2032.56" x2="2882.93" y2="2062.53" style="stroke:#000000;stroke-width:4.32"/>
	<text x="2882.93" y="2119.41" style="font-family:'Century Gothic';font-size:59.94px;fill:#000000" text-anchor="middle">20</text>
	<line x1="4146.12" y1="2032.56" x2="4146.12" y2="2062.53" style="stroke:#000000;stroke-width:4.32"/>
	<text x="4146.12" y="2119.41" style="font-family:'Century Gothic';font-size:59.94px;fill:#000000" text-anchor="middle">40</text>
</svg>
