<?xml version="1.0" encoding="UTF-8" standalone="no"?>
<!-- This is a Stata 19.5 generated SVG file (http://www.stata.com) -->

<svg version="1.1" width="6.000in" height="3.000in" viewBox="0 0 4320 2160" xmlns="http://www.w3.org/2000/svg" xmlns:xlink="http://www.w3.org/1999/xlink">
	<desc>Stata Graph - g_levels</desc>
	<rect x="0" y="0" width="4320" height="2160" style="fill:#EAF2F3;stroke:none"/>
	<rect x="0.00" y="0.00" width="4320.00" height="2160.00" style="fill:#FFFFFF"/>
	<rect x="2.16" y="2.16" width="4315.68" height="2155.68" style="fill:none;stroke:#FFFFFF;stroke-width:4.32"/>
	<rect x="224.91" y="0.00" width="4095.09" height="1840.86" style="fill:#FFFFFF"/>
	<rect x="227.07" y="2.16" width="4090.77" height="1836.54" style="fill:none;stroke:#FFFFFF;stroke-width:4.32"/>
	<line x1="224.91" y1="1601.91" x2="4320.00" y2="1601.91" style="stroke:#CCCCCC;stroke-width:6.48"/>
	<line x1="224.91" y1="1095.80" x2="4320.00" y2="1095.80" style="stroke:#CCCCCC;stroke-width:6.48"/>
	<line x1="224.91" y1="589.55" x2="4320.00" y2="589.55" style="stroke:#CCCCCC;stroke-width:6.48"/>
	<line x1="224.91" y1="83.43" x2="4320.00" y2="83.43" style="stroke:#CCCCCC;stroke-width:6.48"/>
	<line x1="1530.50" y1="1840.86" x2="1530.50" y2="1797.66" style="stroke:#404040;stroke-width:6.48"/>
	<line x1="1530.50" y1="1776.06" x2="1530.50" y2="1732.86" style="stroke:#404040;stroke-width:6.48"/>
	<line x1="1530.50" y1="1711.26" x2="1530.50" y2="1668.06" style="stroke:#404040;stroke-width:6.48"/>
	<line x1="1530.50" y1="1646.46" x2="1530.50" y2="1603.26" style="stroke:#404040;stroke-width:6.48"/>
	<line x1="1530.50" y1="1581.66" x2="1530.50" y2="1538.46" style="stroke:#404040;stroke-width:6.48"/>
	<line x1="1530.50" y1="1516.86" x2="1530.50" y2="1473.66" style="stroke:#404040;stroke-width:6.48"/>
	<line x1="1530.50" y1="1452.06" x2="1530.50" y2="1408.86" style="stroke:#404040;stroke-width:6.48"/>
	<line x1="1530.50" y1="1387.26" x2="1530.50" y2="1344.06" style="stroke:#404040;stroke-width:6.48"/>
	<line x1="1530.50" y1="1322.46" x2="1530.50" y2="1279.26" style="stroke:#404040;stroke-width:6.48"/>
	<line x1="1530.50" y1="1257.66" x2="1530.50" y2="1214.46" style="stroke:#404040;stroke-width:6.48"/>
	<line x1="1530.50" y1="1192.86" x2="1530.50" y2="1149.66" style="stroke:#404040;stroke-width:6.48"/>
	<line x1="1530.50" y1="1128.06" x2="1530.50" y2="1084.86" style="stroke:#404040;stroke-width:6.48"/>
	<line x1="1530.50" y1="1063.26" x2="1530.50" y2="1020.06" style="stroke:#404040;stroke-width:6.48"/>
	<line x1="1530.50" y1="998.46" x2="1530.50" y2="955.26" style="stroke:#404040;stroke-width:6.48"/>
	<line x1="1530.50" y1="933.66" x2="1530.50" y2="890.46" style="stroke:#404040;stroke-width:6.48"/>
	<line x1="1530.50" y1="868.86" x2="1530.50" y2="825.66" style="stroke:#404040;stroke-width:6.48"/>
	<line x1="1530.50" y1="804.06" x2="1530.50" y2="760.86" style="stroke:#404040;stroke-width:6.48"/>
	<line x1="1530.50" y1="739.26" x2="1530.50" y2="696.06" style="stroke:#404040;stroke-width:6.48"/>
	<line x1="1530.50" y1="674.46" x2="1530.50" y2="631.26" style="stroke:#404040;stroke-width:6.48"/>
	<line x1="1530.50" y1="609.66" x2="1530.50" y2="566.46" style="stroke:#404040;stroke-width:6.48"/>
	<line x1="1530.50" y1="544.86" x2="1530.50" y2="501.66" style="stroke:#404040;stroke-width:6.48"/>
	<line x1="1530.50" y1="480.06" x2="1530.50" y2="436.86" style="stroke:#404040;stroke-width:6.48"/>
	<line x1="1530.50" y1="415.26" x2="1530.50" y2="372.06" style="stroke:#404040;stroke-width:6.48"/>
	<line x1="1530.50" y1="350.46" x2="1530.50" y2="307.26" style="stroke:#404040;stroke-width:6.48"/>
	<line x1="1530.50" y1="285.66" x2="1530.50" y2="242.46" style="stroke:#404040;stroke-width:6.48"/>
	<line x1="1530.50" y1="220.86" x2="1530.50" y2="177.66" style="stroke:#404040;stroke-width:6.48"/>
	<line x1="1530.50" y1="156.06" x2="1530.50" y2="112.86" style="stroke:#404040;stroke-width:6.48"/>
	<line x1="1530.50" y1="91.26" x2="1530.50" y2="48.06" style="stroke:#404040;stroke-width:6.48"/>
	<line x1="1530.50" y1="26.46" x2="1530.50" y2="0.00" style="stroke:#404040;stroke-width:6.48"/>
	<path d=" M272.43 1568.84 L336.96 1639.44 L401.49 1324.89 L466.02 1363.10 L530.42 1254.83 L594.95 810.54 L659.48 875.74 L724.01 1571.00 L788.54 782.33 L853.07 806.76 L917.60 661.50 L982.13 1102.14 L1046.66 1143.45 L1111.05 1193.26 L1175.58 762.62 L1240.11 1140.08 L1304.64 972.95 L1369.17 700.65 L1433.70 847.53 L1498.23 1497.55 L1562.76 813.92 L1627.29 951.21 L1691.82 1056.92 L1756.22 1501.88 L1820.75 1473.93 L1885.28 1538.19 L1949.81 1286.01 L2014.34 1553.04 L2078.86 1266.30 L2143.40 1003.72 L2207.93 1108.62 L2272.46 1762.83 L2336.99 1198.80 L2401.38 1121.31 L2465.91 1064.21 L2530.44 1616.90 L2594.97 1458.41 L2659.50 1493.24 L2724.03 1508.63 L2788.56 1360.53 L2853.09 1334.21 L2917.62 1111.05 L2982.15 962.96 L3046.55 1784.30 L3111.08 1149.66 L3175.61 1010.34 L3240.14 1311.53 L3304.67 1540.76 L3369.20 1467.59 L3433.73 1572.21 L3498.26 1434.38 L3562.79 1526.58 L3627.32 1349.05 L3691.71 1000.76 L3756.24 937.04 L3820.77 1793.48 L3885.30 985.37 L3949.83 1024.79 L4014.36 1307.07 L4078.89 1482.44 L4143.42 1567.89 L4207.95 1580.58 L4272.48 1339.47" stroke-linejoin="round" style="fill:none;stroke:#83082A;stroke-width:9.72"/>
	<line x1="272.43" y1="930.29" x2="285.66" y2="971.33" style="stroke:#404040;stroke-width:9.72"/>
	<line x1="292.41" y1="991.85" x2="305.77" y2="1032.89" style="stroke:#404040;stroke-width:9.72"/>
	<line x1="312.39" y1="1053.54" x2="325.76" y2="1094.58" style="stroke:#404040;stroke-width:9.72"/>
	<line x1="332.37" y1="1115.10" x2="336.96" y2="1129.28" style="stroke:#404040;stroke-width:9.72"/>
	<line x1="336.96" y1="1129.28" x2="343.58" y2="1101.73" style="stroke:#404040;stroke-width:9.72"/>
	<line x1="348.57" y1="1080.68" x2="358.56" y2="1038.69" style="stroke:#404040;stroke-width:9.72"/>
	<line x1="363.56" y1="1017.77" x2="373.55" y2="975.78" style="stroke:#404040;stroke-width:9.72"/>
	<line x1="378.54" y1="954.72" x2="388.67" y2="912.73" style="stroke:#404040;stroke-width:9.72"/>
	<line x1="393.53" y1="891.68" x2="401.49" y2="858.46" style="stroke:#404040;stroke-width:9.72"/>
	<line x1="401.49" y1="858.46" x2="407.30" y2="865.35" style="stroke:#404040;stroke-width:9.72"/>
	<line x1="421.20" y1="881.96" x2="449.01" y2="915.03" style="stroke:#404040;stroke-width:9.72"/>
	<line x1="462.92" y1="931.50" x2="466.02" y2="935.28" style="stroke:#404040;stroke-width:9.72"/>
	<line x1="466.02" y1="935.28" x2="484.38" y2="901.53" style="stroke:#404040;stroke-width:9.72"/>
	<line x1="494.64" y1="882.49" x2="515.29" y2="844.56" style="stroke:#404040;stroke-width:9.72"/>
	<line x1="525.69" y1="825.66" x2="530.42" y2="816.89" style="stroke:#404040;stroke-width:9.72"/>
	<line x1="530.42" y1="816.89" x2="535.28" y2="783.95" style="stroke:#404040;stroke-width:9.72"/>
	<line x1="538.38" y1="762.62" x2="544.73" y2="719.82" style="stroke:#404040;stroke-width:9.72"/>
	<line x1="547.83" y1="698.49" x2="554.17" y2="655.70" style="stroke:#404040;stroke-width:9.72"/>
	<line x1="557.28" y1="634.37" x2="563.63" y2="591.57" style="stroke:#404040;stroke-width:9.72"/>
	<line x1="566.73" y1="570.24" x2="573.08" y2="527.44" style="stroke:#404040;stroke-width:9.72"/>
	<line x1="576.18" y1="506.12" x2="582.53" y2="463.32" style="stroke:#404040;stroke-width:9.72"/>
	<line x1="585.63" y1="441.99" x2="591.84" y2="399.33" style="stroke:#404040;stroke-width:9.72"/>
	<line x1="595.22" y1="378.00" x2="610.47" y2="337.50" style="stroke:#404040;stroke-width:9.72"/>
	<line x1="618.17" y1="317.39" x2="633.55" y2="276.89" style="stroke:#404040;stroke-width:9.72"/>
	<line x1="641.25" y1="256.77" x2="656.64" y2="216.27" style="stroke:#404040;stroke-width:9.72"/>
	<line x1="661.10" y1="222.35" x2="666.09" y2="265.28" style="stroke:#404040;stroke-width:9.72"/>
	<line x1="668.52" y1="286.74" x2="673.52" y2="329.67" style="stroke:#404040;stroke-width:9.72"/>
	<line x1="675.95" y1="351.14" x2="680.94" y2="394.07" style="stroke:#404040;stroke-width:9.72"/>
	<line x1="683.37" y1="415.53" x2="688.37" y2="458.46" style="stroke:#404040;stroke-width:9.72"/>
	<line x1="690.93" y1="479.92" x2="695.79" y2="522.86" style="stroke:#404040;stroke-width:9.72"/>
	<line x1="698.36" y1="544.32" x2="703.35" y2="587.25" style="stroke:#404040;stroke-width:9.72"/>
	<line x1="705.92" y1="608.71" x2="710.91" y2="651.65" style="stroke:#404040;stroke-width:9.72"/>
	<line x1="713.34" y1="673.11" x2="718.34" y2="716.04" style="stroke:#404040;stroke-width:9.72"/>
	<line x1="720.90" y1="737.51" x2="724.01" y2="765.18" style="stroke:#404040;stroke-width:9.72"/>
	<line x1="724.01" y1="765.18" x2="725.90" y2="749.93" style="stroke:#404040;stroke-width:9.72"/>
	<line x1="728.73" y1="728.60" x2="734.13" y2="685.67" style="stroke:#404040;stroke-width:9.72"/>
	<line x1="736.83" y1="664.34" x2="742.23" y2="621.41" style="stroke:#404040;stroke-width:9.72"/>
	<line x1="744.93" y1="600.08" x2="750.33" y2="557.15" style="stroke:#404040;stroke-width:9.72"/>
	<line x1="753.03" y1="535.68" x2="758.43" y2="492.89" style="stroke:#404040;stroke-width:9.72"/>
	<line x1="761.13" y1="471.42" x2="766.53" y2="428.63" style="stroke:#404040;stroke-width:9.72"/>
	<line x1="769.23" y1="407.16" x2="774.63" y2="364.37" style="stroke:#404040;stroke-width:9.72"/>
	<line x1="777.33" y1="342.90" x2="782.73" y2="300.11" style="stroke:#404040;stroke-width:9.72"/>
	<line x1="785.43" y1="278.64" x2="788.54" y2="253.66" style="stroke:#404040;stroke-width:9.72"/>
	<line x1="788.54" y1="253.66" x2="797.72" y2="269.19" style="stroke:#404040;stroke-width:9.72"/>
	<line x1="808.52" y1="287.82" x2="830.39" y2="325.08" style="stroke:#404040;stroke-width:9.72"/>
	<line x1="841.32" y1="343.85" x2="853.07" y2="363.69" style="stroke:#404040;stroke-width:9.72"/>
	<line x1="853.07" y1="363.69" x2="857.12" y2="343.98" style="stroke:#404040;stroke-width:9.72"/>
	<line x1="861.44" y1="322.79" x2="870.08" y2="280.53" style="stroke:#404040;stroke-width:9.72"/>
	<line x1="874.40" y1="259.34" x2="883.04" y2="216.94" style="stroke:#404040;stroke-width:9.72"/>
	<line x1="887.36" y1="195.75" x2="896.00" y2="153.49" style="stroke:#404040;stroke-width:9.72"/>
	<line x1="900.32" y1="132.30" x2="908.96" y2="90.05" style="stroke:#404040;stroke-width:9.72"/>
	<line x1="913.28" y1="68.85" x2="917.60" y2="47.52" style="stroke:#404040;stroke-width:9.72"/>
	<line x1="917.60" y1="47.52" x2="920.03" y2="68.85" style="stroke:#404040;stroke-width:9.72"/>
	<line x1="922.32" y1="90.32" x2="927.18" y2="133.24" style="stroke:#404040;stroke-width:9.72"/>
	<line x1="929.48" y1="154.71" x2="934.34" y2="197.64" style="stroke:#404040;stroke-width:9.72"/>
	<line x1="936.77" y1="219.11" x2="941.49" y2="262.04" style="stroke:#404040;stroke-width:9.72"/>
	<line x1="943.92" y1="283.50" x2="948.65" y2="326.43" style="stroke:#404040;stroke-width:9.72"/>
	<line x1="951.08" y1="347.90" x2="955.80" y2="390.83" style="stroke:#404040;stroke-width:9.72"/>
	<line x1="958.23" y1="412.29" x2="963.09" y2="455.22" style="stroke:#404040;stroke-width:9.72"/>
	<line x1="965.39" y1="476.68" x2="970.11" y2="519.62" style="stroke:#404040;stroke-width:9.72"/>
	<line x1="972.54" y1="541.08" x2="977.27" y2="584.01" style="stroke:#404040;stroke-width:9.72"/>
	<line x1="979.70" y1="605.47" x2="982.13" y2="627.75" style="stroke:#404040;stroke-width:9.72"/>
	<line x1="982.13" y1="627.75" x2="1000.49" y2="617.76" style="stroke:#404040;stroke-width:9.72"/>
	<line x1="1019.52" y1="607.64" x2="1046.66" y2="592.92" style="stroke:#404040;stroke-width:9.72"/>
	<line x1="1046.66" y1="592.92" x2="1049.09" y2="604.93" style="stroke:#404040;stroke-width:9.72"/>
	<line x1="1053.27" y1="626.13" x2="1061.78" y2="668.52" style="stroke:#404040;stroke-width:9.72"/>
	<line x1="1066.10" y1="689.71" x2="1074.60" y2="731.97" style="stroke:#404040;stroke-width:9.72"/>
	<line x1="1078.79" y1="753.17" x2="1087.29" y2="795.56" style="stroke:#404040;stroke-width:9.72"/>
	<line x1="1091.61" y1="816.75" x2="1100.12" y2="859.14" style="stroke:#404040;stroke-width:9.72"/>
	<line x1="1104.30" y1="880.34" x2="1111.05" y2="913.82" style="stroke:#404040;stroke-width:9.72"/>
	<line x1="1111.05" y1="913.82" x2="1113.21" y2="905.18" style="stroke:#404040;stroke-width:9.72"/>
	<line x1="1118.21" y1="884.12" x2="1128.33" y2="842.13" style="stroke:#404040;stroke-width:9.72"/>
	<line x1="1133.46" y1="821.07" x2="1143.59" y2="779.09" style="stroke:#404040;stroke-width:9.72"/>
	<line x1="1148.71" y1="758.16" x2="1158.71" y2="716.18" style="stroke:#404040;stroke-width:9.72"/>
	<line x1="1163.84" y1="695.12" x2="1173.96" y2="653.13" style="stroke:#404040;stroke-width:9.72"/>
	<line x1="1179.36" y1="660.96" x2="1190.30" y2="702.68" style="stroke:#404040;stroke-width:9.72"/>
	<line x1="1195.83" y1="723.60" x2="1206.77" y2="765.32" style="stroke:#404040;stroke-width:9.72"/>
	<line x1="1212.30" y1="786.24" x2="1223.23" y2="828.09" style="stroke:#404040;stroke-width:9.72"/>
	<line x1="1228.77" y1="848.88" x2="1239.71" y2="890.73" style="stroke:#404040;stroke-width:9.72"/>
	<line x1="1246.05" y1="873.18" x2="1259.01" y2="832.01" style="stroke:#404040;stroke-width:9.72"/>
	<line x1="1265.63" y1="811.35" x2="1278.59" y2="770.18" style="stroke:#404040;stroke-width:9.72"/>
	<line x1="1285.07" y1="749.52" x2="1298.03" y2="708.35" style="stroke:#404040;stroke-width:9.72"/>
	<line x1="1304.64" y1="687.69" x2="1304.64" y2="687.42" style="stroke:#404040;stroke-width:9.72"/>
	<line x1="1304.64" y1="687.42" x2="1315.04" y2="645.84" style="stroke:#404040;stroke-width:9.72"/>
	<line x1="1320.30" y1="624.92" x2="1330.83" y2="583.07" style="stroke:#404040;stroke-width:9.72"/>
	<line x1="1336.10" y1="562.01" x2="1346.63" y2="520.16" style="stroke:#404040;stroke-width:9.72"/>
	<line x1="1351.89" y1="499.23" x2="1362.29" y2="457.24" style="stroke:#404040;stroke-width:9.72"/>
	<line x1="1367.55" y1="436.32" x2="1369.17" y2="429.84" style="stroke:#404040;stroke-width:9.72"/>
	<line x1="1369.17" y1="429.84" x2="1390.37" y2="459.54" style="stroke:#404040;stroke-width:9.72"/>
	<line x1="1402.92" y1="477.09" x2="1427.90" y2="512.33" style="stroke:#404040;stroke-width:9.72"/>
	<line x1="1435.05" y1="532.04" x2="1440.32" y2="574.83" style="stroke:#404040;stroke-width:9.72"/>
	<line x1="1442.88" y1="596.30" x2="1448.15" y2="639.22" style="stroke:#404040;stroke-width:9.72"/>
	<line x1="1450.85" y1="660.69" x2="1455.98" y2="703.62" style="stroke:#404040;stroke-width:9.72"/>
	<line x1="1458.68" y1="725.09" x2="1463.94" y2="767.88" style="stroke:#404040;stroke-width:9.72"/>
	<line x1="1466.51" y1="789.35" x2="1471.77" y2="832.28" style="stroke:#404040;stroke-width:9.72"/>
	<line x1="1474.34" y1="853.74" x2="1479.60" y2="896.54" style="stroke:#404040;stroke-width:9.72"/>
	<line x1="1482.30" y1="918.00" x2="1487.57" y2="960.93" style="stroke:#404040;stroke-width:9.72"/>
	<line x1="1490.13" y1="982.40" x2="1495.40" y2="1025.19" style="stroke:#404040;stroke-width:9.72"/>
	<line x1="1498.10" y1="1046.66" x2="1498.23" y2="1048.41" style="stroke:#404040;stroke-width:9.72"/>
	<line x1="1498.23" y1="1048.41" x2="1506.60" y2="1007.91" style="stroke:#404040;stroke-width:9.72"/>
	<line x1="1511.06" y1="986.71" x2="1519.70" y2="944.46" style="stroke:#404040;stroke-width:9.72"/>
	<line x1="1524.15" y1="923.27" x2="1532.79" y2="881.01" style="stroke:#404040;stroke-width:9.72"/>
	<line x1="1537.25" y1="859.82" x2="1545.89" y2="817.43" style="stroke:#404040;stroke-width:9.72"/>
	<line x1="1550.34" y1="796.37" x2="1558.98" y2="753.97" style="stroke:#404040;stroke-width:9.72"/>
	<line x1="1563.71" y1="737.91" x2="1578.83" y2="778.28" style="stroke:#404040;stroke-width:9.72"/>
	<line x1="1586.39" y1="798.53" x2="1601.64" y2="838.89" style="stroke:#404040;stroke-width:9.72"/>
	<line x1="1609.20" y1="859.14" x2="1624.32" y2="899.51" style="stroke:#404040;stroke-width:9.72"/>
	<line x1="1634.58" y1="918.41" x2="1658.61" y2="954.45" style="stroke:#404040;stroke-width:9.72"/>
	<line x1="1670.49" y1="972.27" x2="1691.82" y2="1004.40" style="stroke:#404040;stroke-width:9.72"/>
	<line x1="1691.82" y1="1004.40" x2="1692.63" y2="1008.99" style="stroke:#404040;stroke-width:9.72"/>
	<line x1="1696.28" y1="1030.32" x2="1703.43" y2="1072.85" style="stroke:#404040;stroke-width:9.72"/>
	<line x1="1707.08" y1="1094.18" x2="1714.23" y2="1136.70" style="stroke:#404040;stroke-width:9.72"/>
	<line x1="1717.88" y1="1158.03" x2="1725.03" y2="1200.69" style="stroke:#404040;stroke-width:9.72"/>
	<line x1="1728.68" y1="1221.89" x2="1735.97" y2="1264.55" style="stroke:#404040;stroke-width:9.72"/>
	<line x1="1739.48" y1="1285.74" x2="1746.63" y2="1328.40" style="stroke:#404040;stroke-width:9.72"/>
	<line x1="1750.28" y1="1349.60" x2="1756.22" y2="1384.70" style="stroke:#404040;stroke-width:9.72"/>
	<line x1="1756.22" y1="1384.70" x2="1760.00" y2="1378.08" style="stroke:#404040;stroke-width:9.72"/>
	<line x1="1770.80" y1="1359.45" x2="1792.26" y2="1321.92" style="stroke:#404040;stroke-width:9.72"/>
	<line x1="1802.93" y1="1303.16" x2="1820.75" y2="1272.24" style="stroke:#404040;stroke-width:9.72"/>
	<line x1="1820.75" y1="1272.24" x2="1823.04" y2="1279.26" style="stroke:#404040;stroke-width:9.72"/>
	<line x1="1829.79" y1="1299.92" x2="1843.29" y2="1340.82" style="stroke:#404040;stroke-width:9.72"/>
	<line x1="1850.04" y1="1361.34" x2="1863.68" y2="1402.38" style="stroke:#404040;stroke-width:9.72"/>
	<line x1="1870.43" y1="1422.90" x2="1883.93" y2="1463.94" style="stroke:#404040;stroke-width:9.72"/>
	<line x1="1888.38" y1="1450.98" x2="1896.48" y2="1408.46" style="stroke:#404040;stroke-width:9.72"/>
	<line x1="1900.40" y1="1387.26" x2="1908.36" y2="1344.87" style="stroke:#404040;stroke-width:9.72"/>
	<line x1="1912.41" y1="1323.68" x2="1920.38" y2="1281.15" style="stroke:#404040;stroke-width:9.72"/>
	<line x1="1924.29" y1="1259.96" x2="1932.26" y2="1217.57" style="stroke:#404040;stroke-width:9.72"/>
	<line x1="1936.31" y1="1196.37" x2="1944.27" y2="1153.85" style="stroke:#404040;stroke-width:9.72"/>
	<line x1="1948.32" y1="1132.65" x2="1949.81" y2="1125.09" style="stroke:#404040;stroke-width:9.72"/>
	<line x1="1949.81" y1="1125.09" x2="1957.50" y2="1159.65" style="stroke:#404040;stroke-width:9.72"/>
	<line x1="1962.09" y1="1180.71" x2="1971.54" y2="1222.97" style="stroke:#404040;stroke-width:9.72"/>
	<line x1="1976.13" y1="1244.03" x2="1985.58" y2="1286.28" style="stroke:#404040;stroke-width:9.72"/>
	<line x1="1990.17" y1="1307.34" x2="1999.62" y2="1349.46" style="stroke:#404040;stroke-width:9.72"/>
	<line x1="2004.35" y1="1370.52" x2="2013.66" y2="1412.64" style="stroke:#404040;stroke-width:9.72"/>
	<line x1="2017.85" y1="1397.66" x2="2026.22" y2="1355.27" style="stroke:#404040;stroke-width:9.72"/>
	<line x1="2030.40" y1="1334.07" x2="2038.91" y2="1291.68" style="stroke:#404040;stroke-width:9.72"/>
	<line x1="2043.09" y1="1270.49" x2="2051.46" y2="1228.10" style="stroke:#404040;stroke-width:9.72"/>
	<line x1="2055.65" y1="1206.90" x2="2064.02" y2="1164.51" style="stroke:#404040;stroke-width:9.72"/>
	<line x1="2068.20" y1="1143.32" x2="2076.57" y2="1100.93" style="stroke:#404040;stroke-width:9.72"/>
	<line x1="2081.97" y1="1080.00" x2="2095.34" y2="1038.96" style="stroke:#404040;stroke-width:9.72"/>
	<line x1="2102.09" y1="1018.44" x2="2115.45" y2="977.27" style="stroke:#404040;stroke-width:9.72"/>
	<line x1="2122.07" y1="956.74" x2="2135.43" y2="915.71" style="stroke:#404040;stroke-width:9.72"/>
	<line x1="2142.18" y1="895.19" x2="2143.40" y2="891.41" style="stroke:#404040;stroke-width:9.72"/>
	<line x1="2143.40" y1="891.41" x2="2177.96" y2="909.77" style="stroke:#404040;stroke-width:9.72"/>
	<line x1="2197.13" y1="919.89" x2="2207.93" y2="925.70" style="stroke:#404040;stroke-width:9.72"/>
	<line x1="2207.93" y1="925.70" x2="2212.52" y2="956.21" style="stroke:#404040;stroke-width:9.72"/>
	<line x1="2215.89" y1="977.54" x2="2222.37" y2="1020.33" style="stroke:#404040;stroke-width:9.72"/>
	<line x1="2225.61" y1="1041.66" x2="2232.09" y2="1084.32" style="stroke:#404040;stroke-width:9.72"/>
	<line x1="2235.33" y1="1105.79" x2="2241.81" y2="1148.45" style="stroke:#404040;stroke-width:9.72"/>
	<line x1="2245.05" y1="1169.78" x2="2251.40" y2="1212.57" style="stroke:#404040;stroke-width:9.72"/>
	<line x1="2254.77" y1="1233.90" x2="2261.25" y2="1276.56" style="stroke:#404040;stroke-width:9.72"/>
	<line x1="2264.49" y1="1297.89" x2="2270.97" y2="1340.69" style="stroke:#404040;stroke-width:9.72"/>
	<line x1="2275.16" y1="1339.88" x2="2285.28" y2="1297.89" style="stroke:#404040;stroke-width:9.72"/>
	<line x1="2290.41" y1="1276.83" x2="2300.54" y2="1234.85" style="stroke:#404040;stroke-width:9.72"/>
	<line x1="2305.67" y1="1213.92" x2="2315.93" y2="1171.80" style="stroke:#404040;stroke-width:9.72"/>
	<line x1="2321.05" y1="1150.88" x2="2331.18" y2="1108.89" style="stroke:#404040;stroke-width:9.72"/>
	<line x1="2336.31" y1="1087.96" x2="2336.99" y2="1085.13" style="stroke:#404040;stroke-width:9.72"/>
	<line x1="2336.99" y1="1085.13" x2="2376.95" y2="1079.87" style="stroke:#404040;stroke-width:9.72"/>
	<line x1="2398.41" y1="1077.03" x2="2401.38" y2="1076.63" style="stroke:#404040;stroke-width:9.72"/>
	<line x1="2401.38" y1="1076.63" x2="2422.98" y2="1110.51" style="stroke:#404040;stroke-width:9.72"/>
	<line x1="2434.46" y1="1128.73" x2="2457.68" y2="1165.32" style="stroke:#404040;stroke-width:9.72"/>
	<line x1="2467.13" y1="1184.36" x2="2475.63" y2="1226.74" style="stroke:#404040;stroke-width:9.72"/>
	<line x1="2479.82" y1="1247.94" x2="2488.32" y2="1290.20" style="stroke:#404040;stroke-width:9.72"/>
	<line x1="2492.64" y1="1311.39" x2="2501.01" y2="1353.78" style="stroke:#404040;stroke-width:9.72"/>
	<line x1="2505.33" y1="1374.98" x2="2513.70" y2="1417.23" style="stroke:#404040;stroke-width:9.72"/>
	<line x1="2518.02" y1="1438.56" x2="2526.53" y2="1480.82" style="stroke:#404040;stroke-width:9.72"/>
	<line x1="2530.71" y1="1499.85" x2="2541.38" y2="1458.00" style="stroke:#404040;stroke-width:9.72"/>
	<line x1="2546.64" y1="1437.08" x2="2557.30" y2="1395.23" style="stroke:#404040;stroke-width:9.72"/>
	<line x1="2562.57" y1="1374.17" x2="2573.24" y2="1332.32" style="stroke:#404040;stroke-width:9.72"/>
	<line x1="2578.64" y1="1311.39" x2="2589.17" y2="1269.54" style="stroke:#404040;stroke-width:9.72"/>
	<line x1="2594.43" y1="1248.62" x2="2594.97" y2="1246.46" style="stroke:#404040;stroke-width:9.72"/>
	<line x1="2594.97" y1="1246.46" x2="2613.47" y2="1283.04" style="stroke:#404040;stroke-width:9.72"/>
	<line x1="2623.05" y1="1302.35" x2="2642.49" y2="1340.96" style="stroke:#404040;stroke-width:9.72"/>
	<line x1="2652.21" y1="1360.26" x2="2659.50" y2="1374.84" style="stroke:#404040;stroke-width:9.72"/>
	<line x1="2659.50" y1="1374.84" x2="2677.73" y2="1394.69" style="stroke:#404040;stroke-width:9.72"/>
	<line x1="2692.31" y1="1410.48" x2="2721.60" y2="1442.34" style="stroke:#404040;stroke-width:9.72"/>
	<line x1="2729.97" y1="1427.76" x2="2743.88" y2="1386.86" style="stroke:#404040;stroke-width:9.72"/>
	<line x1="2750.90" y1="1366.47" x2="2764.94" y2="1325.70" style="stroke:#404040;stroke-width:9.72"/>
	<line x1="2771.96" y1="1305.18" x2="2786.00" y2="1264.28" style="stroke:#404040;stroke-width:9.72"/>
	<line x1="2798.01" y1="1246.86" x2="2827.85" y2="1215.68" style="stroke:#404040;stroke-width:9.72"/>
	<line x1="2842.83" y1="1200.01" x2="2853.09" y2="1189.35" style="stroke:#404040;stroke-width:9.72"/>
	<line x1="2853.09" y1="1189.35" x2="2863.89" y2="1163.03" style="stroke:#404040;stroke-width:9.72"/>
	<line x1="2871.99" y1="1143.05" x2="2888.33" y2="1103.09" style="stroke:#404040;stroke-width:9.72"/>
	<line x1="2896.56" y1="1083.11" x2="2912.90" y2="1043.01" style="stroke:#404040;stroke-width:9.72"/>
	<line x1="2919.78" y1="1022.63" x2="2929.77" y2="980.64" style="stroke:#404040;stroke-width:9.72"/>
	<line x1="2934.77" y1="959.58" x2="2944.76" y2="917.60" style="stroke:#404040;stroke-width:9.72"/>
	<line x1="2949.75" y1="896.67" x2="2959.74" y2="854.69" style="stroke:#404040;stroke-width:9.72"/>
	<line x1="2964.74" y1="833.63" x2="2974.86" y2="791.64" style="stroke:#404040;stroke-width:9.72"/>
	<line x1="2979.86" y1="770.58" x2="2982.15" y2="760.99" style="stroke:#404040;stroke-width:9.72"/>
	<line x1="2982.15" y1="760.99" x2="2985.26" y2="794.21" style="stroke:#404040;stroke-width:9.72"/>
	<line x1="2987.28" y1="815.67" x2="2991.47" y2="858.73" style="stroke:#404040;stroke-width:9.72"/>
	<line x1="2993.49" y1="880.20" x2="2997.68" y2="923.27" style="stroke:#404040;stroke-width:9.72"/>
	<line x1="2999.70" y1="944.73" x2="3003.75" y2="987.80" style="stroke:#404040;stroke-width:9.72"/>
	<line x1="3005.91" y1="1009.26" x2="3009.96" y2="1052.33" style="stroke:#404040;stroke-width:9.72"/>
	<line x1="3011.99" y1="1073.79" x2="3016.04" y2="1116.86" style="stroke:#404040;stroke-width:9.72"/>
	<line x1="3018.06" y1="1138.32" x2="3022.25" y2="1181.39" style="stroke:#404040;stroke-width:9.72"/>
	<line x1="3024.27" y1="1202.85" x2="3028.32" y2="1245.92" style="stroke:#404040;stroke-width:9.72"/>
	<line x1="3030.35" y1="1267.38" x2="3034.40" y2="1310.45" style="stroke:#404040;stroke-width:9.72"/>
	<line x1="3036.56" y1="1331.91" x2="3040.61" y2="1374.84" style="stroke:#404040;stroke-width:9.72"/>
	<line x1="3042.63" y1="1396.44" x2="3046.55" y2="1437.48" style="stroke:#404040;stroke-width:9.72"/>
	<line x1="3046.55" y1="1437.48" x2="3046.82" y2="1435.59" style="stroke:#404040;stroke-width:9.72"/>
	<line x1="3050.33" y1="1414.26" x2="3057.35" y2="1371.60" style="stroke:#404040;stroke-width:9.72"/>
	<line x1="3060.72" y1="1350.27" x2="3067.74" y2="1307.61" style="stroke:#404040;stroke-width:9.72"/>
	<line x1="3071.25" y1="1286.28" x2="3078.14" y2="1243.62" style="stroke:#404040;stroke-width:9.72"/>
	<line x1="3081.65" y1="1222.29" x2="3088.67" y2="1179.63" style="stroke:#404040;stroke-width:9.72"/>
	<line x1="3092.04" y1="1158.30" x2="3099.06" y2="1115.64" style="stroke:#404040;stroke-width:9.72"/>
	<line x1="3102.57" y1="1094.31" x2="3109.59" y2="1051.65" style="stroke:#404040;stroke-width:9.72"/>
	<line x1="3115.53" y1="1031.13" x2="3131.60" y2="991.04" style="stroke:#404040;stroke-width:9.72"/>
	<line x1="3139.70" y1="970.92" x2="3155.63" y2="930.83" style="stroke:#404040;stroke-width:9.72"/>
	<line x1="3163.73" y1="910.71" x2="3175.61" y2="881.01" style="stroke:#404040;stroke-width:9.72"/>
	<line x1="3175.61" y1="881.01" x2="3177.90" y2="891.95" style="stroke:#404040;stroke-width:9.72"/>
	<line x1="3182.22" y1="913.01" x2="3191.00" y2="955.26" style="stroke:#404040;stroke-width:9.72"/>
	<line x1="3195.45" y1="976.46" x2="3204.23" y2="1018.71" style="stroke:#404040;stroke-width:9.72"/>
	<line x1="3208.55" y1="1039.91" x2="3217.32" y2="1082.16" style="stroke:#404040;stroke-width:9.72"/>
	<line x1="3221.78" y1="1103.22" x2="3230.55" y2="1145.47" style="stroke:#404040;stroke-width:9.72"/>
	<line x1="3235.01" y1="1166.67" x2="3240.14" y2="1191.51" style="stroke:#404040;stroke-width:9.72"/>
	<line x1="3240.14" y1="1191.51" x2="3244.73" y2="1208.79" style="stroke:#404040;stroke-width:9.72"/>
	<line x1="3250.40" y1="1229.58" x2="3261.60" y2="1271.30" style="stroke:#404040;stroke-width:9.72"/>
	<line x1="3267.27" y1="1292.22" x2="3278.61" y2="1333.94" style="stroke:#404040;stroke-width:9.72"/>
	<line x1="3284.28" y1="1354.73" x2="3295.49" y2="1396.44" style="stroke:#404040;stroke-width:9.72"/>
	<line x1="3301.16" y1="1417.23" x2="3304.67" y2="1430.46" style="stroke:#404040;stroke-width:9.72"/>
	<line x1="3304.67" y1="1430.46" x2="3314.12" y2="1402.38" style="stroke:#404040;stroke-width:9.72"/>
	<line x1="3321.00" y1="1382.00" x2="3334.77" y2="1340.96" style="stroke:#404040;stroke-width:9.72"/>
	<line x1="3341.66" y1="1320.57" x2="3355.43" y2="1279.53" style="stroke:#404040;stroke-width:9.72"/>
	<line x1="3362.31" y1="1259.15" x2="3369.20" y2="1238.49" style="stroke:#404040;stroke-width:9.72"/>
	<line x1="3369.20" y1="1238.49" x2="3375.95" y2="1258.88" style="stroke:#404040;stroke-width:9.72"/>
	<line x1="3382.56" y1="1279.40" x2="3396.06" y2="1320.57" style="stroke:#404040;stroke-width:9.72"/>
	<line x1="3402.95" y1="1341.09" x2="3416.45" y2="1382.13" style="stroke:#404040;stroke-width:9.72"/>
	<line x1="3423.06" y1="1402.65" x2="3433.73" y2="1434.92" style="stroke:#404040;stroke-width:9.72"/>
	<line x1="3433.73" y1="1434.92" x2="3437.91" y2="1426.68" style="stroke:#404040;stroke-width:9.72"/>
	<line x1="3447.50" y1="1407.38" x2="3466.80" y2="1368.63" style="stroke:#404040;stroke-width:9.72"/>
	<line x1="3476.39" y1="1349.33" x2="3495.69" y2="1310.58" style="stroke:#404040;stroke-width:9.72"/>
	<line x1="3506.22" y1="1319.09" x2="3527.69" y2="1356.62" style="stroke:#404040;stroke-width:9.72"/>
	<line x1="3538.49" y1="1375.38" x2="3559.95" y2="1412.78" style="stroke:#404040;stroke-width:9.72"/>
	<line x1="3566.84" y1="1402.38" x2="3577.77" y2="1360.67" style="stroke:#404040;stroke-width:9.72"/>
	<line x1="3583.31" y1="1339.74" x2="3594.24" y2="1297.89" style="stroke:#404040;stroke-width:9.72"/>
	<line x1="3599.78" y1="1277.10" x2="3610.85" y2="1235.25" style="stroke:#404040;stroke-width:9.72"/>
	<line x1="3616.25" y1="1214.33" x2="3627.18" y2="1172.61" style="stroke:#404040;stroke-width:9.72"/>
	<line x1="3631.77" y1="1151.55" x2="3640.68" y2="1109.30" style="stroke:#404040;stroke-width:9.72"/>
	<line x1="3645.14" y1="1088.10" x2="3654.05" y2="1045.85" style="stroke:#404040;stroke-width:9.72"/>
	<line x1="3658.50" y1="1024.65" x2="3667.41" y2="982.40" style="stroke:#404040;stroke-width:9.72"/>
	<line x1="3671.87" y1="961.34" x2="3680.64" y2="919.08" style="stroke:#404040;stroke-width:9.72"/>
	<line x1="3685.10" y1="897.89" x2="3691.71" y2="866.97" style="stroke:#404040;stroke-width:9.72"/>
	<line x1="3691.71" y1="866.97" x2="3693.87" y2="855.49" style="stroke:#404040;stroke-width:9.72"/>
	<line x1="3698.06" y1="834.30" x2="3706.29" y2="791.91" style="stroke:#404040;stroke-width:9.72"/>
	<line x1="3710.48" y1="770.71" x2="3718.71" y2="728.33" style="stroke:#404040;stroke-width:9.72"/>
	<line x1="3722.76" y1="707.13" x2="3731.00" y2="664.74" style="stroke:#404040;stroke-width:9.72"/>
	<line x1="3735.18" y1="643.55" x2="3743.42" y2="601.16" style="stroke:#404040;stroke-width:9.72"/>
	<line x1="3747.47" y1="579.96" x2="3755.70" y2="537.57" style="stroke:#404040;stroke-width:9.72"/>
	<line x1="3757.73" y1="553.64" x2="3760.97" y2="596.70" style="stroke:#404040;stroke-width:9.72"/>
	<line x1="3762.59" y1="618.30" x2="3765.83" y2="661.37" style="stroke:#404040;stroke-width:9.72"/>
	<line x1="3767.31" y1="682.83" x2="3770.69" y2="725.90" style="stroke:#404040;stroke-width:9.72"/>
	<line x1="3772.17" y1="747.49" x2="3775.55" y2="790.56" style="stroke:#404040;stroke-width:9.72"/>
	<line x1="3777.03" y1="812.16" x2="3780.27" y2="855.22" style="stroke:#404040;stroke-width:9.72"/>
	<line x1="3781.89" y1="876.69" x2="3785.13" y2="919.76" style="stroke:#404040;stroke-width:9.72"/>
	<line x1="3786.75" y1="941.36" x2="3789.99" y2="984.42" style="stroke:#404040;stroke-width:9.72"/>
	<line x1="3791.61" y1="1005.89" x2="3794.85" y2="1048.95" style="stroke:#404040;stroke-width:9.72"/>
	<line x1="3796.47" y1="1070.55" x2="3799.71" y2="1113.62" style="stroke:#404040;stroke-width:9.72"/>
	<line x1="3801.33" y1="1135.08" x2="3804.57" y2="1178.15" style="stroke:#404040;stroke-width:9.72"/>
	<line x1="3806.19" y1="1199.74" x2="3809.43" y2="1242.81" style="stroke:#404040;stroke-width:9.72"/>
	<line x1="3811.05" y1="1264.28" x2="3814.29" y2="1307.34" style="stroke:#404040;stroke-width:9.72"/>
	<line x1="3815.91" y1="1328.94" x2="3819.15" y2="1372.01" style="stroke:#404040;stroke-width:9.72"/>
	<line x1="3820.77" y1="1391.72" x2="3825.77" y2="1348.79" style="stroke:#404040;stroke-width:9.72"/>
	<line x1="3828.20" y1="1327.32" x2="3833.19" y2="1284.39" style="stroke:#404040;stroke-width:9.72"/>
	<line x1="3835.76" y1="1262.93" x2="3840.62" y2="1219.99" style="stroke:#404040;stroke-width:9.72"/>
	<line x1="3843.18" y1="1198.53" x2="3848.18" y2="1155.60" style="stroke:#404040;stroke-width:9.72"/>
	<line x1="3850.61" y1="1134.14" x2="3855.60" y2="1091.21" style="stroke:#404040;stroke-width:9.72"/>
	<line x1="3858.17" y1="1069.74" x2="3863.16" y2="1026.81" style="stroke:#404040;stroke-width:9.72"/>
	<line x1="3865.59" y1="1005.35" x2="3870.59" y2="962.42" style="stroke:#404040;stroke-width:9.72"/>
	<line x1="3873.15" y1="940.95" x2="3878.15" y2="898.16" style="stroke:#404040;stroke-width:9.72"/>
	<line x1="3880.58" y1="876.69" x2="3885.30" y2="836.19" style="stroke:#404040;stroke-width:9.72"/>
	<line x1="3885.30" y1="836.19" x2="3887.46" y2="837.54" style="stroke:#404040;stroke-width:9.72"/>
	<line x1="3905.55" y1="849.15" x2="3942.00" y2="872.37" style="stroke:#404040;stroke-width:9.72"/>
	<line x1="3952.80" y1="889.38" x2="3963.60" y2="931.23" style="stroke:#404040;stroke-width:9.72"/>
	<line x1="3969.00" y1="952.16" x2="3979.67" y2="994.01" style="stroke:#404040;stroke-width:9.72"/>
	<line x1="3985.07" y1="1014.93" x2="3995.87" y2="1056.78" style="stroke:#404040;stroke-width:9.72"/>
	<line x1="4001.13" y1="1077.71" x2="4011.93" y2="1119.56" style="stroke:#404040;stroke-width:9.72"/>
	<line x1="4018.82" y1="1139.94" x2="4035.56" y2="1179.63" style="stroke:#404040;stroke-width:9.72"/>
	<line x1="4043.93" y1="1199.61" x2="4060.67" y2="1239.44" style="stroke:#404040;stroke-width:9.72"/>
	<line x1="4069.04" y1="1259.42" x2="4078.89" y2="1282.91" style="stroke:#404040;stroke-width:9.72"/>
	<line x1="4078.89" y1="1282.91" x2="4091.18" y2="1270.22" style="stroke:#404040;stroke-width:9.72"/>
	<line x1="4106.43" y1="1254.83" x2="4136.67" y2="1224.05" style="stroke:#404040;stroke-width:9.72"/>
	<line x1="4148.96" y1="1227.83" x2="4168.80" y2="1266.17" style="stroke:#404040;stroke-width:9.72"/>
	<line x1="4178.79" y1="1285.34" x2="4198.77" y2="1323.68" style="stroke:#404040;stroke-width:9.72"/>
	<line x1="4208.35" y1="1339.47" x2="4219.29" y2="1297.62" style="stroke:#404040;stroke-width:9.72"/>
	<line x1="4224.83" y1="1276.70" x2="4235.63" y2="1234.98" style="stroke:#404040;stroke-width:9.72"/>
	<line x1="4241.16" y1="1213.92" x2="4251.96" y2="1172.21" style="stroke:#404040;stroke-width:9.72"/>
	<line x1="4257.50" y1="1151.28" x2="4268.30" y2="1109.43" style="stroke:#404040;stroke-width:9.72"/>
	<path d="" stroke-linejoin="round" style="fill:none;stroke:#404040;stroke-width:9.72"/>
	<line x1="224.91" y1="1840.86" x2="224.91" y2="0.00" style="stroke:#404040;stroke-width:4.32"/>
	<line x1="224.91" y1="1601.91" x2="194.94" y2="1601.91" style="stroke:#000000;stroke-width:4.32"/>
	<text x="179.96" y="1622.92" style="font-family:'Century Gothic';font-size:59.94px;fill:#000000" text-anchor="end">1500</text>
	<line x1="224.91" y1="1095.80" x2="194.94" y2="1095.80" style="stroke:#000000;stroke-width:4.32"/>
	<text x="179.96" y="1116.81" style="font-family:'Century Gothic';font-size:59.94px;fill:#000000" text-anchor="end">2000</text>
	<line x1="224.91" y1="589.55" x2="194.94" y2="589.55" style="stroke:#000000;stroke-width:4.32"/>
	<text x="179.96" y="610.56" style="font-family:'Century Gothic';font-size:59.94px;fill:#000000" text-anchor="end">2500</text>
	<line x1="224.91" y1="83.43" x2="194.94" y2="83.43" style="stroke:#000000;stroke-width:4.32"/>
	<text x="179.96" y="104.44" style="font-family:'Century Gothic';font-size:59.94px;fill:#000000" text-anchor="end">3000</text>
	<line x1="224.91" y1="1840.86" x2="4320.00" y2="1840.86" style="stroke:#404040;stroke-width:4.32"/>
	<line x1="272.43" y1="1840.86" x2="272.43" y2="1870.83" style="stroke:#000000;stroke-width:4.32"/>
	<text x="272.43" y="1927.71" style="font-family:'Century Gothic';font-size:59.94px;fill:#000000" text-anchor="middle">-20</text>
	<line x1="1562.76" y1="1840.86" x2="1562.76" y2="1870.83" style="stroke:#000000;stroke-width:4.32"/>
	<text x="1562.76" y="1927.71" style="font-family:'Century Gothic';font-size:59.94px;fill:#000000" text-anchor="middle">0</text>
	<line x1="2853.09" y1="1840.86" x2="2853.09" y2="1870.83" style="stroke:#000000;stroke-width:4.32"/>
	<text x="2853.09" y="1927.71" style="font-family:'Century Gothic';font-size:59.94px;fill:#000000" text-anchor="middle">20</text>
	<line x1="4143.42" y1="1840.86" x2="4143.42" y2="1870.83" style="stroke:#000000;stroke-width:4.32"/>
	<text x="4143.42" y="1927.71" style="font-family:'Century Gothic';font-size:59.94px;fill:#000000" text-anchor="middle">40</text>
	<rect x="1395.90" y="1994.22" width="1753.25" height="139.86" style="fill:#FFFFFF"/>
	<rect x="1398.06" y="1996.38" width="1748.93" height="135.54" style="fill:none;stroke:#EAF2F3;stroke-opacity:0.00;stroke-width:4.32"/>
	<line x1="1428.30" y1="2064.15" x2="1709.10" y2="2064.15" style="stroke:#83082A;stroke-width:9.72"/>
	<line x1="2152.17" y1="2064.15" x2="2195.37" y2="2064.15" style="stroke:#404040;stroke-width:9.72"/>
	<line x1="2216.97" y1="2064.15" x2="2260.17" y2="2064.15" style="stroke:#404040;stroke-width:9.72"/>
	<line x1="2281.77" y1="2064.15" x2="2324.97" y2="2064.15" style="stroke:#404040;stroke-width:9.72"/>
	<line x1="2346.57" y1="2064.15" x2="2389.77" y2="2064.15" style="stroke:#404040;stroke-width:9.72"/>
	<line x1="2411.37" y1="2064.15" x2="2432.97" y2="2064.15" style="stroke:#404040;stroke-width:9.72"/>
	<text x="1754.06" y="2090.45" style="font-family:'Century Gothic';font-size:75.06px;fill:#000000">Treated</text>
	<text x="2477.93" y="2090.45" style="font-family:'Century Gothic';font-size:75.06px;fill:#000000">Synthetic control</text>
</svg>
