<?xml version="1.0" encoding="utf-8" standalone="no"?>
<!DOCTYPE svg PUBLIC "-//W3C//DTD SVG 1.1//EN"
  "http://www.w3.org/Graphics/SVG/1.1/DTD/svg11.dtd">
<svg xmlns:xlink="http://www.w3.org/1999/xlink" width="411.023622pt" height="205.511811pt" viewBox="0 0 411.023622 205.511811" xmlns="http://www.w3.org/2000/svg" version="1.1">
 <metadata>
  <rdf:RDF xmlns:dc="http://purl.org/dc/elements/1.1/" xmlns:cc="http://creativecommons.org/ns#" xmlns:rdf="http://www.w3.org/1999/02/22-rdf-syntax-ns#">
   <cc:Work>
    <dc:type rdf:resource="http://purl.org/dc/dcmitype/StillImage"/>
    <dc:date>2026-06-04T09:42:37.263617</dc:date>
    <dc:format>image/svg+xml</dc:format>
    <dc:creator>
     <cc:Agent>
      <dc:title>Matplotlib v3.10.8, https://matplotlib.org/</dc:title>
     </cc:Agent>
    </dc:creator>
   </cc:Work>
  </rdf:RDF>
 </metadata>
 <defs>
  <style type="text/css">*{stroke-linejoin: round; stroke-linecap: butt}</style>
 </defs>
 <g id="figure_1">
  <g id="patch_1">
   <path d="M 0 205.511811 
L 411.023622 205.511811 
L 411.023622 0 
L 0 0 
z
" style="fill: #ffffff"/>
  </g>
  <g id="axes_1">
   <g id="patch_2">
    <path d="M 53.7 169.451811 
L 401.303622 169.451811 
L 401.303622 9.72 
L 53.7 9.72 
z
" style="fill: #ffffff"/>
   </g>
   <g id="FillBetweenPolyCollection_1">
    <defs>
     <path id="md56b66cb69" d="M 69.500165 -171.622116 
L 69.500165 -76.482945 
L 74.596992 -84.414199 
L 79.693819 -96.677566 
L 84.790647 -101.831065 
L 89.887474 -86.068368 
L 94.984301 -67.986712 
L 100.081128 -60.384427 
L 105.177956 -91.268477 
L 110.274783 -61.423259 
L 115.37161 -59.964903 
L 120.468438 -43.320537 
L 125.565265 -66.4228 
L 130.662092 -77.033787 
L 135.75892 -110.566392 
L 140.855747 -107.812016 
L 145.952574 -116.314351 
L 151.049401 -92.908914 
L 156.146229 -85.095806 
L 161.243056 -95.045214 
L 166.339883 -130.188746 
L 171.436711 -109.313139 
L 176.533538 -119.13755 
L 181.630365 -125.666634 
L 186.727193 -123.599711 
L 191.82402 -120.633651 
L 196.920847 -129.558795 
L 202.017675 -129.80019 
L 207.114502 -129.539738 
L 212.211329 -118.885201 
L 217.308156 -117.143017 
L 222.404984 -119.725709 
L 227.501811 -123.852384 
L 232.598638 -128.849872 
L 237.695466 -131.402795 
L 242.792293 -132.411135 
L 247.88912 -125.63642 
L 252.985948 -127.729148 
L 258.082775 -131.506852 
L 263.179602 -134.188735 
L 268.276429 -131.581648 
L 273.373257 -123.776128 
L 278.470084 -128.832114 
L 283.566911 -112.878028 
L 288.663739 -124.47803 
L 293.760566 -130.90057 
L 298.857393 -121.725477 
L 303.954221 -127.916752 
L 309.051048 -122.000622 
L 314.147875 -123.687385 
L 319.244702 -128.227876 
L 324.34153 -133.627629 
L 329.438357 -133.895587 
L 334.535184 -123.979222 
L 339.632012 -118.02174 
L 344.728839 -104.40269 
L 349.825666 -121.297559 
L 354.922494 -123.999521 
L 360.019321 -121.730553 
L 365.116148 -129.503905 
L 370.212976 -122.262366 
L 375.309803 -120.414811 
L 380.40663 -124.790475 
L 385.503457 -126.412114 
L 385.503457 -163.268212 
L 385.503457 -163.268212 
L 380.40663 -179.568499 
L 375.309803 -174.503252 
L 370.212976 -163.700313 
L 365.116148 -168.011861 
L 360.019321 -161.13673 
L 354.922494 -164.154767 
L 349.825666 -163.015466 
L 344.728839 -163.536695 
L 339.632012 -169.677808 
L 334.535184 -154.438878 
L 329.438357 -169.000678 
L 324.34153 -181.771015 
L 319.244702 -185.781672 
L 314.147875 -176.323484 
L 309.051048 -168.459359 
L 303.954221 -168.915539 
L 298.857393 -160.55411 
L 293.760566 -163.834798 
L 288.663739 -162.929106 
L 283.566911 -170.083696 
L 278.470084 -170.697559 
L 273.373257 -154.875453 
L 268.276429 -163.486496 
L 263.179602 -175.583492 
L 258.082775 -182.588276 
L 252.985948 -177.492164 
L 247.88912 -169.591344 
L 242.792293 -184.615115 
L 237.695466 -164.643679 
L 232.598638 -159.266233 
L 227.501811 -154.999641 
L 222.404984 -165.66343 
L 217.308156 -168.839215 
L 212.211329 -152.964034 
L 207.114502 -162.592193 
L 202.017675 -165.10336 
L 196.920847 -188.531274 
L 191.82402 -177.105269 
L 186.727193 -168.602731 
L 181.630365 -174.804112 
L 176.533538 -162.946666 
L 171.436711 -162.807744 
L 166.339883 -130.188746 
L 161.243056 -162.354883 
L 156.146229 -167.651191 
L 151.049401 -152.444058 
L 145.952574 -156.840857 
L 140.855747 -169.710895 
L 135.75892 -160.370015 
L 130.662092 -158.759406 
L 125.565265 -147.851035 
L 120.468438 -147.729377 
L 115.37161 -144.451145 
L 110.274783 -141.975396 
L 105.177956 -122.504174 
L 100.081128 -141.048393 
L 94.984301 -154.961445 
L 89.887474 -143.28918 
L 84.790647 -162.645232 
L 79.693819 -162.86825 
L 74.596992 -181.598096 
L 69.500165 -171.622116 
z
"/>
    </defs>
    <g clip-path="url(#pfcd3f81602)">
     <use xlink:href="#md56b66cb69" x="0" y="205.511811" style="fill: #e397a0; fill-opacity: 0.55"/>
    </g>
   </g>
   <g id="matplotlib.axis_1">
    <g id="xtick_1">
     <g id="line2d_1">
      <defs>
       <path id="m8559751db5" d="M 0 0 
L 0 3 
" style="stroke: #404040"/>
      </defs>
      <g>
       <use xlink:href="#m8559751db5" x="69.500165" y="169.451811" style="fill: #404040; stroke: #404040"/>
      </g>
     </g>
     <g id="text_1">
      <!-- −20 -->
      <g style="fill: #4d4d4d" transform="translate(61.759462 182.579467) scale(0.09 -0.09)">
       <defs>
        <path id="CenturyGothic-Bold-2212" d="M 359 2688 
L 3481 2688 
L 3481 1906 
L 359 1906 
L 359 2688 
z
" transform="scale(0.015625)"/>
        <path id="CenturyGothic-Bold-32" d="M 1116 3116 
L 263 3116 
Q 297 3859 730 4286 
Q 1163 4713 1841 4713 
Q 2259 4713 2579 4536 
Q 2900 4359 3092 4026 
Q 3284 3694 3284 3350 
Q 3284 2941 3051 2469 
Q 2819 1997 2200 1353 
L 1684 809 
L 3322 809 
L 3322 0 
L 138 0 
L 138 419 
L 1559 1869 
Q 2075 2391 2245 2708 
Q 2416 3025 2416 3281 
Q 2416 3547 2239 3720 
Q 2063 3894 1784 3894 
Q 1503 3894 1315 3684 
Q 1128 3475 1116 3116 
z
" transform="scale(0.015625)"/>
        <path id="CenturyGothic-Bold-30" d="M 1778 4713 
Q 2281 4713 2645 4466 
Q 3009 4219 3207 3711 
Q 3406 3203 3406 2297 
Q 3406 1381 3204 872 
Q 3003 363 2662 123 
Q 2322 -116 1803 -116 
Q 1284 -116 931 125 
Q 578 366 378 856 
Q 178 1347 178 2253 
Q 178 3519 569 4088 
Q 1003 4713 1778 4713 
z
M 1800 3881 
Q 1578 3881 1406 3739 
Q 1234 3597 1143 3250 
Q 1053 2903 1053 2234 
Q 1053 1363 1261 1030 
Q 1469 697 1800 697 
Q 2119 697 2306 1013 
Q 2534 1394 2534 2288 
Q 2534 3194 2329 3537 
Q 2125 3881 1800 3881 
z
" transform="scale(0.015625)"/>
       </defs>
       <use xlink:href="#CenturyGothic-Bold-2212"/>
       <use xlink:href="#CenturyGothic-Bold-32" transform="translate(60.009766 0)"/>
       <use xlink:href="#CenturyGothic-Bold-30" transform="translate(116.015625 0)"/>
      </g>
     </g>
    </g>
    <g id="xtick_2">
     <g id="line2d_2">
      <g>
       <use xlink:href="#m8559751db5" x="120.468438" y="169.451811" style="fill: #404040; stroke: #404040"/>
      </g>
     </g>
     <g id="text_2">
      <!-- −10 -->
      <g style="fill: #4d4d4d" transform="translate(112.727735 182.579467) scale(0.09 -0.09)">
       <defs>
        <path id="CenturyGothic-Bold-31" d="M 1053 4597 
L 2363 4597 
L 2363 0 
L 1494 0 
L 1494 3775 
L 547 3775 
L 1053 4597 
z
" transform="scale(0.015625)"/>
       </defs>
       <use xlink:href="#CenturyGothic-Bold-2212"/>
       <use xlink:href="#CenturyGothic-Bold-31" transform="translate(60.009766 0)"/>
       <use xlink:href="#CenturyGothic-Bold-30" transform="translate(116.015625 0)"/>
      </g>
     </g>
    </g>
    <g id="xtick_3">
     <g id="line2d_3">
      <g>
       <use xlink:href="#m8559751db5" x="171.436711" y="169.451811" style="fill: #404040; stroke: #404040"/>
      </g>
     </g>
     <g id="text_3">
      <!-- 0 -->
      <g style="fill: #4d4d4d" transform="translate(168.916711 182.579467) scale(0.09 -0.09)">
       <use xlink:href="#CenturyGothic-Bold-30"/>
      </g>
     </g>
    </g>
    <g id="xtick_4">
     <g id="line2d_4">
      <g>
       <use xlink:href="#m8559751db5" x="222.404984" y="169.451811" style="fill: #404040; stroke: #404040"/>
      </g>
     </g>
     <g id="text_4">
      <!-- 10 -->
      <g style="fill: #4d4d4d" transform="translate(217.364984 182.579467) scale(0.09 -0.09)">
       <use xlink:href="#CenturyGothic-Bold-31"/>
       <use xlink:href="#CenturyGothic-Bold-30" transform="translate(56.005859 0)"/>
      </g>
     </g>
    </g>
    <g id="xtick_5">
     <g id="line2d_5">
      <g>
       <use xlink:href="#m8559751db5" x="273.373257" y="169.451811" style="fill: #404040; stroke: #404040"/>
      </g>
     </g>
     <g id="text_5">
      <!-- 20 -->
      <g style="fill: #4d4d4d" transform="translate(268.333257 182.579467) scale(0.09 -0.09)">
       <use xlink:href="#CenturyGothic-Bold-32"/>
       <use xlink:href="#CenturyGothic-Bold-30" transform="translate(56.005859 0)"/>
      </g>
     </g>
    </g>
    <g id="xtick_6">
     <g id="line2d_6">
      <g>
       <use xlink:href="#m8559751db5" x="324.34153" y="169.451811" style="fill: #404040; stroke: #404040"/>
      </g>
     </g>
     <g id="text_6">
      <!-- 30 -->
      <g style="fill: #4d4d4d" transform="translate(319.30153 182.579467) scale(0.09 -0.09)">
       <defs>
        <path id="CenturyGothic-Bold-33" d="M 1216 3463 
L 375 3463 
Q 441 3972 741 4281 
Q 1159 4713 1794 4713 
Q 2359 4713 2742 4353 
Q 3125 3994 3125 3500 
Q 3125 3194 2958 2941 
Q 2791 2688 2472 2531 
Q 2891 2406 3127 2095 
Q 3363 1784 3363 1363 
Q 3363 744 2906 314 
Q 2450 -116 1744 -116 
Q 1075 -116 653 289 
Q 231 694 191 1391 
L 1056 1391 
Q 1113 1034 1305 861 
Q 1497 688 1791 688 
Q 2097 688 2298 884 
Q 2500 1081 2500 1366 
Q 2500 1678 2228 1893 
Q 1956 2109 1444 2116 
L 1444 2866 
Q 1759 2891 1914 2964 
Q 2069 3038 2155 3166 
Q 2241 3294 2241 3438 
Q 2241 3625 2109 3748 
Q 1978 3872 1766 3872 
Q 1578 3872 1425 3758 
Q 1272 3644 1216 3463 
z
" transform="scale(0.015625)"/>
       </defs>
       <use xlink:href="#CenturyGothic-Bold-33"/>
       <use xlink:href="#CenturyGothic-Bold-30" transform="translate(56.005859 0)"/>
      </g>
     </g>
    </g>
    <g id="xtick_7">
     <g id="line2d_7">
      <g>
       <use xlink:href="#m8559751db5" x="375.309803" y="169.451811" style="fill: #404040; stroke: #404040"/>
      </g>
     </g>
     <g id="text_7">
      <!-- 40 -->
      <g style="fill: #4d4d4d" transform="translate(370.269803 182.579467) scale(0.09 -0.09)">
       <defs>
        <path id="CenturyGothic-Bold-34" d="M 2119 4713 
L 2994 4713 
L 2994 1753 
L 3403 1753 
L 3403 944 
L 2994 944 
L 2994 0 
L 2138 0 
L 2138 944 
L 131 944 
L 131 1753 
L 2119 4713 
z
M 2138 1753 
L 2138 3294 
L 1088 1753 
L 2138 1753 
z
" transform="scale(0.015625)"/>
       </defs>
       <use xlink:href="#CenturyGothic-Bold-34"/>
       <use xlink:href="#CenturyGothic-Bold-30" transform="translate(56.005859 0)"/>
      </g>
     </g>
    </g>
    <g id="text_8">
     <!-- Months relative to 2022-09 (baseline = -1) -->
     <g transform="translate(138.834936 195.078842) scale(0.09 -0.09)">
      <defs>
       <path id="CenturyGothic-4d" d="M 350 0 
L 1003 4597 
L 1078 4597 
L 2947 825 
L 4797 4597 
L 4872 4597 
L 5531 0 
L 5078 0 
L 4628 3288 
L 3003 0 
L 2888 0 
L 1241 3313 
L 794 0 
L 350 0 
z
" transform="scale(0.015625)"/>
       <path id="CenturyGothic-6f" d="M 2097 3488 
Q 2881 3488 3397 2919 
Q 3866 2400 3866 1691 
Q 3866 978 3370 445 
Q 2875 -88 2097 -88 
Q 1316 -88 820 445 
Q 325 978 325 1691 
Q 325 2397 794 2916 
Q 1309 3488 2097 3488 
z
M 2097 3059 
Q 1553 3059 1162 2656 
Q 772 2253 772 1681 
Q 772 1313 950 994 
Q 1128 675 1431 501 
Q 1734 328 2097 328 
Q 2459 328 2762 501 
Q 3066 675 3244 994 
Q 3422 1313 3422 1681 
Q 3422 2253 3030 2656 
Q 2638 3059 2097 3059 
z
" transform="scale(0.015625)"/>
       <path id="CenturyGothic-6e" d="M 488 3400 
L 925 3400 
L 925 2791 
Q 1188 3141 1506 3314 
Q 1825 3488 2200 3488 
Q 2581 3488 2876 3294 
Q 3172 3100 3312 2772 
Q 3453 2444 3453 1750 
L 3453 0 
L 3019 0 
L 3019 1622 
Q 3019 2209 2969 2406 
Q 2891 2744 2675 2914 
Q 2459 3084 2113 3084 
Q 1716 3084 1402 2821 
Q 1088 2559 988 2172 
Q 925 1919 925 1247 
L 925 0 
L 488 0 
L 488 3400 
z
" transform="scale(0.015625)"/>
       <path id="CenturyGothic-74" d="M 869 4663 
L 1309 4663 
L 1309 3400 
L 2003 3400 
L 2003 3025 
L 1309 3025 
L 1309 0 
L 869 0 
L 869 3025 
L 272 3025 
L 272 3400 
L 869 3400 
L 869 4663 
z
" transform="scale(0.015625)"/>
       <path id="CenturyGothic-68" d="M 488 4713 
L 925 4713 
L 925 2791 
Q 1191 3141 1509 3314 
Q 1828 3488 2200 3488 
Q 2581 3488 2876 3294 
Q 3172 3100 3312 2773 
Q 3453 2447 3453 1750 
L 3453 0 
L 3016 0 
L 3016 1622 
Q 3016 2209 2969 2406 
Q 2888 2744 2673 2914 
Q 2459 3084 2113 3084 
Q 1716 3084 1402 2821 
Q 1088 2559 988 2172 
Q 925 1922 925 1247 
L 925 0 
L 488 0 
L 488 4713 
z
" transform="scale(0.015625)"/>
       <path id="CenturyGothic-73" d="M 2197 3028 
L 1916 2738 
Q 1566 3078 1231 3078 
Q 1019 3078 867 2937 
Q 716 2797 716 2609 
Q 716 2444 841 2294 
Q 966 2141 1366 1934 
Q 1853 1681 2028 1447 
Q 2200 1209 2200 913 
Q 2200 494 1906 203 
Q 1613 -88 1172 -88 
Q 878 -88 611 40 
Q 344 169 169 394 
L 444 706 
Q 778 328 1153 328 
Q 1416 328 1600 497 
Q 1784 666 1784 894 
Q 1784 1081 1663 1228 
Q 1541 1372 1113 1591 
Q 653 1828 488 2059 
Q 322 2291 322 2588 
Q 322 2975 586 3231 
Q 850 3488 1253 3488 
Q 1722 3488 2197 3028 
z
" transform="scale(0.015625)"/>
       <path id="CenturyGothic-20" transform="scale(0.015625)"/>
       <path id="CenturyGothic-72" d="M 322 3400 
L 769 3400 
L 769 2903 
Q 969 3197 1191 3342 
Q 1413 3488 1653 3488 
Q 1834 3488 2041 3372 
L 1813 3003 
Q 1675 3063 1581 3063 
Q 1363 3063 1159 2883 
Q 956 2703 850 2325 
Q 769 2034 769 1150 
L 769 0 
L 322 0 
L 322 3400 
z
" transform="scale(0.015625)"/>
       <path id="CenturyGothic-65" d="M 3350 1128 
L 3719 934 
Q 3538 578 3300 359 
Q 3063 141 2766 26 
Q 2469 -88 2094 -88 
Q 1263 -88 794 457 
Q 325 1003 325 1691 
Q 325 2338 722 2844 
Q 1225 3488 2069 3488 
Q 2938 3488 3456 2828 
Q 3825 2363 3831 1666 
L 775 1666 
Q 788 1072 1153 692 
Q 1519 313 2056 313 
Q 2316 313 2561 403 
Q 2806 494 2978 644 
Q 3150 794 3350 1128 
z
M 3350 2044 
Q 3263 2394 3095 2603 
Q 2928 2813 2653 2941 
Q 2378 3069 2075 3069 
Q 1575 3069 1216 2747 
Q 953 2513 819 2044 
L 3350 2044 
z
" transform="scale(0.015625)"/>
       <path id="CenturyGothic-6c" d="M 422 4713 
L 859 4713 
L 859 0 
L 422 0 
L 422 4713 
z
" transform="scale(0.015625)"/>
       <path id="CenturyGothic-61" d="M 3875 3400 
L 3875 0 
L 3444 0 
L 3444 584 
Q 3169 250 2826 81 
Q 2484 -88 2078 -88 
Q 1356 -88 845 435 
Q 334 959 334 1709 
Q 334 2444 850 2966 
Q 1366 3488 2091 3488 
Q 2509 3488 2848 3309 
Q 3188 3131 3444 2775 
L 3444 3400 
L 3875 3400 
z
M 2125 3066 
Q 1759 3066 1450 2886 
Q 1141 2706 958 2381 
Q 775 2056 775 1694 
Q 775 1334 959 1006 
Q 1144 678 1455 495 
Q 1766 313 2122 313 
Q 2481 313 2803 494 
Q 3125 675 3298 984 
Q 3472 1294 3472 1681 
Q 3472 2272 3083 2669 
Q 2694 3066 2125 3066 
z
" transform="scale(0.015625)"/>
       <path id="CenturyGothic-69" d="M 641 4800 
Q 791 4800 897 4694 
Q 1003 4588 1003 4438 
Q 1003 4291 897 4184 
Q 791 4078 641 4078 
Q 494 4078 387 4184 
Q 281 4291 281 4438 
Q 281 4588 387 4694 
Q 494 4800 641 4800 
z
M 422 3400 
L 863 3400 
L 863 0 
L 422 0 
L 422 3400 
z
" transform="scale(0.015625)"/>
       <path id="CenturyGothic-76" d="M 166 3400 
L 631 3400 
L 1769 925 
L 2897 3400 
L 3366 3400 
L 1809 0 
L 1731 0 
L 166 3400 
z
" transform="scale(0.015625)"/>
       <path id="CenturyGothic-32" d="M 741 3156 
L 300 3156 
Q 319 3838 755 4275 
Q 1191 4713 1831 4713 
Q 2466 4713 2858 4303 
Q 3250 3894 3250 3338 
Q 3250 2947 3062 2605 
Q 2875 2263 2334 1678 
L 1191 444 
L 3313 444 
L 3313 0 
L 191 0 
L 1947 1897 
Q 2481 2469 2642 2745 
Q 2803 3022 2803 3328 
Q 2803 3716 2514 3995 
Q 2225 4275 1806 4275 
Q 1366 4275 1073 3981 
Q 781 3688 741 3156 
z
" transform="scale(0.015625)"/>
       <path id="CenturyGothic-30" d="M 203 2297 
Q 203 3206 398 3703 
Q 594 4200 950 4456 
Q 1306 4713 1747 4713 
Q 2194 4713 2556 4455 
Q 2919 4197 3130 3681 
Q 3341 3166 3341 2297 
Q 3341 1431 3133 918 
Q 2925 406 2559 145 
Q 2194 -116 1747 -116 
Q 1306 -116 953 137 
Q 600 391 401 892 
Q 203 1394 203 2297 
z
M 638 2288 
Q 638 1509 777 1111 
Q 916 713 1187 506 
Q 1459 300 1763 300 
Q 2069 300 2334 501 
Q 2600 703 2738 1106 
Q 2909 1597 2909 2288 
Q 2909 2981 2756 3423 
Q 2603 3866 2333 4070 
Q 2063 4275 1763 4275 
Q 1456 4275 1187 4070 
Q 919 3866 778 3467 
Q 638 3069 638 2288 
z
" transform="scale(0.015625)"/>
       <path id="CenturyGothic-2d" d="M 203 1919 
L 1922 1919 
L 1922 1538 
L 203 1538 
L 203 1919 
z
" transform="scale(0.015625)"/>
       <path id="CenturyGothic-39" d="M 1228 -116 
L 850 128 
L 2091 2009 
Q 1841 1928 1622 1928 
Q 1075 1928 694 2323 
Q 313 2719 313 3297 
Q 313 3694 497 4012 
Q 681 4331 1020 4522 
Q 1359 4713 1747 4713 
Q 2128 4713 2451 4528 
Q 2775 4344 2959 4012 
Q 3144 3681 3144 3306 
Q 3144 3022 3030 2711 
Q 2916 2400 2622 1963 
L 1228 -116 
z
M 1728 2331 
Q 2131 2331 2414 2614 
Q 2697 2897 2697 3297 
Q 2697 3697 2414 3980 
Q 2131 4263 1728 4263 
Q 1328 4263 1045 3980 
Q 763 3697 763 3297 
Q 763 2897 1045 2614 
Q 1328 2331 1728 2331 
z
" transform="scale(0.015625)"/>
       <path id="CenturyGothic-28" d="M 1469 4800 
L 1975 4800 
Q 1669 4172 1484 3334 
Q 1300 2497 1300 1606 
Q 1300 781 1439 15 
Q 1578 -750 1822 -1331 
L 1341 -1331 
Q 1109 -775 971 -22 
Q 834 731 834 1547 
Q 834 2425 996 3258 
Q 1159 4091 1469 4800 
z
" transform="scale(0.015625)"/>
       <path id="CenturyGothic-62" d="M 516 0 
L 516 4713 
L 950 4713 
L 950 2816 
Q 1225 3153 1565 3320 
Q 1906 3488 2313 3488 
Q 3034 3488 3545 2964 
Q 4056 2441 4056 1694 
Q 4056 956 3540 434 
Q 3025 -88 2300 -88 
Q 1884 -88 1546 90 
Q 1209 269 950 625 
L 950 0 
L 516 0 
z
M 2266 334 
Q 2631 334 2940 514 
Q 3250 694 3433 1019 
Q 3616 1344 3616 1706 
Q 3616 2069 3431 2397 
Q 3247 2725 2936 2908 
Q 2625 3091 2272 3091 
Q 1913 3091 1589 2908 
Q 1266 2725 1092 2415 
Q 919 2106 919 1719 
Q 919 1128 1308 731 
Q 1697 334 2266 334 
z
" transform="scale(0.015625)"/>
       <path id="CenturyGothic-3d" d="M 3522 3200 
L 3522 2772 
L 359 2772 
L 359 3200 
L 3522 3200 
z
M 3522 1825 
L 3522 1397 
L 359 1397 
L 359 1825 
L 3522 1825 
z
" transform="scale(0.015625)"/>
       <path id="CenturyGothic-31" d="M 1184 4597 
L 2088 4597 
L 2088 0 
L 1631 0 
L 1631 4147 
L 909 4147 
L 1184 4597 
z
" transform="scale(0.015625)"/>
       <path id="CenturyGothic-29" d="M 894 -1331 
L 388 -1331 
Q 697 -703 880 134 
Q 1063 972 1063 1863 
Q 1063 2688 923 3453 
Q 784 4219 541 4800 
L 1022 4800 
Q 1256 4244 1392 3489 
Q 1528 2734 1528 1919 
Q 1528 1044 1365 211 
Q 1203 -622 894 -1331 
z
" transform="scale(0.015625)"/>
      </defs>
      <use xlink:href="#CenturyGothic-4d"/>
      <use xlink:href="#CenturyGothic-6f" transform="translate(91.894531 0)"/>
      <use xlink:href="#CenturyGothic-6e" transform="translate(157.373047 0)"/>
      <use xlink:href="#CenturyGothic-74" transform="translate(218.359375 0)"/>
      <use xlink:href="#CenturyGothic-68" transform="translate(252.246094 0)"/>
      <use xlink:href="#CenturyGothic-73" transform="translate(313.232422 0)"/>
      <use xlink:href="#CenturyGothic-20" transform="translate(352.050781 0)"/>
      <use xlink:href="#CenturyGothic-72" transform="translate(379.736328 0)"/>
      <use xlink:href="#CenturyGothic-65" transform="translate(409.814453 0)"/>
      <use xlink:href="#CenturyGothic-6c" transform="translate(474.804688 0)"/>
      <use xlink:href="#CenturyGothic-61" transform="translate(494.824219 0)"/>
      <use xlink:href="#CenturyGothic-74" transform="translate(563.134766 0)"/>
      <use xlink:href="#CenturyGothic-69" transform="translate(597.021484 0)"/>
      <use xlink:href="#CenturyGothic-76" transform="translate(617.041016 0)"/>
      <use xlink:href="#CenturyGothic-65" transform="translate(672.460938 0)"/>
      <use xlink:href="#CenturyGothic-20" transform="translate(737.451172 0)"/>
      <use xlink:href="#CenturyGothic-74" transform="translate(765.136719 0)"/>
      <use xlink:href="#CenturyGothic-6f" transform="translate(799.023438 0)"/>
      <use xlink:href="#CenturyGothic-20" transform="translate(864.501953 0)"/>
      <use xlink:href="#CenturyGothic-32" transform="translate(892.1875 0)"/>
      <use xlink:href="#CenturyGothic-30" transform="translate(947.607422 0)"/>
      <use xlink:href="#CenturyGothic-32" transform="translate(1003.027344 0)"/>
      <use xlink:href="#CenturyGothic-32" transform="translate(1058.447266 0)"/>
      <use xlink:href="#CenturyGothic-2d" transform="translate(1113.867188 0)"/>
      <use xlink:href="#CenturyGothic-30" transform="translate(1147.070312 0)"/>
      <use xlink:href="#CenturyGothic-39" transform="translate(1202.490234 0)"/>
      <use xlink:href="#CenturyGothic-20" transform="translate(1257.910156 0)"/>
      <use xlink:href="#CenturyGothic-28" transform="translate(1285.595703 0)"/>
      <use xlink:href="#CenturyGothic-62" transform="translate(1322.509766 0)"/>
      <use xlink:href="#CenturyGothic-61" transform="translate(1390.722656 0)"/>
      <use xlink:href="#CenturyGothic-73" transform="translate(1459.033203 0)"/>
      <use xlink:href="#CenturyGothic-65" transform="translate(1497.851562 0)"/>
      <use xlink:href="#CenturyGothic-6c" transform="translate(1562.841797 0)"/>
      <use xlink:href="#CenturyGothic-69" transform="translate(1582.861328 0)"/>
      <use xlink:href="#CenturyGothic-6e" transform="translate(1602.880859 0)"/>
      <use xlink:href="#CenturyGothic-65" transform="translate(1663.867188 0)"/>
      <use xlink:href="#CenturyGothic-20" transform="translate(1728.857422 0)"/>
      <use xlink:href="#CenturyGothic-3d" transform="translate(1756.542969 0)"/>
      <use xlink:href="#CenturyGothic-20" transform="translate(1817.138672 0)"/>
      <use xlink:href="#CenturyGothic-2d" transform="translate(1844.824219 0)"/>
      <use xlink:href="#CenturyGothic-31" transform="translate(1878.027344 0)"/>
      <use xlink:href="#CenturyGothic-29" transform="translate(1933.447266 0)"/>
     </g>
    </g>
   </g>
   <g id="matplotlib.axis_2">
    <g id="ytick_1">
     <g id="line2d_8">
      <path d="M 53.7 142.241435 
L 401.303622 142.241435 
" clip-path="url(#pfcd3f81602)" style="fill: none; stroke: #cccccc; stroke-linecap: square"/>
     </g>
     <g id="line2d_9">
      <defs>
       <path id="m908b8d6bfb" d="M 0 0 
L -3 0 
" style="stroke: #404040"/>
      </defs>
      <g>
       <use xlink:href="#m908b8d6bfb" x="53.7" y="142.241435" style="fill: #404040; stroke: #404040"/>
      </g>
     </g>
     <g id="text_9">
      <!-- −4000 -->
      <g style="fill: #4d4d4d" transform="translate(21.638594 145.555263) scale(0.09 -0.09)">
       <use xlink:href="#CenturyGothic-Bold-2212"/>
       <use xlink:href="#CenturyGothic-Bold-34" transform="translate(60.009766 0)"/>
       <use xlink:href="#CenturyGothic-Bold-30" transform="translate(116.015625 0)"/>
       <use xlink:href="#CenturyGothic-Bold-30" transform="translate(172.021484 0)"/>
       <use xlink:href="#CenturyGothic-Bold-30" transform="translate(228.027344 0)"/>
      </g>
     </g>
    </g>
    <g id="ytick_2">
     <g id="line2d_10">
      <path d="M 53.7 108.78225 
L 401.303622 108.78225 
" clip-path="url(#pfcd3f81602)" style="fill: none; stroke: #cccccc; stroke-linecap: square"/>
     </g>
     <g id="line2d_11">
      <g>
       <use xlink:href="#m908b8d6bfb" x="53.7" y="108.78225" style="fill: #404040; stroke: #404040"/>
      </g>
     </g>
     <g id="text_10">
      <!-- −2000 -->
      <g style="fill: #4d4d4d" transform="translate(21.638594 112.096078) scale(0.09 -0.09)">
       <use xlink:href="#CenturyGothic-Bold-2212"/>
       <use xlink:href="#CenturyGothic-Bold-32" transform="translate(60.009766 0)"/>
       <use xlink:href="#CenturyGothic-Bold-30" transform="translate(116.015625 0)"/>
       <use xlink:href="#CenturyGothic-Bold-30" transform="translate(172.021484 0)"/>
       <use xlink:href="#CenturyGothic-Bold-30" transform="translate(228.027344 0)"/>
      </g>
     </g>
    </g>
    <g id="ytick_3">
     <g id="line2d_12">
      <path d="M 53.7 75.323065 
L 401.303622 75.323065 
" clip-path="url(#pfcd3f81602)" style="fill: none; stroke: #cccccc; stroke-linecap: square"/>
     </g>
     <g id="line2d_13">
      <g>
       <use xlink:href="#m908b8d6bfb" x="53.7" y="75.323065" style="fill: #404040; stroke: #404040"/>
      </g>
     </g>
     <g id="text_11">
      <!-- 0 -->
      <g style="fill: #4d4d4d" transform="translate(42.16 78.636893) scale(0.09 -0.09)">
       <use xlink:href="#CenturyGothic-Bold-30"/>
      </g>
     </g>
    </g>
    <g id="ytick_4">
     <g id="line2d_14">
      <path d="M 53.7 41.86388 
L 401.303622 41.86388 
" clip-path="url(#pfcd3f81602)" style="fill: none; stroke: #cccccc; stroke-linecap: square"/>
     </g>
     <g id="line2d_15">
      <g>
       <use xlink:href="#m908b8d6bfb" x="53.7" y="41.86388" style="fill: #404040; stroke: #404040"/>
      </g>
     </g>
     <g id="text_12">
      <!-- 2000 -->
      <g style="fill: #4d4d4d" transform="translate(27.04 45.177708) scale(0.09 -0.09)">
       <use xlink:href="#CenturyGothic-Bold-32"/>
       <use xlink:href="#CenturyGothic-Bold-30" transform="translate(56.005859 0)"/>
       <use xlink:href="#CenturyGothic-Bold-30" transform="translate(112.011719 0)"/>
       <use xlink:href="#CenturyGothic-Bold-30" transform="translate(168.017578 0)"/>
      </g>
     </g>
    </g>
    <g id="text_13">
     <!-- Effect on contracts -->
     <g transform="translate(15.889219 131.10614) rotate(-90) scale(0.09 -0.09)">
      <defs>
       <path id="CenturyGothic-45" d="M 563 4597 
L 3197 4597 
L 3197 4144 
L 1022 4144 
L 1022 2706 
L 3178 2706 
L 3178 2256 
L 1022 2256 
L 1022 453 
L 3178 453 
L 3178 0 
L 563 0 
L 563 4597 
z
" transform="scale(0.015625)"/>
       <path id="CenturyGothic-66" d="M 1888 4713 
L 1888 4284 
Q 1647 4388 1475 4388 
Q 1347 4388 1262 4336 
Q 1178 4284 1156 4217 
Q 1134 4150 1134 3859 
L 1134 3400 
L 1844 3400 
L 1844 3025 
L 1131 3025 
L 1131 0 
L 694 0 
L 694 3025 
L 247 3025 
L 247 3400 
L 694 3400 
L 694 3931 
Q 694 4297 761 4453 
Q 828 4609 989 4704 
Q 1150 4800 1378 4800 
Q 1591 4800 1888 4713 
z
" transform="scale(0.015625)"/>
       <path id="CenturyGothic-63" d="M 3788 2694 
L 3441 2478 
Q 2991 3075 2213 3075 
Q 1591 3075 1180 2675 
Q 769 2275 769 1703 
Q 769 1331 958 1003 
Q 1147 675 1476 494 
Q 1806 313 2216 313 
Q 2966 313 3441 909 
L 3788 681 
Q 3544 316 3133 114 
Q 2722 -88 2197 -88 
Q 1391 -88 859 425 
Q 328 938 328 1672 
Q 328 2166 576 2589 
Q 825 3013 1259 3250 
Q 1694 3488 2231 3488 
Q 2569 3488 2883 3384 
Q 3197 3281 3415 3115 
Q 3634 2950 3788 2694 
z
" transform="scale(0.015625)"/>
      </defs>
      <use xlink:href="#CenturyGothic-45"/>
      <use xlink:href="#CenturyGothic-66" transform="translate(53.613281 0)"/>
      <use xlink:href="#CenturyGothic-66" transform="translate(85.009766 0)"/>
      <use xlink:href="#CenturyGothic-65" transform="translate(116.40625 0)"/>
      <use xlink:href="#CenturyGothic-63" transform="translate(181.396484 0)"/>
      <use xlink:href="#CenturyGothic-74" transform="translate(246.09375 0)"/>
      <use xlink:href="#CenturyGothic-20" transform="translate(279.980469 0)"/>
      <use xlink:href="#CenturyGothic-6f" transform="translate(307.666016 0)"/>
      <use xlink:href="#CenturyGothic-6e" transform="translate(373.144531 0)"/>
      <use xlink:href="#CenturyGothic-20" transform="translate(434.130859 0)"/>
      <use xlink:href="#CenturyGothic-63" transform="translate(461.816406 0)"/>
      <use xlink:href="#CenturyGothic-6f" transform="translate(526.513672 0)"/>
      <use xlink:href="#CenturyGothic-6e" transform="translate(591.992188 0)"/>
      <use xlink:href="#CenturyGothic-74" transform="translate(652.978516 0)"/>
      <use xlink:href="#CenturyGothic-72" transform="translate(686.865234 0)"/>
      <use xlink:href="#CenturyGothic-61" transform="translate(716.943359 0)"/>
      <use xlink:href="#CenturyGothic-63" transform="translate(785.253906 0)"/>
      <use xlink:href="#CenturyGothic-74" transform="translate(849.951172 0)"/>
      <use xlink:href="#CenturyGothic-73" transform="translate(883.837891 0)"/>
     </g>
    </g>
   </g>
   <g id="line2d_16">
    <path d="M 53.7 75.323065 
L 401.303622 75.323065 
" clip-path="url(#pfcd3f81602)" style="fill: none; stroke: #404040; stroke-width: 0.9; stroke-linecap: square"/>
   </g>
   <g id="line2d_17">
    <path d="M 168.888297 169.451811 
L 168.888297 9.72 
" clip-path="url(#pfcd3f81602)" style="fill: none; stroke-dasharray: 3.7,1.6; stroke-dashoffset: 0; stroke: #404040"/>
   </g>
   <g id="line2d_18">
    <path d="M 69.500165 81.459281 
L 74.596992 72.505663 
L 79.693819 75.738903 
L 84.790647 73.273663 
L 89.887474 90.833037 
L 94.984301 94.037732 
L 100.081128 104.795401 
L 105.177956 98.625486 
L 110.274783 103.812484 
L 115.37161 103.303787 
L 120.468438 109.986854 
L 125.565265 98.374893 
L 130.662092 87.615215 
L 135.75892 70.043607 
L 140.855747 66.750356 
L 145.952574 68.934207 
L 151.049401 82.835325 
L 156.146229 79.138313 
L 161.243056 76.811762 
L 166.339883 75.323065 
L 171.436711 69.451369 
L 176.533538 64.469703 
L 181.630365 55.276438 
L 186.727193 59.41059 
L 191.82402 56.642351 
L 196.920847 46.466777 
L 202.017675 58.060036 
L 207.114502 59.445846 
L 212.211329 69.587194 
L 217.308156 62.520695 
L 222.404984 62.817241 
L 227.501811 66.085799 
L 232.598638 61.453759 
L 237.695466 57.488574 
L 242.792293 46.998686 
L 247.88912 57.897929 
L 252.985948 52.901155 
L 258.082775 48.464247 
L 263.179602 50.625698 
L 268.276429 57.977739 
L 273.373257 66.186021 
L 278.470084 55.746974 
L 283.566911 64.030949 
L 288.663739 61.808243 
L 293.760566 58.144127 
L 298.857393 64.372017 
L 303.954221 57.095665 
L 309.051048 60.28182 
L 314.147875 55.506376 
L 319.244702 48.507037 
L 324.34153 47.812489 
L 329.438357 54.063678 
L 334.535184 66.302761 
L 339.632012 61.662037 
L 344.728839 71.542119 
L 349.825666 63.355299 
L 354.922494 61.434667 
L 360.019321 64.07817 
L 365.116148 56.753928 
L 370.212976 62.530471 
L 375.309803 58.052779 
L 380.40663 53.332324 
L 385.503457 60.671648 
" clip-path="url(#pfcd3f81602)" style="fill: none; stroke: #83082a; stroke-width: 1.6; stroke-linecap: square"/>
    <defs>
     <path id="me66d4ac418" d="M 0 1.6 
C 0.424325 1.6 0.831328 1.431414 1.131371 1.131371 
C 1.431414 0.831328 1.6 0.424325 1.6 0 
C 1.6 -0.424325 1.431414 -0.831328 1.131371 -1.131371 
C 0.831328 -1.431414 0.424325 -1.6 0 -1.6 
C -0.424325 -1.6 -0.831328 -1.431414 -1.131371 -1.131371 
C -1.431414 -0.831328 -1.6 -0.424325 -1.6 0 
C -1.6 0.424325 -1.431414 0.831328 -1.131371 1.131371 
C -0.831328 1.431414 -0.424325 1.6 0 1.6 
z
" style="stroke: #83082a"/>
    </defs>
    <g clip-path="url(#pfcd3f81602)">
     <use xlink:href="#me66d4ac418" x="69.500165" y="81.459281" style="fill: #83082a; stroke: #83082a"/>
     <use xlink:href="#me66d4ac418" x="74.596992" y="72.505663" style="fill: #83082a; stroke: #83082a"/>
     <use xlink:href="#me66d4ac418" x="79.693819" y="75.738903" style="fill: #83082a; stroke: #83082a"/>
     <use xlink:href="#me66d4ac418" x="84.790647" y="73.273663" style="fill: #83082a; stroke: #83082a"/>
     <use xlink:href="#me66d4ac418" x="89.887474" y="90.833037" style="fill: #83082a; stroke: #83082a"/>
     <use xlink:href="#me66d4ac418" x="94.984301" y="94.037732" style="fill: #83082a; stroke: #83082a"/>
     <use xlink:href="#me66d4ac418" x="100.081128" y="104.795401" style="fill: #83082a; stroke: #83082a"/>
     <use xlink:href="#me66d4ac418" x="105.177956" y="98.625486" style="fill: #83082a; stroke: #83082a"/>
     <use xlink:href="#me66d4ac418" x="110.274783" y="103.812484" style="fill: #83082a; stroke: #83082a"/>
     <use xlink:href="#me66d4ac418" x="115.37161" y="103.303787" style="fill: #83082a; stroke: #83082a"/>
     <use xlink:href="#me66d4ac418" x="120.468438" y="109.986854" style="fill: #83082a; stroke: #83082a"/>
     <use xlink:href="#me66d4ac418" x="125.565265" y="98.374893" style="fill: #83082a; stroke: #83082a"/>
     <use xlink:href="#me66d4ac418" x="130.662092" y="87.615215" style="fill: #83082a; stroke: #83082a"/>
     <use xlink:href="#me66d4ac418" x="135.75892" y="70.043607" style="fill: #83082a; stroke: #83082a"/>
     <use xlink:href="#me66d4ac418" x="140.855747" y="66.750356" style="fill: #83082a; stroke: #83082a"/>
     <use xlink:href="#me66d4ac418" x="145.952574" y="68.934207" style="fill: #83082a; stroke: #83082a"/>
     <use xlink:href="#me66d4ac418" x="151.049401" y="82.835325" style="fill: #83082a; stroke: #83082a"/>
     <use xlink:href="#me66d4ac418" x="156.146229" y="79.138313" style="fill: #83082a; stroke: #83082a"/>
     <use xlink:href="#me66d4ac418" x="161.243056" y="76.811762" style="fill: #83082a; stroke: #83082a"/>
     <use xlink:href="#me66d4ac418" x="166.339883" y="75.323065" style="fill: #83082a; stroke: #83082a"/>
     <use xlink:href="#me66d4ac418" x="171.436711" y="69.451369" style="fill: #83082a; stroke: #83082a"/>
     <use xlink:href="#me66d4ac418" x="176.533538" y="64.469703" style="fill: #83082a; stroke: #83082a"/>
     <use xlink:href="#me66d4ac418" x="181.630365" y="55.276438" style="fill: #83082a; stroke: #83082a"/>
     <use xlink:href="#me66d4ac418" x="186.727193" y="59.41059" style="fill: #83082a; stroke: #83082a"/>
     <use xlink:href="#me66d4ac418" x="191.82402" y="56.642351" style="fill: #83082a; stroke: #83082a"/>
     <use xlink:href="#me66d4ac418" x="196.920847" y="46.466777" style="fill: #83082a; stroke: #83082a"/>
     <use xlink:href="#me66d4ac418" x="202.017675" y="58.060036" style="fill: #83082a; stroke: #83082a"/>
     <use xlink:href="#me66d4ac418" x="207.114502" y="59.445846" style="fill: #83082a; stroke: #83082a"/>
     <use xlink:href="#me66d4ac418" x="212.211329" y="69.587194" style="fill: #83082a; stroke: #83082a"/>
     <use xlink:href="#me66d4ac418" x="217.308156" y="62.520695" style="fill: #83082a; stroke: #83082a"/>
     <use xlink:href="#me66d4ac418" x="222.404984" y="62.817241" style="fill: #83082a; stroke: #83082a"/>
     <use xlink:href="#me66d4ac418" x="227.501811" y="66.085799" style="fill: #83082a; stroke: #83082a"/>
     <use xlink:href="#me66d4ac418" x="232.598638" y="61.453759" style="fill: #83082a; stroke: #83082a"/>
     <use xlink:href="#me66d4ac418" x="237.695466" y="57.488574" style="fill: #83082a; stroke: #83082a"/>
     <use xlink:href="#me66d4ac418" x="242.792293" y="46.998686" style="fill: #83082a; stroke: #83082a"/>
     <use xlink:href="#me66d4ac418" x="247.88912" y="57.897929" style="fill: #83082a; stroke: #83082a"/>
     <use xlink:href="#me66d4ac418" x="252.985948" y="52.901155" style="fill: #83082a; stroke: #83082a"/>
     <use xlink:href="#me66d4ac418" x="258.082775" y="48.464247" style="fill: #83082a; stroke: #83082a"/>
     <use xlink:href="#me66d4ac418" x="263.179602" y="50.625698" style="fill: #83082a; stroke: #83082a"/>
     <use xlink:href="#me66d4ac418" x="268.276429" y="57.977739" style="fill: #83082a; stroke: #83082a"/>
     <use xlink:href="#me66d4ac418" x="273.373257" y="66.186021" style="fill: #83082a; stroke: #83082a"/>
     <use xlink:href="#me66d4ac418" x="278.470084" y="55.746974" style="fill: #83082a; stroke: #83082a"/>
     <use xlink:href="#me66d4ac418" x="283.566911" y="64.030949" style="fill: #83082a; stroke: #83082a"/>
     <use xlink:href="#me66d4ac418" x="288.663739" y="61.808243" style="fill: #83082a; stroke: #83082a"/>
     <use xlink:href="#me66d4ac418" x="293.760566" y="58.144127" style="fill: #83082a; stroke: #83082a"/>
     <use xlink:href="#me66d4ac418" x="298.857393" y="64.372017" style="fill: #83082a; stroke: #83082a"/>
     <use xlink:href="#me66d4ac418" x="303.954221" y="57.095665" style="fill: #83082a; stroke: #83082a"/>
     <use xlink:href="#me66d4ac418" x="309.051048" y="60.28182" style="fill: #83082a; stroke: #83082a"/>
     <use xlink:href="#me66d4ac418" x="314.147875" y="55.506376" style="fill: #83082a; stroke: #83082a"/>
     <use xlink:href="#me66d4ac418" x="319.244702" y="48.507037" style="fill: #83082a; stroke: #83082a"/>
     <use xlink:href="#me66d4ac418" x="324.34153" y="47.812489" style="fill: #83082a; stroke: #83082a"/>
     <use xlink:href="#me66d4ac418" x="329.438357" y="54.063678" style="fill: #83082a; stroke: #83082a"/>
     <use xlink:href="#me66d4ac418" x="334.535184" y="66.302761" style="fill: #83082a; stroke: #83082a"/>
     <use xlink:href="#me66d4ac418" x="339.632012" y="61.662037" style="fill: #83082a; stroke: #83082a"/>
     <use xlink:href="#me66d4ac418" x="344.728839" y="71.542119" style="fill: #83082a; stroke: #83082a"/>
     <use xlink:href="#me66d4ac418" x="349.825666" y="63.355299" style="fill: #83082a; stroke: #83082a"/>
     <use xlink:href="#me66d4ac418" x="354.922494" y="61.434667" style="fill: #83082a; stroke: #83082a"/>
     <use xlink:href="#me66d4ac418" x="360.019321" y="64.07817" style="fill: #83082a; stroke: #83082a"/>
     <use xlink:href="#me66d4ac418" x="365.116148" y="56.753928" style="fill: #83082a; stroke: #83082a"/>
     <use xlink:href="#me66d4ac418" x="370.212976" y="62.530471" style="fill: #83082a; stroke: #83082a"/>
     <use xlink:href="#me66d4ac418" x="375.309803" y="58.052779" style="fill: #83082a; stroke: #83082a"/>
     <use xlink:href="#me66d4ac418" x="380.40663" y="53.332324" style="fill: #83082a; stroke: #83082a"/>
     <use xlink:href="#me66d4ac418" x="385.503457" y="60.671648" style="fill: #83082a; stroke: #83082a"/>
    </g>
   </g>
   <g id="patch_3">
    <path d="M 53.7 169.451811 
L 53.7 9.72 
" style="fill: none; stroke: #404040; stroke-linejoin: miter; stroke-linecap: square"/>
   </g>
   <g id="patch_4">
    <path d="M 53.7 169.451811 
L 401.303622 169.451811 
" style="fill: none; stroke: #404040; stroke-linejoin: miter; stroke-linecap: square"/>
   </g>
  </g>
 </g>
 <defs>
  <clipPath id="pfcd3f81602">
   <rect x="53.7" y="9.72" width="347.603622" height="159.731811"/>
  </clipPath>
 </defs>
</svg>
