<?xml version="1.0" encoding="utf-8" standalone="no"?>
<!DOCTYPE svg PUBLIC "-//W3C//DTD SVG 1.1//EN"
  "http://www.w3.org/Graphics/SVG/1.1/DTD/svg11.dtd">
<svg xmlns:xlink="http://www.w3.org/1999/xlink" width="411.023622pt" height="205.511811pt" viewBox="0 0 411.023622 205.511811" xmlns="http://www.w3.org/2000/svg" version="1.1">
 <metadata>
  <rdf:RDF xmlns:dc="http://purl.org/dc/elements/1.1/" xmlns:cc="http://creativecommons.org/ns#" xmlns:rdf="http://www.w3.org/1999/02/22-rdf-syntax-ns#">
   <cc:Work>
    <dc:type rdf:resource="http://purl.org/dc/dcmitype/StillImage"/>
    <dc:date>2026-06-04T09:42:47.147809</dc:date>
    <dc:format>image/svg+xml</dc:format>
    <dc:creator>
     <cc:Agent>
      <dc:title>Matplotlib v3.10.8, https://matplotlib.org/</dc:title>
     </cc:Agent>
    </dc:creator>
   </cc:Work>
  </rdf:RDF>
 </metadata>
 <defs>
  <style type="text/css">*{stroke-linejoin: round; stroke-linecap: butt}</style>
 </defs>
 <g id="figure_1">
  <g id="patch_1">
   <path d="M 0 205.511811 
L 411.023622 205.511811 
L 411.023622 0 
L 0 0 
z
" style="fill: #ffffff"/>
  </g>
  <g id="axes_1">
   <g id="patch_2">
    <path d="M 53.7 169.451811 
L 401.303622 169.451811 
L 401.303622 9.72 
L 53.7 9.72 
z
" style="fill: #ffffff"/>
   </g>
   <g id="FillBetweenPolyCollection_1">
    <defs>
     <path id="m2b30a0ef08" d="M 69.500165 -166.123077 
L 69.500165 -84.378364 
L 74.596992 -98.839721 
L 79.693819 -101.682448 
L 84.790647 -108.22204 
L 89.887474 -87.122838 
L 94.984301 -89.230525 
L 100.081128 -100.486304 
L 105.177956 -122.955097 
L 110.274783 -80.707608 
L 115.37161 -80.971181 
L 120.468438 -43.320537 
L 125.565265 -60.196167 
L 130.662092 -69.108254 
L 135.75892 -120.04281 
L 140.855747 -120.581895 
L 145.952574 -134.49752 
L 151.049401 -115.248617 
L 156.146229 -121.682205 
L 161.243056 -140.1213 
L 166.339883 -159.642211 
L 171.436711 -123.693577 
L 176.533538 -135.718807 
L 181.630365 -130.022555 
L 186.727193 -135.415936 
L 191.82402 -135.968993 
L 196.920847 -159.830449 
L 202.017675 -152.478647 
L 207.114502 -156.342478 
L 212.211329 -140.815961 
L 217.308156 -151.086121 
L 222.404984 -156.917598 
L 227.501811 -161.247593 
L 232.598638 -150.327366 
L 237.695466 -151.124661 
L 242.792293 -137.417378 
L 247.88912 -142.918389 
L 252.985948 -149.327903 
L 258.082775 -159.146222 
L 263.179602 -160.747183 
L 268.276429 -154.94133 
L 273.373257 -150.154134 
L 278.470084 -155.87563 
L 283.566911 -152.710289 
L 288.663739 -163.707349 
L 293.760566 -155.040343 
L 298.857393 -143.932199 
L 303.954221 -137.631521 
L 309.051048 -135.051667 
L 314.147875 -143.809811 
L 319.244702 -159.213009 
L 324.34153 -161.73355 
L 329.438357 -161.539587 
L 334.535184 -152.826984 
L 339.632012 -149.545 
L 344.728839 -139.326017 
L 349.825666 -162.720295 
L 354.922494 -146.500607 
L 360.019321 -143.63872 
L 365.116148 -144.249339 
L 370.212976 -136.587855 
L 375.309803 -149.125236 
L 380.40663 -156.03268 
L 385.503457 -149.107976 
L 385.503457 -169.929208 
L 385.503457 -169.929208 
L 380.40663 -180.144309 
L 375.309803 -172.734017 
L 370.212976 -175.821222 
L 365.116148 -169.851627 
L 360.019321 -168.288332 
L 354.922494 -171.741046 
L 349.825666 -184.884062 
L 344.728839 -165.666637 
L 339.632012 -165.408314 
L 334.535184 -170.105886 
L 329.438357 -182.262644 
L 324.34153 -183.928123 
L 319.244702 -184.86563 
L 314.147875 -176.986312 
L 309.051048 -182.563633 
L 303.954221 -173.76975 
L 298.857393 -168.834394 
L 293.760566 -177.987791 
L 288.663739 -187.463991 
L 283.566911 -168.251437 
L 278.470084 -173.623804 
L 273.373257 -170.908621 
L 268.276429 -173.583383 
L 263.179602 -184.428196 
L 258.082775 -183.89473 
L 252.985948 -174.962107 
L 247.88912 -183.205093 
L 242.792293 -173.513964 
L 237.695466 -173.355313 
L 232.598638 -175.267663 
L 227.501811 -179.431971 
L 222.404984 -168.674057 
L 217.308156 -168.81017 
L 212.211329 -169.530229 
L 207.114502 -179.155053 
L 202.017675 -170.450665 
L 196.920847 -188.531274 
L 191.82402 -178.53538 
L 186.727193 -180.13146 
L 181.630365 -167.790953 
L 176.533538 -169.034435 
L 171.436711 -171.083535 
L 166.339883 -159.642211 
L 161.243056 -157.267457 
L 156.146229 -156.425916 
L 151.049401 -158.944253 
L 145.952574 -160.581076 
L 140.855747 -164.202003 
L 135.75892 -167.418371 
L 130.662092 -163.976973 
L 125.565265 -164.109805 
L 120.468438 -149.949087 
L 115.37161 -159.363984 
L 110.274783 -161.543039 
L 105.177956 -153.208562 
L 100.081128 -150.398978 
L 94.984301 -152.091456 
L 89.887474 -159.963876 
L 84.790647 -161.181888 
L 79.693819 -160.197624 
L 74.596992 -169.852019 
L 69.500165 -166.123077 
z
"/>
    </defs>
    <g clip-path="url(#pa63a21660d)">
     <use xlink:href="#m2b30a0ef08" x="0" y="205.511811" style="fill: #e397a0; fill-opacity: 0.55"/>
    </g>
   </g>
   <g id="matplotlib.axis_1">
    <g id="xtick_1">
     <g id="line2d_1">
      <defs>
       <path id="mf8be886828" d="M 0 0 
L 0 3 
" style="stroke: #404040"/>
      </defs>
      <g>
       <use xlink:href="#mf8be886828" x="69.500165" y="169.451811" style="fill: #404040; stroke: #404040"/>
      </g>
     </g>
     <g id="text_1">
      <!-- −20 -->
      <g style="fill: #4d4d4d" transform="translate(61.759462 182.579467) scale(0.09 -0.09)">
       <defs>
        <path id="CenturyGothic-Bold-2212" d="M 359 2688 
L 3481 2688 
L 3481 1906 
L 359 1906 
L 359 2688 
z
" transform="scale(0.015625)"/>
        <path id="CenturyGothic-Bold-32" d="M 1116 3116 
L 263 3116 
Q 297 3859 730 4286 
Q 1163 4713 1841 4713 
Q 2259 4713 2579 4536 
Q 2900 4359 3092 4026 
Q 3284 3694 3284 3350 
Q 3284 2941 3051 2469 
Q 2819 1997 2200 1353 
L 1684 809 
L 3322 809 
L 3322 0 
L 138 0 
L 138 419 
L 1559 1869 
Q 2075 2391 2245 2708 
Q 2416 3025 2416 3281 
Q 2416 3547 2239 3720 
Q 2063 3894 1784 3894 
Q 1503 3894 1315 3684 
Q 1128 3475 1116 3116 
z
" transform="scale(0.015625)"/>
        <path id="CenturyGothic-Bold-30" d="M 1778 4713 
Q 2281 4713 2645 4466 
Q 3009 4219 3207 3711 
Q 3406 3203 3406 2297 
Q 3406 1381 3204 872 
Q 3003 363 2662 123 
Q 2322 -116 1803 -116 
Q 1284 -116 931 125 
Q 578 366 378 856 
Q 178 1347 178 2253 
Q 178 3519 569 4088 
Q 1003 4713 1778 4713 
z
M 1800 3881 
Q 1578 3881 1406 3739 
Q 1234 3597 1143 3250 
Q 1053 2903 1053 2234 
Q 1053 1363 1261 1030 
Q 1469 697 1800 697 
Q 2119 697 2306 1013 
Q 2534 1394 2534 2288 
Q 2534 3194 2329 3537 
Q 2125 3881 1800 3881 
z
" transform="scale(0.015625)"/>
       </defs>
       <use xlink:href="#CenturyGothic-Bold-2212"/>
       <use xlink:href="#CenturyGothic-Bold-32" transform="translate(60.009766 0)"/>
       <use xlink:href="#CenturyGothic-Bold-30" transform="translate(116.015625 0)"/>
      </g>
     </g>
    </g>
    <g id="xtick_2">
     <g id="line2d_2">
      <g>
       <use xlink:href="#mf8be886828" x="120.468438" y="169.451811" style="fill: #404040; stroke: #404040"/>
      </g>
     </g>
     <g id="text_2">
      <!-- −10 -->
      <g style="fill: #4d4d4d" transform="translate(112.727735 182.579467) scale(0.09 -0.09)">
       <defs>
        <path id="CenturyGothic-Bold-31" d="M 1053 4597 
L 2363 4597 
L 2363 0 
L 1494 0 
L 1494 3775 
L 547 3775 
L 1053 4597 
z
" transform="scale(0.015625)"/>
       </defs>
       <use xlink:href="#CenturyGothic-Bold-2212"/>
       <use xlink:href="#CenturyGothic-Bold-31" transform="translate(60.009766 0)"/>
       <use xlink:href="#CenturyGothic-Bold-30" transform="translate(116.015625 0)"/>
      </g>
     </g>
    </g>
    <g id="xtick_3">
     <g id="line2d_3">
      <g>
       <use xlink:href="#mf8be886828" x="171.436711" y="169.451811" style="fill: #404040; stroke: #404040"/>
      </g>
     </g>
     <g id="text_3">
      <!-- 0 -->
      <g style="fill: #4d4d4d" transform="translate(168.916711 182.579467) scale(0.09 -0.09)">
       <use xlink:href="#CenturyGothic-Bold-30"/>
      </g>
     </g>
    </g>
    <g id="xtick_4">
     <g id="line2d_4">
      <g>
       <use xlink:href="#mf8be886828" x="222.404984" y="169.451811" style="fill: #404040; stroke: #404040"/>
      </g>
     </g>
     <g id="text_4">
      <!-- 10 -->
      <g style="fill: #4d4d4d" transform="translate(217.364984 182.579467) scale(0.09 -0.09)">
       <use xlink:href="#CenturyGothic-Bold-31"/>
       <use xlink:href="#CenturyGothic-Bold-30" transform="translate(56.005859 0)"/>
      </g>
     </g>
    </g>
    <g id="xtick_5">
     <g id="line2d_5">
      <g>
       <use xlink:href="#mf8be886828" x="273.373257" y="169.451811" style="fill: #404040; stroke: #404040"/>
      </g>
     </g>
     <g id="text_5">
      <!-- 20 -->
      <g style="fill: #4d4d4d" transform="translate(268.333257 182.579467) scale(0.09 -0.09)">
       <use xlink:href="#CenturyGothic-Bold-32"/>
       <use xlink:href="#CenturyGothic-Bold-30" transform="translate(56.005859 0)"/>
      </g>
     </g>
    </g>
    <g id="xtick_6">
     <g id="line2d_6">
      <g>
       <use xlink:href="#mf8be886828" x="324.34153" y="169.451811" style="fill: #404040; stroke: #404040"/>
      </g>
     </g>
     <g id="text_6">
      <!-- 30 -->
      <g style="fill: #4d4d4d" transform="translate(319.30153 182.579467) scale(0.09 -0.09)">
       <defs>
        <path id="CenturyGothic-Bold-33" d="M 1216 3463 
L 375 3463 
Q 441 3972 741 4281 
Q 1159 4713 1794 4713 
Q 2359 4713 2742 4353 
Q 3125 3994 3125 3500 
Q 3125 3194 2958 2941 
Q 2791 2688 2472 2531 
Q 2891 2406 3127 2095 
Q 3363 1784 3363 1363 
Q 3363 744 2906 314 
Q 2450 -116 1744 -116 
Q 1075 -116 653 289 
Q 231 694 191 1391 
L 1056 1391 
Q 1113 1034 1305 861 
Q 1497 688 1791 688 
Q 2097 688 2298 884 
Q 2500 1081 2500 1366 
Q 2500 1678 2228 1893 
Q 1956 2109 1444 2116 
L 1444 2866 
Q 1759 2891 1914 2964 
Q 2069 3038 2155 3166 
Q 2241 3294 2241 3438 
Q 2241 3625 2109 3748 
Q 1978 3872 1766 3872 
Q 1578 3872 1425 3758 
Q 1272 3644 1216 3463 
z
" transform="scale(0.015625)"/>
       </defs>
       <use xlink:href="#CenturyGothic-Bold-33"/>
       <use xlink:href="#CenturyGothic-Bold-30" transform="translate(56.005859 0)"/>
      </g>
     </g>
    </g>
    <g id="xtick_7">
     <g id="line2d_7">
      <g>
       <use xlink:href="#mf8be886828" x="375.309803" y="169.451811" style="fill: #404040; stroke: #404040"/>
      </g>
     </g>
     <g id="text_7">
      <!-- 40 -->
      <g style="fill: #4d4d4d" transform="translate(370.269803 182.579467) scale(0.09 -0.09)">
       <defs>
        <path id="CenturyGothic-Bold-34" d="M 2119 4713 
L 2994 4713 
L 2994 1753 
L 3403 1753 
L 3403 944 
L 2994 944 
L 2994 0 
L 2138 0 
L 2138 944 
L 131 944 
L 131 1753 
L 2119 4713 
z
M 2138 1753 
L 2138 3294 
L 1088 1753 
L 2138 1753 
z
" transform="scale(0.015625)"/>
       </defs>
       <use xlink:href="#CenturyGothic-Bold-34"/>
       <use xlink:href="#CenturyGothic-Bold-30" transform="translate(56.005859 0)"/>
      </g>
     </g>
    </g>
    <g id="text_8">
     <!-- Months relative to 2022-09 (baseline = -1) -->
     <g transform="translate(138.834936 195.078842) scale(0.09 -0.09)">
      <defs>
       <path id="CenturyGothic-4d" d="M 350 0 
L 1003 4597 
L 1078 4597 
L 2947 825 
L 4797 4597 
L 4872 4597 
L 5531 0 
L 5078 0 
L 4628 3288 
L 3003 0 
L 2888 0 
L 1241 3313 
L 794 0 
L 350 0 
z
" transform="scale(0.015625)"/>
       <path id="CenturyGothic-6f" d="M 2097 3488 
Q 2881 3488 3397 2919 
Q 3866 2400 3866 1691 
Q 3866 978 3370 445 
Q 2875 -88 2097 -88 
Q 1316 -88 820 445 
Q 325 978 325 1691 
Q 325 2397 794 2916 
Q 1309 3488 2097 3488 
z
M 2097 3059 
Q 1553 3059 1162 2656 
Q 772 2253 772 1681 
Q 772 1313 950 994 
Q 1128 675 1431 501 
Q 1734 328 2097 328 
Q 2459 328 2762 501 
Q 3066 675 3244 994 
Q 3422 1313 3422 1681 
Q 3422 2253 3030 2656 
Q 2638 3059 2097 3059 
z
" transform="scale(0.015625)"/>
       <path id="CenturyGothic-6e" d="M 488 3400 
L 925 3400 
L 925 2791 
Q 1188 3141 1506 3314 
Q 1825 3488 2200 3488 
Q 2581 3488 2876 3294 
Q 3172 3100 3312 2772 
Q 3453 2444 3453 1750 
L 3453 0 
L 3019 0 
L 3019 1622 
Q 3019 2209 2969 2406 
Q 2891 2744 2675 2914 
Q 2459 3084 2113 3084 
Q 1716 3084 1402 2821 
Q 1088 2559 988 2172 
Q 925 1919 925 1247 
L 925 0 
L 488 0 
L 488 3400 
z
" transform="scale(0.015625)"/>
       <path id="CenturyGothic-74" d="M 869 4663 
L 1309 4663 
L 1309 3400 
L 2003 3400 
L 2003 3025 
L 1309 3025 
L 1309 0 
L 869 0 
L 869 3025 
L 272 3025 
L 272 3400 
L 869 3400 
L 869 4663 
z
" transform="scale(0.015625)"/>
       <path id="CenturyGothic-68" d="M 488 4713 
L 925 4713 
L 925 2791 
Q 1191 3141 1509 3314 
Q 1828 3488 2200 3488 
Q 2581 3488 2876 3294 
Q 3172 3100 3312 2773 
Q 3453 2447 3453 1750 
L 3453 0 
L 3016 0 
L 3016 1622 
Q 3016 2209 2969 2406 
Q 2888 2744 2673 2914 
Q 2459 3084 2113 3084 
Q 1716 3084 1402 2821 
Q 1088 2559 988 2172 
Q 925 1922 925 1247 
L 925 0 
L 488 0 
L 488 4713 
z
" transform="scale(0.015625)"/>
       <path id="CenturyGothic-73" d="M 2197 3028 
L 1916 2738 
Q 1566 3078 1231 3078 
Q 1019 3078 867 2937 
Q 716 2797 716 2609 
Q 716 2444 841 2294 
Q 966 2141 1366 1934 
Q 1853 1681 2028 1447 
Q 2200 1209 2200 913 
Q 2200 494 1906 203 
Q 1613 -88 1172 -88 
Q 878 -88 611 40 
Q 344 169 169 394 
L 444 706 
Q 778 328 1153 328 
Q 1416 328 1600 497 
Q 1784 666 1784 894 
Q 1784 1081 1663 1228 
Q 1541 1372 1113 1591 
Q 653 1828 488 2059 
Q 322 2291 322 2588 
Q 322 2975 586 3231 
Q 850 3488 1253 3488 
Q 1722 3488 2197 3028 
z
" transform="scale(0.015625)"/>
       <path id="CenturyGothic-20" transform="scale(0.015625)"/>
       <path id="CenturyGothic-72" d="M 322 3400 
L 769 3400 
L 769 2903 
Q 969 3197 1191 3342 
Q 1413 3488 1653 3488 
Q 1834 3488 2041 3372 
L 1813 3003 
Q 1675 3063 1581 3063 
Q 1363 3063 1159 2883 
Q 956 2703 850 2325 
Q 769 2034 769 1150 
L 769 0 
L 322 0 
L 322 3400 
z
" transform="scale(0.015625)"/>
       <path id="CenturyGothic-65" d="M 3350 1128 
L 3719 934 
Q 3538 578 3300 359 
Q 3063 141 2766 26 
Q 2469 -88 2094 -88 
Q 1263 -88 794 457 
Q 325 1003 325 1691 
Q 325 2338 722 2844 
Q 1225 3488 2069 3488 
Q 2938 3488 3456 2828 
Q 3825 2363 3831 1666 
L 775 1666 
Q 788 1072 1153 692 
Q 1519 313 2056 313 
Q 2316 313 2561 403 
Q 2806 494 2978 644 
Q 3150 794 3350 1128 
z
M 3350 2044 
Q 3263 2394 3095 2603 
Q 2928 2813 2653 2941 
Q 2378 3069 2075 3069 
Q 1575 3069 1216 2747 
Q 953 2513 819 2044 
L 3350 2044 
z
" transform="scale(0.015625)"/>
       <path id="CenturyGothic-6c" d="M 422 4713 
L 859 4713 
L 859 0 
L 422 0 
L 422 4713 
z
" transform="scale(0.015625)"/>
       <path id="CenturyGothic-61" d="M 3875 3400 
L 3875 0 
L 3444 0 
L 3444 584 
Q 3169 250 2826 81 
Q 2484 -88 2078 -88 
Q 1356 -88 845 435 
Q 334 959 334 1709 
Q 334 2444 850 2966 
Q 1366 3488 2091 3488 
Q 2509 3488 2848 3309 
Q 3188 3131 3444 2775 
L 3444 3400 
L 3875 3400 
z
M 2125 3066 
Q 1759 3066 1450 2886 
Q 1141 2706 958 2381 
Q 775 2056 775 1694 
Q 775 1334 959 1006 
Q 1144 678 1455 495 
Q 1766 313 2122 313 
Q 2481 313 2803 494 
Q 3125 675 3298 984 
Q 3472 1294 3472 1681 
Q 3472 2272 3083 2669 
Q 2694 3066 2125 3066 
z
" transform="scale(0.015625)"/>
       <path id="CenturyGothic-69" d="M 641 4800 
Q 791 4800 897 4694 
Q 1003 4588 1003 4438 
Q 1003 4291 897 4184 
Q 791 4078 641 4078 
Q 494 4078 387 4184 
Q 281 4291 281 4438 
Q 281 4588 387 4694 
Q 494 4800 641 4800 
z
M 422 3400 
L 863 3400 
L 863 0 
L 422 0 
L 422 3400 
z
" transform="scale(0.015625)"/>
       <path id="CenturyGothic-76" d="M 166 3400 
L 631 3400 
L 1769 925 
L 2897 3400 
L 3366 3400 
L 1809 0 
L 1731 0 
L 166 3400 
z
" transform="scale(0.015625)"/>
       <path id="CenturyGothic-32" d="M 741 3156 
L 300 3156 
Q 319 3838 755 4275 
Q 1191 4713 1831 4713 
Q 2466 4713 2858 4303 
Q 3250 3894 3250 3338 
Q 3250 2947 3062 2605 
Q 2875 2263 2334 1678 
L 1191 444 
L 3313 444 
L 3313 0 
L 191 0 
L 1947 1897 
Q 2481 2469 2642 2745 
Q 2803 3022 2803 3328 
Q 2803 3716 2514 3995 
Q 2225 4275 1806 4275 
Q 1366 4275 1073 3981 
Q 781 3688 741 3156 
z
" transform="scale(0.015625)"/>
       <path id="CenturyGothic-30" d="M 203 2297 
Q 203 3206 398 3703 
Q 594 4200 950 4456 
Q 1306 4713 1747 4713 
Q 2194 4713 2556 4455 
Q 2919 4197 3130 3681 
Q 3341 3166 3341 2297 
Q 3341 1431 3133 918 
Q 2925 406 2559 145 
Q 2194 -116 1747 -116 
Q 1306 -116 953 137 
Q 600 391 401 892 
Q 203 1394 203 2297 
z
M 638 2288 
Q 638 1509 777 1111 
Q 916 713 1187 506 
Q 1459 300 1763 300 
Q 2069 300 2334 501 
Q 2600 703 2738 1106 
Q 2909 1597 2909 2288 
Q 2909 2981 2756 3423 
Q 2603 3866 2333 4070 
Q 2063 4275 1763 4275 
Q 1456 4275 1187 4070 
Q 919 3866 778 3467 
Q 638 3069 638 2288 
z
" transform="scale(0.015625)"/>
       <path id="CenturyGothic-2d" d="M 203 1919 
L 1922 1919 
L 1922 1538 
L 203 1538 
L 203 1919 
z
" transform="scale(0.015625)"/>
       <path id="CenturyGothic-39" d="M 1228 -116 
L 850 128 
L 2091 2009 
Q 1841 1928 1622 1928 
Q 1075 1928 694 2323 
Q 313 2719 313 3297 
Q 313 3694 497 4012 
Q 681 4331 1020 4522 
Q 1359 4713 1747 4713 
Q 2128 4713 2451 4528 
Q 2775 4344 2959 4012 
Q 3144 3681 3144 3306 
Q 3144 3022 3030 2711 
Q 2916 2400 2622 1963 
L 1228 -116 
z
M 1728 2331 
Q 2131 2331 2414 2614 
Q 2697 2897 2697 3297 
Q 2697 3697 2414 3980 
Q 2131 4263 1728 4263 
Q 1328 4263 1045 3980 
Q 763 3697 763 3297 
Q 763 2897 1045 2614 
Q 1328 2331 1728 2331 
z
" transform="scale(0.015625)"/>
       <path id="CenturyGothic-28" d="M 1469 4800 
L 1975 4800 
Q 1669 4172 1484 3334 
Q 1300 2497 1300 1606 
Q 1300 781 1439 15 
Q 1578 -750 1822 -1331 
L 1341 -1331 
Q 1109 -775 971 -22 
Q 834 731 834 1547 
Q 834 2425 996 3258 
Q 1159 4091 1469 4800 
z
" transform="scale(0.015625)"/>
       <path id="CenturyGothic-62" d="M 516 0 
L 516 4713 
L 950 4713 
L 950 2816 
Q 1225 3153 1565 3320 
Q 1906 3488 2313 3488 
Q 3034 3488 3545 2964 
Q 4056 2441 4056 1694 
Q 4056 956 3540 434 
Q 3025 -88 2300 -88 
Q 1884 -88 1546 90 
Q 1209 269 950 625 
L 950 0 
L 516 0 
z
M 2266 334 
Q 2631 334 2940 514 
Q 3250 694 3433 1019 
Q 3616 1344 3616 1706 
Q 3616 2069 3431 2397 
Q 3247 2725 2936 2908 
Q 2625 3091 2272 3091 
Q 1913 3091 1589 2908 
Q 1266 2725 1092 2415 
Q 919 2106 919 1719 
Q 919 1128 1308 731 
Q 1697 334 2266 334 
z
" transform="scale(0.015625)"/>
       <path id="CenturyGothic-3d" d="M 3522 3200 
L 3522 2772 
L 359 2772 
L 359 3200 
L 3522 3200 
z
M 3522 1825 
L 3522 1397 
L 359 1397 
L 359 1825 
L 3522 1825 
z
" transform="scale(0.015625)"/>
       <path id="CenturyGothic-31" d="M 1184 4597 
L 2088 4597 
L 2088 0 
L 1631 0 
L 1631 4147 
L 909 4147 
L 1184 4597 
z
" transform="scale(0.015625)"/>
       <path id="CenturyGothic-29" d="M 894 -1331 
L 388 -1331 
Q 697 -703 880 134 
Q 1063 972 1063 1863 
Q 1063 2688 923 3453 
Q 784 4219 541 4800 
L 1022 4800 
Q 1256 4244 1392 3489 
Q 1528 2734 1528 1919 
Q 1528 1044 1365 211 
Q 1203 -622 894 -1331 
z
" transform="scale(0.015625)"/>
      </defs>
      <use xlink:href="#CenturyGothic-4d"/>
      <use xlink:href="#CenturyGothic-6f" transform="translate(91.894531 0)"/>
      <use xlink:href="#CenturyGothic-6e" transform="translate(157.373047 0)"/>
      <use xlink:href="#CenturyGothic-74" transform="translate(218.359375 0)"/>
      <use xlink:href="#CenturyGothic-68" transform="translate(252.246094 0)"/>
      <use xlink:href="#CenturyGothic-73" transform="translate(313.232422 0)"/>
      <use xlink:href="#CenturyGothic-20" transform="translate(352.050781 0)"/>
      <use xlink:href="#CenturyGothic-72" transform="translate(379.736328 0)"/>
      <use xlink:href="#CenturyGothic-65" transform="translate(409.814453 0)"/>
      <use xlink:href="#CenturyGothic-6c" transform="translate(474.804688 0)"/>
      <use xlink:href="#CenturyGothic-61" transform="translate(494.824219 0)"/>
      <use xlink:href="#CenturyGothic-74" transform="translate(563.134766 0)"/>
      <use xlink:href="#CenturyGothic-69" transform="translate(597.021484 0)"/>
      <use xlink:href="#CenturyGothic-76" transform="translate(617.041016 0)"/>
      <use xlink:href="#CenturyGothic-65" transform="translate(672.460938 0)"/>
      <use xlink:href="#CenturyGothic-20" transform="translate(737.451172 0)"/>
      <use xlink:href="#CenturyGothic-74" transform="translate(765.136719 0)"/>
      <use xlink:href="#CenturyGothic-6f" transform="translate(799.023438 0)"/>
      <use xlink:href="#CenturyGothic-20" transform="translate(864.501953 0)"/>
      <use xlink:href="#CenturyGothic-32" transform="translate(892.1875 0)"/>
      <use xlink:href="#CenturyGothic-30" transform="translate(947.607422 0)"/>
      <use xlink:href="#CenturyGothic-32" transform="translate(1003.027344 0)"/>
      <use xlink:href="#CenturyGothic-32" transform="translate(1058.447266 0)"/>
      <use xlink:href="#CenturyGothic-2d" transform="translate(1113.867188 0)"/>
      <use xlink:href="#CenturyGothic-30" transform="translate(1147.070312 0)"/>
      <use xlink:href="#CenturyGothic-39" transform="translate(1202.490234 0)"/>
      <use xlink:href="#CenturyGothic-20" transform="translate(1257.910156 0)"/>
      <use xlink:href="#CenturyGothic-28" transform="translate(1285.595703 0)"/>
      <use xlink:href="#CenturyGothic-62" transform="translate(1322.509766 0)"/>
      <use xlink:href="#CenturyGothic-61" transform="translate(1390.722656 0)"/>
      <use xlink:href="#CenturyGothic-73" transform="translate(1459.033203 0)"/>
      <use xlink:href="#CenturyGothic-65" transform="translate(1497.851562 0)"/>
      <use xlink:href="#CenturyGothic-6c" transform="translate(1562.841797 0)"/>
      <use xlink:href="#CenturyGothic-69" transform="translate(1582.861328 0)"/>
      <use xlink:href="#CenturyGothic-6e" transform="translate(1602.880859 0)"/>
      <use xlink:href="#CenturyGothic-65" transform="translate(1663.867188 0)"/>
      <use xlink:href="#CenturyGothic-20" transform="translate(1728.857422 0)"/>
      <use xlink:href="#CenturyGothic-3d" transform="translate(1756.542969 0)"/>
      <use xlink:href="#CenturyGothic-20" transform="translate(1817.138672 0)"/>
      <use xlink:href="#CenturyGothic-2d" transform="translate(1844.824219 0)"/>
      <use xlink:href="#CenturyGothic-31" transform="translate(1878.027344 0)"/>
      <use xlink:href="#CenturyGothic-29" transform="translate(1933.447266 0)"/>
     </g>
    </g>
   </g>
   <g id="matplotlib.axis_2">
    <g id="ytick_1">
     <g id="line2d_8">
      <path d="M 53.7 157.927024 
L 401.303622 157.927024 
" clip-path="url(#pa63a21660d)" style="fill: none; stroke: #cccccc; stroke-linecap: square"/>
     </g>
     <g id="line2d_9">
      <defs>
       <path id="m305365729d" d="M 0 0 
L -3 0 
" style="stroke: #404040"/>
      </defs>
      <g>
       <use xlink:href="#m305365729d" x="53.7" y="157.927024" style="fill: #404040; stroke: #404040"/>
      </g>
     </g>
     <g id="text_9">
      <!-- −5000 -->
      <g style="fill: #4d4d4d" transform="translate(21.638594 161.240852) scale(0.09 -0.09)">
       <defs>
        <path id="CenturyGothic-Bold-35" d="M 1069 4597 
L 3222 4597 
L 3222 3791 
L 1722 3791 
L 1534 2953 
Q 1613 2975 1688 2986 
Q 1763 2997 1831 2997 
Q 2456 2997 2870 2570 
Q 3284 2144 3284 1478 
Q 3284 806 2826 345 
Q 2369 -116 1713 -116 
Q 1125 -116 703 218 
Q 281 553 150 1134 
L 1069 1134 
Q 1175 919 1348 808 
Q 1522 697 1731 697 
Q 2022 697 2225 906 
Q 2428 1116 2428 1444 
Q 2428 1763 2239 1967 
Q 2050 2172 1781 2172 
Q 1638 2172 1498 2100 
Q 1359 2028 1225 1884 
L 513 2044 
L 1069 4597 
z
" transform="scale(0.015625)"/>
       </defs>
       <use xlink:href="#CenturyGothic-Bold-2212"/>
       <use xlink:href="#CenturyGothic-Bold-35" transform="translate(60.009766 0)"/>
       <use xlink:href="#CenturyGothic-Bold-30" transform="translate(116.015625 0)"/>
       <use xlink:href="#CenturyGothic-Bold-30" transform="translate(172.021484 0)"/>
       <use xlink:href="#CenturyGothic-Bold-30" transform="translate(228.027344 0)"/>
      </g>
     </g>
    </g>
    <g id="ytick_2">
     <g id="line2d_10">
      <path d="M 53.7 135.515539 
L 401.303622 135.515539 
" clip-path="url(#pa63a21660d)" style="fill: none; stroke: #cccccc; stroke-linecap: square"/>
     </g>
     <g id="line2d_11">
      <g>
       <use xlink:href="#m305365729d" x="53.7" y="135.515539" style="fill: #404040; stroke: #404040"/>
      </g>
     </g>
     <g id="text_10">
      <!-- −4000 -->
      <g style="fill: #4d4d4d" transform="translate(21.638594 138.829367) scale(0.09 -0.09)">
       <use xlink:href="#CenturyGothic-Bold-2212"/>
       <use xlink:href="#CenturyGothic-Bold-34" transform="translate(60.009766 0)"/>
       <use xlink:href="#CenturyGothic-Bold-30" transform="translate(116.015625 0)"/>
       <use xlink:href="#CenturyGothic-Bold-30" transform="translate(172.021484 0)"/>
       <use xlink:href="#CenturyGothic-Bold-30" transform="translate(228.027344 0)"/>
      </g>
     </g>
    </g>
    <g id="ytick_3">
     <g id="line2d_12">
      <path d="M 53.7 113.104054 
L 401.303622 113.104054 
" clip-path="url(#pa63a21660d)" style="fill: none; stroke: #cccccc; stroke-linecap: square"/>
     </g>
     <g id="line2d_13">
      <g>
       <use xlink:href="#m305365729d" x="53.7" y="113.104054" style="fill: #404040; stroke: #404040"/>
      </g>
     </g>
     <g id="text_11">
      <!-- −3000 -->
      <g style="fill: #4d4d4d" transform="translate(21.638594 116.417882) scale(0.09 -0.09)">
       <use xlink:href="#CenturyGothic-Bold-2212"/>
       <use xlink:href="#CenturyGothic-Bold-33" transform="translate(60.009766 0)"/>
       <use xlink:href="#CenturyGothic-Bold-30" transform="translate(116.015625 0)"/>
       <use xlink:href="#CenturyGothic-Bold-30" transform="translate(172.021484 0)"/>
       <use xlink:href="#CenturyGothic-Bold-30" transform="translate(228.027344 0)"/>
      </g>
     </g>
    </g>
    <g id="ytick_4">
     <g id="line2d_14">
      <path d="M 53.7 90.692569 
L 401.303622 90.692569 
" clip-path="url(#pa63a21660d)" style="fill: none; stroke: #cccccc; stroke-linecap: square"/>
     </g>
     <g id="line2d_15">
      <g>
       <use xlink:href="#m305365729d" x="53.7" y="90.692569" style="fill: #404040; stroke: #404040"/>
      </g>
     </g>
     <g id="text_12">
      <!-- −2000 -->
      <g style="fill: #4d4d4d" transform="translate(21.638594 94.006398) scale(0.09 -0.09)">
       <use xlink:href="#CenturyGothic-Bold-2212"/>
       <use xlink:href="#CenturyGothic-Bold-32" transform="translate(60.009766 0)"/>
       <use xlink:href="#CenturyGothic-Bold-30" transform="translate(116.015625 0)"/>
       <use xlink:href="#CenturyGothic-Bold-30" transform="translate(172.021484 0)"/>
       <use xlink:href="#CenturyGothic-Bold-30" transform="translate(228.027344 0)"/>
      </g>
     </g>
    </g>
    <g id="ytick_5">
     <g id="line2d_16">
      <path d="M 53.7 68.281085 
L 401.303622 68.281085 
" clip-path="url(#pa63a21660d)" style="fill: none; stroke: #cccccc; stroke-linecap: square"/>
     </g>
     <g id="line2d_17">
      <g>
       <use xlink:href="#m305365729d" x="53.7" y="68.281085" style="fill: #404040; stroke: #404040"/>
      </g>
     </g>
     <g id="text_13">
      <!-- −1000 -->
      <g style="fill: #4d4d4d" transform="translate(21.638594 71.594913) scale(0.09 -0.09)">
       <use xlink:href="#CenturyGothic-Bold-2212"/>
       <use xlink:href="#CenturyGothic-Bold-31" transform="translate(60.009766 0)"/>
       <use xlink:href="#CenturyGothic-Bold-30" transform="translate(116.015625 0)"/>
       <use xlink:href="#CenturyGothic-Bold-30" transform="translate(172.021484 0)"/>
       <use xlink:href="#CenturyGothic-Bold-30" transform="translate(228.027344 0)"/>
      </g>
     </g>
    </g>
    <g id="ytick_6">
     <g id="line2d_18">
      <path d="M 53.7 45.8696 
L 401.303622 45.8696 
" clip-path="url(#pa63a21660d)" style="fill: none; stroke: #cccccc; stroke-linecap: square"/>
     </g>
     <g id="line2d_19">
      <g>
       <use xlink:href="#m305365729d" x="53.7" y="45.8696" style="fill: #404040; stroke: #404040"/>
      </g>
     </g>
     <g id="text_14">
      <!-- 0 -->
      <g style="fill: #4d4d4d" transform="translate(42.16 49.183428) scale(0.09 -0.09)">
       <use xlink:href="#CenturyGothic-Bold-30"/>
      </g>
     </g>
    </g>
    <g id="ytick_7">
     <g id="line2d_20">
      <path d="M 53.7 23.458115 
L 401.303622 23.458115 
" clip-path="url(#pa63a21660d)" style="fill: none; stroke: #cccccc; stroke-linecap: square"/>
     </g>
     <g id="line2d_21">
      <g>
       <use xlink:href="#m305365729d" x="53.7" y="23.458115" style="fill: #404040; stroke: #404040"/>
      </g>
     </g>
     <g id="text_15">
      <!-- 1000 -->
      <g style="fill: #4d4d4d" transform="translate(27.04 26.771943) scale(0.09 -0.09)">
       <use xlink:href="#CenturyGothic-Bold-31"/>
       <use xlink:href="#CenturyGothic-Bold-30" transform="translate(56.005859 0)"/>
       <use xlink:href="#CenturyGothic-Bold-30" transform="translate(112.011719 0)"/>
       <use xlink:href="#CenturyGothic-Bold-30" transform="translate(168.017578 0)"/>
      </g>
     </g>
    </g>
    <g id="text_16">
     <!-- Effect on contracts -->
     <g transform="translate(15.889219 131.10614) rotate(-90) scale(0.09 -0.09)">
      <defs>
       <path id="CenturyGothic-45" d="M 563 4597 
L 3197 4597 
L 3197 4144 
L 1022 4144 
L 1022 2706 
L 3178 2706 
L 3178 2256 
L 1022 2256 
L 1022 453 
L 3178 453 
L 3178 0 
L 563 0 
L 563 4597 
z
" transform="scale(0.015625)"/>
       <path id="CenturyGothic-66" d="M 1888 4713 
L 1888 4284 
Q 1647 4388 1475 4388 
Q 1347 4388 1262 4336 
Q 1178 4284 1156 4217 
Q 1134 4150 1134 3859 
L 1134 3400 
L 1844 3400 
L 1844 3025 
L 1131 3025 
L 1131 0 
L 694 0 
L 694 3025 
L 247 3025 
L 247 3400 
L 694 3400 
L 694 3931 
Q 694 4297 761 4453 
Q 828 4609 989 4704 
Q 1150 4800 1378 4800 
Q 1591 4800 1888 4713 
z
" transform="scale(0.015625)"/>
       <path id="CenturyGothic-63" d="M 3788 2694 
L 3441 2478 
Q 2991 3075 2213 3075 
Q 1591 3075 1180 2675 
Q 769 2275 769 1703 
Q 769 1331 958 1003 
Q 1147 675 1476 494 
Q 1806 313 2216 313 
Q 2966 313 3441 909 
L 3788 681 
Q 3544 316 3133 114 
Q 2722 -88 2197 -88 
Q 1391 -88 859 425 
Q 328 938 328 1672 
Q 328 2166 576 2589 
Q 825 3013 1259 3250 
Q 1694 3488 2231 3488 
Q 2569 3488 2883 3384 
Q 3197 3281 3415 3115 
Q 3634 2950 3788 2694 
z
" transform="scale(0.015625)"/>
      </defs>
      <use xlink:href="#CenturyGothic-45"/>
      <use xlink:href="#CenturyGothic-66" transform="translate(53.613281 0)"/>
      <use xlink:href="#CenturyGothic-66" transform="translate(85.009766 0)"/>
      <use xlink:href="#CenturyGothic-65" transform="translate(116.40625 0)"/>
      <use xlink:href="#CenturyGothic-63" transform="translate(181.396484 0)"/>
      <use xlink:href="#CenturyGothic-74" transform="translate(246.09375 0)"/>
      <use xlink:href="#CenturyGothic-20" transform="translate(279.980469 0)"/>
      <use xlink:href="#CenturyGothic-6f" transform="translate(307.666016 0)"/>
      <use xlink:href="#CenturyGothic-6e" transform="translate(373.144531 0)"/>
      <use xlink:href="#CenturyGothic-20" transform="translate(434.130859 0)"/>
      <use xlink:href="#CenturyGothic-63" transform="translate(461.816406 0)"/>
      <use xlink:href="#CenturyGothic-6f" transform="translate(526.513672 0)"/>
      <use xlink:href="#CenturyGothic-6e" transform="translate(591.992188 0)"/>
      <use xlink:href="#CenturyGothic-74" transform="translate(652.978516 0)"/>
      <use xlink:href="#CenturyGothic-72" transform="translate(686.865234 0)"/>
      <use xlink:href="#CenturyGothic-61" transform="translate(716.943359 0)"/>
      <use xlink:href="#CenturyGothic-63" transform="translate(785.253906 0)"/>
      <use xlink:href="#CenturyGothic-74" transform="translate(849.951172 0)"/>
      <use xlink:href="#CenturyGothic-73" transform="translate(883.837891 0)"/>
     </g>
    </g>
   </g>
   <g id="line2d_22">
    <path d="M 53.7 45.8696 
L 401.303622 45.8696 
" clip-path="url(#pa63a21660d)" style="fill: none; stroke: #404040; stroke-width: 0.9; stroke-linecap: square"/>
   </g>
   <g id="line2d_23">
    <path d="M 168.888297 169.451811 
L 168.888297 9.72 
" clip-path="url(#pa63a21660d)" style="fill: none; stroke-dasharray: 3.7,1.6; stroke-dashoffset: 0; stroke: #404040"/>
   </g>
   <g id="line2d_24">
    <path d="M 69.500165 80.261091 
L 74.596992 71.165941 
L 79.693819 74.571775 
L 84.790647 70.809847 
L 89.887474 81.968454 
L 94.984301 84.85082 
L 100.081128 80.06917 
L 105.177956 67.429982 
L 110.274783 84.386488 
L 115.37161 85.344229 
L 120.468438 108.876999 
L 125.565265 93.358825 
L 130.662092 88.969197 
L 135.75892 61.78122 
L 140.855747 63.119862 
L 145.952574 57.972513 
L 151.049401 68.415376 
L 156.146229 66.45775 
L 161.243056 56.817432 
L 166.339883 45.8696 
L 171.436711 58.123255 
L 176.533538 53.13519 
L 181.630365 56.605057 
L 186.727193 47.738113 
L 191.82402 48.259625 
L 196.920847 31.33095 
L 202.017675 44.047155 
L 207.114502 37.763046 
L 212.211329 50.338716 
L 217.308156 45.563665 
L 222.404984 42.715984 
L 227.501811 35.172029 
L 232.598638 42.714297 
L 237.695466 43.271824 
L 242.792293 50.04614 
L 247.88912 42.45007 
L 252.985948 43.366806 
L 258.082775 33.991335 
L 263.179602 32.924122 
L 268.276429 41.249455 
L 273.373257 44.980433 
L 278.470084 40.762094 
L 283.566911 45.030948 
L 288.663739 29.926141 
L 293.760566 38.997744 
L 298.857393 49.128514 
L 303.954221 49.811175 
L 309.051048 46.704161 
L 314.147875 45.113749 
L 319.244702 33.472491 
L 324.34153 32.680975 
L 329.438357 33.610696 
L 334.535184 44.045376 
L 339.632012 48.035154 
L 344.728839 53.015484 
L 349.825666 31.709633 
L 354.922494 46.390984 
L 360.019321 49.548285 
L 365.116148 48.461328 
L 370.212976 49.307273 
L 375.309803 44.582185 
L 380.40663 37.423316 
L 385.503457 45.993219 
" clip-path="url(#pa63a21660d)" style="fill: none; stroke: #83082a; stroke-width: 1.6; stroke-linecap: square"/>
    <defs>
     <path id="m7491c90bb8" d="M 0 1.6 
C 0.424325 1.6 0.831328 1.431414 1.131371 1.131371 
C 1.431414 0.831328 1.6 0.424325 1.6 0 
C 1.6 -0.424325 1.431414 -0.831328 1.131371 -1.131371 
C 0.831328 -1.431414 0.424325 -1.6 0 -1.6 
C -0.424325 -1.6 -0.831328 -1.431414 -1.131371 -1.131371 
C -1.431414 -0.831328 -1.6 -0.424325 -1.6 0 
C -1.6 0.424325 -1.431414 0.831328 -1.131371 1.131371 
C -0.831328 1.431414 -0.424325 1.6 0 1.6 
z
" style="stroke: #83082a"/>
    </defs>
    <g clip-path="url(#pa63a21660d)">
     <use xlink:href="#m7491c90bb8" x="69.500165" y="80.261091" style="fill: #83082a; stroke: #83082a"/>
     <use xlink:href="#m7491c90bb8" x="74.596992" y="71.165941" style="fill: #83082a; stroke: #83082a"/>
     <use xlink:href="#m7491c90bb8" x="79.693819" y="74.571775" style="fill: #83082a; stroke: #83082a"/>
     <use xlink:href="#m7491c90bb8" x="84.790647" y="70.809847" style="fill: #83082a; stroke: #83082a"/>
     <use xlink:href="#m7491c90bb8" x="89.887474" y="81.968454" style="fill: #83082a; stroke: #83082a"/>
     <use xlink:href="#m7491c90bb8" x="94.984301" y="84.85082" style="fill: #83082a; stroke: #83082a"/>
     <use xlink:href="#m7491c90bb8" x="100.081128" y="80.06917" style="fill: #83082a; stroke: #83082a"/>
     <use xlink:href="#m7491c90bb8" x="105.177956" y="67.429982" style="fill: #83082a; stroke: #83082a"/>
     <use xlink:href="#m7491c90bb8" x="110.274783" y="84.386488" style="fill: #83082a; stroke: #83082a"/>
     <use xlink:href="#m7491c90bb8" x="115.37161" y="85.344229" style="fill: #83082a; stroke: #83082a"/>
     <use xlink:href="#m7491c90bb8" x="120.468438" y="108.876999" style="fill: #83082a; stroke: #83082a"/>
     <use xlink:href="#m7491c90bb8" x="125.565265" y="93.358825" style="fill: #83082a; stroke: #83082a"/>
     <use xlink:href="#m7491c90bb8" x="130.662092" y="88.969197" style="fill: #83082a; stroke: #83082a"/>
     <use xlink:href="#m7491c90bb8" x="135.75892" y="61.78122" style="fill: #83082a; stroke: #83082a"/>
     <use xlink:href="#m7491c90bb8" x="140.855747" y="63.119862" style="fill: #83082a; stroke: #83082a"/>
     <use xlink:href="#m7491c90bb8" x="145.952574" y="57.972513" style="fill: #83082a; stroke: #83082a"/>
     <use xlink:href="#m7491c90bb8" x="151.049401" y="68.415376" style="fill: #83082a; stroke: #83082a"/>
     <use xlink:href="#m7491c90bb8" x="156.146229" y="66.45775" style="fill: #83082a; stroke: #83082a"/>
     <use xlink:href="#m7491c90bb8" x="161.243056" y="56.817432" style="fill: #83082a; stroke: #83082a"/>
     <use xlink:href="#m7491c90bb8" x="166.339883" y="45.8696" style="fill: #83082a; stroke: #83082a"/>
     <use xlink:href="#m7491c90bb8" x="171.436711" y="58.123255" style="fill: #83082a; stroke: #83082a"/>
     <use xlink:href="#m7491c90bb8" x="176.533538" y="53.13519" style="fill: #83082a; stroke: #83082a"/>
     <use xlink:href="#m7491c90bb8" x="181.630365" y="56.605057" style="fill: #83082a; stroke: #83082a"/>
     <use xlink:href="#m7491c90bb8" x="186.727193" y="47.738113" style="fill: #83082a; stroke: #83082a"/>
     <use xlink:href="#m7491c90bb8" x="191.82402" y="48.259625" style="fill: #83082a; stroke: #83082a"/>
     <use xlink:href="#m7491c90bb8" x="196.920847" y="31.33095" style="fill: #83082a; stroke: #83082a"/>
     <use xlink:href="#m7491c90bb8" x="202.017675" y="44.047155" style="fill: #83082a; stroke: #83082a"/>
     <use xlink:href="#m7491c90bb8" x="207.114502" y="37.763046" style="fill: #83082a; stroke: #83082a"/>
     <use xlink:href="#m7491c90bb8" x="212.211329" y="50.338716" style="fill: #83082a; stroke: #83082a"/>
     <use xlink:href="#m7491c90bb8" x="217.308156" y="45.563665" style="fill: #83082a; stroke: #83082a"/>
     <use xlink:href="#m7491c90bb8" x="222.404984" y="42.715984" style="fill: #83082a; stroke: #83082a"/>
     <use xlink:href="#m7491c90bb8" x="227.501811" y="35.172029" style="fill: #83082a; stroke: #83082a"/>
     <use xlink:href="#m7491c90bb8" x="232.598638" y="42.714297" style="fill: #83082a; stroke: #83082a"/>
     <use xlink:href="#m7491c90bb8" x="237.695466" y="43.271824" style="fill: #83082a; stroke: #83082a"/>
     <use xlink:href="#m7491c90bb8" x="242.792293" y="50.04614" style="fill: #83082a; stroke: #83082a"/>
     <use xlink:href="#m7491c90bb8" x="247.88912" y="42.45007" style="fill: #83082a; stroke: #83082a"/>
     <use xlink:href="#m7491c90bb8" x="252.985948" y="43.366806" style="fill: #83082a; stroke: #83082a"/>
     <use xlink:href="#m7491c90bb8" x="258.082775" y="33.991335" style="fill: #83082a; stroke: #83082a"/>
     <use xlink:href="#m7491c90bb8" x="263.179602" y="32.924122" style="fill: #83082a; stroke: #83082a"/>
     <use xlink:href="#m7491c90bb8" x="268.276429" y="41.249455" style="fill: #83082a; stroke: #83082a"/>
     <use xlink:href="#m7491c90bb8" x="273.373257" y="44.980433" style="fill: #83082a; stroke: #83082a"/>
     <use xlink:href="#m7491c90bb8" x="278.470084" y="40.762094" style="fill: #83082a; stroke: #83082a"/>
     <use xlink:href="#m7491c90bb8" x="283.566911" y="45.030948" style="fill: #83082a; stroke: #83082a"/>
     <use xlink:href="#m7491c90bb8" x="288.663739" y="29.926141" style="fill: #83082a; stroke: #83082a"/>
     <use xlink:href="#m7491c90bb8" x="293.760566" y="38.997744" style="fill: #83082a; stroke: #83082a"/>
     <use xlink:href="#m7491c90bb8" x="298.857393" y="49.128514" style="fill: #83082a; stroke: #83082a"/>
     <use xlink:href="#m7491c90bb8" x="303.954221" y="49.811175" style="fill: #83082a; stroke: #83082a"/>
     <use xlink:href="#m7491c90bb8" x="309.051048" y="46.704161" style="fill: #83082a; stroke: #83082a"/>
     <use xlink:href="#m7491c90bb8" x="314.147875" y="45.113749" style="fill: #83082a; stroke: #83082a"/>
     <use xlink:href="#m7491c90bb8" x="319.244702" y="33.472491" style="fill: #83082a; stroke: #83082a"/>
     <use xlink:href="#m7491c90bb8" x="324.34153" y="32.680975" style="fill: #83082a; stroke: #83082a"/>
     <use xlink:href="#m7491c90bb8" x="329.438357" y="33.610696" style="fill: #83082a; stroke: #83082a"/>
     <use xlink:href="#m7491c90bb8" x="334.535184" y="44.045376" style="fill: #83082a; stroke: #83082a"/>
     <use xlink:href="#m7491c90bb8" x="339.632012" y="48.035154" style="fill: #83082a; stroke: #83082a"/>
     <use xlink:href="#m7491c90bb8" x="344.728839" y="53.015484" style="fill: #83082a; stroke: #83082a"/>
     <use xlink:href="#m7491c90bb8" x="349.825666" y="31.709633" style="fill: #83082a; stroke: #83082a"/>
     <use xlink:href="#m7491c90bb8" x="354.922494" y="46.390984" style="fill: #83082a; stroke: #83082a"/>
     <use xlink:href="#m7491c90bb8" x="360.019321" y="49.548285" style="fill: #83082a; stroke: #83082a"/>
     <use xlink:href="#m7491c90bb8" x="365.116148" y="48.461328" style="fill: #83082a; stroke: #83082a"/>
     <use xlink:href="#m7491c90bb8" x="370.212976" y="49.307273" style="fill: #83082a; stroke: #83082a"/>
     <use xlink:href="#m7491c90bb8" x="375.309803" y="44.582185" style="fill: #83082a; stroke: #83082a"/>
     <use xlink:href="#m7491c90bb8" x="380.40663" y="37.423316" style="fill: #83082a; stroke: #83082a"/>
     <use xlink:href="#m7491c90bb8" x="385.503457" y="45.993219" style="fill: #83082a; stroke: #83082a"/>
    </g>
   </g>
   <g id="patch_3">
    <path d="M 53.7 169.451811 
L 53.7 9.72 
" style="fill: none; stroke: #404040; stroke-linejoin: miter; stroke-linecap: square"/>
   </g>
   <g id="patch_4">
    <path d="M 53.7 169.451811 
L 401.303622 169.451811 
" style="fill: none; stroke: #404040; stroke-linejoin: miter; stroke-linecap: square"/>
   </g>
  </g>
 </g>
 <defs>
  <clipPath id="pa63a21660d">
   <rect x="53.7" y="9.72" width="347.603622" height="159.731811"/>
  </clipPath>
 </defs>
</svg>
