<?xml version="1.0" encoding="utf-8" standalone="no"?>
<!DOCTYPE svg PUBLIC "-//W3C//DTD SVG 1.1//EN"
  "http://www.w3.org/Graphics/SVG/1.1/DTD/svg11.dtd">
<svg xmlns:xlink="http://www.w3.org/1999/xlink" width="411.023622pt" height="205.511811pt" viewBox="0 0 411.023622 205.511811" xmlns="http://www.w3.org/2000/svg" version="1.1">
 <metadata>
  <rdf:RDF xmlns:dc="http://purl.org/dc/elements/1.1/" xmlns:cc="http://creativecommons.org/ns#" xmlns:rdf="http://www.w3.org/1999/02/22-rdf-syntax-ns#">
   <cc:Work>
    <dc:type rdf:resource="http://purl.org/dc/dcmitype/StillImage"/>
    <dc:date>2026-06-04T09:42:50.866958</dc:date>
    <dc:format>image/svg+xml</dc:format>
    <dc:creator>
     <cc:Agent>
      <dc:title>Matplotlib v3.10.8, https://matplotlib.org/</dc:title>
     </cc:Agent>
    </dc:creator>
   </cc:Work>
  </rdf:RDF>
 </metadata>
 <defs>
  <style type="text/css">*{stroke-linejoin: round; stroke-linecap: butt}</style>
 </defs>
 <g id="figure_1">
  <g id="patch_1">
   <path d="M 0 205.511811 
L 411.023622 205.511811 
L 411.023622 0 
L 0 0 
z
" style="fill: #ffffff"/>
  </g>
  <g id="axes_1">
   <g id="patch_2">
    <path d="M 53.61 169.451811 
L 401.303622 169.451811 
L 401.303622 9.72 
L 53.61 9.72 
z
" style="fill: #ffffff"/>
   </g>
   <g id="FillBetweenPolyCollection_1">
    <defs>
     <path id="m61b1f805e2" d="M 69.414256 -138.645346 
L 69.414256 -73.557201 
L 74.512402 -87.004366 
L 79.610549 -90.989469 
L 84.708696 -93.383436 
L 89.806843 -91.813695 
L 94.90499 -73.621717 
L 100.003137 -57.040237 
L 105.101284 -75.69267 
L 110.199431 -66.556519 
L 115.297578 -73.920963 
L 120.395725 -43.320537 
L 125.493872 -76.327966 
L 130.592019 -74.782816 
L 135.690166 -116.391709 
L 140.788313 -119.707702 
L 145.88646 -119.580574 
L 150.984607 -113.334895 
L 156.082754 -96.768922 
L 161.180901 -98.107834 
L 166.279048 -124.148182 
L 171.377195 -121.729994 
L 176.475342 -129.236615 
L 181.573488 -124.997162 
L 186.671635 -126.919771 
L 191.769782 -120.904956 
L 196.867929 -122.40634 
L 201.966076 -128.042042 
L 207.064223 -127.192914 
L 212.16237 -131.073092 
L 217.260517 -122.280806 
L 222.358664 -119.858686 
L 227.456811 -112.429419 
L 232.554958 -132.404621 
L 237.653105 -136.300862 
L 242.751252 -135.13504 
L 247.849399 -125.289626 
L 252.947546 -122.708988 
L 258.045693 -124.519395 
L 263.14384 -128.550924 
L 268.241987 -131.139591 
L 273.340134 -131.229743 
L 278.438281 -127.603597 
L 283.536427 -112.748098 
L 288.634574 -114.144939 
L 293.732721 -134.136647 
L 298.830868 -124.31597 
L 303.929015 -129.868027 
L 309.027162 -124.895559 
L 314.125309 -120.41724 
L 319.223456 -120.528226 
L 324.321603 -124.622753 
L 329.41975 -127.452464 
L 334.517897 -127.552245 
L 339.616044 -118.117816 
L 344.714191 -93.941352 
L 349.812338 -109.913882 
L 354.910485 -125.547662 
L 360.008632 -125.701907 
L 365.106779 -124.169972 
L 370.204926 -120.741159 
L 375.303073 -111.468918 
L 380.40122 -115.822937 
L 385.499366 -121.317267 
L 385.499366 -157.831082 
L 385.499366 -157.831082 
L 380.40122 -170.266725 
L 375.303073 -155.256504 
L 370.204926 -160.317396 
L 365.106779 -159.081225 
L 360.008632 -160.543614 
L 354.910485 -162.726664 
L 349.812338 -152.822422 
L 344.714191 -154.239532 
L 339.616044 -165.575717 
L 334.517897 -156.458844 
L 329.41975 -172.380394 
L 324.321603 -173.234708 
L 319.223456 -179.478039 
L 314.125309 -161.562494 
L 309.027162 -169.862524 
L 303.929015 -161.30221 
L 298.830868 -162.040763 
L 293.732721 -167.305735 
L 288.634574 -157.058137 
L 283.536427 -163.297143 
L 278.438281 -170.092466 
L 273.340134 -159.453937 
L 268.241987 -167.513544 
L 263.14384 -179.540883 
L 258.045693 -178.140435 
L 252.947546 -162.217662 
L 247.849399 -172.739378 
L 242.751252 -183.346388 
L 237.653105 -168.66899 
L 232.554958 -161.03273 
L 227.456811 -149.403593 
L 222.358664 -161.838133 
L 217.260517 -168.312093 
L 212.16237 -154.979244 
L 207.064223 -171.526464 
L 201.966076 -161.275158 
L 196.867929 -188.531274 
L 191.769782 -167.113677 
L 186.671635 -168.385285 
L 181.573488 -169.696515 
L 176.475342 -171.307576 
L 171.377195 -166.357924 
L 166.279048 -124.148182 
L 161.180901 -157.972146 
L 156.082754 -165.626821 
L 150.984607 -149.950489 
L 145.88646 -152.257786 
L 140.788313 -168.839086 
L 135.690166 -152.974106 
L 130.592019 -143.38271 
L 125.493872 -146.902298 
L 120.395725 -154.111084 
L 115.297578 -157.805279 
L 110.199431 -149.493959 
L 105.101284 -116.738984 
L 100.003137 -141.359144 
L 94.90499 -157.586754 
L 89.806843 -145.368471 
L 84.708696 -148.324408 
L 79.610549 -145.875283 
L 74.512402 -151.229186 
L 69.414256 -138.645346 
z
"/>
    </defs>
    <g clip-path="url(#pb657b8ef21)">
     <use xlink:href="#m61b1f805e2" x="0" y="205.511811" style="fill: #e397a0; fill-opacity: 0.55"/>
    </g>
   </g>
   <g id="matplotlib.axis_1">
    <g id="xtick_1">
     <g id="line2d_1">
      <defs>
       <path id="m73fac7b651" d="M 0 0 
L 0 3 
" style="stroke: #404040"/>
      </defs>
      <g>
       <use xlink:href="#m73fac7b651" x="69.414256" y="169.451811" style="fill: #404040; stroke: #404040"/>
      </g>
     </g>
     <g id="text_1">
      <!-- −20 -->
      <g style="fill: #4d4d4d" transform="translate(61.673552 182.579467) scale(0.09 -0.09)">
       <defs>
        <path id="CenturyGothic-Bold-2212" d="M 359 2688 
L 3481 2688 
L 3481 1906 
L 359 1906 
L 359 2688 
z
" transform="scale(0.015625)"/>
        <path id="CenturyGothic-Bold-32" d="M 1116 3116 
L 263 3116 
Q 297 3859 730 4286 
Q 1163 4713 1841 4713 
Q 2259 4713 2579 4536 
Q 2900 4359 3092 4026 
Q 3284 3694 3284 3350 
Q 3284 2941 3051 2469 
Q 2819 1997 2200 1353 
L 1684 809 
L 3322 809 
L 3322 0 
L 138 0 
L 138 419 
L 1559 1869 
Q 2075 2391 2245 2708 
Q 2416 3025 2416 3281 
Q 2416 3547 2239 3720 
Q 2063 3894 1784 3894 
Q 1503 3894 1315 3684 
Q 1128 3475 1116 3116 
z
" transform="scale(0.015625)"/>
        <path id="CenturyGothic-Bold-30" d="M 1778 4713 
Q 2281 4713 2645 4466 
Q 3009 4219 3207 3711 
Q 3406 3203 3406 2297 
Q 3406 1381 3204 872 
Q 3003 363 2662 123 
Q 2322 -116 1803 -116 
Q 1284 -116 931 125 
Q 578 366 378 856 
Q 178 1347 178 2253 
Q 178 3519 569 4088 
Q 1003 4713 1778 4713 
z
M 1800 3881 
Q 1578 3881 1406 3739 
Q 1234 3597 1143 3250 
Q 1053 2903 1053 2234 
Q 1053 1363 1261 1030 
Q 1469 697 1800 697 
Q 2119 697 2306 1013 
Q 2534 1394 2534 2288 
Q 2534 3194 2329 3537 
Q 2125 3881 1800 3881 
z
" transform="scale(0.015625)"/>
       </defs>
       <use xlink:href="#CenturyGothic-Bold-2212"/>
       <use xlink:href="#CenturyGothic-Bold-32" transform="translate(60.009766 0)"/>
       <use xlink:href="#CenturyGothic-Bold-30" transform="translate(116.015625 0)"/>
      </g>
     </g>
    </g>
    <g id="xtick_2">
     <g id="line2d_2">
      <g>
       <use xlink:href="#m73fac7b651" x="120.395725" y="169.451811" style="fill: #404040; stroke: #404040"/>
      </g>
     </g>
     <g id="text_2">
      <!-- −10 -->
      <g style="fill: #4d4d4d" transform="translate(112.655022 182.579467) scale(0.09 -0.09)">
       <defs>
        <path id="CenturyGothic-Bold-31" d="M 1053 4597 
L 2363 4597 
L 2363 0 
L 1494 0 
L 1494 3775 
L 547 3775 
L 1053 4597 
z
" transform="scale(0.015625)"/>
       </defs>
       <use xlink:href="#CenturyGothic-Bold-2212"/>
       <use xlink:href="#CenturyGothic-Bold-31" transform="translate(60.009766 0)"/>
       <use xlink:href="#CenturyGothic-Bold-30" transform="translate(116.015625 0)"/>
      </g>
     </g>
    </g>
    <g id="xtick_3">
     <g id="line2d_3">
      <g>
       <use xlink:href="#m73fac7b651" x="171.377195" y="169.451811" style="fill: #404040; stroke: #404040"/>
      </g>
     </g>
     <g id="text_3">
      <!-- 0 -->
      <g style="fill: #4d4d4d" transform="translate(168.857195 182.579467) scale(0.09 -0.09)">
       <use xlink:href="#CenturyGothic-Bold-30"/>
      </g>
     </g>
    </g>
    <g id="xtick_4">
     <g id="line2d_4">
      <g>
       <use xlink:href="#m73fac7b651" x="222.358664" y="169.451811" style="fill: #404040; stroke: #404040"/>
      </g>
     </g>
     <g id="text_4">
      <!-- 10 -->
      <g style="fill: #4d4d4d" transform="translate(217.318664 182.579467) scale(0.09 -0.09)">
       <use xlink:href="#CenturyGothic-Bold-31"/>
       <use xlink:href="#CenturyGothic-Bold-30" transform="translate(56.005859 0)"/>
      </g>
     </g>
    </g>
    <g id="xtick_5">
     <g id="line2d_5">
      <g>
       <use xlink:href="#m73fac7b651" x="273.340134" y="169.451811" style="fill: #404040; stroke: #404040"/>
      </g>
     </g>
     <g id="text_5">
      <!-- 20 -->
      <g style="fill: #4d4d4d" transform="translate(268.300134 182.579467) scale(0.09 -0.09)">
       <use xlink:href="#CenturyGothic-Bold-32"/>
       <use xlink:href="#CenturyGothic-Bold-30" transform="translate(56.005859 0)"/>
      </g>
     </g>
    </g>
    <g id="xtick_6">
     <g id="line2d_6">
      <g>
       <use xlink:href="#m73fac7b651" x="324.321603" y="169.451811" style="fill: #404040; stroke: #404040"/>
      </g>
     </g>
     <g id="text_6">
      <!-- 30 -->
      <g style="fill: #4d4d4d" transform="translate(319.281603 182.579467) scale(0.09 -0.09)">
       <defs>
        <path id="CenturyGothic-Bold-33" d="M 1216 3463 
L 375 3463 
Q 441 3972 741 4281 
Q 1159 4713 1794 4713 
Q 2359 4713 2742 4353 
Q 3125 3994 3125 3500 
Q 3125 3194 2958 2941 
Q 2791 2688 2472 2531 
Q 2891 2406 3127 2095 
Q 3363 1784 3363 1363 
Q 3363 744 2906 314 
Q 2450 -116 1744 -116 
Q 1075 -116 653 289 
Q 231 694 191 1391 
L 1056 1391 
Q 1113 1034 1305 861 
Q 1497 688 1791 688 
Q 2097 688 2298 884 
Q 2500 1081 2500 1366 
Q 2500 1678 2228 1893 
Q 1956 2109 1444 2116 
L 1444 2866 
Q 1759 2891 1914 2964 
Q 2069 3038 2155 3166 
Q 2241 3294 2241 3438 
Q 2241 3625 2109 3748 
Q 1978 3872 1766 3872 
Q 1578 3872 1425 3758 
Q 1272 3644 1216 3463 
z
" transform="scale(0.015625)"/>
       </defs>
       <use xlink:href="#CenturyGothic-Bold-33"/>
       <use xlink:href="#CenturyGothic-Bold-30" transform="translate(56.005859 0)"/>
      </g>
     </g>
    </g>
    <g id="xtick_7">
     <g id="line2d_7">
      <g>
       <use xlink:href="#m73fac7b651" x="375.303073" y="169.451811" style="fill: #404040; stroke: #404040"/>
      </g>
     </g>
     <g id="text_7">
      <!-- 40 -->
      <g style="fill: #4d4d4d" transform="translate(370.263073 182.579467) scale(0.09 -0.09)">
       <defs>
        <path id="CenturyGothic-Bold-34" d="M 2119 4713 
L 2994 4713 
L 2994 1753 
L 3403 1753 
L 3403 944 
L 2994 944 
L 2994 0 
L 2138 0 
L 2138 944 
L 131 944 
L 131 1753 
L 2119 4713 
z
M 2138 1753 
L 2138 3294 
L 1088 1753 
L 2138 1753 
z
" transform="scale(0.015625)"/>
       </defs>
       <use xlink:href="#CenturyGothic-Bold-34"/>
       <use xlink:href="#CenturyGothic-Bold-30" transform="translate(56.005859 0)"/>
      </g>
     </g>
    </g>
    <g id="text_8">
     <!-- Months relative to 2022-09 (baseline = -1) -->
     <g transform="translate(138.789936 195.078842) scale(0.09 -0.09)">
      <defs>
       <path id="CenturyGothic-4d" d="M 350 0 
L 1003 4597 
L 1078 4597 
L 2947 825 
L 4797 4597 
L 4872 4597 
L 5531 0 
L 5078 0 
L 4628 3288 
L 3003 0 
L 2888 0 
L 1241 3313 
L 794 0 
L 350 0 
z
" transform="scale(0.015625)"/>
       <path id="CenturyGothic-6f" d="M 2097 3488 
Q 2881 3488 3397 2919 
Q 3866 2400 3866 1691 
Q 3866 978 3370 445 
Q 2875 -88 2097 -88 
Q 1316 -88 820 445 
Q 325 978 325 1691 
Q 325 2397 794 2916 
Q 1309 3488 2097 3488 
z
M 2097 3059 
Q 1553 3059 1162 2656 
Q 772 2253 772 1681 
Q 772 1313 950 994 
Q 1128 675 1431 501 
Q 1734 328 2097 328 
Q 2459 328 2762 501 
Q 3066 675 3244 994 
Q 3422 1313 3422 1681 
Q 3422 2253 3030 2656 
Q 2638 3059 2097 3059 
z
" transform="scale(0.015625)"/>
       <path id="CenturyGothic-6e" d="M 488 3400 
L 925 3400 
L 925 2791 
Q 1188 3141 1506 3314 
Q 1825 3488 2200 3488 
Q 2581 3488 2876 3294 
Q 3172 3100 3312 2772 
Q 3453 2444 3453 1750 
L 3453 0 
L 3019 0 
L 3019 1622 
Q 3019 2209 2969 2406 
Q 2891 2744 2675 2914 
Q 2459 3084 2113 3084 
Q 1716 3084 1402 2821 
Q 1088 2559 988 2172 
Q 925 1919 925 1247 
L 925 0 
L 488 0 
L 488 3400 
z
" transform="scale(0.015625)"/>
       <path id="CenturyGothic-74" d="M 869 4663 
L 1309 4663 
L 1309 3400 
L 2003 3400 
L 2003 3025 
L 1309 3025 
L 1309 0 
L 869 0 
L 869 3025 
L 272 3025 
L 272 3400 
L 869 3400 
L 869 4663 
z
" transform="scale(0.015625)"/>
       <path id="CenturyGothic-68" d="M 488 4713 
L 925 4713 
L 925 2791 
Q 1191 3141 1509 3314 
Q 1828 3488 2200 3488 
Q 2581 3488 2876 3294 
Q 3172 3100 3312 2773 
Q 3453 2447 3453 1750 
L 3453 0 
L 3016 0 
L 3016 1622 
Q 3016 2209 2969 2406 
Q 2888 2744 2673 2914 
Q 2459 3084 2113 3084 
Q 1716 3084 1402 2821 
Q 1088 2559 988 2172 
Q 925 1922 925 1247 
L 925 0 
L 488 0 
L 488 4713 
z
" transform="scale(0.015625)"/>
       <path id="CenturyGothic-73" d="M 2197 3028 
L 1916 2738 
Q 1566 3078 1231 3078 
Q 1019 3078 867 2937 
Q 716 2797 716 2609 
Q 716 2444 841 2294 
Q 966 2141 1366 1934 
Q 1853 1681 2028 1447 
Q 2200 1209 2200 913 
Q 2200 494 1906 203 
Q 1613 -88 1172 -88 
Q 878 -88 611 40 
Q 344 169 169 394 
L 444 706 
Q 778 328 1153 328 
Q 1416 328 1600 497 
Q 1784 666 1784 894 
Q 1784 1081 1663 1228 
Q 1541 1372 1113 1591 
Q 653 1828 488 2059 
Q 322 2291 322 2588 
Q 322 2975 586 3231 
Q 850 3488 1253 3488 
Q 1722 3488 2197 3028 
z
" transform="scale(0.015625)"/>
       <path id="CenturyGothic-20" transform="scale(0.015625)"/>
       <path id="CenturyGothic-72" d="M 322 3400 
L 769 3400 
L 769 2903 
Q 969 3197 1191 3342 
Q 1413 3488 1653 3488 
Q 1834 3488 2041 3372 
L 1813 3003 
Q 1675 3063 1581 3063 
Q 1363 3063 1159 2883 
Q 956 2703 850 2325 
Q 769 2034 769 1150 
L 769 0 
L 322 0 
L 322 3400 
z
" transform="scale(0.015625)"/>
       <path id="CenturyGothic-65" d="M 3350 1128 
L 3719 934 
Q 3538 578 3300 359 
Q 3063 141 2766 26 
Q 2469 -88 2094 -88 
Q 1263 -88 794 457 
Q 325 1003 325 1691 
Q 325 2338 722 2844 
Q 1225 3488 2069 3488 
Q 2938 3488 3456 2828 
Q 3825 2363 3831 1666 
L 775 1666 
Q 788 1072 1153 692 
Q 1519 313 2056 313 
Q 2316 313 2561 403 
Q 2806 494 2978 644 
Q 3150 794 3350 1128 
z
M 3350 2044 
Q 3263 2394 3095 2603 
Q 2928 2813 2653 2941 
Q 2378 3069 2075 3069 
Q 1575 3069 1216 2747 
Q 953 2513 819 2044 
L 3350 2044 
z
" transform="scale(0.015625)"/>
       <path id="CenturyGothic-6c" d="M 422 4713 
L 859 4713 
L 859 0 
L 422 0 
L 422 4713 
z
" transform="scale(0.015625)"/>
       <path id="CenturyGothic-61" d="M 3875 3400 
L 3875 0 
L 3444 0 
L 3444 584 
Q 3169 250 2826 81 
Q 2484 -88 2078 -88 
Q 1356 -88 845 435 
Q 334 959 334 1709 
Q 334 2444 850 2966 
Q 1366 3488 2091 3488 
Q 2509 3488 2848 3309 
Q 3188 3131 3444 2775 
L 3444 3400 
L 3875 3400 
z
M 2125 3066 
Q 1759 3066 1450 2886 
Q 1141 2706 958 2381 
Q 775 2056 775 1694 
Q 775 1334 959 1006 
Q 1144 678 1455 495 
Q 1766 313 2122 313 
Q 2481 313 2803 494 
Q 3125 675 3298 984 
Q 3472 1294 3472 1681 
Q 3472 2272 3083 2669 
Q 2694 3066 2125 3066 
z
" transform="scale(0.015625)"/>
       <path id="CenturyGothic-69" d="M 641 4800 
Q 791 4800 897 4694 
Q 1003 4588 1003 4438 
Q 1003 4291 897 4184 
Q 791 4078 641 4078 
Q 494 4078 387 4184 
Q 281 4291 281 4438 
Q 281 4588 387 4694 
Q 494 4800 641 4800 
z
M 422 3400 
L 863 3400 
L 863 0 
L 422 0 
L 422 3400 
z
" transform="scale(0.015625)"/>
       <path id="CenturyGothic-76" d="M 166 3400 
L 631 3400 
L 1769 925 
L 2897 3400 
L 3366 3400 
L 1809 0 
L 1731 0 
L 166 3400 
z
" transform="scale(0.015625)"/>
       <path id="CenturyGothic-32" d="M 741 3156 
L 300 3156 
Q 319 3838 755 4275 
Q 1191 4713 1831 4713 
Q 2466 4713 2858 4303 
Q 3250 3894 3250 3338 
Q 3250 2947 3062 2605 
Q 2875 2263 2334 1678 
L 1191 444 
L 3313 444 
L 3313 0 
L 191 0 
L 1947 1897 
Q 2481 2469 2642 2745 
Q 2803 3022 2803 3328 
Q 2803 3716 2514 3995 
Q 2225 4275 1806 4275 
Q 1366 4275 1073 3981 
Q 781 3688 741 3156 
z
" transform="scale(0.015625)"/>
       <path id="CenturyGothic-30" d="M 203 2297 
Q 203 3206 398 3703 
Q 594 4200 950 4456 
Q 1306 4713 1747 4713 
Q 2194 4713 2556 4455 
Q 2919 4197 3130 3681 
Q 3341 3166 3341 2297 
Q 3341 1431 3133 918 
Q 2925 406 2559 145 
Q 2194 -116 1747 -116 
Q 1306 -116 953 137 
Q 600 391 401 892 
Q 203 1394 203 2297 
z
M 638 2288 
Q 638 1509 777 1111 
Q 916 713 1187 506 
Q 1459 300 1763 300 
Q 2069 300 2334 501 
Q 2600 703 2738 1106 
Q 2909 1597 2909 2288 
Q 2909 2981 2756 3423 
Q 2603 3866 2333 4070 
Q 2063 4275 1763 4275 
Q 1456 4275 1187 4070 
Q 919 3866 778 3467 
Q 638 3069 638 2288 
z
" transform="scale(0.015625)"/>
       <path id="CenturyGothic-2d" d="M 203 1919 
L 1922 1919 
L 1922 1538 
L 203 1538 
L 203 1919 
z
" transform="scale(0.015625)"/>
       <path id="CenturyGothic-39" d="M 1228 -116 
L 850 128 
L 2091 2009 
Q 1841 1928 1622 1928 
Q 1075 1928 694 2323 
Q 313 2719 313 3297 
Q 313 3694 497 4012 
Q 681 4331 1020 4522 
Q 1359 4713 1747 4713 
Q 2128 4713 2451 4528 
Q 2775 4344 2959 4012 
Q 3144 3681 3144 3306 
Q 3144 3022 3030 2711 
Q 2916 2400 2622 1963 
L 1228 -116 
z
M 1728 2331 
Q 2131 2331 2414 2614 
Q 2697 2897 2697 3297 
Q 2697 3697 2414 3980 
Q 2131 4263 1728 4263 
Q 1328 4263 1045 3980 
Q 763 3697 763 3297 
Q 763 2897 1045 2614 
Q 1328 2331 1728 2331 
z
" transform="scale(0.015625)"/>
       <path id="CenturyGothic-28" d="M 1469 4800 
L 1975 4800 
Q 1669 4172 1484 3334 
Q 1300 2497 1300 1606 
Q 1300 781 1439 15 
Q 1578 -750 1822 -1331 
L 1341 -1331 
Q 1109 -775 971 -22 
Q 834 731 834 1547 
Q 834 2425 996 3258 
Q 1159 4091 1469 4800 
z
" transform="scale(0.015625)"/>
       <path id="CenturyGothic-62" d="M 516 0 
L 516 4713 
L 950 4713 
L 950 2816 
Q 1225 3153 1565 3320 
Q 1906 3488 2313 3488 
Q 3034 3488 3545 2964 
Q 4056 2441 4056 1694 
Q 4056 956 3540 434 
Q 3025 -88 2300 -88 
Q 1884 -88 1546 90 
Q 1209 269 950 625 
L 950 0 
L 516 0 
z
M 2266 334 
Q 2631 334 2940 514 
Q 3250 694 3433 1019 
Q 3616 1344 3616 1706 
Q 3616 2069 3431 2397 
Q 3247 2725 2936 2908 
Q 2625 3091 2272 3091 
Q 1913 3091 1589 2908 
Q 1266 2725 1092 2415 
Q 919 2106 919 1719 
Q 919 1128 1308 731 
Q 1697 334 2266 334 
z
" transform="scale(0.015625)"/>
       <path id="CenturyGothic-3d" d="M 3522 3200 
L 3522 2772 
L 359 2772 
L 359 3200 
L 3522 3200 
z
M 3522 1825 
L 3522 1397 
L 359 1397 
L 359 1825 
L 3522 1825 
z
" transform="scale(0.015625)"/>
       <path id="CenturyGothic-31" d="M 1184 4597 
L 2088 4597 
L 2088 0 
L 1631 0 
L 1631 4147 
L 909 4147 
L 1184 4597 
z
" transform="scale(0.015625)"/>
       <path id="CenturyGothic-29" d="M 894 -1331 
L 388 -1331 
Q 697 -703 880 134 
Q 1063 972 1063 1863 
Q 1063 2688 923 3453 
Q 784 4219 541 4800 
L 1022 4800 
Q 1256 4244 1392 3489 
Q 1528 2734 1528 1919 
Q 1528 1044 1365 211 
Q 1203 -622 894 -1331 
z
" transform="scale(0.015625)"/>
      </defs>
      <use xlink:href="#CenturyGothic-4d"/>
      <use xlink:href="#CenturyGothic-6f" transform="translate(91.894531 0)"/>
      <use xlink:href="#CenturyGothic-6e" transform="translate(157.373047 0)"/>
      <use xlink:href="#CenturyGothic-74" transform="translate(218.359375 0)"/>
      <use xlink:href="#CenturyGothic-68" transform="translate(252.246094 0)"/>
      <use xlink:href="#CenturyGothic-73" transform="translate(313.232422 0)"/>
      <use xlink:href="#CenturyGothic-20" transform="translate(352.050781 0)"/>
      <use xlink:href="#CenturyGothic-72" transform="translate(379.736328 0)"/>
      <use xlink:href="#CenturyGothic-65" transform="translate(409.814453 0)"/>
      <use xlink:href="#CenturyGothic-6c" transform="translate(474.804688 0)"/>
      <use xlink:href="#CenturyGothic-61" transform="translate(494.824219 0)"/>
      <use xlink:href="#CenturyGothic-74" transform="translate(563.134766 0)"/>
      <use xlink:href="#CenturyGothic-69" transform="translate(597.021484 0)"/>
      <use xlink:href="#CenturyGothic-76" transform="translate(617.041016 0)"/>
      <use xlink:href="#CenturyGothic-65" transform="translate(672.460938 0)"/>
      <use xlink:href="#CenturyGothic-20" transform="translate(737.451172 0)"/>
      <use xlink:href="#CenturyGothic-74" transform="translate(765.136719 0)"/>
      <use xlink:href="#CenturyGothic-6f" transform="translate(799.023438 0)"/>
      <use xlink:href="#CenturyGothic-20" transform="translate(864.501953 0)"/>
      <use xlink:href="#CenturyGothic-32" transform="translate(892.1875 0)"/>
      <use xlink:href="#CenturyGothic-30" transform="translate(947.607422 0)"/>
      <use xlink:href="#CenturyGothic-32" transform="translate(1003.027344 0)"/>
      <use xlink:href="#CenturyGothic-32" transform="translate(1058.447266 0)"/>
      <use xlink:href="#CenturyGothic-2d" transform="translate(1113.867188 0)"/>
      <use xlink:href="#CenturyGothic-30" transform="translate(1147.070312 0)"/>
      <use xlink:href="#CenturyGothic-39" transform="translate(1202.490234 0)"/>
      <use xlink:href="#CenturyGothic-20" transform="translate(1257.910156 0)"/>
      <use xlink:href="#CenturyGothic-28" transform="translate(1285.595703 0)"/>
      <use xlink:href="#CenturyGothic-62" transform="translate(1322.509766 0)"/>
      <use xlink:href="#CenturyGothic-61" transform="translate(1390.722656 0)"/>
      <use xlink:href="#CenturyGothic-73" transform="translate(1459.033203 0)"/>
      <use xlink:href="#CenturyGothic-65" transform="translate(1497.851562 0)"/>
      <use xlink:href="#CenturyGothic-6c" transform="translate(1562.841797 0)"/>
      <use xlink:href="#CenturyGothic-69" transform="translate(1582.861328 0)"/>
      <use xlink:href="#CenturyGothic-6e" transform="translate(1602.880859 0)"/>
      <use xlink:href="#CenturyGothic-65" transform="translate(1663.867188 0)"/>
      <use xlink:href="#CenturyGothic-20" transform="translate(1728.857422 0)"/>
      <use xlink:href="#CenturyGothic-3d" transform="translate(1756.542969 0)"/>
      <use xlink:href="#CenturyGothic-20" transform="translate(1817.138672 0)"/>
      <use xlink:href="#CenturyGothic-2d" transform="translate(1844.824219 0)"/>
      <use xlink:href="#CenturyGothic-31" transform="translate(1878.027344 0)"/>
      <use xlink:href="#CenturyGothic-29" transform="translate(1933.447266 0)"/>
     </g>
    </g>
   </g>
   <g id="matplotlib.axis_2">
    <g id="ytick_1">
     <g id="line2d_8">
      <path d="M 53.61 141.51291 
L 401.303622 141.51291 
" clip-path="url(#pb657b8ef21)" style="fill: none; stroke: #cccccc; stroke-linecap: square"/>
     </g>
     <g id="line2d_9">
      <defs>
       <path id="m356113c667" d="M 0 0 
L -3 0 
" style="stroke: #404040"/>
      </defs>
      <g>
       <use xlink:href="#m356113c667" x="53.61" y="141.51291" style="fill: #404040; stroke: #404040"/>
      </g>
     </g>
     <g id="text_9">
      <!-- −1000 -->
      <g style="fill: #4d4d4d" transform="translate(21.548594 144.826738) scale(0.09 -0.09)">
       <use xlink:href="#CenturyGothic-Bold-2212"/>
       <use xlink:href="#CenturyGothic-Bold-31" transform="translate(60.009766 0)"/>
       <use xlink:href="#CenturyGothic-Bold-30" transform="translate(116.015625 0)"/>
       <use xlink:href="#CenturyGothic-Bold-30" transform="translate(172.021484 0)"/>
       <use xlink:href="#CenturyGothic-Bold-30" transform="translate(228.027344 0)"/>
      </g>
     </g>
    </g>
    <g id="ytick_2">
     <g id="line2d_10">
      <path d="M 53.61 111.43827 
L 401.303622 111.43827 
" clip-path="url(#pb657b8ef21)" style="fill: none; stroke: #cccccc; stroke-linecap: square"/>
     </g>
     <g id="line2d_11">
      <g>
       <use xlink:href="#m356113c667" x="53.61" y="111.43827" style="fill: #404040; stroke: #404040"/>
      </g>
     </g>
     <g id="text_10">
      <!-- −500 -->
      <g style="fill: #4d4d4d" transform="translate(26.588594 114.752098) scale(0.09 -0.09)">
       <defs>
        <path id="CenturyGothic-Bold-35" d="M 1069 4597 
L 3222 4597 
L 3222 3791 
L 1722 3791 
L 1534 2953 
Q 1613 2975 1688 2986 
Q 1763 2997 1831 2997 
Q 2456 2997 2870 2570 
Q 3284 2144 3284 1478 
Q 3284 806 2826 345 
Q 2369 -116 1713 -116 
Q 1125 -116 703 218 
Q 281 553 150 1134 
L 1069 1134 
Q 1175 919 1348 808 
Q 1522 697 1731 697 
Q 2022 697 2225 906 
Q 2428 1116 2428 1444 
Q 2428 1763 2239 1967 
Q 2050 2172 1781 2172 
Q 1638 2172 1498 2100 
Q 1359 2028 1225 1884 
L 513 2044 
L 1069 4597 
z
" transform="scale(0.015625)"/>
       </defs>
       <use xlink:href="#CenturyGothic-Bold-2212"/>
       <use xlink:href="#CenturyGothic-Bold-35" transform="translate(60.009766 0)"/>
       <use xlink:href="#CenturyGothic-Bold-30" transform="translate(116.015625 0)"/>
       <use xlink:href="#CenturyGothic-Bold-30" transform="translate(172.021484 0)"/>
      </g>
     </g>
    </g>
    <g id="ytick_3">
     <g id="line2d_12">
      <path d="M 53.61 81.363629 
L 401.303622 81.363629 
" clip-path="url(#pb657b8ef21)" style="fill: none; stroke: #cccccc; stroke-linecap: square"/>
     </g>
     <g id="line2d_13">
      <g>
       <use xlink:href="#m356113c667" x="53.61" y="81.363629" style="fill: #404040; stroke: #404040"/>
      </g>
     </g>
     <g id="text_11">
      <!-- 0 -->
      <g style="fill: #4d4d4d" transform="translate(42.07 84.677458) scale(0.09 -0.09)">
       <use xlink:href="#CenturyGothic-Bold-30"/>
      </g>
     </g>
    </g>
    <g id="ytick_4">
     <g id="line2d_14">
      <path d="M 53.61 51.288989 
L 401.303622 51.288989 
" clip-path="url(#pb657b8ef21)" style="fill: none; stroke: #cccccc; stroke-linecap: square"/>
     </g>
     <g id="line2d_15">
      <g>
       <use xlink:href="#m356113c667" x="53.61" y="51.288989" style="fill: #404040; stroke: #404040"/>
      </g>
     </g>
     <g id="text_12">
      <!-- 500 -->
      <g style="fill: #4d4d4d" transform="translate(31.99 54.602817) scale(0.09 -0.09)">
       <use xlink:href="#CenturyGothic-Bold-35"/>
       <use xlink:href="#CenturyGothic-Bold-30" transform="translate(56.005859 0)"/>
       <use xlink:href="#CenturyGothic-Bold-30" transform="translate(112.011719 0)"/>
      </g>
     </g>
    </g>
    <g id="ytick_5">
     <g id="line2d_16">
      <path d="M 53.61 21.214348 
L 401.303622 21.214348 
" clip-path="url(#pb657b8ef21)" style="fill: none; stroke: #cccccc; stroke-linecap: square"/>
     </g>
     <g id="line2d_17">
      <g>
       <use xlink:href="#m356113c667" x="53.61" y="21.214348" style="fill: #404040; stroke: #404040"/>
      </g>
     </g>
     <g id="text_13">
      <!-- 1000 -->
      <g style="fill: #4d4d4d" transform="translate(26.95 24.528177) scale(0.09 -0.09)">
       <use xlink:href="#CenturyGothic-Bold-31"/>
       <use xlink:href="#CenturyGothic-Bold-30" transform="translate(56.005859 0)"/>
       <use xlink:href="#CenturyGothic-Bold-30" transform="translate(112.011719 0)"/>
       <use xlink:href="#CenturyGothic-Bold-30" transform="translate(168.017578 0)"/>
      </g>
     </g>
    </g>
    <g id="text_14">
     <!-- Effect on contracts -->
     <g transform="translate(15.799219 131.10614) rotate(-90) scale(0.09 -0.09)">
      <defs>
       <path id="CenturyGothic-45" d="M 563 4597 
L 3197 4597 
L 3197 4144 
L 1022 4144 
L 1022 2706 
L 3178 2706 
L 3178 2256 
L 1022 2256 
L 1022 453 
L 3178 453 
L 3178 0 
L 563 0 
L 563 4597 
z
" transform="scale(0.015625)"/>
       <path id="CenturyGothic-66" d="M 1888 4713 
L 1888 4284 
Q 1647 4388 1475 4388 
Q 1347 4388 1262 4336 
Q 1178 4284 1156 4217 
Q 1134 4150 1134 3859 
L 1134 3400 
L 1844 3400 
L 1844 3025 
L 1131 3025 
L 1131 0 
L 694 0 
L 694 3025 
L 247 3025 
L 247 3400 
L 694 3400 
L 694 3931 
Q 694 4297 761 4453 
Q 828 4609 989 4704 
Q 1150 4800 1378 4800 
Q 1591 4800 1888 4713 
z
" transform="scale(0.015625)"/>
       <path id="CenturyGothic-63" d="M 3788 2694 
L 3441 2478 
Q 2991 3075 2213 3075 
Q 1591 3075 1180 2675 
Q 769 2275 769 1703 
Q 769 1331 958 1003 
Q 1147 675 1476 494 
Q 1806 313 2216 313 
Q 2966 313 3441 909 
L 3788 681 
Q 3544 316 3133 114 
Q 2722 -88 2197 -88 
Q 1391 -88 859 425 
Q 328 938 328 1672 
Q 328 2166 576 2589 
Q 825 3013 1259 3250 
Q 1694 3488 2231 3488 
Q 2569 3488 2883 3384 
Q 3197 3281 3415 3115 
Q 3634 2950 3788 2694 
z
" transform="scale(0.015625)"/>
      </defs>
      <use xlink:href="#CenturyGothic-45"/>
      <use xlink:href="#CenturyGothic-66" transform="translate(53.613281 0)"/>
      <use xlink:href="#CenturyGothic-66" transform="translate(85.009766 0)"/>
      <use xlink:href="#CenturyGothic-65" transform="translate(116.40625 0)"/>
      <use xlink:href="#CenturyGothic-63" transform="translate(181.396484 0)"/>
      <use xlink:href="#CenturyGothic-74" transform="translate(246.09375 0)"/>
      <use xlink:href="#CenturyGothic-20" transform="translate(279.980469 0)"/>
      <use xlink:href="#CenturyGothic-6f" transform="translate(307.666016 0)"/>
      <use xlink:href="#CenturyGothic-6e" transform="translate(373.144531 0)"/>
      <use xlink:href="#CenturyGothic-20" transform="translate(434.130859 0)"/>
      <use xlink:href="#CenturyGothic-63" transform="translate(461.816406 0)"/>
      <use xlink:href="#CenturyGothic-6f" transform="translate(526.513672 0)"/>
      <use xlink:href="#CenturyGothic-6e" transform="translate(591.992188 0)"/>
      <use xlink:href="#CenturyGothic-74" transform="translate(652.978516 0)"/>
      <use xlink:href="#CenturyGothic-72" transform="translate(686.865234 0)"/>
      <use xlink:href="#CenturyGothic-61" transform="translate(716.943359 0)"/>
      <use xlink:href="#CenturyGothic-63" transform="translate(785.253906 0)"/>
      <use xlink:href="#CenturyGothic-74" transform="translate(849.951172 0)"/>
      <use xlink:href="#CenturyGothic-73" transform="translate(883.837891 0)"/>
     </g>
    </g>
   </g>
   <g id="line2d_18">
    <path d="M 53.61 81.363629 
L 401.303622 81.363629 
" clip-path="url(#pb657b8ef21)" style="fill: none; stroke: #404040; stroke-width: 0.9; stroke-linecap: square"/>
   </g>
   <g id="line2d_19">
    <path d="M 168.828121 169.451811 
L 168.828121 9.72 
" clip-path="url(#pb657b8ef21)" style="fill: none; stroke-dasharray: 3.7,1.6; stroke-dashoffset: 0; stroke: #404040"/>
   </g>
   <g id="line2d_20">
    <path d="M 69.414256 99.410537 
L 74.512402 86.395035 
L 79.610549 87.079435 
L 84.708696 84.657889 
L 89.806843 86.920728 
L 94.90499 89.907576 
L 100.003137 106.312121 
L 105.101284 109.295984 
L 110.199431 97.486572 
L 115.297578 89.64869 
L 120.395725 106.796001 
L 125.493872 93.896679 
L 130.592019 96.429048 
L 135.690166 70.828904 
L 140.788313 61.238417 
L 145.88646 69.592631 
L 150.984607 73.869119 
L 156.082754 74.313939 
L 161.180901 77.471821 
L 166.279048 81.363629 
L 171.377195 61.467852 
L 176.475342 55.239715 
L 181.573488 58.164973 
L 186.671635 57.859283 
L 191.769782 61.502495 
L 196.867929 50.043004 
L 201.966076 60.853211 
L 207.064223 56.152122 
L 212.16237 62.485643 
L 217.260517 60.215362 
L 222.358664 64.663402 
L 227.456811 74.595305 
L 232.554958 58.793136 
L 237.653105 53.026885 
L 242.751252 46.271097 
L 247.849399 56.497309 
L 252.947546 63.048486 
L 258.045693 54.181896 
L 263.14384 51.465908 
L 268.241987 56.185244 
L 273.340134 60.169971 
L 278.438281 56.663779 
L 283.536427 67.489191 
L 288.634574 69.910273 
L 293.732721 54.79062 
L 298.830868 62.333444 
L 303.929015 59.926692 
L 309.027162 58.13277 
L 314.125309 64.521944 
L 319.223456 55.508678 
L 324.321603 56.58308 
L 329.41975 55.595382 
L 334.517897 63.506266 
L 339.616044 63.665045 
L 344.714191 81.42137 
L 349.812338 74.143659 
L 354.910485 61.374648 
L 360.008632 62.389051 
L 365.106779 63.886212 
L 370.204926 64.982534 
L 375.303073 72.1491 
L 380.40122 62.46698 
L 385.499366 65.937636 
" clip-path="url(#pb657b8ef21)" style="fill: none; stroke: #83082a; stroke-width: 1.6; stroke-linecap: square"/>
    <defs>
     <path id="m6d79fa0269" d="M 0 1.6 
C 0.424325 1.6 0.831328 1.431414 1.131371 1.131371 
C 1.431414 0.831328 1.6 0.424325 1.6 0 
C 1.6 -0.424325 1.431414 -0.831328 1.131371 -1.131371 
C 0.831328 -1.431414 0.424325 -1.6 0 -1.6 
C -0.424325 -1.6 -0.831328 -1.431414 -1.131371 -1.131371 
C -1.431414 -0.831328 -1.6 -0.424325 -1.6 0 
C -1.6 0.424325 -1.431414 0.831328 -1.131371 1.131371 
C -0.831328 1.431414 -0.424325 1.6 0 1.6 
z
" style="stroke: #83082a"/>
    </defs>
    <g clip-path="url(#pb657b8ef21)">
     <use xlink:href="#m6d79fa0269" x="69.414256" y="99.410537" style="fill: #83082a; stroke: #83082a"/>
     <use xlink:href="#m6d79fa0269" x="74.512402" y="86.395035" style="fill: #83082a; stroke: #83082a"/>
     <use xlink:href="#m6d79fa0269" x="79.610549" y="87.079435" style="fill: #83082a; stroke: #83082a"/>
     <use xlink:href="#m6d79fa0269" x="84.708696" y="84.657889" style="fill: #83082a; stroke: #83082a"/>
     <use xlink:href="#m6d79fa0269" x="89.806843" y="86.920728" style="fill: #83082a; stroke: #83082a"/>
     <use xlink:href="#m6d79fa0269" x="94.90499" y="89.907576" style="fill: #83082a; stroke: #83082a"/>
     <use xlink:href="#m6d79fa0269" x="100.003137" y="106.312121" style="fill: #83082a; stroke: #83082a"/>
     <use xlink:href="#m6d79fa0269" x="105.101284" y="109.295984" style="fill: #83082a; stroke: #83082a"/>
     <use xlink:href="#m6d79fa0269" x="110.199431" y="97.486572" style="fill: #83082a; stroke: #83082a"/>
     <use xlink:href="#m6d79fa0269" x="115.297578" y="89.64869" style="fill: #83082a; stroke: #83082a"/>
     <use xlink:href="#m6d79fa0269" x="120.395725" y="106.796001" style="fill: #83082a; stroke: #83082a"/>
     <use xlink:href="#m6d79fa0269" x="125.493872" y="93.896679" style="fill: #83082a; stroke: #83082a"/>
     <use xlink:href="#m6d79fa0269" x="130.592019" y="96.429048" style="fill: #83082a; stroke: #83082a"/>
     <use xlink:href="#m6d79fa0269" x="135.690166" y="70.828904" style="fill: #83082a; stroke: #83082a"/>
     <use xlink:href="#m6d79fa0269" x="140.788313" y="61.238417" style="fill: #83082a; stroke: #83082a"/>
     <use xlink:href="#m6d79fa0269" x="145.88646" y="69.592631" style="fill: #83082a; stroke: #83082a"/>
     <use xlink:href="#m6d79fa0269" x="150.984607" y="73.869119" style="fill: #83082a; stroke: #83082a"/>
     <use xlink:href="#m6d79fa0269" x="156.082754" y="74.313939" style="fill: #83082a; stroke: #83082a"/>
     <use xlink:href="#m6d79fa0269" x="161.180901" y="77.471821" style="fill: #83082a; stroke: #83082a"/>
     <use xlink:href="#m6d79fa0269" x="166.279048" y="81.363629" style="fill: #83082a; stroke: #83082a"/>
     <use xlink:href="#m6d79fa0269" x="171.377195" y="61.467852" style="fill: #83082a; stroke: #83082a"/>
     <use xlink:href="#m6d79fa0269" x="176.475342" y="55.239715" style="fill: #83082a; stroke: #83082a"/>
     <use xlink:href="#m6d79fa0269" x="181.573488" y="58.164973" style="fill: #83082a; stroke: #83082a"/>
     <use xlink:href="#m6d79fa0269" x="186.671635" y="57.859283" style="fill: #83082a; stroke: #83082a"/>
     <use xlink:href="#m6d79fa0269" x="191.769782" y="61.502495" style="fill: #83082a; stroke: #83082a"/>
     <use xlink:href="#m6d79fa0269" x="196.867929" y="50.043004" style="fill: #83082a; stroke: #83082a"/>
     <use xlink:href="#m6d79fa0269" x="201.966076" y="60.853211" style="fill: #83082a; stroke: #83082a"/>
     <use xlink:href="#m6d79fa0269" x="207.064223" y="56.152122" style="fill: #83082a; stroke: #83082a"/>
     <use xlink:href="#m6d79fa0269" x="212.16237" y="62.485643" style="fill: #83082a; stroke: #83082a"/>
     <use xlink:href="#m6d79fa0269" x="217.260517" y="60.215362" style="fill: #83082a; stroke: #83082a"/>
     <use xlink:href="#m6d79fa0269" x="222.358664" y="64.663402" style="fill: #83082a; stroke: #83082a"/>
     <use xlink:href="#m6d79fa0269" x="227.456811" y="74.595305" style="fill: #83082a; stroke: #83082a"/>
     <use xlink:href="#m6d79fa0269" x="232.554958" y="58.793136" style="fill: #83082a; stroke: #83082a"/>
     <use xlink:href="#m6d79fa0269" x="237.653105" y="53.026885" style="fill: #83082a; stroke: #83082a"/>
     <use xlink:href="#m6d79fa0269" x="242.751252" y="46.271097" style="fill: #83082a; stroke: #83082a"/>
     <use xlink:href="#m6d79fa0269" x="247.849399" y="56.497309" style="fill: #83082a; stroke: #83082a"/>
     <use xlink:href="#m6d79fa0269" x="252.947546" y="63.048486" style="fill: #83082a; stroke: #83082a"/>
     <use xlink:href="#m6d79fa0269" x="258.045693" y="54.181896" style="fill: #83082a; stroke: #83082a"/>
     <use xlink:href="#m6d79fa0269" x="263.14384" y="51.465908" style="fill: #83082a; stroke: #83082a"/>
     <use xlink:href="#m6d79fa0269" x="268.241987" y="56.185244" style="fill: #83082a; stroke: #83082a"/>
     <use xlink:href="#m6d79fa0269" x="273.340134" y="60.169971" style="fill: #83082a; stroke: #83082a"/>
     <use xlink:href="#m6d79fa0269" x="278.438281" y="56.663779" style="fill: #83082a; stroke: #83082a"/>
     <use xlink:href="#m6d79fa0269" x="283.536427" y="67.489191" style="fill: #83082a; stroke: #83082a"/>
     <use xlink:href="#m6d79fa0269" x="288.634574" y="69.910273" style="fill: #83082a; stroke: #83082a"/>
     <use xlink:href="#m6d79fa0269" x="293.732721" y="54.79062" style="fill: #83082a; stroke: #83082a"/>
     <use xlink:href="#m6d79fa0269" x="298.830868" y="62.333444" style="fill: #83082a; stroke: #83082a"/>
     <use xlink:href="#m6d79fa0269" x="303.929015" y="59.926692" style="fill: #83082a; stroke: #83082a"/>
     <use xlink:href="#m6d79fa0269" x="309.027162" y="58.13277" style="fill: #83082a; stroke: #83082a"/>
     <use xlink:href="#m6d79fa0269" x="314.125309" y="64.521944" style="fill: #83082a; stroke: #83082a"/>
     <use xlink:href="#m6d79fa0269" x="319.223456" y="55.508678" style="fill: #83082a; stroke: #83082a"/>
     <use xlink:href="#m6d79fa0269" x="324.321603" y="56.58308" style="fill: #83082a; stroke: #83082a"/>
     <use xlink:href="#m6d79fa0269" x="329.41975" y="55.595382" style="fill: #83082a; stroke: #83082a"/>
     <use xlink:href="#m6d79fa0269" x="334.517897" y="63.506266" style="fill: #83082a; stroke: #83082a"/>
     <use xlink:href="#m6d79fa0269" x="339.616044" y="63.665045" style="fill: #83082a; stroke: #83082a"/>
     <use xlink:href="#m6d79fa0269" x="344.714191" y="81.42137" style="fill: #83082a; stroke: #83082a"/>
     <use xlink:href="#m6d79fa0269" x="349.812338" y="74.143659" style="fill: #83082a; stroke: #83082a"/>
     <use xlink:href="#m6d79fa0269" x="354.910485" y="61.374648" style="fill: #83082a; stroke: #83082a"/>
     <use xlink:href="#m6d79fa0269" x="360.008632" y="62.389051" style="fill: #83082a; stroke: #83082a"/>
     <use xlink:href="#m6d79fa0269" x="365.106779" y="63.886212" style="fill: #83082a; stroke: #83082a"/>
     <use xlink:href="#m6d79fa0269" x="370.204926" y="64.982534" style="fill: #83082a; stroke: #83082a"/>
     <use xlink:href="#m6d79fa0269" x="375.303073" y="72.1491" style="fill: #83082a; stroke: #83082a"/>
     <use xlink:href="#m6d79fa0269" x="380.40122" y="62.46698" style="fill: #83082a; stroke: #83082a"/>
     <use xlink:href="#m6d79fa0269" x="385.499366" y="65.937636" style="fill: #83082a; stroke: #83082a"/>
    </g>
   </g>
   <g id="patch_3">
    <path d="M 53.61 169.451811 
L 53.61 9.72 
" style="fill: none; stroke: #404040; stroke-linejoin: miter; stroke-linecap: square"/>
   </g>
   <g id="patch_4">
    <path d="M 53.61 169.451811 
L 401.303622 169.451811 
" style="fill: none; stroke: #404040; stroke-linejoin: miter; stroke-linecap: square"/>
   </g>
  </g>
 </g>
 <defs>
  <clipPath id="pb657b8ef21">
   <rect x="53.61" y="9.72" width="347.693622" height="159.731811"/>
  </clipPath>
 </defs>
</svg>
