<?xml version="1.0" encoding="utf-8" standalone="no"?>
<!DOCTYPE svg PUBLIC "-//W3C//DTD SVG 1.1//EN"
  "http://www.w3.org/Graphics/SVG/1.1/DTD/svg11.dtd">
<svg xmlns:xlink="http://www.w3.org/1999/xlink" width="411.023622pt" height="205.511811pt" viewBox="0 0 411.023622 205.511811" xmlns="http://www.w3.org/2000/svg" version="1.1">
 <metadata>
  <rdf:RDF xmlns:dc="http://purl.org/dc/elements/1.1/" xmlns:cc="http://creativecommons.org/ns#" xmlns:rdf="http://www.w3.org/1999/02/22-rdf-syntax-ns#">
   <cc:Work>
    <dc:type rdf:resource="http://purl.org/dc/dcmitype/StillImage"/>
    <dc:date>2026-06-04T09:42:08.342131</dc:date>
    <dc:format>image/svg+xml</dc:format>
    <dc:creator>
     <cc:Agent>
      <dc:title>Matplotlib v3.10.8, https://matplotlib.org/</dc:title>
     </cc:Agent>
    </dc:creator>
   </cc:Work>
  </rdf:RDF>
 </metadata>
 <defs>
  <style type="text/css">*{stroke-linejoin: round; stroke-linecap: butt}</style>
 </defs>
 <g id="figure_1">
  <g id="patch_1">
   <path d="M 0 205.511811 
L 411.023622 205.511811 
L 411.023622 0 
L 0 0 
z
" style="fill: #ffffff"/>
  </g>
  <g id="axes_1">
   <g id="patch_2">
    <path d="M 46.05 169.451811 
L 401.303622 169.451811 
L 401.303622 9.72 
L 46.05 9.72 
z
" style="fill: #ffffff"/>
   </g>
   <g id="FillBetweenPolyCollection_1">
    <defs>
     <path id="me32c711bfd" d="M 62.197892 -83.492704 
L 62.197892 -43.320537 
L 67.406889 -43.551095 
L 72.615887 -48.107081 
L 77.824884 -47.366585 
L 83.033881 -47.642632 
L 88.242879 -55.607615 
L 93.451876 -68.215037 
L 98.660874 -72.0824 
L 103.869871 -67.120269 
L 109.078868 -57.48594 
L 114.287866 -56.074284 
L 119.496863 -48.712826 
L 124.705861 -53.91894 
L 129.914858 -54.194661 
L 135.123855 -50.999085 
L 140.332853 -52.653005 
L 145.54185 -52.44422 
L 150.750848 -61.61478 
L 155.959845 -78.645657 
L 161.168842 -86.200509 
L 166.37784 -73.131769 
L 171.586837 -72.540226 
L 176.795835 -70.234119 
L 182.004832 -71.494365 
L 187.213829 -69.787478 
L 192.422827 -72.610528 
L 197.631824 -75.111912 
L 202.840821 -77.487537 
L 208.049819 -79.974854 
L 213.258816 -86.393558 
L 218.467814 -98.361082 
L 223.676811 -101.475726 
L 228.885808 -96.600867 
L 234.094806 -91.681685 
L 239.303803 -88.753184 
L 244.512801 -88.636741 
L 249.721798 -82.962215 
L 254.930795 -78.689687 
L 260.139793 -79.408221 
L 265.34879 -78.556971 
L 270.557788 -79.584065 
L 275.766785 -83.164973 
L 280.975782 -93.081283 
L 286.18478 -95.708637 
L 291.393777 -88.613221 
L 296.602774 -84.668893 
L 301.811772 -86.859604 
L 307.020769 -85.722931 
L 312.229767 -84.567045 
L 317.438764 -89.782119 
L 322.647761 -90.545643 
L 327.856759 -91.170122 
L 333.065756 -93.763558 
L 338.274754 -100.322784 
L 343.483751 -111.60248 
L 348.692748 -113.155704 
L 353.901746 -111.279455 
L 359.110743 -101.649232 
L 364.319741 -102.31473 
L 369.528738 -98.305791 
L 374.737735 -101.060808 
L 379.946733 -105.12337 
L 385.15573 -113.649616 
L 385.15573 -188.531274 
L 385.15573 -188.531274 
L 379.946733 -178.435429 
L 374.737735 -171.942031 
L 369.528738 -167.956703 
L 364.319741 -172.827675 
L 359.110743 -171.260727 
L 353.901746 -177.338898 
L 348.692748 -177.724511 
L 343.483751 -175.283284 
L 338.274754 -165.002973 
L 333.065756 -158.755263 
L 327.856759 -154.965905 
L 322.647761 -153.794408 
L 317.438764 -151.689897 
L 312.229767 -146.014351 
L 307.020769 -146.189627 
L 301.811772 -147.835847 
L 296.602774 -144.523146 
L 291.393777 -144.622582 
L 286.18478 -148.040421 
L 280.975782 -143.619923 
L 275.766785 -132.917726 
L 270.557788 -130.611108 
L 265.34879 -128.835604 
L 260.139793 -126.34572 
L 254.930795 -123.378266 
L 249.721798 -123.349333 
L 244.512801 -124.102943 
L 239.303803 -124.316935 
L 234.094806 -123.908294 
L 228.885808 -126.332767 
L 223.676811 -128.854407 
L 218.467814 -125.68244 
L 213.258816 -114.659774 
L 208.049819 -108.621125 
L 202.840821 -103.577235 
L 197.631824 -100.730592 
L 192.422827 -98.004517 
L 187.213829 -92.551363 
L 182.004832 -91.136775 
L 176.795835 -89.209893 
L 171.586837 -89.975635 
L 166.37784 -86.916939 
L 161.168842 -86.200509 
L 155.959845 -86.617807 
L 150.750848 -78.925972 
L 145.54185 -74.382843 
L 140.332853 -72.768097 
L 135.123855 -72.315104 
L 129.914858 -76.873963 
L 124.705861 -76.133536 
L 119.496863 -73.193203 
L 114.287866 -82.932301 
L 109.078868 -84.819012 
L 103.869871 -94.470137 
L 98.660874 -98.474397 
L 93.451876 -94.155589 
L 88.242879 -89.365552 
L 83.033881 -83.626113 
L 77.824884 -84.736605 
L 72.615887 -87.314372 
L 67.406889 -84.300894 
L 62.197892 -83.492704 
z
"/>
    </defs>
    <g clip-path="url(#pb5837aa59f)">
     <use xlink:href="#me32c711bfd" x="0" y="205.511811" style="fill: #e397a0; fill-opacity: 0.55"/>
    </g>
   </g>
   <g id="matplotlib.axis_1">
    <g id="xtick_1">
     <g id="line2d_1">
      <defs>
       <path id="ma565c50672" d="M 0 0 
L 0 3 
" style="stroke: #404040"/>
      </defs>
      <g>
       <use xlink:href="#ma565c50672" x="62.197892" y="169.451811" style="fill: #404040; stroke: #404040"/>
      </g>
     </g>
     <g id="text_1">
      <!-- −20 -->
      <g style="fill: #4d4d4d" transform="translate(54.457189 182.579467) scale(0.09 -0.09)">
       <defs>
        <path id="CenturyGothic-Bold-2212" d="M 359 2688 
L 3481 2688 
L 3481 1906 
L 359 1906 
L 359 2688 
z
" transform="scale(0.015625)"/>
        <path id="CenturyGothic-Bold-32" d="M 1116 3116 
L 263 3116 
Q 297 3859 730 4286 
Q 1163 4713 1841 4713 
Q 2259 4713 2579 4536 
Q 2900 4359 3092 4026 
Q 3284 3694 3284 3350 
Q 3284 2941 3051 2469 
Q 2819 1997 2200 1353 
L 1684 809 
L 3322 809 
L 3322 0 
L 138 0 
L 138 419 
L 1559 1869 
Q 2075 2391 2245 2708 
Q 2416 3025 2416 3281 
Q 2416 3547 2239 3720 
Q 2063 3894 1784 3894 
Q 1503 3894 1315 3684 
Q 1128 3475 1116 3116 
z
" transform="scale(0.015625)"/>
        <path id="CenturyGothic-Bold-30" d="M 1778 4713 
Q 2281 4713 2645 4466 
Q 3009 4219 3207 3711 
Q 3406 3203 3406 2297 
Q 3406 1381 3204 872 
Q 3003 363 2662 123 
Q 2322 -116 1803 -116 
Q 1284 -116 931 125 
Q 578 366 378 856 
Q 178 1347 178 2253 
Q 178 3519 569 4088 
Q 1003 4713 1778 4713 
z
M 1800 3881 
Q 1578 3881 1406 3739 
Q 1234 3597 1143 3250 
Q 1053 2903 1053 2234 
Q 1053 1363 1261 1030 
Q 1469 697 1800 697 
Q 2119 697 2306 1013 
Q 2534 1394 2534 2288 
Q 2534 3194 2329 3537 
Q 2125 3881 1800 3881 
z
" transform="scale(0.015625)"/>
       </defs>
       <use xlink:href="#CenturyGothic-Bold-2212"/>
       <use xlink:href="#CenturyGothic-Bold-32" transform="translate(60.009766 0)"/>
       <use xlink:href="#CenturyGothic-Bold-30" transform="translate(116.015625 0)"/>
      </g>
     </g>
    </g>
    <g id="xtick_2">
     <g id="line2d_2">
      <g>
       <use xlink:href="#ma565c50672" x="114.287866" y="169.451811" style="fill: #404040; stroke: #404040"/>
      </g>
     </g>
     <g id="text_2">
      <!-- −10 -->
      <g style="fill: #4d4d4d" transform="translate(106.547163 182.579467) scale(0.09 -0.09)">
       <defs>
        <path id="CenturyGothic-Bold-31" d="M 1053 4597 
L 2363 4597 
L 2363 0 
L 1494 0 
L 1494 3775 
L 547 3775 
L 1053 4597 
z
" transform="scale(0.015625)"/>
       </defs>
       <use xlink:href="#CenturyGothic-Bold-2212"/>
       <use xlink:href="#CenturyGothic-Bold-31" transform="translate(60.009766 0)"/>
       <use xlink:href="#CenturyGothic-Bold-30" transform="translate(116.015625 0)"/>
      </g>
     </g>
    </g>
    <g id="xtick_3">
     <g id="line2d_3">
      <g>
       <use xlink:href="#ma565c50672" x="166.37784" y="169.451811" style="fill: #404040; stroke: #404040"/>
      </g>
     </g>
     <g id="text_3">
      <!-- 0 -->
      <g style="fill: #4d4d4d" transform="translate(163.85784 182.579467) scale(0.09 -0.09)">
       <use xlink:href="#CenturyGothic-Bold-30"/>
      </g>
     </g>
    </g>
    <g id="xtick_4">
     <g id="line2d_4">
      <g>
       <use xlink:href="#ma565c50672" x="218.467814" y="169.451811" style="fill: #404040; stroke: #404040"/>
      </g>
     </g>
     <g id="text_4">
      <!-- 10 -->
      <g style="fill: #4d4d4d" transform="translate(213.427814 182.579467) scale(0.09 -0.09)">
       <use xlink:href="#CenturyGothic-Bold-31"/>
       <use xlink:href="#CenturyGothic-Bold-30" transform="translate(56.005859 0)"/>
      </g>
     </g>
    </g>
    <g id="xtick_5">
     <g id="line2d_5">
      <g>
       <use xlink:href="#ma565c50672" x="270.557788" y="169.451811" style="fill: #404040; stroke: #404040"/>
      </g>
     </g>
     <g id="text_5">
      <!-- 20 -->
      <g style="fill: #4d4d4d" transform="translate(265.517788 182.579467) scale(0.09 -0.09)">
       <use xlink:href="#CenturyGothic-Bold-32"/>
       <use xlink:href="#CenturyGothic-Bold-30" transform="translate(56.005859 0)"/>
      </g>
     </g>
    </g>
    <g id="xtick_6">
     <g id="line2d_6">
      <g>
       <use xlink:href="#ma565c50672" x="322.647761" y="169.451811" style="fill: #404040; stroke: #404040"/>
      </g>
     </g>
     <g id="text_6">
      <!-- 30 -->
      <g style="fill: #4d4d4d" transform="translate(317.607761 182.579467) scale(0.09 -0.09)">
       <defs>
        <path id="CenturyGothic-Bold-33" d="M 1216 3463 
L 375 3463 
Q 441 3972 741 4281 
Q 1159 4713 1794 4713 
Q 2359 4713 2742 4353 
Q 3125 3994 3125 3500 
Q 3125 3194 2958 2941 
Q 2791 2688 2472 2531 
Q 2891 2406 3127 2095 
Q 3363 1784 3363 1363 
Q 3363 744 2906 314 
Q 2450 -116 1744 -116 
Q 1075 -116 653 289 
Q 231 694 191 1391 
L 1056 1391 
Q 1113 1034 1305 861 
Q 1497 688 1791 688 
Q 2097 688 2298 884 
Q 2500 1081 2500 1366 
Q 2500 1678 2228 1893 
Q 1956 2109 1444 2116 
L 1444 2866 
Q 1759 2891 1914 2964 
Q 2069 3038 2155 3166 
Q 2241 3294 2241 3438 
Q 2241 3625 2109 3748 
Q 1978 3872 1766 3872 
Q 1578 3872 1425 3758 
Q 1272 3644 1216 3463 
z
" transform="scale(0.015625)"/>
       </defs>
       <use xlink:href="#CenturyGothic-Bold-33"/>
       <use xlink:href="#CenturyGothic-Bold-30" transform="translate(56.005859 0)"/>
      </g>
     </g>
    </g>
    <g id="xtick_7">
     <g id="line2d_7">
      <g>
       <use xlink:href="#ma565c50672" x="374.737735" y="169.451811" style="fill: #404040; stroke: #404040"/>
      </g>
     </g>
     <g id="text_7">
      <!-- 40 -->
      <g style="fill: #4d4d4d" transform="translate(369.697735 182.579467) scale(0.09 -0.09)">
       <defs>
        <path id="CenturyGothic-Bold-34" d="M 2119 4713 
L 2994 4713 
L 2994 1753 
L 3403 1753 
L 3403 944 
L 2994 944 
L 2994 0 
L 2138 0 
L 2138 944 
L 131 944 
L 131 1753 
L 2119 4713 
z
M 2138 1753 
L 2138 3294 
L 1088 1753 
L 2138 1753 
z
" transform="scale(0.015625)"/>
       </defs>
       <use xlink:href="#CenturyGothic-Bold-34"/>
       <use xlink:href="#CenturyGothic-Bold-30" transform="translate(56.005859 0)"/>
      </g>
     </g>
    </g>
    <g id="text_8">
     <!-- Months relative to 2022-09 (baseline = -1) -->
     <g transform="translate(135.009936 195.078842) scale(0.09 -0.09)">
      <defs>
       <path id="CenturyGothic-4d" d="M 350 0 
L 1003 4597 
L 1078 4597 
L 2947 825 
L 4797 4597 
L 4872 4597 
L 5531 0 
L 5078 0 
L 4628 3288 
L 3003 0 
L 2888 0 
L 1241 3313 
L 794 0 
L 350 0 
z
" transform="scale(0.015625)"/>
       <path id="CenturyGothic-6f" d="M 2097 3488 
Q 2881 3488 3397 2919 
Q 3866 2400 3866 1691 
Q 3866 978 3370 445 
Q 2875 -88 2097 -88 
Q 1316 -88 820 445 
Q 325 978 325 1691 
Q 325 2397 794 2916 
Q 1309 3488 2097 3488 
z
M 2097 3059 
Q 1553 3059 1162 2656 
Q 772 2253 772 1681 
Q 772 1313 950 994 
Q 1128 675 1431 501 
Q 1734 328 2097 328 
Q 2459 328 2762 501 
Q 3066 675 3244 994 
Q 3422 1313 3422 1681 
Q 3422 2253 3030 2656 
Q 2638 3059 2097 3059 
z
" transform="scale(0.015625)"/>
       <path id="CenturyGothic-6e" d="M 488 3400 
L 925 3400 
L 925 2791 
Q 1188 3141 1506 3314 
Q 1825 3488 2200 3488 
Q 2581 3488 2876 3294 
Q 3172 3100 3312 2772 
Q 3453 2444 3453 1750 
L 3453 0 
L 3019 0 
L 3019 1622 
Q 3019 2209 2969 2406 
Q 2891 2744 2675 2914 
Q 2459 3084 2113 3084 
Q 1716 3084 1402 2821 
Q 1088 2559 988 2172 
Q 925 1919 925 1247 
L 925 0 
L 488 0 
L 488 3400 
z
" transform="scale(0.015625)"/>
       <path id="CenturyGothic-74" d="M 869 4663 
L 1309 4663 
L 1309 3400 
L 2003 3400 
L 2003 3025 
L 1309 3025 
L 1309 0 
L 869 0 
L 869 3025 
L 272 3025 
L 272 3400 
L 869 3400 
L 869 4663 
z
" transform="scale(0.015625)"/>
       <path id="CenturyGothic-68" d="M 488 4713 
L 925 4713 
L 925 2791 
Q 1191 3141 1509 3314 
Q 1828 3488 2200 3488 
Q 2581 3488 2876 3294 
Q 3172 3100 3312 2773 
Q 3453 2447 3453 1750 
L 3453 0 
L 3016 0 
L 3016 1622 
Q 3016 2209 2969 2406 
Q 2888 2744 2673 2914 
Q 2459 3084 2113 3084 
Q 1716 3084 1402 2821 
Q 1088 2559 988 2172 
Q 925 1922 925 1247 
L 925 0 
L 488 0 
L 488 4713 
z
" transform="scale(0.015625)"/>
       <path id="CenturyGothic-73" d="M 2197 3028 
L 1916 2738 
Q 1566 3078 1231 3078 
Q 1019 3078 867 2937 
Q 716 2797 716 2609 
Q 716 2444 841 2294 
Q 966 2141 1366 1934 
Q 1853 1681 2028 1447 
Q 2200 1209 2200 913 
Q 2200 494 1906 203 
Q 1613 -88 1172 -88 
Q 878 -88 611 40 
Q 344 169 169 394 
L 444 706 
Q 778 328 1153 328 
Q 1416 328 1600 497 
Q 1784 666 1784 894 
Q 1784 1081 1663 1228 
Q 1541 1372 1113 1591 
Q 653 1828 488 2059 
Q 322 2291 322 2588 
Q 322 2975 586 3231 
Q 850 3488 1253 3488 
Q 1722 3488 2197 3028 
z
" transform="scale(0.015625)"/>
       <path id="CenturyGothic-20" transform="scale(0.015625)"/>
       <path id="CenturyGothic-72" d="M 322 3400 
L 769 3400 
L 769 2903 
Q 969 3197 1191 3342 
Q 1413 3488 1653 3488 
Q 1834 3488 2041 3372 
L 1813 3003 
Q 1675 3063 1581 3063 
Q 1363 3063 1159 2883 
Q 956 2703 850 2325 
Q 769 2034 769 1150 
L 769 0 
L 322 0 
L 322 3400 
z
" transform="scale(0.015625)"/>
       <path id="CenturyGothic-65" d="M 3350 1128 
L 3719 934 
Q 3538 578 3300 359 
Q 3063 141 2766 26 
Q 2469 -88 2094 -88 
Q 1263 -88 794 457 
Q 325 1003 325 1691 
Q 325 2338 722 2844 
Q 1225 3488 2069 3488 
Q 2938 3488 3456 2828 
Q 3825 2363 3831 1666 
L 775 1666 
Q 788 1072 1153 692 
Q 1519 313 2056 313 
Q 2316 313 2561 403 
Q 2806 494 2978 644 
Q 3150 794 3350 1128 
z
M 3350 2044 
Q 3263 2394 3095 2603 
Q 2928 2813 2653 2941 
Q 2378 3069 2075 3069 
Q 1575 3069 1216 2747 
Q 953 2513 819 2044 
L 3350 2044 
z
" transform="scale(0.015625)"/>
       <path id="CenturyGothic-6c" d="M 422 4713 
L 859 4713 
L 859 0 
L 422 0 
L 422 4713 
z
" transform="scale(0.015625)"/>
       <path id="CenturyGothic-61" d="M 3875 3400 
L 3875 0 
L 3444 0 
L 3444 584 
Q 3169 250 2826 81 
Q 2484 -88 2078 -88 
Q 1356 -88 845 435 
Q 334 959 334 1709 
Q 334 2444 850 2966 
Q 1366 3488 2091 3488 
Q 2509 3488 2848 3309 
Q 3188 3131 3444 2775 
L 3444 3400 
L 3875 3400 
z
M 2125 3066 
Q 1759 3066 1450 2886 
Q 1141 2706 958 2381 
Q 775 2056 775 1694 
Q 775 1334 959 1006 
Q 1144 678 1455 495 
Q 1766 313 2122 313 
Q 2481 313 2803 494 
Q 3125 675 3298 984 
Q 3472 1294 3472 1681 
Q 3472 2272 3083 2669 
Q 2694 3066 2125 3066 
z
" transform="scale(0.015625)"/>
       <path id="CenturyGothic-69" d="M 641 4800 
Q 791 4800 897 4694 
Q 1003 4588 1003 4438 
Q 1003 4291 897 4184 
Q 791 4078 641 4078 
Q 494 4078 387 4184 
Q 281 4291 281 4438 
Q 281 4588 387 4694 
Q 494 4800 641 4800 
z
M 422 3400 
L 863 3400 
L 863 0 
L 422 0 
L 422 3400 
z
" transform="scale(0.015625)"/>
       <path id="CenturyGothic-76" d="M 166 3400 
L 631 3400 
L 1769 925 
L 2897 3400 
L 3366 3400 
L 1809 0 
L 1731 0 
L 166 3400 
z
" transform="scale(0.015625)"/>
       <path id="CenturyGothic-32" d="M 741 3156 
L 300 3156 
Q 319 3838 755 4275 
Q 1191 4713 1831 4713 
Q 2466 4713 2858 4303 
Q 3250 3894 3250 3338 
Q 3250 2947 3062 2605 
Q 2875 2263 2334 1678 
L 1191 444 
L 3313 444 
L 3313 0 
L 191 0 
L 1947 1897 
Q 2481 2469 2642 2745 
Q 2803 3022 2803 3328 
Q 2803 3716 2514 3995 
Q 2225 4275 1806 4275 
Q 1366 4275 1073 3981 
Q 781 3688 741 3156 
z
" transform="scale(0.015625)"/>
       <path id="CenturyGothic-30" d="M 203 2297 
Q 203 3206 398 3703 
Q 594 4200 950 4456 
Q 1306 4713 1747 4713 
Q 2194 4713 2556 4455 
Q 2919 4197 3130 3681 
Q 3341 3166 3341 2297 
Q 3341 1431 3133 918 
Q 2925 406 2559 145 
Q 2194 -116 1747 -116 
Q 1306 -116 953 137 
Q 600 391 401 892 
Q 203 1394 203 2297 
z
M 638 2288 
Q 638 1509 777 1111 
Q 916 713 1187 506 
Q 1459 300 1763 300 
Q 2069 300 2334 501 
Q 2600 703 2738 1106 
Q 2909 1597 2909 2288 
Q 2909 2981 2756 3423 
Q 2603 3866 2333 4070 
Q 2063 4275 1763 4275 
Q 1456 4275 1187 4070 
Q 919 3866 778 3467 
Q 638 3069 638 2288 
z
" transform="scale(0.015625)"/>
       <path id="CenturyGothic-2d" d="M 203 1919 
L 1922 1919 
L 1922 1538 
L 203 1538 
L 203 1919 
z
" transform="scale(0.015625)"/>
       <path id="CenturyGothic-39" d="M 1228 -116 
L 850 128 
L 2091 2009 
Q 1841 1928 1622 1928 
Q 1075 1928 694 2323 
Q 313 2719 313 3297 
Q 313 3694 497 4012 
Q 681 4331 1020 4522 
Q 1359 4713 1747 4713 
Q 2128 4713 2451 4528 
Q 2775 4344 2959 4012 
Q 3144 3681 3144 3306 
Q 3144 3022 3030 2711 
Q 2916 2400 2622 1963 
L 1228 -116 
z
M 1728 2331 
Q 2131 2331 2414 2614 
Q 2697 2897 2697 3297 
Q 2697 3697 2414 3980 
Q 2131 4263 1728 4263 
Q 1328 4263 1045 3980 
Q 763 3697 763 3297 
Q 763 2897 1045 2614 
Q 1328 2331 1728 2331 
z
" transform="scale(0.015625)"/>
       <path id="CenturyGothic-28" d="M 1469 4800 
L 1975 4800 
Q 1669 4172 1484 3334 
Q 1300 2497 1300 1606 
Q 1300 781 1439 15 
Q 1578 -750 1822 -1331 
L 1341 -1331 
Q 1109 -775 971 -22 
Q 834 731 834 1547 
Q 834 2425 996 3258 
Q 1159 4091 1469 4800 
z
" transform="scale(0.015625)"/>
       <path id="CenturyGothic-62" d="M 516 0 
L 516 4713 
L 950 4713 
L 950 2816 
Q 1225 3153 1565 3320 
Q 1906 3488 2313 3488 
Q 3034 3488 3545 2964 
Q 4056 2441 4056 1694 
Q 4056 956 3540 434 
Q 3025 -88 2300 -88 
Q 1884 -88 1546 90 
Q 1209 269 950 625 
L 950 0 
L 516 0 
z
M 2266 334 
Q 2631 334 2940 514 
Q 3250 694 3433 1019 
Q 3616 1344 3616 1706 
Q 3616 2069 3431 2397 
Q 3247 2725 2936 2908 
Q 2625 3091 2272 3091 
Q 1913 3091 1589 2908 
Q 1266 2725 1092 2415 
Q 919 2106 919 1719 
Q 919 1128 1308 731 
Q 1697 334 2266 334 
z
" transform="scale(0.015625)"/>
       <path id="CenturyGothic-3d" d="M 3522 3200 
L 3522 2772 
L 359 2772 
L 359 3200 
L 3522 3200 
z
M 3522 1825 
L 3522 1397 
L 359 1397 
L 359 1825 
L 3522 1825 
z
" transform="scale(0.015625)"/>
       <path id="CenturyGothic-31" d="M 1184 4597 
L 2088 4597 
L 2088 0 
L 1631 0 
L 1631 4147 
L 909 4147 
L 1184 4597 
z
" transform="scale(0.015625)"/>
       <path id="CenturyGothic-29" d="M 894 -1331 
L 388 -1331 
Q 697 -703 880 134 
Q 1063 972 1063 1863 
Q 1063 2688 923 3453 
Q 784 4219 541 4800 
L 1022 4800 
Q 1256 4244 1392 3489 
Q 1528 2734 1528 1919 
Q 1528 1044 1365 211 
Q 1203 -622 894 -1331 
z
" transform="scale(0.015625)"/>
      </defs>
      <use xlink:href="#CenturyGothic-4d"/>
      <use xlink:href="#CenturyGothic-6f" transform="translate(91.894531 0)"/>
      <use xlink:href="#CenturyGothic-6e" transform="translate(157.373047 0)"/>
      <use xlink:href="#CenturyGothic-74" transform="translate(218.359375 0)"/>
      <use xlink:href="#CenturyGothic-68" transform="translate(252.246094 0)"/>
      <use xlink:href="#CenturyGothic-73" transform="translate(313.232422 0)"/>
      <use xlink:href="#CenturyGothic-20" transform="translate(352.050781 0)"/>
      <use xlink:href="#CenturyGothic-72" transform="translate(379.736328 0)"/>
      <use xlink:href="#CenturyGothic-65" transform="translate(409.814453 0)"/>
      <use xlink:href="#CenturyGothic-6c" transform="translate(474.804688 0)"/>
      <use xlink:href="#CenturyGothic-61" transform="translate(494.824219 0)"/>
      <use xlink:href="#CenturyGothic-74" transform="translate(563.134766 0)"/>
      <use xlink:href="#CenturyGothic-69" transform="translate(597.021484 0)"/>
      <use xlink:href="#CenturyGothic-76" transform="translate(617.041016 0)"/>
      <use xlink:href="#CenturyGothic-65" transform="translate(672.460938 0)"/>
      <use xlink:href="#CenturyGothic-20" transform="translate(737.451172 0)"/>
      <use xlink:href="#CenturyGothic-74" transform="translate(765.136719 0)"/>
      <use xlink:href="#CenturyGothic-6f" transform="translate(799.023438 0)"/>
      <use xlink:href="#CenturyGothic-20" transform="translate(864.501953 0)"/>
      <use xlink:href="#CenturyGothic-32" transform="translate(892.1875 0)"/>
      <use xlink:href="#CenturyGothic-30" transform="translate(947.607422 0)"/>
      <use xlink:href="#CenturyGothic-32" transform="translate(1003.027344 0)"/>
      <use xlink:href="#CenturyGothic-32" transform="translate(1058.447266 0)"/>
      <use xlink:href="#CenturyGothic-2d" transform="translate(1113.867188 0)"/>
      <use xlink:href="#CenturyGothic-30" transform="translate(1147.070312 0)"/>
      <use xlink:href="#CenturyGothic-39" transform="translate(1202.490234 0)"/>
      <use xlink:href="#CenturyGothic-20" transform="translate(1257.910156 0)"/>
      <use xlink:href="#CenturyGothic-28" transform="translate(1285.595703 0)"/>
      <use xlink:href="#CenturyGothic-62" transform="translate(1322.509766 0)"/>
      <use xlink:href="#CenturyGothic-61" transform="translate(1390.722656 0)"/>
      <use xlink:href="#CenturyGothic-73" transform="translate(1459.033203 0)"/>
      <use xlink:href="#CenturyGothic-65" transform="translate(1497.851562 0)"/>
      <use xlink:href="#CenturyGothic-6c" transform="translate(1562.841797 0)"/>
      <use xlink:href="#CenturyGothic-69" transform="translate(1582.861328 0)"/>
      <use xlink:href="#CenturyGothic-6e" transform="translate(1602.880859 0)"/>
      <use xlink:href="#CenturyGothic-65" transform="translate(1663.867188 0)"/>
      <use xlink:href="#CenturyGothic-20" transform="translate(1728.857422 0)"/>
      <use xlink:href="#CenturyGothic-3d" transform="translate(1756.542969 0)"/>
      <use xlink:href="#CenturyGothic-20" transform="translate(1817.138672 0)"/>
      <use xlink:href="#CenturyGothic-2d" transform="translate(1844.824219 0)"/>
      <use xlink:href="#CenturyGothic-31" transform="translate(1878.027344 0)"/>
      <use xlink:href="#CenturyGothic-29" transform="translate(1933.447266 0)"/>
     </g>
    </g>
   </g>
   <g id="matplotlib.axis_2">
    <g id="ytick_1">
     <g id="line2d_8">
      <path d="M 46.05 152.126111 
L 401.303622 152.126111 
" clip-path="url(#pb5837aa59f)" style="fill: none; stroke: #cccccc; stroke-linecap: square"/>
     </g>
     <g id="line2d_9">
      <defs>
       <path id="mbafd776d67" d="M 0 0 
L -3 0 
" style="stroke: #404040"/>
      </defs>
      <g>
       <use xlink:href="#mbafd776d67" x="46.05" y="152.126111" style="fill: #404040; stroke: #404040"/>
      </g>
     </g>
     <g id="text_9">
      <!-- −0.2 -->
      <g style="fill: #4d4d4d" transform="translate(21.55 155.439939) scale(0.09 -0.09)">
       <defs>
        <path id="CenturyGothic-Bold-2e" d="M 897 891 
Q 1100 891 1244 748 
Q 1388 606 1388 403 
Q 1388 200 1244 56 
Q 1100 -88 897 -88 
Q 694 -88 550 56 
Q 406 200 406 403 
Q 406 606 550 748 
Q 694 891 897 891 
z
" transform="scale(0.015625)"/>
       </defs>
       <use xlink:href="#CenturyGothic-Bold-2212"/>
       <use xlink:href="#CenturyGothic-Bold-30" transform="translate(60.009766 0)"/>
       <use xlink:href="#CenturyGothic-Bold-2e" transform="translate(116.015625 0)"/>
       <use xlink:href="#CenturyGothic-Bold-32" transform="translate(143.994141 0)"/>
      </g>
     </g>
    </g>
    <g id="ytick_2">
     <g id="line2d_10">
      <path d="M 46.05 119.311302 
L 401.303622 119.311302 
" clip-path="url(#pb5837aa59f)" style="fill: none; stroke: #cccccc; stroke-linecap: square"/>
     </g>
     <g id="line2d_11">
      <g>
       <use xlink:href="#mbafd776d67" x="46.05" y="119.311302" style="fill: #404040; stroke: #404040"/>
      </g>
     </g>
     <g id="text_10">
      <!-- 0.0 -->
      <g style="fill: #4d4d4d" transform="translate(26.951406 122.62513) scale(0.09 -0.09)">
       <use xlink:href="#CenturyGothic-Bold-30"/>
       <use xlink:href="#CenturyGothic-Bold-2e" transform="translate(56.005859 0)"/>
       <use xlink:href="#CenturyGothic-Bold-30" transform="translate(83.984375 0)"/>
      </g>
     </g>
    </g>
    <g id="ytick_3">
     <g id="line2d_12">
      <path d="M 46.05 86.496493 
L 401.303622 86.496493 
" clip-path="url(#pb5837aa59f)" style="fill: none; stroke: #cccccc; stroke-linecap: square"/>
     </g>
     <g id="line2d_13">
      <g>
       <use xlink:href="#mbafd776d67" x="46.05" y="86.496493" style="fill: #404040; stroke: #404040"/>
      </g>
     </g>
     <g id="text_11">
      <!-- 0.2 -->
      <g style="fill: #4d4d4d" transform="translate(26.951406 89.810321) scale(0.09 -0.09)">
       <use xlink:href="#CenturyGothic-Bold-30"/>
       <use xlink:href="#CenturyGothic-Bold-2e" transform="translate(56.005859 0)"/>
       <use xlink:href="#CenturyGothic-Bold-32" transform="translate(83.984375 0)"/>
      </g>
     </g>
    </g>
    <g id="ytick_4">
     <g id="line2d_14">
      <path d="M 46.05 53.681683 
L 401.303622 53.681683 
" clip-path="url(#pb5837aa59f)" style="fill: none; stroke: #cccccc; stroke-linecap: square"/>
     </g>
     <g id="line2d_15">
      <g>
       <use xlink:href="#mbafd776d67" x="46.05" y="53.681683" style="fill: #404040; stroke: #404040"/>
      </g>
     </g>
     <g id="text_12">
      <!-- 0.4 -->
      <g style="fill: #4d4d4d" transform="translate(26.951406 56.995511) scale(0.09 -0.09)">
       <use xlink:href="#CenturyGothic-Bold-30"/>
       <use xlink:href="#CenturyGothic-Bold-2e" transform="translate(56.005859 0)"/>
       <use xlink:href="#CenturyGothic-Bold-34" transform="translate(83.984375 0)"/>
      </g>
     </g>
    </g>
    <g id="ytick_5">
     <g id="line2d_16">
      <path d="M 46.05 20.866874 
L 401.303622 20.866874 
" clip-path="url(#pb5837aa59f)" style="fill: none; stroke: #cccccc; stroke-linecap: square"/>
     </g>
     <g id="line2d_17">
      <g>
       <use xlink:href="#mbafd776d67" x="46.05" y="20.866874" style="fill: #404040; stroke: #404040"/>
      </g>
     </g>
     <g id="text_13">
      <!-- 0.6 -->
      <g style="fill: #4d4d4d" transform="translate(26.951406 24.180702) scale(0.09 -0.09)">
       <defs>
        <path id="CenturyGothic-Bold-36" d="M 1856 4713 
L 2600 4341 
L 1797 2778 
Q 2381 2778 2790 2359 
Q 3200 1941 3200 1319 
Q 3200 719 2779 301 
Q 2359 -116 1766 -116 
Q 1144 -116 730 317 
Q 316 750 316 1309 
Q 316 1522 380 1737 
Q 444 1953 675 2400 
L 1856 4713 
z
M 1747 1950 
Q 1503 1950 1337 1773 
Q 1172 1597 1172 1331 
Q 1172 1066 1345 884 
Q 1519 703 1750 703 
Q 1994 703 2169 881 
Q 2344 1059 2344 1331 
Q 2344 1597 2173 1773 
Q 2003 1950 1747 1950 
z
" transform="scale(0.015625)"/>
       </defs>
       <use xlink:href="#CenturyGothic-Bold-30"/>
       <use xlink:href="#CenturyGothic-Bold-2e" transform="translate(56.005859 0)"/>
       <use xlink:href="#CenturyGothic-Bold-36" transform="translate(83.984375 0)"/>
      </g>
     </g>
    </g>
    <g id="text_14">
     <!-- Effect on log registered unemployment -->
     <g transform="translate(15.678281 174.866531) rotate(-90) scale(0.09 -0.09)">
      <defs>
       <path id="CenturyGothic-45" d="M 563 4597 
L 3197 4597 
L 3197 4144 
L 1022 4144 
L 1022 2706 
L 3178 2706 
L 3178 2256 
L 1022 2256 
L 1022 453 
L 3178 453 
L 3178 0 
L 563 0 
L 563 4597 
z
" transform="scale(0.015625)"/>
       <path id="CenturyGothic-66" d="M 1888 4713 
L 1888 4284 
Q 1647 4388 1475 4388 
Q 1347 4388 1262 4336 
Q 1178 4284 1156 4217 
Q 1134 4150 1134 3859 
L 1134 3400 
L 1844 3400 
L 1844 3025 
L 1131 3025 
L 1131 0 
L 694 0 
L 694 3025 
L 247 3025 
L 247 3400 
L 694 3400 
L 694 3931 
Q 694 4297 761 4453 
Q 828 4609 989 4704 
Q 1150 4800 1378 4800 
Q 1591 4800 1888 4713 
z
" transform="scale(0.015625)"/>
       <path id="CenturyGothic-63" d="M 3788 2694 
L 3441 2478 
Q 2991 3075 2213 3075 
Q 1591 3075 1180 2675 
Q 769 2275 769 1703 
Q 769 1331 958 1003 
Q 1147 675 1476 494 
Q 1806 313 2216 313 
Q 2966 313 3441 909 
L 3788 681 
Q 3544 316 3133 114 
Q 2722 -88 2197 -88 
Q 1391 -88 859 425 
Q 328 938 328 1672 
Q 328 2166 576 2589 
Q 825 3013 1259 3250 
Q 1694 3488 2231 3488 
Q 2569 3488 2883 3384 
Q 3197 3281 3415 3115 
Q 3634 2950 3788 2694 
z
" transform="scale(0.015625)"/>
       <path id="CenturyGothic-67" d="M 3416 3400 
L 3856 3400 
L 3856 691 
Q 3856 -25 3731 -356 
Q 3559 -825 3134 -1078 
Q 2709 -1331 2113 -1331 
Q 1675 -1331 1326 -1207 
Q 978 -1084 759 -876 
Q 541 -669 356 -269 
L 831 -269 
Q 1025 -606 1331 -768 
Q 1638 -931 2091 -931 
Q 2538 -931 2845 -764 
Q 3153 -597 3284 -344 
Q 3416 -91 3416 472 
L 3416 647 
Q 3169 334 2812 167 
Q 2456 0 2056 0 
Q 1588 0 1175 233 
Q 763 466 538 859 
Q 313 1253 313 1725 
Q 313 2197 547 2605 
Q 781 3013 1195 3250 
Q 1609 3488 2069 3488 
Q 2450 3488 2779 3330 
Q 3109 3172 3416 2809 
L 3416 3400 
z
M 2125 3066 
Q 1753 3066 1434 2886 
Q 1116 2706 934 2389 
Q 753 2072 753 1703 
Q 753 1144 1128 778 
Q 1503 413 2100 413 
Q 2703 413 3070 775 
Q 3438 1138 3438 1728 
Q 3438 2113 3269 2414 
Q 3100 2716 2790 2891 
Q 2481 3066 2125 3066 
z
" transform="scale(0.015625)"/>
       <path id="CenturyGothic-64" d="M 3881 4713 
L 3881 0 
L 3450 0 
L 3450 584 
Q 3175 250 2833 81 
Q 2491 -88 2084 -88 
Q 1363 -88 852 435 
Q 341 959 341 1709 
Q 341 2444 856 2966 
Q 1372 3488 2097 3488 
Q 2516 3488 2855 3309 
Q 3194 3131 3450 2775 
L 3450 4713 
L 3881 4713 
z
M 2131 3066 
Q 1766 3066 1456 2886 
Q 1147 2706 964 2381 
Q 781 2056 781 1694 
Q 781 1334 965 1006 
Q 1150 678 1461 495 
Q 1772 313 2128 313 
Q 2488 313 2809 494 
Q 3131 675 3304 984 
Q 3478 1294 3478 1681 
Q 3478 2272 3089 2669 
Q 2700 3066 2131 3066 
z
" transform="scale(0.015625)"/>
       <path id="CenturyGothic-75" d="M 431 3400 
L 872 3400 
L 872 1813 
Q 872 1231 934 1013 
Q 1028 700 1292 519 
Q 1556 338 1922 338 
Q 2288 338 2542 514 
Q 2797 691 2894 978 
Q 2959 1175 2959 1813 
L 2959 3400 
L 3406 3400 
L 3406 1731 
Q 3406 1028 3242 672 
Q 3078 316 2748 114 
Q 2419 -88 1922 -88 
Q 1425 -88 1092 114 
Q 759 316 595 677 
Q 431 1038 431 1763 
L 431 3400 
z
" transform="scale(0.015625)"/>
       <path id="CenturyGothic-6d" d="M 484 3400 
L 919 3400 
L 919 2813 
Q 1147 3138 1388 3288 
Q 1719 3488 2084 3488 
Q 2331 3488 2553 3391 
Q 2775 3294 2915 3133 
Q 3056 2972 3159 2672 
Q 3378 3072 3706 3280 
Q 4034 3488 4413 3488 
Q 4766 3488 5036 3309 
Q 5306 3131 5437 2812 
Q 5569 2494 5569 1856 
L 5569 0 
L 5122 0 
L 5122 1856 
Q 5122 2403 5044 2608 
Q 4966 2813 4777 2938 
Q 4588 3063 4325 3063 
Q 4006 3063 3742 2875 
Q 3478 2688 3356 2375 
Q 3234 2063 3234 1331 
L 3234 0 
L 2800 0 
L 2800 1741 
Q 2800 2356 2723 2576 
Q 2647 2797 2456 2930 
Q 2266 3063 2003 3063 
Q 1700 3063 1436 2880 
Q 1172 2697 1045 2387 
Q 919 2078 919 1441 
L 919 0 
L 484 0 
L 484 3400 
z
" transform="scale(0.015625)"/>
       <path id="CenturyGothic-70" d="M 494 3400 
L 928 3400 
L 928 2775 
Q 1188 3131 1525 3309 
Q 1863 3488 2278 3488 
Q 3003 3488 3518 2966 
Q 4034 2444 4034 1709 
Q 4034 959 3523 435 
Q 3013 -88 2291 -88 
Q 1884 -88 1543 81 
Q 1203 250 928 584 
L 928 -1244 
L 494 -1244 
L 494 3400 
z
M 2244 3066 
Q 1675 3066 1286 2669 
Q 897 2272 897 1681 
Q 897 1294 1070 984 
Q 1244 675 1567 494 
Q 1891 313 2250 313 
Q 2603 313 2914 495 
Q 3225 678 3409 1006 
Q 3594 1334 3594 1694 
Q 3594 2056 3411 2381 
Q 3228 2706 2918 2886 
Q 2609 3066 2244 3066 
z
" transform="scale(0.015625)"/>
       <path id="CenturyGothic-79" d="M 122 3400 
L 584 3400 
L 1753 781 
L 2888 3400 
L 3353 3400 
L 1325 -1244 
L 863 -1244 
L 1519 256 
L 122 3400 
z
" transform="scale(0.015625)"/>
      </defs>
      <use xlink:href="#CenturyGothic-45"/>
      <use xlink:href="#CenturyGothic-66" transform="translate(53.613281 0)"/>
      <use xlink:href="#CenturyGothic-66" transform="translate(85.009766 0)"/>
      <use xlink:href="#CenturyGothic-65" transform="translate(116.40625 0)"/>
      <use xlink:href="#CenturyGothic-63" transform="translate(181.396484 0)"/>
      <use xlink:href="#CenturyGothic-74" transform="translate(246.09375 0)"/>
      <use xlink:href="#CenturyGothic-20" transform="translate(279.980469 0)"/>
      <use xlink:href="#CenturyGothic-6f" transform="translate(307.666016 0)"/>
      <use xlink:href="#CenturyGothic-6e" transform="translate(373.144531 0)"/>
      <use xlink:href="#CenturyGothic-20" transform="translate(434.130859 0)"/>
      <use xlink:href="#CenturyGothic-6c" transform="translate(461.816406 0)"/>
      <use xlink:href="#CenturyGothic-6f" transform="translate(481.835938 0)"/>
      <use xlink:href="#CenturyGothic-67" transform="translate(547.314453 0)"/>
      <use xlink:href="#CenturyGothic-20" transform="translate(614.599609 0)"/>
      <use xlink:href="#CenturyGothic-72" transform="translate(642.285156 0)"/>
      <use xlink:href="#CenturyGothic-65" transform="translate(672.363281 0)"/>
      <use xlink:href="#CenturyGothic-67" transform="translate(737.353516 0)"/>
      <use xlink:href="#CenturyGothic-69" transform="translate(804.638672 0)"/>
      <use xlink:href="#CenturyGothic-73" transform="translate(824.658203 0)"/>
      <use xlink:href="#CenturyGothic-74" transform="translate(863.476562 0)"/>
      <use xlink:href="#CenturyGothic-65" transform="translate(897.363281 0)"/>
      <use xlink:href="#CenturyGothic-72" transform="translate(962.353516 0)"/>
      <use xlink:href="#CenturyGothic-65" transform="translate(992.431641 0)"/>
      <use xlink:href="#CenturyGothic-64" transform="translate(1057.421875 0)"/>
      <use xlink:href="#CenturyGothic-20" transform="translate(1125.927734 0)"/>
      <use xlink:href="#CenturyGothic-75" transform="translate(1153.613281 0)"/>
      <use xlink:href="#CenturyGothic-6e" transform="translate(1214.404297 0)"/>
      <use xlink:href="#CenturyGothic-65" transform="translate(1275.390625 0)"/>
      <use xlink:href="#CenturyGothic-6d" transform="translate(1340.380859 0)"/>
      <use xlink:href="#CenturyGothic-70" transform="translate(1434.179688 0)"/>
      <use xlink:href="#CenturyGothic-6c" transform="translate(1502.392578 0)"/>
      <use xlink:href="#CenturyGothic-6f" transform="translate(1522.412109 0)"/>
      <use xlink:href="#CenturyGothic-79" transform="translate(1587.890625 0)"/>
      <use xlink:href="#CenturyGothic-6d" transform="translate(1641.503906 0)"/>
      <use xlink:href="#CenturyGothic-65" transform="translate(1735.302734 0)"/>
      <use xlink:href="#CenturyGothic-6e" transform="translate(1800.292969 0)"/>
      <use xlink:href="#CenturyGothic-74" transform="translate(1861.279297 0)"/>
     </g>
    </g>
   </g>
   <g id="line2d_18">
    <path d="M 46.05 119.311302 
L 401.303622 119.311302 
" clip-path="url(#pb5837aa59f)" style="fill: none; stroke: #404040; stroke-width: 0.9; stroke-linecap: square"/>
   </g>
   <g id="line2d_19">
    <path d="M 163.773341 169.451811 
L 163.773341 9.72 
" clip-path="url(#pb5837aa59f)" style="fill: none; stroke-dasharray: 3.7,1.6; stroke-dashoffset: 0; stroke: #404040"/>
   </g>
   <g id="line2d_20">
    <path d="M 62.197892 142.10519 
L 67.406889 141.585816 
L 72.615887 137.801085 
L 77.824884 139.460216 
L 83.033881 139.877439 
L 88.242879 133.025227 
L 93.451876 124.326498 
L 98.660874 120.233412 
L 103.869871 124.716608 
L 109.078868 134.359335 
L 114.287866 136.008519 
L 119.496863 144.558797 
L 124.705861 140.485573 
L 129.914858 139.977499 
L 135.123855 143.854717 
L 140.332853 142.80126 
L 145.54185 142.098279 
L 150.750848 135.241435 
L 155.959845 122.880079 
L 161.168842 119.311302 
L 166.37784 125.487457 
L 171.586837 124.253881 
L 176.795835 125.789805 
L 182.004832 124.196241 
L 187.213829 124.342391 
L 192.422827 120.204288 
L 197.631824 117.590559 
L 202.840821 114.979425 
L 208.049819 111.213821 
L 213.258816 104.985145 
L 218.467814 93.49005 
L 223.676811 90.346745 
L 228.885808 94.044994 
L 234.094806 97.716821 
L 239.303803 98.976752 
L 244.512801 99.141969 
L 249.721798 102.356037 
L 254.930795 104.477834 
L 260.139793 102.634841 
L 265.34879 101.815523 
L 270.557788 100.414225 
L 275.766785 97.470462 
L 280.975782 87.161208 
L 286.18478 83.637282 
L 291.393777 88.89391 
L 296.602774 90.915791 
L 301.811772 88.164086 
L 307.020769 89.555532 
L 312.229767 90.221113 
L 317.438764 84.775803 
L 322.647761 83.341785 
L 327.856759 82.443798 
L 333.065756 79.252401 
L 338.274754 72.848932 
L 343.483751 62.068929 
L 348.692748 60.071704 
L 353.901746 61.202635 
L 359.110743 69.056831 
L 364.319741 67.940608 
L 369.528738 72.380564 
L 374.737735 69.010391 
L 379.946733 63.732412 
L 385.15573 54.421366 
" clip-path="url(#pb5837aa59f)" style="fill: none; stroke: #83082a; stroke-width: 1.6; stroke-linecap: square"/>
    <defs>
     <path id="m24f9d2006e" d="M 0 1.6 
C 0.424325 1.6 0.831328 1.431414 1.131371 1.131371 
C 1.431414 0.831328 1.6 0.424325 1.6 0 
C 1.6 -0.424325 1.431414 -0.831328 1.131371 -1.131371 
C 0.831328 -1.431414 0.424325 -1.6 0 -1.6 
C -0.424325 -1.6 -0.831328 -1.431414 -1.131371 -1.131371 
C -1.431414 -0.831328 -1.6 -0.424325 -1.6 0 
C -1.6 0.424325 -1.431414 0.831328 -1.131371 1.131371 
C -0.831328 1.431414 -0.424325 1.6 0 1.6 
z
" style="stroke: #83082a"/>
    </defs>
    <g clip-path="url(#pb5837aa59f)">
     <use xlink:href="#m24f9d2006e" x="62.197892" y="142.10519" style="fill: #83082a; stroke: #83082a"/>
     <use xlink:href="#m24f9d2006e" x="67.406889" y="141.585816" style="fill: #83082a; stroke: #83082a"/>
     <use xlink:href="#m24f9d2006e" x="72.615887" y="137.801085" style="fill: #83082a; stroke: #83082a"/>
     <use xlink:href="#m24f9d2006e" x="77.824884" y="139.460216" style="fill: #83082a; stroke: #83082a"/>
     <use xlink:href="#m24f9d2006e" x="83.033881" y="139.877439" style="fill: #83082a; stroke: #83082a"/>
     <use xlink:href="#m24f9d2006e" x="88.242879" y="133.025227" style="fill: #83082a; stroke: #83082a"/>
     <use xlink:href="#m24f9d2006e" x="93.451876" y="124.326498" style="fill: #83082a; stroke: #83082a"/>
     <use xlink:href="#m24f9d2006e" x="98.660874" y="120.233412" style="fill: #83082a; stroke: #83082a"/>
     <use xlink:href="#m24f9d2006e" x="103.869871" y="124.716608" style="fill: #83082a; stroke: #83082a"/>
     <use xlink:href="#m24f9d2006e" x="109.078868" y="134.359335" style="fill: #83082a; stroke: #83082a"/>
     <use xlink:href="#m24f9d2006e" x="114.287866" y="136.008519" style="fill: #83082a; stroke: #83082a"/>
     <use xlink:href="#m24f9d2006e" x="119.496863" y="144.558797" style="fill: #83082a; stroke: #83082a"/>
     <use xlink:href="#m24f9d2006e" x="124.705861" y="140.485573" style="fill: #83082a; stroke: #83082a"/>
     <use xlink:href="#m24f9d2006e" x="129.914858" y="139.977499" style="fill: #83082a; stroke: #83082a"/>
     <use xlink:href="#m24f9d2006e" x="135.123855" y="143.854717" style="fill: #83082a; stroke: #83082a"/>
     <use xlink:href="#m24f9d2006e" x="140.332853" y="142.80126" style="fill: #83082a; stroke: #83082a"/>
     <use xlink:href="#m24f9d2006e" x="145.54185" y="142.098279" style="fill: #83082a; stroke: #83082a"/>
     <use xlink:href="#m24f9d2006e" x="150.750848" y="135.241435" style="fill: #83082a; stroke: #83082a"/>
     <use xlink:href="#m24f9d2006e" x="155.959845" y="122.880079" style="fill: #83082a; stroke: #83082a"/>
     <use xlink:href="#m24f9d2006e" x="161.168842" y="119.311302" style="fill: #83082a; stroke: #83082a"/>
     <use xlink:href="#m24f9d2006e" x="166.37784" y="125.487457" style="fill: #83082a; stroke: #83082a"/>
     <use xlink:href="#m24f9d2006e" x="171.586837" y="124.253881" style="fill: #83082a; stroke: #83082a"/>
     <use xlink:href="#m24f9d2006e" x="176.795835" y="125.789805" style="fill: #83082a; stroke: #83082a"/>
     <use xlink:href="#m24f9d2006e" x="182.004832" y="124.196241" style="fill: #83082a; stroke: #83082a"/>
     <use xlink:href="#m24f9d2006e" x="187.213829" y="124.342391" style="fill: #83082a; stroke: #83082a"/>
     <use xlink:href="#m24f9d2006e" x="192.422827" y="120.204288" style="fill: #83082a; stroke: #83082a"/>
     <use xlink:href="#m24f9d2006e" x="197.631824" y="117.590559" style="fill: #83082a; stroke: #83082a"/>
     <use xlink:href="#m24f9d2006e" x="202.840821" y="114.979425" style="fill: #83082a; stroke: #83082a"/>
     <use xlink:href="#m24f9d2006e" x="208.049819" y="111.213821" style="fill: #83082a; stroke: #83082a"/>
     <use xlink:href="#m24f9d2006e" x="213.258816" y="104.985145" style="fill: #83082a; stroke: #83082a"/>
     <use xlink:href="#m24f9d2006e" x="218.467814" y="93.49005" style="fill: #83082a; stroke: #83082a"/>
     <use xlink:href="#m24f9d2006e" x="223.676811" y="90.346745" style="fill: #83082a; stroke: #83082a"/>
     <use xlink:href="#m24f9d2006e" x="228.885808" y="94.044994" style="fill: #83082a; stroke: #83082a"/>
     <use xlink:href="#m24f9d2006e" x="234.094806" y="97.716821" style="fill: #83082a; stroke: #83082a"/>
     <use xlink:href="#m24f9d2006e" x="239.303803" y="98.976752" style="fill: #83082a; stroke: #83082a"/>
     <use xlink:href="#m24f9d2006e" x="244.512801" y="99.141969" style="fill: #83082a; stroke: #83082a"/>
     <use xlink:href="#m24f9d2006e" x="249.721798" y="102.356037" style="fill: #83082a; stroke: #83082a"/>
     <use xlink:href="#m24f9d2006e" x="254.930795" y="104.477834" style="fill: #83082a; stroke: #83082a"/>
     <use xlink:href="#m24f9d2006e" x="260.139793" y="102.634841" style="fill: #83082a; stroke: #83082a"/>
     <use xlink:href="#m24f9d2006e" x="265.34879" y="101.815523" style="fill: #83082a; stroke: #83082a"/>
     <use xlink:href="#m24f9d2006e" x="270.557788" y="100.414225" style="fill: #83082a; stroke: #83082a"/>
     <use xlink:href="#m24f9d2006e" x="275.766785" y="97.470462" style="fill: #83082a; stroke: #83082a"/>
     <use xlink:href="#m24f9d2006e" x="280.975782" y="87.161208" style="fill: #83082a; stroke: #83082a"/>
     <use xlink:href="#m24f9d2006e" x="286.18478" y="83.637282" style="fill: #83082a; stroke: #83082a"/>
     <use xlink:href="#m24f9d2006e" x="291.393777" y="88.89391" style="fill: #83082a; stroke: #83082a"/>
     <use xlink:href="#m24f9d2006e" x="296.602774" y="90.915791" style="fill: #83082a; stroke: #83082a"/>
     <use xlink:href="#m24f9d2006e" x="301.811772" y="88.164086" style="fill: #83082a; stroke: #83082a"/>
     <use xlink:href="#m24f9d2006e" x="307.020769" y="89.555532" style="fill: #83082a; stroke: #83082a"/>
     <use xlink:href="#m24f9d2006e" x="312.229767" y="90.221113" style="fill: #83082a; stroke: #83082a"/>
     <use xlink:href="#m24f9d2006e" x="317.438764" y="84.775803" style="fill: #83082a; stroke: #83082a"/>
     <use xlink:href="#m24f9d2006e" x="322.647761" y="83.341785" style="fill: #83082a; stroke: #83082a"/>
     <use xlink:href="#m24f9d2006e" x="327.856759" y="82.443798" style="fill: #83082a; stroke: #83082a"/>
     <use xlink:href="#m24f9d2006e" x="333.065756" y="79.252401" style="fill: #83082a; stroke: #83082a"/>
     <use xlink:href="#m24f9d2006e" x="338.274754" y="72.848932" style="fill: #83082a; stroke: #83082a"/>
     <use xlink:href="#m24f9d2006e" x="343.483751" y="62.068929" style="fill: #83082a; stroke: #83082a"/>
     <use xlink:href="#m24f9d2006e" x="348.692748" y="60.071704" style="fill: #83082a; stroke: #83082a"/>
     <use xlink:href="#m24f9d2006e" x="353.901746" y="61.202635" style="fill: #83082a; stroke: #83082a"/>
     <use xlink:href="#m24f9d2006e" x="359.110743" y="69.056831" style="fill: #83082a; stroke: #83082a"/>
     <use xlink:href="#m24f9d2006e" x="364.319741" y="67.940608" style="fill: #83082a; stroke: #83082a"/>
     <use xlink:href="#m24f9d2006e" x="369.528738" y="72.380564" style="fill: #83082a; stroke: #83082a"/>
     <use xlink:href="#m24f9d2006e" x="374.737735" y="69.010391" style="fill: #83082a; stroke: #83082a"/>
     <use xlink:href="#m24f9d2006e" x="379.946733" y="63.732412" style="fill: #83082a; stroke: #83082a"/>
     <use xlink:href="#m24f9d2006e" x="385.15573" y="54.421366" style="fill: #83082a; stroke: #83082a"/>
    </g>
   </g>
   <g id="patch_3">
    <path d="M 46.05 169.451811 
L 46.05 9.72 
" style="fill: none; stroke: #404040; stroke-linejoin: miter; stroke-linecap: square"/>
   </g>
   <g id="patch_4">
    <path d="M 46.05 169.451811 
L 401.303622 169.451811 
" style="fill: none; stroke: #404040; stroke-linejoin: miter; stroke-linecap: square"/>
   </g>
  </g>
 </g>
 <defs>
  <clipPath id="pb5837aa59f">
   <rect x="46.05" y="9.72" width="355.253622" height="159.731811"/>
  </clipPath>
 </defs>
</svg>
