<?xml version="1.0" encoding="utf-8" standalone="no"?>
<!DOCTYPE svg PUBLIC "-//W3C//DTD SVG 1.1//EN"
  "http://www.w3.org/Graphics/SVG/1.1/DTD/svg11.dtd">
<svg xmlns:xlink="http://www.w3.org/1999/xlink" width="411.023622pt" height="205.511811pt" viewBox="0 0 411.023622 205.511811" xmlns="http://www.w3.org/2000/svg" version="1.1">
 <metadata>
  <rdf:RDF xmlns:dc="http://purl.org/dc/elements/1.1/" xmlns:cc="http://creativecommons.org/ns#" xmlns:rdf="http://www.w3.org/1999/02/22-rdf-syntax-ns#">
   <cc:Work>
    <dc:type rdf:resource="http://purl.org/dc/dcmitype/StillImage"/>
    <dc:date>2026-06-04T09:42:11.715946</dc:date>
    <dc:format>image/svg+xml</dc:format>
    <dc:creator>
     <cc:Agent>
      <dc:title>Matplotlib v3.10.8, https://matplotlib.org/</dc:title>
     </cc:Agent>
    </dc:creator>
   </cc:Work>
  </rdf:RDF>
 </metadata>
 <defs>
  <style type="text/css">*{stroke-linejoin: round; stroke-linecap: butt}</style>
 </defs>
 <g id="figure_1">
  <g id="patch_1">
   <path d="M 0 205.511811 
L 411.023622 205.511811 
L 411.023622 0 
L 0 0 
z
" style="fill: #ffffff"/>
  </g>
  <g id="axes_1">
   <g id="patch_2">
    <path d="M 51.09 169.451811 
L 401.303622 169.451811 
L 401.303622 9.72 
L 51.09 9.72 
z
" style="fill: #ffffff"/>
   </g>
   <g id="FillBetweenPolyCollection_1">
    <defs>
     <path id="m76fb415fa0" d="M 67.008801 -87.805568 
L 67.008801 -49.407424 
L 72.143898 -47.962166 
L 77.278995 -52.043268 
L 82.414092 -48.917366 
L 87.549189 -47.759204 
L 92.684286 -56.597831 
L 97.819384 -71.893176 
L 102.954481 -76.520465 
L 108.089578 -68.404948 
L 113.224675 -59.106906 
L 118.359772 -56.316356 
L 123.494869 -45.925662 
L 128.629966 -51.014664 
L 133.765063 -49.185021 
L 138.90016 -44.852459 
L 144.035257 -43.320537 
L 149.170355 -46.893359 
L 154.305452 -54.359194 
L 159.440549 -77.186554 
L 164.575646 -87.054796 
L 169.710743 -69.342024 
L 174.84584 -70.37621 
L 179.980937 -66.939757 
L 185.116034 -67.726843 
L 190.251131 -66.571218 
L 195.386228 -69.587608 
L 200.521326 -73.300566 
L 205.656423 -73.663481 
L 210.79152 -76.751006 
L 215.926617 -83.102027 
L 221.061714 -98.425708 
L 226.196811 -104.511144 
L 231.331908 -99.895428 
L 236.467005 -94.270391 
L 241.602102 -90.745244 
L 246.737199 -90.56325 
L 251.872297 -87.25775 
L 257.007394 -83.202466 
L 262.142491 -83.604051 
L 267.277588 -84.002771 
L 272.412685 -83.092445 
L 277.547782 -86.425474 
L 282.682879 -98.788601 
L 287.817976 -106.042032 
L 292.953073 -98.662618 
L 298.08817 -94.749053 
L 303.223267 -94.540595 
L 308.358365 -91.479072 
L 313.493462 -90.68786 
L 318.628559 -96.822377 
L 323.763656 -95.933699 
L 328.898753 -96.340396 
L 334.03385 -100.241208 
L 339.168947 -107.086667 
L 344.304044 -124.91494 
L 349.439141 -127.958774 
L 354.574238 -124.818799 
L 359.709336 -115.733096 
L 364.844433 -114.63871 
L 369.97953 -108.204299 
L 375.114627 -109.858641 
L 380.249724 -114.485105 
L 385.384821 -121.648149 
L 385.384821 -188.531274 
L 385.384821 -188.531274 
L 380.249724 -179.509618 
L 375.114627 -173.82352 
L 369.97953 -170.746321 
L 364.844433 -178.237611 
L 359.709336 -178.097997 
L 354.574238 -183.338178 
L 349.439141 -183.883413 
L 344.304044 -179.912401 
L 339.168947 -164.066953 
L 334.03385 -157.638857 
L 328.898753 -152.621316 
L 323.763656 -151.853464 
L 318.628559 -151.227673 
L 313.493462 -144.171568 
L 308.358365 -143.052075 
L 303.223267 -146.812261 
L 298.08817 -146.116127 
L 292.953073 -147.449932 
L 287.817976 -150.885524 
L 282.682879 -142.145065 
L 277.547782 -130.339128 
L 272.412685 -129.062601 
L 267.277588 -128.602718 
L 262.142491 -125.641135 
L 257.007394 -123.84963 
L 251.872297 -123.394054 
L 246.737199 -124.063745 
L 241.602102 -125.486484 
L 236.467005 -126.751179 
L 231.331908 -129.376337 
L 226.196811 -130.143102 
L 221.061714 -123.963931 
L 215.926617 -112.317068 
L 210.79152 -106.173398 
L 205.656423 -102.448863 
L 200.521326 -101.702705 
L 195.386228 -96.932774 
L 190.251131 -91.939179 
L 185.116034 -90.402794 
L 179.980937 -89.353906 
L 174.84584 -90.657896 
L 169.710743 -85.962331 
L 164.575646 -87.054796 
L 159.440549 -86.003775 
L 154.305452 -73.984448 
L 149.170355 -71.104085 
L 144.035257 -66.241071 
L 138.90016 -70.170263 
L 133.765063 -74.813407 
L 128.629966 -76.432127 
L 123.494869 -70.893994 
L 118.359772 -82.702488 
L 113.224675 -84.974552 
L 108.089578 -94.217873 
L 102.954481 -100.039191 
L 97.819384 -96.308887 
L 92.684286 -87.540995 
L 87.549189 -81.97405 
L 82.414092 -84.075199 
L 77.278995 -89.047334 
L 72.143898 -86.537696 
L 67.008801 -87.805568 
z
"/>
    </defs>
    <g clip-path="url(#pf39189ee55)">
     <use xlink:href="#m76fb415fa0" x="0" y="205.511811" style="fill: #e397a0; fill-opacity: 0.55"/>
    </g>
   </g>
   <g id="matplotlib.axis_1">
    <g id="xtick_1">
     <g id="line2d_1">
      <defs>
       <path id="m403364579b" d="M 0 0 
L 0 3 
" style="stroke: #404040"/>
      </defs>
      <g>
       <use xlink:href="#m403364579b" x="67.008801" y="169.451811" style="fill: #404040; stroke: #404040"/>
      </g>
     </g>
     <g id="text_1">
      <!-- −20 -->
      <g style="fill: #4d4d4d" transform="translate(59.268098 182.579467) scale(0.09 -0.09)">
       <defs>
        <path id="CenturyGothic-Bold-2212" d="M 359 2688 
L 3481 2688 
L 3481 1906 
L 359 1906 
L 359 2688 
z
" transform="scale(0.015625)"/>
        <path id="CenturyGothic-Bold-32" d="M 1116 3116 
L 263 3116 
Q 297 3859 730 4286 
Q 1163 4713 1841 4713 
Q 2259 4713 2579 4536 
Q 2900 4359 3092 4026 
Q 3284 3694 3284 3350 
Q 3284 2941 3051 2469 
Q 2819 1997 2200 1353 
L 1684 809 
L 3322 809 
L 3322 0 
L 138 0 
L 138 419 
L 1559 1869 
Q 2075 2391 2245 2708 
Q 2416 3025 2416 3281 
Q 2416 3547 2239 3720 
Q 2063 3894 1784 3894 
Q 1503 3894 1315 3684 
Q 1128 3475 1116 3116 
z
" transform="scale(0.015625)"/>
        <path id="CenturyGothic-Bold-30" d="M 1778 4713 
Q 2281 4713 2645 4466 
Q 3009 4219 3207 3711 
Q 3406 3203 3406 2297 
Q 3406 1381 3204 872 
Q 3003 363 2662 123 
Q 2322 -116 1803 -116 
Q 1284 -116 931 125 
Q 578 366 378 856 
Q 178 1347 178 2253 
Q 178 3519 569 4088 
Q 1003 4713 1778 4713 
z
M 1800 3881 
Q 1578 3881 1406 3739 
Q 1234 3597 1143 3250 
Q 1053 2903 1053 2234 
Q 1053 1363 1261 1030 
Q 1469 697 1800 697 
Q 2119 697 2306 1013 
Q 2534 1394 2534 2288 
Q 2534 3194 2329 3537 
Q 2125 3881 1800 3881 
z
" transform="scale(0.015625)"/>
       </defs>
       <use xlink:href="#CenturyGothic-Bold-2212"/>
       <use xlink:href="#CenturyGothic-Bold-32" transform="translate(60.009766 0)"/>
       <use xlink:href="#CenturyGothic-Bold-30" transform="translate(116.015625 0)"/>
      </g>
     </g>
    </g>
    <g id="xtick_2">
     <g id="line2d_2">
      <g>
       <use xlink:href="#m403364579b" x="118.359772" y="169.451811" style="fill: #404040; stroke: #404040"/>
      </g>
     </g>
     <g id="text_2">
      <!-- −10 -->
      <g style="fill: #4d4d4d" transform="translate(110.619069 182.579467) scale(0.09 -0.09)">
       <defs>
        <path id="CenturyGothic-Bold-31" d="M 1053 4597 
L 2363 4597 
L 2363 0 
L 1494 0 
L 1494 3775 
L 547 3775 
L 1053 4597 
z
" transform="scale(0.015625)"/>
       </defs>
       <use xlink:href="#CenturyGothic-Bold-2212"/>
       <use xlink:href="#CenturyGothic-Bold-31" transform="translate(60.009766 0)"/>
       <use xlink:href="#CenturyGothic-Bold-30" transform="translate(116.015625 0)"/>
      </g>
     </g>
    </g>
    <g id="xtick_3">
     <g id="line2d_3">
      <g>
       <use xlink:href="#m403364579b" x="169.710743" y="169.451811" style="fill: #404040; stroke: #404040"/>
      </g>
     </g>
     <g id="text_3">
      <!-- 0 -->
      <g style="fill: #4d4d4d" transform="translate(167.190743 182.579467) scale(0.09 -0.09)">
       <use xlink:href="#CenturyGothic-Bold-30"/>
      </g>
     </g>
    </g>
    <g id="xtick_4">
     <g id="line2d_4">
      <g>
       <use xlink:href="#m403364579b" x="221.061714" y="169.451811" style="fill: #404040; stroke: #404040"/>
      </g>
     </g>
     <g id="text_4">
      <!-- 10 -->
      <g style="fill: #4d4d4d" transform="translate(216.021714 182.579467) scale(0.09 -0.09)">
       <use xlink:href="#CenturyGothic-Bold-31"/>
       <use xlink:href="#CenturyGothic-Bold-30" transform="translate(56.005859 0)"/>
      </g>
     </g>
    </g>
    <g id="xtick_5">
     <g id="line2d_5">
      <g>
       <use xlink:href="#m403364579b" x="272.412685" y="169.451811" style="fill: #404040; stroke: #404040"/>
      </g>
     </g>
     <g id="text_5">
      <!-- 20 -->
      <g style="fill: #4d4d4d" transform="translate(267.372685 182.579467) scale(0.09 -0.09)">
       <use xlink:href="#CenturyGothic-Bold-32"/>
       <use xlink:href="#CenturyGothic-Bold-30" transform="translate(56.005859 0)"/>
      </g>
     </g>
    </g>
    <g id="xtick_6">
     <g id="line2d_6">
      <g>
       <use xlink:href="#m403364579b" x="323.763656" y="169.451811" style="fill: #404040; stroke: #404040"/>
      </g>
     </g>
     <g id="text_6">
      <!-- 30 -->
      <g style="fill: #4d4d4d" transform="translate(318.723656 182.579467) scale(0.09 -0.09)">
       <defs>
        <path id="CenturyGothic-Bold-33" d="M 1216 3463 
L 375 3463 
Q 441 3972 741 4281 
Q 1159 4713 1794 4713 
Q 2359 4713 2742 4353 
Q 3125 3994 3125 3500 
Q 3125 3194 2958 2941 
Q 2791 2688 2472 2531 
Q 2891 2406 3127 2095 
Q 3363 1784 3363 1363 
Q 3363 744 2906 314 
Q 2450 -116 1744 -116 
Q 1075 -116 653 289 
Q 231 694 191 1391 
L 1056 1391 
Q 1113 1034 1305 861 
Q 1497 688 1791 688 
Q 2097 688 2298 884 
Q 2500 1081 2500 1366 
Q 2500 1678 2228 1893 
Q 1956 2109 1444 2116 
L 1444 2866 
Q 1759 2891 1914 2964 
Q 2069 3038 2155 3166 
Q 2241 3294 2241 3438 
Q 2241 3625 2109 3748 
Q 1978 3872 1766 3872 
Q 1578 3872 1425 3758 
Q 1272 3644 1216 3463 
z
" transform="scale(0.015625)"/>
       </defs>
       <use xlink:href="#CenturyGothic-Bold-33"/>
       <use xlink:href="#CenturyGothic-Bold-30" transform="translate(56.005859 0)"/>
      </g>
     </g>
    </g>
    <g id="xtick_7">
     <g id="line2d_7">
      <g>
       <use xlink:href="#m403364579b" x="375.114627" y="169.451811" style="fill: #404040; stroke: #404040"/>
      </g>
     </g>
     <g id="text_7">
      <!-- 40 -->
      <g style="fill: #4d4d4d" transform="translate(370.074627 182.579467) scale(0.09 -0.09)">
       <defs>
        <path id="CenturyGothic-Bold-34" d="M 2119 4713 
L 2994 4713 
L 2994 1753 
L 3403 1753 
L 3403 944 
L 2994 944 
L 2994 0 
L 2138 0 
L 2138 944 
L 131 944 
L 131 1753 
L 2119 4713 
z
M 2138 1753 
L 2138 3294 
L 1088 1753 
L 2138 1753 
z
" transform="scale(0.015625)"/>
       </defs>
       <use xlink:href="#CenturyGothic-Bold-34"/>
       <use xlink:href="#CenturyGothic-Bold-30" transform="translate(56.005859 0)"/>
      </g>
     </g>
    </g>
    <g id="text_8">
     <!-- Months relative to 2022-09 (baseline = -1) -->
     <g transform="translate(137.529936 195.078842) scale(0.09 -0.09)">
      <defs>
       <path id="CenturyGothic-4d" d="M 350 0 
L 1003 4597 
L 1078 4597 
L 2947 825 
L 4797 4597 
L 4872 4597 
L 5531 0 
L 5078 0 
L 4628 3288 
L 3003 0 
L 2888 0 
L 1241 3313 
L 794 0 
L 350 0 
z
" transform="scale(0.015625)"/>
       <path id="CenturyGothic-6f" d="M 2097 3488 
Q 2881 3488 3397 2919 
Q 3866 2400 3866 1691 
Q 3866 978 3370 445 
Q 2875 -88 2097 -88 
Q 1316 -88 820 445 
Q 325 978 325 1691 
Q 325 2397 794 2916 
Q 1309 3488 2097 3488 
z
M 2097 3059 
Q 1553 3059 1162 2656 
Q 772 2253 772 1681 
Q 772 1313 950 994 
Q 1128 675 1431 501 
Q 1734 328 2097 328 
Q 2459 328 2762 501 
Q 3066 675 3244 994 
Q 3422 1313 3422 1681 
Q 3422 2253 3030 2656 
Q 2638 3059 2097 3059 
z
" transform="scale(0.015625)"/>
       <path id="CenturyGothic-6e" d="M 488 3400 
L 925 3400 
L 925 2791 
Q 1188 3141 1506 3314 
Q 1825 3488 2200 3488 
Q 2581 3488 2876 3294 
Q 3172 3100 3312 2772 
Q 3453 2444 3453 1750 
L 3453 0 
L 3019 0 
L 3019 1622 
Q 3019 2209 2969 2406 
Q 2891 2744 2675 2914 
Q 2459 3084 2113 3084 
Q 1716 3084 1402 2821 
Q 1088 2559 988 2172 
Q 925 1919 925 1247 
L 925 0 
L 488 0 
L 488 3400 
z
" transform="scale(0.015625)"/>
       <path id="CenturyGothic-74" d="M 869 4663 
L 1309 4663 
L 1309 3400 
L 2003 3400 
L 2003 3025 
L 1309 3025 
L 1309 0 
L 869 0 
L 869 3025 
L 272 3025 
L 272 3400 
L 869 3400 
L 869 4663 
z
" transform="scale(0.015625)"/>
       <path id="CenturyGothic-68" d="M 488 4713 
L 925 4713 
L 925 2791 
Q 1191 3141 1509 3314 
Q 1828 3488 2200 3488 
Q 2581 3488 2876 3294 
Q 3172 3100 3312 2773 
Q 3453 2447 3453 1750 
L 3453 0 
L 3016 0 
L 3016 1622 
Q 3016 2209 2969 2406 
Q 2888 2744 2673 2914 
Q 2459 3084 2113 3084 
Q 1716 3084 1402 2821 
Q 1088 2559 988 2172 
Q 925 1922 925 1247 
L 925 0 
L 488 0 
L 488 4713 
z
" transform="scale(0.015625)"/>
       <path id="CenturyGothic-73" d="M 2197 3028 
L 1916 2738 
Q 1566 3078 1231 3078 
Q 1019 3078 867 2937 
Q 716 2797 716 2609 
Q 716 2444 841 2294 
Q 966 2141 1366 1934 
Q 1853 1681 2028 1447 
Q 2200 1209 2200 913 
Q 2200 494 1906 203 
Q 1613 -88 1172 -88 
Q 878 -88 611 40 
Q 344 169 169 394 
L 444 706 
Q 778 328 1153 328 
Q 1416 328 1600 497 
Q 1784 666 1784 894 
Q 1784 1081 1663 1228 
Q 1541 1372 1113 1591 
Q 653 1828 488 2059 
Q 322 2291 322 2588 
Q 322 2975 586 3231 
Q 850 3488 1253 3488 
Q 1722 3488 2197 3028 
z
" transform="scale(0.015625)"/>
       <path id="CenturyGothic-20" transform="scale(0.015625)"/>
       <path id="CenturyGothic-72" d="M 322 3400 
L 769 3400 
L 769 2903 
Q 969 3197 1191 3342 
Q 1413 3488 1653 3488 
Q 1834 3488 2041 3372 
L 1813 3003 
Q 1675 3063 1581 3063 
Q 1363 3063 1159 2883 
Q 956 2703 850 2325 
Q 769 2034 769 1150 
L 769 0 
L 322 0 
L 322 3400 
z
" transform="scale(0.015625)"/>
       <path id="CenturyGothic-65" d="M 3350 1128 
L 3719 934 
Q 3538 578 3300 359 
Q 3063 141 2766 26 
Q 2469 -88 2094 -88 
Q 1263 -88 794 457 
Q 325 1003 325 1691 
Q 325 2338 722 2844 
Q 1225 3488 2069 3488 
Q 2938 3488 3456 2828 
Q 3825 2363 3831 1666 
L 775 1666 
Q 788 1072 1153 692 
Q 1519 313 2056 313 
Q 2316 313 2561 403 
Q 2806 494 2978 644 
Q 3150 794 3350 1128 
z
M 3350 2044 
Q 3263 2394 3095 2603 
Q 2928 2813 2653 2941 
Q 2378 3069 2075 3069 
Q 1575 3069 1216 2747 
Q 953 2513 819 2044 
L 3350 2044 
z
" transform="scale(0.015625)"/>
       <path id="CenturyGothic-6c" d="M 422 4713 
L 859 4713 
L 859 0 
L 422 0 
L 422 4713 
z
" transform="scale(0.015625)"/>
       <path id="CenturyGothic-61" d="M 3875 3400 
L 3875 0 
L 3444 0 
L 3444 584 
Q 3169 250 2826 81 
Q 2484 -88 2078 -88 
Q 1356 -88 845 435 
Q 334 959 334 1709 
Q 334 2444 850 2966 
Q 1366 3488 2091 3488 
Q 2509 3488 2848 3309 
Q 3188 3131 3444 2775 
L 3444 3400 
L 3875 3400 
z
M 2125 3066 
Q 1759 3066 1450 2886 
Q 1141 2706 958 2381 
Q 775 2056 775 1694 
Q 775 1334 959 1006 
Q 1144 678 1455 495 
Q 1766 313 2122 313 
Q 2481 313 2803 494 
Q 3125 675 3298 984 
Q 3472 1294 3472 1681 
Q 3472 2272 3083 2669 
Q 2694 3066 2125 3066 
z
" transform="scale(0.015625)"/>
       <path id="CenturyGothic-69" d="M 641 4800 
Q 791 4800 897 4694 
Q 1003 4588 1003 4438 
Q 1003 4291 897 4184 
Q 791 4078 641 4078 
Q 494 4078 387 4184 
Q 281 4291 281 4438 
Q 281 4588 387 4694 
Q 494 4800 641 4800 
z
M 422 3400 
L 863 3400 
L 863 0 
L 422 0 
L 422 3400 
z
" transform="scale(0.015625)"/>
       <path id="CenturyGothic-76" d="M 166 3400 
L 631 3400 
L 1769 925 
L 2897 3400 
L 3366 3400 
L 1809 0 
L 1731 0 
L 166 3400 
z
" transform="scale(0.015625)"/>
       <path id="CenturyGothic-32" d="M 741 3156 
L 300 3156 
Q 319 3838 755 4275 
Q 1191 4713 1831 4713 
Q 2466 4713 2858 4303 
Q 3250 3894 3250 3338 
Q 3250 2947 3062 2605 
Q 2875 2263 2334 1678 
L 1191 444 
L 3313 444 
L 3313 0 
L 191 0 
L 1947 1897 
Q 2481 2469 2642 2745 
Q 2803 3022 2803 3328 
Q 2803 3716 2514 3995 
Q 2225 4275 1806 4275 
Q 1366 4275 1073 3981 
Q 781 3688 741 3156 
z
" transform="scale(0.015625)"/>
       <path id="CenturyGothic-30" d="M 203 2297 
Q 203 3206 398 3703 
Q 594 4200 950 4456 
Q 1306 4713 1747 4713 
Q 2194 4713 2556 4455 
Q 2919 4197 3130 3681 
Q 3341 3166 3341 2297 
Q 3341 1431 3133 918 
Q 2925 406 2559 145 
Q 2194 -116 1747 -116 
Q 1306 -116 953 137 
Q 600 391 401 892 
Q 203 1394 203 2297 
z
M 638 2288 
Q 638 1509 777 1111 
Q 916 713 1187 506 
Q 1459 300 1763 300 
Q 2069 300 2334 501 
Q 2600 703 2738 1106 
Q 2909 1597 2909 2288 
Q 2909 2981 2756 3423 
Q 2603 3866 2333 4070 
Q 2063 4275 1763 4275 
Q 1456 4275 1187 4070 
Q 919 3866 778 3467 
Q 638 3069 638 2288 
z
" transform="scale(0.015625)"/>
       <path id="CenturyGothic-2d" d="M 203 1919 
L 1922 1919 
L 1922 1538 
L 203 1538 
L 203 1919 
z
" transform="scale(0.015625)"/>
       <path id="CenturyGothic-39" d="M 1228 -116 
L 850 128 
L 2091 2009 
Q 1841 1928 1622 1928 
Q 1075 1928 694 2323 
Q 313 2719 313 3297 
Q 313 3694 497 4012 
Q 681 4331 1020 4522 
Q 1359 4713 1747 4713 
Q 2128 4713 2451 4528 
Q 2775 4344 2959 4012 
Q 3144 3681 3144 3306 
Q 3144 3022 3030 2711 
Q 2916 2400 2622 1963 
L 1228 -116 
z
M 1728 2331 
Q 2131 2331 2414 2614 
Q 2697 2897 2697 3297 
Q 2697 3697 2414 3980 
Q 2131 4263 1728 4263 
Q 1328 4263 1045 3980 
Q 763 3697 763 3297 
Q 763 2897 1045 2614 
Q 1328 2331 1728 2331 
z
" transform="scale(0.015625)"/>
       <path id="CenturyGothic-28" d="M 1469 4800 
L 1975 4800 
Q 1669 4172 1484 3334 
Q 1300 2497 1300 1606 
Q 1300 781 1439 15 
Q 1578 -750 1822 -1331 
L 1341 -1331 
Q 1109 -775 971 -22 
Q 834 731 834 1547 
Q 834 2425 996 3258 
Q 1159 4091 1469 4800 
z
" transform="scale(0.015625)"/>
       <path id="CenturyGothic-62" d="M 516 0 
L 516 4713 
L 950 4713 
L 950 2816 
Q 1225 3153 1565 3320 
Q 1906 3488 2313 3488 
Q 3034 3488 3545 2964 
Q 4056 2441 4056 1694 
Q 4056 956 3540 434 
Q 3025 -88 2300 -88 
Q 1884 -88 1546 90 
Q 1209 269 950 625 
L 950 0 
L 516 0 
z
M 2266 334 
Q 2631 334 2940 514 
Q 3250 694 3433 1019 
Q 3616 1344 3616 1706 
Q 3616 2069 3431 2397 
Q 3247 2725 2936 2908 
Q 2625 3091 2272 3091 
Q 1913 3091 1589 2908 
Q 1266 2725 1092 2415 
Q 919 2106 919 1719 
Q 919 1128 1308 731 
Q 1697 334 2266 334 
z
" transform="scale(0.015625)"/>
       <path id="CenturyGothic-3d" d="M 3522 3200 
L 3522 2772 
L 359 2772 
L 359 3200 
L 3522 3200 
z
M 3522 1825 
L 3522 1397 
L 359 1397 
L 359 1825 
L 3522 1825 
z
" transform="scale(0.015625)"/>
       <path id="CenturyGothic-31" d="M 1184 4597 
L 2088 4597 
L 2088 0 
L 1631 0 
L 1631 4147 
L 909 4147 
L 1184 4597 
z
" transform="scale(0.015625)"/>
       <path id="CenturyGothic-29" d="M 894 -1331 
L 388 -1331 
Q 697 -703 880 134 
Q 1063 972 1063 1863 
Q 1063 2688 923 3453 
Q 784 4219 541 4800 
L 1022 4800 
Q 1256 4244 1392 3489 
Q 1528 2734 1528 1919 
Q 1528 1044 1365 211 
Q 1203 -622 894 -1331 
z
" transform="scale(0.015625)"/>
      </defs>
      <use xlink:href="#CenturyGothic-4d"/>
      <use xlink:href="#CenturyGothic-6f" transform="translate(91.894531 0)"/>
      <use xlink:href="#CenturyGothic-6e" transform="translate(157.373047 0)"/>
      <use xlink:href="#CenturyGothic-74" transform="translate(218.359375 0)"/>
      <use xlink:href="#CenturyGothic-68" transform="translate(252.246094 0)"/>
      <use xlink:href="#CenturyGothic-73" transform="translate(313.232422 0)"/>
      <use xlink:href="#CenturyGothic-20" transform="translate(352.050781 0)"/>
      <use xlink:href="#CenturyGothic-72" transform="translate(379.736328 0)"/>
      <use xlink:href="#CenturyGothic-65" transform="translate(409.814453 0)"/>
      <use xlink:href="#CenturyGothic-6c" transform="translate(474.804688 0)"/>
      <use xlink:href="#CenturyGothic-61" transform="translate(494.824219 0)"/>
      <use xlink:href="#CenturyGothic-74" transform="translate(563.134766 0)"/>
      <use xlink:href="#CenturyGothic-69" transform="translate(597.021484 0)"/>
      <use xlink:href="#CenturyGothic-76" transform="translate(617.041016 0)"/>
      <use xlink:href="#CenturyGothic-65" transform="translate(672.460938 0)"/>
      <use xlink:href="#CenturyGothic-20" transform="translate(737.451172 0)"/>
      <use xlink:href="#CenturyGothic-74" transform="translate(765.136719 0)"/>
      <use xlink:href="#CenturyGothic-6f" transform="translate(799.023438 0)"/>
      <use xlink:href="#CenturyGothic-20" transform="translate(864.501953 0)"/>
      <use xlink:href="#CenturyGothic-32" transform="translate(892.1875 0)"/>
      <use xlink:href="#CenturyGothic-30" transform="translate(947.607422 0)"/>
      <use xlink:href="#CenturyGothic-32" transform="translate(1003.027344 0)"/>
      <use xlink:href="#CenturyGothic-32" transform="translate(1058.447266 0)"/>
      <use xlink:href="#CenturyGothic-2d" transform="translate(1113.867188 0)"/>
      <use xlink:href="#CenturyGothic-30" transform="translate(1147.070312 0)"/>
      <use xlink:href="#CenturyGothic-39" transform="translate(1202.490234 0)"/>
      <use xlink:href="#CenturyGothic-20" transform="translate(1257.910156 0)"/>
      <use xlink:href="#CenturyGothic-28" transform="translate(1285.595703 0)"/>
      <use xlink:href="#CenturyGothic-62" transform="translate(1322.509766 0)"/>
      <use xlink:href="#CenturyGothic-61" transform="translate(1390.722656 0)"/>
      <use xlink:href="#CenturyGothic-73" transform="translate(1459.033203 0)"/>
      <use xlink:href="#CenturyGothic-65" transform="translate(1497.851562 0)"/>
      <use xlink:href="#CenturyGothic-6c" transform="translate(1562.841797 0)"/>
      <use xlink:href="#CenturyGothic-69" transform="translate(1582.861328 0)"/>
      <use xlink:href="#CenturyGothic-6e" transform="translate(1602.880859 0)"/>
      <use xlink:href="#CenturyGothic-65" transform="translate(1663.867188 0)"/>
      <use xlink:href="#CenturyGothic-20" transform="translate(1728.857422 0)"/>
      <use xlink:href="#CenturyGothic-3d" transform="translate(1756.542969 0)"/>
      <use xlink:href="#CenturyGothic-20" transform="translate(1817.138672 0)"/>
      <use xlink:href="#CenturyGothic-2d" transform="translate(1844.824219 0)"/>
      <use xlink:href="#CenturyGothic-31" transform="translate(1878.027344 0)"/>
      <use xlink:href="#CenturyGothic-29" transform="translate(1933.447266 0)"/>
     </g>
    </g>
   </g>
   <g id="matplotlib.axis_2">
    <g id="ytick_1">
     <g id="line2d_8">
      <path d="M 51.09 165.284382 
L 401.303622 165.284382 
" clip-path="url(#pf39189ee55)" style="fill: none; stroke: #cccccc; stroke-linecap: square"/>
     </g>
     <g id="line2d_9">
      <defs>
       <path id="mb76f49c23b" d="M 0 0 
L -3 0 
" style="stroke: #404040"/>
      </defs>
      <g>
       <use xlink:href="#mb76f49c23b" x="51.09" y="165.284382" style="fill: #404040; stroke: #404040"/>
      </g>
     </g>
     <g id="text_9">
      <!-- −0.10 -->
      <g style="fill: #4d4d4d" transform="translate(21.55 168.59821) scale(0.09 -0.09)">
       <defs>
        <path id="CenturyGothic-Bold-2e" d="M 897 891 
Q 1100 891 1244 748 
Q 1388 606 1388 403 
Q 1388 200 1244 56 
Q 1100 -88 897 -88 
Q 694 -88 550 56 
Q 406 200 406 403 
Q 406 606 550 748 
Q 694 891 897 891 
z
" transform="scale(0.015625)"/>
       </defs>
       <use xlink:href="#CenturyGothic-Bold-2212"/>
       <use xlink:href="#CenturyGothic-Bold-30" transform="translate(60.009766 0)"/>
       <use xlink:href="#CenturyGothic-Bold-2e" transform="translate(116.015625 0)"/>
       <use xlink:href="#CenturyGothic-Bold-31" transform="translate(143.994141 0)"/>
       <use xlink:href="#CenturyGothic-Bold-30" transform="translate(200 0)"/>
      </g>
     </g>
    </g>
    <g id="ytick_2">
     <g id="line2d_10">
      <path d="M 51.09 141.870699 
L 401.303622 141.870699 
" clip-path="url(#pf39189ee55)" style="fill: none; stroke: #cccccc; stroke-linecap: square"/>
     </g>
     <g id="line2d_11">
      <g>
       <use xlink:href="#mb76f49c23b" x="51.09" y="141.870699" style="fill: #404040; stroke: #404040"/>
      </g>
     </g>
     <g id="text_10">
      <!-- −0.05 -->
      <g style="fill: #4d4d4d" transform="translate(21.55 145.184527) scale(0.09 -0.09)">
       <defs>
        <path id="CenturyGothic-Bold-35" d="M 1069 4597 
L 3222 4597 
L 3222 3791 
L 1722 3791 
L 1534 2953 
Q 1613 2975 1688 2986 
Q 1763 2997 1831 2997 
Q 2456 2997 2870 2570 
Q 3284 2144 3284 1478 
Q 3284 806 2826 345 
Q 2369 -116 1713 -116 
Q 1125 -116 703 218 
Q 281 553 150 1134 
L 1069 1134 
Q 1175 919 1348 808 
Q 1522 697 1731 697 
Q 2022 697 2225 906 
Q 2428 1116 2428 1444 
Q 2428 1763 2239 1967 
Q 2050 2172 1781 2172 
Q 1638 2172 1498 2100 
Q 1359 2028 1225 1884 
L 513 2044 
L 1069 4597 
z
" transform="scale(0.015625)"/>
       </defs>
       <use xlink:href="#CenturyGothic-Bold-2212"/>
       <use xlink:href="#CenturyGothic-Bold-30" transform="translate(60.009766 0)"/>
       <use xlink:href="#CenturyGothic-Bold-2e" transform="translate(116.015625 0)"/>
       <use xlink:href="#CenturyGothic-Bold-30" transform="translate(143.994141 0)"/>
       <use xlink:href="#CenturyGothic-Bold-35" transform="translate(200 0)"/>
      </g>
     </g>
    </g>
    <g id="ytick_3">
     <g id="line2d_12">
      <path d="M 51.09 118.457015 
L 401.303622 118.457015 
" clip-path="url(#pf39189ee55)" style="fill: none; stroke: #cccccc; stroke-linecap: square"/>
     </g>
     <g id="line2d_13">
      <g>
       <use xlink:href="#mb76f49c23b" x="51.09" y="118.457015" style="fill: #404040; stroke: #404040"/>
      </g>
     </g>
     <g id="text_11">
      <!-- 0.00 -->
      <g style="fill: #4d4d4d" transform="translate(26.951406 121.770844) scale(0.09 -0.09)">
       <use xlink:href="#CenturyGothic-Bold-30"/>
       <use xlink:href="#CenturyGothic-Bold-2e" transform="translate(56.005859 0)"/>
       <use xlink:href="#CenturyGothic-Bold-30" transform="translate(83.984375 0)"/>
       <use xlink:href="#CenturyGothic-Bold-30" transform="translate(139.990234 0)"/>
      </g>
     </g>
    </g>
    <g id="ytick_4">
     <g id="line2d_14">
      <path d="M 51.09 95.043332 
L 401.303622 95.043332 
" clip-path="url(#pf39189ee55)" style="fill: none; stroke: #cccccc; stroke-linecap: square"/>
     </g>
     <g id="line2d_15">
      <g>
       <use xlink:href="#mb76f49c23b" x="51.09" y="95.043332" style="fill: #404040; stroke: #404040"/>
      </g>
     </g>
     <g id="text_12">
      <!-- 0.05 -->
      <g style="fill: #4d4d4d" transform="translate(26.951406 98.35716) scale(0.09 -0.09)">
       <use xlink:href="#CenturyGothic-Bold-30"/>
       <use xlink:href="#CenturyGothic-Bold-2e" transform="translate(56.005859 0)"/>
       <use xlink:href="#CenturyGothic-Bold-30" transform="translate(83.984375 0)"/>
       <use xlink:href="#CenturyGothic-Bold-35" transform="translate(139.990234 0)"/>
      </g>
     </g>
    </g>
    <g id="ytick_5">
     <g id="line2d_16">
      <path d="M 51.09 71.629649 
L 401.303622 71.629649 
" clip-path="url(#pf39189ee55)" style="fill: none; stroke: #cccccc; stroke-linecap: square"/>
     </g>
     <g id="line2d_17">
      <g>
       <use xlink:href="#mb76f49c23b" x="51.09" y="71.629649" style="fill: #404040; stroke: #404040"/>
      </g>
     </g>
     <g id="text_13">
      <!-- 0.10 -->
      <g style="fill: #4d4d4d" transform="translate(26.951406 74.943477) scale(0.09 -0.09)">
       <use xlink:href="#CenturyGothic-Bold-30"/>
       <use xlink:href="#CenturyGothic-Bold-2e" transform="translate(56.005859 0)"/>
       <use xlink:href="#CenturyGothic-Bold-31" transform="translate(83.984375 0)"/>
       <use xlink:href="#CenturyGothic-Bold-30" transform="translate(139.990234 0)"/>
      </g>
     </g>
    </g>
    <g id="ytick_6">
     <g id="line2d_18">
      <path d="M 51.09 48.215966 
L 401.303622 48.215966 
" clip-path="url(#pf39189ee55)" style="fill: none; stroke: #cccccc; stroke-linecap: square"/>
     </g>
     <g id="line2d_19">
      <g>
       <use xlink:href="#mb76f49c23b" x="51.09" y="48.215966" style="fill: #404040; stroke: #404040"/>
      </g>
     </g>
     <g id="text_14">
      <!-- 0.15 -->
      <g style="fill: #4d4d4d" transform="translate(26.951406 51.529794) scale(0.09 -0.09)">
       <use xlink:href="#CenturyGothic-Bold-30"/>
       <use xlink:href="#CenturyGothic-Bold-2e" transform="translate(56.005859 0)"/>
       <use xlink:href="#CenturyGothic-Bold-31" transform="translate(83.984375 0)"/>
       <use xlink:href="#CenturyGothic-Bold-35" transform="translate(139.990234 0)"/>
      </g>
     </g>
    </g>
    <g id="ytick_7">
     <g id="line2d_20">
      <path d="M 51.09 24.802283 
L 401.303622 24.802283 
" clip-path="url(#pf39189ee55)" style="fill: none; stroke: #cccccc; stroke-linecap: square"/>
     </g>
     <g id="line2d_21">
      <g>
       <use xlink:href="#mb76f49c23b" x="51.09" y="24.802283" style="fill: #404040; stroke: #404040"/>
      </g>
     </g>
     <g id="text_15">
      <!-- 0.20 -->
      <g style="fill: #4d4d4d" transform="translate(26.951406 28.116111) scale(0.09 -0.09)">
       <use xlink:href="#CenturyGothic-Bold-30"/>
       <use xlink:href="#CenturyGothic-Bold-2e" transform="translate(56.005859 0)"/>
       <use xlink:href="#CenturyGothic-Bold-32" transform="translate(83.984375 0)"/>
       <use xlink:href="#CenturyGothic-Bold-30" transform="translate(139.990234 0)"/>
      </g>
     </g>
    </g>
    <g id="text_16">
     <!-- Effect on log registered unemployment -->
     <g transform="translate(15.678281 174.866531) rotate(-90) scale(0.09 -0.09)">
      <defs>
       <path id="CenturyGothic-45" d="M 563 4597 
L 3197 4597 
L 3197 4144 
L 1022 4144 
L 1022 2706 
L 3178 2706 
L 3178 2256 
L 1022 2256 
L 1022 453 
L 3178 453 
L 3178 0 
L 563 0 
L 563 4597 
z
" transform="scale(0.015625)"/>
       <path id="CenturyGothic-66" d="M 1888 4713 
L 1888 4284 
Q 1647 4388 1475 4388 
Q 1347 4388 1262 4336 
Q 1178 4284 1156 4217 
Q 1134 4150 1134 3859 
L 1134 3400 
L 1844 3400 
L 1844 3025 
L 1131 3025 
L 1131 0 
L 694 0 
L 694 3025 
L 247 3025 
L 247 3400 
L 694 3400 
L 694 3931 
Q 694 4297 761 4453 
Q 828 4609 989 4704 
Q 1150 4800 1378 4800 
Q 1591 4800 1888 4713 
z
" transform="scale(0.015625)"/>
       <path id="CenturyGothic-63" d="M 3788 2694 
L 3441 2478 
Q 2991 3075 2213 3075 
Q 1591 3075 1180 2675 
Q 769 2275 769 1703 
Q 769 1331 958 1003 
Q 1147 675 1476 494 
Q 1806 313 2216 313 
Q 2966 313 3441 909 
L 3788 681 
Q 3544 316 3133 114 
Q 2722 -88 2197 -88 
Q 1391 -88 859 425 
Q 328 938 328 1672 
Q 328 2166 576 2589 
Q 825 3013 1259 3250 
Q 1694 3488 2231 3488 
Q 2569 3488 2883 3384 
Q 3197 3281 3415 3115 
Q 3634 2950 3788 2694 
z
" transform="scale(0.015625)"/>
       <path id="CenturyGothic-67" d="M 3416 3400 
L 3856 3400 
L 3856 691 
Q 3856 -25 3731 -356 
Q 3559 -825 3134 -1078 
Q 2709 -1331 2113 -1331 
Q 1675 -1331 1326 -1207 
Q 978 -1084 759 -876 
Q 541 -669 356 -269 
L 831 -269 
Q 1025 -606 1331 -768 
Q 1638 -931 2091 -931 
Q 2538 -931 2845 -764 
Q 3153 -597 3284 -344 
Q 3416 -91 3416 472 
L 3416 647 
Q 3169 334 2812 167 
Q 2456 0 2056 0 
Q 1588 0 1175 233 
Q 763 466 538 859 
Q 313 1253 313 1725 
Q 313 2197 547 2605 
Q 781 3013 1195 3250 
Q 1609 3488 2069 3488 
Q 2450 3488 2779 3330 
Q 3109 3172 3416 2809 
L 3416 3400 
z
M 2125 3066 
Q 1753 3066 1434 2886 
Q 1116 2706 934 2389 
Q 753 2072 753 1703 
Q 753 1144 1128 778 
Q 1503 413 2100 413 
Q 2703 413 3070 775 
Q 3438 1138 3438 1728 
Q 3438 2113 3269 2414 
Q 3100 2716 2790 2891 
Q 2481 3066 2125 3066 
z
" transform="scale(0.015625)"/>
       <path id="CenturyGothic-64" d="M 3881 4713 
L 3881 0 
L 3450 0 
L 3450 584 
Q 3175 250 2833 81 
Q 2491 -88 2084 -88 
Q 1363 -88 852 435 
Q 341 959 341 1709 
Q 341 2444 856 2966 
Q 1372 3488 2097 3488 
Q 2516 3488 2855 3309 
Q 3194 3131 3450 2775 
L 3450 4713 
L 3881 4713 
z
M 2131 3066 
Q 1766 3066 1456 2886 
Q 1147 2706 964 2381 
Q 781 2056 781 1694 
Q 781 1334 965 1006 
Q 1150 678 1461 495 
Q 1772 313 2128 313 
Q 2488 313 2809 494 
Q 3131 675 3304 984 
Q 3478 1294 3478 1681 
Q 3478 2272 3089 2669 
Q 2700 3066 2131 3066 
z
" transform="scale(0.015625)"/>
       <path id="CenturyGothic-75" d="M 431 3400 
L 872 3400 
L 872 1813 
Q 872 1231 934 1013 
Q 1028 700 1292 519 
Q 1556 338 1922 338 
Q 2288 338 2542 514 
Q 2797 691 2894 978 
Q 2959 1175 2959 1813 
L 2959 3400 
L 3406 3400 
L 3406 1731 
Q 3406 1028 3242 672 
Q 3078 316 2748 114 
Q 2419 -88 1922 -88 
Q 1425 -88 1092 114 
Q 759 316 595 677 
Q 431 1038 431 1763 
L 431 3400 
z
" transform="scale(0.015625)"/>
       <path id="CenturyGothic-6d" d="M 484 3400 
L 919 3400 
L 919 2813 
Q 1147 3138 1388 3288 
Q 1719 3488 2084 3488 
Q 2331 3488 2553 3391 
Q 2775 3294 2915 3133 
Q 3056 2972 3159 2672 
Q 3378 3072 3706 3280 
Q 4034 3488 4413 3488 
Q 4766 3488 5036 3309 
Q 5306 3131 5437 2812 
Q 5569 2494 5569 1856 
L 5569 0 
L 5122 0 
L 5122 1856 
Q 5122 2403 5044 2608 
Q 4966 2813 4777 2938 
Q 4588 3063 4325 3063 
Q 4006 3063 3742 2875 
Q 3478 2688 3356 2375 
Q 3234 2063 3234 1331 
L 3234 0 
L 2800 0 
L 2800 1741 
Q 2800 2356 2723 2576 
Q 2647 2797 2456 2930 
Q 2266 3063 2003 3063 
Q 1700 3063 1436 2880 
Q 1172 2697 1045 2387 
Q 919 2078 919 1441 
L 919 0 
L 484 0 
L 484 3400 
z
" transform="scale(0.015625)"/>
       <path id="CenturyGothic-70" d="M 494 3400 
L 928 3400 
L 928 2775 
Q 1188 3131 1525 3309 
Q 1863 3488 2278 3488 
Q 3003 3488 3518 2966 
Q 4034 2444 4034 1709 
Q 4034 959 3523 435 
Q 3013 -88 2291 -88 
Q 1884 -88 1543 81 
Q 1203 250 928 584 
L 928 -1244 
L 494 -1244 
L 494 3400 
z
M 2244 3066 
Q 1675 3066 1286 2669 
Q 897 2272 897 1681 
Q 897 1294 1070 984 
Q 1244 675 1567 494 
Q 1891 313 2250 313 
Q 2603 313 2914 495 
Q 3225 678 3409 1006 
Q 3594 1334 3594 1694 
Q 3594 2056 3411 2381 
Q 3228 2706 2918 2886 
Q 2609 3066 2244 3066 
z
" transform="scale(0.015625)"/>
       <path id="CenturyGothic-79" d="M 122 3400 
L 584 3400 
L 1753 781 
L 2888 3400 
L 3353 3400 
L 1325 -1244 
L 863 -1244 
L 1519 256 
L 122 3400 
z
" transform="scale(0.015625)"/>
      </defs>
      <use xlink:href="#CenturyGothic-45"/>
      <use xlink:href="#CenturyGothic-66" transform="translate(53.613281 0)"/>
      <use xlink:href="#CenturyGothic-66" transform="translate(85.009766 0)"/>
      <use xlink:href="#CenturyGothic-65" transform="translate(116.40625 0)"/>
      <use xlink:href="#CenturyGothic-63" transform="translate(181.396484 0)"/>
      <use xlink:href="#CenturyGothic-74" transform="translate(246.09375 0)"/>
      <use xlink:href="#CenturyGothic-20" transform="translate(279.980469 0)"/>
      <use xlink:href="#CenturyGothic-6f" transform="translate(307.666016 0)"/>
      <use xlink:href="#CenturyGothic-6e" transform="translate(373.144531 0)"/>
      <use xlink:href="#CenturyGothic-20" transform="translate(434.130859 0)"/>
      <use xlink:href="#CenturyGothic-6c" transform="translate(461.816406 0)"/>
      <use xlink:href="#CenturyGothic-6f" transform="translate(481.835938 0)"/>
      <use xlink:href="#CenturyGothic-67" transform="translate(547.314453 0)"/>
      <use xlink:href="#CenturyGothic-20" transform="translate(614.599609 0)"/>
      <use xlink:href="#CenturyGothic-72" transform="translate(642.285156 0)"/>
      <use xlink:href="#CenturyGothic-65" transform="translate(672.363281 0)"/>
      <use xlink:href="#CenturyGothic-67" transform="translate(737.353516 0)"/>
      <use xlink:href="#CenturyGothic-69" transform="translate(804.638672 0)"/>
      <use xlink:href="#CenturyGothic-73" transform="translate(824.658203 0)"/>
      <use xlink:href="#CenturyGothic-74" transform="translate(863.476562 0)"/>
      <use xlink:href="#CenturyGothic-65" transform="translate(897.363281 0)"/>
      <use xlink:href="#CenturyGothic-72" transform="translate(962.353516 0)"/>
      <use xlink:href="#CenturyGothic-65" transform="translate(992.431641 0)"/>
      <use xlink:href="#CenturyGothic-64" transform="translate(1057.421875 0)"/>
      <use xlink:href="#CenturyGothic-20" transform="translate(1125.927734 0)"/>
      <use xlink:href="#CenturyGothic-75" transform="translate(1153.613281 0)"/>
      <use xlink:href="#CenturyGothic-6e" transform="translate(1214.404297 0)"/>
      <use xlink:href="#CenturyGothic-65" transform="translate(1275.390625 0)"/>
      <use xlink:href="#CenturyGothic-6d" transform="translate(1340.380859 0)"/>
      <use xlink:href="#CenturyGothic-70" transform="translate(1434.179688 0)"/>
      <use xlink:href="#CenturyGothic-6c" transform="translate(1502.392578 0)"/>
      <use xlink:href="#CenturyGothic-6f" transform="translate(1522.412109 0)"/>
      <use xlink:href="#CenturyGothic-79" transform="translate(1587.890625 0)"/>
      <use xlink:href="#CenturyGothic-6d" transform="translate(1641.503906 0)"/>
      <use xlink:href="#CenturyGothic-65" transform="translate(1735.302734 0)"/>
      <use xlink:href="#CenturyGothic-6e" transform="translate(1800.292969 0)"/>
      <use xlink:href="#CenturyGothic-74" transform="translate(1861.279297 0)"/>
     </g>
    </g>
   </g>
   <g id="line2d_22">
    <path d="M 51.09 118.457015 
L 401.303622 118.457015 
" clip-path="url(#pf39189ee55)" style="fill: none; stroke: #404040; stroke-width: 0.9; stroke-linecap: square"/>
   </g>
   <g id="line2d_23">
    <path d="M 167.143194 169.451811 
L 167.143194 9.72 
" clip-path="url(#pf39189ee55)" style="fill: none; stroke-dasharray: 3.7,1.6; stroke-dashoffset: 0; stroke: #404040"/>
   </g>
   <g id="line2d_24">
    <path d="M 67.008801 136.905315 
L 72.143898 138.26188 
L 77.278995 134.96651 
L 82.414092 139.015528 
L 87.549189 140.645184 
L 92.684286 133.442398 
L 97.819384 121.41078 
L 102.954481 117.231983 
L 108.089578 124.200401 
L 113.224675 133.471082 
L 118.359772 136.002389 
L 123.494869 147.101983 
L 128.629966 141.788416 
L 133.765063 143.512597 
L 138.90016 148.00045 
L 144.035257 150.731007 
L 149.170355 146.513089 
L 154.305452 141.33999 
L 159.440549 123.916646 
L 164.575646 118.457015 
L 169.710743 127.859634 
L 174.84584 124.994758 
L 179.980937 127.36498 
L 185.116034 126.446992 
L 190.251131 126.256613 
L 195.386228 122.25162 
L 200.521326 118.010176 
L 205.656423 117.455639 
L 210.79152 114.049609 
L 215.926617 107.802264 
L 221.061714 94.316991 
L 226.196811 88.184688 
L 231.331908 90.875928 
L 236.467005 95.001026 
L 241.602102 97.395947 
L 246.737199 98.198313 
L 251.872297 100.185909 
L 257.007394 101.985763 
L 262.142491 100.889218 
L 267.277588 99.209067 
L 272.412685 99.434288 
L 277.547782 97.12951 
L 282.682879 85.044978 
L 287.817976 77.048033 
L 292.953073 82.455536 
L 298.08817 85.079221 
L 303.223267 84.835383 
L 308.358365 88.246238 
L 313.493462 88.082097 
L 318.628559 81.486786 
L 323.763656 81.618229 
L 328.898753 81.030955 
L 334.03385 76.571779 
L 339.168947 69.935001 
L 344.304044 53.09814 
L 349.439141 49.590717 
L 354.574238 51.433323 
L 359.709336 58.596265 
L 364.844433 59.073651 
L 369.97953 66.036501 
L 375.114627 63.67073 
L 380.249724 58.514449 
L 385.384821 50.4221 
" clip-path="url(#pf39189ee55)" style="fill: none; stroke: #83082a; stroke-width: 1.6; stroke-linecap: square"/>
    <defs>
     <path id="m3e30936c30" d="M 0 1.6 
C 0.424325 1.6 0.831328 1.431414 1.131371 1.131371 
C 1.431414 0.831328 1.6 0.424325 1.6 0 
C 1.6 -0.424325 1.431414 -0.831328 1.131371 -1.131371 
C 0.831328 -1.431414 0.424325 -1.6 0 -1.6 
C -0.424325 -1.6 -0.831328 -1.431414 -1.131371 -1.131371 
C -1.431414 -0.831328 -1.6 -0.424325 -1.6 0 
C -1.6 0.424325 -1.431414 0.831328 -1.131371 1.131371 
C -0.831328 1.431414 -0.424325 1.6 0 1.6 
z
" style="stroke: #83082a"/>
    </defs>
    <g clip-path="url(#pf39189ee55)">
     <use xlink:href="#m3e30936c30" x="67.008801" y="136.905315" style="fill: #83082a; stroke: #83082a"/>
     <use xlink:href="#m3e30936c30" x="72.143898" y="138.26188" style="fill: #83082a; stroke: #83082a"/>
     <use xlink:href="#m3e30936c30" x="77.278995" y="134.96651" style="fill: #83082a; stroke: #83082a"/>
     <use xlink:href="#m3e30936c30" x="82.414092" y="139.015528" style="fill: #83082a; stroke: #83082a"/>
     <use xlink:href="#m3e30936c30" x="87.549189" y="140.645184" style="fill: #83082a; stroke: #83082a"/>
     <use xlink:href="#m3e30936c30" x="92.684286" y="133.442398" style="fill: #83082a; stroke: #83082a"/>
     <use xlink:href="#m3e30936c30" x="97.819384" y="121.41078" style="fill: #83082a; stroke: #83082a"/>
     <use xlink:href="#m3e30936c30" x="102.954481" y="117.231983" style="fill: #83082a; stroke: #83082a"/>
     <use xlink:href="#m3e30936c30" x="108.089578" y="124.200401" style="fill: #83082a; stroke: #83082a"/>
     <use xlink:href="#m3e30936c30" x="113.224675" y="133.471082" style="fill: #83082a; stroke: #83082a"/>
     <use xlink:href="#m3e30936c30" x="118.359772" y="136.002389" style="fill: #83082a; stroke: #83082a"/>
     <use xlink:href="#m3e30936c30" x="123.494869" y="147.101983" style="fill: #83082a; stroke: #83082a"/>
     <use xlink:href="#m3e30936c30" x="128.629966" y="141.788416" style="fill: #83082a; stroke: #83082a"/>
     <use xlink:href="#m3e30936c30" x="133.765063" y="143.512597" style="fill: #83082a; stroke: #83082a"/>
     <use xlink:href="#m3e30936c30" x="138.90016" y="148.00045" style="fill: #83082a; stroke: #83082a"/>
     <use xlink:href="#m3e30936c30" x="144.035257" y="150.731007" style="fill: #83082a; stroke: #83082a"/>
     <use xlink:href="#m3e30936c30" x="149.170355" y="146.513089" style="fill: #83082a; stroke: #83082a"/>
     <use xlink:href="#m3e30936c30" x="154.305452" y="141.33999" style="fill: #83082a; stroke: #83082a"/>
     <use xlink:href="#m3e30936c30" x="159.440549" y="123.916646" style="fill: #83082a; stroke: #83082a"/>
     <use xlink:href="#m3e30936c30" x="164.575646" y="118.457015" style="fill: #83082a; stroke: #83082a"/>
     <use xlink:href="#m3e30936c30" x="169.710743" y="127.859634" style="fill: #83082a; stroke: #83082a"/>
     <use xlink:href="#m3e30936c30" x="174.84584" y="124.994758" style="fill: #83082a; stroke: #83082a"/>
     <use xlink:href="#m3e30936c30" x="179.980937" y="127.36498" style="fill: #83082a; stroke: #83082a"/>
     <use xlink:href="#m3e30936c30" x="185.116034" y="126.446992" style="fill: #83082a; stroke: #83082a"/>
     <use xlink:href="#m3e30936c30" x="190.251131" y="126.256613" style="fill: #83082a; stroke: #83082a"/>
     <use xlink:href="#m3e30936c30" x="195.386228" y="122.25162" style="fill: #83082a; stroke: #83082a"/>
     <use xlink:href="#m3e30936c30" x="200.521326" y="118.010176" style="fill: #83082a; stroke: #83082a"/>
     <use xlink:href="#m3e30936c30" x="205.656423" y="117.455639" style="fill: #83082a; stroke: #83082a"/>
     <use xlink:href="#m3e30936c30" x="210.79152" y="114.049609" style="fill: #83082a; stroke: #83082a"/>
     <use xlink:href="#m3e30936c30" x="215.926617" y="107.802264" style="fill: #83082a; stroke: #83082a"/>
     <use xlink:href="#m3e30936c30" x="221.061714" y="94.316991" style="fill: #83082a; stroke: #83082a"/>
     <use xlink:href="#m3e30936c30" x="226.196811" y="88.184688" style="fill: #83082a; stroke: #83082a"/>
     <use xlink:href="#m3e30936c30" x="231.331908" y="90.875928" style="fill: #83082a; stroke: #83082a"/>
     <use xlink:href="#m3e30936c30" x="236.467005" y="95.001026" style="fill: #83082a; stroke: #83082a"/>
     <use xlink:href="#m3e30936c30" x="241.602102" y="97.395947" style="fill: #83082a; stroke: #83082a"/>
     <use xlink:href="#m3e30936c30" x="246.737199" y="98.198313" style="fill: #83082a; stroke: #83082a"/>
     <use xlink:href="#m3e30936c30" x="251.872297" y="100.185909" style="fill: #83082a; stroke: #83082a"/>
     <use xlink:href="#m3e30936c30" x="257.007394" y="101.985763" style="fill: #83082a; stroke: #83082a"/>
     <use xlink:href="#m3e30936c30" x="262.142491" y="100.889218" style="fill: #83082a; stroke: #83082a"/>
     <use xlink:href="#m3e30936c30" x="267.277588" y="99.209067" style="fill: #83082a; stroke: #83082a"/>
     <use xlink:href="#m3e30936c30" x="272.412685" y="99.434288" style="fill: #83082a; stroke: #83082a"/>
     <use xlink:href="#m3e30936c30" x="277.547782" y="97.12951" style="fill: #83082a; stroke: #83082a"/>
     <use xlink:href="#m3e30936c30" x="282.682879" y="85.044978" style="fill: #83082a; stroke: #83082a"/>
     <use xlink:href="#m3e30936c30" x="287.817976" y="77.048033" style="fill: #83082a; stroke: #83082a"/>
     <use xlink:href="#m3e30936c30" x="292.953073" y="82.455536" style="fill: #83082a; stroke: #83082a"/>
     <use xlink:href="#m3e30936c30" x="298.08817" y="85.079221" style="fill: #83082a; stroke: #83082a"/>
     <use xlink:href="#m3e30936c30" x="303.223267" y="84.835383" style="fill: #83082a; stroke: #83082a"/>
     <use xlink:href="#m3e30936c30" x="308.358365" y="88.246238" style="fill: #83082a; stroke: #83082a"/>
     <use xlink:href="#m3e30936c30" x="313.493462" y="88.082097" style="fill: #83082a; stroke: #83082a"/>
     <use xlink:href="#m3e30936c30" x="318.628559" y="81.486786" style="fill: #83082a; stroke: #83082a"/>
     <use xlink:href="#m3e30936c30" x="323.763656" y="81.618229" style="fill: #83082a; stroke: #83082a"/>
     <use xlink:href="#m3e30936c30" x="328.898753" y="81.030955" style="fill: #83082a; stroke: #83082a"/>
     <use xlink:href="#m3e30936c30" x="334.03385" y="76.571779" style="fill: #83082a; stroke: #83082a"/>
     <use xlink:href="#m3e30936c30" x="339.168947" y="69.935001" style="fill: #83082a; stroke: #83082a"/>
     <use xlink:href="#m3e30936c30" x="344.304044" y="53.09814" style="fill: #83082a; stroke: #83082a"/>
     <use xlink:href="#m3e30936c30" x="349.439141" y="49.590717" style="fill: #83082a; stroke: #83082a"/>
     <use xlink:href="#m3e30936c30" x="354.574238" y="51.433323" style="fill: #83082a; stroke: #83082a"/>
     <use xlink:href="#m3e30936c30" x="359.709336" y="58.596265" style="fill: #83082a; stroke: #83082a"/>
     <use xlink:href="#m3e30936c30" x="364.844433" y="59.073651" style="fill: #83082a; stroke: #83082a"/>
     <use xlink:href="#m3e30936c30" x="369.97953" y="66.036501" style="fill: #83082a; stroke: #83082a"/>
     <use xlink:href="#m3e30936c30" x="375.114627" y="63.67073" style="fill: #83082a; stroke: #83082a"/>
     <use xlink:href="#m3e30936c30" x="380.249724" y="58.514449" style="fill: #83082a; stroke: #83082a"/>
     <use xlink:href="#m3e30936c30" x="385.384821" y="50.4221" style="fill: #83082a; stroke: #83082a"/>
    </g>
   </g>
   <g id="patch_3">
    <path d="M 51.09 169.451811 
L 51.09 9.72 
" style="fill: none; stroke: #404040; stroke-linejoin: miter; stroke-linecap: square"/>
   </g>
   <g id="patch_4">
    <path d="M 51.09 169.451811 
L 401.303622 169.451811 
" style="fill: none; stroke: #404040; stroke-linejoin: miter; stroke-linecap: square"/>
   </g>
  </g>
 </g>
 <defs>
  <clipPath id="pf39189ee55">
   <rect x="51.09" y="9.72" width="350.213622" height="159.731811"/>
  </clipPath>
 </defs>
</svg>
