<?xml version="1.0" encoding="utf-8" standalone="no"?>
<!DOCTYPE svg PUBLIC "-//W3C//DTD SVG 1.1//EN"
  "http://www.w3.org/Graphics/SVG/1.1/DTD/svg11.dtd">
<svg xmlns:xlink="http://www.w3.org/1999/xlink" width="411.023622pt" height="205.511811pt" viewBox="0 0 411.023622 205.511811" xmlns="http://www.w3.org/2000/svg" version="1.1">
 <metadata>
  <rdf:RDF xmlns:dc="http://purl.org/dc/elements/1.1/" xmlns:cc="http://creativecommons.org/ns#" xmlns:rdf="http://www.w3.org/1999/02/22-rdf-syntax-ns#">
   <cc:Work>
    <dc:type rdf:resource="http://purl.org/dc/dcmitype/StillImage"/>
    <dc:date>2026-06-04T09:42:16.888596</dc:date>
    <dc:format>image/svg+xml</dc:format>
    <dc:creator>
     <cc:Agent>
      <dc:title>Matplotlib v3.10.8, https://matplotlib.org/</dc:title>
     </cc:Agent>
    </dc:creator>
   </cc:Work>
  </rdf:RDF>
 </metadata>
 <defs>
  <style type="text/css">*{stroke-linejoin: round; stroke-linecap: butt}</style>
 </defs>
 <g id="figure_1">
  <g id="patch_1">
   <path d="M 0 205.511811 
L 411.023622 205.511811 
L 411.023622 0 
L 0 0 
z
" style="fill: #ffffff"/>
  </g>
  <g id="axes_1">
   <g id="patch_2">
    <path d="M 45.96 169.451811 
L 401.303622 169.451811 
L 401.303622 9.72 
L 45.96 9.72 
z
" style="fill: #ffffff"/>
   </g>
   <g id="FillBetweenPolyCollection_1">
    <defs>
     <path id="m19a98cc9bb" d="M 62.111983 -75.15198 
L 62.111983 -44.947571 
L 67.3223 -45.205585 
L 72.532617 -46.710536 
L 77.742934 -44.193082 
L 82.953251 -43.320537 
L 88.163568 -50.796551 
L 93.373885 -71.409407 
L 98.584202 -77.648821 
L 103.794519 -69.765359 
L 109.004836 -62.93395 
L 114.215153 -60.566333 
L 119.42547 -49.248684 
L 124.635787 -52.304244 
L 129.846104 -48.417268 
L 135.056421 -44.036123 
L 140.266738 -45.416915 
L 145.477055 -51.204992 
L 150.687372 -61.45241 
L 155.89769 -83.802566 
L 161.108007 -91.759904 
L 166.318324 -69.63125 
L 171.528641 -68.306001 
L 176.738958 -67.012661 
L 181.949275 -65.884648 
L 187.159592 -65.907106 
L 192.369909 -69.001545 
L 197.580226 -69.166897 
L 202.790543 -69.772128 
L 208.00086 -74.743146 
L 213.211177 -84.856555 
L 218.421494 -105.616612 
L 223.631811 -111.727271 
L 228.842128 -105.030181 
L 234.052445 -100.414376 
L 239.262762 -94.695433 
L 244.473079 -92.627977 
L 249.683396 -91.867143 
L 254.893713 -86.528032 
L 260.10403 -88.763775 
L 265.314347 -85.810392 
L 270.524664 -90.689084 
L 275.734981 -95.595342 
L 280.945298 -114.907292 
L 286.155615 -120.754727 
L 291.365933 -113.441419 
L 296.57625 -110.707644 
L 301.786567 -108.46433 
L 306.996884 -106.623531 
L 312.207201 -108.556369 
L 317.417518 -110.5884 
L 322.627835 -109.938274 
L 327.838152 -109.250105 
L 333.048469 -111.462999 
L 338.258786 -120.948462 
L 343.469103 -141.11285 
L 348.67942 -146.56705 
L 353.889737 -140.026935 
L 359.100054 -136.23595 
L 364.310371 -131.461067 
L 369.520688 -126.388216 
L 374.731005 -129.193085 
L 379.941322 -129.48012 
L 385.151639 -133.380172 
L 385.151639 -186.724924 
L 385.151639 -186.724924 
L 379.941322 -182.100193 
L 374.731005 -180.230018 
L 369.520688 -175.77949 
L 364.310371 -181.953537 
L 359.100054 -185.439419 
L 353.889737 -185.183263 
L 348.67942 -188.531274 
L 343.469103 -182.8836 
L 338.258786 -165.936823 
L 333.048469 -157.884663 
L 327.838152 -154.949635 
L 322.627835 -155.134198 
L 317.417518 -155.40779 
L 312.207201 -152.375778 
L 306.996884 -148.901282 
L 301.786567 -152.483785 
L 296.57625 -153.427406 
L 291.365933 -151.986556 
L 286.155615 -155.710911 
L 280.945298 -148.73548 
L 275.734981 -132.425681 
L 270.524664 -128.991727 
L 265.314347 -124.044414 
L 260.10403 -125.925255 
L 254.893713 -122.377151 
L 249.683396 -125.255286 
L 244.473079 -122.565388 
L 239.262762 -126.441479 
L 234.052445 -129.942703 
L 228.842128 -129.99962 
L 223.631811 -134.619718 
L 218.421494 -128.611723 
L 213.211177 -110.779977 
L 208.00086 -101.993976 
L 202.790543 -95.599763 
L 197.580226 -95.163799 
L 192.369909 -95.466437 
L 187.159592 -90.410994 
L 181.949275 -86.298338 
L 176.738958 -88.636216 
L 171.528641 -87.880216 
L 166.318324 -83.435917 
L 161.108007 -91.759904 
L 155.89769 -90.42137 
L 150.687372 -75.911918 
L 145.477055 -70.626605 
L 140.266738 -64.78449 
L 135.056421 -65.492186 
L 129.846104 -69.850187 
L 124.635787 -73.660155 
L 119.42547 -71.249446 
L 114.215153 -84.764858 
L 109.004836 -86.147503 
L 103.794519 -92.464252 
L 98.584202 -98.646433 
L 93.373885 -91.546148 
L 88.163568 -76.722409 
L 82.953251 -71.043214 
L 77.742934 -72.667083 
L 72.532617 -75.885085 
L 67.3223 -75.566254 
L 62.111983 -75.15198 
z
"/>
    </defs>
    <g clip-path="url(#p2ee9c324f3)">
     <use xlink:href="#m19a98cc9bb" x="0" y="205.511811" style="fill: #e397a0; fill-opacity: 0.55"/>
    </g>
   </g>
   <g id="matplotlib.axis_1">
    <g id="xtick_1">
     <g id="line2d_1">
      <defs>
       <path id="mf88d1d8011" d="M 0 0 
L 0 3 
" style="stroke: #404040"/>
      </defs>
      <g>
       <use xlink:href="#mf88d1d8011" x="62.111983" y="169.451811" style="fill: #404040; stroke: #404040"/>
      </g>
     </g>
     <g id="text_1">
      <!-- −20 -->
      <g style="fill: #4d4d4d" transform="translate(54.37128 182.579467) scale(0.09 -0.09)">
       <defs>
        <path id="CenturyGothic-Bold-2212" d="M 359 2688 
L 3481 2688 
L 3481 1906 
L 359 1906 
L 359 2688 
z
" transform="scale(0.015625)"/>
        <path id="CenturyGothic-Bold-32" d="M 1116 3116 
L 263 3116 
Q 297 3859 730 4286 
Q 1163 4713 1841 4713 
Q 2259 4713 2579 4536 
Q 2900 4359 3092 4026 
Q 3284 3694 3284 3350 
Q 3284 2941 3051 2469 
Q 2819 1997 2200 1353 
L 1684 809 
L 3322 809 
L 3322 0 
L 138 0 
L 138 419 
L 1559 1869 
Q 2075 2391 2245 2708 
Q 2416 3025 2416 3281 
Q 2416 3547 2239 3720 
Q 2063 3894 1784 3894 
Q 1503 3894 1315 3684 
Q 1128 3475 1116 3116 
z
" transform="scale(0.015625)"/>
        <path id="CenturyGothic-Bold-30" d="M 1778 4713 
Q 2281 4713 2645 4466 
Q 3009 4219 3207 3711 
Q 3406 3203 3406 2297 
Q 3406 1381 3204 872 
Q 3003 363 2662 123 
Q 2322 -116 1803 -116 
Q 1284 -116 931 125 
Q 578 366 378 856 
Q 178 1347 178 2253 
Q 178 3519 569 4088 
Q 1003 4713 1778 4713 
z
M 1800 3881 
Q 1578 3881 1406 3739 
Q 1234 3597 1143 3250 
Q 1053 2903 1053 2234 
Q 1053 1363 1261 1030 
Q 1469 697 1800 697 
Q 2119 697 2306 1013 
Q 2534 1394 2534 2288 
Q 2534 3194 2329 3537 
Q 2125 3881 1800 3881 
z
" transform="scale(0.015625)"/>
       </defs>
       <use xlink:href="#CenturyGothic-Bold-2212"/>
       <use xlink:href="#CenturyGothic-Bold-32" transform="translate(60.009766 0)"/>
       <use xlink:href="#CenturyGothic-Bold-30" transform="translate(116.015625 0)"/>
      </g>
     </g>
    </g>
    <g id="xtick_2">
     <g id="line2d_2">
      <g>
       <use xlink:href="#mf88d1d8011" x="114.215153" y="169.451811" style="fill: #404040; stroke: #404040"/>
      </g>
     </g>
     <g id="text_2">
      <!-- −10 -->
      <g style="fill: #4d4d4d" transform="translate(106.47445 182.579467) scale(0.09 -0.09)">
       <defs>
        <path id="CenturyGothic-Bold-31" d="M 1053 4597 
L 2363 4597 
L 2363 0 
L 1494 0 
L 1494 3775 
L 547 3775 
L 1053 4597 
z
" transform="scale(0.015625)"/>
       </defs>
       <use xlink:href="#CenturyGothic-Bold-2212"/>
       <use xlink:href="#CenturyGothic-Bold-31" transform="translate(60.009766 0)"/>
       <use xlink:href="#CenturyGothic-Bold-30" transform="translate(116.015625 0)"/>
      </g>
     </g>
    </g>
    <g id="xtick_3">
     <g id="line2d_3">
      <g>
       <use xlink:href="#mf88d1d8011" x="166.318324" y="169.451811" style="fill: #404040; stroke: #404040"/>
      </g>
     </g>
     <g id="text_3">
      <!-- 0 -->
      <g style="fill: #4d4d4d" transform="translate(163.798324 182.579467) scale(0.09 -0.09)">
       <use xlink:href="#CenturyGothic-Bold-30"/>
      </g>
     </g>
    </g>
    <g id="xtick_4">
     <g id="line2d_4">
      <g>
       <use xlink:href="#mf88d1d8011" x="218.421494" y="169.451811" style="fill: #404040; stroke: #404040"/>
      </g>
     </g>
     <g id="text_4">
      <!-- 10 -->
      <g style="fill: #4d4d4d" transform="translate(213.381494 182.579467) scale(0.09 -0.09)">
       <use xlink:href="#CenturyGothic-Bold-31"/>
       <use xlink:href="#CenturyGothic-Bold-30" transform="translate(56.005859 0)"/>
      </g>
     </g>
    </g>
    <g id="xtick_5">
     <g id="line2d_5">
      <g>
       <use xlink:href="#mf88d1d8011" x="270.524664" y="169.451811" style="fill: #404040; stroke: #404040"/>
      </g>
     </g>
     <g id="text_5">
      <!-- 20 -->
      <g style="fill: #4d4d4d" transform="translate(265.484664 182.579467) scale(0.09 -0.09)">
       <use xlink:href="#CenturyGothic-Bold-32"/>
       <use xlink:href="#CenturyGothic-Bold-30" transform="translate(56.005859 0)"/>
      </g>
     </g>
    </g>
    <g id="xtick_6">
     <g id="line2d_6">
      <g>
       <use xlink:href="#mf88d1d8011" x="322.627835" y="169.451811" style="fill: #404040; stroke: #404040"/>
      </g>
     </g>
     <g id="text_6">
      <!-- 30 -->
      <g style="fill: #4d4d4d" transform="translate(317.587835 182.579467) scale(0.09 -0.09)">
       <defs>
        <path id="CenturyGothic-Bold-33" d="M 1216 3463 
L 375 3463 
Q 441 3972 741 4281 
Q 1159 4713 1794 4713 
Q 2359 4713 2742 4353 
Q 3125 3994 3125 3500 
Q 3125 3194 2958 2941 
Q 2791 2688 2472 2531 
Q 2891 2406 3127 2095 
Q 3363 1784 3363 1363 
Q 3363 744 2906 314 
Q 2450 -116 1744 -116 
Q 1075 -116 653 289 
Q 231 694 191 1391 
L 1056 1391 
Q 1113 1034 1305 861 
Q 1497 688 1791 688 
Q 2097 688 2298 884 
Q 2500 1081 2500 1366 
Q 2500 1678 2228 1893 
Q 1956 2109 1444 2116 
L 1444 2866 
Q 1759 2891 1914 2964 
Q 2069 3038 2155 3166 
Q 2241 3294 2241 3438 
Q 2241 3625 2109 3748 
Q 1978 3872 1766 3872 
Q 1578 3872 1425 3758 
Q 1272 3644 1216 3463 
z
" transform="scale(0.015625)"/>
       </defs>
       <use xlink:href="#CenturyGothic-Bold-33"/>
       <use xlink:href="#CenturyGothic-Bold-30" transform="translate(56.005859 0)"/>
      </g>
     </g>
    </g>
    <g id="xtick_7">
     <g id="line2d_7">
      <g>
       <use xlink:href="#mf88d1d8011" x="374.731005" y="169.451811" style="fill: #404040; stroke: #404040"/>
      </g>
     </g>
     <g id="text_7">
      <!-- 40 -->
      <g style="fill: #4d4d4d" transform="translate(369.691005 182.579467) scale(0.09 -0.09)">
       <defs>
        <path id="CenturyGothic-Bold-34" d="M 2119 4713 
L 2994 4713 
L 2994 1753 
L 3403 1753 
L 3403 944 
L 2994 944 
L 2994 0 
L 2138 0 
L 2138 944 
L 131 944 
L 131 1753 
L 2119 4713 
z
M 2138 1753 
L 2138 3294 
L 1088 1753 
L 2138 1753 
z
" transform="scale(0.015625)"/>
       </defs>
       <use xlink:href="#CenturyGothic-Bold-34"/>
       <use xlink:href="#CenturyGothic-Bold-30" transform="translate(56.005859 0)"/>
      </g>
     </g>
    </g>
    <g id="text_8">
     <!-- Months relative to 2022-09 (baseline = -1) -->
     <g transform="translate(134.964936 195.078842) scale(0.09 -0.09)">
      <defs>
       <path id="CenturyGothic-4d" d="M 350 0 
L 1003 4597 
L 1078 4597 
L 2947 825 
L 4797 4597 
L 4872 4597 
L 5531 0 
L 5078 0 
L 4628 3288 
L 3003 0 
L 2888 0 
L 1241 3313 
L 794 0 
L 350 0 
z
" transform="scale(0.015625)"/>
       <path id="CenturyGothic-6f" d="M 2097 3488 
Q 2881 3488 3397 2919 
Q 3866 2400 3866 1691 
Q 3866 978 3370 445 
Q 2875 -88 2097 -88 
Q 1316 -88 820 445 
Q 325 978 325 1691 
Q 325 2397 794 2916 
Q 1309 3488 2097 3488 
z
M 2097 3059 
Q 1553 3059 1162 2656 
Q 772 2253 772 1681 
Q 772 1313 950 994 
Q 1128 675 1431 501 
Q 1734 328 2097 328 
Q 2459 328 2762 501 
Q 3066 675 3244 994 
Q 3422 1313 3422 1681 
Q 3422 2253 3030 2656 
Q 2638 3059 2097 3059 
z
" transform="scale(0.015625)"/>
       <path id="CenturyGothic-6e" d="M 488 3400 
L 925 3400 
L 925 2791 
Q 1188 3141 1506 3314 
Q 1825 3488 2200 3488 
Q 2581 3488 2876 3294 
Q 3172 3100 3312 2772 
Q 3453 2444 3453 1750 
L 3453 0 
L 3019 0 
L 3019 1622 
Q 3019 2209 2969 2406 
Q 2891 2744 2675 2914 
Q 2459 3084 2113 3084 
Q 1716 3084 1402 2821 
Q 1088 2559 988 2172 
Q 925 1919 925 1247 
L 925 0 
L 488 0 
L 488 3400 
z
" transform="scale(0.015625)"/>
       <path id="CenturyGothic-74" d="M 869 4663 
L 1309 4663 
L 1309 3400 
L 2003 3400 
L 2003 3025 
L 1309 3025 
L 1309 0 
L 869 0 
L 869 3025 
L 272 3025 
L 272 3400 
L 869 3400 
L 869 4663 
z
" transform="scale(0.015625)"/>
       <path id="CenturyGothic-68" d="M 488 4713 
L 925 4713 
L 925 2791 
Q 1191 3141 1509 3314 
Q 1828 3488 2200 3488 
Q 2581 3488 2876 3294 
Q 3172 3100 3312 2773 
Q 3453 2447 3453 1750 
L 3453 0 
L 3016 0 
L 3016 1622 
Q 3016 2209 2969 2406 
Q 2888 2744 2673 2914 
Q 2459 3084 2113 3084 
Q 1716 3084 1402 2821 
Q 1088 2559 988 2172 
Q 925 1922 925 1247 
L 925 0 
L 488 0 
L 488 4713 
z
" transform="scale(0.015625)"/>
       <path id="CenturyGothic-73" d="M 2197 3028 
L 1916 2738 
Q 1566 3078 1231 3078 
Q 1019 3078 867 2937 
Q 716 2797 716 2609 
Q 716 2444 841 2294 
Q 966 2141 1366 1934 
Q 1853 1681 2028 1447 
Q 2200 1209 2200 913 
Q 2200 494 1906 203 
Q 1613 -88 1172 -88 
Q 878 -88 611 40 
Q 344 169 169 394 
L 444 706 
Q 778 328 1153 328 
Q 1416 328 1600 497 
Q 1784 666 1784 894 
Q 1784 1081 1663 1228 
Q 1541 1372 1113 1591 
Q 653 1828 488 2059 
Q 322 2291 322 2588 
Q 322 2975 586 3231 
Q 850 3488 1253 3488 
Q 1722 3488 2197 3028 
z
" transform="scale(0.015625)"/>
       <path id="CenturyGothic-20" transform="scale(0.015625)"/>
       <path id="CenturyGothic-72" d="M 322 3400 
L 769 3400 
L 769 2903 
Q 969 3197 1191 3342 
Q 1413 3488 1653 3488 
Q 1834 3488 2041 3372 
L 1813 3003 
Q 1675 3063 1581 3063 
Q 1363 3063 1159 2883 
Q 956 2703 850 2325 
Q 769 2034 769 1150 
L 769 0 
L 322 0 
L 322 3400 
z
" transform="scale(0.015625)"/>
       <path id="CenturyGothic-65" d="M 3350 1128 
L 3719 934 
Q 3538 578 3300 359 
Q 3063 141 2766 26 
Q 2469 -88 2094 -88 
Q 1263 -88 794 457 
Q 325 1003 325 1691 
Q 325 2338 722 2844 
Q 1225 3488 2069 3488 
Q 2938 3488 3456 2828 
Q 3825 2363 3831 1666 
L 775 1666 
Q 788 1072 1153 692 
Q 1519 313 2056 313 
Q 2316 313 2561 403 
Q 2806 494 2978 644 
Q 3150 794 3350 1128 
z
M 3350 2044 
Q 3263 2394 3095 2603 
Q 2928 2813 2653 2941 
Q 2378 3069 2075 3069 
Q 1575 3069 1216 2747 
Q 953 2513 819 2044 
L 3350 2044 
z
" transform="scale(0.015625)"/>
       <path id="CenturyGothic-6c" d="M 422 4713 
L 859 4713 
L 859 0 
L 422 0 
L 422 4713 
z
" transform="scale(0.015625)"/>
       <path id="CenturyGothic-61" d="M 3875 3400 
L 3875 0 
L 3444 0 
L 3444 584 
Q 3169 250 2826 81 
Q 2484 -88 2078 -88 
Q 1356 -88 845 435 
Q 334 959 334 1709 
Q 334 2444 850 2966 
Q 1366 3488 2091 3488 
Q 2509 3488 2848 3309 
Q 3188 3131 3444 2775 
L 3444 3400 
L 3875 3400 
z
M 2125 3066 
Q 1759 3066 1450 2886 
Q 1141 2706 958 2381 
Q 775 2056 775 1694 
Q 775 1334 959 1006 
Q 1144 678 1455 495 
Q 1766 313 2122 313 
Q 2481 313 2803 494 
Q 3125 675 3298 984 
Q 3472 1294 3472 1681 
Q 3472 2272 3083 2669 
Q 2694 3066 2125 3066 
z
" transform="scale(0.015625)"/>
       <path id="CenturyGothic-69" d="M 641 4800 
Q 791 4800 897 4694 
Q 1003 4588 1003 4438 
Q 1003 4291 897 4184 
Q 791 4078 641 4078 
Q 494 4078 387 4184 
Q 281 4291 281 4438 
Q 281 4588 387 4694 
Q 494 4800 641 4800 
z
M 422 3400 
L 863 3400 
L 863 0 
L 422 0 
L 422 3400 
z
" transform="scale(0.015625)"/>
       <path id="CenturyGothic-76" d="M 166 3400 
L 631 3400 
L 1769 925 
L 2897 3400 
L 3366 3400 
L 1809 0 
L 1731 0 
L 166 3400 
z
" transform="scale(0.015625)"/>
       <path id="CenturyGothic-32" d="M 741 3156 
L 300 3156 
Q 319 3838 755 4275 
Q 1191 4713 1831 4713 
Q 2466 4713 2858 4303 
Q 3250 3894 3250 3338 
Q 3250 2947 3062 2605 
Q 2875 2263 2334 1678 
L 1191 444 
L 3313 444 
L 3313 0 
L 191 0 
L 1947 1897 
Q 2481 2469 2642 2745 
Q 2803 3022 2803 3328 
Q 2803 3716 2514 3995 
Q 2225 4275 1806 4275 
Q 1366 4275 1073 3981 
Q 781 3688 741 3156 
z
" transform="scale(0.015625)"/>
       <path id="CenturyGothic-30" d="M 203 2297 
Q 203 3206 398 3703 
Q 594 4200 950 4456 
Q 1306 4713 1747 4713 
Q 2194 4713 2556 4455 
Q 2919 4197 3130 3681 
Q 3341 3166 3341 2297 
Q 3341 1431 3133 918 
Q 2925 406 2559 145 
Q 2194 -116 1747 -116 
Q 1306 -116 953 137 
Q 600 391 401 892 
Q 203 1394 203 2297 
z
M 638 2288 
Q 638 1509 777 1111 
Q 916 713 1187 506 
Q 1459 300 1763 300 
Q 2069 300 2334 501 
Q 2600 703 2738 1106 
Q 2909 1597 2909 2288 
Q 2909 2981 2756 3423 
Q 2603 3866 2333 4070 
Q 2063 4275 1763 4275 
Q 1456 4275 1187 4070 
Q 919 3866 778 3467 
Q 638 3069 638 2288 
z
" transform="scale(0.015625)"/>
       <path id="CenturyGothic-2d" d="M 203 1919 
L 1922 1919 
L 1922 1538 
L 203 1538 
L 203 1919 
z
" transform="scale(0.015625)"/>
       <path id="CenturyGothic-39" d="M 1228 -116 
L 850 128 
L 2091 2009 
Q 1841 1928 1622 1928 
Q 1075 1928 694 2323 
Q 313 2719 313 3297 
Q 313 3694 497 4012 
Q 681 4331 1020 4522 
Q 1359 4713 1747 4713 
Q 2128 4713 2451 4528 
Q 2775 4344 2959 4012 
Q 3144 3681 3144 3306 
Q 3144 3022 3030 2711 
Q 2916 2400 2622 1963 
L 1228 -116 
z
M 1728 2331 
Q 2131 2331 2414 2614 
Q 2697 2897 2697 3297 
Q 2697 3697 2414 3980 
Q 2131 4263 1728 4263 
Q 1328 4263 1045 3980 
Q 763 3697 763 3297 
Q 763 2897 1045 2614 
Q 1328 2331 1728 2331 
z
" transform="scale(0.015625)"/>
       <path id="CenturyGothic-28" d="M 1469 4800 
L 1975 4800 
Q 1669 4172 1484 3334 
Q 1300 2497 1300 1606 
Q 1300 781 1439 15 
Q 1578 -750 1822 -1331 
L 1341 -1331 
Q 1109 -775 971 -22 
Q 834 731 834 1547 
Q 834 2425 996 3258 
Q 1159 4091 1469 4800 
z
" transform="scale(0.015625)"/>
       <path id="CenturyGothic-62" d="M 516 0 
L 516 4713 
L 950 4713 
L 950 2816 
Q 1225 3153 1565 3320 
Q 1906 3488 2313 3488 
Q 3034 3488 3545 2964 
Q 4056 2441 4056 1694 
Q 4056 956 3540 434 
Q 3025 -88 2300 -88 
Q 1884 -88 1546 90 
Q 1209 269 950 625 
L 950 0 
L 516 0 
z
M 2266 334 
Q 2631 334 2940 514 
Q 3250 694 3433 1019 
Q 3616 1344 3616 1706 
Q 3616 2069 3431 2397 
Q 3247 2725 2936 2908 
Q 2625 3091 2272 3091 
Q 1913 3091 1589 2908 
Q 1266 2725 1092 2415 
Q 919 2106 919 1719 
Q 919 1128 1308 731 
Q 1697 334 2266 334 
z
" transform="scale(0.015625)"/>
       <path id="CenturyGothic-3d" d="M 3522 3200 
L 3522 2772 
L 359 2772 
L 359 3200 
L 3522 3200 
z
M 3522 1825 
L 3522 1397 
L 359 1397 
L 359 1825 
L 3522 1825 
z
" transform="scale(0.015625)"/>
       <path id="CenturyGothic-31" d="M 1184 4597 
L 2088 4597 
L 2088 0 
L 1631 0 
L 1631 4147 
L 909 4147 
L 1184 4597 
z
" transform="scale(0.015625)"/>
       <path id="CenturyGothic-29" d="M 894 -1331 
L 388 -1331 
Q 697 -703 880 134 
Q 1063 972 1063 1863 
Q 1063 2688 923 3453 
Q 784 4219 541 4800 
L 1022 4800 
Q 1256 4244 1392 3489 
Q 1528 2734 1528 1919 
Q 1528 1044 1365 211 
Q 1203 -622 894 -1331 
z
" transform="scale(0.015625)"/>
      </defs>
      <use xlink:href="#CenturyGothic-4d"/>
      <use xlink:href="#CenturyGothic-6f" transform="translate(91.894531 0)"/>
      <use xlink:href="#CenturyGothic-6e" transform="translate(157.373047 0)"/>
      <use xlink:href="#CenturyGothic-74" transform="translate(218.359375 0)"/>
      <use xlink:href="#CenturyGothic-68" transform="translate(252.246094 0)"/>
      <use xlink:href="#CenturyGothic-73" transform="translate(313.232422 0)"/>
      <use xlink:href="#CenturyGothic-20" transform="translate(352.050781 0)"/>
      <use xlink:href="#CenturyGothic-72" transform="translate(379.736328 0)"/>
      <use xlink:href="#CenturyGothic-65" transform="translate(409.814453 0)"/>
      <use xlink:href="#CenturyGothic-6c" transform="translate(474.804688 0)"/>
      <use xlink:href="#CenturyGothic-61" transform="translate(494.824219 0)"/>
      <use xlink:href="#CenturyGothic-74" transform="translate(563.134766 0)"/>
      <use xlink:href="#CenturyGothic-69" transform="translate(597.021484 0)"/>
      <use xlink:href="#CenturyGothic-76" transform="translate(617.041016 0)"/>
      <use xlink:href="#CenturyGothic-65" transform="translate(672.460938 0)"/>
      <use xlink:href="#CenturyGothic-20" transform="translate(737.451172 0)"/>
      <use xlink:href="#CenturyGothic-74" transform="translate(765.136719 0)"/>
      <use xlink:href="#CenturyGothic-6f" transform="translate(799.023438 0)"/>
      <use xlink:href="#CenturyGothic-20" transform="translate(864.501953 0)"/>
      <use xlink:href="#CenturyGothic-32" transform="translate(892.1875 0)"/>
      <use xlink:href="#CenturyGothic-30" transform="translate(947.607422 0)"/>
      <use xlink:href="#CenturyGothic-32" transform="translate(1003.027344 0)"/>
      <use xlink:href="#CenturyGothic-32" transform="translate(1058.447266 0)"/>
      <use xlink:href="#CenturyGothic-2d" transform="translate(1113.867188 0)"/>
      <use xlink:href="#CenturyGothic-30" transform="translate(1147.070312 0)"/>
      <use xlink:href="#CenturyGothic-39" transform="translate(1202.490234 0)"/>
      <use xlink:href="#CenturyGothic-20" transform="translate(1257.910156 0)"/>
      <use xlink:href="#CenturyGothic-28" transform="translate(1285.595703 0)"/>
      <use xlink:href="#CenturyGothic-62" transform="translate(1322.509766 0)"/>
      <use xlink:href="#CenturyGothic-61" transform="translate(1390.722656 0)"/>
      <use xlink:href="#CenturyGothic-73" transform="translate(1459.033203 0)"/>
      <use xlink:href="#CenturyGothic-65" transform="translate(1497.851562 0)"/>
      <use xlink:href="#CenturyGothic-6c" transform="translate(1562.841797 0)"/>
      <use xlink:href="#CenturyGothic-69" transform="translate(1582.861328 0)"/>
      <use xlink:href="#CenturyGothic-6e" transform="translate(1602.880859 0)"/>
      <use xlink:href="#CenturyGothic-65" transform="translate(1663.867188 0)"/>
      <use xlink:href="#CenturyGothic-20" transform="translate(1728.857422 0)"/>
      <use xlink:href="#CenturyGothic-3d" transform="translate(1756.542969 0)"/>
      <use xlink:href="#CenturyGothic-20" transform="translate(1817.138672 0)"/>
      <use xlink:href="#CenturyGothic-2d" transform="translate(1844.824219 0)"/>
      <use xlink:href="#CenturyGothic-31" transform="translate(1878.027344 0)"/>
      <use xlink:href="#CenturyGothic-29" transform="translate(1933.447266 0)"/>
     </g>
    </g>
   </g>
   <g id="matplotlib.axis_2">
    <g id="ytick_1">
     <g id="line2d_8">
      <path d="M 45.96 149.779587 
L 401.303622 149.779587 
" clip-path="url(#p2ee9c324f3)" style="fill: none; stroke: #cccccc; stroke-linecap: square"/>
     </g>
     <g id="line2d_9">
      <defs>
       <path id="m959d43b46f" d="M 0 0 
L -3 0 
" style="stroke: #404040"/>
      </defs>
      <g>
       <use xlink:href="#m959d43b46f" x="45.96" y="149.779587" style="fill: #404040; stroke: #404040"/>
      </g>
     </g>
     <g id="text_9">
      <!-- −0.1 -->
      <g style="fill: #4d4d4d" transform="translate(21.46 153.093415) scale(0.09 -0.09)">
       <defs>
        <path id="CenturyGothic-Bold-2e" d="M 897 891 
Q 1100 891 1244 748 
Q 1388 606 1388 403 
Q 1388 200 1244 56 
Q 1100 -88 897 -88 
Q 694 -88 550 56 
Q 406 200 406 403 
Q 406 606 550 748 
Q 694 891 897 891 
z
" transform="scale(0.015625)"/>
       </defs>
       <use xlink:href="#CenturyGothic-Bold-2212"/>
       <use xlink:href="#CenturyGothic-Bold-30" transform="translate(60.009766 0)"/>
       <use xlink:href="#CenturyGothic-Bold-2e" transform="translate(116.015625 0)"/>
       <use xlink:href="#CenturyGothic-Bold-31" transform="translate(143.994141 0)"/>
      </g>
     </g>
    </g>
    <g id="ytick_2">
     <g id="line2d_10">
      <path d="M 45.96 113.751907 
L 401.303622 113.751907 
" clip-path="url(#p2ee9c324f3)" style="fill: none; stroke: #cccccc; stroke-linecap: square"/>
     </g>
     <g id="line2d_11">
      <g>
       <use xlink:href="#m959d43b46f" x="45.96" y="113.751907" style="fill: #404040; stroke: #404040"/>
      </g>
     </g>
     <g id="text_10">
      <!-- 0.0 -->
      <g style="fill: #4d4d4d" transform="translate(26.861406 117.065735) scale(0.09 -0.09)">
       <use xlink:href="#CenturyGothic-Bold-30"/>
       <use xlink:href="#CenturyGothic-Bold-2e" transform="translate(56.005859 0)"/>
       <use xlink:href="#CenturyGothic-Bold-30" transform="translate(83.984375 0)"/>
      </g>
     </g>
    </g>
    <g id="ytick_3">
     <g id="line2d_12">
      <path d="M 45.96 77.724227 
L 401.303622 77.724227 
" clip-path="url(#p2ee9c324f3)" style="fill: none; stroke: #cccccc; stroke-linecap: square"/>
     </g>
     <g id="line2d_13">
      <g>
       <use xlink:href="#m959d43b46f" x="45.96" y="77.724227" style="fill: #404040; stroke: #404040"/>
      </g>
     </g>
     <g id="text_11">
      <!-- 0.1 -->
      <g style="fill: #4d4d4d" transform="translate(26.861406 81.038055) scale(0.09 -0.09)">
       <use xlink:href="#CenturyGothic-Bold-30"/>
       <use xlink:href="#CenturyGothic-Bold-2e" transform="translate(56.005859 0)"/>
       <use xlink:href="#CenturyGothic-Bold-31" transform="translate(83.984375 0)"/>
      </g>
     </g>
    </g>
    <g id="ytick_4">
     <g id="line2d_14">
      <path d="M 45.96 41.696546 
L 401.303622 41.696546 
" clip-path="url(#p2ee9c324f3)" style="fill: none; stroke: #cccccc; stroke-linecap: square"/>
     </g>
     <g id="line2d_15">
      <g>
       <use xlink:href="#m959d43b46f" x="45.96" y="41.696546" style="fill: #404040; stroke: #404040"/>
      </g>
     </g>
     <g id="text_12">
      <!-- 0.2 -->
      <g style="fill: #4d4d4d" transform="translate(26.861406 45.010375) scale(0.09 -0.09)">
       <use xlink:href="#CenturyGothic-Bold-30"/>
       <use xlink:href="#CenturyGothic-Bold-2e" transform="translate(56.005859 0)"/>
       <use xlink:href="#CenturyGothic-Bold-32" transform="translate(83.984375 0)"/>
      </g>
     </g>
    </g>
    <g id="text_13">
     <!-- Effect on log registered unemployment -->
     <g transform="translate(15.588281 174.866531) rotate(-90) scale(0.09 -0.09)">
      <defs>
       <path id="CenturyGothic-45" d="M 563 4597 
L 3197 4597 
L 3197 4144 
L 1022 4144 
L 1022 2706 
L 3178 2706 
L 3178 2256 
L 1022 2256 
L 1022 453 
L 3178 453 
L 3178 0 
L 563 0 
L 563 4597 
z
" transform="scale(0.015625)"/>
       <path id="CenturyGothic-66" d="M 1888 4713 
L 1888 4284 
Q 1647 4388 1475 4388 
Q 1347 4388 1262 4336 
Q 1178 4284 1156 4217 
Q 1134 4150 1134 3859 
L 1134 3400 
L 1844 3400 
L 1844 3025 
L 1131 3025 
L 1131 0 
L 694 0 
L 694 3025 
L 247 3025 
L 247 3400 
L 694 3400 
L 694 3931 
Q 694 4297 761 4453 
Q 828 4609 989 4704 
Q 1150 4800 1378 4800 
Q 1591 4800 1888 4713 
z
" transform="scale(0.015625)"/>
       <path id="CenturyGothic-63" d="M 3788 2694 
L 3441 2478 
Q 2991 3075 2213 3075 
Q 1591 3075 1180 2675 
Q 769 2275 769 1703 
Q 769 1331 958 1003 
Q 1147 675 1476 494 
Q 1806 313 2216 313 
Q 2966 313 3441 909 
L 3788 681 
Q 3544 316 3133 114 
Q 2722 -88 2197 -88 
Q 1391 -88 859 425 
Q 328 938 328 1672 
Q 328 2166 576 2589 
Q 825 3013 1259 3250 
Q 1694 3488 2231 3488 
Q 2569 3488 2883 3384 
Q 3197 3281 3415 3115 
Q 3634 2950 3788 2694 
z
" transform="scale(0.015625)"/>
       <path id="CenturyGothic-67" d="M 3416 3400 
L 3856 3400 
L 3856 691 
Q 3856 -25 3731 -356 
Q 3559 -825 3134 -1078 
Q 2709 -1331 2113 -1331 
Q 1675 -1331 1326 -1207 
Q 978 -1084 759 -876 
Q 541 -669 356 -269 
L 831 -269 
Q 1025 -606 1331 -768 
Q 1638 -931 2091 -931 
Q 2538 -931 2845 -764 
Q 3153 -597 3284 -344 
Q 3416 -91 3416 472 
L 3416 647 
Q 3169 334 2812 167 
Q 2456 0 2056 0 
Q 1588 0 1175 233 
Q 763 466 538 859 
Q 313 1253 313 1725 
Q 313 2197 547 2605 
Q 781 3013 1195 3250 
Q 1609 3488 2069 3488 
Q 2450 3488 2779 3330 
Q 3109 3172 3416 2809 
L 3416 3400 
z
M 2125 3066 
Q 1753 3066 1434 2886 
Q 1116 2706 934 2389 
Q 753 2072 753 1703 
Q 753 1144 1128 778 
Q 1503 413 2100 413 
Q 2703 413 3070 775 
Q 3438 1138 3438 1728 
Q 3438 2113 3269 2414 
Q 3100 2716 2790 2891 
Q 2481 3066 2125 3066 
z
" transform="scale(0.015625)"/>
       <path id="CenturyGothic-64" d="M 3881 4713 
L 3881 0 
L 3450 0 
L 3450 584 
Q 3175 250 2833 81 
Q 2491 -88 2084 -88 
Q 1363 -88 852 435 
Q 341 959 341 1709 
Q 341 2444 856 2966 
Q 1372 3488 2097 3488 
Q 2516 3488 2855 3309 
Q 3194 3131 3450 2775 
L 3450 4713 
L 3881 4713 
z
M 2131 3066 
Q 1766 3066 1456 2886 
Q 1147 2706 964 2381 
Q 781 2056 781 1694 
Q 781 1334 965 1006 
Q 1150 678 1461 495 
Q 1772 313 2128 313 
Q 2488 313 2809 494 
Q 3131 675 3304 984 
Q 3478 1294 3478 1681 
Q 3478 2272 3089 2669 
Q 2700 3066 2131 3066 
z
" transform="scale(0.015625)"/>
       <path id="CenturyGothic-75" d="M 431 3400 
L 872 3400 
L 872 1813 
Q 872 1231 934 1013 
Q 1028 700 1292 519 
Q 1556 338 1922 338 
Q 2288 338 2542 514 
Q 2797 691 2894 978 
Q 2959 1175 2959 1813 
L 2959 3400 
L 3406 3400 
L 3406 1731 
Q 3406 1028 3242 672 
Q 3078 316 2748 114 
Q 2419 -88 1922 -88 
Q 1425 -88 1092 114 
Q 759 316 595 677 
Q 431 1038 431 1763 
L 431 3400 
z
" transform="scale(0.015625)"/>
       <path id="CenturyGothic-6d" d="M 484 3400 
L 919 3400 
L 919 2813 
Q 1147 3138 1388 3288 
Q 1719 3488 2084 3488 
Q 2331 3488 2553 3391 
Q 2775 3294 2915 3133 
Q 3056 2972 3159 2672 
Q 3378 3072 3706 3280 
Q 4034 3488 4413 3488 
Q 4766 3488 5036 3309 
Q 5306 3131 5437 2812 
Q 5569 2494 5569 1856 
L 5569 0 
L 5122 0 
L 5122 1856 
Q 5122 2403 5044 2608 
Q 4966 2813 4777 2938 
Q 4588 3063 4325 3063 
Q 4006 3063 3742 2875 
Q 3478 2688 3356 2375 
Q 3234 2063 3234 1331 
L 3234 0 
L 2800 0 
L 2800 1741 
Q 2800 2356 2723 2576 
Q 2647 2797 2456 2930 
Q 2266 3063 2003 3063 
Q 1700 3063 1436 2880 
Q 1172 2697 1045 2387 
Q 919 2078 919 1441 
L 919 0 
L 484 0 
L 484 3400 
z
" transform="scale(0.015625)"/>
       <path id="CenturyGothic-70" d="M 494 3400 
L 928 3400 
L 928 2775 
Q 1188 3131 1525 3309 
Q 1863 3488 2278 3488 
Q 3003 3488 3518 2966 
Q 4034 2444 4034 1709 
Q 4034 959 3523 435 
Q 3013 -88 2291 -88 
Q 1884 -88 1543 81 
Q 1203 250 928 584 
L 928 -1244 
L 494 -1244 
L 494 3400 
z
M 2244 3066 
Q 1675 3066 1286 2669 
Q 897 2272 897 1681 
Q 897 1294 1070 984 
Q 1244 675 1567 494 
Q 1891 313 2250 313 
Q 2603 313 2914 495 
Q 3225 678 3409 1006 
Q 3594 1334 3594 1694 
Q 3594 2056 3411 2381 
Q 3228 2706 2918 2886 
Q 2609 3066 2244 3066 
z
" transform="scale(0.015625)"/>
       <path id="CenturyGothic-79" d="M 122 3400 
L 584 3400 
L 1753 781 
L 2888 3400 
L 3353 3400 
L 1325 -1244 
L 863 -1244 
L 1519 256 
L 122 3400 
z
" transform="scale(0.015625)"/>
      </defs>
      <use xlink:href="#CenturyGothic-45"/>
      <use xlink:href="#CenturyGothic-66" transform="translate(53.613281 0)"/>
      <use xlink:href="#CenturyGothic-66" transform="translate(85.009766 0)"/>
      <use xlink:href="#CenturyGothic-65" transform="translate(116.40625 0)"/>
      <use xlink:href="#CenturyGothic-63" transform="translate(181.396484 0)"/>
      <use xlink:href="#CenturyGothic-74" transform="translate(246.09375 0)"/>
      <use xlink:href="#CenturyGothic-20" transform="translate(279.980469 0)"/>
      <use xlink:href="#CenturyGothic-6f" transform="translate(307.666016 0)"/>
      <use xlink:href="#CenturyGothic-6e" transform="translate(373.144531 0)"/>
      <use xlink:href="#CenturyGothic-20" transform="translate(434.130859 0)"/>
      <use xlink:href="#CenturyGothic-6c" transform="translate(461.816406 0)"/>
      <use xlink:href="#CenturyGothic-6f" transform="translate(481.835938 0)"/>
      <use xlink:href="#CenturyGothic-67" transform="translate(547.314453 0)"/>
      <use xlink:href="#CenturyGothic-20" transform="translate(614.599609 0)"/>
      <use xlink:href="#CenturyGothic-72" transform="translate(642.285156 0)"/>
      <use xlink:href="#CenturyGothic-65" transform="translate(672.363281 0)"/>
      <use xlink:href="#CenturyGothic-67" transform="translate(737.353516 0)"/>
      <use xlink:href="#CenturyGothic-69" transform="translate(804.638672 0)"/>
      <use xlink:href="#CenturyGothic-73" transform="translate(824.658203 0)"/>
      <use xlink:href="#CenturyGothic-74" transform="translate(863.476562 0)"/>
      <use xlink:href="#CenturyGothic-65" transform="translate(897.363281 0)"/>
      <use xlink:href="#CenturyGothic-72" transform="translate(962.353516 0)"/>
      <use xlink:href="#CenturyGothic-65" transform="translate(992.431641 0)"/>
      <use xlink:href="#CenturyGothic-64" transform="translate(1057.421875 0)"/>
      <use xlink:href="#CenturyGothic-20" transform="translate(1125.927734 0)"/>
      <use xlink:href="#CenturyGothic-75" transform="translate(1153.613281 0)"/>
      <use xlink:href="#CenturyGothic-6e" transform="translate(1214.404297 0)"/>
      <use xlink:href="#CenturyGothic-65" transform="translate(1275.390625 0)"/>
      <use xlink:href="#CenturyGothic-6d" transform="translate(1340.380859 0)"/>
      <use xlink:href="#CenturyGothic-70" transform="translate(1434.179688 0)"/>
      <use xlink:href="#CenturyGothic-6c" transform="translate(1502.392578 0)"/>
      <use xlink:href="#CenturyGothic-6f" transform="translate(1522.412109 0)"/>
      <use xlink:href="#CenturyGothic-79" transform="translate(1587.890625 0)"/>
      <use xlink:href="#CenturyGothic-6d" transform="translate(1641.503906 0)"/>
      <use xlink:href="#CenturyGothic-65" transform="translate(1735.302734 0)"/>
      <use xlink:href="#CenturyGothic-6e" transform="translate(1800.292969 0)"/>
      <use xlink:href="#CenturyGothic-74" transform="translate(1861.279297 0)"/>
     </g>
    </g>
   </g>
   <g id="line2d_16">
    <path d="M 45.96 113.751907 
L 401.303622 113.751907 
" clip-path="url(#p2ee9c324f3)" style="fill: none; stroke: #404040; stroke-width: 0.9; stroke-linecap: square"/>
   </g>
   <g id="line2d_17">
    <path d="M 163.713165 169.451811 
L 163.713165 9.72 
" clip-path="url(#p2ee9c324f3)" style="fill: none; stroke-dasharray: 3.7,1.6; stroke-dashoffset: 0; stroke: #404040"/>
   </g>
   <g id="line2d_18">
    <path d="M 62.111983 145.462036 
L 67.3223 145.125892 
L 72.532617 144.214 
L 77.742934 147.081729 
L 82.953251 148.329935 
L 88.163568 141.752331 
L 93.373885 124.034034 
L 98.584202 117.364184 
L 103.794519 124.397006 
L 109.004836 130.971084 
L 114.215153 132.846216 
L 119.42547 145.262746 
L 124.635787 142.529611 
L 129.846104 146.378083 
L 135.056421 150.747657 
L 140.266738 150.411108 
L 145.477055 144.596012 
L 150.687372 136.829647 
L 155.89769 118.399843 
L 161.108007 113.751907 
L 166.318324 128.978228 
L 171.528641 127.418702 
L 176.738958 127.687373 
L 181.949275 129.420318 
L 187.159592 127.352761 
L 192.369909 123.27782 
L 197.580226 123.346463 
L 202.790543 122.825866 
L 208.00086 117.14325 
L 213.211177 107.693545 
L 218.421494 88.397644 
L 223.631811 82.338316 
L 228.842128 87.996911 
L 234.052445 90.333271 
L 239.262762 94.943355 
L 244.473079 97.915129 
L 249.683396 96.950596 
L 254.893713 101.059219 
L 260.10403 98.167296 
L 265.314347 100.584408 
L 270.524664 95.671405 
L 275.734981 91.5013 
L 280.945298 73.690425 
L 286.155615 67.278992 
L 291.365933 72.797824 
L 296.57625 73.444286 
L 301.786567 75.037754 
L 306.996884 77.749405 
L 312.207201 75.045738 
L 317.417518 72.513716 
L 322.627835 72.975575 
L 327.838152 73.411941 
L 333.048469 70.83798 
L 338.258786 62.069169 
L 343.469103 43.513586 
L 348.67942 37.962649 
L 353.889737 42.906712 
L 359.100054 44.674127 
L 364.310371 48.804509 
L 369.520688 54.427958 
L 374.731005 50.80026 
L 379.941322 49.721655 
L 385.151639 45.459263 
" clip-path="url(#p2ee9c324f3)" style="fill: none; stroke: #83082a; stroke-width: 1.6; stroke-linecap: square"/>
    <defs>
     <path id="m94dceaf386" d="M 0 1.6 
C 0.424325 1.6 0.831328 1.431414 1.131371 1.131371 
C 1.431414 0.831328 1.6 0.424325 1.6 0 
C 1.6 -0.424325 1.431414 -0.831328 1.131371 -1.131371 
C 0.831328 -1.431414 0.424325 -1.6 0 -1.6 
C -0.424325 -1.6 -0.831328 -1.431414 -1.131371 -1.131371 
C -1.431414 -0.831328 -1.6 -0.424325 -1.6 0 
C -1.6 0.424325 -1.431414 0.831328 -1.131371 1.131371 
C -0.831328 1.431414 -0.424325 1.6 0 1.6 
z
" style="stroke: #83082a"/>
    </defs>
    <g clip-path="url(#p2ee9c324f3)">
     <use xlink:href="#m94dceaf386" x="62.111983" y="145.462036" style="fill: #83082a; stroke: #83082a"/>
     <use xlink:href="#m94dceaf386" x="67.3223" y="145.125892" style="fill: #83082a; stroke: #83082a"/>
     <use xlink:href="#m94dceaf386" x="72.532617" y="144.214" style="fill: #83082a; stroke: #83082a"/>
     <use xlink:href="#m94dceaf386" x="77.742934" y="147.081729" style="fill: #83082a; stroke: #83082a"/>
     <use xlink:href="#m94dceaf386" x="82.953251" y="148.329935" style="fill: #83082a; stroke: #83082a"/>
     <use xlink:href="#m94dceaf386" x="88.163568" y="141.752331" style="fill: #83082a; stroke: #83082a"/>
     <use xlink:href="#m94dceaf386" x="93.373885" y="124.034034" style="fill: #83082a; stroke: #83082a"/>
     <use xlink:href="#m94dceaf386" x="98.584202" y="117.364184" style="fill: #83082a; stroke: #83082a"/>
     <use xlink:href="#m94dceaf386" x="103.794519" y="124.397006" style="fill: #83082a; stroke: #83082a"/>
     <use xlink:href="#m94dceaf386" x="109.004836" y="130.971084" style="fill: #83082a; stroke: #83082a"/>
     <use xlink:href="#m94dceaf386" x="114.215153" y="132.846216" style="fill: #83082a; stroke: #83082a"/>
     <use xlink:href="#m94dceaf386" x="119.42547" y="145.262746" style="fill: #83082a; stroke: #83082a"/>
     <use xlink:href="#m94dceaf386" x="124.635787" y="142.529611" style="fill: #83082a; stroke: #83082a"/>
     <use xlink:href="#m94dceaf386" x="129.846104" y="146.378083" style="fill: #83082a; stroke: #83082a"/>
     <use xlink:href="#m94dceaf386" x="135.056421" y="150.747657" style="fill: #83082a; stroke: #83082a"/>
     <use xlink:href="#m94dceaf386" x="140.266738" y="150.411108" style="fill: #83082a; stroke: #83082a"/>
     <use xlink:href="#m94dceaf386" x="145.477055" y="144.596012" style="fill: #83082a; stroke: #83082a"/>
     <use xlink:href="#m94dceaf386" x="150.687372" y="136.829647" style="fill: #83082a; stroke: #83082a"/>
     <use xlink:href="#m94dceaf386" x="155.89769" y="118.399843" style="fill: #83082a; stroke: #83082a"/>
     <use xlink:href="#m94dceaf386" x="161.108007" y="113.751907" style="fill: #83082a; stroke: #83082a"/>
     <use xlink:href="#m94dceaf386" x="166.318324" y="128.978228" style="fill: #83082a; stroke: #83082a"/>
     <use xlink:href="#m94dceaf386" x="171.528641" y="127.418702" style="fill: #83082a; stroke: #83082a"/>
     <use xlink:href="#m94dceaf386" x="176.738958" y="127.687373" style="fill: #83082a; stroke: #83082a"/>
     <use xlink:href="#m94dceaf386" x="181.949275" y="129.420318" style="fill: #83082a; stroke: #83082a"/>
     <use xlink:href="#m94dceaf386" x="187.159592" y="127.352761" style="fill: #83082a; stroke: #83082a"/>
     <use xlink:href="#m94dceaf386" x="192.369909" y="123.27782" style="fill: #83082a; stroke: #83082a"/>
     <use xlink:href="#m94dceaf386" x="197.580226" y="123.346463" style="fill: #83082a; stroke: #83082a"/>
     <use xlink:href="#m94dceaf386" x="202.790543" y="122.825866" style="fill: #83082a; stroke: #83082a"/>
     <use xlink:href="#m94dceaf386" x="208.00086" y="117.14325" style="fill: #83082a; stroke: #83082a"/>
     <use xlink:href="#m94dceaf386" x="213.211177" y="107.693545" style="fill: #83082a; stroke: #83082a"/>
     <use xlink:href="#m94dceaf386" x="218.421494" y="88.397644" style="fill: #83082a; stroke: #83082a"/>
     <use xlink:href="#m94dceaf386" x="223.631811" y="82.338316" style="fill: #83082a; stroke: #83082a"/>
     <use xlink:href="#m94dceaf386" x="228.842128" y="87.996911" style="fill: #83082a; stroke: #83082a"/>
     <use xlink:href="#m94dceaf386" x="234.052445" y="90.333271" style="fill: #83082a; stroke: #83082a"/>
     <use xlink:href="#m94dceaf386" x="239.262762" y="94.943355" style="fill: #83082a; stroke: #83082a"/>
     <use xlink:href="#m94dceaf386" x="244.473079" y="97.915129" style="fill: #83082a; stroke: #83082a"/>
     <use xlink:href="#m94dceaf386" x="249.683396" y="96.950596" style="fill: #83082a; stroke: #83082a"/>
     <use xlink:href="#m94dceaf386" x="254.893713" y="101.059219" style="fill: #83082a; stroke: #83082a"/>
     <use xlink:href="#m94dceaf386" x="260.10403" y="98.167296" style="fill: #83082a; stroke: #83082a"/>
     <use xlink:href="#m94dceaf386" x="265.314347" y="100.584408" style="fill: #83082a; stroke: #83082a"/>
     <use xlink:href="#m94dceaf386" x="270.524664" y="95.671405" style="fill: #83082a; stroke: #83082a"/>
     <use xlink:href="#m94dceaf386" x="275.734981" y="91.5013" style="fill: #83082a; stroke: #83082a"/>
     <use xlink:href="#m94dceaf386" x="280.945298" y="73.690425" style="fill: #83082a; stroke: #83082a"/>
     <use xlink:href="#m94dceaf386" x="286.155615" y="67.278992" style="fill: #83082a; stroke: #83082a"/>
     <use xlink:href="#m94dceaf386" x="291.365933" y="72.797824" style="fill: #83082a; stroke: #83082a"/>
     <use xlink:href="#m94dceaf386" x="296.57625" y="73.444286" style="fill: #83082a; stroke: #83082a"/>
     <use xlink:href="#m94dceaf386" x="301.786567" y="75.037754" style="fill: #83082a; stroke: #83082a"/>
     <use xlink:href="#m94dceaf386" x="306.996884" y="77.749405" style="fill: #83082a; stroke: #83082a"/>
     <use xlink:href="#m94dceaf386" x="312.207201" y="75.045738" style="fill: #83082a; stroke: #83082a"/>
     <use xlink:href="#m94dceaf386" x="317.417518" y="72.513716" style="fill: #83082a; stroke: #83082a"/>
     <use xlink:href="#m94dceaf386" x="322.627835" y="72.975575" style="fill: #83082a; stroke: #83082a"/>
     <use xlink:href="#m94dceaf386" x="327.838152" y="73.411941" style="fill: #83082a; stroke: #83082a"/>
     <use xlink:href="#m94dceaf386" x="333.048469" y="70.83798" style="fill: #83082a; stroke: #83082a"/>
     <use xlink:href="#m94dceaf386" x="338.258786" y="62.069169" style="fill: #83082a; stroke: #83082a"/>
     <use xlink:href="#m94dceaf386" x="343.469103" y="43.513586" style="fill: #83082a; stroke: #83082a"/>
     <use xlink:href="#m94dceaf386" x="348.67942" y="37.962649" style="fill: #83082a; stroke: #83082a"/>
     <use xlink:href="#m94dceaf386" x="353.889737" y="42.906712" style="fill: #83082a; stroke: #83082a"/>
     <use xlink:href="#m94dceaf386" x="359.100054" y="44.674127" style="fill: #83082a; stroke: #83082a"/>
     <use xlink:href="#m94dceaf386" x="364.310371" y="48.804509" style="fill: #83082a; stroke: #83082a"/>
     <use xlink:href="#m94dceaf386" x="369.520688" y="54.427958" style="fill: #83082a; stroke: #83082a"/>
     <use xlink:href="#m94dceaf386" x="374.731005" y="50.80026" style="fill: #83082a; stroke: #83082a"/>
     <use xlink:href="#m94dceaf386" x="379.941322" y="49.721655" style="fill: #83082a; stroke: #83082a"/>
     <use xlink:href="#m94dceaf386" x="385.151639" y="45.459263" style="fill: #83082a; stroke: #83082a"/>
    </g>
   </g>
   <g id="patch_3">
    <path d="M 45.96 169.451811 
L 45.96 9.72 
" style="fill: none; stroke: #404040; stroke-linejoin: miter; stroke-linecap: square"/>
   </g>
   <g id="patch_4">
    <path d="M 45.96 169.451811 
L 401.303622 169.451811 
" style="fill: none; stroke: #404040; stroke-linejoin: miter; stroke-linecap: square"/>
   </g>
  </g>
 </g>
 <defs>
  <clipPath id="p2ee9c324f3">
   <rect x="45.96" y="9.72" width="355.343622" height="159.731811"/>
  </clipPath>
 </defs>
</svg>
